<svg width="1336" height="771" fill="none" xmlns="http://www.w3.org/2000/svg"><path d="M1530.26 536.672c-130.11-437.248-194.33-972.111-724.999-939.53C-368.509-330.794-208.23 775.456 138.776 678.476c644.926-180.243 360.933 57.261 882.574 473.834 521.64 416.58 671.54-69.08 508.91-615.638z" stroke="url(#paint0_linear_458_2730)" stroke-width="2"/><path d="M1495.52 539.766c-120.49-429.593-175.04-953.628-694.497-929.945C-347.931-337.795-208.243 746.484 132.593 656.994c633.459-166.322 352.078 61.558 855.776 476.966 503.701 415.41 657.771-57.2 507.151-594.194z" stroke="url(#paint1_linear_458_2730)" stroke-width="2"/><path d="M1461.48 542.394c-111.16-421.745-156.4-934.784-664.492-919.637C-326.828-343.739-206.998 718.202 127.52 635.982c621.717-152.808 343.179 65.591 829.104 479.378 485.926 413.78 643.796-45.78 504.856-572.966z" stroke="url(#paint2_linear_458_2730)" stroke-width="2"/><path d="M1428.14 544.573c-102.1-413.713-138.4-915.596-634.985-908.62C-305.22-348.618-204.51 690.634 123.548 615.463c609.71-139.707 334.243 69.359 802.573 481.067 468.329 411.7 629.639-34.82 502.019-551.957z" stroke="url(#paint3_linear_458_2730)" stroke-width="2"/><path d="M1395.5 546.319c-93.31-405.501-121.03-896.077-605.988-896.906-1072.65-1.835-990.313 1014.394-668.853 946.048 597.448-127.023 325.275 72.861 776.2 482.039 450.921 409.18 615.291-24.3 498.641-531.181z" stroke="url(#paint4_linear_458_2730)" stroke-width="2"/><path d="M1363.59 547.651c-84.82-397.119-104.33-876.243-577.534-884.51C-260.604-355.144-195.889 637.748 118.842 576c584.941-114.761 316.282 76.099 749.999 482.3 433.719 406.21 600.769-14.25 494.749-510.649z" stroke="url(#paint5_linear_458_2730)" stroke-width="2"/><path d="M1332.39 548.586c-76.61-388.572-88.27-856.112-549.611-871.445-1020.425-33.916-972.576 935.341-664.7 879.962 572.2-102.925 307.269 79.071 723.987 481.867 416.714 402.79 586.094-4.67 490.324-490.384z" stroke="url(#paint6_linear_458_2730)" stroke-width="2"/><path d="M1301.93 549.141c-68.7-379.868-72.88-835.697-522.256-857.726-993.963-48.725-962.218 896.619-661.319 847.377 559.234-91.52 298.243 81.779 698.18 480.728 399.935 398.95 571.265 4.46 485.395-470.379z" stroke="url(#paint7_linear_458_2730)" stroke-width="2"/><path d="M1272.2 549.333c-61.07-371.012-58.14-815.015-495.466-843.366-967.293-62.708-950.888 858.462-657.08 815.122 546.055-80.55 289.21 84.224 672.593 478.906C1175.63 1394.68 1348.54 1013.1 1272.2 549.333z" stroke="url(#paint8_linear_458_2730)" stroke-width="2"/><path d="M1243.22 549.181c-53.74-362.014-44.09-794.081-469.266-828.38-940.436-75.865-938.6 820.89-651.993 783.216 532.673-70.018 280.176 86.404 647.242 476.397 367.067 389.996 541.207 21.286 474.017-431.233z" stroke="url(#paint9_linear_458_2730)" stroke-width="2"/><path d="M1214.99 548.703c-46.72-352.878-30.7-772.912-443.665-812.784-913.412-88.19-925.372 783.924-646.068 751.679 519.098-59.928 271.146 88.321 622.141 473.211 350.992 384.891 525.992 28.993 467.592-412.106z" stroke="url(#paint10_linear_458_2730)" stroke-width="2"/><path d="M1187.52 547.917c-40-343.614-18-751.524-418.681-796.592-886.239-99.683-911.217 747.584-639.316 720.528 505.341-50.285 262.129 89.975 597.306 469.355 335.181 379.382 510.681 36.228 460.691-393.291z" stroke="url(#paint11_linear_458_2730)" stroke-width="2"/><path d="M1160.8 546.841c-33.57-334.229-5.97-729.934-394.306-779.821C-92.443-343.323-129.66 478.91 134.747 456.801c491.412-41.089 253.127 91.368 572.75 464.838 319.623 373.471 495.273 42.987 453.303-374.798z" stroke="url(#paint12_linear_458_2730)" stroke-width="2"/><path d="M1134.86 545.492c-27.46-324.729 5.36-708.156-370.58-762.484C-67.245-337.16-115.918 459.869 140.908 442.465c477.322-32.346 244.149 92.5 548.49 459.666 304.34 367.169 479.782 49.271 445.462-356.639z" stroke="url(#paint13_linear_458_2730)" stroke-width="2"/><path d="M1109.68 543.889c-21.65-315.12 16.02-686.207-347.491-744.599C-41.835-329.867-101.18 441.807 147.985 428.863c463.083-24.057 235.201 93.373 524.539 453.85 289.338 360.477 464.216 55.077 437.156-338.824z" stroke="url(#paint14_linear_458_2730)" stroke-width="2"/><path d="M1085.28 542.051c-16.15-305.413 25.98-664.103-325.063-726.182-776.452-137.31-845.682 608.878-604.254 600.147 448.706-16.225 226.287 93.987 500.912 447.396C931.5 1216.82 1105.47 923.817 1085.28 542.051z" stroke="url(#paint15_linear_458_2730)" stroke-width="2"/><path d="M1071.68 541.121c-11.02-295.612 35.75-641.873-306.338-707.188C8.684-310.535-70.619 410.072 165.457 405.259c438.758-8.946 219.676 94.298 482.541 440.213 262.866 345.918 437.462 65.163 423.682-304.351z" stroke="url(#paint16_linear_458_2730)" stroke-width="2"/><path d="M1038.83 537.743c-6.1-285.727 43.81-619.5-282.237-687.817C35.419-301.183-51.217 393.708 174.538 392.663c419.575-1.941 208.588 94.446 454.684 432.612 246.097 338.165 417.218 69.628 409.608-287.532z" stroke="url(#paint17_linear_458_2730)" stroke-width="2"/><path d="M1016.77 535.31c-1.53-275.764 51.7-597.031-261.842-667.902C61.421-289.349-32.732 379.769 185.096 382.194c404.846 4.506 199.814 94.294 432.112 424.301C849.506 1136.5 1018.69 880.016 1016.77 535.31z" stroke="url(#paint18_linear_458_2730)" stroke-width="2"/><path d="M995.512 532.716c2.709-265.732 58.878-574.474-242.159-647.522C87.504-276.378-13.378 366.91 196.474 372.554c390.02 10.49 191.099 93.889 409.918 415.389 218.82 321.497 385.734 76.937 389.12-255.227z" stroke="url(#paint19_linear_458_2730)" stroke-width="2"/><path d="M975.035 529.979c6.636-255.635 65.365-551.843-223.182-626.692C113.637-262.27 6.816 355.148 208.646 363.76c375.111 16.007 182.448 93.234 388.117 405.888 205.668 312.651 369.978 79.875 378.272-239.67z" stroke="url(#paint20_linear_458_2730)" stroke-width="2"/><path d="M955.356 527.118C965.601 281.634 1026.5-2.039 750.432-78.314 139.803-247.024 27.832 344.5 221.601 355.83c360.127 21.058 173.866 92.331 366.719 395.806 192.853 303.473 354.23 82.337 367.036-224.519z" stroke="url(#paint21_linear_458_2730)" stroke-width="2"/><path d="M936.471 524.152c13.537-235.285 76.239-506.43-187.393-583.759C165.97-230.643 49.638 334.986 235.311 348.781c345.082 25.64 165.361 91.182 345.74 385.155 180.38 293.974 338.5 84.322 355.42-209.784z" stroke="url(#paint22_linear_458_2730)" stroke-width="2"/><path d="M918.381 521.099c16.508-225.045 80.625-483.68-170.599-561.688C192.111-213.131 72.205 326.618 249.755 342.627c329.985 29.754 156.936 89.788 325.192 373.945 168.255 284.158 322.797 85.834 343.434-195.473z" stroke="url(#paint23_linear_458_2730)" stroke-width="2"/><path d="M901.086 517.979c19.162-214.774 84.318-460.924-154.548-539.241C218.2-194.488 95.505 319.416 264.911 337.386c314.847 33.398 148.598 88.152 305.086 362.187 156.487 274.035 307.136 86.873 331.089-181.594z" stroke="url(#paint24_linear_458_2730)" stroke-width="2"/><path d="M884.587 514.809C906.083 310.333 971.903 76.634 745.338-1.623 244.211-174.716 119.511 313.393 280.756 333.072c299.681 36.573 140.353 86.277 285.435 349.893 145.082 263.615 291.526 87.439 318.396-168.156z" stroke="url(#paint25_linear_458_2730)" stroke-width="2"/><path d="M868.885 511.609c23.511-194.162 89.618-415.453-124.708-493.282-474.058-172.148-599.982 290.237-446.908 311.372 284.497 39.28 132.206 84.166 266.251 337.073C697.566 919.68 839.497 754.31 868.885 511.609z" stroke="url(#paint26_linear_458_2730)" stroke-width="2"/><path d="M853.978 508.397c25.206-183.836 91.227-392.772-110.933-469.808-447.149-170.395-573.52 266.355-428.619 288.694 269.304 41.516 124.16 81.819 247.544 323.74 123.385 241.921 260.502 87.168 292.008-142.626z" stroke="url(#paint27_linear_458_2730)" stroke-width="2"/><path d="M839.866 505.192c26.582-173.508 92.144-370.148-97.931-446.03-420.419-167.837-546.461 243.384-409.732 266.674 254.116 43.286 116.223 79.242 229.328 309.906 113.104 230.665 245.109 86.335 278.335-130.55z" stroke="url(#paint28_linear_458_2730)" stroke-width="2"/><path d="M826.546 502.013c27.638-163.184 92.372-347.598-85.708-421.963C346.952-84.434 222.01 301.384 350.574 325.373c238.943 44.587 108.402 76.436 211.613 295.583 103.211 219.147 229.811 85.038 264.359-118.943z" stroke="url(#paint29_linear_458_2730)" stroke-width="2"/><path d="M814.019 498.878c28.377-152.874 91.914-325.138-74.268-397.629-367.569-160.338-490.644 200.218-370.23 224.657 223.795 45.42 100.698 73.403 194.409 280.781 93.71 207.379 214.618 83.282 250.089-107.809z" stroke="url(#paint30_linear_458_2730)" stroke-width="2"/><path d="M802.282 495.805c28.798-142.582 90.773-302.784-63.617-373.045C397.177-32.646 276.733 302.809 389.017 327.446c208.684 45.789 93.118 70.148 177.726 265.516 84.609 195.369 199.542 81.07 235.539-97.157z" stroke="url(#paint31_linear_458_2730)" stroke-width="2"/><path d="M791.334 492.814c28.902-132.318 88.951-280.553-53.761-348.231C421.915-5.112 304.86 305.42 409.038 330.006c193.621 45.693 85.668 66.674 161.577 249.8 75.909 183.126 184.592 78.405 220.719-86.992z" stroke="url(#paint32_linear_458_2730)" stroke-width="2"/><path d="M781.17 489.922c28.69-122.088 86.453-258.459-44.704-323.205C446.367 23.506 333.455 309.312 429.56 333.597c178.615 45.134 78.351 62.983 145.97 233.645 67.618 170.661 169.778 75.29 205.64-77.32z" stroke="url(#paint33_linear_458_2730)" stroke-width="2"/><path d="M771.786 487.148c28.163-111.901 83.282-236.518-36.45-297.987C470.508 53.2 362.486 314.492 450.555 338.229c163.679 44.116 71.174 59.08 130.914 217.065 59.741 157.985 155.113 71.729 190.317-68.146z" stroke="url(#paint34_linear_458_2730)" stroke-width="2"/><path d="M763.182 484.51c27.323-101.762 79.442-214.746-29.002-272.595C494.316 83.962 391.926 320.971 472.002 343.913c148.823 42.638 64.141 54.968 116.421 200.073 52.28 145.105 140.604 67.727 174.759-59.476z" stroke="url(#paint35_linear_458_2730)" stroke-width="2"/><path d="M755.351 482.027c26.172-91.68 74.94-193.159-22.364-247.049-215.224-119.196-311.244 93.779-239.114 115.68 134.059 40.705 57.257 50.65 102.499 182.683 45.242 132.034 126.264 63.286 158.979-51.314z" stroke="url(#paint36_linear_458_2730)" stroke-width="2"/><path d="M748.288 479.717c24.711-81.663 69.78-171.774-16.539-221.369-190.924-109.696-279.847 79.509-215.606 100.126 119.394 38.317 50.526 46.129 89.156 164.908 38.629 118.78 112.101 58.413 142.989-43.665z" stroke="url(#paint37_linear_458_2730)" stroke-width="2"/><path d="M741.989 477.597c22.94-71.716 63.965-150.602-11.53-195.571-166.983-99.464-248.084 66.253-191.673 85.343 104.842 35.478 43.953 41.411 76.401 146.764 32.447 105.352 98.127 53.109 126.802-36.536z" stroke="url(#paint38_linear_458_2730)" stroke-width="2"/><path d="M736.453 475.686c20.863-61.848 57.503-129.663-7.338-169.678C585.697 217.5 513.132 360.029 561.78 377.35c90.413 32.192 37.543 36.498 64.242 128.263 26.699 91.764 84.352 47.382 110.431-29.927z" stroke="url(#paint39_linear_458_2730)" stroke-width="2"/><path d="M731.669 474c18.482-52.065 50.399-108.969-3.965-143.707-120.245-76.837-183.565 42.819-142.61 58.132 76.117 28.462 31.301 31.396 52.689 109.421 21.388 78.024 70.784 41.236 93.886-23.846z" stroke="url(#paint40_linear_458_2730)" stroke-width="2"/><defs><linearGradient id="paint0_linear_458_2730" x1="476.941" y1="-348.241" x2="972.496" y2="1424.9" gradientUnits="userSpaceOnUse"><stop stop-color="#fff" stop-opacity=".13"/><stop offset="1" stop-color="#fff" stop-opacity="0"/></linearGradient><linearGradient id="paint1_linear_458_2730" x1="479.113" y1="-341.828" x2="936.392" y2="1399.78" gradientUnits="userSpaceOnUse"><stop stop-color="#fff" stop-opacity=".13"/><stop offset="1" stop-color="#fff" stop-opacity="0"/></linearGradient><linearGradient id="paint2_linear_458_2730" x1="481.603" y1="-334.942" x2="901.725" y2="1374.37" gradientUnits="userSpaceOnUse"><stop stop-color="#fff" stop-opacity=".13"/><stop offset="1" stop-color="#fff" stop-opacity="0"/></linearGradient><linearGradient id="paint3_linear_458_2730" x1="484.403" y1="-327.579" x2="868.503" y2="1348.71" gradientUnits="userSpaceOnUse"><stop stop-color="#fff" stop-opacity=".13"/><stop offset="1" stop-color="#fff" stop-opacity="0"/></linearGradient><linearGradient id="paint4_linear_458_2730" x1="487.497" y1="-319.732" x2="836.721" y2="1322.83" gradientUnits="userSpaceOnUse"><stop stop-color="#fff" stop-opacity=".13"/><stop offset="1" stop-color="#fff" stop-opacity="0"/></linearGradient><linearGradient id="paint5_linear_458_2730" x1="490.876" y1="-311.395" x2="806.386" y2="1296.77" gradientUnits="userSpaceOnUse"><stop stop-color="#fff" stop-opacity=".13"/><stop offset="1" stop-color="#fff" stop-opacity="0"/></linearGradient><linearGradient id="paint6_linear_458_2730" x1="494.527" y1="-302.563" x2="777.494" y2="1270.56" gradientUnits="userSpaceOnUse"><stop stop-color="#fff" stop-opacity=".13"/><stop offset="1" stop-color="#fff" stop-opacity="0"/></linearGradient><linearGradient id="paint7_linear_458_2730" x1="498.438" y1="-293.232" x2="750.047" y2="1244.24" gradientUnits="userSpaceOnUse"><stop stop-color="#fff" stop-opacity=".13"/><stop offset="1" stop-color="#fff" stop-opacity="0"/></linearGradient><linearGradient id="paint8_linear_458_2730" x1="502.597" y1="-283.396" x2="724.044" y2="1217.83" gradientUnits="userSpaceOnUse"><stop stop-color="#fff" stop-opacity=".13"/><stop offset="1" stop-color="#fff" stop-opacity="0"/></linearGradient><linearGradient id="paint9_linear_458_2730" x1="506.993" y1="-273.051" x2="699.484" y2="1191.37" gradientUnits="userSpaceOnUse"><stop stop-color="#fff" stop-opacity=".13"/><stop offset="1" stop-color="#fff" stop-opacity="0"/></linearGradient><linearGradient id="paint10_linear_458_2730" x1="511.611" y1="-262.193" x2="676.363" y2="1164.89" gradientUnits="userSpaceOnUse"><stop stop-color="#fff" stop-opacity=".13"/><stop offset="1" stop-color="#fff" stop-opacity="0"/></linearGradient><linearGradient id="paint11_linear_458_2730" x1="516.438" y1="-250.818" x2="654.676" y2="1138.43" gradientUnits="userSpaceOnUse"><stop stop-color="#fff" stop-opacity=".13"/><stop offset="1" stop-color="#fff" stop-opacity="0"/></linearGradient><linearGradient id="paint12_linear_458_2730" x1="521.467" y1="-238.923" x2="634.425" y2="1112.02" gradientUnits="userSpaceOnUse"><stop stop-color="#fff" stop-opacity=".13"/><stop offset="1" stop-color="#fff" stop-opacity="0"/></linearGradient><linearGradient id="paint13_linear_458_2730" x1="526.683" y1="-226.503" x2="615.604" y2="1085.69" gradientUnits="userSpaceOnUse"><stop stop-color="#fff" stop-opacity=".13"/><stop offset="1" stop-color="#fff" stop-opacity="0"/></linearGradient><linearGradient id="paint14_linear_458_2730" x1="532.07" y1="-213.556" x2="598.204" y2="1059.48" gradientUnits="userSpaceOnUse"><stop stop-color="#fff" stop-opacity=".13"/><stop offset="1" stop-color="#fff" stop-opacity="0"/></linearGradient><linearGradient id="paint15_linear_458_2730" x1="537.621" y1="-200.079" x2="582.225" y2="1033.41" gradientUnits="userSpaceOnUse"><stop stop-color="#fff" stop-opacity=".13"/><stop offset="1" stop-color="#fff" stop-opacity="0"/></linearGradient><linearGradient id="paint16_linear_458_2730" x1="548.055" y1="-184.837" x2="572.391" y2="1008.76" gradientUnits="userSpaceOnUse"><stop stop-color="#fff" stop-opacity=".13"/><stop offset="1" stop-color="#fff" stop-opacity="0"/></linearGradient><linearGradient id="paint17_linear_458_2730" x1="549.155" y1="-171.524" x2="554.492" y2="981.853" gradientUnits="userSpaceOnUse"><stop stop-color="#fff" stop-opacity=".13"/><stop offset="1" stop-color="#fff" stop-opacity="0"/></linearGradient><linearGradient id="paint18_linear_458_2730" x1="555.114" y1="-156.441" x2="542.726" y2="956.426" gradientUnits="userSpaceOnUse"><stop stop-color="#fff" stop-opacity=".13"/><stop offset="1" stop-color="#fff" stop-opacity="0"/></linearGradient><linearGradient id="paint19_linear_458_2730" x1="561.184" y1="-140.82" x2="532.348" y2="931.275" gradientUnits="userSpaceOnUse"><stop stop-color="#fff" stop-opacity=".13"/><stop offset="1" stop-color="#fff" stop-opacity="0"/></linearGradient><linearGradient id="paint20_linear_458_2730" x1="567.346" y1="-124.657" x2="523.345" y2="906.434" gradientUnits="userSpaceOnUse"><stop stop-color="#fff" stop-opacity=".13"/><stop offset="1" stop-color="#fff" stop-opacity="0"/></linearGradient><linearGradient id="paint21_linear_458_2730" x1="573.599" y1="-107.952" x2="515.717" y2="881.933" gradientUnits="userSpaceOnUse"><stop stop-color="#fff" stop-opacity=".13"/><stop offset="1" stop-color="#fff" stop-opacity="0"/></linearGradient><linearGradient id="paint22_linear_458_2730" x1="579.924" y1="-90.705" x2="509.448" y2="857.804" gradientUnits="userSpaceOnUse"><stop stop-color="#fff" stop-opacity=".13"/><stop offset="1" stop-color="#fff" stop-opacity="0"/></linearGradient><linearGradient id="paint23_linear_458_2730" x1="586.308" y1="-72.914" x2="504.527" y2="834.076" gradientUnits="userSpaceOnUse"><stop stop-color="#fff" stop-opacity=".13"/><stop offset="1" stop-color="#fff" stop-opacity="0"/></linearGradient><linearGradient id="paint24_linear_458_2730" x1="592.739" y1="-54.579" x2="500.942" y2="810.783" gradientUnits="userSpaceOnUse"><stop stop-color="#fff" stop-opacity=".13"/><stop offset="1" stop-color="#fff" stop-opacity="0"/></linearGradient><linearGradient id="paint25_linear_458_2730" x1="599.203" y1="-35.699" x2="498.683" y2="787.954" gradientUnits="userSpaceOnUse"><stop stop-color="#fff" stop-opacity=".13"/><stop offset="1" stop-color="#fff" stop-opacity="0"/></linearGradient><linearGradient id="paint26_linear_458_2730" x1="605.69" y1="-16.275" x2="497.735" y2="765.619" gradientUnits="userSpaceOnUse"><stop stop-color="#fff" stop-opacity=".13"/><stop offset="1" stop-color="#fff" stop-opacity="0"/></linearGradient><linearGradient id="paint27_linear_458_2730" x1="612.184" y1="3.693" x2="498.086" y2="743.808" gradientUnits="userSpaceOnUse"><stop stop-color="#fff" stop-opacity=".13"/><stop offset="1" stop-color="#fff" stop-opacity="0"/></linearGradient><linearGradient id="paint28_linear_458_2730" x1="618.674" y1="24.205" x2="499.719" y2="722.551" gradientUnits="userSpaceOnUse"><stop stop-color="#fff" stop-opacity=".13"/><stop offset="1" stop-color="#fff" stop-opacity="0"/></linearGradient><linearGradient id="paint29_linear_458_2730" x1="625.144" y1="45.261" x2="502.621" y2="701.879" gradientUnits="userSpaceOnUse"><stop stop-color="#fff" stop-opacity=".13"/><stop offset="1" stop-color="#fff" stop-opacity="0"/></linearGradient><linearGradient id="paint30_linear_458_2730" x1="631.587" y1="66.856" x2="506.778" y2="681.818" gradientUnits="userSpaceOnUse"><stop stop-color="#fff" stop-opacity=".13"/><stop offset="1" stop-color="#fff" stop-opacity="0"/></linearGradient><linearGradient id="paint31_linear_458_2730" x1="637.988" y1="88.993" x2="512.173" y2="662.398" gradientUnits="userSpaceOnUse"><stop stop-color="#fff" stop-opacity=".13"/><stop offset="1" stop-color="#fff" stop-opacity="0"/></linearGradient><linearGradient id="paint32_linear_458_2730" x1="644.334" y1="111.668" x2="518.791" y2="643.647" gradientUnits="userSpaceOnUse"><stop stop-color="#fff" stop-opacity=".13"/><stop offset="1" stop-color="#fff" stop-opacity="0"/></linearGradient><linearGradient id="paint33_linear_458_2730" x1="650.612" y1="134.879" x2="526.612" y2="625.594" gradientUnits="userSpaceOnUse"><stop stop-color="#fff" stop-opacity=".13"/><stop offset="1" stop-color="#fff" stop-opacity="0"/></linearGradient><linearGradient id="paint34_linear_458_2730" x1="656.808" y1="158.625" x2="535.619" y2="608.266" gradientUnits="userSpaceOnUse"><stop stop-color="#fff" stop-opacity=".13"/><stop offset="1" stop-color="#fff" stop-opacity="0"/></linearGradient><linearGradient id="paint35_linear_458_2730" x1="662.914" y1="182.903" x2="545.795" y2="591.689" gradientUnits="userSpaceOnUse"><stop stop-color="#fff" stop-opacity=".13"/><stop offset="1" stop-color="#fff" stop-opacity="0"/></linearGradient><linearGradient id="paint36_linear_458_2730" x1="668.914" y1="207.71" x2="557.121" y2="575.893" gradientUnits="userSpaceOnUse"><stop stop-color="#fff" stop-opacity=".13"/><stop offset="1" stop-color="#fff" stop-opacity="0"/></linearGradient><linearGradient id="paint37_linear_458_2730" x1="674.794" y1="233.044" x2="569.575" y2="560.901" gradientUnits="userSpaceOnUse"><stop stop-color="#fff" stop-opacity=".13"/><stop offset="1" stop-color="#fff" stop-opacity="0"/></linearGradient><linearGradient id="paint38_linear_458_2730" x1="680.544" y1="258.902" x2="583.139" y2="546.741" gradientUnits="userSpaceOnUse"><stop stop-color="#fff" stop-opacity=".13"/><stop offset="1" stop-color="#fff" stop-opacity="0"/></linearGradient><linearGradient id="paint39_linear_458_2730" x1="686.154" y1="285.278" x2="597.794" y2="533.438" gradientUnits="userSpaceOnUse"><stop stop-color="#fff" stop-opacity=".13"/><stop offset="1" stop-color="#fff" stop-opacity="0"/></linearGradient><linearGradient id="paint40_linear_458_2730" x1="691.608" y1="312.171" x2="613.517" y2="521.016" gradientUnits="userSpaceOnUse"><stop stop-color="#fff" stop-opacity=".13"/><stop offset="1" stop-color="#fff" stop-opacity="0"/></linearGradient></defs></svg>