<svg width="56" height="56" fill="none" xmlns="http://www.w3.org/2000/svg"><path d="M28.15 55.72c15.188 0 27.5-12.312 27.5-27.5S43.338.72 28.15.72C12.963.72.65 13.032.65 28.22s12.313 27.5 27.5 27.5z" fill="#E94D6E"/><path d="M28.15 40.22c6.628 0 12-5.373 12-12s-5.372-12-12-12c-6.627 0-12 5.373-12 12s5.373 12 12 12z" fill="#fff"/><path fill-rule="evenodd" clip-rule="evenodd" d="M28.14 21.44c.6 0 1 .4 1 1v8.4c.2-.3.4-.5.5-.7.8-1 2.1-2 3.7-1.6.5.1.9.7.7 1.2-.1.5-.7.9-1.2.7-.4-.1-1 .1-1.7.9s-1.2 1.9-1.6 3c-.2.5-.8.8-1.3.6 0 0-.1 0-.1-.1 0 0-.1 0-.1.1-.5.2-1.1-.1-1.3-.6-.4-1-1-2.2-1.6-3-.7-.8-1.3-1-1.7-.9-.5.1-1.1-.2-1.2-.7-.1-.5.2-1.1.7-1.2 1.6-.4 2.9.6 3.7 1.6.2.2.4.5.5.7v-8.4c0-.6.4-1 1-1z" fill="#E94D6E"/></svg>