<svg width="1336" height="771" fill="none" xmlns="http://www.w3.org/2000/svg"><g opacity=".3" clip-rule="evenodd" stroke-width="2"><path d="M75.086 476.626C.638 393.707-106.815 300.951-86.05 191.467-64.546 78.075 91.729 54.017 171.123-29.749c61.965-65.377 72.141-180.241 155.555-214.239 83.369-33.979 171.135 52.145 260.84 44.527 136.9-11.626 285.495-187.581 391.276-99.905 103.306 85.623-59.062 259.967-38.237 392.518 17.35 110.435 190.673 191.753 146.143 294.289-46.49 107.038-225.441 50.763-323.495 114.04-80.303 51.821-91.496 186.052-183.207 212.945-91.576 26.853-182.386-39.763-268.722-80.425-87.358-41.143-171.679-85.524-236.19-157.375z" stroke="url(#paint0_linear_257_1192)"/><path opacity=".959" d="M89.778 469.289C18.27 383.822-85.882 287.373-61.308 178.679-35.858 66.107 121.16 47.517 203.43-33.427 267.638-96.6 281.816-211.04 366.366-242.106c84.504-31.048 169.211 58.086 259.127 53.603 137.222-6.841 291.868-177.502 394.527-86.189 100.25 89.177-68.101 257.748-51.915 390.944 13.486 110.974 183.865 198.291 135.775 299.211-50.19 105.35-227.067 42.865-327.269 102.68-82.063 48.988-97.934 182.746-190.527 206.421-92.458 23.641-180.887-46.103-265.752-89.753-85.869-44.167-168.59-91.464-230.553-165.522z" stroke="url(#paint1_linear_257_1192)"/><path opacity=".917" d="M104.717 462.467C36.234 374.557-64.487 274.531-36.136 166.761-6.773 55.146 150.8 42.048 235.843-35.976c66.374-60.895 84.538-174.77 170.121-202.866 85.536-28.08 167.08 63.956 257.098 62.614 137.377-2.048 297.884-167.209 397.288-72.368 97.08 92.621-77.048 255.215-65.521 388.895 9.601 111.376 176.831 204.587 125.251 303.766-53.84 103.534-228.425 34.914-330.654 91.197-83.722 46.093-104.252 179.216-197.615 199.646-93.227 20.399-179.168-52.388-262.458-98.974-84.275-47.136-165.294-97.291-224.636-173.467z" stroke="url(#paint2_linear_257_1192)"/><path opacity=".876" d="M119.885 456.17C54.512 365.924-42.657 262.444-10.562 155.729 22.678 45.206 180.61 37.615 268.326-37.393c68.459-58.541 90.586-171.713 177.097-196.805 86.464-25.078 164.747 69.747 254.757 71.548 137.365 2.748 303.54-156.71 399.58-58.458 93.78 95.952-85.92 252.37-79.06 386.371 5.71 111.643 169.58 210.633 114.58 307.952-57.43 101.592-229.513 26.921-333.644 79.602-85.28 43.143-110.443 175.469-204.462 192.627-93.882 17.134-177.231-58.608-258.844-108.072-82.578-50.049-161.799-103.002-218.445-181.202z" stroke="url(#paint3_linear_257_1192)"/><path opacity=".835" d="M135.263 450.407C73.079 357.934-20.419 251.126 15.38 145.596 52.459 36.301 210.56 34.226 300.84-37.675c70.46-56.117 96.524-168.447 183.857-190.504 87.287-22.046 162.213 75.454 252.105 80.395 137.185 7.54 308.819-146.022 401.369-44.478 90.39 99.167-94.66 249.218-92.49 383.376 1.81 111.775 162.13 216.424 103.76 311.764-60.93 99.526-230.308 18.895-336.214 67.909-86.733 40.141-116.499 171.508-211.06 185.375-94.423 13.847-175.077-64.758-254.915-117.04-80.781-52.901-158.105-108.586-211.988-188.715z" stroke="url(#paint4_linear_257_1192)"/><path opacity=".794" d="M150.833 445.184C91.915 350.597 2.201 240.591 41.661 136.375 82.531 28.44 240.608 31.885 333.342-36.822c72.376-53.624 102.343-164.976 190.394-183.972 88.003-18.986 159.48 81.069 249.145 89.144 136.838 12.324 313.729-135.155 402.679-30.442 86.87 102.26-103.31 245.762-105.82 379.914-2.09 111.77 154.48 221.951 92.82 315.195-64.37 97.339-230.826 10.846-338.378 56.134-88.082 37.09-122.414 167.338-217.401 177.896-94.849 10.543-172.711-70.829-250.675-125.865-78.886-55.688-154.219-114.037-205.273-195.998z" stroke="url(#paint5_linear_257_1192)"/><path opacity=".752" d="M166.575 440.507c-55.581-96.586-141.401-209.656-98.327-312.431C112.859 21.634 270.72 30.592 365.795-34.836c74.203-51.065 108.039-161.303 196.699-177.215 88.612-15.903 156.554 86.586 245.882 97.785 136.325 17.092 318.254-124.124 403.494-16.371 83.25 105.23-111.82 242.007-119.01 375.991-5.99 111.629 146.64 227.206 81.76 318.242-67.73 95.033-231.063 2.783-340.13 44.29-89.322 33.994-128.179 162.964-223.477 170.201-95.159 7.226-170.134-76.814-246.13-134.538-76.894-58.406-150.145-119.349-198.308-203.042z" stroke="url(#paint6_linear_257_1192)"/><path opacity=".711" d="M182.472 436.382C130.295 337.916 48.473 221.92 95.108 120.711c48.298-104.821 205.75-90.359 303.051-152.43 75.94-48.443 113.603-157.434 202.764-170.242 89.113-12.801 153.437 91.997 242.32 106.307 135.645 21.839 322.397-112.941 403.827-2.279 79.52 108.072-120.2 237.957-132.06 371.608-9.89 111.352 138.62 232.186 70.6 320.902-71.01 92.611-231.023-5.283-341.472 32.393-90.454 30.855-133.789 158.39-229.281 162.297-95.353 3.902-167.349-82.704-241.284-143.045-74.81-61.054-145.889-124.517-191.101-209.84z" stroke="url(#paint7_linear_257_1192)"/><path opacity=".67" d="M198.502 432.815C149.794 332.588 72.07 213.807 122.208 114.287c51.927-103.072 208.779-83.123 308.187-141.76 77.584-45.764 119.028-153.374 208.581-163.062 89.506-9.683 150.133 97.296 238.462 114.699 134.802 26.56 326.142-101.621 403.652 11.815 75.71 110.781-128.43 233.618-144.94 366.773-13.77 110.94 130.43 236.882 59.36 323.171-74.2 90.076-230.699-13.342-342.396 20.456-91.476 27.679-139.235 153.624-234.805 154.196-95.431.571-164.361-88.494-236.145-151.378-72.633-63.629-141.455-129.533-183.662-216.382z" stroke="url(#paint8_linear_257_1192)"/><path opacity=".629" d="M214.648 429.81c-45.181-101.866-118.712-223.288-65.132-320.997C205.009 7.616 361.069 33.027 462.463-22.105c79.134-43.029 124.308-149.126 214.145-155.684 89.789-6.553 146.645 102.476 234.314 122.952 133.788 31.247 329.488-90.177 402.998 25.895 71.79 113.356-136.51 228.993-157.66 361.491-17.63 110.392 122.09 241.29 48.05 325.045-77.3 87.433-230.095-21.385-342.903 8.495-92.386 24.47-144.511 148.672-240.043 145.908-95.393-2.76-161.173-94.177-230.718-159.528-70.369-66.124-136.848-134.39-175.998-222.659z" stroke="url(#paint9_linear_257_1192)"/><path opacity=".588" d="M230.888 427.37c-41.598-103.381-110.847-227.295-53.889-323.075C235.99 5.097 391.068 35.939 494.324-15.621c80.588-40.24 129.436-144.698 219.448-148.115 89.963-3.416 142.98 107.53 229.88 131.053C1076.27 3.215 1276.09-111.306 1345.5 7.262c67.79 115.792-144.41 224.089-170.18 355.768-21.47 109.709 113.59 245.404 36.67 326.524-80.29 84.682-229.2-29.402-342.982-3.478-93.184 21.231-149.612 143.538-244.99 137.442-95.238-6.087-157.787-99.744-225.01-167.483-68.018-68.539-132.074-139.084-168.12-228.665z" stroke="url(#paint10_linear_257_1192)"/><path opacity=".546" d="M247.204 425.498c-37.965-104.77-102.847-231.025-42.581-324.759C267.039 3.66 420.947 39.895 525.939-8.03c81.943-37.403 134.408-140.091 224.483-140.366C840.45-148.67 889.562-35.94 975.589-9.399 1106.88 31.105 1310.56-76.373 1375.8 44.545c63.71 118.087-152.15 218.913-182.49 349.612-25.29 108.894 104.95 249.219 25.25 327.605-83.2 81.829-228.036-37.383-342.654-15.445-93.868 17.966-154.53 138.229-249.637 128.808-94.968-9.408-154.21-105.19-219.028-175.233-65.584-70.872-127.14-143.609-160.037-234.394z" stroke="url(#paint11_linear_257_1192)"/><path opacity=".505" d="M263.575 424.196c-34.286-106.031-94.722-234.473-31.221-326.046C298.12 3.308 450.669 44.892 557.27.66c83.199-34.52 139.215-135.315 229.246-132.446 89.982 2.868 135.13 117.244 220.174 146.77 129.8 45.062 337.11-55.242 398.09 67.88 59.54 120.238-159.7 213.469-194.59 343.03-29.06 107.944 96.2 252.729 13.81 328.286-86.01 78.875-226.593-45.318-341.906-27.394-94.439 14.679-159.261 132.752-253.981 120.017-94.581-12.716-150.445-110.508-212.779-182.77-63.071-73.118-122.05-147.959-151.759-239.837z" stroke="url(#paint12_linear_257_1192)"/><path opacity=".464" d="M279.981 423.467C249.417 316.304 193.5 185.831 260.158 96.529c69.037-92.488 220.041-45.605 328.121-86.09 84.353-31.596 143.852-130.374 233.728-124.365 89.827 6.007 130.956 121.888 214.923 154.365 128.14 49.564 338.83-43.443 395.47 81.73 55.32 122.244-167.05 207.767-206.43 336.031-32.82 106.864 87.31 255.933 2.34 328.569-88.71 75.825-224.88-53.2-340.747-39.311-94.893 11.374-163.796 127.113-258.014 111.081-94.08-16.009-146.497-115.691-206.271-190.085-60.481-75.275-116.812-152.128-143.297-244.987z" stroke="url(#paint13_linear_257_1192)"/><path opacity=".422" d="M296.403 423.311c-26.806-108.164-78.135-240.509-8.401-327.43 72.222-90.023 221.499-37.9 330.925-74.587C704.332-7.339 767.242-103.98 856.853-94.838c89.563 9.137 126.623 126.384 209.407 161.771 126.33 54.006 340.14-31.592 392.38 95.482 51.01 124.1-174.2 201.81-218.04 328.622-36.53 105.654 78.33 258.824-9.13 328.45-91.3 72.683-222.88-61.015-339.162-51.178-95.232 8.055-168.133 121.319-261.734 102.008-93.464-19.283-142.37-120.733-199.511-197.168-57.817-77.339-111.432-156.112-134.66-249.838z" stroke="url(#paint14_linear_257_1192)"/><path opacity=".381" d="M312.82 423.728c-23.014-109.034-69.693-243.09 3.032-327.524 75.32-87.448 222.686-30.146 333.327-62.992C735.53 7.577 801.775-86.81 891.013-74.546 980.202-62.288 1013.15 56.18 1094.64 94.435c124.37 58.382 341.04-19.702 388.81 109.118 46.65 125.804-181.13 195.607-229.37 320.812-40.19 104.314 69.25 261.4-20.59 327.931-93.78 69.453-220.61-68.756-337.168-62.984-95.455 4.727-172.264 115.378-265.134 92.812-92.735-22.533-138.07-125.628-192.509-204.011-55.083-79.309-105.916-159.905-125.859-254.385z" stroke="url(#paint15_linear_257_1192)"/><path opacity=".34" d="M329.213 424.718c-19.195-109.771-61.167-245.374 14.46-327.22 78.326-84.765 223.603-22.355 335.322-51.32 87.194-22.606 156.693-114.624 245.448-99.252C1013.15-37.711 1041.94 81.835 1122.05 122.91c122.26 62.686 341.52-7.789 384.76 122.62 42.24 127.356-187.84 189.167-240.43 312.611-43.8 102.849 60.09 263.658-32.01 327.014-96.15 66.137-218.08-76.414-334.769-74.713-95.563 1.393-176.186 109.296-268.212 83.502-91.892-25.755-133.602-130.37-185.272-210.604-52.281-81.184-100.271-163.505-116.904-258.623z" stroke="url(#paint16_linear_257_1192)"/><path opacity=".299" d="M345.562 426.279c-15.353-110.374-52.567-247.359 25.87-326.515 81.237-81.98 224.247-14.538 336.909-39.586C796.27 40.627 868.938-48.908 957.103-30.45 1045.22-12 1069.82 108.477 1148.45 152.324c120 66.915 341.58 4.136 380.25 135.974 37.76 128.752-194.34 182.496-251.19 304.03-47.38 101.257 50.84 265.595-43.41 325.697-98.4 62.741-215.29-83.978-331.96-86.35-95.553-1.943-179.893 103.08-270.963 74.091-90.937-28.947-128.97-134.954-177.809-216.943-49.416-82.959-94.503-166.904-107.806-262.545z" stroke="url(#paint17_linear_257_1192)"/><path opacity=".258" d="M361.845 428.41c-11.491-110.843-43.902-249.043 37.25-325.413 84.049-79.096 224.618-6.704 338.086-27.805 88.558-16.469 164.306-103.414 251.773-81.89 87.416 21.514 107.806 142.777 184.856 189.341 117.58 71.062 341.22 16.054 375.27 149.162 33.24 129.991-200.59 175.602-261.65 295.078-50.88 99.542 41.55 267.207-54.75 323.984-100.53 59.273-212.22-91.44-328.744-97.883-95.426-5.277-183.38 96.739-273.383 64.589-89.871-32.103-124.182-139.372-170.129-223.016-46.491-84.633-88.621-170.101-98.579-266.147z" stroke="url(#paint18_linear_257_1192)"/><path opacity=".216" d="M378.045 431.107c-7.616-111.175-35.184-250.423 48.584-323.914 86.758-76.114 224.715 1.139 338.85-15.989 89.079-13.368 167.815-97.617 254.481-73.053 86.61 24.552 102.75 146.452 178.13 195.677 115.03 75.123 340.46 27.953 369.83 162.167 28.7 131.073-206.59 168.495-271.78 285.767-54.32 97.706 32.19 268.495-66.03 321.876-102.53 55.722-208.9-98.791-325.122-109.296-95.184-8.604-186.645 90.28-275.471 55.009-88.696-35.22-119.242-143.621-162.242-228.818-43.509-86.204-82.631-173.09-89.23-269.426z" stroke="url(#paint19_linear_257_1192)"/><path opacity=".175" d="M394.141 434.369c-3.732-111.374-26.423-251.499 59.858-322.022 89.361-73.04 224.539 8.982 339.202-4.153 89.491-10.251 171.12-91.701 256.869-64.127 85.71 27.559 97.58 149.948 171.2 201.774 112.34 79.091 339.27 39.817 363.95 174.975 24.1 131.995-212.35 161.183-281.6 276.108-57.69 95.751 22.81 269.455-77.21 319.376-104.42 52.11-205.33-106.022-321.116-120.577-94.826-11.92-189.682 83.712-277.223 45.362-87.412-38.294-114.157-147.695-154.158-234.34-40.473-87.67-76.539-175.869-79.772-272.376z" stroke="url(#paint20_linear_257_1192)"/><path opacity=".134" d="M410.112 438.19c.158-111.436-17.629-252.268 71.061-319.736 91.856-69.877 224.088 16.812 339.14 7.687 89.794-7.122 174.216-85.673 258.957-55.124 84.69 30.534 92.28 153.263 164.04 207.626 109.52 82.964 337.68 51.634 357.63 187.571 19.48 132.755-217.85 153.674-291.06 266.112-61 93.679 13.39 270.084-88.32 316.484-106.17 48.44-201.5-113.12-316.706-131.708-94.353-15.222-192.489 77.041-278.637 35.66-86.024-41.321-108.934-151.59-145.886-239.578-37.39-89.029-70.355-178.432-70.219-274.994z" stroke="url(#paint21_linear_257_1192)"/><path opacity=".092" d="M425.941 442.567c4.047-111.363-8.815-252.73 82.177-317.062 94.238-66.629 223.364 24.622 338.664 19.518 89.989-3.984 177.098-79.541 260.718-46.052 83.58 33.47 86.88 156.39 156.7 213.224 106.56 86.736 335.68 63.387 350.86 199.937 14.84 133.354-223.07 145.978-300.17 255.792-64.23 91.493 3.96 270.386-99.3 313.216-107.8 44.7-197.43-120.09-311.923-142.687-93.763-18.506-195.059 70.277-279.711 25.913-84.529-44.298-103.577-155.298-137.436-244.522-34.26-90.28-64.085-180.78-60.579-277.277z" stroke="url(#paint22_linear_257_1192)"/><path opacity=".051" d="M441.608 447.493c7.931-111.154.01-252.883 93.191-314.001 96.506-63.3 222.37 32.403 337.778 31.326 90.072-.841 179.763-73.312 262.163-36.926 82.36 36.367 81.38 159.327 149.17 218.563 103.46 90.402 333.25 75.064 343.67 212.061 10.17 133.79-228.03 138.103-308.92 245.16-67.39 89.196-5.48 270.364-110.17 309.554-109.3 40.91-193.12-126.902-306.753-153.48-93.061-21.767-197.394 63.43-280.446 16.135-82.931-47.221-98.094-158.819-128.818-249.17-31.089-91.42-57.738-182.906-50.865-279.222z" stroke="url(#paint23_linear_257_1192)"/><path opacity=".01" d="M457.092 452.961c11.805-110.81 8.836-252.729 104.093-310.558 98.656-59.892 221.103 40.144 336.478 43.095 90.047 2.304 182.217-66.993 263.297-27.753 81.04 39.219 75.76 162.069 141.45 223.636 100.24 93.957 330.43 86.648 336.05 223.925 5.5 134.064-232.71 130.061-317.28 234.23-70.46 86.789-14.91 270.004-120.91 305.524-110.65 37.07-188.57-133.57-301.207-164.096-92.244-25.002-199.487 56.496-280.838 6.338-81.233-50.086-92.492-162.145-120.044-253.514-27.879-92.45-51.319-184.809-41.089-280.827z" stroke="url(#paint24_linear_257_1192)"/></g><defs><linearGradient id="paint0_linear_257_1192" x1="44.093" y1="485.847" x2="1079.32" y2="-144.947" gradientUnits="userSpaceOnUse"><stop stop-color="#fff" stop-opacity="0"/><stop offset=".505" stop-color="#fff"/><stop offset="1" stop-color="#fff" stop-opacity="0"/></linearGradient><linearGradient id="paint1_linear_257_1192" x1="58.482" y1="477.423" x2="1115.09" y2="-116.858" gradientUnits="userSpaceOnUse"><stop stop-color="#fff" stop-opacity="0"/><stop offset=".505" stop-color="#fff"/><stop offset="1" stop-color="#fff" stop-opacity="0"/></linearGradient><linearGradient id="paint2_linear_257_1192" x1="73.156" y1="469.503" x2="1149.86" y2="-87.54" gradientUnits="userSpaceOnUse"><stop stop-color="#fff" stop-opacity="0"/><stop offset=".505" stop-color="#fff"/><stop offset="1" stop-color="#fff" stop-opacity="0"/></linearGradient><linearGradient id="paint3_linear_257_1192" x1="88.097" y1="462.101" x2="1183.59" y2="-57.027" gradientUnits="userSpaceOnUse"><stop stop-color="#fff" stop-opacity="0"/><stop offset=".505" stop-color="#fff"/><stop offset="1" stop-color="#fff" stop-opacity="0"/></linearGradient><linearGradient id="paint4_linear_257_1192" x1="103.288" y1="455.225" x2="1216.23" y2="-25.355" gradientUnits="userSpaceOnUse"><stop stop-color="#fff" stop-opacity="0"/><stop offset=".505" stop-color="#fff"/><stop offset="1" stop-color="#fff" stop-opacity="0"/></linearGradient><linearGradient id="paint5_linear_257_1192" x1="118.709" y1="448.883" x2="1247.74" y2="7.437" gradientUnits="userSpaceOnUse"><stop stop-color="#fff" stop-opacity="0"/><stop offset=".505" stop-color="#fff"/><stop offset="1" stop-color="#fff" stop-opacity="0"/></linearGradient><linearGradient id="paint6_linear_257_1192" x1="134.342" y1="443.082" x2="1278.1" y2="41.309" gradientUnits="userSpaceOnUse"><stop stop-color="#fff" stop-opacity="0"/><stop offset=".505" stop-color="#fff"/><stop offset="1" stop-color="#fff" stop-opacity="0"/></linearGradient><linearGradient id="paint7_linear_257_1192" x1="150.168" y1="437.832" x2="1307.25" y2="76.219" gradientUnits="userSpaceOnUse"><stop stop-color="#fff" stop-opacity="0"/><stop offset=".505" stop-color="#fff"/><stop offset="1" stop-color="#fff" stop-opacity="0"/></linearGradient><linearGradient id="paint8_linear_257_1192" x1="166.168" y1="433.136" x2="1335.16" y2="112.125" gradientUnits="userSpaceOnUse"><stop stop-color="#fff" stop-opacity="0"/><stop offset=".505" stop-color="#fff"/><stop offset="1" stop-color="#fff" stop-opacity="0"/></linearGradient><linearGradient id="paint9_linear_257_1192" x1="182.322" y1="429.002" x2="1361.81" y2="148.984" gradientUnits="userSpaceOnUse"><stop stop-color="#fff" stop-opacity="0"/><stop offset=".505" stop-color="#fff"/><stop offset="1" stop-color="#fff" stop-opacity="0"/></linearGradient><linearGradient id="paint10_linear_257_1192" x1="198.61" y1="425.434" x2="1387.15" y2="186.75" gradientUnits="userSpaceOnUse"><stop stop-color="#fff" stop-opacity="0"/><stop offset=".505" stop-color="#fff"/><stop offset="1" stop-color="#fff" stop-opacity="0"/></linearGradient><linearGradient id="paint11_linear_257_1192" x1="215.013" y1="422.437" x2="1411.16" y2="225.378" gradientUnits="userSpaceOnUse"><stop stop-color="#fff" stop-opacity="0"/><stop offset=".505" stop-color="#fff"/><stop offset="1" stop-color="#fff" stop-opacity="0"/></linearGradient><linearGradient id="paint12_linear_257_1192" x1="231.511" y1="420.014" x2="1433.8" y2="264.82" gradientUnits="userSpaceOnUse"><stop stop-color="#fff" stop-opacity="0"/><stop offset=".505" stop-color="#fff"/><stop offset="1" stop-color="#fff" stop-opacity="0"/></linearGradient><linearGradient id="paint13_linear_257_1192" x1="248.082" y1="418.168" x2="1455.06" y2="305.028" gradientUnits="userSpaceOnUse"><stop stop-color="#fff" stop-opacity="0"/><stop offset=".505" stop-color="#fff"/><stop offset="1" stop-color="#fff" stop-opacity="0"/></linearGradient><linearGradient id="paint14_linear_257_1192" x1="264.709" y1="416.902" x2="1474.9" y2="345.954" gradientUnits="userSpaceOnUse"><stop stop-color="#fff" stop-opacity="0"/><stop offset=".505" stop-color="#fff"/><stop offset="1" stop-color="#fff" stop-opacity="0"/></linearGradient><linearGradient id="paint15_linear_257_1192" x1="281.369" y1="416.217" x2="1493.3" y2="387.547" gradientUnits="userSpaceOnUse"><stop stop-color="#fff" stop-opacity="0"/><stop offset=".505" stop-color="#fff"/><stop offset="1" stop-color="#fff" stop-opacity="0"/></linearGradient><linearGradient id="paint16_linear_257_1192" x1="298.043" y1="416.114" x2="1510.24" y2="429.757" gradientUnits="userSpaceOnUse"><stop stop-color="#fff" stop-opacity="0"/><stop offset=".505" stop-color="#fff"/><stop offset="1" stop-color="#fff" stop-opacity="0"/></linearGradient><linearGradient id="paint17_linear_257_1192" x1="314.711" y1="416.592" x2="1525.69" y2="472.532" gradientUnits="userSpaceOnUse"><stop stop-color="#fff" stop-opacity="0"/><stop offset=".505" stop-color="#fff"/><stop offset="1" stop-color="#fff" stop-opacity="0"/></linearGradient><linearGradient id="paint18_linear_257_1192" x1="331.351" y1="417.652" x2="1539.64" y2="515.82" gradientUnits="userSpaceOnUse"><stop stop-color="#fff" stop-opacity="0"/><stop offset=".505" stop-color="#fff"/><stop offset="1" stop-color="#fff" stop-opacity="0"/></linearGradient><linearGradient id="paint19_linear_257_1192" x1="347.945" y1="419.292" x2="1552.07" y2="559.569" gradientUnits="userSpaceOnUse"><stop stop-color="#fff" stop-opacity="0"/><stop offset=".505" stop-color="#fff"/><stop offset="1" stop-color="#fff" stop-opacity="0"/></linearGradient><linearGradient id="paint20_linear_257_1192" x1="364.471" y1="421.511" x2="1562.97" y2="603.725" gradientUnits="userSpaceOnUse"><stop stop-color="#fff" stop-opacity="0"/><stop offset=".505" stop-color="#fff"/><stop offset="1" stop-color="#fff" stop-opacity="0"/></linearGradient><linearGradient id="paint21_linear_257_1192" x1="380.91" y1="424.304" x2="1572.32" y2="648.235" gradientUnits="userSpaceOnUse"><stop stop-color="#fff" stop-opacity="0"/><stop offset=".505" stop-color="#fff"/><stop offset="1" stop-color="#fff" stop-opacity="0"/></linearGradient><linearGradient id="paint22_linear_257_1192" x1="397.241" y1="427.67" x2="1580.11" y2="693.044" gradientUnits="userSpaceOnUse"><stop stop-color="#fff" stop-opacity="0"/><stop offset=".505" stop-color="#fff"/><stop offset="1" stop-color="#fff" stop-opacity="0"/></linearGradient><linearGradient id="paint23_linear_257_1192" x1="413.445" y1="431.603" x2="1586.33" y2="738.097" gradientUnits="userSpaceOnUse"><stop stop-color="#fff" stop-opacity="0"/><stop offset=".505" stop-color="#fff"/><stop offset="1" stop-color="#fff" stop-opacity="0"/></linearGradient><linearGradient id="paint24_linear_257_1192" x1="429.501" y1="436.098" x2="1590.97" y2="783.338" gradientUnits="userSpaceOnUse"><stop stop-color="#fff" stop-opacity="0"/><stop offset=".505" stop-color="#fff"/><stop offset="1" stop-color="#fff" stop-opacity="0"/></linearGradient></defs></svg>