<svg width="1219" height="816" fill="none" xmlns="http://www.w3.org/2000/svg"><g opacity=".6" clip-rule="evenodd" stroke-width="2"><path d="M124.085 440.901C72.667 397.175-1.547 348.262 12.795 290.527c14.852-59.796 122.784-72.483 177.619-116.655 42.796-34.476 49.825-95.048 107.436-112.976 57.579-17.918 118.196 27.498 180.151 23.48 94.551-6.13 197.18-98.917 270.239-52.683 71.348 45.153-40.792 137.09-26.409 206.989 11.983 58.236 131.691 101.118 100.932 155.189-32.108 56.445-155.7 26.769-223.422 60.137-55.462 27.327-63.192 98.112-126.533 112.293-63.249 14.161-125.967-20.968-185.596-42.41-60.335-21.696-118.572-45.1-163.127-82.99z" stroke="url(#paint0_linear_730_472)"/><path opacity=".959" d="M134.233 437.032c-49.388-45.069-121.321-95.93-104.35-153.248 17.577-59.364 126.024-69.167 182.844-111.851 44.346-33.314 54.139-93.662 112.534-110.044 58.364-16.373 116.867 30.63 178.969 28.267 94.773-3.608 201.581-93.604 272.481-45.45 69.242 47.025-47.032 135.919-35.853 206.158 9.314 58.52 126.988 104.566 93.777 157.784-34.669 55.555-156.829 22.604-226.034 54.147-56.678 25.833-67.639 96.368-131.59 108.853-63.857 12.467-124.932-24.312-183.544-47.33-59.306-23.291-116.438-48.232-159.234-87.286z" stroke="url(#paint1_linear_730_472)"/><path opacity=".917" d="M144.55 433.435C97.252 387.077 27.688 334.33 47.27 277.499c20.279-58.859 129.107-65.766 187.844-106.911 45.842-32.112 58.387-92.162 117.495-106.978 59.077-14.808 115.396 33.726 177.568 33.019 94.881-1.08 205.737-88.175 274.393-38.162 67.05 48.842-53.216 134.583-45.255 205.077 6.634 58.733 122.132 107.886 86.509 160.187-37.188 54.597-157.767 18.411-228.373 48.091-57.823 24.307-72.002 94.507-136.484 105.28-64.388 10.758-123.745-27.625-181.269-52.192-58.206-24.856-114.163-51.305-155.148-91.475z" stroke="url(#paint2_linear_730_472)"/><path opacity=".876" d="M155.026 430.114c-45.15-47.59-112.261-102.158-90.094-158.433 22.957-58.282 132.035-62.285 192.617-101.84 47.281-30.871 62.564-90.55 122.313-103.782 59.718-13.225 113.784 36.78 175.951 37.73 94.872 1.449 209.641-82.64 275.97-30.827 64.776 50.599-59.336 133.083-54.601 203.747 3.945 58.873 117.126 111.074 79.134 162.394-39.661 53.573-158.513 14.196-230.432 41.976-58.899 22.752-76.278 92.531-141.213 101.58-64.841 9.035-122.406-30.907-178.773-56.991-57.034-26.392-111.748-54.316-150.872-95.554z" stroke="url(#paint3_linear_730_472)"/><path opacity=".835" d="M165.647 427.075C122.7 378.311 58.124 321.987 82.849 266.338c25.608-57.635 134.802-58.73 197.155-96.646 48.664-29.592 66.665-88.828 126.983-100.46 60.285-11.625 112.033 39.791 174.118 42.396 94.749 3.976 213.291-77.002 277.212-23.454 62.424 52.294-65.383 131.421-63.881 202.167 1.251 58.943 111.977 114.128 71.662 164.404-42.085 52.484-159.064 9.964-232.209 35.811-59.903 21.168-80.461 90.442-145.771 97.755-65.214 7.302-120.919-34.15-176.059-61.72-55.793-27.896-109.197-57.261-146.412-99.516z" stroke="url(#paint4_linear_730_472)"/><path opacity=".794" d="M176.401 424.321C135.708 374.442 73.746 316.432 101 261.475c28.227-56.918 137.405-55.102 201.452-91.333 49.987-28.277 70.685-86.997 131.498-97.015 60.78-10.012 110.146 42.751 172.074 47.009 94.509 6.499 216.681-71.272 278.115-16.053 59.996 53.926-71.35 129.599-73.083 200.342-1.444 58.941 106.693 117.042 64.105 166.214-44.459 51.33-159.423 5.719-233.705 29.601-60.835 19.559-84.547 88.243-150.15 93.811-65.508 5.56-119.285-37.351-173.131-66.374-54.484-29.366-106.514-60.135-141.774-103.356z" stroke="url(#paint5_linear_730_472)"/><path opacity=".752" d="M187.274 421.855c-38.388-50.933-97.66-110.559-67.912-164.756 30.811-56.131 139.84-51.407 205.504-85.91 51.25-26.928 74.619-85.06 135.852-93.451 61.201-8.386 108.126 45.66 169.821 51.565 94.155 9.013 219.807-65.454 278.679-8.633 57.495 55.492-77.23 127.619-82.195 198.273-4.137 58.866 101.278 119.814 56.468 167.821-46.778 50.114-159.588 1.467-234.916 23.356-61.691 17.925-88.528 85.936-154.346 89.752-65.723 3.811-117.505-40.506-169.992-70.946-53.108-30.8-103.7-62.937-136.963-107.071z" stroke="url(#paint6_linear_730_472)"/><path opacity=".711" d="M198.253 419.68c-36.037-51.925-92.548-113.094-60.339-166.465 33.357-55.276 142.103-47.649 209.305-80.381 52.449-25.547 78.461-83.021 140.041-89.775 61.546-6.75 105.972 48.513 167.36 56.059 93.685 11.517 222.665-59.558 278.904-1.202 54.923 56.99-83.016 125.483-91.208 195.962-6.825 58.72 95.74 122.44 48.763 169.223-49.04 48.837-159.558-2.786-235.84 17.082-62.474 16.271-92.403 83.525-158.355 85.585-65.857 2.057-115.582-43.613-166.646-75.432-51.668-32.197-100.759-65.663-131.985-110.656z" stroke="url(#paint7_linear_730_472)"/><path opacity=".67" d="M209.324 417.799c-33.641-52.854-87.321-115.491-52.693-167.972 35.864-54.353 144.195-43.833 212.852-74.755 53.584-24.133 82.208-80.879 144.059-85.988 61.817-5.106 103.69 51.307 164.696 60.485 93.101 14.005 225.251-53.588 278.789 6.23 52.283 58.419-88.702 123.195-100.11 193.413-9.505 58.502 90.085 124.916 40.998 170.419-51.242 47.5-159.333-7.036-236.477 10.787-63.179 14.596-96.164 81.012-162.17 81.313-65.911.301-113.518-46.666-163.096-79.827-50.165-33.553-97.697-68.307-126.848-114.105z" stroke="url(#paint8_linear_730_472)"/><path opacity=".629" d="M220.475 416.214c-31.205-53.718-81.989-117.748-44.983-169.273 38.326-53.365 146.11-39.965 216.139-69.038 54.655-22.69 85.854-78.64 147.901-82.097 62.014-3.456 101.283 54.039 161.832 64.836 92.404 16.478 227.563-47.553 278.334 13.656 49.582 59.776-94.279 120.756-108.89 190.627-12.173 58.213 84.321 127.24 33.184 171.407-53.382 46.107-158.914-11.277-236.826 4.48-63.808 12.904-99.808 78.4-165.789 76.942-65.883-1.455-111.315-49.662-159.347-84.124-48.601-34.87-94.516-70.869-121.555-117.416z" stroke="url(#paint9_linear_730_472)"/><path opacity=".588" d="M231.692 414.927c-28.731-54.517-76.558-119.86-37.219-170.369 40.742-52.31 147.848-36.047 219.163-63.236 55.659-21.22 89.397-76.304 151.564-78.106 62.134-1.801 98.75 56.705 158.769 69.109 91.595 18.93 229.598-41.46 277.541 21.064 46.82 61.061-99.741 118.17-117.537 187.609-14.826 57.854 78.453 129.41 25.329 172.188-55.457 44.656-158.302-15.505-236.887-1.834-64.358 11.196-103.331 75.693-169.204 72.478-65.777-3.21-108.978-52.599-155.406-88.32-46.977-36.143-91.218-73.344-116.113-120.583z" stroke="url(#paint10_linear_730_472)"/><path opacity=".546" d="M242.96 413.94c-26.221-55.249-71.032-121.828-29.409-171.257 43.109-51.193 149.406-32.085 221.92-57.357 56.595-19.725 92.83-73.876 155.042-74.021 62.178-.144 96.098 59.302 155.514 73.298 90.674 21.36 231.353-35.317 276.413 28.447 44 62.272-105.086 115.44-126.045 184.363-17.462 57.423 72.49 131.422 17.443 172.757-57.465 43.151-157.497-19.713-236.659-8.145-64.831 9.474-106.727 72.894-172.414 67.925-65.59-4.96-106.507-55.47-151.274-92.406-45.296-37.373-87.81-75.73-110.531-123.604z" stroke="url(#paint11_linear_730_472)"/><path opacity=".505" d="M254.267 413.254c-23.68-55.914-65.42-123.646-21.563-171.936 45.422-50.014 150.782-28.085 224.407-51.41 57.462-18.204 96.15-71.356 158.33-69.843 62.147 1.512 93.329 61.826 152.069 77.397 89.642 23.762 232.83-29.131 274.94 35.795 41.13 63.406-110.294 112.57-134.391 180.891-20.076 56.923 66.439 133.274 9.536 173.118-59.402 41.593-156.5-23.899-236.142-14.447-65.225 7.741-109.995 70.005-175.414 63.29-65.324-6.706-103.906-58.275-146.958-96.381-43.56-38.558-84.295-78.024-104.814-126.474z" stroke="url(#paint12_linear_730_472)"/><path opacity=".464" d="M265.598 412.869c-21.109-56.511-59.729-125.314-13.691-172.406 47.681-48.772 151.974-24.049 226.62-45.398 58.259-16.662 99.353-68.751 161.427-65.582 62.04 3.167 90.446 64.276 148.438 81.402 88.501 26.137 234.018-22.909 273.138 43.099 38.2 64.463-115.374 109.562-142.579 177.201-22.665 56.353 60.307 134.962 1.617 173.266-61.266 39.985-155.312-28.054-235.337-20.73-65.539 5.998-113.128 67.031-178.2 58.576-64.978-8.442-101.18-61.007-142.463-100.238-41.772-39.695-80.678-80.222-98.97-129.19z" stroke="url(#paint13_linear_730_472)"/><path opacity=".422" d="M276.94 412.787c-18.513-57.039-53.964-126.829-5.802-172.666 49.881-47.472 152.98-19.985 228.557-39.332 58.985-15.099 102.435-66.062 164.326-61.241 61.857 4.819 87.453 66.647 144.627 85.308 87.253 28.479 234.922-16.659 271.002 50.351 35.23 65.442-120.312 106.422-150.592 173.294-25.227 55.715 54.101 136.487-6.304 173.203-63.057 38.328-153.935-32.175-234.246-26.988-65.773 4.248-116.123 63.976-180.769 53.793-64.552-10.169-98.33-63.667-137.795-103.974-39.931-40.784-76.961-82.323-93.004-131.748z" stroke="url(#paint14_linear_730_472)"/><path opacity=".381" d="M288.279 413.006c-15.895-57.497-48.135-128.189 2.094-172.715 52.02-46.114 153.8-15.896 230.215-33.217 59.639-13.519 105.392-63.292 167.025-56.825 61.6 6.464 84.354 68.936 140.64 89.11 85.898 30.786 235.537-10.39 268.537 57.541 32.22 66.341-125.105 103.151-158.423 169.176-27.759 55.009 47.83 137.845-14.216 172.93-64.771 36.624-152.371-36.258-232.871-33.214-65.927 2.493-118.976 60.843-183.118 48.943-64.047-11.882-95.359-66.248-132.958-107.582-38.043-41.823-73.151-84.324-86.925-134.147z" stroke="url(#paint15_linear_730_472)"/><path opacity=".34" d="M299.601 413.528c-13.257-57.886-42.246-129.394 9.987-172.554 54.096-44.7 154.433-11.788 231.593-27.063 60.221-11.921 108.221-60.445 169.521-52.339 61.266 8.101 81.151 71.142 136.481 92.803 84.438 33.057 235.867-4.107 265.737 64.662 29.17 67.159-129.737 99.754-166.052 164.851-30.257 54.236 41.499 139.036-22.113 172.446-66.405 34.876-150.621-40.296-231.211-39.399-66 .735-121.684 57.635-185.243 44.034-63.465-13.582-92.273-68.749-127.959-111.06-36.109-42.811-69.253-86.221-80.741-136.381z" stroke="url(#paint16_linear_730_472)"/><path opacity=".299" d="M310.892 414.352c-10.603-58.204-36.306-130.442 17.868-172.183 56.107-43.231 154.878-7.667 232.689-20.875 60.73-10.31 110.918-57.525 171.81-47.791 60.859 9.729 77.85 73.261 132.156 96.383 82.876 35.287 235.915 2.181 262.625 71.704 26.08 67.896-134.223 96.237-173.492 160.326-32.717 53.396 35.119 140.057-29.981 171.751-67.959 33.086-148.687-44.284-229.269-45.535-65.994-1.025-124.245 54.357-187.143 39.07-62.806-15.264-89.074-71.165-122.805-114.401-34.13-43.747-65.27-88.015-74.458-138.449z" stroke="url(#paint17_linear_730_472)"/><path opacity=".258" d="M322.139 415.475c-7.937-58.451-30.322-131.329 25.727-171.601 58.048-41.71 155.134-3.535 233.502-14.663 61.163-8.684 113.48-54.534 173.889-43.183 60.377 11.345 74.454 75.291 127.67 99.846 81.213 37.474 235.673 8.466 259.183 78.658 22.96 68.549-138.54 92.602-180.71 155.605-35.137 52.492 28.696 140.908-37.813 170.848-69.43 31.255-146.572-48.219-227.048-51.617-65.907-2.782-126.654 51.014-188.815 34.06-62.07-16.928-85.767-73.495-117.501-117.604-32.109-44.63-61.207-89.7-68.084-140.349z" stroke="url(#paint18_linear_730_472)"/><path opacity=".216" d="M333.327 416.898c-5.26-58.627-24.3-132.057 33.555-170.812 59.92-40.137 155.202.601 234.03-8.431 61.523-7.05 115.903-51.477 175.757-38.523 59.822 12.946 70.968 77.229 123.029 103.187 79.45 39.615 235.142 14.74 255.432 85.516 19.81 69.12-142.69 88.854-187.715 150.695-37.515 51.524 22.238 141.587-45.599 169.737-70.816 29.385-144.279-52.096-224.55-57.636-65.74-4.537-128.909 47.608-190.257 29.008-61.259-18.572-82.356-75.736-112.054-120.663-30.05-45.459-57.07-91.277-61.628-142.078z" stroke="url(#paint19_linear_730_472)"/><path opacity=".175" d="M344.444 418.618c-2.578-58.732-18.25-132.624 41.342-169.814 61.718-38.516 155.079 4.737 234.272-2.19 61.808-5.406 118.186-48.357 177.412-33.816 59.193 14.533 67.394 79.073 118.236 106.402 77.592 41.708 234.324 20.997 251.364 92.271 16.65 69.605-146.66 84.997-194.484 145.601-39.848 50.493 15.753 142.093-53.33 168.418-72.116 27.481-141.81-55.908-221.779-63.584-65.493-6.286-131.006 44.144-191.467 23.921-60.372-20.194-78.844-77.885-106.471-123.576-27.953-46.231-52.862-92.741-55.095-143.633z" stroke="url(#paint20_linear_730_472)"/><path opacity=".134" d="M355.475 420.633c.109-58.764-12.176-133.03 49.079-168.608 63.441-36.849 154.768 8.865 234.23 4.053 62.017-3.755 120.324-45.178 178.848-29.068 58.494 16.101 63.739 80.821 113.302 109.488 75.636 43.75 233.226 27.229 246.996 98.913 13.45 70.006-150.46 81.037-201.024 140.33-42.132 49.4 9.248 142.426-60.996 166.894-73.328 25.542-139.168-59.653-218.737-69.455-65.166-8.027-132.944 40.626-192.444 18.804-59.413-21.789-75.236-79.938-100.757-126.337-25.824-46.948-48.592-94.094-48.497-145.014z" stroke="url(#paint21_linear_730_472)"/><path opacity=".092" d="M366.407 422.941c2.795-58.726-6.088-133.273 56.756-167.198 65.086-35.136 154.269 12.984 233.902 10.293 62.151-2.101 122.316-41.945 180.068-24.285 57.722 17.65 60.006 82.469 108.228 112.44 73.589 45.739 231.839 33.427 242.329 105.434 10.24 70.322-154.07 76.979-207.32 134.888-44.364 48.248 2.732 142.586-68.587 165.167-74.451 23.573-136.357-63.325-215.43-75.241-64.758-9.759-134.72 37.059-193.186 13.665-58.38-23.36-71.536-81.894-94.921-128.945-23.662-47.608-44.261-95.332-41.839-146.218z" stroke="url(#paint22_linear_730_472)"/><path opacity=".051" d="M377.227 425.538c5.478-58.615.008-133.354 64.364-165.583 66.653-33.38 153.581 17.087 233.289 16.519 62.209-.443 124.159-38.66 181.069-19.472 56.88 19.177 56.199 84.018 103.022 115.256 71.459 47.672 230.169 39.583 237.359 111.827 7.02 70.552-157.49 72.827-213.356 129.282-46.542 47.035-3.787 142.571-76.095 163.238-75.483 21.575-133.379-66.92-211.859-80.936-64.273-11.478-136.332 33.447-193.693 8.509-57.277-24.901-67.749-83.75-88.97-131.396-21.471-48.209-39.876-96.452-35.13-147.244z" stroke="url(#paint23_linear_730_472)"/><path opacity=".01" d="M387.921 428.422c8.154-58.434 6.103-133.273 71.893-163.768 68.138-31.584 152.707 21.169 232.392 22.725 62.192 1.215 125.85-35.328 181.849-14.635 55.968 20.681 52.325 85.465 97.691 117.931 69.234 49.547 228.214 45.693 232.104 118.084 3.79 70.696-160.73 68.585-219.137 123.517-48.663 45.767-10.301 142.384-83.51 161.112-76.423 19.55-130.238-70.433-208.03-86.532-63.71-13.184-137.778 29.794-193.964 3.343-56.104-26.413-63.88-85.505-82.909-133.687-19.255-48.752-35.444-97.457-28.379-148.09z" stroke="url(#paint24_linear_730_472)"/></g><defs><linearGradient id="paint0_linear_730_472" x1="102.679" y1="445.764" x2="701.655" y2="-32.248" gradientUnits="userSpaceOnUse"><stop stop-color="#fff" stop-opacity="0"/><stop offset=".505" stop-color="#fff"/><stop offset="1" stop-color="#fff" stop-opacity="0"/></linearGradient><linearGradient id="paint1_linear_730_472" x1="112.618" y1="441.322" x2="735.325" y2="-17.388" gradientUnits="userSpaceOnUse"><stop stop-color="#fff" stop-opacity="0"/><stop offset=".505" stop-color="#fff"/><stop offset="1" stop-color="#fff" stop-opacity="0"/></linearGradient><linearGradient id="paint2_linear_730_472" x1="122.753" y1="437.145" x2="768.808" y2="-.617" gradientUnits="userSpaceOnUse"><stop stop-color="#fff" stop-opacity="0"/><stop offset=".505" stop-color="#fff"/><stop offset="1" stop-color="#fff" stop-opacity="0"/></linearGradient><linearGradient id="paint3_linear_730_472" x1="133.072" y1="433.242" x2="801.941" y2="18.113" gradientUnits="userSpaceOnUse"><stop stop-color="#fff" stop-opacity="0"/><stop offset=".505" stop-color="#fff"/><stop offset="1" stop-color="#fff" stop-opacity="0"/></linearGradient><linearGradient id="paint4_linear_730_472" x1="143.563" y1="429.616" x2="834.545" y2="38.832" gradientUnits="userSpaceOnUse"><stop stop-color="#fff" stop-opacity="0"/><stop offset=".505" stop-color="#fff"/><stop offset="1" stop-color="#fff" stop-opacity="0"/></linearGradient><linearGradient id="paint5_linear_730_472" x1="154.214" y1="426.271" x2="866.433" y2="61.551" gradientUnits="userSpaceOnUse"><stop stop-color="#fff" stop-opacity="0"/><stop offset=".505" stop-color="#fff"/><stop offset="1" stop-color="#fff" stop-opacity="0"/></linearGradient><linearGradient id="paint6_linear_730_472" x1="165.011" y1="423.213" x2="897.408" y2="86.257" gradientUnits="userSpaceOnUse"><stop stop-color="#fff" stop-opacity="0"/><stop offset=".505" stop-color="#fff"/><stop offset="1" stop-color="#fff" stop-opacity="0"/></linearGradient><linearGradient id="paint7_linear_730_472" x1="175.942" y1="420.444" x2="927.267" y2="112.915" gradientUnits="userSpaceOnUse"><stop stop-color="#fff" stop-opacity="0"/><stop offset=".505" stop-color="#fff"/><stop offset="1" stop-color="#fff" stop-opacity="0"/></linearGradient><linearGradient id="paint8_linear_730_472" x1="186.992" y1="417.968" x2="955.805" y2="141.461" gradientUnits="userSpaceOnUse"><stop stop-color="#fff" stop-opacity="0"/><stop offset=".505" stop-color="#fff"/><stop offset="1" stop-color="#fff" stop-opacity="0"/></linearGradient><linearGradient id="paint9_linear_730_472" x1="198.149" y1="415.788" x2="982.823" y2="171.804" gradientUnits="userSpaceOnUse"><stop stop-color="#fff" stop-opacity="0"/><stop offset=".505" stop-color="#fff"/><stop offset="1" stop-color="#fff" stop-opacity="0"/></linearGradient><linearGradient id="paint10_linear_730_472" x1="209.399" y1="413.906" x2="1008.13" y2="203.826" gradientUnits="userSpaceOnUse"><stop stop-color="#fff" stop-opacity="0"/><stop offset=".505" stop-color="#fff"/><stop offset="1" stop-color="#fff" stop-opacity="0"/></linearGradient><linearGradient id="paint11_linear_730_472" x1="220.727" y1="412.326" x2="1031.53" y2="237.379" gradientUnits="userSpaceOnUse"><stop stop-color="#fff" stop-opacity="0"/><stop offset=".505" stop-color="#fff"/><stop offset="1" stop-color="#fff" stop-opacity="0"/></linearGradient><linearGradient id="paint12_linear_730_472" x1="232.122" y1="411.048" x2="1052.88" y2="272.291" gradientUnits="userSpaceOnUse"><stop stop-color="#fff" stop-opacity="0"/><stop offset=".505" stop-color="#fff"/><stop offset="1" stop-color="#fff" stop-opacity="0"/></linearGradient><linearGradient id="paint13_linear_730_472" x1="243.567" y1="410.075" x2="1072.02" y2="308.365" gradientUnits="userSpaceOnUse"><stop stop-color="#fff" stop-opacity="0"/><stop offset=".505" stop-color="#fff"/><stop offset="1" stop-color="#fff" stop-opacity="0"/></linearGradient><linearGradient id="paint14_linear_730_472" x1="255.05" y1="409.407" x2="1088.84" y2="345.386" gradientUnits="userSpaceOnUse"><stop stop-color="#fff" stop-opacity="0"/><stop offset=".505" stop-color="#fff"/><stop offset="1" stop-color="#fff" stop-opacity="0"/></linearGradient><linearGradient id="paint15_linear_730_472" x1="266.557" y1="409.046" x2="1103.25" y2="383.122" gradientUnits="userSpaceOnUse"><stop stop-color="#fff" stop-opacity="0"/><stop offset=".505" stop-color="#fff"/><stop offset="1" stop-color="#fff" stop-opacity="0"/></linearGradient><linearGradient id="paint16_linear_730_472" x1="278.073" y1="408.991" x2="1115.21" y2="421.331" gradientUnits="userSpaceOnUse"><stop stop-color="#fff" stop-opacity="0"/><stop offset=".505" stop-color="#fff"/><stop offset="1" stop-color="#fff" stop-opacity="0"/></linearGradient><linearGradient id="paint17_linear_730_472" x1="289.585" y1="409.244" x2="1124.69" y2="459.768" gradientUnits="userSpaceOnUse"><stop stop-color="#fff" stop-opacity="0"/><stop offset=".505" stop-color="#fff"/><stop offset="1" stop-color="#fff" stop-opacity="0"/></linearGradient><linearGradient id="paint18_linear_730_472" x1="301.078" y1="409.802" x2="1131.7" y2="498.188" gradientUnits="userSpaceOnUse"><stop stop-color="#fff" stop-opacity="0"/><stop offset=".505" stop-color="#fff"/><stop offset="1" stop-color="#fff" stop-opacity="0"/></linearGradient><linearGradient id="paint19_linear_730_472" x1="312.538" y1="410.667" x2="1136.29" y2="536.354" gradientUnits="userSpaceOnUse"><stop stop-color="#fff" stop-opacity="0"/><stop offset=".505" stop-color="#fff"/><stop offset="1" stop-color="#fff" stop-opacity="0"/></linearGradient><linearGradient id="paint20_linear_730_472" x1="323.952" y1="411.837" x2="1138.54" y2="574.041" gradientUnits="userSpaceOnUse"><stop stop-color="#fff" stop-opacity="0"/><stop offset=".505" stop-color="#fff"/><stop offset="1" stop-color="#fff" stop-opacity="0"/></linearGradient><linearGradient id="paint21_linear_730_472" x1="335.306" y1="413.31" x2="1138.56" y2="611.044" gradientUnits="userSpaceOnUse"><stop stop-color="#fff" stop-opacity="0"/><stop offset=".505" stop-color="#fff"/><stop offset="1" stop-color="#fff" stop-opacity="0"/></linearGradient><linearGradient id="paint22_linear_730_472" x1="346.585" y1="415.085" x2="1136.47" y2="647.178" gradientUnits="userSpaceOnUse"><stop stop-color="#fff" stop-opacity="0"/><stop offset=".505" stop-color="#fff"/><stop offset="1" stop-color="#fff" stop-opacity="0"/></linearGradient><linearGradient id="paint23_linear_730_472" x1="357.776" y1="417.159" x2="1132.42" y2="682.281" gradientUnits="userSpaceOnUse"><stop stop-color="#fff" stop-opacity="0"/><stop offset=".505" stop-color="#fff"/><stop offset="1" stop-color="#fff" stop-opacity="0"/></linearGradient><linearGradient id="paint24_linear_730_472" x1="368.865" y1="419.529" x2="1126.58" y2="716.218" gradientUnits="userSpaceOnUse"><stop stop-color="#fff" stop-opacity="0"/><stop offset=".505" stop-color="#fff"/><stop offset="1" stop-color="#fff" stop-opacity="0"/></linearGradient></defs></svg>