<svg width="1020" height="653" fill="none" xmlns="http://www.w3.org/2000/svg"><g opacity=".6" clip-rule="evenodd" stroke-width="2"><path d="M83.145 387.699c-51.418-43.726-125.632-92.64-111.291-150.375 14.853-59.796 122.785-72.482 177.619-116.655C192.27 86.194 199.298 25.622 256.909 7.694c57.58-17.919 118.196 27.497 180.152 23.48 94.551-6.13 197.18-98.918 270.238-52.683 71.349 45.152-40.791 137.09-26.408 206.988 11.983 58.236 131.691 101.118 100.932 155.189-32.109 56.445-155.7 26.77-223.422 60.137-55.462 27.328-63.193 98.112-126.534 112.294-63.248 14.16-125.967-20.968-185.596-42.411-60.334-21.696-118.571-45.1-163.126-82.989z" stroke="url(#paint0_linear_704_557)"/><path opacity=".959" d="M93.293 383.83C43.904 338.76-28.03 287.899-11.057 230.581 6.52 171.218 114.966 161.415 171.786 118.73 216.133 85.416 225.925 25.068 284.32 8.686c58.364-16.373 116.868 30.63 178.969 28.267 94.774-3.608 201.581-93.603 272.482-45.45 69.241 47.025-47.033 135.919-35.854 206.158 9.314 58.52 126.989 104.566 93.778 157.784-34.67 55.555-156.829 22.604-226.035 54.147-56.677 25.833-67.639 96.369-131.589 108.853-63.857 12.467-124.932-24.311-183.545-47.33-59.306-23.29-116.438-48.232-159.233-87.285z" stroke="url(#paint1_linear_704_557)"/><path opacity=".917" d="M103.61 380.232C56.312 333.874-13.252 281.127 6.329 224.296c20.28-58.858 129.108-65.766 187.844-106.91 45.842-32.112 58.388-92.162 117.496-106.978C370.745-4.4 427.065 44.133 489.237 43.426c94.88-1.08 205.736-88.175 274.393-38.162 67.049 48.842-53.217 134.583-45.255 205.078 6.633 58.732 122.132 107.886 86.508 160.186-37.188 54.597-157.767 18.412-228.372 48.091-57.824 24.307-72.002 94.508-136.485 105.281-64.388 10.757-123.744-27.626-181.269-52.192-58.205-24.857-114.162-51.306-155.147-91.476z" stroke="url(#paint2_linear_704_557)"/><path opacity=".876" d="M114.086 376.912c-45.15-47.59-112.261-102.159-90.095-158.433 22.958-58.283 132.036-62.286 192.617-101.84 47.282-30.871 62.564-90.55 122.314-103.783 59.717-13.224 113.784 36.78 175.95 37.73 94.873 1.45 209.642-82.639 275.971-30.827 64.776 50.6-59.336 133.084-54.602 203.747 3.945 58.874 117.127 111.075 79.134 162.394-39.66 53.573-158.512 14.197-230.431 41.977-58.899 22.751-76.278 92.531-141.214 101.579-64.84 9.035-122.406-30.906-178.773-56.99-57.034-26.393-111.748-54.317-150.871-95.554z" stroke="url(#paint3_linear_704_557)"/><path opacity=".835" d="M124.707 373.873C81.759 325.108 17.184 268.785 41.909 213.135 67.516 155.5 176.71 154.406 239.063 116.49c48.664-29.592 66.665-88.828 126.983-100.46C426.332 4.405 478.08 55.82 540.165 58.425c94.748 3.977 213.291-77.002 277.211-23.454 62.424 52.294-65.383 131.421-63.881 202.168 1.252 58.942 111.978 114.128 71.663 164.404-42.085 52.483-159.064 9.963-232.209 35.81-59.904 21.168-80.462 90.442-145.771 97.755-65.214 7.302-120.919-34.149-176.059-61.72-55.793-27.896-109.197-57.26-146.412-99.515z" stroke="url(#paint4_linear_704_557)"/><path opacity=".794" d="M135.46 371.118c-40.692-49.879-102.654-107.889-75.4-162.846 28.226-56.917 137.404-55.101 201.452-91.333 49.987-28.277 70.684-86.997 131.497-97.014 60.78-10.012 110.147 42.75 172.075 47.009 94.509 6.498 216.681-71.272 278.115-16.054 59.995 53.926-71.35 129.599-73.083 200.342-1.444 58.941 106.693 117.043 64.104 166.214-44.458 51.33-159.423 5.719-233.705 29.601-60.834 19.559-84.546 88.243-150.15 93.811-65.508 5.56-119.284-37.351-173.131-66.373-54.483-29.366-106.513-60.136-141.774-103.357z" stroke="url(#paint5_linear_704_557)"/><path opacity=".752" d="M146.333 368.652c-38.388-50.933-97.66-110.559-67.911-164.756 30.811-56.131 139.839-51.406 205.504-85.909 51.249-26.928 74.618-85.061 135.852-93.452 61.201-8.386 108.125 45.66 169.821 51.566 94.154 9.013 219.807-65.455 278.679-8.633 57.494 55.491-77.23 127.619-82.196 198.273-4.137 58.866 101.278 119.814 56.468 167.82-46.777 50.114-159.587 1.468-234.915 23.356-61.692 17.926-88.529 85.936-154.347 89.753-65.722 3.81-117.504-40.507-169.992-70.947-53.108-30.799-103.699-62.937-136.963-107.071z" stroke="url(#paint6_linear_704_557)"/><path opacity=".711" d="M157.312 366.477c-36.036-51.925-92.547-113.094-60.339-166.465 33.358-55.276 142.104-47.649 209.306-80.381 52.448-25.546 78.46-83.02 140.04-89.775 61.547-6.75 105.973 48.513 167.361 56.06 93.685 11.516 222.665-59.558 278.904-1.202 54.922 56.99-83.017 125.483-91.209 195.962-6.825 58.72 95.74 122.439 48.763 169.223-49.039 48.837-159.557-2.786-235.84 17.081-62.473 16.271-92.402 83.525-158.355 85.586-65.856 2.057-115.581-43.613-166.645-75.433-51.668-32.196-100.76-65.662-131.986-110.656z" stroke="url(#paint7_linear_704_557)"/><path opacity=".67" d="M168.384 364.596c-33.641-52.853-87.322-115.491-52.694-167.971 35.864-54.354 144.196-43.834 212.853-74.755 53.584-24.133 82.207-80.88 144.058-85.989 61.818-5.106 103.691 51.308 164.697 60.485 93.101 14.006 225.251-53.588 278.788 6.231 52.285 58.419-88.701 123.194-100.109 193.412-9.505 58.502 90.085 124.916 40.998 170.419-51.242 47.501-159.333-7.036-236.477 10.787-63.179 14.597-96.164 81.012-162.171 81.314-65.91.301-113.517-46.666-163.096-79.828-50.165-33.553-97.697-68.307-126.847-114.105z" stroke="url(#paint8_linear_704_557)"/><path opacity=".629" d="M179.535 363.011c-31.205-53.718-81.99-117.747-44.984-169.273 38.327-53.365 146.111-39.965 216.14-69.038 54.654-22.69 85.854-78.64 147.901-82.097 62.013-3.456 101.282 54.04 161.831 64.837 92.405 16.478 227.564-47.554 278.334 13.655 49.583 59.777-94.278 120.756-108.889 190.627-12.173 58.213 84.32 127.241 33.184 171.408-53.382 46.106-158.914-11.277-236.826 4.479-63.808 12.904-99.809 78.4-165.789 76.943-65.884-1.456-111.315-49.663-159.348-84.125-48.6-34.87-94.515-70.869-121.554-117.416z" stroke="url(#paint9_linear_704_557)"/><path opacity=".588" d="M190.751 361.724c-28.73-54.516-76.557-119.86-37.219-170.368 40.743-52.311 147.849-36.047 219.164-63.236 55.658-21.221 89.396-76.304 151.563-78.107 62.134-1.801 98.751 56.705 158.77 69.11 91.595 18.93 229.598-41.461 277.54 21.064 46.821 61.061-99.741 118.17-117.536 187.609-14.827 57.853 78.453 129.41 25.328 172.187-55.457 44.656-158.301-15.504-236.886-1.834-64.359 11.196-103.331 75.693-169.205 72.478-65.777-3.21-108.977-52.598-155.405-88.319-46.977-36.144-91.218-73.344-116.114-120.584z" stroke="url(#paint10_linear_704_557)"/><path opacity=".546" d="M202.02 360.737c-26.221-55.249-71.033-121.827-29.409-171.256 43.109-51.194 149.406-32.086 221.92-57.358 56.595-19.724 92.83-73.875 155.042-74.02 62.178-.145 96.098 59.302 155.513 73.298 90.674 21.359 231.354-35.318 276.409 28.446 43.995 62.272-105.082 115.441-126.04 184.363-17.462 57.423 72.49 131.422 17.442 172.758-57.464 43.151-157.496-19.714-236.658-8.145-64.831 9.474-106.728 72.893-172.414 67.925-65.591-4.961-106.507-55.47-151.274-92.407-45.296-37.373-87.81-75.73-110.531-123.604z" stroke="url(#paint11_linear_704_557)"/><path opacity=".505" d="M213.327 360.051c-23.68-55.914-65.421-123.646-21.564-171.936 45.423-50.013 150.782-28.085 224.407-51.409 57.462-18.204 96.15-71.357 158.331-69.844 62.147 1.512 93.329 61.826 152.068 77.397 89.643 23.763 232.827-29.131 274.941 35.795 41.13 63.406-110.295 112.57-134.391 180.892-20.076 56.923 66.439 133.273 9.536 173.117-59.402 41.593-156.5-23.898-236.142-14.446-65.225 7.741-109.995 70.005-175.414 63.289-65.324-6.705-103.907-58.274-146.958-96.381-43.561-38.558-84.296-78.024-104.814-126.474z" stroke="url(#paint12_linear_704_557)"/><path opacity=".464" d="M224.658 359.666c-21.11-56.51-59.729-125.313-13.691-172.405 47.681-48.773 151.973-24.05 226.62-45.399 58.259-16.662 99.353-68.75 161.426-65.582 62.04 3.168 90.447 64.276 148.438 81.402 88.502 26.137 234.017-22.909 273.139 43.099 38.2 64.464-115.374 109.563-142.579 177.201-22.666 56.353 60.307 134.962 1.617 173.266-61.267 39.985-155.312-28.054-235.338-20.73-65.539 5.998-113.127 67.031-178.2 58.577-64.977-8.442-101.179-61.008-142.463-100.239-41.771-39.694-80.677-80.222-98.969-129.19z" stroke="url(#paint13_linear_704_557)"/><path opacity=".422" d="M236 359.584c-18.514-57.039-53.965-126.829-5.803-172.666 49.881-47.472 152.981-19.985 228.557-39.332 58.985-15.099 102.435-66.062 164.326-61.24 61.858 4.818 87.454 66.646 144.627 85.308 87.253 28.479 234.923-16.66 271.003 50.351 35.23 65.442-120.313 106.421-150.592 173.293-25.228 55.715 54.101 136.487-6.304 173.204-63.057 38.328-153.935-32.176-234.247-26.989-65.773 4.248-116.122 63.976-180.769 53.793-64.552-10.168-98.329-63.667-137.794-103.974-39.932-40.783-76.962-82.323-93.004-131.748z" stroke="url(#paint14_linear_704_557)"/><path opacity=".381" d="M247.339 359.804c-15.896-57.498-48.135-128.19 2.093-172.715 52.021-46.114 153.801-15.897 230.216-33.218 59.639-13.518 105.392-63.292 167.025-56.825 61.599 6.464 84.353 68.937 140.639 89.11 85.898 30.787 235.538-10.39 268.538 57.542 32.22 66.341-125.105 103.15-158.423 169.175-27.759 55.009 47.829 137.846-14.217 172.93-64.77 36.625-152.37-36.258-232.87-33.214-65.928 2.493-118.976 60.843-183.118 48.943-64.048-11.882-95.359-66.248-132.958-107.582-38.043-41.823-73.152-84.324-86.925-134.146z" stroke="url(#paint15_linear_704_557)"/><path opacity=".34" d="M258.66 360.326c-13.257-57.886-42.245-129.395 9.987-172.554 54.097-44.7 154.434-11.789 231.594-27.063 60.221-11.921 108.221-60.446 169.52-52.34 61.267 8.102 81.152 71.142 136.481 92.803 84.439 33.057 235.868-4.107 265.738 64.662 29.17 67.159-129.738 99.755-166.053 164.851-30.256 54.236 41.5 139.036-22.112 172.446-66.406 34.876-150.621-40.296-231.211-39.399-66.001.735-121.685 57.636-185.243 44.034-63.466-13.582-92.273-68.749-127.96-111.059-36.108-42.811-69.253-86.222-80.741-136.381z" stroke="url(#paint16_linear_704_557)"/><path opacity=".299" d="M269.952 361.149c-10.604-58.204-36.306-130.441 17.867-172.183 56.107-43.231 154.879-7.666 232.69-20.875 60.729-10.309 110.918-57.525 171.81-47.791 60.858 9.73 77.85 73.262 132.155 96.384 82.877 35.286 235.916 2.18 262.626 71.703 26.08 67.896-134.223 96.237-173.492 160.326-32.717 53.397 35.119 140.057-29.981 171.752-67.959 33.085-148.687-44.285-229.269-45.536-65.995-1.025-124.245 54.358-187.143 39.071-62.807-15.265-89.075-71.166-122.806-114.402-34.129-43.747-65.269-88.014-74.457-138.449z" stroke="url(#paint17_linear_704_557)"/><path opacity=".258" d="M281.198 362.273c-7.936-58.451-30.321-131.33 25.727-171.602 58.049-41.71 155.135-3.535 233.502-14.662 61.164-8.685 113.48-54.535 173.89-43.184 60.377 11.345 74.454 75.291 127.67 99.846 81.212 37.474 235.673 8.466 259.183 78.658 22.96 68.55-138.536 92.602-180.71 155.606-35.138 52.492 28.696 140.907-37.814 170.848-69.429 31.254-146.572-48.22-227.047-51.618-65.908-2.782-126.654 51.014-188.815 34.061-62.071-16.929-85.768-73.496-117.502-117.604-32.109-44.63-61.207-89.701-68.084-140.349z" stroke="url(#paint18_linear_704_557)"/><path opacity=".216" d="M292.387 363.695c-5.26-58.627-24.301-132.057 33.555-170.811 59.92-40.138 155.201.601 234.03-8.432 61.523-7.049 115.903-51.477 175.757-38.523 59.822 12.947 70.967 77.229 123.028 103.187 79.451 39.615 235.143 14.741 255.433 85.517 19.81 69.119-142.687 88.853-187.715 150.695-37.516 51.523 22.238 141.586-45.6 169.736-70.816 29.386-144.279-52.096-224.55-57.636-65.74-4.537-128.908 47.608-190.257 29.008-61.258-18.572-82.355-75.736-112.054-120.663-30.05-45.458-57.07-91.276-61.627-142.078z" stroke="url(#paint19_linear_704_557)"/><path opacity=".175" d="M303.503 365.415c-2.577-58.731-18.249-132.624 41.342-169.813 61.718-38.517 155.08 4.736 234.273-2.19 61.808-5.406 118.186-48.358 177.411-33.817 59.194 14.533 67.394 79.073 118.237 106.403 77.591 41.707 234.324 20.997 251.364 92.27 16.65 69.606-146.657 84.998-194.484 145.602-39.848 50.493 15.752 142.093-53.331 168.418-72.116 27.48-141.809-55.909-221.779-63.585-65.492-6.285-131.006 44.144-191.466 23.921-60.373-20.193-78.844-77.884-106.471-123.575-27.954-46.232-52.863-92.742-55.096-143.634z" stroke="url(#paint20_linear_704_557)"/><path opacity=".134" d="M314.534 367.43c.109-58.764-12.176-133.029 49.079-168.608 63.441-36.849 154.769 8.866 234.23 4.054 62.018-3.756 120.324-45.179 178.849-29.069 58.493 16.102 63.739 80.821 113.301 109.489 75.638 43.749 233.217 27.228 246.997 98.912 13.45 70.007-150.456 81.038-201.024 140.33-42.132 49.401 9.248 142.426-60.996 166.894-73.329 25.543-139.168-59.653-218.738-69.455-65.165-8.027-132.944 40.627-192.443 18.805-59.413-21.79-75.236-79.938-100.758-126.338-25.823-46.948-48.591-94.093-48.497-145.014z" stroke="url(#paint21_linear_704_557)"/><path opacity=".092" d="M325.467 369.738c2.795-58.725-6.088-133.273 56.755-167.198 65.087-35.135 154.269 12.985 233.903 10.293 62.151-2.101 122.315-41.945 180.068-24.285 57.722 17.65 60.006 82.47 108.228 112.441 73.592 45.738 231.839 33.426 242.329 105.434 10.24 70.322-154.073 76.979-207.32 134.888-44.364 48.247 2.732 142.585-68.588 165.167-74.451 23.573-136.356-63.326-215.429-75.241-64.759-9.759-134.72 37.058-193.186 13.664-58.38-23.359-71.536-81.894-94.921-128.945-23.662-47.608-44.261-95.331-41.839-146.218z" stroke="url(#paint22_linear_704_557)"/><path opacity=".051" d="M336.287 372.336c5.477-58.616.007-133.354 64.363-165.584 66.653-33.38 153.582 17.087 233.29 16.519 62.209-.443 124.158-38.66 181.068-19.472 56.88 19.178 56.2 84.019 103.023 115.256 71.456 47.672 230.169 39.584 237.359 111.827 7.02 70.552-157.494 72.827-213.357 129.282-46.542 47.036-3.786 142.572-76.095 163.239-75.483 21.574-133.378-66.92-211.859-80.936-64.273-11.479-136.331 33.446-193.692 8.509-57.278-24.902-67.75-83.751-88.97-131.396-21.471-48.21-39.877-96.453-35.13-147.244z" stroke="url(#paint23_linear_704_557)"/><path opacity=".01" d="M346.981 375.219c8.153-58.434 6.102-133.273 71.893-163.768 68.138-31.583 152.707 21.169 232.392 22.726 62.191 1.214 125.85-35.328 181.848-14.636 55.969 20.682 52.325 85.465 97.692 117.931 69.234 49.547 228.214 45.693 232.104 118.084 3.79 70.697-160.73 68.586-219.137 123.518-48.664 45.767-10.301 142.384-83.51 161.112-76.423 19.55-130.239-70.434-208.031-86.532-63.709-13.185-137.777 29.793-193.963 3.342-56.104-26.412-63.88-85.505-82.91-133.687-19.254-48.752-35.443-97.456-28.378-148.09z" stroke="url(#paint24_linear_704_557)"/></g><defs><linearGradient id="paint0_linear_704_557" x1="61.739" y1="392.561" x2="660.715" y2="-85.451" gradientUnits="userSpaceOnUse"><stop stop-color="#fff" stop-opacity="0"/><stop offset=".505" stop-color="#fff"/><stop offset="1" stop-color="#fff" stop-opacity="0"/></linearGradient><linearGradient id="paint1_linear_704_557" x1="71.678" y1="388.119" x2="694.384" y2="-70.591" gradientUnits="userSpaceOnUse"><stop stop-color="#fff" stop-opacity="0"/><stop offset=".505" stop-color="#fff"/><stop offset="1" stop-color="#fff" stop-opacity="0"/></linearGradient><linearGradient id="paint2_linear_704_557" x1="81.812" y1="383.943" x2="727.867" y2="-53.82" gradientUnits="userSpaceOnUse"><stop stop-color="#fff" stop-opacity="0"/><stop offset=".505" stop-color="#fff"/><stop offset="1" stop-color="#fff" stop-opacity="0"/></linearGradient><linearGradient id="paint3_linear_704_557" x1="92.132" y1="380.039" x2="761" y2="-35.09" gradientUnits="userSpaceOnUse"><stop stop-color="#fff" stop-opacity="0"/><stop offset=".505" stop-color="#fff"/><stop offset="1" stop-color="#fff" stop-opacity="0"/></linearGradient><linearGradient id="paint4_linear_704_557" x1="102.623" y1="376.413" x2="793.605" y2="-14.371" gradientUnits="userSpaceOnUse"><stop stop-color="#fff" stop-opacity="0"/><stop offset=".505" stop-color="#fff"/><stop offset="1" stop-color="#fff" stop-opacity="0"/></linearGradient><linearGradient id="paint5_linear_704_557" x1="113.274" y1="373.069" x2="825.493" y2="8.348" gradientUnits="userSpaceOnUse"><stop stop-color="#fff" stop-opacity="0"/><stop offset=".505" stop-color="#fff"/><stop offset="1" stop-color="#fff" stop-opacity="0"/></linearGradient><linearGradient id="paint6_linear_704_557" x1="124.071" y1="370.01" x2="856.467" y2="33.054" gradientUnits="userSpaceOnUse"><stop stop-color="#fff" stop-opacity="0"/><stop offset=".505" stop-color="#fff"/><stop offset="1" stop-color="#fff" stop-opacity="0"/></linearGradient><linearGradient id="paint7_linear_704_557" x1="135.001" y1="367.241" x2="886.326" y2="59.712" gradientUnits="userSpaceOnUse"><stop stop-color="#fff" stop-opacity="0"/><stop offset=".505" stop-color="#fff"/><stop offset="1" stop-color="#fff" stop-opacity="0"/></linearGradient><linearGradient id="paint8_linear_704_557" x1="146.052" y1="364.765" x2="914.865" y2="88.258" gradientUnits="userSpaceOnUse"><stop stop-color="#fff" stop-opacity="0"/><stop offset=".505" stop-color="#fff"/><stop offset="1" stop-color="#fff" stop-opacity="0"/></linearGradient><linearGradient id="paint9_linear_704_557" x1="157.209" y1="362.585" x2="941.882" y2="118.602" gradientUnits="userSpaceOnUse"><stop stop-color="#fff" stop-opacity="0"/><stop offset=".505" stop-color="#fff"/><stop offset="1" stop-color="#fff" stop-opacity="0"/></linearGradient><linearGradient id="paint10_linear_704_557" x1="168.458" y1="360.704" x2="967.185" y2="150.623" gradientUnits="userSpaceOnUse"><stop stop-color="#fff" stop-opacity="0"/><stop offset=".505" stop-color="#fff"/><stop offset="1" stop-color="#fff" stop-opacity="0"/></linearGradient><linearGradient id="paint11_linear_704_557" x1="179.787" y1="359.123" x2="990.59" y2="184.176" gradientUnits="userSpaceOnUse"><stop stop-color="#fff" stop-opacity="0"/><stop offset=".505" stop-color="#fff"/><stop offset="1" stop-color="#fff" stop-opacity="0"/></linearGradient><linearGradient id="paint12_linear_704_557" x1="191.181" y1="357.845" x2="1011.93" y2="219.088" gradientUnits="userSpaceOnUse"><stop stop-color="#fff" stop-opacity="0"/><stop offset=".505" stop-color="#fff"/><stop offset="1" stop-color="#fff" stop-opacity="0"/></linearGradient><linearGradient id="paint13_linear_704_557" x1="202.627" y1="356.872" x2="1031.08" y2="255.163" gradientUnits="userSpaceOnUse"><stop stop-color="#fff" stop-opacity="0"/><stop offset=".505" stop-color="#fff"/><stop offset="1" stop-color="#fff" stop-opacity="0"/></linearGradient><linearGradient id="paint14_linear_704_557" x1="214.11" y1="356.204" x2="1047.9" y2="292.183" gradientUnits="userSpaceOnUse"><stop stop-color="#fff" stop-opacity="0"/><stop offset=".505" stop-color="#fff"/><stop offset="1" stop-color="#fff" stop-opacity="0"/></linearGradient><linearGradient id="paint15_linear_704_557" x1="225.616" y1="355.843" x2="1062.31" y2="329.919" gradientUnits="userSpaceOnUse"><stop stop-color="#fff" stop-opacity="0"/><stop offset=".505" stop-color="#fff"/><stop offset="1" stop-color="#fff" stop-opacity="0"/></linearGradient><linearGradient id="paint16_linear_704_557" x1="237.133" y1="355.788" x2="1074.27" y2="368.128" gradientUnits="userSpaceOnUse"><stop stop-color="#fff" stop-opacity="0"/><stop offset=".505" stop-color="#fff"/><stop offset="1" stop-color="#fff" stop-opacity="0"/></linearGradient><linearGradient id="paint17_linear_704_557" x1="248.644" y1="356.041" x2="1083.75" y2="406.565" gradientUnits="userSpaceOnUse"><stop stop-color="#fff" stop-opacity="0"/><stop offset=".505" stop-color="#fff"/><stop offset="1" stop-color="#fff" stop-opacity="0"/></linearGradient><linearGradient id="paint18_linear_704_557" x1="260.137" y1="356.6" x2="1090.76" y2="444.985" gradientUnits="userSpaceOnUse"><stop stop-color="#fff" stop-opacity="0"/><stop offset=".505" stop-color="#fff"/><stop offset="1" stop-color="#fff" stop-opacity="0"/></linearGradient><linearGradient id="paint19_linear_704_557" x1="271.598" y1="357.465" x2="1095.35" y2="483.151" gradientUnits="userSpaceOnUse"><stop stop-color="#fff" stop-opacity="0"/><stop offset=".505" stop-color="#fff"/><stop offset="1" stop-color="#fff" stop-opacity="0"/></linearGradient><linearGradient id="paint20_linear_704_557" x1="283.012" y1="358.635" x2="1097.6" y2="520.839" gradientUnits="userSpaceOnUse"><stop stop-color="#fff" stop-opacity="0"/><stop offset=".505" stop-color="#fff"/><stop offset="1" stop-color="#fff" stop-opacity="0"/></linearGradient><linearGradient id="paint21_linear_704_557" x1="294.365" y1="360.108" x2="1097.62" y2="557.842" gradientUnits="userSpaceOnUse"><stop stop-color="#fff" stop-opacity="0"/><stop offset=".505" stop-color="#fff"/><stop offset="1" stop-color="#fff" stop-opacity="0"/></linearGradient><linearGradient id="paint22_linear_704_557" x1="305.645" y1="361.883" x2="1095.53" y2="593.975" gradientUnits="userSpaceOnUse"><stop stop-color="#fff" stop-opacity="0"/><stop offset=".505" stop-color="#fff"/><stop offset="1" stop-color="#fff" stop-opacity="0"/></linearGradient><linearGradient id="paint23_linear_704_557" x1="316.836" y1="363.957" x2="1091.48" y2="629.078" gradientUnits="userSpaceOnUse"><stop stop-color="#fff" stop-opacity="0"/><stop offset=".505" stop-color="#fff"/><stop offset="1" stop-color="#fff" stop-opacity="0"/></linearGradient><linearGradient id="paint24_linear_704_557" x1="327.925" y1="366.327" x2="1085.64" y2="663.016" gradientUnits="userSpaceOnUse"><stop stop-color="#fff" stop-opacity="0"/><stop offset=".505" stop-color="#fff"/><stop offset="1" stop-color="#fff" stop-opacity="0"/></linearGradient></defs></svg>