<svg width="906" height="890" fill="none" xmlns="http://www.w3.org/2000/svg"><g opacity=".2" clip-rule="evenodd" stroke-width="3"><path d="M112.125 547.206c-37.71-42.002-92.14-88.987-81.622-144.445 10.893-57.438 90.052-69.624 130.269-112.055 31.387-33.116 36.542-91.3 78.795-108.521 42.23-17.212 86.687 26.413 132.126 22.555 69.345-5.889 144.615-95.018 198.197-50.606 52.328 43.371-29.917 131.684-19.368 198.826 8.788 55.94 96.584 97.131 74.025 149.07-23.549 54.219-114.193 25.713-163.861 57.766-40.677 26.249-46.347 94.243-92.802 107.865-46.387 13.602-92.386-20.141-136.119-40.738-44.25-20.841-86.963-43.322-119.64-79.717z" stroke="url(#paint0_linear_704_527)"/><path opacity=".959" d="M119.568 543.489c-36.223-43.292-88.98-92.148-76.532-147.206 12.891-57.022 92.427-66.439 134.1-107.44 32.524-32 39.707-89.969 82.535-105.705 42.804-15.727 85.712 29.423 131.258 27.152 69.509-3.465 147.843-89.912 199.843-43.658 50.782 45.172-34.495 130.56-26.296 198.029 6.831 56.213 93.135 100.443 68.778 151.563-25.427 53.364-115.021 21.712-165.778 52.012-41.568 24.814-49.607 92.568-96.509 104.56-46.834 11.975-91.627-23.353-134.615-45.463-43.496-22.373-85.397-46.331-116.784-83.844z" stroke="url(#paint1_linear_704_527)"/><path opacity=".917" d="M127.135 540.033c-34.69-44.53-85.71-95.197-71.348-149.787 14.873-56.538 94.69-63.172 137.768-102.695 33.621-30.845 42.822-88.528 86.173-102.759 43.328-14.224 84.634 32.396 130.231 31.716 69.587-1.037 150.891-84.698 201.245-36.657 49.175 46.916-39.03 129.276-33.191 196.991 4.865 56.416 89.573 103.631 63.446 153.87-27.274 52.444-115.708 17.685-167.491 46.195-42.409 23.348-52.808 90.78-100.1 101.129-47.224 10.333-90.756-26.537-132.946-50.135-42.689-23.876-83.729-49.282-113.787-87.868z" stroke="url(#paint2_linear_704_527)"/><path opacity=".876" d="M134.818 536.844c-33.114-45.714-82.335-98.131-66.077-152.186 16.837-55.984 96.837-59.83 141.268-97.824 34.677-29.654 45.886-86.98 89.707-99.69 43.798-12.703 83.451 35.33 129.045 36.242 69.581 1.392 153.754-79.38 202.401-29.612 47.508 48.604-43.518 127.836-40.045 195.713 2.893 56.552 85.902 106.695 58.038 155.991-29.088 51.46-116.256 13.636-169.002 40.321-43.198 21.854-55.944 88.882-103.569 97.574-47.555 8.679-89.774-29.688-131.115-54.743-41.829-25.352-81.958-52.175-110.651-91.786z" stroke="url(#paint3_linear_704_527)"/><path opacity=".835" d="M142.607 533.924c-31.498-46.841-78.859-100.944-60.725-154.399 18.781-55.362 98.866-56.413 144.596-92.834 35.691-28.426 48.893-85.325 93.132-96.499 44.214-11.167 82.167 38.221 127.701 40.724 69.49 3.819 156.431-73.966 203.311-22.53 45.783 50.232-47.953 126.239-46.851 194.196.918 56.619 82.126 109.628 52.559 157.921-30.866 50.414-116.661 9.571-170.307 34.399-43.934 20.333-59.011 86.875-106.91 93.9-47.829 7.014-88.684-32.803-129.125-59.286-40.919-26.796-80.087-55.003-107.381-95.592z" stroke="url(#paint4_linear_704_527)"/><path opacity=".794" d="M150.494 531.278c-29.844-47.912-75.288-103.634-55.3-156.424 20.702-54.673 100.775-52.929 147.748-87.731 36.662-27.163 51.842-83.567 96.443-93.189 44.577-9.618 80.783 41.065 126.202 45.155 69.314 6.242 158.917-68.462 203.974-15.421 44.001 51.8-52.33 124.489-53.6 192.443-1.059 56.616 78.25 112.427 47.015 159.659-32.607 49.306-116.924 5.494-171.403 28.434-44.617 18.787-62.008 84.763-110.123 90.111-48.044 5.341-87.485-35.877-126.977-63.756-39.959-28.207-78.118-57.764-103.979-99.281z" stroke="url(#paint5_linear_704_527)"/><path opacity=".752" d="M158.468 528.909c-28.154-48.924-71.625-106.199-49.807-158.258 22.598-53.918 102.561-49.38 150.72-82.522 37.587-25.867 54.726-81.707 99.636-89.767 44.886-8.055 79.301 43.859 124.55 49.532 69.054 8.658 161.209-62.873 204.387-8.292 42.167 53.303-56.642 122.586-60.283 190.454-3.034 56.545 74.279 115.09 41.414 161.203-34.307 48.138-117.044 1.41-172.291 22.435-45.245 17.219-64.928 82.548-113.2 86.214-48.202 3.66-86.18-38.91-124.675-68.149-38.95-29.585-76.054-60.456-100.451-102.85z" stroke="url(#paint6_linear_704_527)"/><path opacity=".711" d="M166.521 526.82c-26.43-49.877-67.876-108.634-44.254-159.9 24.465-53.097 104.221-45.771 153.508-77.212 38.467-24.539 57.544-79.747 102.708-86.235 45.139-6.484 77.722 46.601 122.745 53.849 68.71 11.062 163.306-57.209 204.552-1.154 40.282 54.742-60.885 120.535-66.893 188.234-5.006 56.405 70.217 117.612 35.763 162.55-35.966 46.912-117.022-2.676-172.969 16.409-45.818 15.629-67.769 80.231-116.14 82.21-48.3 1.976-84.769-41.893-122.22-72.458-37.894-30.927-73.899-63.073-96.8-106.293z" stroke="url(#paint7_linear_704_527)"/><path opacity=".67" d="M174.641 525.014c-24.673-50.77-64.043-110.937-38.646-161.348 26.303-52.21 105.755-42.105 156.109-71.807 39.299-23.182 60.292-77.69 105.655-82.598 45.338-4.905 76.048 49.284 120.79 58.1 68.283 13.453 165.203-51.475 204.469 5.985 38.346 56.115-65.056 118.336-73.423 185.785-6.971 56.195 66.07 119.991 30.069 163.699-37.582 45.628-116.857-6.758-173.436 10.362-46.336 14.021-70.528 77.817-118.938 78.107-48.34.289-83.256-44.826-119.617-76.68-36.792-32.23-71.653-65.613-93.032-109.605z" stroke="url(#paint8_linear_704_527)"/><path opacity=".629" d="M182.819 523.491c-22.886-51.599-60.133-113.104-32.992-162.598 28.11-51.26 107.16-38.389 158.52-66.315 40.085-21.796 62.967-75.539 108.474-78.86 45.481-3.32 74.282 51.908 118.689 62.28 67.771 15.828 166.899-45.679 204.135 13.117 36.364 57.419-69.146 115.994-79.861 183.11-8.928 55.917 61.842 122.223 24.337 164.648-39.151 44.288-116.55-10.832-173.692 4.303-46.797 12.395-73.201 75.308-121.592 73.908-48.32-1.398-81.64-47.704-116.868-80.807-35.644-33.495-69.319-68.074-89.15-112.786z" stroke="url(#paint9_linear_704_527)"/><path opacity=".588" d="M191.045 522.255c-21.071-52.367-56.148-115.134-27.297-163.65 29.882-50.248 108.435-34.626 160.738-60.743 40.821-20.383 65.565-73.295 111.16-75.026 45.569-1.731 72.425 54.469 116.443 66.384 67.178 18.184 168.391-39.826 203.553 20.233 34.338 58.654-73.152 113.511-86.203 180.211-10.874 55.573 57.539 124.307 18.576 165.398-40.673 42.895-116.101-14.893-173.736-1.762-47.202 10.755-75.785 72.708-124.097 69.62-48.242-3.083-79.926-50.524-113.977-84.836-34.454-34.719-66.901-70.452-85.16-115.829z" stroke="url(#paint10_linear_704_527)"/><path opacity=".546" d="M199.31 521.307c-19.231-53.07-52.096-117.023-21.569-164.504 31.616-49.174 109.577-30.82 162.76-55.095 41.507-18.947 68.083-70.963 113.71-71.102 45.602-.139 70.48 56.964 114.056 70.408 66.501 20.517 169.678-33.925 202.722 27.325 32.271 59.816-77.068 110.888-92.44 177.093-12.806 55.159 53.166 126.239 12.793 165.945-42.145 41.449-115.51-18.936-173.569-7.824-47.548 9.101-78.276 70.019-126.451 65.247-48.105-4.766-78.114-53.283-110.947-88.763-33.221-35.9-64.401-72.744-81.065-118.73z" stroke="url(#paint11_linear_704_527)"/><path opacity=".505" d="M207.602 520.648c-17.367-53.709-47.98-118.771-15.814-165.156 33.313-48.042 110.585-26.977 164.583-49.382 42.144-17.487 70.518-68.544 116.122-67.09 45.58 1.453 68.45 59.388 111.53 74.345 65.745 22.826 170.759-27.982 201.645 34.383 30.163 60.906-80.891 108.131-98.564 173.759-14.724 54.679 48.728 128.018 6.994 166.291-43.566 39.953-114.78-22.956-173.19-13.877-47.837 7.436-80.672 67.245-128.652 60.794-47.909-6.441-76.207-55.976-107.781-92.581-31.948-37.037-61.824-74.947-76.873-121.486z" stroke="url(#paint12_linear_704_527)"/><path opacity=".464" d="M215.913 520.278c-15.482-54.282-43.806-120.372-10.041-165.607 34.97-46.849 111.46-23.101 166.206-43.608 42.728-16.005 72.868-66.04 118.393-62.996 45.501 3.042 66.335 61.741 108.867 78.192 64.909 25.106 171.632-22.006 200.323 41.4 28.019 61.921-84.616 105.242-104.568 170.213-16.624 54.131 44.23 129.64 1.185 166.433-44.933 38.409-113.908-26.947-172.6-19.912-48.067 5.761-82.969 64.388-130.695 56.267-47.655-8.11-74.206-58.602-104.484-96.286-30.636-38.13-59.171-77.059-72.586-124.096z" stroke="url(#paint13_linear_704_527)"/><path opacity=".422" d="M224.231 520.199c-13.578-54.79-39.578-121.828-4.255-165.857 36.583-45.6 112.198-19.197 167.627-37.781 43.261-14.504 75.128-63.457 120.519-58.826 45.368 4.629 64.14 64.019 106.072 81.944 63.993 27.356 172.295-16.002 198.756 48.366 25.841 62.861-88.237 102.225-110.445 166.46-18.502 53.518 39.679 131.105-4.623 166.374-46.247 36.816-112.899-30.907-171.801-25.924-48.239 4.08-85.166 61.453-132.578 51.671-47.344-9.767-72.117-61.156-101.061-99.874-29.287-39.175-56.445-79.077-68.211-126.553z" stroke="url(#paint14_linear_704_527)"/><path opacity=".381" d="M232.547 520.41c-11.657-55.23-35.302-123.135 1.536-165.904 38.153-44.296 112.8-15.27 168.844-31.908 43.74-12.985 77.296-60.796 122.498-54.584 45.178 6.209 61.867 66.218 103.148 85.596 62.999 29.573 172.748-9.98 196.946 55.273 23.632 63.725-91.751 99.083-116.186 162.504-20.359 52.84 35.079 132.41-10.427 166.111-47.504 35.18-111.751-34.828-170.791-31.904-48.352 2.394-87.259 58.443-134.302 47.013-46.973-11.414-69.938-63.636-97.513-103.34-27.902-40.174-53.651-80.999-63.753-128.857z" stroke="url(#paint15_linear_704_527)"/><path opacity=".34" d="M240.851 520.912c-9.723-55.604-30.984-124.292 7.324-165.75 39.676-42.937 113.264-11.324 169.855-25.996 44.167-11.451 79.371-58.062 124.329-50.276 44.934 7.782 59.518 68.337 100.097 89.144 61.929 31.753 172.992-3.945 194.898 62.112 21.393 64.511-95.153 95.821-121.787 158.351-22.191 52.097 30.436 133.553-16.218 165.645-48.703 33.502-110.467-38.706-169.574-37.845-48.406.706-89.245 55.363-135.86 42.298-46.547-13.046-67.674-66.038-93.847-106.68-26.483-41.123-50.792-82.822-59.217-131.003z" stroke="url(#paint16_linear_704_527)"/><path opacity=".299" d="M249.132 521.702c-7.777-55.908-26.627-125.297 13.105-165.393 41.149-41.526 113.59-7.364 170.658-20.052 44.54-9.902 81.349-55.256 126.008-45.906 44.635 9.346 57.096 70.373 96.925 92.583 60.783 33.895 173.024 2.095 192.611 68.876C867.568 517.028 750 544.252 721.2 605.814c-23.995 51.291 25.757 134.534-21.989 164.978-49.842 31.782-109.049-42.538-168.149-43.74-48.402-.984-91.123 52.215-137.254 37.531-46.063-14.663-65.329-68.36-90.067-109.891-25.032-42.022-47.87-84.544-54.609-132.99z" stroke="url(#paint17_linear_704_527)"/><path opacity=".258" d="M257.381 522.782c-5.821-56.146-22.239-126.151 18.868-164.835 42.574-40.065 113.778-3.396 171.254-14.084 44.859-8.343 83.228-52.384 127.534-41.481 44.281 10.898 54.606 72.322 93.635 95.909 59.563 35.996 172.845 8.132 190.09 75.556 16.841 65.846-101.605 88.95-132.537 149.47-25.77 50.422 21.047 135.351-27.733 164.111-50.92 30.022-107.498-46.319-166.52-49.582-48.338-2.673-92.89 49.002-138.48 32.717-45.523-16.261-62.903-70.598-86.177-112.967-23.55-42.87-44.891-86.163-49.934-134.814z" stroke="url(#paint18_linear_704_527)"/><path opacity=".216" d="M265.586 524.148c-3.857-56.315-17.822-126.849 24.61-164.076 43.946-38.555 113.827.578 171.641-8.099 45.122-6.771 85.006-49.447 128.904-37.004 43.874 12.436 52.048 74.184 90.231 99.118 58.27 38.053 172.456 14.159 187.337 82.145 14.533 66.393-104.648 85.349-137.672 144.752-27.515 49.492 16.309 136.004-33.444 163.044-51.937 28.226-105.816-50.042-164.688-55.363-48.215-4.359-94.544 45.73-139.538 27.864-44.928-17.84-60.401-72.75-82.182-115.905-22.039-43.666-41.856-87.678-45.199-136.476z" stroke="url(#paint19_linear_704_527)"/><path opacity=".175" d="M273.739 525.8c-1.89-56.415-13.384-127.394 30.321-163.117 45.265-36.997 113.738 4.55 171.82-2.104 45.331-5.192 86.679-46.45 130.116-32.483 43.413 13.96 49.428 75.955 86.716 102.207 56.907 40.063 171.858 20.169 184.357 88.633 12.207 66.86-107.563 81.645-142.64 139.859-29.225 48.502 11.553 136.49-39.113 161.777-52.891 26.397-104.006-53.704-162.657-61.077-48.033-6.038-96.081 42.403-140.424 22.978-44.278-19.397-57.826-74.814-78.087-118.703-20.502-44.408-38.771-89.085-40.409-137.97z" stroke="url(#paint20_linear_704_527)"/><path opacity=".134" d="M281.83 527.736c.08-56.447-8.93-127.784 35.995-161.96 46.529-35.395 113.51 8.517 171.788 3.894 45.485-3.607 88.248-43.397 131.171-27.922 42.899 15.467 46.747 77.634 83.096 105.171 55.474 42.025 171.049 26.155 181.152 95.012 9.866 67.246-110.347 77.842-147.435 134.797-30.9 47.452 6.783 136.81-44.735 160.313-53.78 24.535-102.068-57.301-160.426-66.716-47.793-7.711-97.503 39.024-141.141 18.062-43.574-20.93-55.179-76.786-73.897-121.355-18.939-45.097-35.638-90.384-35.568-139.296z" stroke="url(#paint21_linear_704_527)"/><path opacity=".092" d="M289.848 529.953c2.05-56.41-4.465-128.018 41.625-160.605 47.736-33.75 113.144 12.472 171.548 9.887 45.583-2.018 89.708-40.291 132.065-23.328 42.334 16.955 44.009 79.218 79.376 108.007 53.974 43.935 170.032 32.108 177.725 101.277 7.513 67.549-112.996 73.943-152.049 129.569-32.537 46.345 2.004 136.963-50.303 158.654-54.604 22.643-100.006-60.828-157.999-72.274-47.495-9.374-98.806 35.597-141.686 13.126-42.817-22.439-52.466-78.665-69.617-123.861-17.354-45.73-32.462-91.572-30.685-140.452z" stroke="url(#paint22_linear_704_527)"/><path opacity=".051" d="M297.783 532.448c4.018-56.304.006-128.096 47.206-159.054 48.884-32.064 112.639 16.413 171.098 15.868 45.625-.426 91.06-37.136 132.799-18.705 41.716 18.422 41.217 80.706 75.558 110.712 52.407 45.792 168.807 38.022 174.082 107.417 5.151 67.77-115.508 69.955-156.478 124.184-34.135 45.181-2.777 136.949-55.81 156.802-55.36 20.723-97.822-64.282-155.38-77.745-47.139-11.026-99.988 32.128-142.058 8.174-42.008-23.92-49.688-80.449-65.251-126.215-15.748-46.309-29.247-92.65-25.766-141.438z" stroke="url(#paint23_linear_704_527)"/><path opacity=".01" d="M305.627 535.218c5.98-56.129 4.476-128.017 52.727-157.31 49.974-30.338 111.998 20.335 170.44 21.829 45.613 1.167 92.301-33.935 133.371-14.058 41.048 19.866 38.376 82.095 71.648 113.281 50.778 47.593 167.378 43.891 170.228 113.427 2.783 67.909-117.879 65.881-160.717 118.647-35.691 43.963-7.555 136.77-61.248 154.759-56.05 18.779-95.519-67.656-152.573-83.12-46.725-12.664-101.048 28.619-142.256 3.211-41.147-25.371-46.85-82.133-60.807-128.415-14.122-46.83-25.995-93.614-20.813-142.251z" stroke="url(#paint24_linear_704_527)"/></g><defs><linearGradient id="paint0_linear_704_527" x1="96.426" y1="551.876" x2="620.811" y2="232.353" gradientUnits="userSpaceOnUse"><stop stop-color="#fff"/><stop offset="1" stop-color="#fff" stop-opacity="0"/></linearGradient><linearGradient id="paint1_linear_704_527" x1="103.715" y1="547.609" x2="638.931" y2="246.581" gradientUnits="userSpaceOnUse"><stop stop-color="#fff"/><stop offset="1" stop-color="#fff" stop-opacity="0"/></linearGradient><linearGradient id="paint2_linear_704_527" x1="111.148" y1="543.597" x2="656.544" y2="261.432" gradientUnits="userSpaceOnUse"><stop stop-color="#fff"/><stop offset="1" stop-color="#fff" stop-opacity="0"/></linearGradient><linearGradient id="paint3_linear_704_527" x1="118.716" y1="539.848" x2="673.628" y2="276.888" gradientUnits="userSpaceOnUse"><stop stop-color="#fff"/><stop offset="1" stop-color="#fff" stop-opacity="0"/></linearGradient><linearGradient id="paint4_linear_704_527" x1="126.411" y1="536.365" x2="690.161" y2="292.931" gradientUnits="userSpaceOnUse"><stop stop-color="#fff"/><stop offset="1" stop-color="#fff" stop-opacity="0"/></linearGradient><linearGradient id="paint5_linear_704_527" x1="134.222" y1="533.152" x2="706.125" y2="309.542" gradientUnits="userSpaceOnUse"><stop stop-color="#fff"/><stop offset="1" stop-color="#fff" stop-opacity="0"/></linearGradient><linearGradient id="paint6_linear_704_527" x1="142.141" y1="530.214" x2="721.499" y2="326.699" gradientUnits="userSpaceOnUse"><stop stop-color="#fff"/><stop offset="1" stop-color="#fff" stop-opacity="0"/></linearGradient><linearGradient id="paint7_linear_704_527" x1="150.158" y1="527.554" x2="736.265" y2="344.383" gradientUnits="userSpaceOnUse"><stop stop-color="#fff"/><stop offset="1" stop-color="#fff" stop-opacity="0"/></linearGradient><linearGradient id="paint8_linear_704_527" x1="158.262" y1="525.176" x2="750.405" y2="362.571" gradientUnits="userSpaceOnUse"><stop stop-color="#fff"/><stop offset="1" stop-color="#fff" stop-opacity="0"/></linearGradient><linearGradient id="paint9_linear_704_527" x1="166.445" y1="523.082" x2="763.902" y2="381.241" gradientUnits="userSpaceOnUse"><stop stop-color="#fff"/><stop offset="1" stop-color="#fff" stop-opacity="0"/></linearGradient><linearGradient id="paint10_linear_704_527" x1="174.695" y1="521.275" x2="776.739" y2="400.371" gradientUnits="userSpaceOnUse"><stop stop-color="#fff"/><stop offset="1" stop-color="#fff" stop-opacity="0"/></linearGradient><linearGradient id="paint11_linear_704_527" x1="183.004" y1="519.756" x2="788.9" y2="419.938" gradientUnits="userSpaceOnUse"><stop stop-color="#fff"/><stop offset="1" stop-color="#fff" stop-opacity="0"/></linearGradient><linearGradient id="paint12_linear_704_527" x1="191.361" y1="518.529" x2="800.372" y2="439.917" gradientUnits="userSpaceOnUse"><stop stop-color="#fff"/><stop offset="1" stop-color="#fff" stop-opacity="0"/></linearGradient><linearGradient id="paint13_linear_704_527" x1="199.755" y1="517.594" x2="811.139" y2="460.284" gradientUnits="userSpaceOnUse"><stop stop-color="#fff"/><stop offset="1" stop-color="#fff" stop-opacity="0"/></linearGradient><linearGradient id="paint14_linear_704_527" x1="208.177" y1="516.953" x2="821.188" y2="481.014" gradientUnits="userSpaceOnUse"><stop stop-color="#fff"/><stop offset="1" stop-color="#fff" stop-opacity="0"/></linearGradient><linearGradient id="paint15_linear_704_527" x1="216.616" y1="516.606" x2="830.508" y2="502.083" gradientUnits="userSpaceOnUse"><stop stop-color="#fff"/><stop offset="1" stop-color="#fff" stop-opacity="0"/></linearGradient><linearGradient id="paint16_linear_704_527" x1="225.062" y1="516.553" x2="839.087" y2="523.464" gradientUnits="userSpaceOnUse"><stop stop-color="#fff"/><stop offset="1" stop-color="#fff" stop-opacity="0"/></linearGradient><linearGradient id="paint17_linear_704_527" x1="233.505" y1="516.796" x2="846.914" y2="545.131" gradientUnits="userSpaceOnUse"><stop stop-color="#fff"/><stop offset="1" stop-color="#fff" stop-opacity="0"/></linearGradient><linearGradient id="paint18_linear_704_527" x1="241.934" y1="517.333" x2="853.981" y2="567.059" gradientUnits="userSpaceOnUse"><stop stop-color="#fff"/><stop offset="1" stop-color="#fff" stop-opacity="0"/></linearGradient><linearGradient id="paint19_linear_704_527" x1="250.339" y1="518.163" x2="860.278" y2="589.219" gradientUnits="userSpaceOnUse"><stop stop-color="#fff"/><stop offset="1" stop-color="#fff" stop-opacity="0"/></linearGradient><linearGradient id="paint20_linear_704_527" x1="258.711" y1="519.287" x2="865.798" y2="611.586" gradientUnits="userSpaceOnUse"><stop stop-color="#fff"/><stop offset="1" stop-color="#fff" stop-opacity="0"/></linearGradient><linearGradient id="paint21_linear_704_527" x1="267.038" y1="520.702" x2="870.534" y2="634.132" gradientUnits="userSpaceOnUse"><stop stop-color="#fff"/><stop offset="1" stop-color="#fff" stop-opacity="0"/></linearGradient><linearGradient id="paint22_linear_704_527" x1="275.31" y1="522.407" x2="874.48" y2="656.83" gradientUnits="userSpaceOnUse"><stop stop-color="#fff"/><stop offset="1" stop-color="#fff" stop-opacity="0"/></linearGradient><linearGradient id="paint23_linear_704_527" x1="283.518" y1="524.399" x2="877.632" y2="679.651" gradientUnits="userSpaceOnUse"><stop stop-color="#fff"/><stop offset="1" stop-color="#fff" stop-opacity="0"/></linearGradient><linearGradient id="paint24_linear_704_527" x1="291.651" y1="526.676" x2="879.985" y2="702.568" gradientUnits="userSpaceOnUse"><stop stop-color="#fff"/><stop offset="1" stop-color="#fff" stop-opacity="0"/></linearGradient></defs></svg>