<svg width="1336" height="1146" fill="none" xmlns="http://www.w3.org/2000/svg"><g opacity=".6"><g opacity=".3" clip-rule="evenodd" stroke-opacity=".7" stroke-width="2"><path d="M234.936 527.869C166.789 451.968 68.43 367.062 87.437 266.844 107.123 163.049 250.17 141.027 322.845 64.351c56.72-59.844 66.035-164.986 142.389-196.106 76.313-31.103 156.651 47.73 238.764 40.758 125.313-10.642 261.331-171.705 358.162-91.449 94.56 78.376-54.07 237.964-35 359.296 15.88 101.088 174.53 175.524 133.77 269.382-42.56 97.978-206.36 46.467-296.115 104.387-73.506 47.436-83.752 170.306-167.701 194.922-83.825 24.581-166.949-36.397-245.978-73.617-79.965-37.661-157.149-78.286-216.2-144.055z" stroke="url(#paint0_linear_364_2050)"/><path opacity=".959" d="M248.386 521.152C182.93 442.919 87.594 354.633 110.087 255.139c23.295-103.045 167.024-120.061 242.331-194.154 58.774-57.827 71.753-162.581 149.147-191.017 77.352-28.421 154.889 53.169 237.195 49.066 125.608-6.262 267.16-162.48 361.13-78.894 91.77 81.629-62.33 235.933-47.52 357.856 12.35 101.581 168.31 181.508 124.29 273.886-45.95 96.433-207.851 39.237-299.572 93.99-75.117 44.841-89.645 167.278-174.402 188.95-84.633 21.64-165.578-42.201-243.26-82.157-78.601-40.428-154.32-83.722-211.04-151.513z" stroke="url(#paint1_linear_364_2050)"/><path opacity=".917" d="M262.061 514.908c-62.687-80.47-154.883-172.03-128.932-270.678 26.878-102.169 171.113-114.159 248.959-185.579 60.757-55.74 77.384-159.978 155.723-185.695 78.296-25.705 152.939 58.542 235.338 57.313 125.75-1.874 272.671-153.056 363.671-66.242 88.86 84.782-70.54 233.614-59.98 355.979 8.79 101.95 161.86 187.272 114.65 278.057-49.29 94.772-209.095 31.959-302.672 83.478-76.636 42.193-95.428 164.048-180.889 182.749-85.337 18.673-164.004-47.954-240.245-90.597-77.142-43.147-151.304-89.057-205.623-158.785z" stroke="url(#paint2_linear_364_2050)"/><path opacity=".876" d="M275.944 509.144c-59.839-82.609-148.784-177.33-119.406-275.013 30.427-101.168 174.993-108.117 255.284-176.777 62.665-53.586 82.92-157.18 162.108-180.148 79.147-22.956 150.804 63.844 233.195 65.493 125.739 2.515 277.845-143.448 365.755-53.511 85.85 87.832-78.64 231.01-72.36 353.67 5.22 102.194 155.23 192.806 104.88 281.888-52.57 92.994-210.088 24.643-305.405 72.864-78.062 39.493-101.095 160.618-187.157 176.325-85.936 15.683-162.231-53.649-236.937-98.926-75.589-45.813-148.104-94.284-199.957-165.865z" stroke="url(#paint3_linear_364_2050)"/><path opacity=".835" d="M290.021 503.868c-56.92-84.646-142.505-182.414-109.736-279.012 33.939-100.045 178.66-101.944 261.298-167.76C506.08 5.729 529.938-97.094 609.88-117.285c79.899-20.18 148.483 69.068 230.767 73.591 125.574 6.902 282.683-133.663 367.403-40.713 82.73 90.774-86.66 228.125-84.67 350.928 1.66 102.315 148.41 198.107 94.98 285.378-55.78 91.102-210.81 17.295-307.756 62.161-79.393 36.744-106.639 156.992-193.197 169.685-86.431 12.675-160.259-59.277-233.339-107.134-73.945-48.423-144.724-99.395-194.047-172.743z" stroke="url(#paint4_linear_364_2050)"/><path opacity=".794" d="M304.273 499.087c-53.931-86.581-136.052-187.277-99.931-282.672 37.409-98.8 182.108-95.647 266.993-158.539 66.25-49.084 93.682-151.012 174.28-168.401 80.555-17.379 145.982 74.209 228.058 81.6C998.93-17.645 1160.85-152.64 1242.27-56.79c79.52 93.606-94.56 224.961-96.86 347.76-1.91 102.31 141.41 203.165 84.96 288.518-58.92 89.1-211.29 9.928-309.738 51.383-80.627 33.95-112.053 153.174-199.001 162.839-86.821 9.651-158.093-64.834-229.458-115.212-72.21-50.975-141.167-104.386-187.9-179.41z" stroke="url(#paint5_linear_364_2050)"/><path opacity=".752" d="M318.683 494.806c-50.877-88.411-129.433-191.911-90.005-285.987 40.835-97.434 185.335-89.234 272.364-149.124 67.923-46.743 98.895-147.651 180.05-162.217 81.113-14.557 143.304 79.258 225.072 89.51 124.786 15.643 291.316-113.62 369.346-14.987 76.2 96.324-102.36 221.525-108.94 344.168-5.48 102.181 134.23 207.977 74.84 291.307-61.99 86.99-211.51 2.548-311.342 40.542-81.763 31.116-117.331 149.171-204.563 155.795-87.105 6.615-155.734-70.312-225.298-123.15-70.386-53.463-137.438-109.248-181.524-185.858z" stroke="url(#paint6_linear_364_2050)"/><path opacity=".711" d="M333.234 491.031c-47.76-90.133-122.657-196.311-79.97-288.955 44.211-95.949 188.337-82.71 277.403-139.527C600.18 18.205 634.654-81.561 716.269-93.285c81.571-11.718 140.45 84.21 221.811 97.31 124.16 19.99 295.11-103.383 369.64-2.087 72.8 98.925-110.02 217.817-120.88 340.156-9.04 101.928 126.89 212.535 64.63 293.742-65 84.773-211.47-4.835-312.571 29.652-82.798 28.243-122.465 144.985-209.875 148.561-87.282 3.571-153.185-75.705-220.863-130.938-68.478-55.888-133.541-113.979-174.927-192.08z" stroke="url(#paint7_linear_364_2050)"/><path opacity=".67" d="M347.908 487.766c-44.586-91.745-115.731-200.473-69.837-291.57 47.533-94.348 191.109-76.087 282.103-129.761C631.192 24.544 669.128-73.958 751.102-82.827c81.93-8.863 137.426 89.061 218.279 104.992 123.389 24.311 298.539-93.02 369.489 10.815 69.3 101.405-117.56 213.845-132.68 335.73-12.59 101.55 119.4 216.834 54.34 295.819-67.91 82.453-211.17-12.213-313.414 18.725C863.382 708.59 819.665 823.876 732.184 824.4c-87.354.522-150.45-81.005-216.159-138.567-66.486-58.243-129.482-118.569-168.117-198.067z" stroke="url(#paint8_linear_364_2050)"/><path opacity=".629" d="M362.687 485.015c-41.357-93.245-108.665-204.39-59.619-293.829 50.796-92.632 193.648-69.372 286.46-119.838 72.437-39.386 113.787-136.505 196.02-142.507 82.19-5.999 134.234 93.803 214.482 112.545 122.47 28.603 301.6-82.544 368.89 23.704 65.71 103.762-124.95 209.612-144.32 330.896-16.13 101.048 111.76 220.867 43.98 297.534-70.75 80.033-210.61-19.575-313.873 7.775-84.567 22.4-132.28 136.089-219.727 133.559-87.319-2.526-147.531-86.205-211.191-146.025-64.413-60.528-125.265-123.016-161.102-203.814z" stroke="url(#paint9_linear_364_2050)"/><path opacity=".588" d="M377.553 482.781c-38.078-94.631-101.465-208.057-49.328-295.731 53.998-90.802 195.951-62.571 290.467-109.767 73.767-36.835 118.482-132.45 200.875-135.579 82.349-3.127 130.878 98.43 210.423 119.962 121.4 32.86 304.3-71.969 367.84 36.564 62.05 105.991-132.19 205.123-155.78 325.657-19.65 100.423 103.98 224.633 33.57 298.888-73.5 77.515-209.8-26.914-313.956-3.184-85.297 19.434-136.949 131.39-224.254 125.81-87.178-5.573-144.433-91.302-205.966-153.308-62.261-62.739-120.896-127.312-153.891-209.312z" stroke="url(#paint10_linear_364_2050)"/><path opacity=".546" d="M392.488 481.067c-34.752-95.902-94.143-211.471-38.977-297.272 57.134-88.862 198.014-55.694 294.121-99.562C722.639 49.994 770.663-44.003 853.116-44.254c82.407-.25 127.363 102.938 206.104 127.233 120.18 37.076 306.63-61.305 366.34 49.378 58.32 108.093-139.27 200.385-167.04 320.023-23.15 99.676 96.07 228.125 23.11 299.877-76.16 74.903-208.73-34.219-313.651-14.138-85.924 16.445-141.452 126.53-228.509 117.906-86.93-8.611-141.159-96.287-200.49-160.402-60.034-64.874-116.379-131.454-146.492-214.556z" stroke="url(#paint11_linear_364_2050)"/><path opacity=".505" d="M407.473 479.876c-31.384-97.057-86.705-214.628-28.579-298.451 60.201-86.815 199.838-48.75 297.417-89.238 76.157-31.6 127.432-123.863 209.843-121.236C968.52-26.424 1009.85 78.27 1087.7 105.299c118.8 41.247 308.57-50.567 364.39 62.133 54.51 110.062-146.18 195.403-178.12 313.998-26.6 98.808 88.06 231.339 12.64 300.501-78.73 72.199-207.41-41.483-312.967-25.076-86.446 13.437-145.781 121.517-232.485 109.86-86.576-11.64-137.712-101.155-194.77-167.302-57.733-66.929-111.72-135.435-138.915-219.537z" stroke="url(#paint12_linear_364_2050)"/><path opacity=".464" d="M422.491 479.209c-27.977-98.093-79.162-217.524-18.146-299.267 63.194-84.66 201.418-41.746 300.35-78.804 77.214-28.922 131.678-119.34 213.946-113.84 82.229 5.5 119.869 111.574 196.729 141.302 117.3 45.369 310.16-39.767 362 74.813 50.64 111.897-152.9 190.181-188.96 307.59-30.04 97.819 79.93 234.271 2.14 300.759-81.2 69.408-205.84-48.696-311.901-35.983-86.861 10.412-149.933 116.355-236.177 101.679-86.117-14.654-134.098-105.899-188.812-173.997-55.362-68.903-106.926-139.252-131.169-224.251z" stroke="url(#paint13_linear_364_2050)"/><path opacity=".422" d="M437.523 479.066c-24.537-99.01-71.522-220.154-7.69-299.718 66.109-82.404 202.752-34.691 302.917-68.274C810.926 84.864 868.512-3.598 950.539 4.771c81.981 8.364 115.901 115.687 191.681 148.08 115.64 49.434 311.35-28.919 359.17 87.401 46.7 113.596-159.45 184.729-199.58 300.807-33.44 96.712 71.7 236.919-8.36 300.652-83.57 66.531-204.02-55.851-310.458-46.847-87.172 7.374-153.902 111.051-239.581 93.375-85.554-17.651-130.321-110.515-182.625-180.481-52.924-70.793-102.001-142.899-123.263-228.692z" stroke="url(#paint14_linear_364_2050)"/><path opacity=".381" d="M452.551 479.447c-21.067-99.805-63.795-222.515 2.774-299.803 68.946-80.047 203.839-27.594 305.116-57.66 79.043-23.466 139.681-109.865 221.366-98.638 81.643 11.22 111.793 119.661 186.393 154.679 113.85 53.44 312.17-18.035 355.9 99.882 42.71 115.157-165.8 179.052-209.96 293.659-36.79 95.486 63.39 239.277-18.84 300.177-85.84 63.574-201.94-62.937-308.633-57.653-87.377 4.327-157.685 105.612-242.695 84.956-84.885-20.625-126.384-114.995-176.215-186.743-50.421-72.598-96.952-146.372-115.206-232.856z" stroke="url(#paint15_linear_364_2050)"/><path opacity=".34" d="M467.556 480.353c-17.57-100.48-55.99-224.606 13.236-299.524 71.697-77.591 204.678-20.463 306.942-46.977C867.547 113.16 931.164 28.93 1012.41 43c81.2 14.063 107.55 123.491 180.88 161.09 111.91 57.381 312.61-7.129 352.2 112.242 38.66 116.577-171.95 173.157-220.08 286.153-40.1 94.144 55 241.343-29.31 299.337-88.01 60.539-199.62-69.947-306.432-68.39-87.474 1.275-161.274 100.045-245.511 76.435-84.115-23.575-122.295-119.336-169.591-192.78-47.857-74.312-91.785-149.666-107.01-236.734z" stroke="url(#paint16_linear_364_2050)"/><path opacity=".299" d="M482.521 481.782c-14.053-101.032-48.118-226.423 23.681-298.879 74.361-75.042 205.267-13.308 308.394-36.236 80.487-17.895 147.005-99.853 227.704-82.956 80.66 16.888 103.18 127.169 175.16 167.304 109.84 61.252 312.66 3.786 348.06 124.466 34.57 117.855-177.89 167.05-229.93 278.298-43.36 92.687 46.54 243.115-39.74 298.131-90.07 57.431-197.06-76.871-303.858-79.042-87.465-1.779-164.667 94.355-248.029 67.82-83.24-26.497-118.055-123.531-162.76-198.581-45.233-75.938-86.505-152.779-98.682-240.325z" stroke="url(#paint17_linear_364_2050)"/><path opacity=".258" d="M497.426 483.733c-10.518-101.461-40.186-227.965 34.098-297.871 76.934-72.401 205.607-6.136 309.471-25.452 81.062-15.075 150.4-94.661 230.465-74.958 80.02 19.692 98.68 130.692 169.21 173.315 107.63 65.048 312.34 14.695 343.5 136.537 30.44 118.99-183.6 160.74-239.5 270.104-46.57 91.117 38.03 244.592-50.12 296.563-92.01 54.249-194.26-83.701-300.913-89.599-87.35-4.829-167.86 88.552-250.245 59.123-82.265-29.385-113.672-127.576-155.73-204.14-42.556-77.47-81.121-155.704-90.236-243.622z" stroke="url(#paint18_linear_364_2050)"/><path opacity=".216" d="M512.255 486.202c-6.971-101.766-32.206-229.228 44.472-296.499 79.415-69.672 205.696 1.043 310.171-14.636 81.539-12.236 153.612-89.355 232.942-66.87 79.28 22.474 94.05 134.057 163.05 179.116 105.3 68.764 311.65 25.586 338.54 148.442 26.26 119.979-189.11 154.234-248.79 261.58-49.72 89.437 29.47 245.77-60.43 294.633-93.86 51.012-191.22-90.429-297.61-100.045-87.129-7.876-170.849 82.639-252.156 50.353-81.189-32.239-109.151-131.466-148.511-209.451-39.826-78.908-75.637-158.44-81.678-246.623z" stroke="url(#paint19_linear_364_2050)"/><path opacity=".175" d="M526.988 489.188c-3.415-101.948-24.186-230.213 54.793-294.767 81.798-66.858 205.534 8.221 310.492-3.802 81.917-9.383 156.637-83.94 235.127-58.7 78.46 25.227 89.33 137.258 156.71 184.697 102.83 72.398 310.56 36.447 333.15 160.166 22.06 120.823-194.38 147.541-257.77 252.739-52.81 87.647 20.88 246.649-70.68 292.349-95.58 47.7-187.94-97.052-293.931-110.376-86.8-10.911-173.628 76.627-253.759 41.523-80.015-35.052-104.496-135.195-141.111-214.506-37.048-80.25-70.061-160.984-73.021-249.323z" stroke="url(#paint20_linear_364_2050)"/><path opacity=".134" d="M541.608 492.686c.145-102.005-16.137-230.917 65.047-292.676 84.081-63.962 205.122 15.39 310.436 7.037 82.194-6.519 159.469-78.422 237.039-50.458 77.52 27.949 84.47 140.291 150.16 190.053 100.25 75.942 309.1 47.264 327.36 171.696 17.83 121.519-199.41 140.667-266.43 243.589-55.84 85.75 12.26 247.223-80.84 289.703-97.19 44.33-184.45-103.552-289.904-120.566-86.366-13.934-176.196 70.516-255.054 32.641-78.742-37.823-99.714-138.759-133.538-219.3-34.225-81.494-64.401-163.331-64.276-251.719z" stroke="url(#paint21_linear_364_2050)"/><path opacity=".092" d="M556.097 496.692c3.705-101.938-8.068-231.34 75.222-290.227 86.262-60.99 204.459 22.538 310.001 17.866 82.37-3.646 162.11-72.809 238.65-42.155 76.5 30.638 79.53 143.154 143.44 195.178 97.54 79.395 307.26 58.023 321.17 183.016 13.57 122.067-204.2 133.622-274.77 234.142-58.8 83.75 3.62 247.508-90.9 286.698-98.67 40.92-180.72-109.918-285.52-130.602-85.827-16.94-178.55 64.332-256.038 23.72-77.374-40.549-94.81-142.155-125.803-223.827-31.36-82.639-58.661-165.479-55.452-253.809z" stroke="url(#paint22_linear_364_2050)"/><path opacity=".051" d="M570.438 501.201c7.26-101.746.01-231.48 85.304-287.425 88.338-57.942 203.549 29.66 309.189 28.674 82.449-.769 164.549-67.107 239.979-33.8 75.39 33.289 74.48 145.842 136.54 200.065 94.7 82.75 305.05 68.71 314.58 194.112 9.31 122.467-208.73 126.415-282.77 224.411-61.68 81.646-5.02 247.482-100.85 283.352-100.04 37.45-176.77-116.159-280.787-140.488-85.184-19.925-180.687 58.058-256.71 14.77-75.912-43.224-89.791-145.377-117.915-228.081-28.457-83.683-52.851-167.426-46.56-255.59z" stroke="url(#paint23_linear_364_2050)"/><path opacity=".01" d="M584.61 506.206c10.806-101.431 8.089-231.339 95.283-284.273 90.307-54.823 202.39 36.746 308 39.448 82.427 2.108 166.797-61.324 241.017-25.405 74.17 35.9 69.34 148.353 129.47 204.708 91.76 86.005 302.47 79.315 307.62 204.973 5.03 122.717-213.02 119.053-290.43 214.406-64.5 79.444-13.66 247.157-110.68 279.667-101.29 33.93-172.61-122.27-275.716-150.21-84.436-22.885-182.602 51.72-257.068 5.802-74.358-45.847-84.664-148.422-109.884-232.057-25.519-84.625-46.975-169.168-37.612-257.059z" stroke="url(#paint24_linear_364_2050)"/></g></g><defs><linearGradient id="paint0_linear_364_2050" x1="206.566" y1="536.309" x2="1154.18" y2="-41.097" gradientUnits="userSpaceOnUse"><stop stop-color="#fff"/><stop offset="1" stop-color="#fff" stop-opacity="0"/></linearGradient><linearGradient id="paint1_linear_364_2050" x1="219.739" y1="528.598" x2="1186.92" y2="-15.385" gradientUnits="userSpaceOnUse"><stop stop-color="#fff"/><stop offset="1" stop-color="#fff" stop-opacity="0"/></linearGradient><linearGradient id="paint2_linear_364_2050" x1="233.171" y1="521.349" x2="1218.75" y2="11.451" gradientUnits="userSpaceOnUse"><stop stop-color="#fff"/><stop offset="1" stop-color="#fff" stop-opacity="0"/></linearGradient><linearGradient id="paint3_linear_364_2050" x1="246.848" y1="514.573" x2="1249.62" y2="39.382" gradientUnits="userSpaceOnUse"><stop stop-color="#fff"/><stop offset="1" stop-color="#fff" stop-opacity="0"/></linearGradient><linearGradient id="paint4_linear_364_2050" x1="260.752" y1="508.278" x2="1279.5" y2="68.373" gradientUnits="userSpaceOnUse"><stop stop-color="#fff"/><stop offset="1" stop-color="#fff" stop-opacity="0"/></linearGradient><linearGradient id="paint5_linear_364_2050" x1="274.868" y1="502.473" x2="1308.35" y2="98.39" gradientUnits="userSpaceOnUse"><stop stop-color="#fff"/><stop offset="1" stop-color="#fff" stop-opacity="0"/></linearGradient><linearGradient id="paint6_linear_364_2050" x1="289.179" y1="497.164" x2="1336.13" y2="129.395" gradientUnits="userSpaceOnUse"><stop stop-color="#fff"/><stop offset="1" stop-color="#fff" stop-opacity="0"/></linearGradient><linearGradient id="paint7_linear_364_2050" x1="303.665" y1="492.357" x2="1362.81" y2="161.35" gradientUnits="userSpaceOnUse"><stop stop-color="#fff"/><stop offset="1" stop-color="#fff" stop-opacity="0"/></linearGradient><linearGradient id="paint8_linear_364_2050" x1="318.311" y1="488.059" x2="1388.37" y2="194.218" gradientUnits="userSpaceOnUse"><stop stop-color="#fff"/><stop offset="1" stop-color="#fff" stop-opacity="0"/></linearGradient><linearGradient id="paint9_linear_364_2050" x1="333.097" y1="484.275" x2="1412.75" y2="227.957" gradientUnits="userSpaceOnUse"><stop stop-color="#fff"/><stop offset="1" stop-color="#fff" stop-opacity="0"/></linearGradient><linearGradient id="paint10_linear_364_2050" x1="348.007" y1="481.009" x2="1435.95" y2="262.527" gradientUnits="userSpaceOnUse"><stop stop-color="#fff"/><stop offset="1" stop-color="#fff" stop-opacity="0"/></linearGradient><linearGradient id="paint11_linear_364_2050" x1="363.021" y1="478.266" x2="1457.93" y2="297.885" gradientUnits="userSpaceOnUse"><stop stop-color="#fff"/><stop offset="1" stop-color="#fff" stop-opacity="0"/></linearGradient><linearGradient id="paint12_linear_364_2050" x1="378.123" y1="476.048" x2="1478.66" y2="333.989" gradientUnits="userSpaceOnUse"><stop stop-color="#fff"/><stop offset="1" stop-color="#fff" stop-opacity="0"/></linearGradient><linearGradient id="paint13_linear_364_2050" x1="393.292" y1="474.358" x2="1498.12" y2="370.794" gradientUnits="userSpaceOnUse"><stop stop-color="#fff"/><stop offset="1" stop-color="#fff" stop-opacity="0"/></linearGradient><linearGradient id="paint14_linear_364_2050" x1="408.511" y1="473.199" x2="1516.28" y2="408.256" gradientUnits="userSpaceOnUse"><stop stop-color="#fff"/><stop offset="1" stop-color="#fff" stop-opacity="0"/></linearGradient><linearGradient id="paint15_linear_364_2050" x1="423.761" y1="472.572" x2="1533.12" y2="446.328" gradientUnits="userSpaceOnUse"><stop stop-color="#fff"/><stop offset="1" stop-color="#fff" stop-opacity="0"/></linearGradient><linearGradient id="paint16_linear_364_2050" x1="439.024" y1="472.477" x2="1548.62" y2="484.966" gradientUnits="userSpaceOnUse"><stop stop-color="#fff"/><stop offset="1" stop-color="#fff" stop-opacity="0"/></linearGradient><linearGradient id="paint17_linear_364_2050" x1="454.281" y1="472.916" x2="1562.77" y2="524.121" gradientUnits="userSpaceOnUse"><stop stop-color="#fff"/><stop offset="1" stop-color="#fff" stop-opacity="0"/></linearGradient><linearGradient id="paint18_linear_364_2050" x1="469.513" y1="473.886" x2="1575.54" y2="563.745" gradientUnits="userSpaceOnUse"><stop stop-color="#fff"/><stop offset="1" stop-color="#fff" stop-opacity="0"/></linearGradient><linearGradient id="paint19_linear_364_2050" x1="484.703" y1="475.387" x2="1586.92" y2="603.791" gradientUnits="userSpaceOnUse"><stop stop-color="#fff"/><stop offset="1" stop-color="#fff" stop-opacity="0"/></linearGradient><linearGradient id="paint20_linear_364_2050" x1="499.83" y1="477.418" x2="1596.89" y2="644.21" gradientUnits="userSpaceOnUse"><stop stop-color="#fff"/><stop offset="1" stop-color="#fff" stop-opacity="0"/></linearGradient><linearGradient id="paint21_linear_364_2050" x1="514.877" y1="479.975" x2="1605.45" y2="684.953" gradientUnits="userSpaceOnUse"><stop stop-color="#fff"/><stop offset="1" stop-color="#fff" stop-opacity="0"/></linearGradient><linearGradient id="paint22_linear_364_2050" x1="529.826" y1="483.056" x2="1612.58" y2="725.969" gradientUnits="userSpaceOnUse"><stop stop-color="#fff"/><stop offset="1" stop-color="#fff" stop-opacity="0"/></linearGradient><linearGradient id="paint23_linear_364_2050" x1="544.659" y1="486.656" x2="1618.27" y2="767.209" gradientUnits="userSpaceOnUse"><stop stop-color="#fff"/><stop offset="1" stop-color="#fff" stop-opacity="0"/></linearGradient><linearGradient id="paint24_linear_364_2050" x1="559.355" y1="490.77" x2="1622.52" y2="808.621" gradientUnits="userSpaceOnUse"><stop stop-color="#fff"/><stop offset="1" stop-color="#fff" stop-opacity="0"/></linearGradient></defs></svg>