<svg width="150" height="45" fill="none" xmlns="http://www.w3.org/2000/svg"><path d="M9.831 13.452v8.106H8.23c-1.129 0-2.33-.825-2.33-2.493v-5.613C3.64 10.564 1.219 6.08 0 2.547h1.802c1.53 0 2.33.753 2.586 1.327.965 2.224 2.476 4.932 3.696 6.636 1.238-1.686 3.295-5.111 4.169-7.963h1.693c1.02 0 1.584.592 1.584 1.47 0 1.471-3.95 7.444-5.699 9.435zm13.636-7.21c4.57 0 7.192 3.605 7.192 7.586 0 4.502-2.622 8.071-7.52 8.071-4.57 0-7.19-3.587-7.19-7.55 0-4.502 2.62-8.107 7.518-8.107zm-.327 3.336c-2.167 0-3.277 1.775-3.277 4.25 0 2.978 1.092 4.753 3.604 4.753 2.203 0 3.277-1.775 3.277-4.215 0-3.013-1.128-4.788-3.604-4.788zM40.308 21.9c-3.75 0-6.7-2.44-6.7-6.798v-8.52h.71c2.167 0 3.132.915 3.132 2.673v5.488c0 2.744 1.347 3.856 3.077 3.856 1.547 0 2.64-1.058 2.64-3.605V6.582h.673c2.203 0 3.132.915 3.132 2.673v5.614c0 4.645-2.24 7.03-6.664 7.03zm18.935-11.695c-.564-.215-1.22-.448-2.203-.448-1.693 0-2.622.915-2.622 3.192v8.61h-1.037c-1.694 0-2.768-.826-2.768-2.386v-6.887c0-2.995 1.602-5.865 5.608-5.865 2.33 0 3.15 1.31 3.15 2.44v1.326l-.128.018zm16.804-2.582c-1.22-1.56-3.641-2.063-5.298-2.063-3.441 0-6.008 2.44-6.008 6.134 0 4.466 2.512 6.726 6.135 6.726 1.912 0 4.06-.754 5.098-1.83h.146v1.417c0 2.6-3.077 3.713-5.754 3.713-5.134 0-9.521-3.767-9.521-9.47 0-5.865 3.969-9.99 9.867-9.99 3.15 0 5.462 1.273 5.462 3.892v1.47h-.127zM90.63 21.558c-1.584 0-2.567-.896-2.567-2.493v-6.098c0-2.439-1.347-3.407-3.023-3.407-1.183 0-2.73.896-2.73 3.533v8.501h-1.238c-1.785 0-2.586-.968-2.586-2.493V1.578h1.184c1.802 0 2.676 1.005 2.676 2.386v4.268c.564-.896 1.857-1.99 3.295-1.99 3.915 0 6.227 2.295 6.227 6.546v8.77H90.63zm11.725-15.316c4.57 0 7.191 3.605 7.191 7.586 0 4.502-2.621 8.071-7.519 8.071-4.57 0-7.191-3.587-7.191-7.55 0-4.502 2.622-8.107 7.519-8.107zm-.346 3.336c-2.166 0-3.277 1.775-3.277 4.25 0 2.978 1.092 4.753 3.605 4.753 2.203 0 3.277-1.775 3.277-4.215 0-3.013-1.111-4.788-3.605-4.788zm15.493 12.124c-2.931 0-4.533-1.632-4.533-4.663V6.905h1.074c1.693 0 2.713.897 2.713 2.78v6.995c0 1.506.655 1.973 2.312 1.973h.71v.807c-.018 1.614-.656 2.242-2.276 2.242zm15.876-10.295c-.51-.86-1.948-1.56-4.114-1.56-2.203 0-4.133 1.757-4.133 3.963 0 2.726 1.638 4.574 4.205 4.574 2.167 0 3.46-.7 4.006-1.381h.145v1.722c0 1.811-1.784 3.102-4.515 3.102-4.169 0-7.774-3.192-7.774-7.46 0-4.27 3.022-7.946 8.193-7.946 2.421 0 4.133 1.435 4.133 3.228v1.758h-.146z" fill="#fff"/><path d="M140.441 45H88.026c-5.28 0-9.558-4.215-9.558-9.416 0-5.201 4.278-9.416 9.558-9.416h52.415c5.28 0 9.559 4.215 9.559 9.416 0 5.201-4.279 9.416-9.559 9.416z" fill="#E94D6E"/><path d="M143.719 18.76c-2.221 0-3.969-1.201-4.26-3.084h2.476c5.007 0 7.137-.897 7.137-3.641 0-3.587-2.931-5.793-6.081-5.793-2.731 0-4.97 1.237-6.245 3.407a71.63 71.63 0 011.948-.287c.219-.036.82-.107 1.602-.161 1.73-.126 2.367-.018 2.567.018a6.174 6.174 0 011.475.466c.765.359 1.202 1.005 1.202 1.937 0 .933-.637 1.345-3.277 1.435h-.091c-1.366.054-2.385.018-2.713.018-.728-.018-1.875-.036-3.805-.018-.055.43-.073.879-.073 1.345 0 4.574 3.696 7.515 7.465 7.515 4.169 0 5.498-1.47 5.498-3.39v-1.165h-.146c-1.256 1.094-3.113 1.399-4.679 1.399zM95.722 40.332c-.92 0-1.38-.544-1.472-1.043-.092-.725-.184-1.27-.322-1.723H89.51c-.23.907-.414 1.859-.598 2.766h-.874c-.736 0-1.013-.363-1.013-1.043 0-1.587 2.071-7.978 3.774-9.837h.92c.874 0 1.472.453 1.795.997 1.012 1.768 2.668 6.437 3.083 9.883h-.875zm-3.957-8.885c-.644 1.133-1.335 2.856-1.703 4.351h3.406c-.369-1.495-1.15-3.354-1.703-4.351zm13.712 6.483c0 .362.046.815.046 1.087 0 2.13-1.472 4.08-4.233 4.08-1.795 0-2.991-.861-2.991-1.859v-.952h.092c.506.544 1.518.907 2.761.907 1.564 0 2.301-.725 2.255-1.95l-.046-.86v-.227c-.185.634-1.013 1.269-2.255 1.269-2.117 0-3.59-1.45-3.59-3.445 0-2.403 1.611-4.352 4.418-4.352 2.163 0 3.543 1.541 3.543 3.763v1.45c-.046.227 0 .68 0 1.088zm-5.752-2.267c0 1.133.691 1.949 1.703 1.949 1.058 0 1.841-.816 1.841-2.176 0-1.315-.691-1.995-1.611-1.995-1.104 0-1.933.907-1.933 2.221zm11.137 1.269h-1.427c.184 1.088 1.151 1.768 2.439 1.768.92 0 1.979-.182 2.669-.816h.092v.68c0 1.088-.736 1.949-3.129 1.949-2.163 0-4.279-1.677-4.279-4.306 0-2.856 1.794-4.67 4.233-4.67 1.795 0 3.497 1.27 3.497 3.31 0 1.586-1.242 2.085-4.095 2.085zm.414-3.581c-1.058 0-1.795.86-1.841 1.813v.272h.967c2.024 0 2.53-.227 2.53-.816-.046-.861-.69-1.27-1.656-1.27zm12.378 6.981c-.967 0-1.565-.59-1.565-1.406v-3.4c0-1.45-.644-2.085-1.748-2.085-.921 0-1.565.68-1.565 1.904v4.941h-.644c-.921 0-1.519-.589-1.519-1.405v-3.717c0-1.813 1.197-3.672 3.912-3.672 2.024 0 3.727 1.36 3.727 3.763v4.986h-.598v.09zm9.248-5.802c-.276-.5-1.104-.907-2.346-.907-1.243 0-2.347.997-2.347 2.266 0 1.541.92 2.63 2.393 2.63 1.242 0 1.978-.409 2.3-.817h.092v.998c0 1.042-1.012 1.768-2.576 1.768-2.393 0-4.464-1.814-4.464-4.262 0-2.447 1.703-4.533 4.694-4.533 1.38 0 2.346.816 2.346 1.859v.997h-.092zm2.623 8.567c-.828 0-1.518-.544-1.518-1.315v-.408l1.242-.09c.782-.046 1.058-.363 1.519-1.587-1.151-1.677-2.807-5.938-3.083-7.978h1.15c.598 0 1.15.408 1.242.997a19.208 19.208 0 001.749 4.941c.69-1.586 1.518-4.17 1.703-5.938h.92c.69 0 1.012.317 1.012.997 0 .907-1.518 4.805-1.932 5.712-1.611 3.808-2.485 4.669-4.004 4.669z" fill="#fff"/><path d="M115.117 5.56c1.558 0 2.822-1.245 2.822-2.78 0-1.535-1.264-2.78-2.822-2.78-1.559 0-2.822 1.245-2.822 2.78 0 1.535 1.263 2.78 2.822 2.78z" fill="#E94D6E"/></svg>