<svg width="1336" height="1021" fill="none" xmlns="http://www.w3.org/2000/svg"><g opacity=".1" stroke-width="2"><path d="M702.216 667.604c-2.621-34.405-25.542-17.047-36.674-4.068-10.929 13.149-23.204 19.798-27.975 21.479-87.713 27.157 70.974 95.39 42.694 45.918-28.28-49.471 25.23-20.323 21.955-63.329z" stroke="url(#paint0_linear_364_1754)"/><path d="M1008.29 204.696c-26.364-346.76-257.446-171.775-369.693-40.938-110.193 132.541-233.94 199.578-282.039 216.529-884.248 273.855 715.312 961.303 430.31 462.734-284.997-498.57 254.372-204.875 221.422-638.325z" stroke="url(#paint1_linear_364_1754)"/><path d="M716.552 645.56c-3.751-49.279-36.584-24.415-52.531-5.823-15.656 18.834-33.239 28.358-40.074 30.767-125.643 38.904 101.657 136.623 61.152 65.766-40.504-70.857 36.142-29.111 31.453-90.71z" stroke="url(#paint2_linear_364_1754)"/><path d="M730.889 623.517c-4.882-64.153-47.627-31.783-68.39-7.579-20.382 24.519-43.273 36.92-52.171 40.055-163.573 50.652 132.339 177.858 79.61 85.615-52.729-92.243 47.053-37.899 40.951-118.091z" stroke="url(#paint3_linear_364_1754)"/><path d="M746.226 601.474c-6.012-79.027-58.67-39.151-84.248-9.335-25.109 30.205-53.309 45.481-64.27 49.343-201.503 62.4 163.022 219.092 98.068 105.463-64.953-113.628 57.965-46.687 50.45-145.471z" stroke="url(#paint4_linear_364_1754)"/><path d="M760.563 579.43c-7.143-93.901-69.714-46.519-100.106-11.091-29.837 35.89-63.344 54.042-76.368 58.631-239.434 74.148 193.704 260.326 116.526 125.312-77.178-135.014 68.876-55.476 59.948-172.852z" stroke="url(#paint5_linear_364_1754)"/><path d="M774.899 557.387c-8.273-108.775-80.756-53.887-115.963-12.847-34.564 41.576-73.379 62.603-88.466 67.92-277.364 85.895 224.386 301.559 134.983 145.16-89.403-156.4 79.788-64.264 69.446-200.233z" stroke="url(#paint6_linear_364_1754)"/><path d="M789.236 535.344c-9.403-123.649-91.799-61.255-131.821-14.602-39.291 47.261-83.414 71.163-100.565 77.207-315.294 97.643 255.069 342.794 153.442 165.009-101.628-177.785 90.698-73.052 78.944-227.614z" stroke="url(#paint7_linear_364_1754)"/><path d="M804.573 513.301c-10.534-138.523-102.842-68.623-147.679-16.358-44.018 52.946-93.45 79.725-112.663 86.496-353.225 109.39 285.751 384.027 171.899 184.856-113.852-199.17 101.61-81.84 88.443-254.994z" stroke="url(#paint8_linear_364_1754)"/><path d="M818.91 491.258c-11.665-153.398-113.885-75.991-163.538-18.114-48.744 58.631-103.484 88.286-124.761 95.784-391.154 121.137 316.434 425.261 190.357 204.705-126.076-220.556 112.522-90.628 97.942-282.375z" stroke="url(#paint9_linear_364_1754)"/><path d="M833.246 469.215c-12.795-168.271-124.928-83.359-179.395-19.869-53.471 64.316-113.519 96.846-136.859 105.071C87.907 687.302 864.108 1020.91 725.807 778.971 587.506 537.029 849.24 679.554 833.246 469.215z" stroke="url(#paint10_linear_364_1754)"/><path d="M847.583 447.173c-13.925-183.146-135.971-90.728-195.253-21.625-58.198 70.001-123.554 105.407-148.958 114.359C36.357 684.54 881.171 1047.64 730.645 784.309 580.119 520.981 864.99 676.104 847.583 447.173z" stroke="url(#paint11_linear_364_1754)"/><path d="M862.92 425.129c-15.056-198.019-147.014-98.095-211.111-23.38-62.925 75.687-133.59 113.968-161.056 123.647-504.946 156.381 408.481 548.964 245.731 264.251C573.733 504.933 881.74 672.654 862.92 425.129z" stroke="url(#paint12_linear_364_1754)"/><path d="M874.903 401.025c-18.299-212.722-159.096-103.889-227.207-22.882-66.841 82.041-142.401 123.949-171.827 134.649-541.18 173.509 445.002 585.808 266.997 281.461C564.86 489.907 897.777 666.928 874.903 401.025z" stroke="url(#paint13_linear_364_1754)"/><path d="M891.593 381.041c-17.317-227.768-169.1-112.831-242.826-26.892-72.379 87.058-153.66 131.09-185.253 142.224C-117.292 676.248 933.361 1127.8 746.161 800.32c-187.2-327.485 167.078-134.569 145.432-419.279z" stroke="url(#paint14_linear_364_1754)"/><path d="M905.93 358.999c-18.447-242.642-180.143-120.2-258.685-28.648-77.105 92.743-163.694 139.651-197.351 151.512-618.736 191.622 500.53 672.667 301.105 323.795-199.425-348.87 177.99-143.357 154.931-446.659z" stroke="url(#paint15_linear_364_1754)"/><path d="M921.267 336.955C901.689 79.44 730.081 209.388 646.724 306.552c-81.832 98.428-173.73 148.211-209.449 160.8-656.666 203.37 531.212 713.898 319.563 343.643-211.65-370.256 188.901-152.145 164.429-474.04z" stroke="url(#paint16_linear_364_1754)"/><path d="M935.604 314.913c-20.709-272.39-202.229-134.935-290.401-32.159-86.559 104.114-183.765 156.773-221.548 170.088C-270.941 667.96 985.55 1207.98 761.676 816.334 537.802 424.693 961.489 655.4 935.604 314.913z" stroke="url(#paint17_linear_364_1754)"/><path d="M949.94 292.868C928.101 5.604 736.669 150.565 643.682 258.953c-91.286 109.799-193.8 165.334-233.646 179.376C-322.491 665.195 1002.61 1234.7 766.514 821.67 530.416 408.643 977.239 651.948 949.94 292.868z" stroke="url(#paint18_linear_364_1754)"/><path d="M964.277 270.825c-22.969-302.138-224.315-149.671-322.116-35.671-96.013 115.485-203.835 173.895-245.745 188.664-770.457 238.613 623.264 837.602 374.937 403.189-248.323-434.413 221.636-178.51 192.924-556.182z" stroke="url(#paint19_linear_364_1754)"/><path d="M979.614 248.782c-24.1-317.012-235.358-157.04-337.974-37.426C540.9 332.525 427.77 393.811 383.797 409.308c-808.387 250.36 653.943 878.832 393.394 423.037-260.548-455.798 232.549-187.298 202.423-583.563z" stroke="url(#paint20_linear_364_1754)"/><path d="M993.95 226.739c-25.23-331.886-246.4-164.407-353.832-39.182-105.466 126.855-223.905 191.016-269.941 207.24C-476.14 656.905 1054.8 1314.87 782.03 837.683c-272.773-477.184 243.46-196.086 211.92-610.944z" stroke="url(#paint21_linear_364_1754)"/></g><defs><linearGradient id="paint0_linear_364_1754" x1="623.078" y1="732.571" x2="713.933" y2="678.918" gradientUnits="userSpaceOnUse"><stop stop-color="#fff" stop-opacity="0"/><stop offset=".505" stop-color="#fff"/><stop offset="1" stop-color="#fff" stop-opacity="0"/></linearGradient><linearGradient id="paint1_linear_364_1754" x1="210.42" y1="859.617" x2="1126.39" y2="318.711" gradientUnits="userSpaceOnUse"><stop stop-color="#fff" stop-opacity="0"/><stop offset=".505" stop-color="#fff"/><stop offset="1" stop-color="#fff" stop-opacity="0"/></linearGradient><linearGradient id="paint2_linear_364_1754" x1="603.189" y1="738.62" x2="733.335" y2="661.765" gradientUnits="userSpaceOnUse"><stop stop-color="#fff" stop-opacity="0"/><stop offset=".505" stop-color="#fff"/><stop offset="1" stop-color="#fff" stop-opacity="0"/></linearGradient><linearGradient id="paint3_linear_364_1754" x1="583.301" y1="744.67" x2="752.738" y2="644.612" gradientUnits="userSpaceOnUse"><stop stop-color="#fff" stop-opacity="0"/><stop offset=".505" stop-color="#fff"/><stop offset="1" stop-color="#fff" stop-opacity="0"/></linearGradient><linearGradient id="paint4_linear_364_1754" x1="564.412" y1="750.72" x2="773.14" y2="627.46" gradientUnits="userSpaceOnUse"><stop stop-color="#fff" stop-opacity="0"/><stop offset=".505" stop-color="#fff"/><stop offset="1" stop-color="#fff" stop-opacity="0"/></linearGradient><linearGradient id="paint5_linear_364_1754" x1="544.524" y1="756.769" x2="792.543" y2="610.306" gradientUnits="userSpaceOnUse"><stop stop-color="#fff" stop-opacity="0"/><stop offset=".505" stop-color="#fff"/><stop offset="1" stop-color="#fff" stop-opacity="0"/></linearGradient><linearGradient id="paint6_linear_364_1754" x1="524.636" y1="762.819" x2="811.945" y2="593.154" gradientUnits="userSpaceOnUse"><stop stop-color="#fff" stop-opacity="0"/><stop offset=".505" stop-color="#fff"/><stop offset="1" stop-color="#fff" stop-opacity="0"/></linearGradient><linearGradient id="paint7_linear_364_1754" x1="504.747" y1="768.869" x2="831.348" y2="576.001" gradientUnits="userSpaceOnUse"><stop stop-color="#fff" stop-opacity="0"/><stop offset=".505" stop-color="#fff"/><stop offset="1" stop-color="#fff" stop-opacity="0"/></linearGradient><linearGradient id="paint8_linear_364_1754" x1="485.859" y1="774.919" x2="851.751" y2="558.849" gradientUnits="userSpaceOnUse"><stop stop-color="#fff" stop-opacity="0"/><stop offset=".505" stop-color="#fff"/><stop offset="1" stop-color="#fff" stop-opacity="0"/></linearGradient><linearGradient id="paint9_linear_364_1754" x1="465.97" y1="780.969" x2="871.153" y2="541.696" gradientUnits="userSpaceOnUse"><stop stop-color="#fff" stop-opacity="0"/><stop offset=".505" stop-color="#fff"/><stop offset="1" stop-color="#fff" stop-opacity="0"/></linearGradient><linearGradient id="paint10_linear_364_1754" x1="446.082" y1="787.019" x2="890.556" y2="524.544" gradientUnits="userSpaceOnUse"><stop stop-color="#fff" stop-opacity="0"/><stop offset=".505" stop-color="#fff"/><stop offset="1" stop-color="#fff" stop-opacity="0"/></linearGradient><linearGradient id="paint11_linear_364_1754" x1="426.193" y1="793.07" x2="909.958" y2="507.392" gradientUnits="userSpaceOnUse"><stop stop-color="#fff" stop-opacity="0"/><stop offset=".505" stop-color="#fff"/><stop offset="1" stop-color="#fff" stop-opacity="0"/></linearGradient><linearGradient id="paint12_linear_364_1754" x1="407.305" y1="799.119" x2="930.361" y2="490.239" gradientUnits="userSpaceOnUse"><stop stop-color="#fff" stop-opacity="0"/><stop offset=".505" stop-color="#fff"/><stop offset="1" stop-color="#fff" stop-opacity="0"/></linearGradient><linearGradient id="paint13_linear_364_1754" x1="389.078" y1="807.952" x2="948.101" y2="470.303" gradientUnits="userSpaceOnUse"><stop stop-color="#fff" stop-opacity="0"/><stop offset=".505" stop-color="#fff"/><stop offset="1" stop-color="#fff" stop-opacity="0"/></linearGradient><linearGradient id="paint14_linear_364_1754" x1="367.528" y1="811.217" x2="969.166" y2="455.932" gradientUnits="userSpaceOnUse"><stop stop-color="#fff" stop-opacity="0"/><stop offset=".505" stop-color="#fff"/><stop offset="1" stop-color="#fff" stop-opacity="0"/></linearGradient><linearGradient id="paint15_linear_364_1754" x1="347.639" y1="817.268" x2="988.568" y2="438.78" gradientUnits="userSpaceOnUse"><stop stop-color="#fff" stop-opacity="0"/><stop offset=".505" stop-color="#fff"/><stop offset="1" stop-color="#fff" stop-opacity="0"/></linearGradient><linearGradient id="paint16_linear_364_1754" x1="328.751" y1="823.317" x2="1008.97" y2="421.627" gradientUnits="userSpaceOnUse"><stop stop-color="#fff" stop-opacity="0"/><stop offset=".505" stop-color="#fff"/><stop offset="1" stop-color="#fff" stop-opacity="0"/></linearGradient><linearGradient id="paint17_linear_364_1754" x1="308.863" y1="829.368" x2="1028.37" y2="404.476" gradientUnits="userSpaceOnUse"><stop stop-color="#fff" stop-opacity="0"/><stop offset=".505" stop-color="#fff"/><stop offset="1" stop-color="#fff" stop-opacity="0"/></linearGradient><linearGradient id="paint18_linear_364_1754" x1="288.974" y1="835.416" x2="1047.78" y2="387.321" gradientUnits="userSpaceOnUse"><stop stop-color="#fff" stop-opacity="0"/><stop offset=".505" stop-color="#fff"/><stop offset="1" stop-color="#fff" stop-opacity="0"/></linearGradient><linearGradient id="paint19_linear_364_1754" x1="269.086" y1="841.466" x2="1067.18" y2="370.168" gradientUnits="userSpaceOnUse"><stop stop-color="#fff" stop-opacity="0"/><stop offset=".505" stop-color="#fff"/><stop offset="1" stop-color="#fff" stop-opacity="0"/></linearGradient><linearGradient id="paint20_linear_364_1754" x1="250.197" y1="847.516" x2="1087.58" y2="353.016" gradientUnits="userSpaceOnUse"><stop stop-color="#fff" stop-opacity="0"/><stop offset=".505" stop-color="#fff"/><stop offset="1" stop-color="#fff" stop-opacity="0"/></linearGradient><linearGradient id="paint21_linear_364_1754" x1="230.309" y1="853.566" x2="1106.98" y2="335.864" gradientUnits="userSpaceOnUse"><stop stop-color="#fff" stop-opacity="0"/><stop offset=".505" stop-color="#fff"/><stop offset="1" stop-color="#fff" stop-opacity="0"/></linearGradient></defs></svg>