<svg width="243" height="31" fill="none" xmlns="http://www.w3.org/2000/svg"><path d="M0 29.055V.472C0 .278.083.167.277.167c.47 0 .914 0 1.551-.028C2.465.11 3.185.11 3.933.083S5.484.056 6.343.028C7.202 0 8.033 0 8.863 0c2.272 0 4.155.278 5.706.861a9.886 9.886 0 013.712 2.278 8.848 8.848 0 012.022 3.167c.42 1.157.635 2.379.637 3.61 0 2.39-.554 4.362-1.662 5.917a9.492 9.492 0 01-4.46 3.39c-1.883.694-3.96.944-6.231.944-.665 0-1.108 0-1.385-.028-.277-.028-.665-.028-1.191-.028v8.917a.345.345 0 01-.305.389H.332c-.221 0-.332-.112-.332-.362zM6.038 5.528v9.333c.388.028.748.056 1.08.056h1.469a10.318 10.318 0 003.185-.5 4.763 4.763 0 002.271-1.473c.582-.694.859-1.639.859-2.86a4.583 4.583 0 00-.637-2.473 4.019 4.019 0 00-1.94-1.583 8.106 8.106 0 00-3.268-.556c-.72 0-1.357 0-1.883.028a6.324 6.324 0 00-1.136.028zm32.187 7.639a9.781 9.781 0 00-2.659-.945 14.564 14.564 0 00-3.102-.36 5.56 5.56 0 00-1.662.194c-.345.072-.65.27-.859.555-.14.225-.216.485-.221.75.013.264.11.518.277.722.262.31.582.564.942.75a25.32 25.32 0 001.966.917 20.034 20.034 0 014.266 2.028 6.455 6.455 0 012.188 2.305c.445.887.664 1.87.637 2.861a6.477 6.477 0 01-1.08 3.695 6.944 6.944 0 01-3.102 2.472c-1.358.583-3.02.889-5.014.889a19.025 19.025 0 01-3.767-.361 11.149 11.149 0 01-2.825-.89.555.555 0 01-.305-.527V23.39a.304.304 0 01.111-.25.21.21 0 01.25.028c1.066.63 2.225 1.09 3.434 1.36a12.86 12.86 0 003.268.417c1.053 0 1.8-.139 2.3-.389a1.29 1.29 0 00.747-1.166c0-.39-.221-.75-.665-1.111-.443-.361-1.357-.778-2.714-1.306a16.929 16.929 0 01-3.933-2 7.186 7.186 0 01-2.105-2.36 5.975 5.975 0 01-.637-2.834 6.547 6.547 0 01.941-3.361 6.834 6.834 0 012.909-2.556c1.302-.667 2.936-.972 4.902-.972 1.15 0 2.297.084 3.435.25a9.726 9.726 0 012.382.639.488.488 0 01.277.25c.032.108.05.22.055.333v4.528a.343.343 0 01-.138.278.735.735 0 01-.499 0z" fill="#31A8FF"/><path d="M68.449 21.739h-4.726L62.941 24h-2.499l4.267-11.883h2.771L71.747 24h-2.516l-.782-2.261zm-.646-1.904l-1.717-4.964-1.717 4.964h3.434zm4.417-.578c0-.952.187-1.796.56-2.533.386-.737.908-1.303 1.565-1.7a4.163 4.163 0 012.193-.595c.612 0 1.196.136 1.75.408.556.26.998.612 1.327 1.054V11.42h2.414V24h-2.414v-1.394a3.224 3.224 0 01-1.241 1.122c-.533.283-1.15.425-1.853.425a4.045 4.045 0 01-2.176-.612c-.657-.408-1.179-.98-1.564-1.717-.374-.748-.561-1.604-.561-2.567zm7.412.034c0-.578-.113-1.071-.34-1.479a2.325 2.325 0 00-.918-.952 2.406 2.406 0 00-1.241-.34c-.442 0-.85.108-1.224.323-.374.215-.68.533-.918.952-.227.408-.34.895-.34 1.462s.113 1.065.34 1.496c.238.42.544.742.918.969.385.227.793.34 1.224.34a2.5 2.5 0 001.24-.323c.386-.227.692-.544.919-.952.227-.42.34-.918.34-1.496zm8.393 4.862c-.906 0-1.722-.198-2.448-.595a4.464 4.464 0 01-1.717-1.717c-.408-.737-.612-1.587-.612-2.55 0-.963.21-1.813.63-2.55a4.43 4.43 0 011.75-1.7c.737-.408 1.559-.612 2.465-.612.907 0 1.729.204 2.465.612a4.314 4.314 0 011.734 1.7c.431.737.646 1.587.646 2.55 0 .963-.22 1.813-.663 2.55a4.517 4.517 0 01-1.768 1.717c-.736.397-1.564.595-2.482.595zm0-2.074a2.48 2.48 0 001.207-.306c.386-.215.692-.533.918-.952.227-.42.34-.93.34-1.53 0-.895-.238-1.581-.714-2.057a2.279 2.279 0 00-1.717-.731 2.28 2.28 0 00-1.717.731c-.453.476-.68 1.162-.68 2.057s.221 1.587.663 2.074c.454.476 1.02.714 1.7.714zm8.53-6.12a3.42 3.42 0 011.257-1.105c.544-.283 1.162-.425 1.853-.425a4.074 4.074 0 013.723 2.295c.386.725.578 1.57.578 2.533 0 .963-.192 1.819-.578 2.567-.374.737-.889 1.309-1.547 1.717a3.989 3.989 0 01-2.176.612c-.702 0-1.32-.136-1.853-.408a3.683 3.683 0 01-1.258-1.088V24h-2.38V11.42h2.38v4.539zm4.98 3.298c0-.567-.119-1.054-.357-1.462a2.318 2.318 0 00-.918-.952 2.409 2.409 0 00-1.224-.323c-.43 0-.838.113-1.224.34-.374.215-.68.533-.918.952-.226.42-.34.912-.34 1.479 0 .567.114 1.06.34 1.479.238.42.544.742.918.969.386.215.794.323 1.224.323.442 0 .85-.113 1.224-.34.386-.227.692-.55.918-.969.238-.42.357-.918.357-1.496zm12.406-.17c0 .34-.023.646-.068.918h-6.885c.056.68.294 1.213.714 1.598.419.385.935.578 1.547.578.884 0 1.513-.38 1.887-1.139h2.567a4.337 4.337 0 01-1.564 2.244c-.771.578-1.717.867-2.839.867-.907 0-1.723-.198-2.448-.595a4.379 4.379 0 01-1.683-1.717c-.397-.737-.595-1.587-.595-2.55 0-.975.198-1.83.595-2.567a4.148 4.148 0 011.666-1.7c.714-.397 1.535-.595 2.465-.595.895 0 1.694.193 2.397.578a3.991 3.991 0 011.649 1.649c.396.703.595 1.513.595 2.431zm-2.465-.68c-.012-.612-.233-1.1-.663-1.462-.431-.374-.958-.561-1.581-.561-.59 0-1.088.181-1.496.544-.397.351-.641.844-.731 1.479h4.471zm15.886-2.601a3.64 3.64 0 01-.459 1.785c-.295.555-.765 1.003-1.411 1.343-.635.34-1.44.51-2.414.51h-1.989V24h-2.38V12.134h4.369c.918 0 1.7.159 2.346.476.646.317 1.127.754 1.445 1.309.328.555.493 1.184.493 1.887zm-4.386 1.717c.657 0 1.144-.147 1.462-.442.317-.306.476-.731.476-1.275 0-1.156-.646-1.734-1.938-1.734h-1.887v3.451h1.887zm10.869-3.077c.714 0 1.349.159 1.904.476.556.306.986.765 1.292 1.377.318.6.476 1.326.476 2.176V24h-2.38v-5.202c0-.748-.187-1.32-.561-1.717-.374-.408-.884-.612-1.53-.612-.657 0-1.178.204-1.564.612-.374.397-.561.969-.561 1.717V24h-2.38V11.42h2.38v4.335a3.035 3.035 0 011.224-.952 3.972 3.972 0 011.7-.357zm9.608 9.707c-.907 0-1.723-.198-2.448-.595a4.457 4.457 0 01-1.717-1.717c-.408-.737-.612-1.587-.612-2.55 0-.963.209-1.813.629-2.55a4.422 4.422 0 011.751-1.7c.736-.408 1.558-.612 2.465-.612.906 0 1.728.204 2.465.612a4.323 4.323 0 011.734 1.7c.43.737.646 1.587.646 2.55 0 .963-.221 1.813-.663 2.55a4.52 4.52 0 01-1.768 1.717c-.737.397-1.564.595-2.482.595zm0-2.074c.43 0 .833-.102 1.207-.306a2.33 2.33 0 00.918-.952c.226-.42.34-.93.34-1.53 0-.895-.238-1.581-.714-2.057a2.28 2.28 0 00-1.717-.731c-.68 0-1.253.244-1.717.731-.454.476-.68 1.162-.68 2.057s.221 1.587.663 2.074c.453.476 1.02.714 1.7.714zm8.92-5.542v4.556c0 .317.073.55.221.697.158.136.419.204.782.204h1.105V24h-1.496c-2.006 0-3.009-.975-3.009-2.924v-4.539h-1.122v-1.955h1.122v-2.329h2.397v2.329h2.108v1.955h-2.108zm7.491 7.616c-.906 0-1.722-.198-2.448-.595a4.47 4.47 0 01-1.717-1.717c-.408-.737-.612-1.587-.612-2.55 0-.963.21-1.813.629-2.55a4.435 4.435 0 011.751-1.7c.737-.408 1.559-.612 2.465-.612.907 0 1.729.204 2.465.612a4.31 4.31 0 011.734 1.7c.431.737.646 1.587.646 2.55 0 .963-.221 1.813-.663 2.55a4.513 4.513 0 01-1.768 1.717c-.736.397-1.564.595-2.482.595zm0-2.074a2.48 2.48 0 001.207-.306c.386-.215.692-.533.918-.952.227-.42.34-.93.34-1.53 0-.895-.238-1.581-.714-2.057a2.278 2.278 0 00-1.717-.731 2.28 2.28 0 00-1.717.731c-.453.476-.68 1.162-.68 2.057s.221 1.587.663 2.074c.454.476 1.02.714 1.7.714zm9.753 2.074c-.77 0-1.462-.136-2.074-.408-.612-.283-1.099-.663-1.462-1.139a2.9 2.9 0 01-.578-1.581h2.397c.046.363.221.663.527.901.318.238.709.357 1.173.357.454 0 .805-.09 1.054-.272.261-.181.391-.414.391-.697 0-.306-.158-.533-.476-.68-.306-.159-.799-.329-1.479-.51a13.14 13.14 0 01-1.734-.527 3.084 3.084 0 01-1.156-.833c-.317-.374-.476-.878-.476-1.513 0-.521.148-.997.442-1.428.306-.43.737-.77 1.292-1.02.567-.25 1.23-.374 1.989-.374 1.122 0 2.018.283 2.686.85.669.555 1.037 1.309 1.105 2.261h-2.278a1.193 1.193 0 00-.476-.884c-.272-.227-.64-.34-1.105-.34-.43 0-.765.08-1.003.238a.766.766 0 00-.34.663c0 .317.159.561.476.731.318.159.811.323 1.479.493.68.17 1.241.346 1.683.527a2.87 2.87 0 011.139.85c.329.374.499.873.51 1.496 0 .544-.153 1.031-.459 1.462-.294.43-.725.77-1.292 1.02-.555.238-1.207.357-1.955.357zm10.454-9.707c.714 0 1.349.159 1.904.476.555.306.986.765 1.292 1.377.317.6.476 1.326.476 2.176V24h-2.38v-5.202c0-.748-.187-1.32-.561-1.717-.374-.408-.884-.612-1.53-.612-.657 0-1.179.204-1.564.612-.374.397-.561.969-.561 1.717V24h-2.38V11.42h2.38v4.335a3.035 3.035 0 011.224-.952 3.972 3.972 0 011.7-.357zm9.607 9.707c-.907 0-1.723-.198-2.448-.595a4.463 4.463 0 01-1.717-1.717c-.408-.737-.612-1.587-.612-2.55 0-.963.21-1.813.629-2.55a4.429 4.429 0 011.751-1.7c.737-.408 1.558-.612 2.465-.612.907 0 1.728.204 2.465.612a4.31 4.31 0 011.734 1.7c.431.737.646 1.587.646 2.55 0 .963-.221 1.813-.663 2.55a4.52 4.52 0 01-1.768 1.717c-.737.397-1.564.595-2.482.595zm0-2.074a2.48 2.48 0 001.207-.306 2.33 2.33 0 00.918-.952c.227-.42.34-.93.34-1.53 0-.895-.238-1.581-.714-2.057a2.28 2.28 0 00-1.717-.731 2.28 2.28 0 00-1.717.731c-.453.476-.68 1.162-.68 2.057s.221 1.587.663 2.074c.453.476 1.02.714 1.7.714zm8.529-6.137c.306-.43.725-.788 1.258-1.071.544-.295 1.162-.442 1.853-.442a4.074 4.074 0 013.723 2.295c.385.725.578 1.57.578 2.533 0 .963-.193 1.819-.578 2.567-.374.737-.89 1.309-1.547 1.717a3.989 3.989 0 01-2.176.612c-.691 0-1.303-.142-1.836-.425a3.952 3.952 0 01-1.275-1.071v5.831h-2.38V14.582h2.38v1.36zm4.981 3.315c0-.567-.119-1.054-.357-1.462a2.33 2.33 0 00-.918-.952 2.41 2.41 0 00-1.224-.323c-.431 0-.839.113-1.224.34-.374.215-.68.533-.918.952-.227.42-.34.912-.34 1.479 0 .567.113 1.06.34 1.479.238.42.544.742.918.969a2.47 2.47 0 001.224.323c.442 0 .85-.113 1.224-.34.385-.227.691-.55.918-.969.238-.42.357-.918.357-1.496z" fill="#fff"/></svg>