<svg width="30" height="30" fill="none" xmlns="http://www.w3.org/2000/svg"><g clip-path="url(#clip0_507_584)"><path d="M0 0h30v30H0V0z" fill="#F7DF1E"/><path d="M7.888 25.07l2.296-1.39c.443.786.845 1.45 1.812 1.45.926 0 1.51-.362 1.51-1.771v-9.586h2.82v9.625c0 2.92-1.712 4.25-4.21 4.25-2.255 0-3.564-1.168-4.228-2.578m9.969-.302l2.296-1.329c.604.987 1.39 1.712 2.779 1.712 1.168 0 1.913-.584 1.913-1.39 0-.966-.765-1.309-2.054-1.872l-.705-.303c-2.034-.865-3.383-1.953-3.383-4.249 0-2.114 1.611-3.725 4.128-3.725 1.793 0 3.082.624 4.008 2.255l-2.195 1.41c-.484-.866-1.007-1.208-1.813-1.208-.825 0-1.349.523-1.349 1.208 0 .846.524 1.188 1.732 1.712l.705.302c2.396 1.027 3.745 2.074 3.745 4.43 0 2.537-1.993 3.927-4.672 3.927-2.617 0-4.31-1.249-5.135-2.88z" fill="#000"/></g><defs><clipPath id="clip0_507_584"><path fill="#fff" d="M0 0h30v30H0z"/></clipPath></defs></svg>