<svg width="136" height="40" fill="none" xmlns="http://www.w3.org/2000/svg"><path d="M48.156 16.156c0-3.799-1.083-5.75-3.25-5.857a6.104 6.104 0 00-2.523.415c-.653.234-1.093.465-1.324.699v9.068c1.385.87 2.616 1.273 3.688 1.21 2.271-.15 3.407-1.993 3.407-5.536h.002zm2.671.157c0 1.93-.452 3.533-1.362 4.806-1.015 1.441-2.421 2.184-4.219 2.224-1.355.044-2.752-.38-4.187-1.271v8.24l-2.324-.828V11.192c.382-.468.872-.87 1.468-1.21 1.383-.807 3.065-1.221 5.042-1.242l.033.033c1.808-.023 3.201.72 4.18 2.225.912 1.381 1.37 3.152 1.37 5.314v.001zm14.208 5.41c0 2.588-.26 4.38-.778 5.379-.522.997-1.513 1.792-2.977 2.385-1.187.468-2.471.722-3.85.765l-.384-1.464c1.4-.191 2.388-.382 2.96-.572 1.127-.382 1.9-.967 2.325-1.75.34-.638.508-1.856.508-3.66v-.605a11.943 11.943 0 01-4.995 1.08c-1.145 0-2.154-.358-3.024-1.08-.976-.786-1.465-1.782-1.465-2.99V9.539l2.325-.795v9.735c0 1.04.335 1.841 1.007 2.403.67.562 1.54.831 2.606.811 1.065-.023 2.207-.435 3.42-1.24V9.091h2.324v12.63h-.002zm9.078 1.494a9.291 9.291 0 01-.765.033c-1.314 0-2.34-.312-3.07-.94-.73-.628-1.096-1.495-1.096-2.601v-9.154H67.59V9.093h1.592V5.21l2.321-.827v4.709h2.612v1.462h-2.612v9.091c0 .873.234 1.49.702 1.852.402.297 1.04.467 1.91.51v1.211l-.002-.002zm14.061-.19h-2.325v-8.971c0-.913-.213-1.699-.638-2.355-.49-.742-1.172-1.114-2.047-1.114-1.065 0-2.398.562-3.996 1.686v10.753h-2.324V1.583L79.168.85v9.767c1.485-1.08 3.107-1.622 4.87-1.622 1.231 0 2.228.415 2.99 1.241.765.826 1.147 1.856 1.147 3.086v9.702l-.001.003zm12.366-7.237c0-1.46-.278-2.663-.83-3.618-.656-1.162-1.675-1.774-3.054-1.838-2.548.147-3.82 1.973-3.82 5.473 0 1.604.265 2.945.8 4.02.68 1.37 1.703 2.047 3.067 2.024 2.558-.02 3.837-2.04 3.837-6.06zm2.545.016c0 2.077-.532 3.806-1.592 5.186-1.167 1.546-2.778 2.321-4.837 2.321-2.039 0-3.628-.775-4.776-2.321-1.04-1.381-1.559-3.11-1.559-5.186 0-1.953.562-3.595 1.686-4.933 1.188-1.42 2.75-2.131 4.677-2.131 1.93 0 3.501.712 4.712 2.13 1.124 1.338 1.685 2.98 1.685 4.934h.004zm13.315 7.221h-2.324v-9.48c0-1.04-.313-1.851-.938-2.436-.626-.582-1.46-.865-2.5-.842-1.103.02-2.153.382-3.151 1.081v11.677h-2.324V11.063c1.338-.974 2.568-1.61 3.691-1.907 1.061-.277 1.996-.414 2.802-.414.552 0 1.071.053 1.559.16.913.211 1.655.603 2.227 1.177.638.636.956 1.399.956 2.291v10.657h.002z" fill="#646464"/><path d="M15.785 1.669a19.95 19.95 0 00-3.341.285c-2.961.523-3.499 1.618-3.499 3.637v2.666h6.994v.889H6.321c-2.033 0-3.814 1.221-4.37 3.545-.642 2.663-.67 4.328 0 7.108.498 2.071 1.685 3.546 3.718 3.546h2.405v-3.196c0-2.309 1.997-4.346 4.37-4.346h6.985c1.945 0 3.499-1.601 3.499-3.553V5.59c0-1.896-1.6-3.318-3.499-3.637a21.87 21.87 0 00-3.644-.285v.001zm-3.782 2.144c.722 0 1.312.6 1.312 1.337 0 .735-.59 1.329-1.312 1.329A1.32 1.32 0 0110.69 5.15c0-.737.588-1.337 1.313-1.337z" fill="url(#paint0_linear_508_471)"/><path d="M23.8 9.143v3.107c0 2.409-2.042 4.435-4.37 4.435h-6.986c-1.914 0-3.499 1.638-3.499 3.553v6.66c0 1.896 1.649 3.01 3.499 3.553 2.214.651 4.338.77 6.986 0 1.76-.51 3.498-1.536 3.498-3.553v-2.666h-6.986v-.888h10.484c2.033 0 2.792-1.418 3.498-3.546.73-2.19.7-4.299 0-7.108-.502-2.024-1.462-3.545-3.498-3.545h-2.624l-.003-.002zm-3.93 16.868a1.32 1.32 0 011.313 1.33c0 .736-.587 1.336-1.313 1.336-.722 0-1.312-.6-1.312-1.337 0-.734.59-1.329 1.313-1.329z" fill="url(#paint1_linear_508_471)"/><path d="M120.939 7.02h.407V4.465h.966V4.16h-2.338v.305h.965V7.02zm1.734 0h.348V4.686l.755 2.334h.388l.787-2.326V7.02h.38V4.16h-.502l-.861 2.451-.733-2.45h-.562V7.02z" fill="#646464"/><path opacity=".444" d="M25.4 34.984c0 .482-.987.945-2.745 1.286-1.758.34-4.142.532-6.629.532-2.486 0-4.87-.191-6.628-.532s-2.746-.804-2.746-1.286.988-.944 2.746-1.285c1.758-.34 4.142-.532 6.628-.532 2.487 0 4.871.191 6.629.532 1.758.341 2.746.803 2.746 1.285z" fill="url(#paint2_radial_508_471)"/><defs><linearGradient id="paint0_linear_508_471" x1="1.459" y1="1.668" x2="17.593" y2="15.412" gradientUnits="userSpaceOnUse"><stop stop-color="#5A9FD4"/><stop offset="1" stop-color="#306998"/></linearGradient><linearGradient id="paint1_linear_508_471" x1="19.706" y1="27.125" x2="13.908" y2="19.014" gradientUnits="userSpaceOnUse"><stop stop-color="#FFD43B"/><stop offset="1" stop-color="#FFE873"/></linearGradient><radialGradient id="paint2_radial_508_471" cx="0" cy="0" r="1" gradientUnits="userSpaceOnUse" gradientTransform="matrix(0 -1.81767 7.99157 0 16.039 34.977)"><stop stop-color="#B8B8B8" stop-opacity=".498"/><stop offset="1" stop-color="#7F7F7F" stop-opacity="0"/></radialGradient></defs></svg>