<svg width="90" height="30" fill="none" xmlns="http://www.w3.org/2000/svg"><g clip-path="url(#clip0_451_2147)" fill-rule="evenodd" clip-rule="evenodd" fill="#fff"><path d="M70.519 28.332h-4.965V26.52c-.77.487-1.462 1.07-2.26 1.401-2.06.857-4.025.425-5.824-.775-2.156-1.438-3.39-3.552-4.056-5.987-.993-3.632-.724-7.176 1.102-10.516 1.134-2.074 2.702-3.74 5.06-4.402 2.035-.57 3.957-.269 5.644 1.094.037.03.082.072.145.103.08-.318.147-.66.245-.96.392-1.195 1.55-1.99 2.634-1.821 1.453.224 2.273 1.155 2.273 2.6.002 6.857.002 13.715.002 20.573v.503zm-4.727-11.43c-.027-.33-.048-.832-.114-1.33-.177-1.326-.544-2.585-1.427-3.636-1.178-1.404-2.98-1.552-4.349-.331a4.845 4.845 0 00-.889 1.08c-.985 1.614-1.276 3.393-1.145 5.253.111 1.578.476 3.077 1.514 4.33.598.723 1.348 1.21 2.313 1.26 1.227.065 1.986-.71 2.633-1.586 1.062-1.44 1.437-3.106 1.464-5.04zM13.616 5.157v5.069c.458-.735.815-1.415 1.271-2.02 1.596-2.116 4.056-2.82 6.233-1.76 1.942.946 2.876 2.608 2.893 4.704.047 5.632.016 16.898.016 16.898l.01.272H19.06c0-5.77.009-17.495.009-17.495l-.41.286-5.038 3.335-.008.481s.02 7.377-.015 11.065c-.006.56-.144 1.183-.42 1.662-.58 1.008-1.686 1.35-2.796 1.018-1.018-.305-1.732-1.265-1.743-2.389-.014-1.425-.004-2.85-.004-4.275 0-4.325-.008-12.975-.008-12.975v-.506l4.532-3.056.457-.314zM71.95 6.728h1.65l3.918-.013.248.504s1.742 3.47 2.616 5.203c.075.148.15.296.266.521.108-.203.19-.35.266-.5.898-1.778 2.7-5.33 2.7-5.33l.214-.367s3.695-.017 5.526-.017c-.103.219-.176.382-.256.541-1.565 3.11-4.707 9.323-4.707 9.323l-.228.46s2.826 5.57 4.103 8.133c.795 1.596-.092 3.334-1.832 3.635-1.031.178-2.087-.38-2.606-1.402-.979-1.924-1.948-3.852-2.922-5.778-.074-.147-.155-.291-.268-.503-1.363 2.701-2.697 5.343-4.06 8.047l-4.42-2.235c.082-.182.15-.344.228-.5 1.505-2.99 4.738-9.386 4.738-9.386l-.205-.46s-3.142-6.213-4.707-9.323c-.081-.16-.155-.324-.263-.553zM38.972 8.074l-1.86 4.193c-.914-.437-1.758-.928-2.664-1.24a4.07 4.07 0 00-1.87-.163 1.677 1.677 0 00-1.02 2.804c.431.488 1.014.885 1.6 1.184 1.026.526 2.122.913 3.16 1.415 2.218 1.073 3.232 2.937 3.35 5.325.188 3.84-1.939 6.562-5.744 7.115-3.006.436-5.65-.468-7.712-2.773-.663-.74-.954-1.619-.586-2.607.342-.918 1.042-1.407 1.992-1.562.656-.108 1.211.1 1.717.524.54.45 1.08.912 1.674 1.28.774.48 1.623.722 2.541.391.735-.265 1.25-.753 1.363-1.533.108-.74-.108-1.45-.763-1.85a12.21 12.21 0 00-2.253-1.067c-1.225-.435-2.425-.896-3.41-1.77-2.968-2.632-2.887-7.451.142-10.043 1.925-1.646 4.133-1.944 6.519-1.428 1.392.3 2.681.837 3.824 1.805zm5.04 3.181c-.688 0-1.307.003-1.926 0-1.207-.007-2.173-.904-2.192-2.032-.019-1.075.94-2.012 2.124-2.052.636-.02 1.274-.003 1.994-.003l.002-1.759.014-1.828 1.468-.978 3.206-2.17.5-.315v7.048l2.802.003.114.457.826 3.619h-3.699V29.91s-.297-.199-.394-.267c-1.519-1.075-4.832-3.4-4.832-3.4l-.008-.503.001-13.825v-.66zM5.303 28.339H.102l.002-.489S.1 15.614.105 9.497c.001-1.318.736-2.333 1.89-2.661 1.675-.476 3.3.749 3.305 2.512.01 3.033.003 6.067.003 9.1v9.891zM.666 2.136c0-1.127.913-2.045 2.036-2.047A2.048 2.048 0 014.746 2.13a2.064 2.064 0 01-2.038 2.053c-1.11.004-2.042-.93-2.042-2.047z"/></g><defs><clipPath id="clip0_451_2147"><path fill="#fff" d="M0 0h89.454v30H0z"/></clipPath></defs></svg>