<svg width="80" height="40" fill="none" xmlns="http://www.w3.org/2000/svg"><path d="M11.97 28.375s-1.177.716.82.922c2.4.306 3.688.256 6.35-.256 0 0 .717.46 1.69.82-5.991 2.56-13.57-.154-8.858-1.485l-.001-.001zm-.767-3.328s-1.28.973.716 1.178c2.612.256 4.667.306 8.194-.41 0 0 .46.512 1.229.768-7.22 2.151-15.311.205-10.14-1.536zm14.133 5.837s.87.717-.973 1.28c-3.43 1.024-14.389 1.331-17.461 0-1.076-.46.973-1.133 1.638-1.229.667-.153 1.024-.153 1.024-.153-1.177-.82-7.834 1.69-3.38 2.4 12.238 1.997 22.325-.87 19.15-2.304l.002.006zm-12.802-9.32s-5.582 1.332-1.998 1.793c1.536.204 4.558.153 7.374-.052 2.303-.204 4.608-.614 4.608-.614s-.82.358-1.383.716c-5.684 1.485-16.59.82-13.466-.716 2.663-1.28 4.865-1.134 4.865-1.134v.008zm9.985 5.582c5.735-2.97 3.072-5.837 1.229-5.479-.46.103-.667.205-.667.205s.153-.307.512-.41c3.635-1.28 6.503 3.84-1.178 5.838 0 0 .051-.051.102-.153l.002-.001zm-9.421 8.09c5.53.359 13.98-.205 14.184-2.816 0 0-.41 1.024-4.558 1.792-4.71.87-10.548.768-13.98.205 0 0 .717.614 4.354.82v-.001z" fill="#4E7896"/><path d="M19.037 4.667s3.174 3.226-3.022 8.09c-4.966 3.943-1.133 6.196 0 8.756-2.918-2.611-5.018-4.915-3.584-7.066 2.1-3.175 7.885-4.711 6.605-9.78zm-1.639 14.696c1.485 1.69-.41 3.226-.41 3.226s3.79-1.946 2.048-4.353c-1.587-2.304-2.816-3.43 3.84-7.271 0 0-10.497 2.611-5.479 8.397h.001z" fill="#F58219"/><path d="M50.212 25.441v-7.784c0-1.987-1.112-3.336-3.892-3.336-1.588 0-2.94.397-4.13.873l.397 1.43c.873-.318 1.987-.635 3.177-.635 1.51 0 2.224.635 2.224 1.906v1.034H47.2c-3.813 0-5.56 1.43-5.56 3.733 0 1.907 1.192 3.019 3.336 3.019 1.351 0 2.384-.636 3.336-1.43l.16 1.191h1.746-.006zM47.987 22.9c-.793.715-1.668 1.112-2.463 1.112-1.033 0-1.668-.635-1.668-1.747 0-1.111.636-1.906 3.178-1.906h.953V22.9zm9.69 2.542h-2.78L51.563 14.56h2.384l2.065 6.673.477 1.987c1.033-2.86 1.826-5.799 2.144-8.658h2.383c-.635 3.575-1.747 7.467-3.336 10.882l-.001-.002zm12.869 0v-7.785c0-1.987-1.112-3.336-3.894-3.336-1.588 0-2.938.397-4.13.873l.318 1.43c.953-.318 2.065-.635 3.256-.635 1.51 0 2.224.635 2.224 1.906v1.034h-.793c-3.813 0-5.56 1.43-5.56 3.733 0 1.907 1.112 3.019 3.257 3.019 1.43 0 2.462-.636 3.415-1.43l.159 1.191h1.748zM68.322 22.9c-.794.715-1.668 1.112-2.463 1.112-1.033 0-1.668-.635-1.668-1.747 0-1.111.635-1.906 3.177-1.906h.954V22.9zM39.17 27.269c-.636.953-1.589 1.668-2.78 2.065l-1.034-1.27c.795-.477 1.59-1.192 1.907-1.827.318-.556.397-1.351.397-3.178V10.667h2.384V22.9c0 2.463-.239 3.415-.874 4.369z" fill="#4E7896"/></svg>