<svg width="242" height="30" fill="none" xmlns="http://www.w3.org/2000/svg"><path d="M16.238 19.424H7.183l-1.85 5.745a.426.426 0 01-.462.34H.294c-.267 0-.34-.146-.267-.438L7.864 2.604c.074-.243.147-.462.244-.754A8.503 8.503 0 008.254.268.243.243 0 018.449 0h6.304c.17 0 .292.073.316.195l8.885 24.95c.073.267 0 .389-.244.389h-5.087a.367.367 0 01-.39-.268l-1.995-5.842zM8.595 14.58h6.182a33.72 33.72 0 00-.56-1.752 54.674 54.674 0 01-.657-2.094c-.219-.73-.462-1.484-.706-2.239a52.596 52.596 0 01-.657-2.166c-.194-.706-.365-1.315-.535-1.899h-.049a29.863 29.863 0 01-.828 3.14c-.365 1.168-.73 2.385-1.12 3.602-.316 1.242-.705 2.386-1.07 3.408zm29.795 2.605h-7.716c.092.768.35 1.507.755 2.166a3.86 3.86 0 001.776 1.46 7.58 7.58 0 003.116.61 14.65 14.65 0 002.532-.269 9.139 9.139 0 002.166-.56c.122-.097.195-.048.195.195v3.724c-.005.1-.021.198-.05.293a.57.57 0 01-.17.17c-.778.342-1.596.587-2.434.73a16.438 16.438 0 01-3.456.292c-1.85 0-3.408-.292-4.674-.852a8.195 8.195 0 01-3.067-2.312 8.934 8.934 0 01-1.679-3.189 12.61 12.61 0 01.097-7.424 9.934 9.934 0 011.826-3.335 8.822 8.822 0 012.945-2.312c1.144-.56 2.507-.755 4.065-.755a8.792 8.792 0 013.773.755 6.703 6.703 0 012.556 1.947 8.912 8.912 0 011.46 2.775c.31.96.466 1.962.463 2.97 0 .584-.025 1.095-.049 1.558-.024.462-.073.803-.097 1.022a.362.362 0 01-.341.316c-.146 0-.414.025-.803.05-.469.052-.94.077-1.412.072-.56 0-1.144-.097-1.777-.097zm-7.716-3.554h5.136c.633 0 1.095 0 1.387-.024.2-.017.393-.084.56-.195v-.244a2.782 2.782 0 00-.146-.9 3.223 3.223 0 00-3.164-2.24 3.427 3.427 0 00-3.238 1.85 5.045 5.045 0 00-.535 1.753z" fill="#99F"/><path d="M67.449 20.739h-4.726L61.941 23h-2.499l4.267-11.883h2.771L70.747 23h-2.516l-.782-2.261zm-.646-1.904l-1.717-4.964-1.717 4.964h3.434zm4.417-.578c0-.952.187-1.796.56-2.533.386-.737.908-1.303 1.565-1.7a4.163 4.163 0 012.193-.595c.612 0 1.196.136 1.75.408.556.26.998.612 1.327 1.054V10.42h2.414V23h-2.414v-1.394a3.224 3.224 0 01-1.241 1.122c-.533.283-1.15.425-1.853.425a4.045 4.045 0 01-2.176-.612c-.657-.408-1.179-.98-1.564-1.717-.374-.748-.561-1.604-.561-2.567zm7.412.034c0-.578-.113-1.071-.34-1.479a2.325 2.325 0 00-.918-.952 2.406 2.406 0 00-1.241-.34c-.442 0-.85.108-1.224.323-.374.215-.68.533-.918.952-.227.408-.34.895-.34 1.462s.113 1.065.34 1.496c.238.42.544.742.918.969.385.227.793.34 1.224.34a2.5 2.5 0 001.24-.323c.386-.227.692-.544.919-.952.227-.42.34-.918.34-1.496zm8.393 4.862c-.906 0-1.722-.198-2.448-.595a4.464 4.464 0 01-1.717-1.717c-.408-.737-.612-1.587-.612-2.55 0-.963.21-1.813.63-2.55a4.43 4.43 0 011.75-1.7c.737-.408 1.559-.612 2.465-.612.907 0 1.729.204 2.465.612a4.314 4.314 0 011.734 1.7c.431.737.646 1.587.646 2.55 0 .963-.22 1.813-.663 2.55a4.517 4.517 0 01-1.768 1.717c-.736.397-1.564.595-2.482.595zm0-2.074a2.48 2.48 0 001.207-.306c.386-.215.692-.533.918-.952.227-.42.34-.93.34-1.53 0-.895-.238-1.581-.714-2.057a2.279 2.279 0 00-1.717-.731 2.28 2.28 0 00-1.717.731c-.453.476-.68 1.162-.68 2.057s.221 1.587.663 2.074c.454.476 1.02.714 1.7.714zm8.53-6.12a3.42 3.42 0 011.257-1.105c.544-.283 1.162-.425 1.853-.425a4.074 4.074 0 013.723 2.295c.386.725.578 1.57.578 2.533 0 .963-.192 1.819-.578 2.567-.374.737-.889 1.309-1.547 1.717a3.989 3.989 0 01-2.176.612c-.702 0-1.32-.136-1.853-.408a3.683 3.683 0 01-1.258-1.088V23h-2.38V10.42h2.38v4.539zm4.98 3.298c0-.567-.119-1.054-.357-1.462a2.324 2.324 0 00-.918-.952 2.41 2.41 0 00-1.224-.323c-.43 0-.838.113-1.224.34-.374.215-.68.533-.918.952-.226.42-.34.912-.34 1.479 0 .567.114 1.06.34 1.479.238.42.544.742.918.969.386.215.794.323 1.224.323.442 0 .85-.113 1.224-.34.386-.227.692-.55.918-.969.238-.42.357-.918.357-1.496zm12.406-.17c0 .34-.023.646-.068.918h-6.885c.056.68.294 1.213.714 1.598.419.385.935.578 1.547.578.884 0 1.513-.38 1.887-1.139h2.567a4.337 4.337 0 01-1.564 2.244c-.771.578-1.717.867-2.839.867-.907 0-1.723-.198-2.448-.595a4.379 4.379 0 01-1.683-1.717c-.397-.737-.595-1.587-.595-2.55 0-.975.198-1.83.595-2.567a4.148 4.148 0 011.666-1.7c.714-.397 1.535-.595 2.465-.595.895 0 1.694.193 2.397.578a3.991 3.991 0 011.649 1.649c.396.703.595 1.513.595 2.431zm-2.465-.68c-.012-.612-.233-1.1-.663-1.462-.431-.374-.958-.561-1.581-.561-.59 0-1.088.181-1.496.544-.397.351-.641.844-.731 1.479h4.471zm14.509 3.332h-4.726L119.477 23h-2.499l4.267-11.883h2.771L128.283 23h-2.516l-.782-2.261zm-.646-1.904l-1.717-4.964-1.717 4.964h3.434zm9.347-3.298h-1.649V23h-2.414v-7.463h-1.071v-1.955h1.071v-.476c0-1.156.328-2.006.986-2.55.657-.544 1.649-.799 2.975-.765v2.006c-.578-.011-.981.085-1.207.289-.227.204-.34.572-.34 1.105v.391h1.649v1.955zm3.803 0v4.556c0 .317.074.55.221.697.159.136.419.204.782.204h1.105V23h-1.496c-2.006 0-3.009-.975-3.009-2.924v-4.539h-1.122v-1.955h1.122v-2.329h2.397v2.329h2.108v1.955h-2.108zm12.065 2.55c0 .34-.023.646-.068.918h-6.885c.056.68.294 1.213.714 1.598.419.385.935.578 1.547.578.884 0 1.513-.38 1.887-1.139h2.567a4.337 4.337 0 01-1.564 2.244c-.771.578-1.717.867-2.839.867-.907 0-1.723-.198-2.448-.595a4.379 4.379 0 01-1.683-1.717c-.397-.737-.595-1.587-.595-2.55 0-.975.198-1.83.595-2.567a4.148 4.148 0 011.666-1.7c.714-.397 1.535-.595 2.465-.595.895 0 1.694.193 2.397.578a3.991 3.991 0 011.649 1.649c.396.703.595 1.513.595 2.431zm-2.465-.68c-.012-.612-.233-1.1-.663-1.462-.431-.374-.958-.561-1.581-.561-.59 0-1.088.181-1.496.544-.397.351-.641.844-.731 1.479h4.471zm6.072-2.363a3.37 3.37 0 011.19-1.173c.499-.283 1.065-.425 1.7-.425v2.499h-.629c-.748 0-1.315.176-1.7.527-.374.351-.561.963-.561 1.836V23h-2.38v-9.418h2.38v1.462zm9.904-1.989v2.975h3.995v1.887h-3.995v3.145h4.505V23h-6.885V11.117h6.885v1.938h-4.505zm10.476 2.482h-1.649V23h-2.414v-7.463h-1.071v-1.955h1.071v-.476c0-1.156.328-2.006.986-2.55.657-.544 1.649-.799 2.975-.765v2.006c-.578-.011-.981.085-1.207.289-.227.204-.34.572-.34 1.105v.391h1.649v1.955zm5.35 0h-1.649V23h-2.414v-7.463h-1.071v-1.955h1.071v-.476c0-1.156.329-2.006.986-2.55s1.649-.799 2.975-.765v2.006c-.578-.011-.98.085-1.207.289-.227.204-.34.572-.34 1.105v.391h1.649v1.955zm9.787 2.55c0 .34-.022.646-.068.918h-6.885c.057.68.295 1.213.714 1.598.42.385.935.578 1.547.578.884 0 1.513-.38 1.887-1.139h2.567a4.331 4.331 0 01-1.564 2.244c-.77.578-1.717.867-2.839.867-.906 0-1.722-.198-2.448-.595a4.379 4.379 0 01-1.683-1.717c-.396-.737-.595-1.587-.595-2.55 0-.975.199-1.83.595-2.567a4.154 4.154 0 011.666-1.7c.714-.397 1.536-.595 2.465-.595.896 0 1.695.193 2.397.578a3.985 3.985 0 011.649 1.649c.397.703.595 1.513.595 2.431zm-2.465-.68c-.011-.612-.232-1.1-.663-1.462-.43-.374-.957-.561-1.581-.561-.589 0-1.088.181-1.496.544-.396.351-.64.844-.731 1.479h4.471zm3.081.884c0-.975.198-1.825.595-2.55a4.176 4.176 0 011.649-1.7c.702-.408 1.507-.612 2.414-.612 1.167 0 2.13.295 2.89.884.77.578 1.286 1.394 1.547 2.448h-2.567a1.82 1.82 0 00-.697-.952c-.318-.238-.714-.357-1.19-.357-.68 0-1.219.25-1.615.748-.397.487-.595 1.184-.595 2.091 0 .895.198 1.592.595 2.091.396.487.935.731 1.615.731.963 0 1.592-.43 1.887-1.292h2.567c-.261 1.02-.777 1.83-1.547 2.431-.771.6-1.734.901-2.89.901-.907 0-1.712-.198-2.414-.595a4.32 4.32 0 01-1.649-1.7c-.397-.737-.595-1.592-.595-2.567zm13.099-2.754v4.556c0 .317.074.55.221.697.159.136.419.204.782.204h1.105V23h-1.496c-2.006 0-3.009-.975-3.009-2.924v-4.539h-1.122v-1.955h1.122v-2.329h2.397v2.329h2.108v1.955h-2.108zm6.914 7.616c-.771 0-1.462-.136-2.074-.408-.612-.283-1.099-.663-1.462-1.139a2.9 2.9 0 01-.578-1.581h2.397c.045.363.221.663.527.901.317.238.708.357 1.173.357.453 0 .805-.09 1.054-.272.261-.181.391-.414.391-.697 0-.306-.159-.533-.476-.68-.306-.159-.799-.329-1.479-.51a13.001 13.001 0 01-1.734-.527 3.084 3.084 0 01-1.156-.833c-.317-.374-.476-.878-.476-1.513 0-.521.147-.997.442-1.428.306-.43.737-.77 1.292-1.02.567-.25 1.23-.374 1.989-.374 1.122 0 2.017.283 2.686.85.669.555 1.037 1.309 1.105 2.261h-2.278a1.196 1.196 0 00-.476-.884c-.272-.227-.64-.34-1.105-.34-.431 0-.765.08-1.003.238a.763.763 0 00-.34.663c0 .317.159.561.476.731.317.159.81.323 1.479.493.68.17 1.241.346 1.683.527a2.87 2.87 0 011.139.85c.329.374.499.873.51 1.496 0 .544-.153 1.031-.459 1.462-.295.43-.725.77-1.292 1.02-.555.238-1.207.357-1.955.357z" fill="#fff"/></svg>