<svg width="87" height="30" fill="none" xmlns="http://www.w3.org/2000/svg"><path fill-rule="evenodd" clip-rule="evenodd" d="M6.53 14.688c-.015 2.733 1.989 4.362 5.186 3.621v-7.241c-3.238-.986-5.173 1.008-5.187 3.62zM11.813.596h4.404v20.845c-4.221.69-8.264 1.128-11.156-.49-3.724-2.082-4.024-8.698-1.077-11.645 1.494-1.494 4.502-2.546 7.731-1.86V.89c-.008-.139-.016-.277.098-.294zm11.549 4.6h-4.404v-4.6h4.404v4.6zm52.844 13.309c4.801 1.866 5.332-8.593.49-7.633-3.007.596-2.91 6.692-.49 7.633zm.196-11.254c3.666-.392 6.432 1.226 7.536 3.719 1.882 4.253-.104 9.134-3.132 10.569-1.57.743-3.213.814-4.697.685-4.59-.4-7.483-5.077-5.872-10.276a7.06 7.06 0 01.685-1.566c.998-1.696 2.682-2.832 5.48-3.131zm-46.972 9.59c-1.219 2.047 1.842 2.538 3.816 1.958v-3.034c-1.517.212-3.244.113-3.817 1.076zm7.73 4.796c-3.637.209-9.166 1.448-11.156-.98-1.169-1.425-1.043-4.145 0-5.48 1.349-1.723 4.292-2.1 6.948-2.348.242-.594.079-1.56-.195-1.957-2.43-.62-4.844.34-6.557 1.076V8.523c2.587-1.189 8.58-2.44 10.373.294.942 1.435.587 3.94.587 6.165v6.655zm15.463.195h-4.404v-5.676c0-1.869.302-4.238-.686-4.99-.773-.59-2.608-.294-3.718 0v10.666h-4.404V8.23c4.502-1.17 12.628-2.424 13.212 3.229.287 2.787-.214 6.968 0 10.373zm6.557-4.697c.74 1.199 2.747 1.648 4.403.88-.091-2.29-.123-4.64-.098-7.046-3.806-1.005-6.074 3.306-4.306 6.166zm11.058-9.297c-.392 1.174-.966 2.166-1.468 3.23-.454.101-.847-.18-1.077 0-.1 4.77 1.016 11.237-.88 14.679-1.142 2.072-3.245 3.401-6.46 3.62-2.341.16-4.158-.222-5.871-.88v-4.11c2.009 1.172 7.085 2.129 8.514-.294.42-.713.394-1.45.587-2.544-.92.048-1.813.474-2.936.489-4.615.061-7.47-3.614-6.36-8.71.428-1.971 1.583-3.558 3.13-4.501 3.215-1.96 8.155-1.81 12.82-.979z" fill="#fff"/><path fill-rule="evenodd" clip-rule="evenodd" d="M23.361 7.525c-.005 3.243-.004 5.573-.004 9.512-.188 3.872-.144 6.955-1.561 8.808-.28.365-.874.898-1.37 1.272-.418.314-1.213.95-1.664.978-.455.028-1.624-.631-2.153-.88-.695-.328-1.337-.762-2.055-.979 1.675-1.038 3.265-1.816 3.914-3.915.565-1.824.49-4.469.49-7.046 0-2.544.01-5.502.01-7.75h4.393z" fill="#fff"/></svg>