<svg width="112" height="30" fill="none" xmlns="http://www.w3.org/2000/svg"><g clip-path="url(#clip0_456_2488)" fill-rule="evenodd" clip-rule="evenodd"><path d="M56.319 0a.453.453 0 00-.449.449v11.44a.303.303 0 01-.15.27.312.312 0 01-.313 0l-1.87-1.078a.896.896 0 00-.897 0l-7.462 4.307a.919.919 0 00-.449.793v8.614c0 .321.17.616.449.777l7.462 4.307a.894.894 0 00.897 0L61 25.572a.896.896 0 00.448-.777V3.32a.912.912 0 00-.463-.793L56.543.045A.439.439 0 0056.32 0zM8.315 10.752a.843.843 0 00-.404.105L.449 15.164a.893.893 0 00-.449.778l.015 11.56c0 .16.083.31.224.388.139.083.31.083.449 0l4.426-2.542a.913.913 0 00.464-.778v-5.398c0-.322.17-.618.449-.778l1.884-1.091a.884.884 0 01.449-.12c.153 0 .311.038.448.12l1.885 1.091c.279.16.448.456.448.778v5.398c0 .322.185.613.464.778l4.426 2.542a.45.45 0 00.673-.389l.015-11.56a.89.89 0 00-.449-.777l-7.462-4.307a.837.837 0 00-.404-.105h-.09zm67.056.105a.892.892 0 00-.449.12l-7.462 4.307a.895.895 0 00-.449.777v8.614a.9.9 0 00.464.778l7.403 4.217a.898.898 0 00.882.015l4.486-2.498a.442.442 0 00.015-.778l-7.507-4.306a.483.483 0 01-.24-.404v-2.692c0-.16.1-.308.24-.389l2.333-1.346c.139-.08.31-.08.448 0l2.333 1.346c.14.08.225.228.225.39v2.123a.447.447 0 00.673.389l4.471-2.602a.899.899 0 00.449-.778v-2.08a.897.897 0 00-.449-.777l-7.417-4.307a.889.889 0 00-.449-.12zm-22.312 6.43c.039 0 .085.01.12.03l2.557 1.48c.069.04.12.115.12.195v2.961a.23.23 0 01-.12.195l-2.558 1.48a.226.226 0 01-.224 0l-2.557-1.48a.231.231 0 01-.12-.195v-2.96a.23.23 0 01.12-.195l2.557-1.48a.197.197 0 01.105-.03z" fill="#fff"/><path d="M97.728 10.648c-.259 0-.51.053-.733.18l-7.043 4.067a1.484 1.484 0 00-.733 1.286v8.12c0 .527.277 1.023.733 1.286l1.84 1.062c.893.44 1.222.434 1.63.434 1.322 0 2.078-.803 2.078-2.199V16.87c0-.113-.098-.195-.21-.195h-.882c-.113 0-.21.082-.21.195v8.015c0 .619-.643 1.241-1.689.718l-1.914-1.121c-.068-.037-.12-.102-.12-.18v-8.12a.24.24 0 01.12-.195l7.029-4.052a.207.207 0 01.209 0l7.028 4.053c.067.04.12.114.12.194v8.12a.225.225 0 01-.105.195l-7.043 4.052a.217.217 0 01-.21 0l-1.81-1.076a.188.188 0 00-.178 0 4.65 4.65 0 01-1.062.478c-.116.04-.291.103.06.3l2.362 1.39c.225.13.476.194.733.194.26 0 .508-.064.733-.194l7.044-4.053c.455-.265.732-.759.732-1.286v-8.12c0-.528-.277-1.023-.732-1.286l-7.044-4.068a1.468 1.468 0 00-.733-.18zm-66.996.164c-.156 0-.31.04-.449.12l-7.462 4.292a.919.919 0 00-.449.792v8.614c0 .322.17.617.449.778l7.462 4.307a.893.893 0 00.897 0l7.463-4.307a.895.895 0 00.448-.778v-8.614a.918.918 0 00-.448-.792l-7.463-4.292a.893.893 0 00-.448-.12zm77.449.045v.21h.584v1.54h.239v-1.54h.598v-.21h-1.421zm1.63 0v1.75h.225v-1.032c0-.042.002-.107 0-.194-.003-.09 0-.167 0-.21v-.045l.493 1.48h.24l.508-1.48c0 .094-.013.185-.015.27v1.211h.224v-1.75h-.329l-.508 1.48-.494-1.48h-.344zM99.612 16.45c-2.005 0-3.2.854-3.2 2.273 0 1.54 1.186 1.963 3.11 2.154 2.304.225 2.483.563 2.483 1.017 0 .786-.627 1.121-2.108 1.121-1.862 0-2.271-.465-2.408-1.39-.016-.1-.093-.18-.195-.18h-.912a.213.213 0 00-.21.21c0 1.185.646 2.586 3.725 2.586 2.228 0 3.514-.874 3.514-2.407 0-1.52-1.039-1.928-3.2-2.213-2.185-.29-2.393-.431-2.393-.943 0-.422.176-.987 1.794-.987 1.446 0 1.98.312 2.199 1.287.019.091.1.164.194.164h.912a.218.218 0 00.15-.075c.038-.043.065-.091.06-.15-.141-1.678-1.261-2.467-3.515-2.467zM75.356 18.5c-.03 0-.063 0-.09.015l-1.435.837a.175.175 0 00-.09.15v1.645c0 .062.036.119.09.15l1.435.822a.157.157 0 00.165 0l1.436-.823a.176.176 0 00.09-.15v-1.644a.176.176 0 00-.09-.15l-1.436-.837c-.027-.016-.045-.015-.075-.015z" fill="#83CD29"/></g><defs><clipPath id="clip0_456_2488"><path fill="#fff" d="M0 0h111.486v30H0z"/></clipPath></defs></svg>