<svg width="115" height="30" fill="none" xmlns="http://www.w3.org/2000/svg"><g clip-path="url(#clip0_454_2405)" fill="#fff"><path d="M44.105.032v7.502h2.577V2.963h1.995l2.17 2.17v2.401h2.29V3.196L49.206.058l-5.1-.026zm10.324 0v7.502l2.053 2.053V6.365h3.079l-1.466-1.47H56.54V2.607h3.021L62.069.106l-7.64-.074zm6.931 2.693L63.782 0h9.296l-2.746 2.683H67.74l-.058 4.851h-2.54L65.1 2.667l-3.74.058zM0 7.534v4.778l4.64 4.64v-4.709L0 7.534zm0 6.704V25.36L5.17 30V18.942L0 14.238zm7.915-1.995v1.995l6.89 6.889H6.861l4.19 4.19H23.18v-2.492l-6.312-6.312h4.2l2.101 2.095v-6.365H7.915zM24.81 7.984v17.334h10.613l4.212-4.212v-5.73l-6.037 6.031H29.56v-9.164l-4.75-4.259zm15.365 14.603l11.143-10.344h6.93v13.074H44.985l4.561-4.031h4.413V16.65h-1L40.175 28.333v-5.746zm19.529-10.344v13.275h4.339v-8.867h3.756l4.111 4.11v4.758h4.805v-6.741l-6.64-6.64-10.37.105z"/><path d="M73.783 12.243l4.344 4.344H89.44l2.503 2.503v2.148h-9.08l3.72-3.72h-6.29l-2.096 2.096v5.904h16.99l1.147-1.142v-7.302l-4.825-4.825-17.725-.006zm25.682-.444v1.99l6.884 6.888h-7.942l4.191 4.196h12.127v-2.497l-6.312-6.313h4.201l2.1 2.101v-6.365H99.465z"/></g><defs><clipPath id="clip0_454_2405"><path fill="#fff" d="M0 0h114.725v30H0z"/></clipPath></defs></svg>