<svg width="81" height="30" fill="none" xmlns="http://www.w3.org/2000/svg"><g clip-path="url(#clip0_457_2521)" fill="#00ACD7"><path d="M6.063 9.074c-.157 0-.196-.078-.118-.195l.822-1.056c.078-.118.274-.196.43-.196H21.16c.157 0 .196.117.118.235l-.665 1.017c-.078.117-.274.234-.391.234l-14.16-.039zM.156 12.673c-.156 0-.195-.079-.117-.196l.821-1.056c.079-.117.274-.195.43-.195h17.837c.156 0 .234.117.195.234l-.313.939c-.039.156-.195.235-.352.235l-18.5.039zm9.466 3.598c-.156 0-.195-.117-.117-.235l.547-.977c.079-.118.235-.235.392-.235h7.822c.157 0 .235.117.235.274l-.078.938c0 .157-.157.274-.274.274l-8.527-.039zM50.221 8.37c-2.464.626-4.146 1.095-6.57 1.721-.588.157-.627.196-1.135-.39-.587-.666-1.017-1.096-1.838-1.487-2.465-1.213-4.85-.86-7.08.587-2.66 1.72-4.029 4.263-3.99 7.431.04 3.13 2.19 5.71 5.28 6.14 2.66.353 4.89-.586 6.65-2.58.352-.43.665-.9 1.056-1.448h-7.549c-.821 0-1.017-.508-.743-1.173.509-1.213 1.447-3.247 1.995-4.264.117-.234.391-.625.978-.625h14.237c-.078 1.056-.078 2.112-.235 3.168-.43 2.816-1.486 5.398-3.207 7.666-2.816 3.716-6.493 6.024-11.147 6.65-3.833.508-7.393-.235-10.522-2.582-2.894-2.19-4.537-5.085-4.967-8.683-.509-4.264.743-8.097 3.324-11.46C27.535 3.402 31.212 1.094 35.71.273c3.677-.665 7.197-.235 10.365 1.916 2.073 1.37 3.56 3.247 4.537 5.515.235.352.079.548-.39.665z"/><path d="M63.168 30c-3.56-.078-6.806-1.095-9.544-3.442-2.307-1.995-3.755-4.537-4.224-7.549-.704-4.42.509-8.331 3.168-11.812 2.856-3.755 6.298-5.71 10.952-6.532C67.51-.04 71.264.352 74.667 2.66c3.09 2.112 5.007 4.967 5.515 8.722.665 5.28-.86 9.583-4.498 13.26-2.581 2.62-5.75 4.263-9.387 5.006-1.056.195-2.112.235-3.129.352zm9.309-15.802c-.04-.508-.04-.9-.117-1.29-.704-3.873-4.264-6.063-7.98-5.203-3.637.822-5.984 3.13-6.844 6.806-.704 3.05.782 6.14 3.598 7.393 2.151.938 4.303.82 6.376-.235 3.09-1.604 4.771-4.107 4.967-7.47z"/></g><defs><clipPath id="clip0_457_2521"><path fill="#fff" d="M0 0h80.339v30H0z"/></clipPath></defs></svg>