<svg width="67" height="40" fill="none" xmlns="http://www.w3.org/2000/svg"><path d="M15.72 10.433h12.566v.994H16.873v7.48h10.733v.994H16.873v8.213h11.544v.994H15.721V10.433zm13.692 0h1.335l5.917 8.213 6.047-8.213L50.936 0 37.423 19.509l6.963 9.6H43l-6.335-8.737-6.362 8.736h-1.361l7.016-9.6-6.545-9.075zm15.472.994v-.994h14.32v.994h-6.598v17.681h-1.151V11.427h-6.571zM0 10.433h1.44L21.294 40 13.09 29.108 1.204 11.845l-.052 17.263H0V10.433zm59.087 17.381a.404.404 0 00.411-.416.404.404 0 00-.411-.416.406.406 0 00-.412.416c0 .235.176.416.412.416zm1.131-1.094c0 .692.502 1.145 1.233 1.145.779 0 1.25-.467 1.25-1.276v-2.85h-.628v2.847c0 .45-.227.69-.627.69-.359 0-.603-.224-.611-.556h-.617zm3.304-.036c.044.72.647 1.18 1.543 1.18.958 0 1.558-.482 1.558-1.253 0-.606-.342-.94-1.171-1.133l-.446-.11c-.526-.122-.74-.287-.74-.574 0-.363.331-.6.827-.6.47 0 .796.231.855.603h.61c-.036-.679-.636-1.156-1.456-1.156-.883 0-1.471.477-1.471 1.195 0 .591.333.943 1.064 1.114l.522.125c.535.126.77.31.77.617 0 .357-.37.617-.874.617-.54 0-.916-.243-.97-.625h-.621z" fill="#fff"/></svg>