<svg width="243" height="31" fill="none" xmlns="http://www.w3.org/2000/svg"><path fill-rule="evenodd" clip-rule="evenodd" d="M6.714 10.697L16.576 30 0 10.697h6.714zm19.723 0L16.576 30 33.15 10.697h-6.714z" fill="#EA6C00"/><path fill-rule="evenodd" clip-rule="evenodd" d="M6.714 10.697h19.724L16.575 30 6.714 10.697z" fill="#FDAD00"/><path fill-rule="evenodd" clip-rule="evenodd" d="M16.576 0L7.233.988l-.52 9.71L16.577 0z" fill="#FDD231"/><path fill-rule="evenodd" clip-rule="evenodd" d="M16.576 0l9.343.988.518 9.71L16.576 0z" fill="#FDD231"/><path fill-rule="evenodd" clip-rule="evenodd" d="M33.151 10.697L25.918.987l.52 9.71h6.713zM0 10.697L7.233.987l-.519 9.71H0z" fill="#FDAD00"/><path fill-rule="evenodd" clip-rule="evenodd" d="M16.576 0L6.714 10.697h19.724L16.575 0z" fill="#FEEEB7"/><path d="M65.27 24.119c-.827 0-1.575-.142-2.244-.425-.657-.283-1.179-.691-1.564-1.224s-.584-1.162-.595-1.887h2.55c.034.487.204.873.51 1.156.317.283.748.425 1.292.425.555 0 .992-.13 1.309-.391.317-.272.476-.623.476-1.054 0-.351-.108-.64-.323-.867a2.162 2.162 0 00-.816-.527c-.317-.136-.76-.283-1.326-.442a15.88 15.88 0 01-1.887-.663 3.497 3.497 0 01-1.241-1.003c-.34-.453-.51-1.054-.51-1.802 0-.703.176-1.315.527-1.836.351-.521.844-.918 1.479-1.19.635-.283 1.36-.425 2.176-.425 1.224 0 2.216.3 2.975.901.77.59 1.196 1.417 1.275 2.482h-2.618a1.324 1.324 0 00-.527-1.003c-.317-.272-.742-.408-1.275-.408-.465 0-.839.119-1.122.357-.272.238-.408.584-.408 1.037 0 .317.102.584.306.799.215.204.476.374.782.51.317.125.76.272 1.326.442.77.227 1.4.453 1.887.68a3.39 3.39 0 011.258 1.02c.351.453.527 1.048.527 1.785 0 .635-.164 1.224-.493 1.768-.329.544-.81.98-1.445 1.309-.635.317-1.388.476-2.261.476zM76.598 24l-3.196-4.012V24h-2.38V11.42h2.38v7.157l3.162-3.995h3.094l-4.148 4.726L79.692 24h-3.094zm12.597-4.913c0 .34-.023.646-.068.918h-6.885c.057.68.295 1.213.714 1.598.42.385.935.578 1.547.578.884 0 1.513-.38 1.887-1.139h2.567a4.333 4.333 0 01-1.564 2.244c-.77.578-1.717.867-2.839.867-.907 0-1.723-.198-2.448-.595a4.379 4.379 0 01-1.683-1.717c-.397-.737-.595-1.587-.595-2.55 0-.975.198-1.83.595-2.567a4.152 4.152 0 011.666-1.7c.714-.397 1.536-.595 2.465-.595.895 0 1.694.193 2.397.578a3.987 3.987 0 011.65 1.649c.396.703.594 1.513.594 2.431zm-2.465-.68c-.011-.612-.232-1.1-.663-1.462-.43-.374-.958-.561-1.58-.561-.59 0-1.089.181-1.497.544-.397.351-.64.844-.73 1.479h4.47zm6.463-1.87v4.556c0 .317.074.55.221.697.159.136.42.204.782.204h1.105V24h-1.496c-2.006 0-3.009-.975-3.009-2.924v-4.539h-1.122v-1.955h1.122v-2.329h2.397v2.329h2.108v1.955h-2.108zm2.698 2.754c0-.975.198-1.825.595-2.55a4.182 4.182 0 011.65-1.7c.702-.408 1.506-.612 2.413-.612 1.167 0 2.131.295 2.89.884.771.578 1.286 1.394 1.547 2.448h-2.567a1.814 1.814 0 00-.697-.952c-.317-.238-.714-.357-1.19-.357-.68 0-1.218.25-1.615.748-.397.487-.595 1.184-.595 2.091 0 .895.198 1.592.595 2.091.397.487.935.731 1.615.731.963 0 1.592-.43 1.887-1.292h2.567c-.261 1.02-.776 1.83-1.547 2.431-.771.6-1.734.901-2.89.901-.907 0-1.711-.198-2.414-.595a4.326 4.326 0 01-1.649-1.7c-.397-.737-.595-1.592-.595-2.567zm15.633-4.845c.714 0 1.348.159 1.904.476.555.306.986.765 1.292 1.377.317.6.476 1.326.476 2.176V24h-2.38v-5.202c0-.748-.187-1.32-.561-1.717-.374-.408-.884-.612-1.53-.612-.658 0-1.179.204-1.564.612-.374.397-.561.969-.561 1.717V24h-2.38V11.42h2.38v4.335a3.035 3.035 0 011.224-.952 3.969 3.969 0 011.7-.357z" fill="#fff"/></svg>