<svg width="78" height="40" fill="none" xmlns="http://www.w3.org/2000/svg"><path d="M18.739 4.711a1.189 1.189 0 112.378 0 1.189 1.189 0 01-2.378 0zM4.554 15.477a1.189 1.189 0 112.378 0 1.189 1.189 0 01-2.378 0zm28.361.055a1.19 1.19 0 112.379 0 1.19 1.19 0 01-2.379 0zM7.996 17.17c.547-.252.795-.885.551-1.432l-.526-1.203h2.075v9.352H5.911a14.639 14.639 0 01-.474-5.588l2.56-1.13zm8.679.23v-2.764h4.94c.255 0 1.801.295 1.801 1.451 0 .96-1.186 1.305-2.161 1.305l-4.58.008zM9.929 32.24a1.189 1.189 0 112.377 0 1.189 1.189 0 01-2.377 0zm17.617.056a1.19 1.19 0 112.379 0 1.19 1.19 0 01-2.379 0zm.367-2.696a1.081 1.081 0 00-1.287.834l-.587 2.786a14.638 14.638 0 01-12.208-.059l-.587-2.786a1.083 1.083 0 00-1.287-.833l-2.459.529c-.457-.47-.881-.971-1.271-1.499H20.19c.134 0 .226-.025.226-.148v-4.231c0-.123-.09-.148-.226-.148h-3.5v-2.682h3.777c.345 0 1.846.099 2.326 2.018l.707 3.125c.225.69 1.14 2.067 2.117 2.067h6.177a14.628 14.628 0 01-1.356 1.57l-2.526-.543zm6.643-11.174c.085.845.095 1.695.032 2.542h-1.51c-.152 0-.21.099-.21.245v.69c0 1.624-.924 1.977-1.718 2.067-.755.086-1.611-.319-1.715-.787-.45-2.534-1.202-3.076-2.387-4.011 1.471-.935 3.004-2.313 3.004-4.159 0-1.992-1.366-3.247-2.298-3.863-1.306-.86-2.752-1.033-3.143-1.033H9.085a14.639 14.639 0 018.19-4.623l1.832 1.93a1.083 1.083 0 001.532.035l2.049-1.96a14.639 14.639 0 0110.022 7.138l-1.402 3.168a1.08 1.08 0 00.552 1.432l2.697 1.189zm3.5.05l-.048-.49 1.445-1.347a.605.605 0 00-.192-.965l-1.846-.69-.144-.477 1.152-1.6a.603.603 0 00-.377-.91L36.1 11.68l-.235-.437.818-1.795c.168-.366-.143-.833-.546-.818l-1.976.068-.312-.377.453-1.925a.606.606 0 00-.695-.696l-1.925.453-.38-.312.07-1.976a.604.604 0 00-.818-.548l-1.795.82-.437-.236-.317-1.946a.604.604 0 00-.909-.377l-1.594 1.143-.476-.144-.69-1.846a.604.604 0 00-.965-.193l-1.357 1.444-.49-.047-1.04-1.682a.604.604 0 00-.984 0l-1.04 1.682-.49.047L16.622.537a.604.604 0 00-.965.192l-.69 1.846-.477.144-1.594-1.15a.605.605 0 00-.91.377l-.317 1.947-.437.235-1.795-.819a.604.604 0 00-.818.547l.069 1.976-.38.312-1.925-.453a.604.604 0 00-.696.697l.453 1.925-.31.377-1.976-.069c-.399-.011-.714.453-.547.818l.818 1.796-.234.436-1.947.318c-.394.064-.61.584-.378.91l1.152 1.6-.144.476-1.846.69a.604.604 0 00-.191.965l1.445 1.348-.048.49-1.68 1.04a.604.604 0 000 .984l1.68 1.04.048.49L.537 23.37a.604.604 0 00.191.965l1.846.69.144.477-1.152 1.6a.605.605 0 00.377.909l1.947.317.235.438-.82 1.796a.604.604 0 00.548.818l1.975-.07.312.38-.453 1.925a.604.604 0 00.696.695l1.925-.453.38.31-.07 1.977a.604.604 0 00.819.546l1.796-.818.436.235.317 1.947a.605.605 0 00.91.377l1.6-1.152.476.145.69 1.846a.604.604 0 00.966.191l1.347-1.445.49.049 1.04 1.68c.21.34.773.34.984 0l1.042-1.682.49-.049 1.347 1.445a.605.605 0 00.965-.191l.69-1.846.477-.145 1.6 1.153a.605.605 0 00.91-.378l.316-1.947.437-.234 1.795.818a.605.605 0 00.818-.547l-.068-1.977.379-.31 1.925.453a.605.605 0 00.695-.695l-.453-1.925.31-.38 1.977.07a.605.605 0 00.546-.818l-.818-1.796.235-.438 1.947-.317a.604.604 0 00.376-.909l-1.152-1.6.145-.476 1.846-.69a.605.605 0 00.19-.966l-1.444-1.347.048-.49 1.68-1.04a.603.603 0 000-.984l-1.684-1.03zm4.272 3.248v-6.998h3.692v1.146c0 .615-.003 1.396-.01 2.343-.007.934-.01 1.558-.01 1.87 0 .921.024 1.587.071 1.996.048.403.13.697.246.881.15.239.344.423.583.552.246.13.526.195.84.195.764 0 1.364-.294 1.8-.881.436-.587.655-1.403.655-2.445v-5.658h3.662v11.46h-3.672v-1.658c-.552.668-1.139 1.163-1.76 1.483a4.414 4.414 0 01-2.036.47c-1.323 0-2.33-.405-3.02-1.216-.69-.811-1.034-1.992-1.034-3.541h-.007zm24.013-6.64v2.782a13.724 13.724 0 00-2.271-.736 9.45 9.45 0 00-2.067-.246c-.696 0-1.214.088-1.555.266-.334.17-.5.436-.5.797a.75.75 0 00.377.675c.259.157.72.273 1.381.349l.644.084c1.876.238 3.138.63 3.786 1.176.648.545.972 1.401.972 2.567 0 1.222-.448 2.139-1.343 2.753-.895.613-2.238.92-4.03.92a15.71 15.71 0 01-2.354-.184 19.503 19.503 0 01-2.486-.532V22.97a10.375 10.375 0 004.583 1.063c.716 0 1.255-.099 1.617-.297.361-.198.542-.491.542-.88 0-.328-.126-.57-.378-.727-.246-.164-.74-.29-1.483-.378l-.645-.082c-1.63-.205-2.772-.584-3.428-1.136-.654-.553-.981-1.392-.981-2.517 0-1.214.416-2.115 1.248-2.702.833-.588 2.108-.881 3.827-.881.675 0 1.384.05 2.128.153a23.63 23.63 0 012.433.481l-.017.015zm7.532-3.613v3.254h3.775v2.62h-3.775v4.86c0 .53.105.893.317 1.084.211.185.63.277 1.258.277h1.883v2.62h-3.14c-1.446 0-2.473-.3-3.08-.9-.6-.607-.9-1.634-.9-3.08v-4.868h-1.82v-2.62h1.82v-3.254h3.663l-.001.007z" fill="#fff"/></svg>