<svg width="57" height="50" fill="none" xmlns="http://www.w3.org/2000/svg"><g clip-path="url(#clip0_450_2138)" fill="#FFED00"><path d="M0 50l.013-29.856L56.825 0l-.013 29.86L0 50zm1.263-28.974v27.208l54.31-19.258V1.768L1.263 21.026z"/><path d="M4.076 23.156v20.96l7.668-2.725V20.433l-7.668 2.723zM52.763 5.9l-7.57 2.688v20.96l7.57-2.688V5.9zm-26.6 9.415l-7.58 2.69v7.459l7.58 9.612v-19.76zm17.695-6.267l-7.58 2.69v7.459l7.58 9.612V9.049zM13.08 33.076l4.84 6.124 7.624-2.704-12.465-15.722v12.302zm14.4-18.234v7.844l2.993 3.738-2.993 1.066v5.525l6.4-2.273 1.714 2.17 7.68-2.71-12.957-16.365-2.837 1.005z"/></g><defs><clipPath id="clip0_450_2138"><path fill="#fff" d="M0 0h56.825v50H0z"/></clipPath></defs></svg>