<svg width="95" height="30" fill="none" xmlns="http://www.w3.org/2000/svg"><path d="M36.522 8.628c-.49 0-.936.065-1.34.195-.39.12-.734.322-1.028.606-.284.272-.512.626-.686 1.062-.164.435-.256.955-.278 1.559-.034.98-.034 1.96 0 2.94.022.61.114 1.13.278 1.559.174.435.402.795.686 1.079.293.272.636.473 1.028.605.404.12.85.18 1.34.18.48 0 .926-.066 1.339-.196a3.003 3.003 0 001.062-.618 2.93 2.93 0 00.72-1.078c.175-.436.262-.948.262-1.536v-.832h-2.846c-.24 0-.36-.123-.36-.367v-.23c0-.244.12-.366.36-.366h3.494c.245 0 .367.122.367.367v1.437c0 .654-.098 1.253-.294 1.797a3.894 3.894 0 01-.865 1.39c-.37.392-.834.697-1.39.915-.55.206-1.172.31-1.862.31-.708 0-1.329-.104-1.862-.31a3.922 3.922 0 01-1.355-.899 3.983 3.983 0 01-.833-1.355 5.963 5.963 0 01-.31-1.765 34.604 34.604 0 01-.033-1.552c0-.55.01-1.067.033-1.551.022-.642.13-1.225.326-1.748.196-.534.474-.991.833-1.372a3.77 3.77 0 011.355-.883c.534-.217 1.15-.326 1.846-.326.752 0 1.394.114 1.927.343.534.229.97.504 1.307.825.338.316.588.649.752.997.163.349.25.637.262.866a.282.282 0 01-.083.245.393.393 0 01-.261.082h-.36c-.098 0-.168-.021-.212-.064a1.019 1.019 0 01-.13-.261 3.546 3.546 0 00-.368-.734 2.378 2.378 0 00-.618-.653 3.274 3.274 0 00-.93-.474c-.36-.12-.785-.18-1.275-.18l.002-.009zm7.71 3.25c.392-.753 1.132-1.129 2.222-1.129h.605c.24 0 .36.12.36.36v.23c0 .239-.12.359-.36.359h-.703c-.654 0-1.171.19-1.551.57-.381.382-.572.9-.572 1.553v5.062a.327.327 0 01-.114.261.353.353 0 01-.262.099h-.261c-.24 0-.36-.12-.36-.36v-7.759c0-.108.033-.196.099-.261a.327.327 0 01.261-.115h.261c.11 0 .196.039.262.115a.327.327 0 01.114.261v.753zm10.089 7.37c-.24 0-.36-.12-.36-.36v-.768a2.436 2.436 0 01-.392.458 2.322 2.322 0 01-.571.409c-.229.12-.504.217-.825.293-.316.087-.686.13-1.11.13-.391 0-.767-.06-1.128-.18a3.349 3.349 0 01-.93-.522 2.696 2.696 0 01-.637-.768 2.054 2.054 0 01-.23-.963c0-.37.077-.702.23-.997.163-.293.386-.549.67-.767.282-.229.62-.414 1.012-.555a5.995 5.995 0 011.323-.326l2.58-.36v-.571c0-.588-.18-1.046-.539-1.372-.348-.327-.909-.49-1.682-.49-.61 0-1.083.12-1.421.36-.327.228-.533.479-.618.752a.598.598 0 01-.163.277.365.365 0 01-.23.064h-.229a.39.39 0 01-.261-.098.39.39 0 01-.099-.261c0-.153.055-.343.164-.571a2.2 2.2 0 01.523-.67 3.14 3.14 0 01.947-.555c.38-.163.844-.245 1.39-.245.642 0 1.17.088 1.585.262.424.174.757.403.997.686.24.272.403.577.49.914.097.338.146.67.146.997v5.438c0 .24-.12.36-.36.36h-.277l.005-.002zm-3.087-.785c.37 0 .718-.06 1.045-.18a2.5 2.5 0 00.882-.571c.245-.245.44-.56.587-.947.142-.381.213-.828.213-1.34v-.554l-2.107.293c-1.807.245-2.71.822-2.71 1.732 0 .272.06.506.18.702.13.196.293.36.489.49a2.2 2.2 0 00.67.293c.244.055.495.083.752.083l-.002-.001zm10.047.947c-.686 0-1.246-.122-1.682-.366a3.351 3.351 0 01-1.062-.915V22c0 .24-.12.36-.36.36H57.9c-.24 0-.36-.12-.36-.36V11.11c0-.24.12-.36.36-.36h.278c.24 0 .36.12.36.36v.767c.271-.37.625-.674 1.061-.914.436-.245.996-.367 1.682-.367.632 0 1.165.115 1.6.343.447.218.806.512 1.08.882.271.36.467.774.586 1.242.13.458.207.926.23 1.405a8.825 8.825 0 01-.001 1.079c-.022.48-.098.954-.229 1.421-.12.457-.316.872-.587 1.242-.272.36-.632.654-1.078.882-.436.218-.97.327-1.6.327v-.008zm-2.744-4.998a9.856 9.856 0 00-.016.637c0 .26.005.473.016.636.011.327.066.659.163.997.11.327.273.62.49.882.218.261.493.479.826.653.326.164.718.245 1.175.245.48 0 .878-.081 1.193-.245.326-.163.587-.38.784-.653.206-.283.353-.604.44-.963.098-.37.158-.75.18-1.143.01-.306.01-.61 0-.915a5.473 5.473 0 00-.18-1.128 2.527 2.527 0 00-.44-.947 2.04 2.04 0 00-.784-.67c-.316-.174-.714-.26-1.193-.26-.468 0-.865.086-1.192.26a2.598 2.598 0 00-.825.687 3.058 3.058 0 00-.474.914 4.107 4.107 0 00-.164 1.012l.001.001zm9.477-2.535a3.61 3.61 0 011.062-.93c.412-.24.972-.36 1.682-.36.555 0 1.04.093 1.453.278a2.84 2.84 0 011.03.768c.282.326.494.713.636 1.16.141.446.212.93.212 1.453v4.639c0 .24-.12.36-.36.36h-.274c-.24 0-.36-.12-.36-.36v-4.558c0-.871-.212-1.552-.636-2.042-.425-.5-1.045-.752-1.862-.752-.784 0-1.41.245-1.878.734-.468.49-.703 1.176-.703 2.06v4.559c0 .24-.12.36-.36.36h-.277c-.24 0-.36-.12-.36-.36V8.004c0-.24.12-.359.36-.359h.278c.24 0 .36.12.36.36v3.87l-.003.002zm12.738-4.23c.632 0 1.209.093 1.732.279a3.44 3.44 0 011.339.849c.38.37.675.838.882 1.405.217.555.337 1.214.36 1.976a29.294 29.294 0 01-.001 2.744c-.055 1.557-.452 2.7-1.192 3.43l1.046 1.47.032.064a.28.28 0 01.017.115.316.316 0 01-.098.23.314.314 0 01-.23.097h-.359a.401.401 0 01-.31-.146 3.481 3.481 0 01-.213-.23l-.72-.997c-.655.317-1.417.475-2.288.475-1.36 0-2.411-.365-3.152-1.095-.73-.729-1.116-1.867-1.16-3.413a30.624 30.624 0 01-.033-1.372c0-.424.011-.882.033-1.372.022-.762.136-1.421.343-1.976.218-.566.512-1.035.882-1.405a3.618 3.618 0 011.34-.85 5.206 5.206 0 011.747-.277h.003zm0 .982a3.7 3.7 0 00-1.275.213c-.391.13-.734.342-1.029.636-.293.294-.527.67-.702 1.128-.163.458-.256 1.002-.278 1.633l-.033.686v1.223l.033.67c.022.642.115 1.192.278 1.65.174.447.403.817.686 1.11.293.294.636.511 1.029.653.391.13.82.195 1.287.195.469 0 .898-.065 1.288-.195a2.64 2.64 0 001.013-.653 3.01 3.01 0 00.685-1.11c.175-.457.273-1.007.294-1.65.01-.24.016-.463.016-.67v-1.223c0-.207-.005-.436-.016-.686-.022-.632-.12-1.176-.294-1.633a2.994 2.994 0 00-.685-1.128 2.599 2.599 0 00-1.03-.636 3.714 3.714 0 00-1.274-.213h.007zm7.972 9.635h5.635c.245 0 .367.122.367.367v.245c0 .24-.122.36-.367.36h-6.304c-.24 0-.36-.12-.36-.36V8.17c0-.24.12-.36.36-.36h.31c.24 0 .36.12.36.36v10.094zM2.427 22.861l-1.1-.636L13.594.975l1.1.637-12.268 21.25z" fill="#E10098"/><path d="M1.076 20.528h24.538V21.8H1.076v-1.272z" fill="#E10098"/><path d="M13.836 28.33L1.562 21.242l.636-1.1 12.274 7.084-.636 1.102zM24.498 9.858L12.225 2.773l.636-1.1 12.273 7.086-.636 1.1z" fill="#E10098"/><path d="M2.2 9.855l-.636-1.1 12.284-7.079.636 1.101L2.202 9.855z" fill="#E10098"/><path d="M24.272 22.861L12.002 1.612l1.1-.636 12.27 21.249-1.1.636zM2.05 7.911h1.27v14.173H2.05V7.91zm21.328 0h1.272v14.173h-1.273V7.91z" fill="#E10098"/><path d="M13.618 27.79l-.556-.962 10.676-6.163.555.963-10.675 6.163z" fill="#E10098"/><path d="M26.335 22.497a2.678 2.678 0 01-3.655.98 2.678 2.678 0 01-.98-3.654 2.677 2.677 0 013.655-.98 2.666 2.666 0 01.98 3.654zM4.992 10.172a2.678 2.678 0 01-3.654.98 2.678 2.678 0 01-.98-3.655 2.678 2.678 0 013.654-.98 2.682 2.682 0 01.981 3.654M.365 22.498a2.68 2.68 0 01.982-3.654 2.68 2.68 0 013.654.98 2.676 2.676 0 11-4.636 2.673zM21.71 10.172a2.68 2.68 0 01.981-3.655 2.68 2.68 0 013.655.981 2.68 2.68 0 01-.981 3.655 2.678 2.678 0 01-3.655-.982zM13.348 30a2.673 2.673 0 11-.001-5.348 2.673 2.673 0 010 5.348zm0-24.653a2.673 2.673 0 112.673-2.673 2.668 2.668 0 01-2.673 2.673z" fill="#E10098"/></svg>