<svg width="103" height="40" fill="none" xmlns="http://www.w3.org/2000/svg"><path d="M15.361 34.96c-1.618-1.273-3.344-2.493-4.524-4.212-2.482-3.03-4.393-6.539-5.7-10.226-.79-2.397-1.06-4.968-2.078-7.272-1.065-1.674.183-3.504 2.016-4.037.817-.156 2.252-.926.52-.376-1.554 1.14-1.704-1.034-.111-1.172C6.57 7.52 6.97 6.63 6.599 5.829c-1.167-.76 2.83-1.597.819-2.733-2.095-2.26 2.93-2.695 1.69-.128-.296 1.974 3.512-.362 2.628 1.918.898 1.094 3.363.249 3.302 1.784 1.308.09 1.757 1.191 2.985 1.276 1.273.574 3.58 1.027 4.014 2.462-1.263 1-4.187-2.065-4.328.702.382 4.088.285 8.3 1.78 12.192.708 2.357 2.423 4.213 3.972 6.049 1.482 1.798 3.489 3.064 5.535 4.13 1.795.846 3.73 1.407 5.686 1.76.793-.607 2.194-2.863 3.431-1.912.06 1.069-2.456 2.234-.118 2.116 1.373-.414 2.325 1.062 3.456-.27 1.041 1.235 4.33-.787 3.588 1.734-1.002.647-2.464.256-3.468 1.146-1.655-.827-2.972.74-4.804.541-2.035.365-4.105.512-6.168.515-3.384-.267-6.84-.38-10.06-1.558-1.814-.527-3.584-1.56-5.178-2.593zm2.858 1.238c1.771.766 3.503 1.573 5.444 1.817 3.08.428 6.26 1.087 9.35.486-1.399-.632-2.845.246-4.238-.452-1.671.36-3.465-.091-5.164-.313-1.932-.861-4.017-1.453-5.826-2.57-2.26-.826 1.17 1.06 1.78 1.212 1.413.802-1.554-.411-1.973-.745-1.183-.664-1.334-.525-.117.15.245.143.488.293.744.415zm-3.37-2.381c1.717.635-.007-1.207-.793-1.1-.349-.605-1.332-.986-.638-1.311-1.247.433-1.307-1.646-1.893-1.35-1.32-.416-.513-1.892-2.085-2.798-.143-.955-1.561-1.783-2.013-3.223-.2-.738-1.602-2.855-.74-.884.733 1.897 2.023 3.521 3.097 5.144.833 1.545 1.818 3.16 3.337 4.124.511.491 1.006 1.244 1.729 1.398zm-4.943-5.428c.313.56.06-.26 0 0zm6.999 6.19c-.547-.215.38-.17 0 0zm.931.34c-.425.262-.096-.47 0 0zm1.167.486c-.856-.333.555-.529 0 0zM21 36.519c-1.08-.188.337-.499 0 0zm-3.838-2.676c-1.114-.007.863-.557 0 0zm.875.437c-.312.132-.024-.295 0 0zm4.372 2.728c.703.444 4.105.973 1.975.182-.357.076-3.95-1.016-1.975-.181zm-6.94-5.405c-1.092-.327-.07-.296 0 0zm2.035 1.186c-1.1-.285.53-.37 0 0zm1.712 1.05c-1.233-.288.76-.287 0 0zM14.64 30.7c.825.632 3.326.08 1.263-.378-.939-.5-3.055-.843-1.613.302l.35.076zm5.735 3.5c-1.44-.334.344-.585 0 0zm-1.742-1.385c2.016.57-1.696-1.275-.498-.21l.265.12.233.09zm3.494 2.02c-1.726-.264 1.91.018 0 0zm-8.222-5.24c-.471.03-.075-.356 0 0zm11.452 7.052c-.623.478.051-.643 0 0zm-8.192-5.056c-.597-.014-.116-.339 0 0zm-3.079-2.22c-1.5-.483 1.097-.065 0 0zm-3.646-2.357c-1.193-.945-.137-.525 0 0zm9.573 6.076c-.095.05-.201-.23 0 0zm5.959 3.656c-.325.133-.02-.35 0 0zm-6.486-4.2c-.935-.137.107-.452 0 0zm-4.44-2.814c-1.306-.552.816-.088 0 0zm7.51 4.666c-1.24-.246 1.27-.504 0 0zm-3.906-2.652c1.465.19-1.744-.996-.322-.106l.322.107zm5.091 3.131c1.368-.818.917 1.915 2.321.231 1.385-1.01-1.196 1.25.51.18 1.235-.825 3.058.392 4.21.789.827-.041 1.633.716 2.481.255 1.635-.44-3.195-.653-1.93-1.433-1.495.435-2.6-.52-3.335-1.477-1.678-.388-3.617-1.245-4.454-2.73-.342-.557.493.079-.295-.832-1.01-.899-1.515-1.92-2.194-3.012-.81-.433-.905-1.706-.987-.043.007-1.05-.978-1.756-1.219-1.462-.004-1.01 1.054-.504.313-1.252-.16-1.047-.684-2.138-.842-3.32-.245-.57-.035-1.791-.837-.501-.292 1.364-.097-1.676.357-.674.597-1.022-.214-.902-.247-.76.389-.863.246-2.087-.101-1.62.207-.915.327-3.366-.31-2.932.386-.956.732-4.376-.945-3.072-.68.01-1.856.246-2.413.523 1.745.961-.175.347-.885.194-.093.89-.796.505-1.675.514 1.404.174-.683 1.435-1.488.945-1.046.5.902 1.747.02 2.133.11.582-1.6-.21-1.467 1.133-1.015-.427-.14 1.593.368.91 1.727.467 1.216 1.532 1.26 2.544-.282.59-1.389-1.386-.247-1.294-.9-1.464-.997-.53-1.745.15-.175.05 1.91.968.602 1.422 1.15.177 1.183 1.184 1.417 1.822.692.72.55-.796 1.378.07-.524-.771-2.774-2.173-.962-1.724-.01-.776-.328-1.402.227-1.386.55-.996-.575 2.454.663 1.189.343-.15.428-.997 1.045.08.895.88.323 1.519-.94.712.226.767 1.69 1.04 1.415 2.24.291 1.054.7.665 1.055.604.279 1.025.437.272.45-.216 1.277.274.978 1.029 1.378 1.556.88.397-1.26-2.693.251-.93 1.59 1.436.596 2.035-.83 1.805.903-.073 1.194 1.221 2.323 1.176 1.03.49 1.728 2.371-.048 1.588-.615-.555-2.794-1.24-1.015-.184 1.644.761 2.95 1.216 4.535 2.172 1.134.81 1.624 1.737 2.054 1.921-.953.456-2.873-.364-1.447-.615-.89-.162-1.89-.611-1.038.497.724.604 2.566.54 2.896.609-.28.617-.76.666.012.713-.861.46.276.53.355.792zm-1.76-4.97c-.524-.549-.66-1.575-.093-.682.29.117.93 1.677.093.681zm5.733 3.64c.01.249.326-.02 0 0zm-6.56-4.984c.19.639-.02-.828 0 0zm-.57-.766c.83.36-.658-1.273 0 0zm-6.904-4.766c.19.662.387-.103 0 0zm5.495 2.979c.28.748.238-.893 0 0zm-3.882-2.7c.572.462-.274-.492 0 0zm3.331 1.068c-.624-1.398.442-.764.139.23l-.139-.23zm-5.745-3.832c-.28-.458-.74-1.804-.592-2.215.134.669 1.423 2.88.632.916-.874-1.647 1.045.534 1.242.945.092.408-.54-.112-.111.846-.78-1.09-.46.602-1.171-.492zm-1.776-1.223c.407.731.073-1.067 0 0zm.799.275c.646 1.122.381-.805 0 0zm-1.921-1.486c-.662-.657-1.14-1.263.03-.408.451.017-1.002-1.377.11-.443 1.167.213.576 1.915-.14.85zm1.009-.027c.204.375.384-.38 0 0zm.62.2c.707.457-.581-1.092 0 0zm-1.234-1.18c-1.922-1.71 2.415.894.314.316l-.314-.317zm5.507 3.199c-.832-.499-.22-3.51.063-1.45.809-.262-.045 1.063.558 1.05-.095.837-.364 1.138-.621.4zm2.036 1.204c.172.62.082-.908 0 0zm-.353-.35c.01.457.091-.388 0 0zm-6.813-4.616c-1.234-1.703 3.589 1.724.791.433-.292-.077-.644-.104-.79-.433zm3.922 2.08c.261.238-.117-1.434 0 0zm2.978 1.91c.017.54.23-.817 0 0zm-6.71-4.64c.733-.157 3.04 1.289.922.413-.236-.26-.738-.142-.923-.413zm6.3 3.141c.08-1.467.439-.876.004.21l-.003-.21zm-5.754-3.651c.299-.439-.794-1.983.157-.554.411.326 1.19.547.502.684 1.082.955-.263.259-.66-.13zm5.443 3.193c.182.979.207-1.67 0 0zm-6.068-4.736c.12.304.229-.098 0 0zm1.42.845c.674.855.365-.767 0 0zm4.005 2.228c.076.428-.003-.294 0 0zm-.232-.514c.517.726-.556-1.371 0 0zm-.341-.899c.317.712-.093-.567 0 0zm.556-.903c-.382-.672.481-2.962.578-1.542-.403 1.107-.117 1.726.164.241.519-1.168-.112 2.306-.742 1.301zm.57-3.406c.037.246.167-.204 0 0zm-.953 18.786c.028.125-.226-.198 0 0zm1.964.993c1.092.28 1.087-.17.1-.304-.532-.494-2.207-1.018-.707-.061.099.252.413.246.607.365zm-3.879-2.576c.602.449 2.267 1.272.858.17.475-.552-.91-.845-.45-1.215-1.17-.715-.922-.651-.104-.629-1.404-.627.203-.58.127-.902-.541-.107-2.69-.955-1.426.07-1.284-.655-.306.244-.694.149-1.314-.359 1.17 1-.209.663.754.597 2.029 1.53.319.632-.225.324 1.224.816 1.58 1.062zm2.054 1.18c-1.224-.983 2.498.805 0 0zm10.515 6.37c-.341.422.032-.496 0 0zm1.08.455c.577-.559.024.889.956-.137.01-.735-.03-1.169-1.07-.276-.288.159-.416.836.115.413zM10.47 25.625c-1.24-.692-.177-.696 0 0zm1.154.756c-1.53-.643-.429-.71 0 0zm6.565 3.96c.64.569 2.944.417.778.07-.32-.475-2.036-.36-.778-.07zm9.025 5.573c-.956.37.986-.828 0 0zm2.052 1.41c-.426.116.006-.266 0 0zm.003-.372c-1.059.068 1.092-1.157 0 0zM7.63 23.249c-.93-1.329-.579-1.926-1.476-3.01-.17-.83-1.54-2.713-.71-.719.762 1.167.989 2.973 2.186 3.729zm21.295 13.335c-.825-.566 2.01-1.299 0 0zm1.534.601c-.636-.18 1.007-.864 0 0zM10.127 24.156c-.743-.054.288-.428 0 0zM30.14 36.775c.974-.629-.225-.532-.177.058l.177-.058zm-13.225-8.336c-.515.036-.034-.424 0 0zm.817.47c-.4.082-.26-.525 0 0zm13.971 8.29c1.249-.9-.756-.172-.261.17l.261-.17zm-.477-.23c-1.074.377 1.017-.853 0 0zm2.442 1.626c-.83-.148.683-.457 0 0zM10.754 23.847c.915.205 3.658 2.255 2.04.142-.829-.245-.332-2.27-1.177-1.912.567.947.466 1.35-.725.753-1.497-.73-.841.362-.548.664-.4.09.527.346.41.353zm-4.17-3.293c.163-.678-1.51-3.729-.79-1.529.26.461.233 1.334.79 1.529zm7.654 4.719c-.023-.056-.472-.394 0 0zm1.16.27c-1.283-.292 0-.718 0 0zm10.058 6.34c-.758-.01-.191-.49 0 0zm.483.354c-.278.052-.07-.275 0 0zm3.987 2.51c-.478-.036.384-.283 0 0zm-21.26-13.66c-1.174-.303 1.097-.425 0 0zm15.905 10.02c-.7.176-.012-.71 0 0zM8.233 20.075c-.651-.157.705-.238 0 0zm2.045.99c-.216.089-.013-.233 0 0zm24.94 15.294c.906-.184 2.97.461 3.304-.24-1.1-.027-3.806-.776-3.934.179l.241.038.39.023zm-24.29-15.13c-.561-.027.016-.72 0 0zM5.552 17.5c-.929-.207-.244-1.37 0 0zm1.282.323c-1.174-.396.015-.44 0 0zm.732.36c-.165.217-.211-.172 0 0zm4.61 2.957c-.514-.148.217-.2 0 0zm-5.098-3.769c-1.484-.155-.123-1.035 0 0zM4.45 15.666c-.256.18-.037-.478 0 0zm.391-.295c-.336.072-.064-.567 0 0zm2.16 1.29c.914-.36-1.664-.743-.186-.069L7 16.66zm28.91 17.857c-.742-.166.585-.536 0 0zm3.493 1.81c-.59.091.235-.693 0 0zm-32.182-20.8c-.724.133.096-.67 0 0zm-3.073-2.06c-.166-.946-.143-2.607 1.436-2.046-2.108.419 1.46 2.62 1.009.882.886.044 1.734-.524 1.269.337 1.746-.193 2.957-1.707 4.644-1.495 1.314-.174 2.75-.306 4.166-.835 1.165-.083 2.285-1.337 1.647-2.08-1.588-.134-3.25.064-5.004.413-1.945.405-3.711 1.173-5.673 1.502-1.913.257.384.708-.163.808-.998.347 1.19.58-.13.945-.815-.155-1.663-.435-1.315-1.293-1.832.237-3.441.998-1.994 2.862h.108zm4.414-2.248c.43-1.582 2.301 1.303.704.21-.19-.142-.505-.258-.704-.21zm.083-.767c.33.26.62-.461 0 0zm.788.013c.055-.728 1.802.385.287.262l-.287-.262zm1.076-.433c.113.409.393-.46 0 0zm.276-.185c.655-.786 3.708-.502 1.473-.076-.6-.451-1.058.266-1.473.076zm3.984-.614c1.98.764-.1-2.149 0 0zm1.13-.006c.414-1.083 1.605-.434.192-.218.03.116-.041.56-.191.218zm-9.124 5.744c-1.311-.656 1.235-.756 0 0zm.913.254c-.94-.187.433-.46 0 0zM5 13.316c-.835-.206.705-.542 0 0zM41.466 36.13c-.54.283.02-.629 0 0zm-3.706-2.529c-.476.063.106-.724 0 0zm4.725 2.773c.986.003 2.99-.306.843-.306-.337.053-1.963.042-.843.306zM8.493 14.782c.798-.055 1.249-.88-.155-.834-2.175-.225 1.92.745-.279.468-.295.196.416.42.434.366zm.703.356c-.247.272-.084-.513 0 0zm.834-2.225c-.48-.114.347-.43 0 0zM7.374 8.474c1.425-.484 3.374-1.03 4.047.24-.685-.825-.276-1.636.37-.431.915 1.219 1.373-.555.778-.964.678.842 1.449 1.24.454.053 1.081-1.3-2.165.17-2.903.156-.355.16-3.665.844-2.746.946zm.836-1.6c.812-.612 2.81.366 1.528-.609-.125-.11-2.808.74-1.528.61zm2.962.123c.952.025-.41-1.278.724-.688-.186-.608-1.32-.722-1.874-.965-.314.556.638 1.66 1.15 1.653zM8.73 4.307c-.577.227.33-.446 0 0zm1.211.29c1.533-.203-.39-.66-.309-.016l.31.016zM7.68 2.828c-1.08-1.409 2.03.237.933-1.238-.923-.735-1.81.827-.933 1.238zm13.851 7.46c.495-.877-2.044-1.182-.334-.31.158.052.122.371.334.31z" fill="#fff"/><path d="M44.897 4.236c-.178.698-.287 1.87-.329 3.516 0 .323-.145.484-.437.484-.292 0-.495-.14-.61-.422-.312-.76-.609-1.291-.89-1.593-.334-.355-.776-.568-1.328-.641-.594-.094-2.073-.14-4.438-.14-.541 0-.896.057-1.062.171-.104.073-.156.23-.156.469v7.078c0 .24.15.354.453.344.927-.01 2.27-.073 4.03-.188.345-.041.576-.153.696-.336.12-.182.237-.653.352-1.414.073-.416.317-.578.734-.484.354.073.505.234.453.484-.291 1.417-.385 3.26-.281 5.532.01.27-.162.416-.516.437-.291.031-.474-.125-.546-.469-.271-1.302-.774-1.997-1.508-2.086-.735-.088-1.93-.132-3.586-.132-.188 0-.281.067-.281.203v7.031c0 .52.192.875.578 1.063.302.156.953.296 1.953.421.51.052.734.276.672.672-.063.344-.521.48-1.375.406-2.47-.197-4.506-.187-6.11.032-.448.062-.672-.12-.672-.547 0-.271.224-.427.672-.469 1.021-.114 1.532-1.01 1.532-2.687V7.596c0-.688-.123-1.217-.368-1.586-.245-.37-.7-.706-1.367-1.008-.417-.188-.573-.443-.469-.766.052-.198.136-.307.25-.328.104-.031.38-.01.828.063.657.104 2.204.156 4.641.156 2.875 0 5.36-.063 7.453-.188.698-.041 1.047.016 1.047.172a.514.514 0 01-.015.125zm10.156 19.86c0 .416-.235.599-.703.546-1.438-.135-3.22-.114-5.344.063-.427.042-.69.031-.79-.031-.098-.063-.148-.235-.148-.516 0-.25.284-.46.852-.633.568-.172.852-.685.852-1.539V7.846c0-.844-.123-1.464-.368-1.86-.245-.396-.674-.703-1.289-.922-.323-.114-.484-.276-.484-.484 0-.312.234-.547.703-.703.708-.23 1.443-.583 2.203-1.063.625-.375 1.02-.562 1.188-.562.385 0 .578.266.578.797 0-.042-.021.479-.063 1.562-.031 1.032-.041 2.047-.031 3.047l.063 13.953c0 .636.156 1.097.468 1.383.313.287.85.477 1.61.57.468.052.703.23.703.532zm14.25-1.047c0 .218-.399.55-1.196.992-.796.443-1.434.664-1.914.664-.406 0-.765-.198-1.078-.594-.312-.396-.531-.594-.656-.594-.094 0-.589.214-1.484.641-.896.427-1.797.64-2.703.64-.855 0-1.568-.25-2.141-.75-.625-.551-.938-1.301-.938-2.25 0-1.801 2.063-3.093 6.188-3.874.708-.136 1.068-.422 1.078-.86l.031-1c.063-1.708-.692-2.562-2.265-2.562-.448 0-.873.4-1.274 1.203-.4.802-.976 1.234-1.726 1.297-.855.083-1.282-.276-1.282-1.078 0-.5.636-1.084 1.907-1.75 1.333-.698 2.614-1.047 3.843-1.047 2.115 0 3.162 1.005 3.141 3.015l-.063 6.438c-.01.677.276 1.016.86 1.016.114 0 .333-.026.656-.079.323-.052.51-.078.563-.078.302 0 .453.203.453.61zm-4.813-3.563c.01-.26-.05-.432-.18-.515-.13-.084-.335-.1-.617-.047-2.51.448-3.765 1.265-3.765 2.453 0 1.198.65 1.797 1.953 1.797.52 0 1.057-.1 1.61-.297.645-.23.968-.505.968-.828l.031-2.563zm16.469 1.704c0 1.104-.425 1.981-1.273 2.632-.85.651-2.008.977-3.477.977-.98 0-1.958-.104-2.938-.313-.843-.187-1.333-.36-1.468-.515-.084-.146-.125-.86-.125-2.141 0-.552.125-.839.375-.86.25-.03.463.105.64.407.782 1.364 2.042 2.047 3.782 2.047 1.468 0 2.203-.51 2.203-1.532a1.46 1.46 0 00-.5-1.125c-.365-.343-1.073-.744-2.125-1.203-1.521-.677-2.537-1.27-3.047-1.78-.552-.543-.828-1.272-.828-2.188 0-1.125.432-2 1.297-2.625.802-.604 1.875-.907 3.218-.907.844 0 1.615.068 2.313.204.75.135 1.14.302 1.172.5.083.583.255 1.427.515 2.53.032.136-.114.245-.437.329-.344.073-.573.015-.688-.172-.823-1.344-1.864-2.016-3.125-2.016-1.427 0-2.14.459-2.14 1.375 0 .51.192.917.578 1.22.344.26 1.15.666 2.422 1.218 1.333.573 2.24 1.088 2.719 1.547.624.593.937 1.39.937 2.39zm18.125 2.812c0 .364-.245.557-.734.578-.73.01-1.683.063-2.86.156-.583.115-1 .042-1.25-.219a32.4 32.4 0 01-4.187-5.562c-.094-.167-.214-.25-.36-.25-.177 0-.484.156-.921.469-.49.27-.735.656-.735 1.156 0 .354.01.865.031 1.531.021.667.188 1.104.5 1.313.22.146.724.26 1.516.343.49.063.734.245.734.547 0 .24-.039.388-.117.446-.078.057-.284.07-.617.039-1.042-.094-2.802-.042-5.281.156-.625.052-.964-.026-1.016-.234a1.202 1.202 0 01-.031-.313c0-.323.318-.568.953-.734.573-.146.86-.818.86-2.016V7.752c0-.854-.084-1.448-.25-1.781-.23-.427-.709-.76-1.438-1-.344-.115-.516-.276-.516-.485 0-.302.245-.536.735-.703a9.81 9.81 0 002.234-1.078c.573-.375.927-.562 1.063-.563.427 0 .64.271.64.813l-.016 1.547c-.01.76-.015 1.781-.015 3.062l.031 9.782c0 .27.073.406.219.406.156 0 .396-.136.719-.406a85.181 85.181 0 003.187-2.657c.25-.26.375-.468.375-.625 0-.28-.422-.479-1.266-.593-.364-.042-.536-.245-.515-.61.031-.364.213-.52.547-.469.75.105 1.844.162 3.281.172 1 .01 1.995.016 2.984.016.323.01.485.203.485.578 0 .354-.255.547-.766.578a5.797 5.797 0 00-2.266.547c-.99.448-2.046 1.235-3.171 2.36a.283.283 0 00-.125.234c0 .146.177.495.53 1.047 1.303 1.979 2.532 3.474 3.688 4.484.74.636 1.433.953 2.079.953.479 0 .775.034.89.102.115.067.172.247.172.539zm-41.892 5.446c0 .036-.07.074-.21.112-.091.024-.168.108-.23.25-.365.81-.692 1.463-.98 1.959-.005.012-.02.017-.045.015-.022-.002-.037-.009-.045-.021-.049-.073-.173-.327-.374-.763-.184-.4-.283-.601-.298-.601-.022 0-.13.193-.325.58-.22.431-.351.678-.392.738-.006.014-.02.02-.042.018a.061.061 0 01-.052-.024c-.148-.23-.488-.863-1.02-1.896-.062-.121-.13-.198-.204-.23-.13-.057-.195-.099-.195-.125 0-.08.044-.115.13-.107.392.041.734.033 1.028-.024.067-.012.1.01.1.067 0 .079-.045.13-.137.152-.12.028-.179.073-.179.134 0 .038.014.095.043.17.073.188.182.427.328.717.146.29.23.434.255.434.016 0 .102-.15.258-.452.156-.302.234-.47.234-.502a.516.516 0 00-.079-.255c-.063-.134-.136-.214-.219-.24-.133-.047-.2-.092-.2-.137 0-.08.046-.114.137-.1.312.043.642.035.99-.024.067-.012.1.008.1.06 0 .077-.05.125-.149.143-.117.023-.176.082-.176.18 0 .046.013.1.04.164.312.763.492 1.145.54 1.145.019 0 .1-.149.244-.447a5.95 5.95 0 00.322-.768.088.088 0 00.006-.034c0-.087-.068-.155-.204-.203-.105-.035-.158-.073-.158-.116 0-.07.034-.098.1-.082.092.02.256.036.493.046.222.008.37.007.44-.003.083-.01.125.013.125.07zm2.691 1.722c0 .087-.117.196-.352.325a1.718 1.718 0 01-.823.216c-.306 0-.564-.1-.772-.3-.223-.213-.334-.497-.334-.851 0-.401.124-.723.373-.966.233-.227.519-.34.857-.34.2 0 .388.063.562.19a.82.82 0 01.31.39c.018.05.046.079.082.085.053.01.079.045.079.106 0 .083-.1.154-.298.213l-1.4.416c.09.482.338.723.741.723.233 0 .498-.085.796-.255a.257.257 0 01.13-.04c.033 0 .05.03.05.088zm-.72-1.218a.39.39 0 00-.135-.293.47.47 0 00-.333-.126c-.372 0-.559.268-.559.805v.073l.827-.25c.133-.038.2-.108.2-.209zm3.792.365c0 .4-.14.737-.419 1.008a1.318 1.318 0 01-.954.392c-.209 0-.426-.034-.653-.103-.219-.067-.33-.128-.331-.182-.002-.047-.002-.21.003-.49a46.92 46.92 0 00.003-1.77 125.07 125.07 0 01-.006-.888c0-.146-.023-.246-.067-.3-.04-.05-.129-.088-.264-.116-.053-.018-.08-.052-.08-.1 0-.043.04-.078.119-.107.113-.04.254-.108.422-.203.134-.075.217-.113.25-.113.062 0 .094.052.094.155l-.01.316c-.003.19-.005.384-.002.58l.005 1.052c0 .099.035.127.104.085a1.5 1.5 0 01.76-.21c.303 0 .55.092.74.275.191.183.286.423.286.719zm-.486.27c0-.277-.077-.505-.23-.684a.679.679 0 00-.532-.252.89.89 0 00-.426.113c-.14.075-.21.154-.21.237v.814c0 .39.216.586.648.586a.715.715 0 00.544-.217c.137-.145.206-.344.206-.597zm5.402.796a.114.114 0 01.012.04c0 .042-.103.112-.31.21-.239.11-.38.166-.422.166-.036 0-.079-.061-.126-.184-.048-.122-.08-.183-.099-.183l-.345.16c-.232.106-.407.159-.527.159a.961.961 0 01-.696-.289c-.237-.229-.355-.55-.355-.963 0-.346.14-.645.42-.896.246-.221.498-.332.756-.332.182 0 .4.024.653.07.079.014.118-.009.118-.07v-1.039c0-.117-.028-.2-.085-.249a.855.855 0 00-.258-.115c-.065-.024-.097-.064-.097-.119 0-.05.043-.088.13-.112.12-.037.263-.097.429-.182.138-.073.223-.11.255-.11.075 0 .112.052.112.155l-.009.302c-.006.204-.009.402-.009.595v2.761c0 .116.052.173.155.173.039 0 .09-.006.155-.018.071-.012.119.011.143.07zm-.939-.3v-1.088c0-.09-.079-.182-.237-.277a1.04 1.04 0 00-.547-.152c-.423 0-.635.262-.635.784 0 .28.084.519.252.717.169.198.366.298.593.298a.85.85 0 00.364-.103c.14-.07.21-.13.21-.18zm3.573.087c0 .087-.117.196-.352.325a1.718 1.718 0 01-.824.216c-.305 0-.563-.1-.771-.3-.223-.213-.334-.497-.334-.851 0-.401.124-.723.373-.966.233-.227.519-.34.857-.34.2 0 .388.063.562.19a.82.82 0 01.31.39c.018.05.046.079.082.085.053.01.08.045.08.106 0 .083-.1.154-.299.213l-1.4.416c.09.482.338.723.741.723.233 0 .498-.085.796-.255a.256.256 0 01.13-.04c.033 0 .05.03.05.088zm-.72-1.218a.39.39 0 00-.135-.293.47.47 0 00-.333-.126c-.372 0-.559.268-.559.805v.073l.827-.25c.133-.038.2-.108.2-.209zm4.053-.51c0 .038-.064.078-.191.118-.083.024-.154.107-.213.25-.1.238-.272.589-.52 1.05-.208.391-.369.677-.483.857-.006.014-.019.02-.039.018a.06.06 0 01-.045-.024 13.26 13.26 0 01-1.103-1.896c-.065-.137-.129-.214-.192-.23-.117-.047-.176-.089-.176-.125 0-.081.04-.117.118-.107.124.017.307.02.55.013.235-.006.4-.019.496-.037.058-.012.088.01.088.067 0 .07-.042.116-.125.137-.158.042-.237.097-.237.164 0 .03.01.074.03.13.07.17.193.416.371.737s.28.482.304.482c.018 0 .104-.154.258-.462a7.61 7.61 0 00.35-.79.162.162 0 00.015-.067c0-.079-.049-.144-.146-.194-.095-.039-.143-.075-.143-.11 0-.07.032-.1.094-.088.081.014.224.027.429.037.204.01.337.012.398.006.075-.014.112.007.112.064zm2.695 1.728c0 .087-.118.196-.353.325a1.718 1.718 0 01-.823.216c-.306 0-.563-.1-.772-.3-.223-.213-.334-.497-.334-.851 0-.401.124-.723.374-.966.233-.227.518-.34.856-.34.201 0 .388.063.563.19a.82.82 0 01.31.39c.018.05.045.079.081.085.053.01.08.045.08.106 0 .083-.1.154-.298.213l-1.4.416c.09.482.337.723.74.723.233 0 .499-.085.796-.255a.257.257 0 01.131-.04c.032 0 .049.03.049.088zm-.72-1.218a.39.39 0 00-.136-.293.47.47 0 00-.332-.126c-.373 0-.56.268-.56.805v.073l.827-.25c.134-.038.2-.108.2-.209zm2.597 1.641c0 .08-.045.116-.136.106a6.04 6.04 0 00-1.039.012c-.083.008-.134.006-.153-.006-.02-.012-.03-.045-.03-.1 0-.049.056-.09.166-.123.11-.034.166-.133.166-.3v-2.75c0-.163-.024-.284-.071-.36a.463.463 0 00-.251-.18c-.063-.022-.094-.054-.094-.094 0-.06.045-.106.136-.137.138-.044.281-.113.429-.206.121-.073.198-.11.23-.11.076 0 .113.052.113.155l-.012.304c-.006.2-.008.398-.006.593l.012 2.713c0 .123.03.213.091.268.061.056.165.093.313.111.091.01.137.045.137.104zm2.945-1.137c0 .353-.13.651-.392.895a1.37 1.37 0 01-.972.366c-.387 0-.693-.107-.918-.322-.217-.21-.325-.489-.325-.835 0-.359.137-.66.41-.906a1.38 1.38 0 01.951-.355c.395 0 .703.106.924.319.215.206.322.486.322.838zm-.535.186c0-.318-.077-.576-.23-.775a.694.694 0 00-.572-.289.674.674 0 00-.526.227.795.795 0 00-.203.551c0 .348.079.62.237.814a.703.703 0 00.571.268.667.667 0 00.529-.222.84.84 0 00.194-.574zm3.709-.268c0 .38-.127.7-.381.965-.254.264-.55.396-.889.396-.205 0-.402-.036-.592-.109-.02-.008-.03.042-.03.149v.914c0 .148.12.243.36.286.112.02.183.039.212.056.03.017.044.046.044.087 0 .069-.046.1-.137.094a5.254 5.254 0 00-1.12.03c-.068.01-.11.01-.125 0-.017-.01-.025-.037-.025-.082 0-.034.058-.076.173-.124.1-.04.15-.138.15-.292v-2.68c0-.216-.06-.352-.18-.407-.142-.063-.213-.114-.213-.155 0-.044.042-.078.125-.1a1.22 1.22 0 00.331-.14.62.62 0 01.173-.082c.061 0 .11.056.15.167.056.162.093.243.112.243.004 0 .09-.047.26-.142.187-.104.37-.155.548-.155.29 0 .528.082.717.246.225.192.337.47.337.835zm-.516.243c0-.33-.083-.587-.247-.771a.607.607 0 00-.47-.231.653.653 0 00-.402.146.619.619 0 00-.252.525v.86c0 .055.077.113.231.173.166.067.346.1.541.1.399 0 .599-.267.599-.802zm6.007.982c0 .067-.032.098-.095.094a7.309 7.309 0 00-1.155 0c-.079.006-.118-.03-.118-.106 0-.061.054-.094.16-.098.137-.008.204-.118.204-.33v-.809c0-.454-.184-.68-.552-.68a1.32 1.32 0 00-.535.106c-.148.063-.223.125-.225.188l-.012 1.206c0 .126.015.209.045.25.023.028.072.048.15.06.177.03.267.068.267.113 0 .038-.005.064-.016.079-.012.02-.048.029-.109.027-.23-.008-.567-.004-1.009.012-.062.002-.103-.003-.121-.015-.018-.012-.028-.04-.028-.085 0-.053.058-.085.174-.097.125-.014.188-.129.188-.344v-.826c0-.223-.05-.395-.152-.517a.42.42 0 00-.34-.164c-.203 0-.385.041-.547.123-.162.082-.243.17-.243.263v1.11c0 .125.032.212.097.26.059.045.165.072.32.082.082.005.124.033.124.086 0 .058-.034.088-.1.088-.507 0-.873.014-1.1.042a.352.352 0 01-.15 0c-.017-.01-.026-.034-.026-.073 0-.05.074-.094.224-.13.091-.025.137-.143.137-.356v-.933c0-.237-.064-.373-.191-.41a1.109 1.109 0 01-.196-.067c-.024-.014-.035-.037-.035-.07 0-.036.105-.113.316-.23.223-.126.36-.189.41-.189.042 0 .078.062.108.184.029.123.052.184.068.184a.62.62 0 00.185-.094c.126-.08.24-.138.34-.177.167-.064.338-.097.514-.097a.694.694 0 01.568.258l.073.092.158-.091c.124-.071.244-.127.362-.168a1.5 1.5 0 01.501-.09c.555 0 .832.304.832.914v.984c0 .116.028.198.083.246.048.04.143.075.285.104.107.02.161.05.161.09zm2.566-.429c0 .087-.117.196-.352.325a1.718 1.718 0 01-.823.216c-.306 0-.564-.1-.772-.3-.223-.213-.334-.497-.334-.851 0-.401.124-.723.373-.966.233-.227.519-.34.857-.34.2 0 .388.063.562.19a.82.82 0 01.31.39c.018.05.046.079.082.085.053.01.08.045.08.106 0 .083-.1.154-.299.213l-1.4.416c.09.482.338.723.741.723.233 0 .498-.085.796-.255a.257.257 0 01.13-.04c.033 0 .05.03.05.088zm-.72-1.218a.39.39 0 00-.135-.293.47.47 0 00-.333-.126c-.372 0-.559.268-.559.805v.073l.827-.25c.133-.038.2-.108.2-.209zm4.367 1.674c0 .063-.046.091-.137.085a9.428 9.428 0 00-.99-.012c-.116.008-.178-.006-.189-.043a.173.173 0 01-.006-.051c0-.04.06-.077.177-.11.107-.03.16-.134.16-.313v-.808c0-.463-.2-.695-.604-.695-.18 0-.347.042-.501.127-.146.083-.22.17-.22.258v1.112c0 .19.126.297.375.32.095.008.142.038.142.09 0 .051-.013.082-.04.092a.43.43 0 01-.102.003 5.817 5.817 0 00-.985.048.547.547 0 01-.136.01c-.041-.009-.061-.04-.061-.095 0-.048.058-.09.173-.124.107-.033.161-.167.161-.404v-.92c0-.157-.02-.256-.06-.299-.03-.03-.123-.073-.283-.127a.084.084 0 01-.061-.085c0-.04.041-.076.124-.107.114-.042.239-.11.374-.203.114-.077.187-.116.219-.116.055 0 .091.063.11.187.017.125.043.187.075.187-.016 0 .087-.06.31-.178s.443-.177.66-.177c.524 0 .788.298.792.896l.007.978c0 .126.032.216.097.27.048.041.143.075.282.104.091.018.137.052.137.1zm1.95-.231c0 .097-.089.18-.267.25-.158.06-.318.09-.48.09-.44 0-.66-.233-.66-.701v-1.1c0-.14-.01-.226-.033-.257-.022-.031-.096-.062-.222-.093-.032-.008-.048-.04-.048-.094 0-.058.012-.094.036-.106.219-.108.41-.3.571-.577.023-.039.066-.051.13-.037.046.014.069.04.07.08l.013.379c0 .028.005.049.015.06.014.019.047.028.097.028h.678c.038 0 .038.048 0 .143-.047.115-.115.173-.207.173h-.459c-.078 0-.127.013-.145.04-.015.018-.022.067-.022.148v.994c0 .251.023.41.067.477.059.085.196.127.41.127.071 0 .157-.011.259-.035a2.79 2.79 0 01.16-.034c.025 0 .037.015.037.045zm1.379.137c0 .527-.221.923-.665 1.188a.209.209 0 01-.088.036c-.028 0-.055-.032-.08-.097a.169.169 0 01-.011-.055c0-.034.057-.09.173-.17.198-.137.298-.293.298-.468 0-.089-.058-.17-.173-.243-.163-.101-.244-.226-.244-.373 0-.1.034-.182.1-.248a.364.364 0 01.268-.099c.134 0 .238.049.311.146a.616.616 0 01.111.383zm-43.753 4.524c0 .353-.13.651-.392.895a1.37 1.37 0 01-.972.366c-.387 0-.693-.107-.918-.322-.217-.21-.325-.489-.325-.835 0-.359.137-.66.41-.906.266-.237.583-.355.951-.355.395 0 .703.106.924.319.215.206.322.486.322.838zm-.535.186c0-.318-.077-.576-.23-.775a.694.694 0 00-.572-.289.674.674 0 00-.526.227.795.795 0 00-.203.551c0 .348.079.62.237.814a.703.703 0 00.571.268.667.667 0 00.529-.222.84.84 0 00.194-.574zm4.232.984c0 .063-.045.091-.136.085a9.43 9.43 0 00-.99-.012c-.116.008-.179-.006-.19-.043a.169.169 0 01-.005-.051c0-.04.058-.077.176-.11.107-.03.161-.134.161-.313v-.808c0-.463-.201-.695-.605-.695-.18 0-.347.042-.5.127-.147.083-.22.17-.22.258v1.112c0 .19.125.297.374.32.095.008.143.038.143.09 0 .051-.013.082-.04.092a.431.431 0 01-.103.003 5.818 5.818 0 00-.984.048.547.547 0 01-.137.01c-.04-.009-.06-.04-.06-.095 0-.048.057-.09.172-.124.108-.033.161-.167.161-.404v-.92c0-.157-.02-.256-.06-.299-.029-.03-.123-.073-.283-.127a.083.083 0 01-.06-.085c0-.04.04-.076.124-.107.113-.042.238-.11.374-.203.113-.077.186-.116.218-.116.055 0 .091.063.11.187.018.125.043.187.076.187-.017 0 .087-.06.31-.178.222-.118.442-.178.659-.178.524 0 .789.3.793.897l.006.978c0 .126.032.216.097.27.049.041.143.075.283.104.09.018.136.052.136.1zm2.54-.456c0 .087-.117.196-.352.325a1.718 1.718 0 01-.823.216c-.306 0-.564-.1-.772-.3-.223-.213-.334-.497-.334-.851 0-.401.124-.723.373-.966.233-.227.519-.34.857-.34.2 0 .388.063.562.19a.82.82 0 01.31.39c.018.05.046.079.082.085.053.01.08.045.08.106 0 .083-.1.154-.299.213l-1.4.416c.09.482.338.723.741.723.233 0 .498-.085.796-.255a.256.256 0 01.13-.04c.033 0 .05.03.05.088zm-.72-1.218a.39.39 0 00-.135-.293.47.47 0 00-.333-.126c-.372 0-.559.268-.559.805v.073l.827-.25c.133-.038.2-.108.2-.209zm5.585 1.431a.115.115 0 01.012.04c0 .042-.103.112-.31.21-.239.11-.38.166-.422.166-.037 0-.079-.061-.126-.184-.048-.122-.08-.183-.099-.183l-.345.16c-.232.105-.407.159-.527.159a.962.962 0 01-.696-.289c-.236-.229-.355-.55-.355-.963 0-.346.14-.645.42-.896.246-.221.499-.332.756-.332.182 0 .4.024.653.07.079.014.118-.009.118-.07v-1.039c0-.117-.028-.2-.085-.249a.857.857 0 00-.258-.115c-.065-.025-.097-.064-.097-.119 0-.05.044-.088.13-.112.12-.037.263-.097.429-.182.138-.073.223-.11.255-.11.075 0 .113.052.113.155l-.01.303a20.1 20.1 0 00-.009.593v2.762c0 .116.052.173.155.173.039 0 .09-.006.155-.018.071-.012.119.011.143.07zm-.939-.3v-1.088c0-.09-.079-.182-.237-.277a1.04 1.04 0 00-.547-.152c-.423 0-.635.262-.635.784 0 .28.084.518.253.717.168.198.365.298.592.298a.85.85 0 00.365-.104c.14-.068.21-.128.21-.179zm3.233-1.556c0 .245-.071.367-.213.367-.022 0-.096-.014-.222-.042a1.41 1.41 0 00-.276-.043c-.227 0-.34.153-.34.459v.896c0 .106.036.18.109.225.042.026.149.062.319.106.091.023.137.057.137.104 0 .054-.008.087-.023.099-.016.01-.053.013-.114.007-.446-.047-.798-.048-1.057-.006-.082.014-.133.014-.155 0-.019-.012-.028-.048-.028-.106 0-.055.056-.099.169-.131.112-.032.169-.13.169-.292v-.975c0-.128-.017-.214-.05-.258-.034-.045-.126-.105-.276-.18l-.018-.008c-.04-.02-.06-.05-.06-.086 0-.04.04-.075.124-.103.14-.048.267-.117.383-.206.095-.075.156-.113.182-.113.073 0 .117.063.13.188.019.16.04.24.064.24.002 0 .116-.075.34-.227.149-.1.31-.15.487-.15.146 0 .219.079.219.235zm3.01.929c0 .353-.13.651-.392.895a1.37 1.37 0 01-.972.366c-.387 0-.693-.107-.918-.322-.216-.21-.325-.489-.325-.835 0-.359.137-.66.41-.906.266-.237.583-.355.951-.355.396 0 .703.106.924.319.215.206.322.486.322.838zm-.535.186c0-.318-.077-.576-.23-.775a.694.694 0 00-.572-.289.674.674 0 00-.525.227.795.795 0 00-.204.551c0 .348.08.62.237.814a.703.703 0 00.571.268.667.667 0 00.529-.222.84.84 0 00.194-.574zm3.71-.268c0 .38-.127.7-.381.965-.254.264-.55.396-.889.396-.204 0-.402-.036-.592-.109-.02-.008-.03.042-.03.149v.914c0 .148.12.243.361.286.111.02.182.039.211.056.03.017.044.046.044.087 0 .069-.045.1-.136.094a5.247 5.247 0 00-1.122.03c-.066.01-.108.01-.124 0s-.024-.037-.024-.082c0-.034.057-.076.173-.124.099-.04.149-.138.149-.292v-2.68c0-.216-.06-.352-.18-.407-.141-.063-.212-.114-.212-.155 0-.044.041-.078.124-.1.108-.026.218-.073.331-.14a.62.62 0 01.174-.082c.06 0 .11.056.148.167.057.162.095.243.113.243.004 0 .091-.047.261-.142.186-.104.369-.155.547-.155.29 0 .529.082.717.246.225.192.337.47.337.835zm-.516.243c0-.33-.082-.587-.246-.771a.607.607 0 00-.471-.231.652.652 0 00-.401.146.619.619 0 00-.252.525v.86c0 .055.076.112.23.173.167.067.347.1.541.1.4 0 .599-.267.599-.802zm5.019.773c0 .042-.078.106-.233.192-.155.086-.279.13-.372.13-.079 0-.149-.04-.21-.116-.06-.077-.103-.116-.127-.116-.018 0-.115.042-.289.125-.174.083-.35.124-.525.124a.61.61 0 01-.417-.145.554.554 0 01-.182-.438c0-.35.401-.602 1.203-.753.138-.027.208-.083.21-.168l.006-.194c.012-.332-.135-.498-.44-.498-.088 0-.17.078-.248.234-.078.156-.19.24-.336.252-.166.016-.25-.054-.25-.21 0-.097.124-.21.372-.34.259-.136.508-.204.747-.204.411 0 .615.196.61.587l-.012 1.252c-.002.131.054.197.168.197a.99.99 0 00.127-.015c.063-.01.1-.015.11-.015.058 0 .088.04.088.118zm-.936-.694c.002-.05-.01-.084-.035-.1s-.065-.02-.12-.009c-.488.087-.732.246-.732.477 0 .233.126.35.38.35.1 0 .205-.02.313-.058.125-.045.188-.099.188-.161l.006-.499zm2.978.699c0 .097-.089.18-.267.25-.158.06-.318.09-.48.09-.44 0-.66-.233-.66-.701v-1.1c0-.14-.01-.225-.033-.257-.022-.031-.096-.062-.222-.093-.032-.008-.048-.04-.048-.094 0-.059.012-.094.036-.106.219-.108.41-.3.571-.577.023-.039.066-.051.13-.037.045.014.069.04.07.08l.013.379c0 .028.005.048.015.06.014.019.047.028.097.028h.678c.038 0 .038.048 0 .143-.047.115-.116.173-.207.173h-.459c-.078 0-.127.013-.145.04-.014.018-.022.067-.022.148v.994c0 .251.023.41.067.477.059.085.196.127.41.127.071 0 .157-.011.259-.035.1-.023.155-.034.16-.034.025 0 .037.015.037.045zm4.399-.005c0 .042-.077.106-.232.192-.155.086-.28.13-.373.13-.079 0-.148-.04-.21-.116-.06-.077-.102-.116-.127-.116-.018 0-.114.042-.288.125-.175.083-.35.124-.526.124a.61.61 0 01-.416-.145.554.554 0 01-.183-.438c0-.35.401-.602 1.204-.753.137-.027.207-.083.21-.168l.005-.194c.013-.332-.134-.498-.44-.498-.087 0-.17.078-.248.234-.078.156-.19.24-.336.252-.166.016-.249-.054-.249-.21 0-.097.124-.21.371-.34a1.61 1.61 0 01.747-.204c.412 0 .615.196.611.587l-.012 1.252c-.002.131.054.197.167.197a.99.99 0 00.128-.015c.062-.01.099-.015.109-.015.059 0 .088.04.088.118zm-.936-.694c.002-.05-.01-.084-.035-.1s-.065-.02-.12-.009c-.488.087-.732.246-.732.477 0 .233.127.35.38.35.101 0 .206-.02.313-.058.126-.045.188-.099.188-.161l.006-.499zm4.522.699c0 .097-.09.18-.268.25-.158.06-.318.09-.48.09-.44 0-.66-.233-.66-.701v-1.1c0-.14-.01-.225-.033-.257-.022-.031-.096-.062-.221-.093-.033-.008-.049-.04-.049-.094 0-.059.012-.094.036-.106.22-.108.41-.3.572-.577.022-.039.066-.051.13-.037.045.014.068.04.07.08l.012.379c0 .028.005.048.016.06.014.019.046.028.097.028h.677c.039 0 .039.048 0 .143-.046.115-.115.173-.206.173h-.46c-.078 0-.127.013-.145.04-.014.018-.021.067-.021.148v.994c0 .251.022.41.067.477.058.085.195.127.41.127.07 0 .157-.011.258-.035.101-.023.155-.034.161-.034.024 0 .037.015.037.045zm1.521-3.229c0 .093-.035.18-.105.26-.07.08-.146.12-.229.12a.329.329 0 01-.234-.086.29.29 0 01-.091-.221c0-.09.037-.173.11-.25a.328.328 0 01.24-.115c.206 0 .31.097.31.292zm.337 3.439c-.01.059-.034.092-.073.1-.01.002-.058 0-.145-.006a5.43 5.43 0 00-.89.012c-.08.008-.13.005-.15-.009-.02-.014-.03-.047-.03-.097 0-.047.054-.085.161-.116.118-.034.177-.146.177-.337v-.796c0-.16-.017-.272-.05-.337-.044-.09-.136-.157-.276-.204-.062-.022-.094-.055-.094-.1 0-.059.046-.102.137-.13.17-.053.321-.123.453-.21.105-.073.17-.11.194-.11.081 0 .12.053.119.158a95.857 95.857 0 00-.013 1.623c0 .132.02.226.058.282.043.063.124.108.243.134.132.03.192.078.18.143zm5.351-.006c0 .067-.032.098-.095.094a7.309 7.309 0 00-1.154 0c-.08.006-.119-.03-.119-.106 0-.061.054-.094.161-.098.136-.008.204-.118.204-.33v-.809c0-.454-.184-.68-.553-.68a1.32 1.32 0 00-.535.106c-.148.063-.223.125-.225.188l-.012 1.206c0 .126.015.209.046.25.022.028.072.048.149.06.178.03.267.068.267.113 0 .038-.005.065-.015.079-.012.02-.049.029-.11.027a15.2 15.2 0 00-1.008.012c-.063.002-.103-.003-.122-.015-.018-.012-.027-.04-.027-.085 0-.053.058-.085.173-.097.126-.014.188-.129.188-.344v-.826c0-.223-.05-.395-.151-.517a.42.42 0 00-.34-.164c-.203 0-.386.041-.548.123-.162.082-.243.17-.243.263v1.11c0 .125.033.212.098.26.058.045.165.072.319.083.083.004.124.032.124.085 0 .058-.033.088-.1.088-.507 0-.873.014-1.1.042-.077.01-.126.01-.149 0-.018-.01-.027-.034-.027-.073 0-.05.075-.094.225-.13.09-.025.136-.143.136-.356v-.933c0-.236-.063-.373-.191-.41a1.109 1.109 0 01-.196-.066c-.023-.015-.035-.038-.035-.07 0-.037.105-.114.316-.231.223-.126.36-.189.41-.189.043 0 .079.062.108.184.03.123.052.184.068.184.023 0 .084-.031.186-.094a1.93 1.93 0 01.34-.177c.166-.064.337-.097.514-.097a.695.695 0 01.568.258l.073.092.157-.091a2.19 2.19 0 01.362-.168 1.5 1.5 0 01.501-.09c.555 0 .833.304.833.914v.984c0 .116.027.198.082.246.049.04.144.075.285.104.108.02.162.05.162.09zm2.567-.429c0 .087-.118.196-.353.325a1.718 1.718 0 01-.823.216c-.306 0-.563-.1-.772-.3-.223-.213-.334-.497-.334-.851 0-.401.125-.723.374-.966.233-.227.518-.34.856-.34.201 0 .388.063.563.19a.82.82 0 01.31.39c.018.05.045.079.082.085.052.01.078.045.078.106 0 .083-.099.154-.297.213l-1.4.416c.09.482.337.723.74.723.233 0 .499-.085.796-.255a.257.257 0 01.131-.04c.032 0 .049.03.049.088zm-.72-1.218a.39.39 0 00-.135-.293.47.47 0 00-.333-.126c-.373 0-.56.268-.56.805v.073l.827-.25c.134-.038.2-.108.2-.209z" fill="#fff"/></svg>