<svg width="94" height="32" fill="none" xmlns="http://www.w3.org/2000/svg"><path d="M17.954 19.133a3.163 3.163 0 100-6.326 3.163 3.163 0 000 6.326z" fill="#00D8FF"/><path clip-rule="evenodd" d="M17.955 9.539c4.247 0 8.192.61 11.167 1.633 3.584 1.234 5.788 3.105 5.788 4.798 0 1.765-2.336 3.752-6.185 5.027-2.91.964-6.739 1.468-10.77 1.468-4.133 0-8.047-.473-10.99-1.478C3.242 19.714 1 17.702 1 15.97c0-1.68 2.104-3.535 5.638-4.767 2.986-1.041 7.028-1.664 11.317-1.664h0z" stroke="#00D8FF" stroke-width="1.663"/><path clip-rule="evenodd" d="M12.357 12.773c2.121-3.679 4.62-6.792 6.993-8.857 2.86-2.489 5.58-3.463 7.048-2.617 1.529.881 2.083 3.897 1.265 7.868-.618 3.003-2.095 6.571-4.11 10.063-2.064 3.58-4.429 6.735-6.77 8.782-2.962 2.589-5.826 3.526-7.325 2.661-1.455-.838-2.012-3.589-1.314-7.265.59-3.107 2.07-6.92 4.212-10.635h0z" stroke="#00D8FF" stroke-width="1.663"/><path clip-rule="evenodd" d="M12.362 19.24c-2.128-3.675-3.576-7.395-4.181-10.483-.728-3.72-.213-6.564 1.252-7.413 1.528-.884 4.418.142 7.45 2.834 2.292 2.035 4.646 5.097 6.665 8.586 2.071 3.577 3.623 7.2 4.227 10.25.764 3.86.146 6.81-1.353 7.677-1.453.841-4.114-.05-6.95-2.49-2.397-2.063-4.961-5.25-7.11-8.961v0z" stroke="#00D8FF" stroke-width="1.663"/><path fill-rule="evenodd" clip-rule="evenodd" d="M53.066 24.052l-3.877-5.858c1.96-.173 3.725-1.592 3.725-4.186 0-2.64-1.873-4.328-4.5-4.328h-5.77v14.36h1.787v-5.706h2.864l3.66 5.707 2.111.01zM48.2 16.774h-3.768v-5.49H48.2c1.702 0 2.864 1.118 2.864 2.734 0 1.615-1.163 2.758-2.864 2.758v-.002zm11.52 7.535c1.702 0 3.1-.56 4.134-1.592l-.775-1.056c-.82.84-2.024 1.313-3.208 1.313-2.24 0-3.618-1.636-3.747-3.595h8.418v-.41c0-3.12-1.852-5.576-4.996-5.576-2.972 0-5.124 2.433-5.124 5.447 0 3.252 2.218 5.461 5.297 5.461v.008zm3.23-6.116h-6.825c.086-1.592 1.183-3.467 3.402-3.467 2.369 0 3.402 1.917 3.423 3.467zm12.318 5.858v-7.149c0-2.52-1.83-3.51-4.027-3.51-1.701 0-3.036.56-4.155 1.723l.754 1.119c.925-.99 1.938-1.443 3.187-1.443 1.507 0 2.627.797 2.627 2.197v1.873c-.84-.97-2.024-1.422-3.445-1.422-1.766 0-3.64 1.099-3.64 3.424 0 2.26 1.872 3.445 3.64 3.445 1.4 0 2.584-.495 3.445-1.442v1.183l1.614.002zm-4.478-.905c-1.507 0-2.563-.946-2.563-2.26 0-1.336 1.056-2.283 2.563-2.283 1.141 0 2.239.43 2.864 1.292v1.96c-.624.86-1.723 1.292-2.864 1.292zm12.286 1.163c1.895 0 3.015-.775 3.812-1.808l-1.077-.99c-.689.925-1.572 1.356-2.64 1.356-2.217 0-3.594-1.723-3.594-4.027 0-2.303 1.378-4.004 3.595-4.004 1.077 0 1.96.41 2.64 1.356l1.076-.99c-.797-1.034-1.917-1.808-3.812-1.808-3.1 0-5.19 2.369-5.19 5.447 0 3.101 2.09 5.461 5.19 5.461v.007zm8.7 0c.947 0 1.53-.28 1.94-.667l-.474-1.206c-.216.237-.637.43-1.098.43-.71 0-1.056-.559-1.056-1.334v-6.46h2.111v-1.42h-2.111v-2.843h-1.616v2.842H87.75v1.422h1.722v6.805c0 1.55.776 2.433 2.305 2.433v-.002z" fill="#00D8FF"/></svg>