<svg width="81" height="30" fill="none" xmlns="http://www.w3.org/2000/svg"><g clip-path="url(#clip0_454_2377)"><path d="M16.35 12.566v-7.83L11.837.662H5.182L.742 4.66l-.079-.017v20.272l.08-.017 4.439 4.439h6.654l4.515-4.515v-7.834h-5.69v6.672H6.543V5.898h4.116v6.668h5.69z" fill="#FBCD01"/><path d="M12.11 30H4.909L.53 25.627l-.53.124V3.807l.553.128L4.926 0h7.167l4.921 4.44v8.79H9.997V6.561h-2.79v16.434h2.79V16.33h7.017v8.77l-4.903 4.903V30zm-6.658-1.326h6.106l4.125-4.126v-6.897H11.32v6.667H5.881V5.235h5.442v6.668h4.364V5.027l-4.103-3.7h-6.15l-4.108 3.7v19.517l4.13 4.13h-.004z" fill="#000"/><path d="M25.8.92h-5.925v23.898" fill="#FBCD01"/><path d="M20.538 24.818h-1.326V.256H25.8v1.327h-5.262v23.235z" fill="#000"/><path d="M29.841.92v22.744H25.8V.92h-5.925v23.898l4.39 4.39h7.111l4.39-4.39V.92h-5.924z" fill="#FBCD01"/><path d="M31.65 29.872h-7.627l-.226-.195-4.585-4.585V.256h7.251v22.745h2.715V.256h7.251v24.836l-4.78 4.78zm-7.11-1.327h6.56l4.002-4.001V1.583h-4.599v22.744h-5.367V1.583h-4.599v22.96l4.002 4.002z" fill="#000"/><path d="M39.188.92v28.288H51.44V24.15h-6.57V.92h-5.682z" fill="#FBCD01"/><path d="M52.103 29.872H38.524V.256h7.013v23.231h6.566v6.385zM39.85 28.545h10.925v-3.731H44.21V1.583h-4.36V28.55v-.005z" fill="#000"/><path d="M52.028.92v4.8h3.922v23.49h5.88V5.72h3.918V.92h-13.72z" fill="#FBCD01"/><path d="M62.494 29.872h-7.207V6.385h-3.922V.256h15.051v6.129h-3.922v23.487zm-5.88-1.327h4.554V5.058h3.922V1.583H52.692v3.475h3.922v23.487z" fill="#000"/><path d="M70.064 2.976l4.899-.491V9.25h4.51v4.31h-4.705v10.095s-.097 1.764 1.765 1.57c1.861-.195 2.94 0 2.94 0v3.983h-6.177s-3.56.195-3.56-3.559V13.366H66.24V9.347h3.577l.248-6.371z" fill="#FBCD01"/><path d="M73.194 29.876c-.398 0-1.853-.075-2.931-1.096-.788-.743-1.186-1.8-1.186-3.13V14.03H65.58V8.684h3.604l.243-6.31 6.203-.619v6.832h4.51v5.637h-4.704v9.431c-.005.16.03.544.247.743.16.146.425.203.783.163 1.937-.203 3.082 0 3.13.01l.544.097v5.2h-6.942l-.004.008zm-6.292-17.169H70.4v12.947c0 .946.256 1.675.764 2.157.823.787 2.087.739 2.1.739h5.545v-2.724a13.34 13.34 0 00-2.206.062c-.964.102-1.53-.23-1.844-.526-.694-.659-.659-1.632-.654-1.738V12.898h4.704V9.913H74.3V3.219l-3.599.358-.247 6.433h-3.55v2.697z" fill="#000"/></g><defs><clipPath id="clip0_454_2377"><path fill="#fff" d="M0 0h80.136v30H0z"/></clipPath></defs></svg>