<svg width="123" height="30" fill="none" xmlns="http://www.w3.org/2000/svg"><path d="M15.084 3.26H8.81v19.435H6.26V3.26H0V.953h15.084V3.26z" fill="#007ACC"/><path d="M24.985 7.171L17.844 25.18C16.572 28.392 14.782 30 12.475 30c-.647 0-1.186-.065-1.621-.198v-2.23c.534.181 1.026.272 1.47.272 1.255 0 2.195-.746 2.82-2.242l1.242-2.941-6.063-15.49h2.76l4.2 11.945c.052.15.155.548.32 1.181h.09c.051-.24.15-.625.302-1.15L22.406 7.17h2.579zm4.066 13.282h-.06v9.383h-2.488V7.171h2.488v2.73h.06c1.225-2.061 3.01-3.092 5.37-3.092 2 0 3.561.694 4.682 2.083 1.121 1.388 1.682 3.251 1.682 5.588 0 2.596-.63 4.68-1.893 6.24-1.264 1.561-2.993 2.342-5.183 2.342-2.014-.005-3.567-.871-4.658-2.61zm-.06-6.261v2.168c0 1.285.418 2.372 1.25 3.27.833.896 1.894 1.34 3.179 1.34 1.505 0 2.686-.578 3.54-1.729.854-1.151 1.28-2.755 1.28-4.804 0-1.729-.4-3.083-1.198-4.062-.798-.979-1.88-1.47-3.243-1.47-1.444 0-2.609.504-3.488 1.509-.88 1-1.32 2.26-1.32 3.777zm26.877 1.362H44.907c.039 1.73.504 3.062 1.393 4.002.888.94 2.113 1.41 3.67 1.41 1.746 0 3.354-.578 4.82-1.73v2.334c-1.362.991-3.17 1.487-5.411 1.487-2.195 0-3.916-.702-5.17-2.113-1.256-1.41-1.88-3.393-1.88-5.95 0-2.415.685-4.386 2.052-5.904 1.371-1.522 3.07-2.281 5.101-2.281s3.6.655 4.713 1.97c1.113 1.316 1.67 3.14 1.67 5.473v1.302h.003zm-2.548-2.109c-.009-1.436-.358-2.552-1.04-3.35-.68-.798-1.63-1.199-2.841-1.199-1.173 0-2.17.418-2.988 1.26-.82.84-1.324 1.935-1.518 3.29h8.387zm4.722 8.37v-3c.315.301.69.577 1.13.819.44.24.901.448 1.388.612.488.164.975.297 1.462.388.492.09.945.138 1.358.138 1.432 0 2.506-.289 3.213-.871.707-.582 1.06-1.419 1.06-2.51 0-.586-.116-1.095-.353-1.53a4.217 4.217 0 00-.979-1.19 9.757 9.757 0 00-1.479-1.031 170.06 170.06 0 00-1.837-1.04 28.52 28.52 0 01-1.94-1.168 8.407 8.407 0 01-1.566-1.303 5.47 5.47 0 01-1.047-1.612c-.255-.6-.38-1.307-.38-2.113 0-.992.198-1.85.595-2.583a5.36 5.36 0 011.57-1.812A6.83 6.83 0 0162.449.95 9.313 9.313 0 0164.98.6c1.962 0 3.39.26 4.287.772v2.864c-1.173-.889-2.682-1.333-4.524-1.333-.509 0-1.017.06-1.526.173a4.08 4.08 0 00-1.359.569c-.396.263-.72.6-.97 1.017-.25.414-.375.919-.375 1.518 0 .557.095 1.035.285 1.44.19.406.47.773.84 1.109.371.332.82.655 1.354.97.53.315 1.143.656 1.837 1.03.712.385 1.389.79 2.027 1.213a9.162 9.162 0 011.678 1.41 6.324 6.324 0 011.142 1.711c.28.626.423 1.346.423 2.152 0 1.07-.194 1.98-.574 2.721a5.029 5.029 0 01-1.552 1.811 6.435 6.435 0 01-2.255 1.01c-.85.206-1.747.31-2.691.31a9.87 9.87 0 01-1.164-.082 15.634 15.634 0 01-1.415-.241 11.272 11.272 0 01-1.367-.393 4.611 4.611 0 01-1.039-.535zm25.291.169c-1.194.715-2.608 1.078-4.243 1.078-2.212 0-4.002-.72-5.36-2.16-1.358-1.441-2.04-3.308-2.04-5.602 0-2.557.734-4.61 2.2-6.162 1.466-1.553 3.42-2.329 5.869-2.329 1.362 0 2.565.254 3.609.759v2.548c-1.151-.81-2.385-1.211-3.7-1.211-1.587 0-2.89.569-3.903 1.707-1.013 1.139-1.522 2.63-1.522 4.48 0 1.82.479 3.256 1.432 4.304.953 1.048 2.238 1.579 3.842 1.579 1.354 0 2.626-.449 3.82-1.35v2.359h-.004zm9.621-12.299c-.436-.332-1.061-.5-1.88-.5-1.061 0-1.95.5-2.661 1.5-.712 1.001-1.07 2.364-1.07 4.093v7.913h-2.487V7.167h2.488v3.2h.06c.354-1.091.893-1.945 1.621-2.553.73-.613 1.54-.919 2.441-.919.647 0 1.143.07 1.488.212v2.578zm2.855-6.455c-.444 0-.824-.151-1.139-.453-.315-.302-.47-.686-.47-1.151 0-.466.155-.85.47-1.16a1.576 1.576 0 011.14-.462c.452 0 .84.156 1.16.462.319.31.478.694.478 1.16 0 .444-.16.823-.478 1.138-.32.306-.708.466-1.16.466zm1.211 19.465h-2.488V7.171h2.488v15.524zm4.011-2.242h-.06v9.383h-2.489V7.171h2.489v2.73h.06c1.225-2.061 3.01-3.092 5.369-3.092 2 0 3.562.694 4.683 2.083 1.121 1.388 1.681 3.251 1.681 5.588 0 2.596-.629 4.68-1.893 6.24-1.263 1.561-2.992 2.342-5.183 2.342-2.014-.005-3.566-.871-4.657-2.61zm-.06-6.261v2.168c0 1.285.418 2.372 1.25 3.27.832.896 1.893 1.34 3.178 1.34 1.505 0 2.687-.578 3.541-1.729.853-1.151 1.28-2.755 1.28-4.804 0-1.729-.401-3.083-1.199-4.062-.797-.979-1.88-1.47-3.242-1.47-1.445 0-2.609.504-3.489 1.509-.88 1-1.319 2.26-1.319 3.777zm21.103 8.352c-.586.324-1.358.483-2.32.483-2.716 0-4.079-1.518-4.079-4.55V9.294h-2.669V7.17h2.669V3.38l2.488-.802V7.17h3.911v2.122h-3.911v8.745c0 1.04.177 1.785.531 2.23.353.444.94.668 1.759.668.625 0 1.169-.173 1.621-.518v2.126z" fill="#007ACC"/></svg>