<svg width="161" height="30" fill="none" xmlns="http://www.w3.org/2000/svg"><g clip-path="url(#clip0_453_2364)" fill="#fff"><path d="M79.758 26.98c.037-.133.074-.268.114-.407.037-.14.077-.283.114-.43.132-.509.267-.996.403-1.47.139-.472.278-.96.425-1.462h1.067a927.72 927.72 0 01-.77 2.343c-.253.777-.51 1.554-.77 2.335h-1.224c-.257-.781-.514-1.558-.766-2.335l-.76-2.343h1.068c.146.506.285.997.425 1.466.139.473.275.96.41 1.463.037.136.07.275.107.414.033.14.07.283.106.422h.048l.003.004zm3.607.912v-4.677h.994v4.677h-.994zm6.287-3.244c0 .169-.026.337-.08.51a1.31 1.31 0 01-.737.806 1.698 1.698 0 01-.704.132h-.85l.006 1.796h-1.011v-4.677h1.774c.535 0 .935.128 1.202.388.268.26.4.609.4 1.049v-.004zm-2.372-.726v1.489h.66c.092 0 .18-.015.26-.037a.547.547 0 00.22-.125.67.67 0 00.154-.23.9.9 0 00.059-.349c0-.268-.07-.458-.21-.575a.795.795 0 00-.52-.173h-.627.004zm7.61-.795c.231 0 .477.022.74.07.265.047.51.135.741.26l-.26.678a2.75 2.75 0 00-.675-.187 4.474 4.474 0 00-.583-.044c-.212 0-.38.051-.502.15-.12.1-.183.25-.183.448 0 .091.026.164.077.227a.685.685 0 00.209.161c.088.044.183.084.297.117.11.033.227.063.348.088.158.04.33.088.513.143.184.055.352.136.51.239.157.106.286.241.388.414.103.172.154.396.154.67 0 .444-.165.789-.487 1.03-.326.243-.818.363-1.474.363-.117 0-.249-.007-.392-.021a4.94 4.94 0 01-.44-.066 3.846 3.846 0 01-.876-.29l.257-.708a3.8 3.8 0 00.89.253c.264.037.473.055.63.055.276 0 .485-.047.628-.139.139-.091.209-.253.209-.48a.512.512 0 00-.055-.25.492.492 0 00-.158-.168 1.022 1.022 0 00-.246-.12c-.095-.034-.198-.063-.311-.096a26.936 26.936 0 01-.66-.18 2.223 2.223 0 01-.55-.242 1.128 1.128 0 01-.377-.377 1.12 1.12 0 01-.14-.587c0-.425.15-.77.448-1.03.296-.26.74-.392 1.326-.392l.004.01zm6.243 4.765v-2.078h-1.815v2.082h-1.011v-4.67h1.011v1.862h1.815v-1.862h1.012v4.67h-1.012v-.004zm7.108-2.338c0 .344-.044.663-.136.956a2.206 2.206 0 01-.407.763 1.87 1.87 0 01-.674.506 2.288 2.288 0 01-.942.183c-.382 0-.712-.059-.987-.172a1.762 1.762 0 01-.681-.488 2.037 2.037 0 01-.4-.755 3.52 3.52 0 01-.128-.975c0-.337.04-.649.124-.946a2.15 2.15 0 01.393-.773 1.83 1.83 0 01.678-.525c.275-.128.608-.19 1.001-.19.392 0 .722.066.997.194s.498.304.67.524c.173.22.297.477.378.766.081.294.121.605.121.935l-.007-.003zm-1.067.014c0-.212-.015-.421-.044-.627a1.769 1.769 0 00-.165-.55 1.025 1.025 0 00-.334-.392.949.949 0 00-.553-.15c-.227 0-.422.048-.568.147a1.046 1.046 0 00-.352.385 1.62 1.62 0 00-.176.55 4.142 4.142 0 00-.048.645c0 .531.084.938.257 1.227.168.29.465.433.887.433.194 0 .363-.04.502-.125a.985.985 0 00.341-.352c.084-.15.15-.326.191-.527a3.4 3.4 0 00.062-.664zm2.782 2.324v-4.677h3.222v.707h-2.21v1.192h1.855v.667h-1.855v1.4h2.306v.715h-3.318v-.004zm6.679-4.765c.231 0 .477.022.741.07.263.047.509.135.74.26l-.26.678a2.744 2.744 0 00-.675-.187 4.472 4.472 0 00-.583-.044c-.212 0-.381.051-.502.15-.121.1-.183.25-.183.448 0 .091.026.164.077.227a.681.681 0 00.209.161c.084.044.183.084.297.117.11.033.227.063.352.088.157.04.33.088.513.143.183.055.352.136.509.239.158.106.286.241.389.414.103.172.154.396.154.67 0 .444-.165.789-.491 1.03-.327.243-.818.363-1.474.363-.117 0-.249-.007-.392-.021a4.926 4.926 0 01-.44-.066 3.827 3.827 0 01-.876-.29l.26-.708c.33.133.627.217.891.253.264.037.473.055.63.055.275 0 .484-.047.627-.139.14-.091.213-.253.213-.48a.507.507 0 00-.055-.25.493.493 0 00-.158-.168 1.014 1.014 0 00-.245-.12c-.096-.034-.198-.063-.312-.096a26.936 26.936 0 01-.66-.18 2.23 2.23 0 01-.55-.242 1.125 1.125 0 01-.377-.377c-.092-.15-.139-.349-.139-.587 0-.425.15-.77.443-1.03.297-.26.741-.392 1.331-.392l-.004.01zm5.465 1.983v.667h28.105a.975.975 0 100-.66H122.1v-.007zm-48.189 0v.667H45.803a.975.975 0 110-.66h28.104l.004-.007zm81.573-6.84h-6.716v-.667c.151-.008.378-.026.675-.048.301-.022.506-.059.619-.103.209-.088.352-.198.433-.337.077-.14.114-.319.114-.531v-8.59a1.1 1.1 0 00-.11-.512c-.074-.15-.22-.268-.433-.36a3.515 3.515 0 00-.605-.176 6.206 6.206 0 00-.689-.124v-.664h6.716v.664c-.169.018-.385.04-.638.073a3.429 3.429 0 00-.649.136c-.22.073-.37.19-.444.344a1.19 1.19 0 00-.113.532v8.578c0 .205.04.377.117.524.077.146.224.26.44.352.121.051.319.102.59.15.275.048.51.077.697.088v.667l-.004.004zm-7.577-11.444c-.161.018-.389.05-.685.095a1.763 1.763 0 00-.803.333c-.209.154-.363.418-.447.789-.088.373-.132.92-.132 1.642v8.65h-1.522l-7.544-9.358v5.682c0 .704.048 1.24.143 1.61.092.366.246.634.455.806.154.124.399.234.733.333.334.096.601.162.803.195v.667h-5.206v-.667c.22-.015.473-.059.763-.121.286-.063.528-.165.718-.305.22-.165.378-.414.459-.747.08-.334.124-.895.124-1.68V9.015c0-.282-.047-.554-.135-.807a1.671 1.671 0 00-.415-.652 2.256 2.256 0 00-.689-.458 4.56 4.56 0 00-.883-.26v-.682h4.556l6.624 8.192V9.765c0-.73-.047-1.272-.146-1.627-.096-.356-.25-.616-.459-.788-.165-.132-.41-.246-.733-.338a7.502 7.502 0 00-.788-.19v-.664h5.202v.664l.007.004zM132.713 18.27h-6.716v-.667c.15-.008.378-.026.675-.048.3-.022.506-.059.619-.103.209-.088.352-.198.433-.337.077-.14.113-.319.113-.531v-8.59a1.14 1.14 0 00-.11-.512c-.073-.15-.22-.268-.432-.36a3.515 3.515 0 00-.605-.176 6.29 6.29 0 00-.689-.124v-.664h6.715v.664c-.168.018-.384.04-.637.073a3.429 3.429 0 00-.649.136c-.22.073-.37.19-.444.344a1.19 1.19 0 00-.113.532v8.578c0 .205.04.377.117.524.077.146.223.26.44.352.121.051.319.102.59.15.275.048.509.077.696.088v.667l-.003.004zm-13.131-9.003c0-.807-.227-1.4-.678-1.77-.454-.375-1.1-.562-1.935-.562h-.671v5.074h.645c.836 0 1.485-.22 1.946-.66.462-.436.693-1.133.693-2.082zm5.81 9.003h-4.644a72.918 72.918 0 00-2.002-2.936 55.306 55.306 0 00-1.983-2.526h-.469v3.68c0 .206.037.378.114.517.077.143.223.26.44.36.106.047.275.091.506.142.23.048.428.081.593.096v.667h-6.462v-.667c.165-.015.381-.04.652-.07.271-.033.462-.07.576-.117.216-.092.363-.206.432-.349.077-.135.114-.319.114-.531V7.995c0-.205-.033-.378-.095-.513-.063-.136-.213-.257-.451-.36a3.701 3.701 0 00-.645-.19c-.25-.048-.444-.088-.587-.11v-.664h6.793c1.521 0 2.672.235 3.46.712.788.472 1.184 1.195 1.184 2.155 0 .847-.246 1.528-.729 2.045-.488.517-1.228.917-2.222 1.206.389.503.84 1.082 1.356 1.742.514.66 1.049 1.334 1.61 2.02.176.223.418.494.718.817.304.319.576.517.807.594.132.036.297.073.502.102.201.03.344.048.432.048v.671zm-20.839-4.901l-1.756-4.388-1.734 4.388h3.49zm6.36 4.9h-6.598v-.666c.308-.022.67-.077 1.085-.165.418-.088.623-.198.623-.327 0-.047 0-.099-.011-.154a.944.944 0 00-.073-.23l-1.034-2.511h-4.179c-.095.23-.205.505-.319.82-.117.312-.22.59-.304.836-.106.32-.172.547-.19.69-.023.142-.03.241-.03.3 0 .18.135.334.414.462.275.128.733.22 1.378.275v.667h-4.967V17.6c.187-.007.4-.04.635-.088.234-.051.421-.117.56-.202.235-.135.433-.304.594-.506.162-.197.297-.432.403-.707l1.984-4.806c.663-1.602 1.396-3.372 2.195-5.308h1.709a845.889 845.889 0 012.62 6.507 209.3 209.3 0 001.61 3.959c.077.172.168.326.282.465a1.857 1.857 0 001.045.602c.209.047.399.077.572.084v.667l-.004.004zm-14.326-4.086l-.41 4.087H84.809v-.52l7.827-10.807h-2.654c-.54 0-.931.018-1.17.047a2.458 2.458 0 00-.674.191c-.246.092-.513.334-.81.722-.293.392-.69 1.041-1.184 1.95h-.69l.375-3.695h10.535v.52l-7.827 10.804h3.047c.956 0 1.605-.037 1.95-.114.348-.077.597-.216.759-.414.322-.392.623-.825.901-1.294.275-.47.532-.964.763-1.481h.641l-.01.004zm-12.206 0l-.41 4.087H72.602v-.52l7.826-10.807h-2.654c-.539 0-.931.018-1.17.047a2.458 2.458 0 00-.674.191c-.245.092-.513.334-.81.722-.293.392-.69 1.041-1.184 1.95h-.69l.375-3.695h10.535v.52L76.33 17.482h3.046c.957 0 1.606-.037 1.95-.114.348-.077.598-.216.759-.414.323-.392.623-.825.902-1.294.275-.47.531-.964.762-1.481h.642l-.011.004zM71.763 18.27h-6.715v-.667c.15-.008.377-.026.674-.048.3-.022.506-.059.62-.103.209-.088.352-.198.432-.337.077-.14.114-.319.114-.531v-8.59a1.15 1.15 0 00-.11-.512c-.073-.15-.22-.268-.433-.36a3.512 3.512 0 00-.604-.176 6.249 6.249 0 00-.69-.124v-.664h6.716v.664c-.169.018-.385.04-.638.073a3.44 3.44 0 00-.649.136c-.22.073-.37.19-.443.344a1.19 1.19 0 00-.114.532v8.578c0 .205.04.377.117.524.077.146.224.26.44.352.121.051.32.102.59.15.28.048.51.077.697.088v.667l-.004.004zm-7.408-3.882l-.238 3.882H52.962v-.667c.202-.015.433-.044.7-.077a2.87 2.87 0 00.532-.107c.205-.077.348-.19.429-.333.077-.143.12-.326.12-.546V7.995c0-.205-.032-.378-.095-.51-.062-.135-.212-.253-.45-.363a2.826 2.826 0 00-.635-.19 15.9 15.9 0 00-.594-.106v-.664h6.65v.664c-.18.018-.396.04-.645.073-.25.033-.462.077-.645.135-.22.074-.37.191-.444.345a1.19 1.19 0 00-.11.532v7.965c0 .378.022.67.077.887.051.22.15.378.297.477.15.11.355.18.62.209.263.033.63.047 1.096.047.465 0 .898-.025 1.326-.077.43-.055.737-.176.928-.355.29-.29.586-.7.89-1.225a12.85 12.85 0 00.73-1.447h.623l-.007-.004zm-14.688.495c0-.843-.25-1.489-.752-1.94-.502-.447-1.22-.674-2.159-.674-.106 0-.253.007-.433.015-.18.007-.311.014-.395.022v4.432c.05.209.209.388.476.531.264.147.59.216.971.216.675 0 1.228-.227 1.654-.681.421-.455.634-1.096.634-1.921h.004zm-.598-5.81c0-.675-.19-1.195-.568-1.57-.378-.373-.946-.564-1.705-.564-.106 0-.249.007-.421.015-.172.007-.32.014-.447.022v4.49h.443c.92 0 1.602-.216 2.038-.645.436-.432.66-1.012.66-1.745v-.003zm2.746 3.643c.363.25.66.565.887.942.227.378.34.825.34 1.338 0 .616-.131 1.133-.388 1.558-.26.422-.63.76-1.114 1.001-.51.26-1.1.447-1.77.553-.668.107-1.456.165-2.362.165h-6.29v-.667c.176-.014.4-.04.667-.077.264-.036.455-.073.561-.12.21-.085.356-.199.433-.338.077-.136.117-.319.117-.542V7.995c0-.205-.033-.378-.095-.513-.063-.136-.213-.257-.451-.36a3.142 3.142 0 00-.616-.183 11.528 11.528 0 00-.616-.117v-.664h6.58c1.653 0 2.848.228 3.585.682.733.455 1.1 1.13 1.1 2.016 0 .407-.08.77-.25 1.078-.16.312-.399.58-.707.807a4.23 4.23 0 01-1 .546c-.386.15-.8.278-1.243.38v.162a7.25 7.25 0 011.382.293c.476.15.894.349 1.246.587l.004.007z"/><path fill-rule="evenodd" clip-rule="evenodd" d="M8.64 11.07h11.844c2.445 0 4.454-2.008 4.454-4.453 0-2.445-2.01-4.454-4.454-4.454H8.64v8.907zM34.55 30H10.098v-.953a3.565 3.565 0 003.563-3.552v-.876H0v-.953a3.565 3.565 0 003.563-3.552V4.5A3.565 3.565 0 000 .95V0h23.402c3.64 0 6.616 2.977 6.616 6.617a6.593 6.593 0 01-2.122 4.842c2.624.935 4.52 3.45 4.52 6.386 0 3.728-3.05 6.774-6.774 6.774h-6.903v3.215h11.268c1.965-.008 3.886-1.599 4.296-3.564h1.441l-1.195 5.726V30zm-20.888-9.084v-7.683H8.64v9.223h14.087c2.533 0 4.612-2.078 4.612-4.611s-2.079-4.612-4.612-4.612h-3.984v7.683h-5.081zm0-11.385v-.895a3.565 3.565 0 00-3.563-3.552v-.953h12.203v.953a3.567 3.567 0 00-3.563 3.552v.895h-5.08.003zm145.183-6.804a2.097 2.097 0 110 4.194 2.097 2.097 0 010-4.194zm0 .349c-.964 0-1.749.784-1.749 1.748s.785 1.749 1.749 1.749a1.75 1.75 0 001.748-1.749 1.75 1.75 0 00-1.748-1.748zm.498 1.84c.136.091.195.26.242.418.081.282.114.542.301.777h-.444c-.165-.202-.19-.473-.264-.715-.066-.231-.172-.363-.425-.363h-.33v1.078h-.403V3.537h.898c.455 0 .788.26.788.734 0 .27-.124.524-.363.645zm-.92-1.038v.825h.451c.26 0 .422-.158.422-.418s-.165-.41-.429-.41h-.444v.003z"/></g><defs><clipPath id="clip0_453_2364"><path fill="#fff" d="M0 0h160.942v30H0z"/></clipPath></defs></svg>