<svg width="243" height="50" fill="none" xmlns="http://www.w3.org/2000/svg"><path d="M68.5 22.134v1.921h-4.947v3.043h3.791v1.887h-3.791V34h-2.38V22.134H68.5zm2.385 1.326c-.42 0-.771-.13-1.054-.391a1.363 1.363 0 01-.408-1.003c0-.397.136-.725.408-.986a1.463 1.463 0 011.054-.408c.419 0 .765.136 1.037.408.283.26.425.59.425.986 0 .397-.142.731-.425 1.003-.272.26-.618.391-1.037.391zm1.173 1.122V34h-2.38v-9.418h2.38zm5.53-.153c.703 0 1.32.142 1.853.425.533.272.952.629 1.258 1.071v-1.343h2.397v9.486c0 .873-.176 1.649-.527 2.329a3.848 3.848 0 01-1.58 1.632c-.704.408-1.554.612-2.55.612-1.338 0-2.438-.312-3.299-.935-.85-.623-1.332-1.473-1.445-2.55h2.363c.125.43.391.77.8 1.02.418.26.923.391 1.512.391.691 0 1.252-.21 1.683-.629.43-.408.646-1.031.646-1.87v-1.462c-.306.442-.73.81-1.275 1.105-.533.295-1.145.442-1.836.442a4.045 4.045 0 01-2.176-.612c-.657-.408-1.179-.98-1.564-1.717-.374-.748-.56-1.604-.56-2.567 0-.952.186-1.796.56-2.533.385-.737.901-1.303 1.547-1.7a4.162 4.162 0 012.193-.595zm3.111 4.862c0-.578-.113-1.071-.34-1.479a2.326 2.326 0 00-.918-.952 2.406 2.406 0 00-1.24-.34c-.443 0-.85.108-1.225.323-.374.215-.68.533-.918.952-.227.408-.34.895-.34 1.462s.113 1.065.34 1.496c.238.42.544.742.918.969.385.227.793.34 1.224.34.442 0 .856-.108 1.241-.323a2.48 2.48 0 00.918-.952c.227-.42.34-.918.34-1.496zm15.908-4.845c1.156 0 2.085.357 2.788 1.071.714.703 1.071 1.689 1.071 2.958V34h-2.38v-5.202c0-.737-.187-1.298-.561-1.683-.374-.397-.884-.595-1.53-.595s-1.162.198-1.547.595c-.374.385-.561.946-.561 1.683V34h-2.38v-5.202c0-.737-.187-1.298-.561-1.683-.374-.397-.884-.595-1.53-.595-.658 0-1.18.198-1.564.595-.374.385-.561.946-.561 1.683V34h-2.38v-9.418h2.38v1.139a3.184 3.184 0 011.173-.935 3.742 3.742 0 011.598-.34c.736 0 1.394.159 1.972.476a3.223 3.223 0 011.343 1.326c.306-.544.748-.98 1.326-1.309a3.846 3.846 0 011.904-.493zm4.995 4.811c0-.952.187-1.796.561-2.533.385-.737.901-1.303 1.547-1.7a4.16 4.16 0 012.193-.595c.703 0 1.315.142 1.836.425.533.283.958.64 1.275 1.071v-1.343h2.397V34h-2.397v-1.377c-.306.442-.731.81-1.275 1.105-.533.283-1.15.425-1.853.425a4.045 4.045 0 01-2.176-.612c-.646-.408-1.162-.98-1.547-1.717-.374-.748-.561-1.604-.561-2.567zm7.412.034c0-.578-.113-1.071-.34-1.479a2.33 2.33 0 00-.918-.952 2.405 2.405 0 00-1.241-.34c-.442 0-.85.108-1.224.323-.374.215-.68.533-.918.952-.227.408-.34.895-.34 1.462s.113 1.065.34 1.496c.238.42.544.742.918.969.385.227.793.34 1.224.34.442 0 .856-.108 1.241-.323a2.48 2.48 0 00.918-.952c.227-.42.34-.918.34-1.496z" fill="#fff"/><g clip-path="url(#clip0_745_901)"><path d="M16.667 25a8.334 8.334 0 1116.667 0 8.334 8.334 0 01-16.667 0z" fill="#1ABCFE"/><path d="M0 41.667a8.333 8.333 0 018.333-8.334h8.334v8.334a8.333 8.333 0 01-16.667 0z" fill="#0ACF83"/><path d="M16.667 0v16.667H25A8.333 8.333 0 1025 0h-8.333z" fill="#FF7262"/><path d="M0 8.333a8.333 8.333 0 008.333 8.334h8.334V0H8.333A8.333 8.333 0 000 8.333z" fill="#F24E1E"/><path d="M0 25a8.333 8.333 0 008.333 8.333h8.334V16.667H8.333A8.333 8.333 0 000 25z" fill="#A259FF"/></g><defs><clipPath id="clip0_745_901"><path fill="#fff" d="M0 0h33.333v50H0z"/></clipPath></defs></svg>