<svg width="243" height="33" fill="none" xmlns="http://www.w3.org/2000/svg"><path d="M19.636 23.34H8.686L6.45 29.622a.466.466 0 01-.2.286.555.555 0 01-.36.089H.357c-.324 0-.412-.16-.324-.481L9.51 4.732c.089-.267.177-.561.295-.882a8.509 8.509 0 00.176-1.738.25.25 0 01.055-.189.299.299 0 01.18-.105h7.624c.236 0 .354.08.383.214l10.744 27.537c.088.294 0 .428-.295.428H22.52a.479.479 0 01-.294-.07.407.407 0 01-.176-.224l-2.414-6.363zm-9.243-5.427h7.477a35.503 35.503 0 00-.677-1.925 55.9 55.9 0 01-.795-2.3c-.265-.802-.56-1.63-.854-2.46a54.011 54.011 0 01-.794-2.379c-.236-.775-.442-1.443-.648-2.085h-.059a30.462 30.462 0 01-1 3.449c-.442 1.283-.884 2.62-1.354 3.957a49.008 49.008 0 01-1.296 3.743zM35.458 6.634c-.462.01-.92-.067-1.35-.226a3.51 3.51 0 01-1.15-.699 3.32 3.32 0 01-.956-2.432A2.947 2.947 0 0132.242 2c.174-.405.437-.772.772-1.075a3.725 3.725 0 012.5-.925c1.095 0 1.938.317 2.556.925.623.641.955 1.485.928 2.352.017.447-.061.892-.23 1.31-.17.418-.425.8-.754 1.122a3.33 3.33 0 01-1.171.724c-.441.16-.914.228-1.385.201zM32.31 29.575V9.225c0-.265.112-.37.365-.37h5.563c.253 0 .365.131.365.37v20.35c0 .291-.112.423-.365.423h-5.506a.418.418 0 01-.32-.116.365.365 0 01-.102-.307z" fill="#FF9A00"/><path d="M68.449 23.739h-4.726L62.941 26h-2.499l4.267-11.883h2.771L71.747 26h-2.516l-.782-2.261zm-.646-1.904l-1.717-4.964-1.717 4.964h3.434zm4.417-.578c0-.952.187-1.796.56-2.533.386-.737.908-1.303 1.565-1.7a4.163 4.163 0 012.193-.595c.612 0 1.196.136 1.75.408.556.26.998.612 1.327 1.054V13.42h2.414V26h-2.414v-1.394a3.224 3.224 0 01-1.241 1.122c-.533.283-1.15.425-1.853.425a4.045 4.045 0 01-2.176-.612c-.657-.408-1.179-.98-1.564-1.717-.374-.748-.561-1.604-.561-2.567zm7.412.034c0-.578-.113-1.071-.34-1.479a2.325 2.325 0 00-.918-.952 2.406 2.406 0 00-1.241-.34c-.442 0-.85.108-1.224.323-.374.215-.68.533-.918.952-.227.408-.34.895-.34 1.462s.113 1.065.34 1.496c.238.42.544.742.918.969.385.227.793.34 1.224.34a2.5 2.5 0 001.24-.323c.386-.227.692-.544.919-.952.227-.42.34-.918.34-1.496zm8.393 4.862c-.906 0-1.722-.198-2.448-.595a4.464 4.464 0 01-1.717-1.717c-.408-.737-.612-1.587-.612-2.55 0-.963.21-1.813.63-2.55a4.43 4.43 0 011.75-1.7c.737-.408 1.559-.612 2.465-.612.907 0 1.729.204 2.465.612a4.314 4.314 0 011.734 1.7c.431.737.646 1.587.646 2.55 0 .963-.22 1.813-.663 2.55a4.517 4.517 0 01-1.768 1.717c-.736.397-1.564.595-2.482.595zm0-2.074a2.48 2.48 0 001.207-.306c.386-.215.692-.533.918-.952.227-.42.34-.93.34-1.53 0-.895-.238-1.581-.714-2.057a2.279 2.279 0 00-1.717-.731 2.28 2.28 0 00-1.717.731c-.453.476-.68 1.162-.68 2.057s.221 1.587.663 2.074c.454.476 1.02.714 1.7.714zm8.53-6.12a3.42 3.42 0 011.257-1.105c.544-.283 1.162-.425 1.853-.425a4.074 4.074 0 013.723 2.295c.386.725.578 1.57.578 2.533 0 .963-.192 1.819-.578 2.567-.374.737-.889 1.309-1.547 1.717a3.989 3.989 0 01-2.176.612c-.702 0-1.32-.136-1.853-.408a3.683 3.683 0 01-1.258-1.088V26h-2.38V13.42h2.38v4.539zm4.98 3.298c0-.567-.119-1.054-.357-1.462a2.318 2.318 0 00-.918-.952 2.409 2.409 0 00-1.224-.323c-.43 0-.838.113-1.224.34-.374.215-.68.533-.918.952-.226.42-.34.912-.34 1.479 0 .567.114 1.06.34 1.479.238.42.544.742.918.969.386.215.794.323 1.224.323.442 0 .85-.113 1.224-.34.386-.227.692-.55.918-.969.238-.42.357-.918.357-1.496zm12.406-.17c0 .34-.023.646-.068.918h-6.885c.056.68.294 1.213.714 1.598.419.385.935.578 1.547.578.884 0 1.513-.38 1.887-1.139h2.567a4.337 4.337 0 01-1.564 2.244c-.771.578-1.717.867-2.839.867-.907 0-1.723-.198-2.448-.595a4.379 4.379 0 01-1.683-1.717c-.397-.737-.595-1.587-.595-2.55 0-.975.198-1.83.595-2.567a4.148 4.148 0 011.666-1.7c.714-.397 1.535-.595 2.465-.595.895 0 1.694.193 2.397.578a3.991 3.991 0 011.649 1.649c.396.703.595 1.513.595 2.431zm-2.465-.68c-.012-.612-.233-1.1-.663-1.462-.431-.374-.958-.561-1.581-.561-.59 0-1.088.181-1.496.544-.397.351-.641.844-.731 1.479h4.471zm9.613-6.273V26h-2.38V14.134h2.38zm4.221-.714V26h-2.38V13.42h2.38zm10.733 3.162V26h-2.397v-1.19a3.206 3.206 0 01-1.207.969 3.74 3.74 0 01-1.598.34c-.737 0-1.389-.153-1.955-.459a3.411 3.411 0 01-1.343-1.377c-.318-.612-.476-1.337-.476-2.176v-5.525h2.38v5.185c0 .748.187 1.326.561 1.734.374.397.884.595 1.53.595.657 0 1.173-.198 1.547-.595.374-.408.561-.986.561-1.734v-5.185h2.397zm5.442 9.571c-.771 0-1.462-.136-2.074-.408-.612-.283-1.099-.663-1.462-1.139a2.9 2.9 0 01-.578-1.581h2.397c.045.363.221.663.527.901.317.238.708.357 1.173.357.453 0 .805-.09 1.054-.272.261-.181.391-.414.391-.697 0-.306-.159-.533-.476-.68-.306-.159-.799-.329-1.479-.51a13.001 13.001 0 01-1.734-.527 3.084 3.084 0 01-1.156-.833c-.317-.374-.476-.878-.476-1.513 0-.521.147-.997.442-1.428.306-.43.737-.77 1.292-1.02.567-.25 1.23-.374 1.989-.374 1.122 0 2.017.283 2.686.85.669.555 1.037 1.309 1.105 2.261h-2.278a1.196 1.196 0 00-.476-.884c-.272-.227-.64-.34-1.105-.34-.431 0-.765.08-1.003.238a.763.763 0 00-.34.663c0 .317.159.561.476.731.317.159.81.323 1.479.493.68.17 1.241.346 1.683.527a2.87 2.87 0 011.139.85c.329.374.499.873.51 1.496 0 .544-.153 1.031-.459 1.462-.295.43-.725.77-1.292 1.02-.555.238-1.207.357-1.955.357zm7.921-7.616v4.556c0 .317.073.55.221.697.158.136.419.204.782.204h1.105V26h-1.496c-2.006 0-3.009-.975-3.009-2.924v-4.539h-1.122v-1.955h1.122v-2.329h2.397v2.329h2.108v1.955h-2.108zm5.689-.493a3.37 3.37 0 011.19-1.173c.499-.283 1.066-.425 1.7-.425v2.499h-.629c-.748 0-1.314.176-1.7.527-.374.351-.561.963-.561 1.836V26h-2.38v-9.418h2.38v1.462zm3.371 3.213c0-.952.187-1.796.561-2.533.386-.737.901-1.303 1.547-1.7a4.166 4.166 0 012.193-.595c.703 0 1.315.142 1.836.425.533.283.958.64 1.275 1.071v-1.343h2.397V26h-2.397v-1.377c-.306.442-.731.81-1.275 1.105-.532.283-1.15.425-1.853.425a4.048 4.048 0 01-2.176-.612c-.646-.408-1.161-.98-1.547-1.717-.374-.748-.561-1.604-.561-2.567zm7.412.034c0-.578-.113-1.071-.34-1.479a2.318 2.318 0 00-.918-.952 2.405 2.405 0 00-1.241-.34c-.442 0-.85.108-1.224.323-.374.215-.68.533-.918.952-.226.408-.34.895-.34 1.462s.114 1.065.34 1.496c.238.42.544.742.918.969.386.227.794.34 1.224.34.442 0 .856-.108 1.241-.323.386-.227.692-.544.918-.952.227-.42.34-.918.34-1.496zm6.983-2.754v4.556c0 .317.074.55.221.697.159.136.419.204.782.204h1.105V26h-1.496c-2.006 0-3.009-.975-3.009-2.924v-4.539h-1.122v-1.955h1.122v-2.329h2.397v2.329h2.108v1.955h-2.108zm7.492 7.616c-.907 0-1.723-.198-2.448-.595a4.457 4.457 0 01-1.717-1.717c-.408-.737-.612-1.587-.612-2.55 0-.963.209-1.813.629-2.55a4.422 4.422 0 011.751-1.7c.736-.408 1.558-.612 2.465-.612.906 0 1.728.204 2.465.612a4.323 4.323 0 011.734 1.7c.43.737.646 1.587.646 2.55 0 .963-.221 1.813-.663 2.55a4.52 4.52 0 01-1.768 1.717c-.737.397-1.564.595-2.482.595zm0-2.074c.43 0 .833-.102 1.207-.306a2.33 2.33 0 00.918-.952c.226-.42.34-.93.34-1.53 0-.895-.238-1.581-.714-2.057a2.28 2.28 0 00-1.717-.731c-.68 0-1.253.244-1.717.731-.454.476-.68 1.162-.68 2.057s.221 1.587.663 2.074c.453.476 1.02.714 1.7.714zm8.529-6.035c.306-.499.702-.89 1.19-1.173.498-.283 1.065-.425 1.7-.425v2.499h-.629c-.748 0-1.315.176-1.7.527-.374.351-.561.963-.561 1.836V26h-2.38v-9.418h2.38v1.462z" fill="#fff"/></svg>