<svg width="161" height="30" fill="none" xmlns="http://www.w3.org/2000/svg"><path d="M7.022 9.762c-.09.516-.252 1.051-.419 1.629-.314 1.08-.67 2.325-.67 3.585 0 1.26.356 2.506.67 3.586.162.578.328 1.127.419 1.629a.933.933 0 01-.505 1.023c-.385.209-.832.133-1.146-.18L.519 16.203A1.779 1.779 0 010 14.948c0-.46.18-.905.519-1.26L5.37 8.857a.98.98 0 011.146-.18c.405.27.595.673.505 1.085z" fill="#00AEEF"/><path d="M9.837 23.01c.519.09 1.057.25 1.637.416 1.085.313 2.336.668 3.601.668 1.266 0 2.517-.355 3.601-.668.58-.161 1.133-.327 1.637-.417a.94.94 0 011.027.502c.21.384.134.83-.18 1.142l-4.853 4.83a1.793 1.793 0 01-1.265.517 1.84 1.84 0 01-1.265-.516l-4.805-4.846a.97.97 0 01-.181-1.141c.214-.37.614-.578 1.046-.488z" fill="#FFBE0D"/><path d="M20.328 6.977c-.519-.09-1.056-.251-1.637-.417-1.085-.313-2.336-.668-3.601-.668-1.265 0-2.517.355-3.601.668-.58.16-1.133.327-1.637.417a.94.94 0 01-1.027-.502c-.21-.384-.134-.83.18-1.142l4.853-4.83C14.167.18 14.628 0 15.076 0c.461 0 .908.18 1.265.516l4.852 4.831a.97.97 0 01.181 1.142.999.999 0 01-1.046.488z" fill="#FE4A49"/><path d="M23.125 20.21c.09-.516.252-1.052.418-1.63.314-1.08.671-2.325.671-3.585 0-1.26-.357-2.505-.67-3.585-.163-.578-.329-1.127-.42-1.63a.933.933 0 01.505-1.023c.385-.208.832-.132 1.146.18l4.853 4.832c.342.34.518.8.518 1.26 0 .459-.18.904-.518 1.26l-4.853 4.83a.98.98 0 01-1.146.18c-.385-.26-.58-.663-.504-1.089z" fill="#3DDC97"/><path d="M100.716 9.591l-5.104 8.904-.015.029v5.068h-3.663v-5.068l-.014-.029-5.105-8.904h3.825l3.035 5.29.09.162.091-.161 3.035-5.29h3.825zm58.989 0l-5.476 6.176 5.776 7.825h-4.196l-3.949-5.23-1.546 1.72v3.495h-3.601V9.591h3.601v6.077l5.433-6.077h3.958zm-21.669 0v3.07h-7.602v2.386h7.602v3.07h-7.602v2.387h7.602v3.083H126.8V9.591h11.236zm-18.9 0h-12.202v3.07h4.181v10.917h3.854V12.655h4.167V9.59zm-59.361 0v3.287h-5.713c-2.056 0-3.735 1.658-3.735 3.718a3.726 3.726 0 003.735 3.718h5.713v3.287H53.51c-3.825-.014-6.922-3.112-6.922-6.905v-.223c0-3.794 3.097-6.891 6.922-6.891h6.265m16.075.009c2.887 0 5.237 2.34 5.237 5.215v.265a5.23 5.23 0 01-2.188 4.24l-.043.027v.09l2.72 4.135H77.71l-2.14-3.272h-3.23v3.272h-3.645V9.577h7.16m-3.506 7.673h3.154c1.19 0 2.16-.962 2.16-2.15v-.266c0-1.184-.966-2.15-2.16-2.15h-3.154v4.566z" fill="#fff"/></svg>