<svg width="119" height="36" fill="none" xmlns="http://www.w3.org/2000/svg"><g clip-path="url(#clip0_456_2483)" fill="#A4A4A4"><path opacity=".45" d="M19.45 0l-6.486 10.287H0L6.482 0H19.45z"/><path opacity=".6" d="M12.963 10.287h12.969L19.45 0H6.481l6.482 10.287z"/><path opacity=".8" d="M6.482 20.57l6.482-10.283L6.482 0 0 10.287 6.482 20.57z"/><path opacity=".45" d="M6.545 36l6.487-10.287h12.967L19.514 36H6.543z"/><path opacity=".6" d="M13.031 25.713H.062L6.545 36h12.969L13.03 25.713z"/><path opacity=".8" d="M19.513 15.43l-6.482 10.283L19.513 36 26 25.713 19.513 15.43z"/></g><path d="M46.318 27.153c-.793 0-1.456-.17-1.989-.51a3.233 3.233 0 01-1.19-1.411c-.272-.6-.43-1.298-.476-2.091l1.7-.459c.034.487.108.958.221 1.411.125.453.323.827.595 1.122.272.283.652.425 1.14.425.498 0 .872-.136 1.121-.408.26-.283.391-.686.391-1.207 0-.623-.142-1.122-.425-1.496a7.659 7.659 0 00-1.07-1.156l-2.313-2.04c-.453-.397-.788-.827-1.003-1.292-.215-.476-.323-1.06-.323-1.751 0-1.009.29-1.79.867-2.346.578-.555 1.366-.833 2.363-.833.544 0 1.02.074 1.428.221.42.136.765.351 1.037.646.283.295.504.669.663 1.122.17.442.283.963.34 1.564l-1.632.442a6.598 6.598 0 00-.204-1.241c-.102-.385-.283-.691-.544-.918-.25-.238-.612-.357-1.088-.357-.476 0-.85.13-1.122.391-.26.25-.39.623-.39 1.122 0 .42.067.765.203 1.037.147.272.38.55.697.833l2.33 2.04c.52.453.98.997 1.376 1.632.397.623.595 1.366.595 2.227 0 .68-.142 1.27-.425 1.768a2.868 2.868 0 01-1.173 1.122c-.487.26-1.054.391-1.7.391zm11.197 0c-.93 0-1.671-.181-2.227-.544-.555-.363-.952-.878-1.19-1.547-.238-.68-.357-1.473-.357-2.38v-5.219c0-.907.12-1.683.357-2.329.25-.657.646-1.156 1.19-1.496.556-.351 1.298-.527 2.227-.527.93 0 1.666.176 2.21.527.544.351.935.85 1.173 1.496.25.646.374 1.422.374 2.329v5.236c0 .895-.124 1.677-.374 2.346-.238.669-.629 1.19-1.173 1.564-.544.363-1.28.544-2.21.544zm0-1.513c.51 0 .896-.102 1.156-.306.26-.215.437-.51.527-.884.09-.385.136-.833.136-1.343v-6.035c0-.51-.045-.946-.136-1.309-.09-.374-.266-.657-.527-.85-.26-.204-.646-.306-1.156-.306-.51 0-.9.102-1.173.306-.26.193-.436.476-.527.85a5.5 5.5 0 00-.136 1.309v6.035c0 .51.046.958.136 1.343.09.374.267.669.527.884.272.204.663.306 1.173.306zM66.05 27V13.23h1.921v12.393h3.52V27h-5.44zm9.75 0V13.23h1.886V27H75.8zm7.004 0V13.23h2.992c1.02 0 1.825.159 2.414.476a2.6 2.6 0 011.275 1.394c.26.623.39 1.4.39 2.329v5.066c0 .975-.13 1.796-.39 2.465-.25.669-.663 1.179-1.241 1.53-.567.34-1.332.51-2.295.51h-3.145zm1.92-1.377h1.089c.703 0 1.201-.136 1.496-.408.295-.272.47-.669.527-1.19.068-.521.102-1.15.102-1.887v-4.471c0-.714-.045-1.292-.136-1.734-.09-.442-.29-.765-.595-.969-.306-.204-.788-.306-1.445-.306h-1.037v10.965zM94.76 27V13.23h1.888V27H94.76zm8.519 0V14.658h-2.329V13.23h6.511v1.428H105.2V27h-1.921zm10.507 0v-4.862l-2.975-8.908h1.785l2.108 6.647 2.074-6.647h1.802l-2.958 8.908V27h-1.836z" fill="#fff"/><defs><clipPath id="clip0_456_2483"><path fill="#fff" d="M0 0h26v36H0z"/></clipPath></defs></svg>