<svg width="61" height="61" fill="none" xmlns="http://www.w3.org/2000/svg"><circle cx="30.5" cy="30.5" r="30.5" fill="#E94D6E"/><path fill-rule="evenodd" clip-rule="evenodd" d="M33.4 20.45L35.312 23h-8.625l1.913-2.55a.75.75 0 00-1.2-.9l-2.59 3.453c-1.83.075-3.296 1.464-3.7 3.247h19.78c-.404-1.783-1.87-3.172-3.7-3.247L34.6 19.55a.75.75 0 00-1.2.9zm7.571 7.3H21.028c.014.119.032.239.055.358l1.635 8.5c.38 1.975 2.001 3.392 3.881 3.392H35.4c1.88 0 3.502-1.417 3.882-3.392l1.635-8.5c.023-.12.04-.239.054-.358zM26.25 32a.75.75 0 01.75-.75h8a.75.75 0 010 1.5h-8a.75.75 0 01-.75-.75zM28 35.25a.75.75 0 100 1.5h6a.75.75 0 000-1.5h-6z" fill="#fff"/></svg>