<svg width="1336" height="771" viewBox="0 0 1336 771" fill="none" xmlns="http://www.w3.org/2000/svg">
<path d="M1530.26 536.672C1400.15 99.4239 1335.93 -435.439 805.261 -402.858C-368.509 -330.794 -208.23 775.456 138.776 678.476C783.702 498.233 499.709 735.737 1021.35 1152.31C1542.99 1568.89 1692.89 1083.23 1530.26 536.672Z" stroke="url(#paint0_linear_458_2730)" stroke-width="2"/>
<path d="M1495.52 539.766C1375.03 110.173 1320.48 -413.862 801.023 -390.179C-347.931 -337.795 -208.243 746.484 132.593 656.994C766.052 490.672 484.671 718.552 988.369 1133.96C1492.07 1549.37 1646.14 1076.76 1495.52 539.766Z" stroke="url(#paint1_linear_458_2730)" stroke-width="2"/>
<path d="M1461.48 542.394C1350.32 120.649 1305.08 -392.39 796.988 -377.243C-326.828 -343.739 -206.998 718.202 127.52 635.982C749.237 483.174 470.699 701.573 956.624 1115.36C1442.55 1529.14 1600.42 1069.58 1461.48 542.394Z" stroke="url(#paint2_linear_458_2730)" stroke-width="2"/>
<path d="M1428.14 544.573C1326.04 130.86 1289.74 -371.023 793.155 -364.047C-305.22 -348.618 -204.51 690.634 123.548 615.463C733.258 475.756 457.791 684.822 926.121 1096.53C1394.45 1508.23 1555.76 1061.71 1428.14 544.573Z" stroke="url(#paint3_linear_458_2730)" stroke-width="2"/>
<path d="M1395.5 546.319C1302.19 140.818 1274.47 -349.758 789.512 -350.587C-283.138 -352.422 -200.801 663.807 120.659 595.461C718.107 468.438 445.934 668.322 896.859 1077.5C1347.78 1486.68 1512.15 1053.2 1395.5 546.319Z" stroke="url(#paint4_linear_458_2730)" stroke-width="2"/>
<path d="M1363.59 547.651C1278.77 150.532 1259.26 -328.592 786.056 -336.859C-260.604 -355.144 -195.889 637.748 118.842 576C703.783 461.239 435.124 652.099 868.841 1058.3C1302.56 1464.51 1469.61 1044.05 1363.59 547.651Z" stroke="url(#paint5_linear_458_2730)" stroke-width="2"/>
<path d="M1332.39 548.586C1255.78 160.014 1244.12 -307.526 782.779 -322.859C-237.646 -356.775 -189.797 612.482 118.079 557.103C690.279 454.178 425.348 636.174 842.066 1038.97C1258.78 1441.76 1428.16 1034.3 1332.39 548.586Z" stroke="url(#paint6_linear_458_2730)" stroke-width="2"/>
<path d="M1301.93 549.141C1233.23 169.273 1229.05 -286.556 779.674 -308.585C-214.289 -357.31 -182.544 588.034 118.355 538.792C677.589 447.272 416.598 620.571 816.535 1019.52C1216.47 1418.47 1387.8 1023.98 1301.93 549.141Z" stroke="url(#paint7_linear_458_2730)" stroke-width="2"/>
<path d="M1272.2 549.333C1211.13 178.321 1214.06 -265.682 776.734 -294.033C-190.559 -356.741 -174.154 564.429 119.654 521.089C665.709 440.539 408.864 605.313 792.247 999.995C1175.63 1394.68 1348.54 1013.1 1272.2 549.333Z" stroke="url(#paint8_linear_458_2730)" stroke-width="2"/>
<path d="M1243.22 549.181C1189.48 187.167 1199.13 -244.9 773.954 -279.199C-166.482 -355.064 -164.646 541.691 121.961 504.017C654.634 433.999 402.137 590.421 769.203 980.414C1136.27 1370.41 1310.41 1001.7 1243.22 549.181Z" stroke="url(#paint9_linear_458_2730)" stroke-width="2"/>
<path d="M1214.99 548.703C1168.27 195.825 1184.29 -224.209 771.325 -264.081C-142.087 -352.271 -154.047 519.843 125.257 487.598C644.355 427.67 396.403 575.919 747.398 960.809C1098.39 1345.7 1273.39 989.802 1214.99 548.703Z" stroke="url(#paint10_linear_458_2730)" stroke-width="2"/>
<path d="M1187.52 547.917C1147.52 204.303 1169.52 -203.607 768.839 -248.675C-117.4 -348.358 -142.378 498.909 129.523 471.853C634.864 421.568 391.652 561.828 726.829 941.208C1062.01 1320.59 1237.51 977.436 1187.52 547.917Z" stroke="url(#paint11_linear_458_2730)" stroke-width="2"/>
<path d="M1160.8 546.841C1127.23 212.612 1154.83 -183.093 766.494 -232.98C-92.443 -343.323 -129.66 478.91 134.747 456.801C626.159 415.712 387.874 548.169 707.497 921.639C1027.12 1295.11 1202.77 964.626 1160.8 546.841Z" stroke="url(#paint12_linear_458_2730)" stroke-width="2"/>
<path d="M1134.86 545.492C1107.4 220.763 1140.22 -162.664 764.28 -216.992C-67.2448 -337.16 -115.918 459.869 140.908 442.465C618.23 410.119 385.057 534.965 689.398 902.131C993.738 1269.3 1169.18 951.402 1134.86 545.492Z" stroke="url(#paint13_linear_458_2730)" stroke-width="2"/>
<path d="M1109.68 543.889C1088.03 228.769 1125.7 -142.318 762.189 -200.71C-41.8347 -329.867 -101.18 441.807 147.985 428.863C611.068 404.806 383.186 522.236 672.524 882.713C961.862 1243.19 1136.74 937.79 1109.68 543.889Z" stroke="url(#paint14_linear_458_2730)" stroke-width="2"/>
<path d="M1085.28 542.051C1069.13 236.638 1111.26 -122.052 760.217 -184.131C-16.235 -321.441 -85.4651 424.747 155.963 416.016C604.669 399.791 382.25 510.003 656.875 863.412C931.5 1216.82 1105.47 923.817 1085.28 542.051Z" stroke="url(#paint15_linear_458_2730)" stroke-width="2"/>
<path d="M1071.68 541.121C1060.66 245.509 1107.43 -100.752 765.342 -166.067C8.68422 -310.535 -70.6192 410.072 165.457 405.259C604.215 396.313 385.133 499.557 647.998 845.472C910.864 1191.39 1085.46 910.635 1071.68 541.121Z" stroke="url(#paint16_linear_458_2730)" stroke-width="2"/>
<path d="M1038.83 537.743C1032.73 252.016 1082.64 -81.7563 756.593 -150.074C35.4185 -301.183 -51.2168 393.708 174.538 392.663C594.113 390.722 383.126 487.109 629.222 825.275C875.319 1163.44 1046.44 894.903 1038.83 537.743Z" stroke="url(#paint17_linear_458_2730)" stroke-width="2"/>
<path d="M1016.77 535.31C1015.24 259.546 1068.47 -61.7211 754.928 -132.592C61.421 -289.349 -32.7328 379.769 185.096 382.194C589.942 386.7 384.91 476.488 617.208 806.495C849.506 1136.5 1018.69 880.016 1016.77 535.31Z" stroke="url(#paint18_linear_458_2730)" stroke-width="2"/>
<path d="M995.512 532.716C998.221 266.984 1054.39 -41.7581 753.353 -114.806C87.5044 -276.378 -13.378 366.91 196.474 372.554C586.494 383.044 387.573 466.443 606.392 787.943C825.212 1109.44 992.126 864.88 995.512 532.716Z" stroke="url(#paint19_linear_458_2730)" stroke-width="2"/>
<path d="M975.035 529.979C981.671 274.344 1040.4 -21.8643 751.853 -96.7134C113.637 -262.269 6.81624 355.148 208.646 363.761C583.757 379.768 391.094 456.995 596.763 769.649C802.431 1082.3 966.741 849.524 975.035 529.979Z" stroke="url(#paint20_linear_458_2730)" stroke-width="2"/>
<path d="M955.356 527.118C965.601 281.634 1026.5 -2.0389 750.432 -78.3142C139.803 -247.024 27.8323 344.5 221.601 355.831C581.728 376.889 395.467 448.162 588.32 751.637C781.173 1055.11 942.55 833.974 955.356 527.118Z" stroke="url(#paint21_linear_458_2730)" stroke-width="2"/>
<path d="M936.471 524.152C950.008 288.867 1012.71 17.7212 749.078 -59.6065C165.97 -230.644 49.6379 334.985 235.311 348.781C580.393 374.421 400.672 439.963 581.051 733.936C761.431 1027.91 919.551 818.258 936.471 524.152Z" stroke="url(#paint22_linear_458_2730)" stroke-width="2"/>
<path d="M918.381 521.099C934.889 296.054 999.006 37.4184 747.782 -40.5894C192.111 -213.131 72.2047 326.618 249.755 342.627C579.74 372.381 406.691 432.415 574.947 716.572C743.202 1000.73 897.744 802.406 918.381 521.099Z" stroke="url(#paint23_linear_458_2730)" stroke-width="2"/>
<path d="M901.086 517.979C920.248 303.205 985.404 57.055 746.538 -21.262C218.2 -194.488 95.5051 319.416 264.911 337.386C579.758 370.784 413.509 425.538 569.997 699.573C726.484 973.608 877.133 786.446 901.086 517.979Z" stroke="url(#paint24_linear_458_2730)" stroke-width="2"/>
<path d="M884.587 514.809C906.083 310.333 971.903 76.6336 745.338 -1.62328C244.211 -174.716 119.511 313.393 280.756 333.072C580.437 369.645 421.109 419.349 566.191 682.965C711.273 946.58 857.717 770.404 884.587 514.809Z" stroke="url(#paint25_linear_458_2730)" stroke-width="2"/>
<path d="M868.885 511.609C892.396 317.447 958.503 96.156 744.177 18.3265C270.119 -153.821 144.195 308.564 297.269 329.699C581.766 368.979 429.475 413.865 563.52 666.772C697.566 919.68 839.497 754.31 868.885 511.609Z" stroke="url(#paint26_linear_458_2730)" stroke-width="2"/>
<path d="M853.978 508.397C879.184 324.561 945.205 115.625 743.045 38.5885C295.896 -131.806 169.525 304.944 314.426 327.283C583.73 368.799 438.586 409.102 561.97 651.023C685.355 892.944 822.472 738.191 853.978 508.397Z" stroke="url(#paint27_linear_458_2730)" stroke-width="2"/>
<path d="M839.866 505.192C866.448 331.684 932.01 135.044 741.935 59.1629C321.516 -108.675 195.474 302.546 332.203 325.836C586.319 369.122 448.426 405.078 561.531 635.742C674.635 866.407 806.64 722.077 839.866 505.192Z" stroke="url(#paint28_linear_458_2730)" stroke-width="2"/>
<path d="M826.546 502.013C854.184 338.829 918.918 154.415 740.838 80.0502C346.952 -84.4341 222.01 301.384 350.574 325.373C589.517 369.96 458.976 401.809 562.187 620.956C665.398 840.103 791.998 705.994 826.546 502.013Z" stroke="url(#paint29_linear_458_2730)" stroke-width="2"/>
<path d="M814.019 498.878C842.396 346.004 905.933 173.74 739.751 101.249C372.182 -59.0893 249.107 301.467 369.521 325.906C593.316 371.326 470.219 399.309 563.93 606.687C657.64 814.066 778.548 689.969 814.019 498.878Z" stroke="url(#paint30_linear_458_2730)" stroke-width="2"/>
<path d="M802.282 495.805C831.08 353.223 893.055 193.021 738.665 122.76C397.177 -32.6465 276.733 302.809 389.017 327.446C597.701 373.235 482.135 397.594 566.743 592.962C651.352 788.331 766.285 674.032 802.282 495.805Z" stroke="url(#paint31_linear_458_2730)" stroke-width="2"/>
<path d="M791.334 492.814C820.236 360.496 880.285 212.261 737.573 144.583C421.915 -5.11233 304.86 305.42 409.038 330.006C602.659 375.699 494.706 396.68 570.615 579.806C646.524 762.932 755.207 658.211 791.334 492.814Z" stroke="url(#paint32_linear_458_2730)" stroke-width="2"/>
<path d="M781.17 489.922C809.86 367.834 867.623 231.463 736.466 166.717C446.367 23.5057 333.455 309.312 429.56 333.597C608.175 378.731 507.911 396.58 575.53 567.242C643.148 737.903 745.308 642.532 781.17 489.922Z" stroke="url(#paint33_linear_458_2730)" stroke-width="2"/>
<path d="M771.786 487.148C799.949 375.247 855.068 250.63 735.336 189.161C470.508 53.1998 362.486 314.492 450.555 338.229C614.234 382.345 521.729 397.309 581.469 555.294C641.21 713.279 736.582 627.023 771.786 487.148Z" stroke="url(#paint34_linear_458_2730)" stroke-width="2"/>
<path d="M763.182 484.51C790.505 382.748 842.624 269.764 734.18 211.915C494.316 83.9615 391.926 320.971 472.002 343.913C620.825 386.551 536.143 398.881 588.423 543.986C640.703 689.091 729.027 611.713 763.182 484.51Z" stroke="url(#paint35_linear_458_2730)" stroke-width="2"/>
<path d="M755.351 482.027C781.523 390.347 830.291 288.868 732.987 234.978C517.763 115.782 421.743 328.757 493.873 350.658C627.932 391.363 551.13 401.308 596.372 533.341C641.614 665.375 722.636 596.627 755.351 482.027Z" stroke="url(#paint36_linear_458_2730)" stroke-width="2"/>
<path d="M748.288 479.717C772.999 398.054 818.068 307.943 731.749 258.348C540.825 148.652 451.902 337.857 516.143 358.474C635.537 396.791 566.669 404.603 605.299 523.382C643.928 642.162 717.4 581.795 748.288 479.717Z" stroke="url(#paint37_linear_458_2730)" stroke-width="2"/>
<path d="M741.989 477.597C764.929 405.881 805.954 326.995 730.459 282.026C563.476 182.562 482.375 348.279 538.786 367.369C643.628 402.847 582.739 408.78 615.187 514.133C647.634 619.485 713.314 567.242 741.989 477.597Z" stroke="url(#paint38_linear_458_2730)" stroke-width="2"/>
<path d="M736.453 475.686C757.316 413.838 793.956 346.023 729.115 306.008C585.697 217.5 513.132 360.029 561.78 377.35C652.193 409.542 599.323 413.848 626.022 505.613C652.721 597.377 710.374 552.995 736.453 475.686Z" stroke="url(#paint39_linear_458_2730)" stroke-width="2"/>
<path d="M731.669 474C750.151 421.935 782.068 365.031 727.704 330.293C607.459 253.456 544.139 373.112 585.094 388.425C661.211 416.887 616.395 419.821 637.783 497.846C659.171 575.87 708.567 539.082 731.669 474Z" stroke="url(#paint40_linear_458_2730)" stroke-width="2"/>
<defs>
<linearGradient id="paint0_linear_458_2730" x1="476.941" y1="-348.241" x2="972.496" y2="1424.9" gradientUnits="userSpaceOnUse">
<stop stop-color="white" stop-opacity="0.13"/>
<stop offset="1" stop-color="white" stop-opacity="0"/>
</linearGradient>
<linearGradient id="paint1_linear_458_2730" x1="479.113" y1="-341.828" x2="936.392" y2="1399.78" gradientUnits="userSpaceOnUse">
<stop stop-color="white" stop-opacity="0.13"/>
<stop offset="1" stop-color="white" stop-opacity="0"/>
</linearGradient>
<linearGradient id="paint2_linear_458_2730" x1="481.603" y1="-334.942" x2="901.725" y2="1374.37" gradientUnits="userSpaceOnUse">
<stop stop-color="white" stop-opacity="0.13"/>
<stop offset="1" stop-color="white" stop-opacity="0"/>
</linearGradient>
<linearGradient id="paint3_linear_458_2730" x1="484.403" y1="-327.579" x2="868.503" y2="1348.71" gradientUnits="userSpaceOnUse">
<stop stop-color="white" stop-opacity="0.13"/>
<stop offset="1" stop-color="white" stop-opacity="0"/>
</linearGradient>
<linearGradient id="paint4_linear_458_2730" x1="487.497" y1="-319.732" x2="836.721" y2="1322.83" gradientUnits="userSpaceOnUse">
<stop stop-color="white" stop-opacity="0.13"/>
<stop offset="1" stop-color="white" stop-opacity="0"/>
</linearGradient>
<linearGradient id="paint5_linear_458_2730" x1="490.876" y1="-311.395" x2="806.386" y2="1296.77" gradientUnits="userSpaceOnUse">
<stop stop-color="white" stop-opacity="0.13"/>
<stop offset="1" stop-color="white" stop-opacity="0"/>
</linearGradient>
<linearGradient id="paint6_linear_458_2730" x1="494.527" y1="-302.563" x2="777.494" y2="1270.56" gradientUnits="userSpaceOnUse">
<stop stop-color="white" stop-opacity="0.13"/>
<stop offset="1" stop-color="white" stop-opacity="0"/>
</linearGradient>
<linearGradient id="paint7_linear_458_2730" x1="498.438" y1="-293.232" x2="750.047" y2="1244.24" gradientUnits="userSpaceOnUse">
<stop stop-color="white" stop-opacity="0.13"/>
<stop offset="1" stop-color="white" stop-opacity="0"/>
</linearGradient>
<linearGradient id="paint8_linear_458_2730" x1="502.597" y1="-283.396" x2="724.044" y2="1217.83" gradientUnits="userSpaceOnUse">
<stop stop-color="white" stop-opacity="0.13"/>
<stop offset="1" stop-color="white" stop-opacity="0"/>
</linearGradient>
<linearGradient id="paint9_linear_458_2730" x1="506.993" y1="-273.051" x2="699.484" y2="1191.37" gradientUnits="userSpaceOnUse">
<stop stop-color="white" stop-opacity="0.13"/>
<stop offset="1" stop-color="white" stop-opacity="0"/>
</linearGradient>
<linearGradient id="paint10_linear_458_2730" x1="511.611" y1="-262.193" x2="676.363" y2="1164.89" gradientUnits="userSpaceOnUse">
<stop stop-color="white" stop-opacity="0.13"/>
<stop offset="1" stop-color="white" stop-opacity="0"/>
</linearGradient>
<linearGradient id="paint11_linear_458_2730" x1="516.438" y1="-250.818" x2="654.676" y2="1138.43" gradientUnits="userSpaceOnUse">
<stop stop-color="white" stop-opacity="0.13"/>
<stop offset="1" stop-color="white" stop-opacity="0"/>
</linearGradient>
<linearGradient id="paint12_linear_458_2730" x1="521.467" y1="-238.923" x2="634.425" y2="1112.02" gradientUnits="userSpaceOnUse">
<stop stop-color="white" stop-opacity="0.13"/>
<stop offset="1" stop-color="white" stop-opacity="0"/>
</linearGradient>
<linearGradient id="paint13_linear_458_2730" x1="526.683" y1="-226.503" x2="615.604" y2="1085.69" gradientUnits="userSpaceOnUse">
<stop stop-color="white" stop-opacity="0.13"/>
<stop offset="1" stop-color="white" stop-opacity="0"/>
</linearGradient>
<linearGradient id="paint14_linear_458_2730" x1="532.07" y1="-213.556" x2="598.204" y2="1059.48" gradientUnits="userSpaceOnUse">
<stop stop-color="white" stop-opacity="0.13"/>
<stop offset="1" stop-color="white" stop-opacity="0"/>
</linearGradient>
<linearGradient id="paint15_linear_458_2730" x1="537.621" y1="-200.079" x2="582.225" y2="1033.41" gradientUnits="userSpaceOnUse">
<stop stop-color="white" stop-opacity="0.13"/>
<stop offset="1" stop-color="white" stop-opacity="0"/>
</linearGradient>
<linearGradient id="paint16_linear_458_2730" x1="548.055" y1="-184.837" x2="572.391" y2="1008.76" gradientUnits="userSpaceOnUse">
<stop stop-color="white" stop-opacity="0.13"/>
<stop offset="1" stop-color="white" stop-opacity="0"/>
</linearGradient>
<linearGradient id="paint17_linear_458_2730" x1="549.155" y1="-171.524" x2="554.492" y2="981.853" gradientUnits="userSpaceOnUse">
<stop stop-color="white" stop-opacity="0.13"/>
<stop offset="1" stop-color="white" stop-opacity="0"/>
</linearGradient>
<linearGradient id="paint18_linear_458_2730" x1="555.114" y1="-156.441" x2="542.726" y2="956.426" gradientUnits="userSpaceOnUse">
<stop stop-color="white" stop-opacity="0.13"/>
<stop offset="1" stop-color="white" stop-opacity="0"/>
</linearGradient>
<linearGradient id="paint19_linear_458_2730" x1="561.184" y1="-140.82" x2="532.348" y2="931.275" gradientUnits="userSpaceOnUse">
<stop stop-color="white" stop-opacity="0.13"/>
<stop offset="1" stop-color="white" stop-opacity="0"/>
</linearGradient>
<linearGradient id="paint20_linear_458_2730" x1="567.346" y1="-124.657" x2="523.345" y2="906.434" gradientUnits="userSpaceOnUse">
<stop stop-color="white" stop-opacity="0.13"/>
<stop offset="1" stop-color="white" stop-opacity="0"/>
</linearGradient>
<linearGradient id="paint21_linear_458_2730" x1="573.599" y1="-107.952" x2="515.717" y2="881.933" gradientUnits="userSpaceOnUse">
<stop stop-color="white" stop-opacity="0.13"/>
<stop offset="1" stop-color="white" stop-opacity="0"/>
</linearGradient>
<linearGradient id="paint22_linear_458_2730" x1="579.924" y1="-90.7051" x2="509.448" y2="857.804" gradientUnits="userSpaceOnUse">
<stop stop-color="white" stop-opacity="0.13"/>
<stop offset="1" stop-color="white" stop-opacity="0"/>
</linearGradient>
<linearGradient id="paint23_linear_458_2730" x1="586.308" y1="-72.9141" x2="504.527" y2="834.076" gradientUnits="userSpaceOnUse">
<stop stop-color="white" stop-opacity="0.13"/>
<stop offset="1" stop-color="white" stop-opacity="0"/>
</linearGradient>
<linearGradient id="paint24_linear_458_2730" x1="592.739" y1="-54.5789" x2="500.942" y2="810.783" gradientUnits="userSpaceOnUse">
<stop stop-color="white" stop-opacity="0.13"/>
<stop offset="1" stop-color="white" stop-opacity="0"/>
</linearGradient>
<linearGradient id="paint25_linear_458_2730" x1="599.203" y1="-35.6989" x2="498.683" y2="787.954" gradientUnits="userSpaceOnUse">
<stop stop-color="white" stop-opacity="0.13"/>
<stop offset="1" stop-color="white" stop-opacity="0"/>
</linearGradient>
<linearGradient id="paint26_linear_458_2730" x1="605.69" y1="-16.275" x2="497.735" y2="765.619" gradientUnits="userSpaceOnUse">
<stop stop-color="white" stop-opacity="0.13"/>
<stop offset="1" stop-color="white" stop-opacity="0"/>
</linearGradient>
<linearGradient id="paint27_linear_458_2730" x1="612.184" y1="3.69322" x2="498.086" y2="743.808" gradientUnits="userSpaceOnUse">
<stop stop-color="white" stop-opacity="0.13"/>
<stop offset="1" stop-color="white" stop-opacity="0"/>
</linearGradient>
<linearGradient id="paint28_linear_458_2730" x1="618.674" y1="24.2053" x2="499.719" y2="722.551" gradientUnits="userSpaceOnUse">
<stop stop-color="white" stop-opacity="0.13"/>
<stop offset="1" stop-color="white" stop-opacity="0"/>
</linearGradient>
<linearGradient id="paint29_linear_458_2730" x1="625.144" y1="45.2605" x2="502.621" y2="701.879" gradientUnits="userSpaceOnUse">
<stop stop-color="white" stop-opacity="0.13"/>
<stop offset="1" stop-color="white" stop-opacity="0"/>
</linearGradient>
<linearGradient id="paint30_linear_458_2730" x1="631.587" y1="66.8565" x2="506.778" y2="681.818" gradientUnits="userSpaceOnUse">
<stop stop-color="white" stop-opacity="0.13"/>
<stop offset="1" stop-color="white" stop-opacity="0"/>
</linearGradient>
<linearGradient id="paint31_linear_458_2730" x1="637.988" y1="88.9928" x2="512.173" y2="662.398" gradientUnits="userSpaceOnUse">
<stop stop-color="white" stop-opacity="0.13"/>
<stop offset="1" stop-color="white" stop-opacity="0"/>
</linearGradient>
<linearGradient id="paint32_linear_458_2730" x1="644.334" y1="111.668" x2="518.791" y2="643.647" gradientUnits="userSpaceOnUse">
<stop stop-color="white" stop-opacity="0.13"/>
<stop offset="1" stop-color="white" stop-opacity="0"/>
</linearGradient>
<linearGradient id="paint33_linear_458_2730" x1="650.612" y1="134.879" x2="526.612" y2="625.594" gradientUnits="userSpaceOnUse">
<stop stop-color="white" stop-opacity="0.13"/>
<stop offset="1" stop-color="white" stop-opacity="0"/>
</linearGradient>
<linearGradient id="paint34_linear_458_2730" x1="656.808" y1="158.625" x2="535.619" y2="608.266" gradientUnits="userSpaceOnUse">
<stop stop-color="white" stop-opacity="0.13"/>
<stop offset="1" stop-color="white" stop-opacity="0"/>
</linearGradient>
<linearGradient id="paint35_linear_458_2730" x1="662.914" y1="182.903" x2="545.795" y2="591.689" gradientUnits="userSpaceOnUse">
<stop stop-color="white" stop-opacity="0.13"/>
<stop offset="1" stop-color="white" stop-opacity="0"/>
</linearGradient>
<linearGradient id="paint36_linear_458_2730" x1="668.914" y1="207.71" x2="557.121" y2="575.893" gradientUnits="userSpaceOnUse">
<stop stop-color="white" stop-opacity="0.13"/>
<stop offset="1" stop-color="white" stop-opacity="0"/>
</linearGradient>
<linearGradient id="paint37_linear_458_2730" x1="674.794" y1="233.044" x2="569.575" y2="560.901" gradientUnits="userSpaceOnUse">
<stop stop-color="white" stop-opacity="0.13"/>
<stop offset="1" stop-color="white" stop-opacity="0"/>
</linearGradient>
<linearGradient id="paint38_linear_458_2730" x1="680.544" y1="258.902" x2="583.139" y2="546.741" gradientUnits="userSpaceOnUse">
<stop stop-color="white" stop-opacity="0.13"/>
<stop offset="1" stop-color="white" stop-opacity="0"/>
</linearGradient>
<linearGradient id="paint39_linear_458_2730" x1="686.154" y1="285.278" x2="597.794" y2="533.438" gradientUnits="userSpaceOnUse">
<stop stop-color="white" stop-opacity="0.13"/>
<stop offset="1" stop-color="white" stop-opacity="0"/>
</linearGradient>
<linearGradient id="paint40_linear_458_2730" x1="691.608" y1="312.171" x2="613.517" y2="521.016" gradientUnits="userSpaceOnUse">
<stop stop-color="white" stop-opacity="0.13"/>
<stop offset="1" stop-color="white" stop-opacity="0"/>
</linearGradient>
</defs>
</svg>
