<svg width="56" height="56" viewBox="0 0 56 56" fill="none" xmlns="http://www.w3.org/2000/svg">
<path d="M28.1504 55.72C43.3382 55.72 55.6504 43.4078 55.6504 28.22C55.6504 13.0321 43.3382 0.719971 28.1504 0.719971C12.9626 0.719971 0.650391 13.0321 0.650391 28.22C0.650391 43.4078 12.9626 55.72 28.1504 55.72Z" fill="#E94D6E"/>
<path d="M28.1504 40.22C34.7778 40.22 40.1504 34.8474 40.1504 28.22C40.1504 21.5926 34.7778 16.22 28.1504 16.22C21.523 16.22 16.1504 21.5926 16.1504 28.22C16.1504 34.8474 21.523 40.22 28.1504 40.22Z" fill="white"/>
<path fill-rule="evenodd" clip-rule="evenodd" d="M28.1399 21.4399C28.7399 21.4399 29.1399 21.8399 29.1399 22.4399V30.8399C29.3399 30.5399 29.5399 30.3399 29.6399 30.1399C30.4399 29.1399 31.7399 28.1399 33.3399 28.5399C33.8399 28.6399 34.2399 29.2399 34.0399 29.7399C33.9399 30.2399 33.3399 30.6399 32.8399 30.4399C32.4399 30.3399 31.8399 30.5399 31.1399 31.3399C30.4399 32.1399 29.9399 33.2399 29.5399 34.3399C29.3399 34.8399 28.7399 35.1399 28.2399 34.9399C28.2399 34.9399 28.1399 34.9399 28.1399 34.8399C28.1399 34.8399 28.0399 34.8399 28.0399 34.9399C27.5399 35.1399 26.9399 34.8399 26.7399 34.3399C26.3399 33.3399 25.7399 32.1399 25.1399 31.3399C24.4399 30.5399 23.8399 30.3399 23.4399 30.4399C22.9399 30.5399 22.3399 30.2399 22.2399 29.7399C22.1399 29.2399 22.4399 28.6399 22.9399 28.5399C24.5399 28.1399 25.8399 29.1399 26.6399 30.1399C26.8399 30.3399 27.0399 30.6399 27.1399 30.8399V22.4399C27.1399 21.8399 27.5399 21.4399 28.1399 21.4399Z" fill="#E94D6E"/>
</svg>
