<svg width="1336" height="771" viewBox="0 0 1336 771" fill="none" xmlns="http://www.w3.org/2000/svg">
<g opacity="0.3">
<path fill-rule="evenodd" clip-rule="evenodd" d="M75.0861 476.626C0.637973 393.707 -106.815 300.951 -86.051 191.467C-64.5457 78.0747 91.7284 54.0166 171.123 -29.7493C233.088 -95.1259 243.264 -209.99 326.678 -243.988C410.047 -277.967 497.813 -191.843 587.518 -199.461C724.418 -211.087 873.013 -387.042 978.794 -299.366C1082.1 -213.743 919.732 -39.3986 940.557 93.1516C957.907 203.587 1131.23 284.905 1086.7 387.441C1040.21 494.479 861.259 438.204 763.205 501.481C682.902 553.302 671.709 687.533 579.998 714.426C488.422 741.279 397.612 674.663 311.276 634.001C223.918 592.858 139.597 548.477 75.0861 476.626Z" stroke="url(#paint0_linear_257_1192)" stroke-width="2"/>
<path opacity="0.95875" fill-rule="evenodd" clip-rule="evenodd" d="M89.7785 469.289C18.2696 383.822 -85.8811 287.373 -61.3085 178.679C-35.8589 66.1071 121.16 47.5175 203.429 -33.4266C267.638 -96.6008 281.816 -211.04 366.366 -242.106C450.87 -273.154 535.577 -184.02 625.493 -188.503C762.715 -195.344 917.361 -366.005 1020.02 -274.692C1120.27 -185.515 951.919 -16.9438 968.105 116.252C981.591 227.226 1151.97 314.543 1103.88 415.463C1053.69 520.813 876.813 458.328 776.611 518.143C694.548 567.131 678.677 700.889 586.084 724.564C493.626 748.205 405.197 678.461 320.332 634.811C234.463 590.644 151.742 543.347 89.7785 469.289Z" stroke="url(#paint1_linear_257_1192)" stroke-width="2"/>
<path opacity="0.9175" fill-rule="evenodd" clip-rule="evenodd" d="M104.717 462.467C36.2345 374.557 -64.4867 274.531 -36.1357 166.761C-6.77291 55.1459 150.799 42.0475 235.843 -35.9761C302.217 -96.871 320.381 -210.746 405.964 -238.842C491.5 -266.922 573.044 -174.886 663.062 -176.228C800.439 -178.276 960.946 -343.437 1060.35 -248.596C1157.43 -155.975 983.302 6.61853 994.829 140.299C1004.43 251.675 1171.66 344.886 1120.08 444.065C1066.24 547.599 891.655 478.979 789.426 535.262C705.704 581.355 685.174 714.478 591.811 734.908C498.584 755.307 412.643 682.52 329.353 635.934C245.078 588.798 164.059 538.643 104.717 462.467Z" stroke="url(#paint2_linear_257_1192)" stroke-width="2"/>
<path opacity="0.87625" fill-rule="evenodd" clip-rule="evenodd" d="M119.885 456.17C54.5119 365.924 -42.6572 262.444 -10.5623 155.729C22.6779 45.2063 180.611 37.6151 268.326 -37.393C336.785 -95.9343 358.912 -209.106 445.423 -234.198C531.887 -259.276 610.17 -164.451 700.18 -162.65C837.545 -159.902 1003.72 -319.36 1099.76 -221.108C1193.54 -125.156 1013.84 31.2616 1020.7 165.263C1026.41 276.906 1190.28 375.896 1135.28 473.215C1077.85 574.807 905.767 500.136 801.636 552.817C716.356 595.96 691.193 728.286 597.174 745.444C503.292 762.578 419.943 686.836 338.33 637.372C255.752 587.323 176.531 534.37 119.885 456.17Z" stroke="url(#paint3_linear_257_1192)" stroke-width="2"/>
<path opacity="0.835" fill-rule="evenodd" clip-rule="evenodd" d="M135.263 450.407C73.0794 357.934 -20.419 251.126 15.3805 145.596C52.4577 36.3009 210.559 34.226 300.839 -37.6752C371.299 -93.7917 397.363 -206.122 484.696 -228.179C571.983 -250.225 646.909 -152.725 736.801 -147.784C873.986 -140.244 1045.62 -293.806 1138.17 -192.262C1228.56 -93.0947 1043.51 56.9558 1045.68 191.114C1047.49 302.889 1207.81 407.538 1149.44 502.878C1088.51 602.404 919.132 521.773 813.226 570.787C726.493 610.928 696.727 742.295 602.166 756.162C507.743 770.009 427.089 691.404 347.251 639.122C266.47 586.221 189.146 530.536 135.263 450.407Z" stroke="url(#paint4_linear_257_1192)" stroke-width="2"/>
<path opacity="0.79375" fill-rule="evenodd" clip-rule="evenodd" d="M150.833 445.184C91.9145 350.597 2.20052 240.591 41.6612 136.375C82.5301 28.4401 240.608 31.8842 333.342 -36.8225C405.718 -90.4457 435.685 -201.798 523.736 -220.794C611.739 -239.78 683.216 -139.725 772.881 -131.65C909.719 -119.326 1086.61 -266.805 1175.56 -162.092C1262.43 -59.8314 1072.25 83.6696 1069.74 217.822C1067.65 329.592 1224.22 439.773 1162.56 533.017C1098.19 630.356 931.734 543.863 824.182 589.151C736.1 626.241 701.768 756.489 606.781 767.047C511.932 777.59 434.07 696.218 356.106 641.182C277.22 585.494 201.887 527.145 150.833 445.184Z" stroke="url(#paint5_linear_257_1192)" stroke-width="2"/>
<path opacity="0.7525" fill-rule="evenodd" clip-rule="evenodd" d="M166.575 440.507C110.994 343.921 25.1739 230.851 68.2477 128.076C112.859 21.6335 270.72 30.5923 365.795 -34.8361C439.998 -85.9009 473.834 -196.139 562.494 -212.051C651.106 -227.954 719.048 -125.465 808.376 -114.266C944.701 -97.1745 1126.63 -238.39 1211.87 -130.637C1295.12 -25.4064 1100.05 111.37 1092.86 245.354C1086.87 356.983 1239.5 472.56 1174.62 563.596C1106.89 658.629 943.557 566.379 834.49 607.886C745.168 641.88 706.311 770.85 611.013 778.087C515.854 785.313 440.879 701.273 364.883 643.549C287.989 585.143 214.738 524.2 166.575 440.507Z" stroke="url(#paint6_linear_257_1192)" stroke-width="2"/>
<path opacity="0.71125" fill-rule="evenodd" clip-rule="evenodd" d="M182.472 436.382C130.295 337.916 48.4733 221.92 95.1076 120.711C143.406 15.8896 300.858 30.3522 398.159 -31.7183C474.099 -80.1623 511.762 -189.153 600.923 -201.961C690.036 -214.762 754.36 -109.964 843.243 -95.6538C978.888 -73.8151 1165.64 -208.595 1247.07 -97.9329C1326.59 10.1387 1126.87 140.024 1115.01 273.675C1105.12 385.027 1253.63 505.861 1185.61 594.577C1114.6 687.188 954.587 589.294 844.138 626.97C753.684 657.825 710.349 785.36 614.857 789.267C519.504 793.169 447.508 706.563 373.573 646.222C298.763 585.168 227.684 521.705 182.472 436.382Z" stroke="url(#paint7_linear_257_1192)" stroke-width="2"/>
<path opacity="0.67" fill-rule="evenodd" clip-rule="evenodd" d="M198.502 432.815C149.794 332.588 72.0702 213.807 122.208 114.287C174.135 11.2154 330.987 31.1642 430.395 -27.4727C507.979 -73.2369 549.423 -180.847 638.976 -190.535C728.482 -200.218 789.109 -93.2394 877.438 -75.8361C1012.24 -49.2768 1203.58 -177.457 1281.09 -64.0206C1356.8 46.7604 1152.66 169.597 1136.15 302.752C1122.38 413.692 1266.58 539.634 1195.51 625.923C1121.31 715.999 964.811 612.581 853.114 646.379C761.638 674.058 713.879 800.003 618.309 800.575C522.878 801.146 453.948 712.081 382.164 649.197C309.531 585.568 240.709 519.664 198.502 432.815Z" stroke="url(#paint8_linear_257_1192)" stroke-width="2"/>
<path opacity="0.62875" fill-rule="evenodd" clip-rule="evenodd" d="M214.648 429.81C169.467 327.944 95.9358 206.522 149.516 108.813C205.009 7.61627 361.069 33.027 462.463 -22.1049C541.597 -65.1336 586.771 -171.231 676.608 -177.789C766.397 -184.342 823.253 -75.3126 910.922 -54.8372C1044.71 -23.5896 1240.41 -145.014 1313.92 -28.9416C1385.71 84.4139 1177.41 200.051 1156.26 332.549C1138.63 442.941 1278.35 573.839 1204.31 657.594C1127.01 745.027 974.215 636.209 861.407 666.089C769.021 690.559 716.896 814.761 621.364 811.997C525.971 809.237 460.191 717.82 390.646 652.469C320.277 586.345 253.798 518.079 214.648 429.81Z" stroke="url(#paint9_linear_257_1192)" stroke-width="2"/>
<path opacity="0.5875" fill-rule="evenodd" clip-rule="evenodd" d="M230.888 427.37C189.29 323.989 120.041 200.075 176.999 104.295C235.99 5.09688 391.068 35.9385 494.324 -15.6212C574.912 -55.8619 623.76 -160.319 713.772 -163.736C803.735 -167.152 856.752 -56.2051 943.652 -32.6826C1076.27 3.21528 1276.09 -111.306 1345.5 7.26173C1413.29 123.054 1201.09 231.351 1175.32 363.03C1153.85 472.739 1288.91 608.434 1211.99 689.554C1131.7 774.236 982.79 660.152 869.008 686.076C775.824 707.307 719.396 829.614 624.018 823.518C528.78 817.431 466.231 723.774 399.008 656.035C330.99 587.496 266.934 516.951 230.888 427.37Z" stroke="url(#paint10_linear_257_1192)" stroke-width="2"/>
<path opacity="0.54625" fill-rule="evenodd" clip-rule="evenodd" d="M247.204 425.498C209.239 320.728 144.357 194.473 204.623 100.739C267.039 3.66027 420.947 39.8952 525.939 -8.0295C607.882 -45.4332 660.347 -148.121 750.422 -148.396C840.45 -148.67 889.562 -35.9401 975.589 -9.39913C1106.88 31.1052 1310.56 -76.3725 1375.8 44.5452C1439.51 162.632 1223.65 263.458 1193.31 394.157C1168.02 503.051 1298.26 643.376 1218.56 721.762C1135.36 803.591 990.524 684.379 875.906 706.317C782.038 724.283 721.376 844.546 626.269 835.125C531.301 825.717 472.059 729.935 407.241 659.892C341.657 589.02 280.101 516.283 247.204 425.498Z" stroke="url(#paint11_linear_257_1192)" stroke-width="2"/>
<path opacity="0.505" fill-rule="evenodd" clip-rule="evenodd" d="M263.575 424.196C229.289 318.165 168.853 189.723 232.354 98.1497C298.12 3.30806 450.669 44.8923 557.27 0.660882C640.469 -33.8603 696.485 -134.655 786.516 -131.786C876.498 -128.918 921.646 -14.5424 1006.69 14.9846C1136.49 60.0461 1343.8 -40.2575 1404.78 82.8632C1464.32 203.102 1245.08 296.333 1210.19 425.894C1181.13 533.838 1306.39 678.623 1224 754.18C1137.99 833.055 997.407 708.862 882.094 726.786C787.655 741.465 722.833 859.538 628.113 846.803C533.532 834.087 477.668 736.295 415.334 664.033C352.263 590.915 293.284 516.074 263.575 424.196Z" stroke="url(#paint12_linear_257_1192)" stroke-width="2"/>
<path opacity="0.46375" fill-rule="evenodd" clip-rule="evenodd" d="M279.981 423.467C249.417 316.304 193.5 185.831 260.158 96.5295C329.195 4.04087 480.199 50.9236 588.279 10.4395C672.632 -21.157 732.131 -119.935 822.007 -113.926C911.834 -107.919 952.963 7.96202 1036.93 40.4392C1165.07 90.003 1375.76 -3.00435 1432.4 122.169C1487.72 244.413 1265.35 329.936 1225.97 458.2C1193.15 565.064 1313.28 714.133 1228.31 786.769C1139.6 862.594 1003.43 733.569 887.563 747.458C792.67 758.832 723.767 874.571 629.549 858.539C535.469 842.53 483.052 742.848 423.278 668.454C362.797 593.179 306.466 516.326 279.981 423.467Z" stroke="url(#paint13_linear_257_1192)" stroke-width="2"/>
<path opacity="0.4225" fill-rule="evenodd" clip-rule="evenodd" d="M296.403 423.311C269.597 315.147 218.268 182.802 288.002 95.8806C360.224 5.85763 509.501 57.9818 618.927 21.2943C704.332 -7.33912 767.242 -103.981 856.853 -94.8383C946.416 -85.7006 983.476 31.5456 1066.26 66.9334C1192.59 120.939 1406.4 35.3413 1458.64 162.415C1509.65 286.515 1284.44 364.225 1240.6 491.037C1204.07 596.691 1318.93 749.861 1231.47 819.487C1140.17 892.17 1008.59 758.472 892.308 768.309C797.076 776.364 724.175 889.628 630.574 870.317C537.11 851.034 488.204 749.584 431.063 673.149C373.246 595.81 319.631 517.037 296.403 423.311Z" stroke="url(#paint14_linear_257_1192)" stroke-width="2"/>
<path opacity="0.38125" fill-rule="evenodd" clip-rule="evenodd" d="M312.82 423.728C289.806 314.694 243.127 180.638 315.852 96.2038C391.172 8.75625 538.538 66.0583 649.179 33.2121C735.53 7.57671 801.775 -86.8106 891.013 -74.5462C980.202 -62.2883 1013.15 56.1798 1094.64 94.435C1219.01 152.817 1435.68 74.7329 1483.45 203.553C1530.1 329.357 1302.32 399.16 1254.08 524.365C1213.89 628.679 1323.33 785.765 1233.49 852.296C1139.71 921.749 1012.88 783.54 896.322 789.312C800.867 794.039 724.058 904.69 631.188 882.124C538.453 859.591 493.118 756.496 438.679 678.113C383.596 598.804 332.763 518.208 312.82 423.728Z" stroke="url(#paint15_linear_257_1192)" stroke-width="2"/>
<path opacity="0.34" fill-rule="evenodd" clip-rule="evenodd" d="M329.213 424.718C310.018 314.947 268.046 179.344 343.673 97.4988C421.999 12.7332 567.276 75.1434 678.995 46.1784C766.189 23.5723 835.688 -68.4456 924.443 -53.0743C1013.15 -37.7113 1041.94 81.8345 1122.05 122.911C1244.31 185.597 1463.57 115.122 1506.81 245.531C1549.05 372.887 1318.97 434.698 1266.38 558.142C1222.58 660.991 1326.47 821.8 1234.37 885.156C1138.22 951.293 1016.29 808.742 899.601 810.443C804.038 811.836 723.415 919.739 631.389 893.945C539.497 868.19 497.787 763.575 446.117 683.341C393.836 602.157 345.846 519.836 329.213 424.718Z" stroke="url(#paint16_linear_257_1192)" stroke-width="2"/>
<path opacity="0.29875" fill-rule="evenodd" clip-rule="evenodd" d="M345.562 426.279C330.209 315.905 292.995 178.92 371.432 99.764C452.669 17.7836 595.679 85.2258 708.341 60.1775C796.27 40.6281 868.938 -48.9083 957.103 -30.4488C1045.22 -11.9993 1069.82 108.478 1148.45 152.325C1268.45 219.24 1490.03 156.461 1528.7 288.299C1566.46 417.051 1334.36 470.795 1277.51 592.329C1230.13 693.586 1328.35 857.924 1234.1 918.026C1135.7 980.767 1018.81 834.048 902.14 831.676C806.587 829.733 722.247 934.756 631.177 905.767C540.24 876.82 502.207 770.813 453.368 688.824C403.952 605.865 358.865 521.92 345.562 426.279Z" stroke="url(#paint17_linear_257_1192)" stroke-width="2"/>
<path opacity="0.2575" fill-rule="evenodd" clip-rule="evenodd" d="M361.845 428.41C350.354 317.567 317.943 179.367 399.095 102.997C483.144 23.9011 623.713 96.2933 737.181 75.1921C825.739 58.7232 901.487 -28.2225 988.954 -6.69742C1076.37 14.8161 1096.76 136.079 1173.81 182.643C1291.39 253.705 1515.03 198.697 1549.08 331.805C1582.32 461.796 1348.49 507.407 1287.43 626.883C1236.55 726.425 1328.98 894.09 1232.68 950.867C1132.15 1010.14 1020.46 859.427 903.936 852.984C808.51 847.707 720.556 949.723 630.553 917.573C540.682 885.47 506.371 778.201 460.424 694.557C413.933 609.924 371.803 524.456 361.845 428.41Z" stroke="url(#paint18_linear_257_1192)" stroke-width="2"/>
<path opacity="0.21625" fill-rule="evenodd" clip-rule="evenodd" d="M378.045 431.107C370.429 319.932 342.861 180.684 426.629 107.193C513.387 31.0786 651.344 108.332 765.479 91.2041C854.558 77.8359 933.294 -6.41325 1019.96 18.1513C1106.57 42.7026 1122.71 164.603 1198.09 213.828C1313.12 288.951 1538.55 241.781 1567.92 375.995C1596.62 507.068 1361.33 544.49 1296.14 661.762C1241.82 759.468 1328.33 930.257 1230.11 983.638C1127.58 1039.36 1021.21 884.847 904.988 874.342C809.804 865.738 718.343 964.622 629.517 929.351C540.821 894.131 510.275 785.73 467.275 700.533C423.766 614.329 384.644 527.443 378.045 431.107Z" stroke="url(#paint19_linear_257_1192)" stroke-width="2"/>
<path opacity="0.175" fill-rule="evenodd" clip-rule="evenodd" d="M394.141 434.369C390.409 322.995 367.718 182.87 453.999 112.347C543.36 39.3072 678.538 121.329 793.201 108.194C882.692 97.9427 964.321 16.4927 1050.07 44.0667C1135.78 71.6259 1147.65 194.015 1221.27 245.841C1333.61 324.932 1560.54 285.658 1585.22 420.816C1609.32 552.811 1372.87 581.999 1303.62 696.924C1245.93 792.675 1326.43 966.379 1226.41 1016.3C1121.99 1068.41 1021.08 910.278 905.294 895.723C810.468 883.803 715.612 979.435 628.071 941.085C540.659 902.791 513.914 793.39 473.913 706.745C433.44 619.075 397.374 530.876 394.141 434.369Z" stroke="url(#paint20_linear_257_1192)" stroke-width="2"/>
<path opacity="0.13375" fill-rule="evenodd" clip-rule="evenodd" d="M410.112 438.19C410.27 326.754 392.483 185.922 481.173 118.454C573.029 48.5768 705.261 135.266 820.313 126.141C910.107 119.019 994.529 40.4676 1079.27 71.0175C1163.96 101.551 1171.55 224.28 1243.31 278.643C1352.83 361.607 1580.99 330.277 1600.94 466.214C1620.42 598.969 1383.09 619.888 1309.88 732.326C1248.88 826.005 1323.27 1002.41 1221.56 1048.81C1115.39 1097.25 1020.06 935.69 904.854 917.102C810.501 901.88 712.365 994.143 626.217 952.762C540.193 911.441 517.283 801.172 480.331 713.184C442.941 624.155 409.976 534.752 410.112 438.19Z" stroke="url(#paint21_linear_257_1192)" stroke-width="2"/>
<path opacity="0.0925" fill-rule="evenodd" clip-rule="evenodd" d="M425.941 442.567C429.988 331.204 417.126 189.837 508.118 125.505C602.356 58.8761 731.482 150.127 846.782 145.023C936.771 141.039 1023.88 65.4819 1107.5 98.9705C1191.08 132.441 1194.38 255.361 1264.2 312.195C1370.76 398.931 1599.88 375.582 1615.06 512.132C1629.9 645.486 1391.99 658.11 1314.89 767.924C1250.66 859.417 1318.85 1038.31 1215.59 1081.14C1107.79 1125.84 1018.16 961.05 903.667 938.453C809.904 919.947 708.608 1008.73 623.956 964.366C539.427 920.068 520.379 809.068 486.52 719.844C452.26 629.564 422.435 539.064 425.941 442.567Z" stroke="url(#paint22_linear_257_1192)" stroke-width="2"/>
<path opacity="0.05125" fill-rule="evenodd" clip-rule="evenodd" d="M441.608 447.493C449.539 336.339 441.618 194.61 534.799 133.492C631.305 70.1927 757.169 165.895 872.577 164.818C962.649 163.977 1052.34 91.5056 1134.74 127.892C1217.1 164.259 1216.12 287.219 1283.91 346.455C1387.37 436.857 1617.16 421.519 1627.58 558.516C1637.75 692.306 1399.55 696.619 1318.66 803.676C1251.27 892.872 1313.18 1074.04 1208.49 1113.23C1099.19 1154.14 1015.37 986.328 901.737 959.75C808.676 937.983 704.343 1023.18 621.291 975.885C538.36 928.664 523.197 817.066 492.473 726.715C461.384 635.295 434.735 543.809 441.608 447.493Z" stroke="url(#paint23_linear_257_1192)" stroke-width="2"/>
<path opacity="0.01" fill-rule="evenodd" clip-rule="evenodd" d="M457.092 452.961C468.897 342.151 465.928 200.232 561.185 142.403C659.841 82.5109 782.288 182.547 897.663 185.498C987.71 187.802 1079.88 118.505 1160.96 157.745C1242 196.964 1236.72 319.814 1302.41 381.381C1402.65 475.338 1632.84 468.029 1638.46 605.306C1643.96 739.37 1405.75 735.367 1321.18 839.536C1250.72 926.325 1306.27 1109.54 1200.27 1145.06C1089.62 1182.13 1011.7 1011.49 899.063 980.964C806.819 955.962 699.576 1037.46 618.225 987.302C536.992 937.216 525.733 825.157 498.181 733.788C470.302 641.338 446.862 548.979 457.092 452.961Z" stroke="url(#paint24_linear_257_1192)" stroke-width="2"/>
</g>
<defs>
<linearGradient id="paint0_linear_257_1192" x1="44.0929" y1="485.847" x2="1079.32" y2="-144.947" gradientUnits="userSpaceOnUse">
<stop stop-color="white" stop-opacity="0"/>
<stop offset="0.505208" stop-color="white"/>
<stop offset="1" stop-color="white" stop-opacity="0"/>
</linearGradient>
<linearGradient id="paint1_linear_257_1192" x1="58.4824" y1="477.423" x2="1115.09" y2="-116.858" gradientUnits="userSpaceOnUse">
<stop stop-color="white" stop-opacity="0"/>
<stop offset="0.505208" stop-color="white"/>
<stop offset="1" stop-color="white" stop-opacity="0"/>
</linearGradient>
<linearGradient id="paint2_linear_257_1192" x1="73.1562" y1="469.503" x2="1149.86" y2="-87.5404" gradientUnits="userSpaceOnUse">
<stop stop-color="white" stop-opacity="0"/>
<stop offset="0.505208" stop-color="white"/>
<stop offset="1" stop-color="white" stop-opacity="0"/>
</linearGradient>
<linearGradient id="paint3_linear_257_1192" x1="88.0975" y1="462.101" x2="1183.59" y2="-57.027" gradientUnits="userSpaceOnUse">
<stop stop-color="white" stop-opacity="0"/>
<stop offset="0.505208" stop-color="white"/>
<stop offset="1" stop-color="white" stop-opacity="0"/>
</linearGradient>
<linearGradient id="paint4_linear_257_1192" x1="103.288" y1="455.225" x2="1216.23" y2="-25.355" gradientUnits="userSpaceOnUse">
<stop stop-color="white" stop-opacity="0"/>
<stop offset="0.505208" stop-color="white"/>
<stop offset="1" stop-color="white" stop-opacity="0"/>
</linearGradient>
<linearGradient id="paint5_linear_257_1192" x1="118.709" y1="448.883" x2="1247.74" y2="7.4369" gradientUnits="userSpaceOnUse">
<stop stop-color="white" stop-opacity="0"/>
<stop offset="0.505208" stop-color="white"/>
<stop offset="1" stop-color="white" stop-opacity="0"/>
</linearGradient>
<linearGradient id="paint6_linear_257_1192" x1="134.342" y1="443.082" x2="1278.1" y2="41.3085" gradientUnits="userSpaceOnUse">
<stop stop-color="white" stop-opacity="0"/>
<stop offset="0.505208" stop-color="white"/>
<stop offset="1" stop-color="white" stop-opacity="0"/>
</linearGradient>
<linearGradient id="paint7_linear_257_1192" x1="150.168" y1="437.832" x2="1307.25" y2="76.2188" gradientUnits="userSpaceOnUse">
<stop stop-color="white" stop-opacity="0"/>
<stop offset="0.505208" stop-color="white"/>
<stop offset="1" stop-color="white" stop-opacity="0"/>
</linearGradient>
<linearGradient id="paint8_linear_257_1192" x1="166.168" y1="433.136" x2="1335.16" y2="112.125" gradientUnits="userSpaceOnUse">
<stop stop-color="white" stop-opacity="0"/>
<stop offset="0.505208" stop-color="white"/>
<stop offset="1" stop-color="white" stop-opacity="0"/>
</linearGradient>
<linearGradient id="paint9_linear_257_1192" x1="182.322" y1="429.002" x2="1361.81" y2="148.984" gradientUnits="userSpaceOnUse">
<stop stop-color="white" stop-opacity="0"/>
<stop offset="0.505208" stop-color="white"/>
<stop offset="1" stop-color="white" stop-opacity="0"/>
</linearGradient>
<linearGradient id="paint10_linear_257_1192" x1="198.61" y1="425.434" x2="1387.15" y2="186.75" gradientUnits="userSpaceOnUse">
<stop stop-color="white" stop-opacity="0"/>
<stop offset="0.505208" stop-color="white"/>
<stop offset="1" stop-color="white" stop-opacity="0"/>
</linearGradient>
<linearGradient id="paint11_linear_257_1192" x1="215.013" y1="422.437" x2="1411.16" y2="225.378" gradientUnits="userSpaceOnUse">
<stop stop-color="white" stop-opacity="0"/>
<stop offset="0.505208" stop-color="white"/>
<stop offset="1" stop-color="white" stop-opacity="0"/>
</linearGradient>
<linearGradient id="paint12_linear_257_1192" x1="231.511" y1="420.014" x2="1433.8" y2="264.82" gradientUnits="userSpaceOnUse">
<stop stop-color="white" stop-opacity="0"/>
<stop offset="0.505208" stop-color="white"/>
<stop offset="1" stop-color="white" stop-opacity="0"/>
</linearGradient>
<linearGradient id="paint13_linear_257_1192" x1="248.082" y1="418.168" x2="1455.06" y2="305.028" gradientUnits="userSpaceOnUse">
<stop stop-color="white" stop-opacity="0"/>
<stop offset="0.505208" stop-color="white"/>
<stop offset="1" stop-color="white" stop-opacity="0"/>
</linearGradient>
<linearGradient id="paint14_linear_257_1192" x1="264.709" y1="416.902" x2="1474.9" y2="345.954" gradientUnits="userSpaceOnUse">
<stop stop-color="white" stop-opacity="0"/>
<stop offset="0.505208" stop-color="white"/>
<stop offset="1" stop-color="white" stop-opacity="0"/>
</linearGradient>
<linearGradient id="paint15_linear_257_1192" x1="281.369" y1="416.217" x2="1493.3" y2="387.547" gradientUnits="userSpaceOnUse">
<stop stop-color="white" stop-opacity="0"/>
<stop offset="0.505208" stop-color="white"/>
<stop offset="1" stop-color="white" stop-opacity="0"/>
</linearGradient>
<linearGradient id="paint16_linear_257_1192" x1="298.043" y1="416.114" x2="1510.24" y2="429.757" gradientUnits="userSpaceOnUse">
<stop stop-color="white" stop-opacity="0"/>
<stop offset="0.505208" stop-color="white"/>
<stop offset="1" stop-color="white" stop-opacity="0"/>
</linearGradient>
<linearGradient id="paint17_linear_257_1192" x1="314.711" y1="416.592" x2="1525.69" y2="472.532" gradientUnits="userSpaceOnUse">
<stop stop-color="white" stop-opacity="0"/>
<stop offset="0.505208" stop-color="white"/>
<stop offset="1" stop-color="white" stop-opacity="0"/>
</linearGradient>
<linearGradient id="paint18_linear_257_1192" x1="331.351" y1="417.652" x2="1539.64" y2="515.82" gradientUnits="userSpaceOnUse">
<stop stop-color="white" stop-opacity="0"/>
<stop offset="0.505208" stop-color="white"/>
<stop offset="1" stop-color="white" stop-opacity="0"/>
</linearGradient>
<linearGradient id="paint19_linear_257_1192" x1="347.945" y1="419.292" x2="1552.07" y2="559.569" gradientUnits="userSpaceOnUse">
<stop stop-color="white" stop-opacity="0"/>
<stop offset="0.505208" stop-color="white"/>
<stop offset="1" stop-color="white" stop-opacity="0"/>
</linearGradient>
<linearGradient id="paint20_linear_257_1192" x1="364.471" y1="421.511" x2="1562.97" y2="603.725" gradientUnits="userSpaceOnUse">
<stop stop-color="white" stop-opacity="0"/>
<stop offset="0.505208" stop-color="white"/>
<stop offset="1" stop-color="white" stop-opacity="0"/>
</linearGradient>
<linearGradient id="paint21_linear_257_1192" x1="380.91" y1="424.304" x2="1572.32" y2="648.235" gradientUnits="userSpaceOnUse">
<stop stop-color="white" stop-opacity="0"/>
<stop offset="0.505208" stop-color="white"/>
<stop offset="1" stop-color="white" stop-opacity="0"/>
</linearGradient>
<linearGradient id="paint22_linear_257_1192" x1="397.241" y1="427.67" x2="1580.11" y2="693.044" gradientUnits="userSpaceOnUse">
<stop stop-color="white" stop-opacity="0"/>
<stop offset="0.505208" stop-color="white"/>
<stop offset="1" stop-color="white" stop-opacity="0"/>
</linearGradient>
<linearGradient id="paint23_linear_257_1192" x1="413.445" y1="431.603" x2="1586.33" y2="738.097" gradientUnits="userSpaceOnUse">
<stop stop-color="white" stop-opacity="0"/>
<stop offset="0.505208" stop-color="white"/>
<stop offset="1" stop-color="white" stop-opacity="0"/>
</linearGradient>
<linearGradient id="paint24_linear_257_1192" x1="429.501" y1="436.098" x2="1590.97" y2="783.338" gradientUnits="userSpaceOnUse">
<stop stop-color="white" stop-opacity="0"/>
<stop offset="0.505208" stop-color="white"/>
<stop offset="1" stop-color="white" stop-opacity="0"/>
</linearGradient>
</defs>
</svg>
