<svg width="30" height="31" viewBox="0 0 30 31" fill="none" xmlns="http://www.w3.org/2000/svg">
<path fill-rule="evenodd" clip-rule="evenodd" d="M7.42469 8.07537C7.706 7.79407 8.08753 7.63603 8.48535 7.63603C8.88318 7.63603 9.26471 7.79407 9.54601 8.07537L22.2739 20.8033C22.5552 21.0846 22.7133 21.4661 22.7133 21.864C22.7133 22.2618 22.5552 22.6433 22.2739 22.9246C21.9926 23.2059 21.6111 23.364 21.2133 23.364C20.8155 23.364 20.4339 23.2059 20.1526 22.9246L7.42469 10.1967C7.14339 9.91539 6.98535 9.53385 6.98535 9.13603C6.98535 8.7382 7.14339 8.35667 7.42469 8.07537Z" fill="white"/>
<path fill-rule="evenodd" clip-rule="evenodd" d="M22.2743 8.07539C22.5556 8.35669 22.7136 8.73822 22.7136 9.13605C22.7136 9.53387 22.5556 9.9154 22.2743 10.1967L9.54638 22.9246C9.26507 23.2059 8.88354 23.364 8.48572 23.364C8.08789 23.364 7.70636 23.2059 7.42506 22.9246C7.14375 22.6433 6.98572 22.2618 6.98572 21.864C6.98572 21.4661 7.14375 21.0846 7.42506 20.8033L20.153 8.07539C20.4343 7.79408 20.8158 7.63605 21.2136 7.63605C21.6115 7.63605 21.993 7.79408 22.2743 8.07539Z" fill="white"/>
</svg>
