<svg width="1219" height="816" viewBox="0 0 1219 816" fill="none" xmlns="http://www.w3.org/2000/svg">
<g opacity="0.6">
<path fill-rule="evenodd" clip-rule="evenodd" d="M124.085 440.901C72.6669 397.175 -1.54681 348.262 12.7943 290.527C27.6472 230.731 135.579 218.044 190.414 173.872C233.21 139.396 240.239 78.8243 297.85 60.8963C355.429 42.9779 416.046 88.3939 478.001 84.3767C572.552 78.2461 675.181 -14.5411 748.24 31.6934C819.588 76.8455 707.448 168.783 721.831 238.682C733.814 296.918 853.522 339.8 822.763 393.871C790.655 450.316 667.063 420.64 599.341 454.008C543.879 481.335 536.149 552.12 472.808 566.301C409.559 580.462 346.841 545.333 287.212 523.891C226.877 502.195 168.64 478.791 124.085 440.901Z" stroke="url(#paint0_linear_730_472)" stroke-width="2"/>
<path opacity="0.95875" fill-rule="evenodd" clip-rule="evenodd" d="M134.233 437.032C84.8446 391.963 12.9119 341.102 29.8833 283.784C47.4603 224.42 155.907 214.617 212.727 171.933C257.073 138.619 266.866 78.271 325.261 61.889C383.625 45.5159 442.128 92.5194 504.23 90.1556C599.003 86.5482 705.811 -3.44775 776.711 44.7053C845.953 91.7311 729.679 180.625 740.858 250.864C750.172 309.384 867.846 355.43 834.635 408.648C799.966 464.203 677.806 431.252 608.601 462.795C551.923 488.628 540.962 559.163 477.011 571.648C413.154 584.115 352.079 547.336 293.467 524.318C234.161 501.027 177.029 476.086 134.233 437.032Z" stroke="url(#paint1_linear_730_472)" stroke-width="2"/>
<path opacity="0.9175" fill-rule="evenodd" clip-rule="evenodd" d="M144.55 433.435C97.2523 387.077 27.6882 334.33 47.2691 277.499C67.5488 218.64 176.377 211.733 235.114 170.588C280.956 138.476 293.501 78.4262 352.609 63.6103C411.686 48.8023 468.005 97.3361 530.177 96.6285C625.058 95.5487 735.914 8.45368 804.57 58.4666C871.62 107.309 751.354 193.05 759.315 263.544C765.949 322.277 881.447 371.43 845.824 423.731C808.636 478.328 688.057 442.142 617.451 471.822C559.628 496.129 545.449 566.329 480.967 577.102C416.579 587.86 357.222 549.477 299.698 524.91C241.492 500.054 185.535 473.605 144.55 433.435Z" stroke="url(#paint2_linear_730_472)" stroke-width="2"/>
<path opacity="0.87625" fill-rule="evenodd" clip-rule="evenodd" d="M155.026 430.114C109.876 382.524 42.765 327.956 64.9316 271.681C87.8893 213.399 196.967 209.396 257.549 169.841C304.83 138.97 320.113 79.291 379.862 66.0591C439.58 52.8343 493.646 102.839 555.813 103.789C650.685 105.238 765.454 21.1498 831.783 72.9618C896.559 123.561 772.447 206.045 777.182 276.709C781.127 335.582 894.308 387.783 856.316 439.103C816.655 492.676 697.803 453.299 625.884 481.079C566.985 503.831 549.606 573.61 484.671 582.659C419.83 591.694 362.265 551.752 305.898 525.668C248.864 499.276 194.15 471.352 155.026 430.114Z" stroke="url(#paint3_linear_730_472)" stroke-width="2"/>
<path opacity="0.835" fill-rule="evenodd" clip-rule="evenodd" d="M165.647 427.075C122.7 378.311 58.124 321.987 82.8493 266.338C108.457 208.703 217.651 207.608 280.004 169.692C328.668 140.1 346.669 80.8645 406.987 69.2328C467.272 57.6074 519.02 109.023 581.105 111.628C675.854 115.604 794.396 34.6256 858.317 88.1735C920.741 140.468 792.934 219.595 794.436 290.341C795.687 349.284 906.413 404.469 866.098 454.745C824.013 507.229 707.034 464.709 633.889 490.556C573.986 511.724 553.428 580.998 488.118 588.311C422.904 595.613 367.199 554.161 312.059 526.591C256.266 498.695 202.862 469.33 165.647 427.075Z" stroke="url(#paint4_linear_730_472)" stroke-width="2"/>
<path opacity="0.79375" fill-rule="evenodd" clip-rule="evenodd" d="M176.401 424.321C135.708 374.442 73.7464 316.432 101 261.475C129.227 204.557 238.405 206.373 302.452 170.142C352.439 141.865 373.137 83.1447 433.95 73.1273C494.73 63.1153 544.096 115.878 606.024 120.136C700.533 126.635 822.705 48.8644 884.139 104.083C944.135 158.009 812.789 233.682 811.056 304.425C809.612 363.366 917.749 421.467 875.161 470.639C830.702 521.969 715.738 476.358 641.456 500.24C580.621 519.799 556.909 588.483 491.306 594.051C425.798 599.611 372.021 556.7 318.175 527.677C263.691 498.311 211.661 467.542 176.401 424.321Z" stroke="url(#paint5_linear_730_472)" stroke-width="2"/>
<path opacity="0.7525" fill-rule="evenodd" clip-rule="evenodd" d="M187.274 421.855C148.886 370.922 89.6132 311.296 119.362 257.099C150.173 200.968 259.202 205.692 324.866 171.189C376.116 144.261 399.485 86.1285 460.718 77.7377C521.919 69.3515 568.844 123.398 630.539 129.303C724.694 138.316 850.346 63.8486 909.218 120.67C966.713 176.162 831.988 248.289 827.023 318.943C822.886 377.809 928.301 438.757 883.491 486.764C836.713 536.878 723.903 488.231 648.575 510.12C586.884 528.045 560.047 596.056 494.229 599.872C428.506 603.683 376.724 559.366 324.237 528.926C271.129 498.126 220.537 465.989 187.274 421.855Z" stroke="url(#paint6_linear_730_472)" stroke-width="2"/>
<path opacity="0.71125" fill-rule="evenodd" clip-rule="evenodd" d="M198.253 419.68C162.216 367.755 105.705 306.586 137.914 253.215C171.271 197.939 280.017 205.566 347.219 172.834C399.668 147.287 425.68 89.8129 487.26 83.0589C548.806 76.3085 593.232 131.572 654.62 139.118C748.305 150.635 877.285 79.5604 933.524 137.916C988.447 194.906 850.508 263.399 842.316 333.878C835.491 392.598 938.056 456.318 891.079 503.101C842.039 551.938 731.521 500.315 655.239 520.183C592.765 536.454 562.836 603.708 496.884 605.768C431.027 607.825 381.302 562.155 330.238 530.336C278.57 498.139 229.479 464.673 198.253 419.68Z" stroke="url(#paint7_linear_730_472)" stroke-width="2"/>
<path opacity="0.67" fill-rule="evenodd" clip-rule="evenodd" d="M209.324 417.799C175.683 364.945 122.003 302.308 156.631 249.827C192.495 195.474 300.826 205.994 369.483 175.072C423.067 150.939 451.691 94.193 513.542 89.084C575.359 83.9777 617.232 140.391 678.238 149.569C771.339 163.574 903.489 95.9805 957.027 155.799C1009.31 214.218 868.325 278.994 856.917 349.212C847.412 407.714 947.002 474.128 897.915 519.631C846.673 567.131 738.582 512.595 661.438 530.418C598.259 545.014 565.274 611.43 499.268 611.731C433.357 612.032 385.75 565.065 336.172 531.904C286.007 498.351 238.475 463.597 209.324 417.799Z" stroke="url(#paint8_linear_730_472)" stroke-width="2"/>
<path opacity="0.62875" fill-rule="evenodd" clip-rule="evenodd" d="M220.475 416.214C189.27 362.496 138.486 298.466 175.492 246.941C213.818 193.576 321.602 206.976 391.631 177.903C446.286 155.213 477.485 99.2634 539.532 95.8056C601.546 92.3497 640.815 149.845 701.364 160.642C793.768 177.12 928.927 113.089 979.698 174.298C1029.28 234.074 885.419 295.054 870.808 364.925C858.635 423.138 955.129 492.165 903.992 536.332C850.61 582.439 745.078 525.055 667.166 540.812C603.358 553.716 567.358 619.212 501.377 617.754C435.494 616.299 390.062 568.092 342.03 533.63C293.429 498.76 247.514 462.761 220.475 416.214Z" stroke="url(#paint9_linear_730_472)" stroke-width="2"/>
<path opacity="0.5875" fill-rule="evenodd" clip-rule="evenodd" d="M231.692 414.927C202.961 360.41 155.134 295.067 194.473 244.558C235.215 192.248 342.321 208.511 413.636 181.322C469.295 160.102 503.033 105.018 565.2 103.216C627.334 101.415 663.95 159.921 723.969 172.325C815.564 191.255 953.567 130.865 1001.51 193.389C1048.33 254.45 901.769 311.559 883.973 380.998C869.147 438.852 962.426 510.408 909.302 553.186C853.845 597.842 751 537.681 672.415 551.352C608.057 562.548 569.084 627.045 503.211 623.83C437.434 620.62 394.233 571.231 347.805 535.51C300.828 499.367 256.587 462.166 231.692 414.927Z" stroke="url(#paint10_linear_730_472)" stroke-width="2"/>
<path opacity="0.54625" fill-rule="evenodd" clip-rule="evenodd" d="M242.96 413.94C216.739 358.691 171.928 292.112 213.551 242.683C256.66 191.49 362.957 210.598 435.471 185.326C492.066 165.601 528.301 111.45 590.513 111.305C652.691 111.161 686.611 170.607 746.027 184.603C836.701 205.963 977.38 149.286 1022.44 213.05C1066.44 275.322 917.354 328.49 896.395 397.413C878.933 454.836 968.885 528.835 913.838 570.17C856.373 613.321 756.341 550.457 677.179 562.025C612.348 571.499 570.452 634.919 504.765 629.95C439.175 624.99 398.258 574.48 353.491 537.544C308.195 500.171 265.681 461.814 242.96 413.94Z" stroke="url(#paint11_linear_730_472)" stroke-width="2"/>
<path opacity="0.505" fill-rule="evenodd" clip-rule="evenodd" d="M254.267 413.254C230.587 357.34 188.847 289.608 232.704 241.318C278.126 191.304 383.486 213.233 457.111 189.908C514.573 171.704 553.261 118.552 615.441 120.065C677.588 121.577 708.77 181.891 767.51 197.462C857.152 221.224 1000.34 168.331 1042.45 233.257C1083.58 296.663 932.156 345.827 908.059 414.148C887.983 471.071 974.498 547.422 917.595 587.266C858.193 628.859 761.095 563.367 681.453 572.819C616.228 580.56 571.458 642.824 506.039 636.109C440.715 629.403 402.133 577.834 359.081 539.728C315.521 501.17 274.786 461.704 254.267 413.254Z" stroke="url(#paint12_linear_730_472)" stroke-width="2"/>
<path opacity="0.46375" fill-rule="evenodd" clip-rule="evenodd" d="M265.598 412.869C244.489 356.358 205.869 287.555 251.907 240.463C299.588 191.691 403.881 216.414 478.527 195.065C536.786 178.403 577.88 126.314 639.954 129.483C701.994 132.65 730.4 193.759 788.392 210.885C876.893 237.022 1022.41 187.976 1061.53 253.984C1099.73 318.447 946.156 363.546 918.951 431.185C896.286 487.538 979.258 566.147 920.568 604.451C859.302 644.436 765.256 576.397 685.231 583.721C619.692 589.719 572.103 650.752 507.031 642.297C442.053 633.855 405.851 581.29 364.568 542.059C322.796 502.364 283.89 461.837 265.598 412.869Z" stroke="url(#paint13_linear_730_472)" stroke-width="2"/>
<path opacity="0.4225" fill-rule="evenodd" clip-rule="evenodd" d="M276.94 412.787C258.427 355.748 222.976 285.958 271.138 240.121C321.019 192.649 424.118 220.136 499.695 200.789C558.68 185.69 602.13 134.727 664.021 139.548C725.878 144.367 751.474 206.195 808.648 224.856C895.901 253.335 1043.57 208.197 1079.65 275.207C1114.88 340.649 959.338 381.629 929.058 448.501C903.831 504.216 983.159 584.988 922.754 621.704C859.697 660.032 768.819 589.529 688.508 594.716C622.735 598.964 572.385 658.692 507.739 648.509C443.187 638.34 409.409 584.842 369.944 544.535C330.013 503.751 292.983 462.212 276.94 412.787Z" stroke="url(#paint14_linear_730_472)" stroke-width="2"/>
<path opacity="0.38125" fill-rule="evenodd" clip-rule="evenodd" d="M288.279 413.006C272.384 355.509 240.144 284.817 290.373 240.291C342.393 194.177 444.173 224.395 520.588 207.074C580.227 193.555 625.98 143.782 687.613 150.249C749.213 156.713 771.967 219.185 828.253 239.359C914.151 270.145 1063.79 228.969 1096.79 296.9C1129.01 363.241 971.685 400.051 938.367 466.076C910.608 521.085 986.197 603.921 924.151 639.006C859.38 675.63 771.78 602.748 691.28 605.792C625.353 608.285 572.304 666.635 508.162 654.735C444.115 642.853 412.803 588.487 375.204 547.153C337.161 505.33 302.053 462.829 288.279 413.006Z" stroke="url(#paint15_linear_730_472)" stroke-width="2"/>
<path opacity="0.34" fill-rule="evenodd" clip-rule="evenodd" d="M299.601 413.528C286.344 355.642 257.355 284.134 309.588 240.974C363.684 196.274 464.021 229.186 541.181 213.911C601.402 201.99 649.402 153.466 710.702 161.572C771.968 169.673 791.853 232.714 847.183 254.375C931.621 287.432 1083.05 250.268 1112.92 319.037C1142.09 386.196 983.183 418.791 946.868 483.888C916.611 538.124 988.367 622.924 924.755 656.334C858.35 691.21 774.134 616.038 693.544 616.935C627.544 617.67 571.86 674.57 508.301 660.969C444.836 647.387 416.028 592.22 380.342 549.909C344.233 507.098 311.089 463.688 299.601 413.528Z" stroke="url(#paint16_linear_730_472)" stroke-width="2"/>
<path opacity="0.29875" fill-rule="evenodd" clip-rule="evenodd" d="M310.892 414.352C300.289 356.148 274.586 283.91 328.76 242.169C384.867 198.938 483.638 234.502 561.449 221.294C622.179 210.984 672.367 163.769 733.259 173.503C794.118 183.232 811.109 246.764 865.415 269.886C948.291 305.173 1101.33 272.067 1128.04 341.59C1154.12 409.486 993.817 437.827 954.548 501.916C921.831 555.312 989.667 641.973 924.567 673.667C856.608 706.753 775.88 629.383 695.298 628.132C629.304 627.107 571.053 682.489 508.155 667.202C445.349 651.938 419.081 596.037 385.35 552.801C351.22 509.054 320.08 464.786 310.892 414.352Z" stroke="url(#paint17_linear_730_472)" stroke-width="2"/>
<path opacity="0.2575" fill-rule="evenodd" clip-rule="evenodd" d="M322.139 415.475C314.202 357.024 291.817 284.146 347.866 243.874C405.914 202.164 503 240.339 581.368 229.211C642.531 220.527 694.848 174.677 755.257 186.028C815.634 197.373 829.711 261.319 882.927 285.874C964.14 323.348 1118.6 294.34 1142.11 364.532C1165.07 433.081 1003.57 457.134 961.4 520.137C926.263 572.629 990.096 661.045 923.587 690.985C854.157 722.24 777.015 642.766 696.539 639.368C630.632 636.586 569.885 690.382 507.724 673.428C445.654 656.5 421.957 599.933 390.223 555.824C358.114 511.194 329.016 466.124 322.139 415.475Z" stroke="url(#paint18_linear_730_472)" stroke-width="2"/>
<path opacity="0.21625" fill-rule="evenodd" clip-rule="evenodd" d="M333.327 416.898C328.067 358.271 309.027 284.841 366.882 246.086C426.802 205.949 522.084 246.687 600.912 237.655C662.435 230.605 716.815 186.178 776.669 199.132C836.491 212.078 847.637 276.361 899.698 302.319C979.148 341.934 1134.84 317.059 1155.13 387.835C1174.94 456.955 1012.44 476.689 967.415 538.53C929.9 590.054 989.653 680.117 921.816 708.267C851 737.652 777.537 656.171 697.266 650.631C631.526 646.094 568.357 698.239 507.009 679.639C445.75 661.067 424.653 603.903 394.955 558.976C364.905 513.517 337.885 467.699 333.327 416.898Z" stroke="url(#paint19_linear_730_472)" stroke-width="2"/>
<path opacity="0.175" fill-rule="evenodd" clip-rule="evenodd" d="M344.444 418.618C341.866 359.886 326.194 285.994 385.786 248.804C447.504 210.288 540.865 253.541 620.058 246.614C681.866 241.208 738.244 198.257 797.47 212.798C856.663 227.331 864.864 291.871 915.706 319.2C993.298 360.908 1150.03 340.197 1167.07 411.471C1183.72 481.076 1020.41 496.468 972.586 557.072C932.738 607.565 988.339 699.165 919.256 725.49C847.14 752.971 777.446 669.582 697.477 661.906C631.984 655.62 566.471 706.05 506.01 685.827C445.638 665.633 427.166 607.942 399.539 562.251C371.586 516.02 346.677 469.51 344.444 418.618Z" stroke="url(#paint20_linear_730_472)" stroke-width="2"/>
<path opacity="0.13375" fill-rule="evenodd" clip-rule="evenodd" d="M355.475 420.633C355.584 361.869 343.299 287.603 404.554 252.025C467.995 215.176 559.322 260.89 638.784 256.078C700.801 252.323 759.108 210.9 817.632 227.01C876.126 243.111 881.371 307.831 930.934 336.498C1006.57 380.248 1164.16 363.727 1177.93 435.411C1191.38 505.417 1027.47 516.448 976.906 575.741C934.774 625.141 986.154 718.167 915.91 742.635C842.582 768.177 776.742 682.982 697.173 673.18C632.007 665.153 564.229 713.806 504.729 691.984C445.316 670.195 429.493 612.046 403.972 565.647C378.148 518.699 355.38 471.553 355.475 420.633Z" stroke="url(#paint21_linear_730_472)" stroke-width="2"/>
<path opacity="0.0925" fill-rule="evenodd" clip-rule="evenodd" d="M366.407 422.941C369.202 364.215 360.319 289.668 423.163 255.743C488.249 220.607 577.432 268.727 657.065 266.036C719.216 263.935 779.381 224.091 837.133 241.751C894.855 259.401 897.139 324.22 945.361 354.191C1018.95 399.93 1177.2 387.618 1187.69 459.625C1197.93 529.947 1033.62 536.604 980.37 594.513C936.006 642.761 983.102 737.099 911.783 759.68C837.332 783.253 775.426 696.355 696.353 684.439C631.595 674.68 561.633 721.498 503.167 698.104C444.787 674.744 431.631 616.21 408.246 569.159C384.584 521.551 363.985 473.827 366.407 422.941Z" stroke="url(#paint22_linear_730_472)" stroke-width="2"/>
<path opacity="0.05125" fill-rule="evenodd" clip-rule="evenodd" d="M377.227 425.538C382.705 366.923 377.235 292.184 441.591 259.955C508.244 226.575 595.172 277.042 674.88 276.474C737.089 276.031 799.039 237.814 855.949 257.002C912.829 276.179 912.148 341.02 958.971 372.258C1030.43 419.93 1189.14 411.841 1196.33 484.085C1203.35 554.637 1038.84 556.912 982.974 613.367C936.432 660.402 979.187 755.938 906.879 776.605C831.396 798.18 773.5 709.685 695.02 695.669C630.747 684.191 558.688 729.116 501.327 704.178C444.05 679.277 433.578 620.428 412.357 572.782C390.886 524.573 372.481 476.33 377.227 425.538Z" stroke="url(#paint23_linear_730_472)" stroke-width="2"/>
<path opacity="0.01" fill-rule="evenodd" clip-rule="evenodd" d="M387.921 428.422C396.075 369.988 394.024 295.149 459.814 264.654C527.952 233.07 612.521 285.823 692.206 287.379C754.398 288.594 818.056 252.051 874.055 272.744C930.023 293.425 926.38 358.209 971.746 390.675C1040.98 440.222 1199.96 436.368 1203.85 508.759C1207.64 579.455 1043.12 577.344 984.713 632.276C936.05 678.043 974.412 774.66 901.203 793.388C824.78 812.938 770.965 722.955 693.173 706.856C629.463 693.672 555.395 736.65 499.209 710.199C443.105 683.786 435.329 624.694 416.3 576.512C397.045 527.76 380.856 479.055 387.921 428.422Z" stroke="url(#paint24_linear_730_472)" stroke-width="2"/>
</g>
<defs>
<linearGradient id="paint0_linear_730_472" x1="102.679" y1="445.764" x2="701.655" y2="-32.2479" gradientUnits="userSpaceOnUse">
<stop stop-color="white" stop-opacity="0"/>
<stop offset="0.505208" stop-color="white"/>
<stop offset="1" stop-color="white" stop-opacity="0"/>
</linearGradient>
<linearGradient id="paint1_linear_730_472" x1="112.618" y1="441.322" x2="735.325" y2="-17.3881" gradientUnits="userSpaceOnUse">
<stop stop-color="white" stop-opacity="0"/>
<stop offset="0.505208" stop-color="white"/>
<stop offset="1" stop-color="white" stop-opacity="0"/>
</linearGradient>
<linearGradient id="paint2_linear_730_472" x1="122.753" y1="437.145" x2="768.808" y2="-0.617298" gradientUnits="userSpaceOnUse">
<stop stop-color="white" stop-opacity="0"/>
<stop offset="0.505208" stop-color="white"/>
<stop offset="1" stop-color="white" stop-opacity="0"/>
</linearGradient>
<linearGradient id="paint3_linear_730_472" x1="133.072" y1="433.242" x2="801.941" y2="18.1126" gradientUnits="userSpaceOnUse">
<stop stop-color="white" stop-opacity="0"/>
<stop offset="0.505208" stop-color="white"/>
<stop offset="1" stop-color="white" stop-opacity="0"/>
</linearGradient>
<linearGradient id="paint4_linear_730_472" x1="143.563" y1="429.616" x2="834.545" y2="38.8318" gradientUnits="userSpaceOnUse">
<stop stop-color="white" stop-opacity="0"/>
<stop offset="0.505208" stop-color="white"/>
<stop offset="1" stop-color="white" stop-opacity="0"/>
</linearGradient>
<linearGradient id="paint5_linear_730_472" x1="154.214" y1="426.271" x2="866.433" y2="61.5507" gradientUnits="userSpaceOnUse">
<stop stop-color="white" stop-opacity="0"/>
<stop offset="0.505208" stop-color="white"/>
<stop offset="1" stop-color="white" stop-opacity="0"/>
</linearGradient>
<linearGradient id="paint6_linear_730_472" x1="165.011" y1="423.213" x2="897.408" y2="86.2572" gradientUnits="userSpaceOnUse">
<stop stop-color="white" stop-opacity="0"/>
<stop offset="0.505208" stop-color="white"/>
<stop offset="1" stop-color="white" stop-opacity="0"/>
</linearGradient>
<linearGradient id="paint7_linear_730_472" x1="175.942" y1="420.444" x2="927.267" y2="112.915" gradientUnits="userSpaceOnUse">
<stop stop-color="white" stop-opacity="0"/>
<stop offset="0.505208" stop-color="white"/>
<stop offset="1" stop-color="white" stop-opacity="0"/>
</linearGradient>
<linearGradient id="paint8_linear_730_472" x1="186.992" y1="417.968" x2="955.805" y2="141.461" gradientUnits="userSpaceOnUse">
<stop stop-color="white" stop-opacity="0"/>
<stop offset="0.505208" stop-color="white"/>
<stop offset="1" stop-color="white" stop-opacity="0"/>
</linearGradient>
<linearGradient id="paint9_linear_730_472" x1="198.149" y1="415.788" x2="982.823" y2="171.804" gradientUnits="userSpaceOnUse">
<stop stop-color="white" stop-opacity="0"/>
<stop offset="0.505208" stop-color="white"/>
<stop offset="1" stop-color="white" stop-opacity="0"/>
</linearGradient>
<linearGradient id="paint10_linear_730_472" x1="209.399" y1="413.906" x2="1008.13" y2="203.826" gradientUnits="userSpaceOnUse">
<stop stop-color="white" stop-opacity="0"/>
<stop offset="0.505208" stop-color="white"/>
<stop offset="1" stop-color="white" stop-opacity="0"/>
</linearGradient>
<linearGradient id="paint11_linear_730_472" x1="220.727" y1="412.326" x2="1031.53" y2="237.379" gradientUnits="userSpaceOnUse">
<stop stop-color="white" stop-opacity="0"/>
<stop offset="0.505208" stop-color="white"/>
<stop offset="1" stop-color="white" stop-opacity="0"/>
</linearGradient>
<linearGradient id="paint12_linear_730_472" x1="232.122" y1="411.048" x2="1052.88" y2="272.291" gradientUnits="userSpaceOnUse">
<stop stop-color="white" stop-opacity="0"/>
<stop offset="0.505208" stop-color="white"/>
<stop offset="1" stop-color="white" stop-opacity="0"/>
</linearGradient>
<linearGradient id="paint13_linear_730_472" x1="243.567" y1="410.075" x2="1072.02" y2="308.365" gradientUnits="userSpaceOnUse">
<stop stop-color="white" stop-opacity="0"/>
<stop offset="0.505208" stop-color="white"/>
<stop offset="1" stop-color="white" stop-opacity="0"/>
</linearGradient>
<linearGradient id="paint14_linear_730_472" x1="255.05" y1="409.407" x2="1088.84" y2="345.386" gradientUnits="userSpaceOnUse">
<stop stop-color="white" stop-opacity="0"/>
<stop offset="0.505208" stop-color="white"/>
<stop offset="1" stop-color="white" stop-opacity="0"/>
</linearGradient>
<linearGradient id="paint15_linear_730_472" x1="266.557" y1="409.046" x2="1103.25" y2="383.122" gradientUnits="userSpaceOnUse">
<stop stop-color="white" stop-opacity="0"/>
<stop offset="0.505208" stop-color="white"/>
<stop offset="1" stop-color="white" stop-opacity="0"/>
</linearGradient>
<linearGradient id="paint16_linear_730_472" x1="278.073" y1="408.991" x2="1115.21" y2="421.331" gradientUnits="userSpaceOnUse">
<stop stop-color="white" stop-opacity="0"/>
<stop offset="0.505208" stop-color="white"/>
<stop offset="1" stop-color="white" stop-opacity="0"/>
</linearGradient>
<linearGradient id="paint17_linear_730_472" x1="289.585" y1="409.244" x2="1124.69" y2="459.768" gradientUnits="userSpaceOnUse">
<stop stop-color="white" stop-opacity="0"/>
<stop offset="0.505208" stop-color="white"/>
<stop offset="1" stop-color="white" stop-opacity="0"/>
</linearGradient>
<linearGradient id="paint18_linear_730_472" x1="301.078" y1="409.802" x2="1131.7" y2="498.188" gradientUnits="userSpaceOnUse">
<stop stop-color="white" stop-opacity="0"/>
<stop offset="0.505208" stop-color="white"/>
<stop offset="1" stop-color="white" stop-opacity="0"/>
</linearGradient>
<linearGradient id="paint19_linear_730_472" x1="312.538" y1="410.667" x2="1136.29" y2="536.354" gradientUnits="userSpaceOnUse">
<stop stop-color="white" stop-opacity="0"/>
<stop offset="0.505208" stop-color="white"/>
<stop offset="1" stop-color="white" stop-opacity="0"/>
</linearGradient>
<linearGradient id="paint20_linear_730_472" x1="323.952" y1="411.837" x2="1138.54" y2="574.041" gradientUnits="userSpaceOnUse">
<stop stop-color="white" stop-opacity="0"/>
<stop offset="0.505208" stop-color="white"/>
<stop offset="1" stop-color="white" stop-opacity="0"/>
</linearGradient>
<linearGradient id="paint21_linear_730_472" x1="335.306" y1="413.31" x2="1138.56" y2="611.044" gradientUnits="userSpaceOnUse">
<stop stop-color="white" stop-opacity="0"/>
<stop offset="0.505208" stop-color="white"/>
<stop offset="1" stop-color="white" stop-opacity="0"/>
</linearGradient>
<linearGradient id="paint22_linear_730_472" x1="346.585" y1="415.085" x2="1136.47" y2="647.178" gradientUnits="userSpaceOnUse">
<stop stop-color="white" stop-opacity="0"/>
<stop offset="0.505208" stop-color="white"/>
<stop offset="1" stop-color="white" stop-opacity="0"/>
</linearGradient>
<linearGradient id="paint23_linear_730_472" x1="357.776" y1="417.159" x2="1132.42" y2="682.281" gradientUnits="userSpaceOnUse">
<stop stop-color="white" stop-opacity="0"/>
<stop offset="0.505208" stop-color="white"/>
<stop offset="1" stop-color="white" stop-opacity="0"/>
</linearGradient>
<linearGradient id="paint24_linear_730_472" x1="368.865" y1="419.529" x2="1126.58" y2="716.218" gradientUnits="userSpaceOnUse">
<stop stop-color="white" stop-opacity="0"/>
<stop offset="0.505208" stop-color="white"/>
<stop offset="1" stop-color="white" stop-opacity="0"/>
</linearGradient>
</defs>
</svg>
