<svg width="1020" height="653" viewBox="0 0 1020 653" fill="none" xmlns="http://www.w3.org/2000/svg">
<g opacity="0.6">
<path fill-rule="evenodd" clip-rule="evenodd" d="M83.1448 387.699C31.7265 343.973 -42.4872 295.059 -28.1461 237.324C-13.2933 177.528 94.639 164.842 149.473 120.669C192.27 86.1937 199.298 25.6216 256.909 7.69364C314.489 -10.2247 375.105 35.1912 437.061 31.1741C531.612 25.0435 634.241 -67.7437 707.299 -21.5093C778.648 23.6428 666.508 115.581 680.891 185.479C692.874 243.715 812.582 286.597 781.823 340.668C749.714 397.113 626.123 367.438 558.401 400.805C502.939 428.133 495.208 498.917 431.867 513.099C368.619 527.259 305.9 492.131 246.271 470.688C185.937 448.992 127.7 425.588 83.1448 387.699Z" stroke="url(#paint0_linear_704_557)" stroke-width="2"/>
<path opacity="0.95875" fill-rule="evenodd" clip-rule="evenodd" d="M93.2925 383.83C43.9042 338.76 -28.0285 287.899 -11.0572 230.581C6.51983 171.218 114.966 161.415 171.786 118.73C216.133 85.4162 225.925 25.0683 284.32 8.68636C342.684 -7.68679 401.188 39.3167 463.289 36.9529C558.063 33.3455 664.87 -56.6504 735.771 -8.49738C805.012 38.5284 688.738 127.422 699.917 197.661C709.231 256.181 826.906 302.227 793.695 355.445C759.025 411 636.866 378.049 567.66 409.592C510.983 435.425 500.021 505.961 436.071 518.445C372.214 530.912 311.139 494.134 252.526 471.115C193.22 447.825 136.088 422.883 93.2925 383.83Z" stroke="url(#paint1_linear_704_557)" stroke-width="2"/>
<path opacity="0.9175" fill-rule="evenodd" clip-rule="evenodd" d="M103.61 380.232C56.3119 333.874 -13.2522 281.127 6.32868 224.296C26.6084 165.438 135.437 158.53 194.173 117.386C240.015 85.2738 252.561 25.2236 311.669 10.4077C370.745 -4.40033 427.065 44.1335 489.237 43.4259C584.117 42.3461 694.973 -44.749 763.63 5.26398C830.679 54.1062 710.413 139.847 718.375 210.342C725.008 269.074 840.507 318.228 804.883 370.528C767.695 425.125 647.116 388.94 576.511 418.619C518.687 442.926 504.509 513.127 440.026 523.9C375.638 534.657 316.282 496.274 258.757 471.708C200.552 446.851 144.595 420.402 103.61 380.232Z" stroke="url(#paint2_linear_704_557)" stroke-width="2"/>
<path opacity="0.87625" fill-rule="evenodd" clip-rule="evenodd" d="M114.086 376.912C68.9353 329.322 1.82454 274.753 23.9912 218.479C46.9488 160.196 156.027 156.193 216.608 116.639C263.89 85.7676 279.172 26.0883 338.922 12.8564C398.639 -0.368347 452.706 49.6366 514.872 50.5862C609.745 52.0352 724.514 -32.0528 790.843 19.7591C855.619 70.3582 731.507 152.843 736.241 223.506C740.186 282.38 853.368 334.581 815.375 385.9C775.715 439.473 656.863 400.097 584.944 427.877C526.045 450.628 508.666 520.408 443.73 529.456C378.89 538.491 321.324 498.55 264.957 472.466C207.923 446.073 153.209 418.149 114.086 376.912Z" stroke="url(#paint3_linear_704_557)" stroke-width="2"/>
<path opacity="0.835" fill-rule="evenodd" clip-rule="evenodd" d="M124.707 373.873C81.7591 325.108 17.1835 268.785 41.9089 213.135C67.5165 155.5 176.711 154.406 239.063 116.49C287.727 86.8976 305.728 27.6619 366.046 16.0302C426.332 4.40471 478.08 55.8199 540.165 58.4254C634.913 62.4016 753.456 -18.577 817.376 34.9708C879.8 87.2652 751.993 166.392 753.495 237.139C754.747 296.081 865.473 351.267 825.158 401.543C783.073 454.026 666.094 411.506 592.949 437.353C533.045 458.521 512.487 527.795 447.178 535.108C381.964 542.41 326.259 500.959 271.119 473.388C215.326 445.492 161.922 416.128 124.707 373.873Z" stroke="url(#paint4_linear_704_557)" stroke-width="2"/>
<path opacity="0.79375" fill-rule="evenodd" clip-rule="evenodd" d="M135.46 371.118C94.7677 321.239 32.8059 263.229 60.0599 208.272C88.2864 151.355 197.464 153.171 261.512 116.939C311.499 88.662 332.196 29.942 393.009 19.9247C453.789 9.91271 503.156 62.6755 565.084 66.9337C659.593 73.4322 781.765 -4.33828 843.199 50.8802C903.194 104.806 771.849 180.479 770.116 251.222C768.672 310.163 876.809 368.265 834.22 417.436C789.762 468.766 674.797 423.155 600.515 447.037C539.681 466.596 515.969 535.28 450.365 540.848C384.857 546.408 331.081 503.497 277.234 474.475C222.751 445.109 170.721 414.339 135.46 371.118Z" stroke="url(#paint5_linear_704_557)" stroke-width="2"/>
<path opacity="0.7525" fill-rule="evenodd" clip-rule="evenodd" d="M146.333 368.652C107.945 317.719 48.6727 258.093 78.422 203.896C109.233 147.765 218.261 152.49 283.926 117.987C335.175 91.0586 358.544 32.9259 419.778 24.5351C480.979 16.1488 527.903 70.1949 589.599 76.1007C683.753 85.1136 809.406 10.6459 868.278 67.4678C925.772 122.959 791.048 195.087 786.082 265.741C781.945 324.607 887.36 385.555 842.55 433.561C795.773 483.675 682.963 435.029 607.635 456.917C545.943 474.843 519.106 542.853 453.288 546.67C387.566 550.48 335.784 506.163 283.296 475.723C230.188 444.924 179.597 412.786 146.333 368.652Z" stroke="url(#paint6_linear_704_557)" stroke-width="2"/>
<path opacity="0.71125" fill-rule="evenodd" clip-rule="evenodd" d="M157.312 366.477C121.276 314.552 64.7647 253.383 96.9731 200.012C130.331 144.736 239.077 152.363 306.279 119.631C358.727 94.0848 384.739 36.6103 446.319 29.8562C507.866 23.1059 552.292 78.3694 613.68 85.9156C707.365 97.4319 836.345 26.3578 892.584 84.7138C947.506 141.704 809.567 210.197 801.375 280.676C794.55 339.396 897.115 403.115 850.138 449.899C801.099 498.736 690.581 447.113 614.298 466.98C551.825 483.251 521.896 550.505 455.943 552.566C390.087 554.623 340.362 508.953 289.298 477.133C237.63 444.937 188.538 411.471 157.312 366.477Z" stroke="url(#paint7_linear_704_557)" stroke-width="2"/>
<path opacity="0.67" fill-rule="evenodd" clip-rule="evenodd" d="M168.384 364.596C134.743 311.743 81.0621 249.105 115.69 196.625C151.554 142.271 259.886 152.791 328.543 121.87C382.127 97.7367 410.75 40.9903 472.601 35.8813C534.419 30.7751 576.292 87.1887 637.298 96.3661C730.399 110.372 862.549 42.7779 916.086 102.597C968.371 161.016 827.385 225.791 815.977 296.009C806.472 354.511 906.062 420.925 856.975 466.428C805.733 513.929 697.642 459.392 620.498 477.215C557.319 491.812 524.334 558.227 458.327 558.529C392.417 558.83 344.81 511.863 295.231 478.701C245.066 445.148 197.534 410.394 168.384 364.596Z" stroke="url(#paint8_linear_704_557)" stroke-width="2"/>
<path opacity="0.62875" fill-rule="evenodd" clip-rule="evenodd" d="M179.535 363.011C148.33 309.293 97.5451 245.264 134.551 193.738C172.878 140.373 280.662 153.773 350.691 124.7C405.345 102.01 436.545 46.0608 498.592 42.603C560.605 39.1471 599.874 96.6422 660.423 107.44C752.828 123.918 887.987 59.8861 938.757 121.095C988.34 180.872 844.479 241.851 829.868 311.722C817.695 369.935 914.188 438.963 863.052 483.13C809.67 529.236 704.138 471.853 626.226 487.609C562.418 500.513 526.417 566.009 460.437 564.552C394.553 563.096 349.122 514.889 301.089 480.427C252.489 445.557 206.574 409.558 179.535 363.011Z" stroke="url(#paint9_linear_704_557)" stroke-width="2"/>
<path opacity="0.5875" fill-rule="evenodd" clip-rule="evenodd" d="M190.751 361.724C162.021 307.208 114.194 241.864 153.532 191.356C194.275 139.045 301.381 155.309 372.696 128.12C428.354 106.899 462.092 51.8156 524.259 50.0132C586.393 48.2119 623.01 106.718 683.029 119.123C774.624 138.053 912.627 77.6619 960.569 140.187C1007.39 201.248 860.828 258.357 843.033 327.796C828.206 385.649 921.486 457.206 868.361 499.983C812.904 544.639 710.06 484.479 631.475 498.149C567.116 509.345 528.144 573.842 462.27 570.627C396.493 567.417 353.293 518.029 306.865 482.308C259.888 446.164 215.647 408.964 190.751 361.724Z" stroke="url(#paint10_linear_704_557)" stroke-width="2"/>
<path opacity="0.54625" fill-rule="evenodd" clip-rule="evenodd" d="M202.02 360.737C175.799 305.488 130.987 238.91 172.611 189.481C215.72 138.287 322.017 157.395 394.531 132.123C451.126 112.399 487.361 58.2475 549.573 58.1028C611.751 57.9582 645.671 117.405 705.086 131.401C795.76 152.76 936.44 96.0833 981.495 159.847C1025.49 222.119 876.413 275.288 855.455 344.21C837.993 401.633 927.945 475.632 872.897 516.968C815.433 560.119 715.401 497.254 636.239 508.823C571.408 518.297 529.511 581.716 463.825 576.748C398.234 571.787 357.318 521.278 312.551 484.341C267.255 446.968 224.741 408.611 202.02 360.737Z" stroke="url(#paint11_linear_704_557)" stroke-width="2"/>
<path opacity="0.505" fill-rule="evenodd" clip-rule="evenodd" d="M213.327 360.051C189.647 304.137 147.906 236.405 191.763 188.115C237.186 138.102 342.545 160.03 416.17 136.706C473.632 118.502 512.32 65.3489 574.501 66.862C636.648 68.3743 667.83 128.688 726.569 144.259C816.212 168.022 959.396 115.128 1001.51 180.054C1042.64 243.46 891.215 292.624 867.119 360.946C847.043 417.869 933.558 494.219 876.655 534.063C817.253 575.656 720.155 510.165 640.513 519.617C575.288 527.358 530.518 589.622 465.099 582.906C399.775 576.201 361.192 524.632 318.141 486.525C274.58 447.967 233.845 408.501 213.327 360.051Z" stroke="url(#paint12_linear_704_557)" stroke-width="2"/>
<path opacity="0.46375" fill-rule="evenodd" clip-rule="evenodd" d="M224.658 359.666C203.548 303.156 164.929 234.353 210.967 187.261C258.648 138.488 362.94 163.211 437.587 141.862C495.846 125.2 536.94 73.1111 599.013 76.2802C661.053 79.4476 689.46 140.556 747.451 157.682C835.953 183.819 981.468 134.773 1020.59 200.781C1058.79 265.245 905.216 310.344 878.011 377.982C855.345 434.335 938.318 512.944 879.628 551.248C818.361 591.233 724.316 523.194 644.29 530.518C578.751 536.516 531.163 597.549 466.09 589.095C401.113 580.653 364.911 528.087 323.627 488.856C281.856 449.162 242.95 408.634 224.658 359.666Z" stroke="url(#paint13_linear_704_557)" stroke-width="2"/>
<path opacity="0.4225" fill-rule="evenodd" clip-rule="evenodd" d="M236 359.584C217.486 302.545 182.035 232.755 230.197 186.918C280.078 139.446 383.178 166.933 458.754 147.586C517.739 132.487 561.189 81.5244 623.08 86.3456C684.938 91.1643 710.534 152.992 767.707 171.654C854.96 200.133 1002.63 154.994 1038.71 222.005C1073.94 287.447 918.397 328.426 888.118 395.298C862.89 451.013 942.219 531.785 881.814 568.502C818.757 606.83 727.879 536.326 647.567 541.513C581.794 545.761 531.445 605.489 466.798 595.306C402.246 585.138 368.469 531.639 329.004 491.332C289.072 450.549 252.042 409.009 236 359.584Z" stroke="url(#paint14_linear_704_557)" stroke-width="2"/>
<path opacity="0.38125" fill-rule="evenodd" clip-rule="evenodd" d="M247.339 359.804C231.443 302.306 199.204 231.614 249.432 187.089C301.453 140.975 403.233 171.192 479.648 153.871C539.287 140.353 585.04 90.5789 646.673 97.0464C708.272 103.51 731.026 165.983 787.312 186.156C873.21 216.943 1022.85 175.766 1055.85 243.698C1088.07 310.039 930.745 346.848 897.427 412.873C869.668 467.882 945.256 550.719 883.21 585.803C818.44 622.428 730.84 549.545 650.34 552.589C584.412 555.082 531.364 613.432 467.222 601.532C403.174 589.65 371.863 535.284 334.264 493.95C296.221 452.127 261.112 409.626 247.339 359.804Z" stroke="url(#paint15_linear_704_557)" stroke-width="2"/>
<path opacity="0.34" fill-rule="evenodd" clip-rule="evenodd" d="M258.66 360.326C245.403 302.44 216.415 230.931 268.647 187.772C322.744 143.072 423.081 175.983 500.241 160.709C560.462 148.788 608.462 100.263 669.761 108.369C731.028 116.471 750.913 179.511 806.242 201.172C890.681 234.229 1042.11 197.065 1071.98 265.834C1101.15 332.993 942.242 365.589 905.927 430.685C875.671 484.921 947.427 569.721 883.815 603.131C817.409 638.007 733.194 562.835 652.604 563.732C586.603 564.467 530.919 621.368 467.361 607.766C403.895 594.184 375.088 539.017 339.401 496.707C303.293 453.896 270.148 410.485 258.66 360.326Z" stroke="url(#paint16_linear_704_557)" stroke-width="2"/>
<path opacity="0.29875" fill-rule="evenodd" clip-rule="evenodd" d="M269.952 361.149C259.348 302.945 233.646 230.708 287.819 188.966C343.926 145.735 442.698 181.3 520.509 168.091C581.238 157.782 631.427 110.566 692.319 120.3C753.177 130.03 770.169 193.562 824.474 216.684C907.351 251.97 1060.39 218.864 1087.1 288.387C1113.18 356.283 952.877 384.624 913.608 448.713C880.891 502.11 948.727 588.77 883.627 620.465C815.668 653.55 734.94 576.18 654.358 574.929C588.363 573.904 530.113 629.287 467.215 614C404.408 598.735 378.14 542.834 344.409 499.598C310.28 455.851 279.14 411.584 269.952 361.149Z" stroke="url(#paint17_linear_704_557)" stroke-width="2"/>
<path opacity="0.2575" fill-rule="evenodd" clip-rule="evenodd" d="M281.198 362.273C273.262 303.822 250.877 230.943 306.925 190.671C364.974 148.961 462.06 187.136 540.427 176.009C601.591 167.324 653.907 121.474 714.317 132.825C774.694 144.17 788.771 208.116 841.987 232.671C923.199 270.145 1077.66 241.137 1101.17 311.329C1124.13 379.879 962.634 403.931 920.46 466.935C885.322 519.427 949.156 607.842 882.646 637.783C813.217 669.037 736.074 589.563 655.599 586.165C589.691 583.383 528.945 637.179 466.784 620.226C404.713 603.297 381.016 546.73 349.282 502.622C317.173 457.992 288.075 412.921 281.198 362.273Z" stroke="url(#paint18_linear_704_557)" stroke-width="2"/>
<path opacity="0.21625" fill-rule="evenodd" clip-rule="evenodd" d="M292.387 363.695C287.127 305.068 268.086 231.638 325.942 192.884C385.862 152.746 481.143 193.485 559.972 184.452C621.495 177.403 675.875 132.975 735.729 145.929C795.551 158.876 806.696 223.158 858.757 249.116C938.208 288.731 1093.9 263.857 1114.19 334.633C1134 403.752 971.503 423.486 926.475 485.328C888.959 536.851 948.713 626.914 880.875 655.064C810.059 684.45 736.596 602.968 656.325 597.428C590.585 592.891 527.417 645.036 466.068 626.436C404.81 607.864 383.713 550.7 354.014 505.773C323.964 460.315 296.944 414.497 292.387 363.695Z" stroke="url(#paint19_linear_704_557)" stroke-width="2"/>
<path opacity="0.175" fill-rule="evenodd" clip-rule="evenodd" d="M303.503 365.415C300.926 306.684 285.254 232.791 344.845 195.602C406.563 157.085 499.925 200.338 579.118 193.412C640.926 188.006 697.304 145.054 756.529 159.595C815.723 174.128 823.923 238.668 874.766 265.998C952.357 307.705 1109.09 286.995 1126.13 358.268C1142.78 427.874 979.473 443.266 931.646 503.87C891.798 554.363 947.398 645.963 878.315 672.288C806.199 699.768 736.506 616.379 656.536 608.703C591.044 602.418 525.53 652.847 465.07 632.624C404.697 612.431 386.226 554.74 358.599 509.049C330.645 462.817 305.736 416.307 303.503 365.415Z" stroke="url(#paint20_linear_704_557)" stroke-width="2"/>
<path opacity="0.13375" fill-rule="evenodd" clip-rule="evenodd" d="M314.534 367.43C314.643 308.666 302.358 234.401 363.613 198.822C427.054 161.973 518.382 207.688 597.843 202.876C659.861 199.12 718.167 157.697 776.692 173.807C835.185 189.909 840.431 254.628 889.993 283.296C965.631 327.045 1123.21 310.524 1136.99 382.208C1150.44 452.215 986.534 463.246 935.966 522.538C893.834 571.939 945.214 664.964 874.97 689.432C801.641 714.975 735.802 629.779 656.232 619.977C591.067 611.95 523.288 660.604 463.789 638.782C404.376 616.992 388.553 558.844 363.031 512.444C337.208 465.496 314.44 418.351 314.534 367.43Z" stroke="url(#paint21_linear_704_557)" stroke-width="2"/>
<path opacity="0.0925" fill-rule="evenodd" clip-rule="evenodd" d="M325.467 369.738C328.262 311.013 319.379 236.465 382.222 202.54C447.309 167.405 536.491 215.525 616.125 212.833C678.276 210.732 738.44 170.888 796.193 188.548C853.915 206.198 856.199 271.018 904.421 300.989C978.013 346.727 1136.26 334.415 1146.75 406.423C1156.99 476.745 992.677 483.402 939.43 541.311C895.066 589.558 942.162 683.896 870.842 706.478C796.391 730.051 734.486 643.152 655.413 631.237C590.654 621.478 520.693 668.295 462.227 644.901C403.847 621.542 390.691 563.007 367.306 515.956C343.644 468.348 323.045 420.625 325.467 369.738Z" stroke="url(#paint22_linear_704_557)" stroke-width="2"/>
<path opacity="0.05125" fill-rule="evenodd" clip-rule="evenodd" d="M336.287 372.336C341.764 313.72 336.294 238.982 400.65 206.752C467.303 173.372 554.232 223.839 633.94 223.271C696.149 222.828 758.098 184.611 815.008 203.799C871.888 222.977 871.208 287.818 918.031 319.055C989.487 366.727 1148.2 358.639 1155.39 430.882C1162.41 501.434 997.896 503.709 942.033 560.164C895.491 607.2 938.247 702.736 865.938 723.403C790.455 744.977 732.56 656.483 654.079 642.467C589.806 630.988 517.748 675.913 460.387 650.976C403.109 626.074 392.637 567.225 371.417 519.58C349.946 471.37 331.54 423.127 336.287 372.336Z" stroke="url(#paint23_linear_704_557)" stroke-width="2"/>
<path opacity="0.01" fill-rule="evenodd" clip-rule="evenodd" d="M346.981 375.219C355.134 316.785 353.083 241.946 418.874 211.451C487.012 179.868 571.581 232.62 651.266 234.177C713.457 235.391 777.116 198.849 833.114 219.541C889.083 240.223 885.439 305.006 930.806 337.472C1000.04 387.019 1159.02 383.165 1162.91 455.556C1166.7 526.253 1002.18 524.142 943.773 579.074C895.109 624.841 933.472 721.458 860.263 740.186C783.84 759.736 730.024 669.752 652.232 653.654C588.523 640.469 514.455 683.447 458.269 656.996C402.165 630.584 394.389 571.491 375.359 523.309C356.105 474.557 339.916 425.853 346.981 375.219Z" stroke="url(#paint24_linear_704_557)" stroke-width="2"/>
</g>
<defs>
<linearGradient id="paint0_linear_704_557" x1="61.739" y1="392.561" x2="660.715" y2="-85.4506" gradientUnits="userSpaceOnUse">
<stop stop-color="white" stop-opacity="0"/>
<stop offset="0.505208" stop-color="white"/>
<stop offset="1" stop-color="white" stop-opacity="0"/>
</linearGradient>
<linearGradient id="paint1_linear_704_557" x1="71.6776" y1="388.119" x2="694.384" y2="-70.5907" gradientUnits="userSpaceOnUse">
<stop stop-color="white" stop-opacity="0"/>
<stop offset="0.505208" stop-color="white"/>
<stop offset="1" stop-color="white" stop-opacity="0"/>
</linearGradient>
<linearGradient id="paint2_linear_704_557" x1="81.8122" y1="383.943" x2="727.867" y2="-53.8199" gradientUnits="userSpaceOnUse">
<stop stop-color="white" stop-opacity="0"/>
<stop offset="0.505208" stop-color="white"/>
<stop offset="1" stop-color="white" stop-opacity="0"/>
</linearGradient>
<linearGradient id="paint3_linear_704_557" x1="92.1315" y1="380.039" x2="761" y2="-35.0901" gradientUnits="userSpaceOnUse">
<stop stop-color="white" stop-opacity="0"/>
<stop offset="0.505208" stop-color="white"/>
<stop offset="1" stop-color="white" stop-opacity="0"/>
</linearGradient>
<linearGradient id="paint4_linear_704_557" x1="102.623" y1="376.413" x2="793.605" y2="-14.3708" gradientUnits="userSpaceOnUse">
<stop stop-color="white" stop-opacity="0"/>
<stop offset="0.505208" stop-color="white"/>
<stop offset="1" stop-color="white" stop-opacity="0"/>
</linearGradient>
<linearGradient id="paint5_linear_704_557" x1="113.274" y1="373.069" x2="825.493" y2="8.34802" gradientUnits="userSpaceOnUse">
<stop stop-color="white" stop-opacity="0"/>
<stop offset="0.505208" stop-color="white"/>
<stop offset="1" stop-color="white" stop-opacity="0"/>
</linearGradient>
<linearGradient id="paint6_linear_704_557" x1="124.071" y1="370.01" x2="856.467" y2="33.0545" gradientUnits="userSpaceOnUse">
<stop stop-color="white" stop-opacity="0"/>
<stop offset="0.505208" stop-color="white"/>
<stop offset="1" stop-color="white" stop-opacity="0"/>
</linearGradient>
<linearGradient id="paint7_linear_704_557" x1="135.001" y1="367.241" x2="886.326" y2="59.7125" gradientUnits="userSpaceOnUse">
<stop stop-color="white" stop-opacity="0"/>
<stop offset="0.505208" stop-color="white"/>
<stop offset="1" stop-color="white" stop-opacity="0"/>
</linearGradient>
<linearGradient id="paint8_linear_704_557" x1="146.052" y1="364.765" x2="914.865" y2="88.2585" gradientUnits="userSpaceOnUse">
<stop stop-color="white" stop-opacity="0"/>
<stop offset="0.505208" stop-color="white"/>
<stop offset="1" stop-color="white" stop-opacity="0"/>
</linearGradient>
<linearGradient id="paint9_linear_704_557" x1="157.209" y1="362.585" x2="941.882" y2="118.602" gradientUnits="userSpaceOnUse">
<stop stop-color="white" stop-opacity="0"/>
<stop offset="0.505208" stop-color="white"/>
<stop offset="1" stop-color="white" stop-opacity="0"/>
</linearGradient>
<linearGradient id="paint10_linear_704_557" x1="168.458" y1="360.704" x2="967.185" y2="150.623" gradientUnits="userSpaceOnUse">
<stop stop-color="white" stop-opacity="0"/>
<stop offset="0.505208" stop-color="white"/>
<stop offset="1" stop-color="white" stop-opacity="0"/>
</linearGradient>
<linearGradient id="paint11_linear_704_557" x1="179.787" y1="359.123" x2="990.59" y2="184.176" gradientUnits="userSpaceOnUse">
<stop stop-color="white" stop-opacity="0"/>
<stop offset="0.505208" stop-color="white"/>
<stop offset="1" stop-color="white" stop-opacity="0"/>
</linearGradient>
<linearGradient id="paint12_linear_704_557" x1="191.181" y1="357.845" x2="1011.93" y2="219.088" gradientUnits="userSpaceOnUse">
<stop stop-color="white" stop-opacity="0"/>
<stop offset="0.505208" stop-color="white"/>
<stop offset="1" stop-color="white" stop-opacity="0"/>
</linearGradient>
<linearGradient id="paint13_linear_704_557" x1="202.627" y1="356.872" x2="1031.08" y2="255.163" gradientUnits="userSpaceOnUse">
<stop stop-color="white" stop-opacity="0"/>
<stop offset="0.505208" stop-color="white"/>
<stop offset="1" stop-color="white" stop-opacity="0"/>
</linearGradient>
<linearGradient id="paint14_linear_704_557" x1="214.11" y1="356.204" x2="1047.9" y2="292.183" gradientUnits="userSpaceOnUse">
<stop stop-color="white" stop-opacity="0"/>
<stop offset="0.505208" stop-color="white"/>
<stop offset="1" stop-color="white" stop-opacity="0"/>
</linearGradient>
<linearGradient id="paint15_linear_704_557" x1="225.616" y1="355.843" x2="1062.31" y2="329.919" gradientUnits="userSpaceOnUse">
<stop stop-color="white" stop-opacity="0"/>
<stop offset="0.505208" stop-color="white"/>
<stop offset="1" stop-color="white" stop-opacity="0"/>
</linearGradient>
<linearGradient id="paint16_linear_704_557" x1="237.133" y1="355.788" x2="1074.27" y2="368.128" gradientUnits="userSpaceOnUse">
<stop stop-color="white" stop-opacity="0"/>
<stop offset="0.505208" stop-color="white"/>
<stop offset="1" stop-color="white" stop-opacity="0"/>
</linearGradient>
<linearGradient id="paint17_linear_704_557" x1="248.644" y1="356.041" x2="1083.75" y2="406.565" gradientUnits="userSpaceOnUse">
<stop stop-color="white" stop-opacity="0"/>
<stop offset="0.505208" stop-color="white"/>
<stop offset="1" stop-color="white" stop-opacity="0"/>
</linearGradient>
<linearGradient id="paint18_linear_704_557" x1="260.137" y1="356.6" x2="1090.76" y2="444.985" gradientUnits="userSpaceOnUse">
<stop stop-color="white" stop-opacity="0"/>
<stop offset="0.505208" stop-color="white"/>
<stop offset="1" stop-color="white" stop-opacity="0"/>
</linearGradient>
<linearGradient id="paint19_linear_704_557" x1="271.598" y1="357.465" x2="1095.35" y2="483.151" gradientUnits="userSpaceOnUse">
<stop stop-color="white" stop-opacity="0"/>
<stop offset="0.505208" stop-color="white"/>
<stop offset="1" stop-color="white" stop-opacity="0"/>
</linearGradient>
<linearGradient id="paint20_linear_704_557" x1="283.012" y1="358.635" x2="1097.6" y2="520.839" gradientUnits="userSpaceOnUse">
<stop stop-color="white" stop-opacity="0"/>
<stop offset="0.505208" stop-color="white"/>
<stop offset="1" stop-color="white" stop-opacity="0"/>
</linearGradient>
<linearGradient id="paint21_linear_704_557" x1="294.365" y1="360.108" x2="1097.62" y2="557.842" gradientUnits="userSpaceOnUse">
<stop stop-color="white" stop-opacity="0"/>
<stop offset="0.505208" stop-color="white"/>
<stop offset="1" stop-color="white" stop-opacity="0"/>
</linearGradient>
<linearGradient id="paint22_linear_704_557" x1="305.645" y1="361.883" x2="1095.53" y2="593.975" gradientUnits="userSpaceOnUse">
<stop stop-color="white" stop-opacity="0"/>
<stop offset="0.505208" stop-color="white"/>
<stop offset="1" stop-color="white" stop-opacity="0"/>
</linearGradient>
<linearGradient id="paint23_linear_704_557" x1="316.836" y1="363.957" x2="1091.48" y2="629.078" gradientUnits="userSpaceOnUse">
<stop stop-color="white" stop-opacity="0"/>
<stop offset="0.505208" stop-color="white"/>
<stop offset="1" stop-color="white" stop-opacity="0"/>
</linearGradient>
<linearGradient id="paint24_linear_704_557" x1="327.925" y1="366.327" x2="1085.64" y2="663.016" gradientUnits="userSpaceOnUse">
<stop stop-color="white" stop-opacity="0"/>
<stop offset="0.505208" stop-color="white"/>
<stop offset="1" stop-color="white" stop-opacity="0"/>
</linearGradient>
</defs>
</svg>
