<svg width="1336" height="1146" viewBox="0 0 1336 1146" fill="none" xmlns="http://www.w3.org/2000/svg">
<g opacity="0.6">
<g opacity="0.3">
<path fill-rule="evenodd" clip-rule="evenodd" d="M234.936 527.869C166.789 451.968 68.4305 367.062 87.4374 266.844C107.123 163.049 250.17 141.027 322.845 64.3507C379.565 4.50743 388.88 -100.635 465.234 -131.755C541.547 -162.858 621.885 -84.0241 703.998 -90.9972C829.311 -101.639 965.329 -262.702 1062.16 -182.446C1156.72 -104.07 1008.09 55.5182 1027.16 176.85C1043.04 277.938 1201.69 352.374 1160.93 446.232C1118.37 544.21 954.57 492.699 864.815 550.619C791.309 598.055 781.063 720.925 697.114 745.541C613.289 770.122 530.165 709.144 451.136 671.924C371.171 634.263 293.987 593.638 234.936 527.869Z" stroke="url(#paint0_linear_364_2050)" stroke-opacity="0.7" stroke-width="2"/>
<path opacity="0.95875" fill-rule="evenodd" clip-rule="evenodd" d="M248.386 521.152C182.93 442.919 87.594 354.633 110.087 255.139C133.382 152.094 277.111 135.078 352.418 60.9849C411.192 3.15756 424.171 -101.596 501.565 -130.032C578.917 -158.453 656.454 -76.8632 738.76 -80.9663C864.368 -87.2282 1005.92 -243.446 1099.89 -159.86C1191.66 -78.2315 1037.56 76.0726 1052.37 197.996C1064.72 299.577 1220.68 379.504 1176.66 471.882C1130.71 568.315 968.809 511.119 877.088 565.872C801.971 610.713 787.443 733.15 702.686 754.822C618.053 776.462 537.108 712.621 459.426 672.665C380.825 632.237 305.106 588.943 248.386 521.152Z" stroke="url(#paint1_linear_364_2050)" stroke-opacity="0.7" stroke-width="2"/>
<path opacity="0.9175" fill-rule="evenodd" clip-rule="evenodd" d="M262.061 514.908C199.374 434.438 107.178 342.878 133.129 244.23C160.007 142.061 304.242 130.071 382.088 58.6512C442.845 2.91024 459.472 -101.327 537.811 -127.044C616.107 -152.749 690.75 -68.5023 773.149 -69.7305C898.899 -71.6049 1045.82 -222.787 1136.82 -135.973C1225.68 -51.1913 1066.28 97.6407 1076.84 220.006C1085.63 321.956 1238.7 407.278 1191.49 498.063C1142.2 592.835 982.395 530.022 888.818 581.541C812.182 623.734 793.39 745.589 707.929 764.29C622.592 782.963 543.925 716.336 467.684 673.693C390.542 630.546 316.38 584.636 262.061 514.908Z" stroke="url(#paint2_linear_364_2050)" stroke-opacity="0.7" stroke-width="2"/>
<path opacity="0.87625" fill-rule="evenodd" clip-rule="evenodd" d="M275.944 509.144C216.105 426.535 127.16 331.814 156.538 234.131C186.965 132.963 331.531 126.014 411.822 57.3542C474.487 3.76757 494.742 -99.8255 573.93 -122.794C653.077 -145.75 724.734 -58.9497 807.125 -57.3014C932.864 -54.7861 1084.97 -200.749 1172.88 -110.812C1258.73 -22.9805 1094.24 120.198 1100.52 242.858C1105.74 345.052 1255.75 435.664 1205.4 524.746C1152.83 617.74 995.312 549.389 899.995 597.61C821.933 637.103 798.9 758.228 712.838 773.935C626.902 789.618 550.607 720.286 475.901 675.009C400.312 629.196 327.797 580.725 275.944 509.144Z" stroke="url(#paint3_linear_364_2050)" stroke-opacity="0.7" stroke-width="2"/>
<path opacity="0.835" fill-rule="evenodd" clip-rule="evenodd" d="M290.021 503.868C233.101 419.222 147.516 321.454 180.285 224.856C214.224 124.811 358.945 122.912 441.583 57.0959C506.08 5.7289 529.938 -97.0941 609.88 -117.285C689.779 -137.465 758.363 -48.2166 840.647 -43.694C966.221 -36.7919 1123.33 -177.357 1208.05 -84.4071C1290.78 6.3669 1121.39 143.718 1123.38 266.521C1125.04 368.836 1271.79 464.628 1218.36 551.899C1162.58 643.001 1007.55 569.194 910.604 614.06C831.211 650.804 803.965 771.052 717.407 783.745C630.976 796.42 557.148 724.468 484.068 676.611C410.123 628.188 339.344 577.216 290.021 503.868Z" stroke="url(#paint4_linear_364_2050)" stroke-opacity="0.7" stroke-width="2"/>
<path opacity="0.79375" fill-rule="evenodd" clip-rule="evenodd" d="M304.273 499.087C250.342 412.506 168.221 311.81 204.342 216.415C241.751 117.615 386.45 120.768 471.335 57.8764C537.585 8.79163 565.017 -93.1362 645.615 -110.525C726.17 -127.904 791.597 -36.3165 873.673 -28.9249C998.93 -17.6446 1160.85 -152.641 1242.27 -56.7911C1321.79 36.8149 1147.71 168.17 1145.41 290.969C1143.5 393.279 1286.82 494.134 1230.37 579.487C1171.45 668.587 1019.08 589.415 920.632 630.87C840.005 664.82 808.579 784.044 721.631 793.709C634.81 803.36 563.538 728.875 492.173 678.497C419.963 627.522 351.006 574.111 304.273 499.087Z" stroke="url(#paint5_linear_364_2050)" stroke-opacity="0.7" stroke-width="2"/>
<path opacity="0.7525" fill-rule="evenodd" clip-rule="evenodd" d="M318.683 494.806C267.806 406.395 189.25 302.895 228.678 208.819C269.513 111.385 414.013 119.585 501.042 59.6946C568.965 12.9518 599.937 -87.9565 681.092 -102.522C762.205 -117.079 824.396 -23.2639 906.164 -13.0125C1030.95 2.63241 1197.48 -126.631 1275.51 -27.9978C1351.71 68.3263 1173.15 193.527 1166.57 316.17C1161.09 418.351 1300.8 524.147 1241.41 607.477C1179.42 694.467 1029.9 610.025 930.068 648.019C848.305 679.135 812.737 797.19 725.505 803.814C638.4 810.429 569.771 733.502 500.207 680.664C429.821 627.201 362.769 571.416 318.683 494.806Z" stroke="url(#paint6_linear_364_2050)" stroke-opacity="0.7" stroke-width="2"/>
<path opacity="0.71125" fill-rule="evenodd" clip-rule="evenodd" d="M333.234 491.031C285.474 400.898 210.577 294.72 253.264 202.076C297.475 106.127 441.601 119.366 530.667 62.5486C600.18 18.2047 634.654 -81.5612 716.269 -93.2851C797.84 -105.003 856.719 -9.07451 938.08 4.02438C1062.24 24.0147 1233.19 -99.3578 1307.72 1.93818C1380.52 100.863 1197.7 219.755 1186.84 342.094C1177.8 444.022 1313.73 554.629 1251.47 635.836C1186.47 720.609 1040 631.001 938.899 665.488C856.101 693.731 816.434 810.473 729.024 814.049C641.742 817.62 575.839 738.344 508.161 683.111C439.683 627.223 374.62 569.132 333.234 491.031Z" stroke="url(#paint7_linear_364_2050)" stroke-opacity="0.7" stroke-width="2"/>
<path opacity="0.67" fill-rule="evenodd" clip-rule="evenodd" d="M347.908 487.766C303.322 396.021 232.177 287.293 278.071 196.196C325.604 101.848 469.18 120.109 560.174 66.4348C631.192 24.544 669.128 -73.9581 751.102 -82.8265C833.032 -91.69 888.528 6.23443 969.381 22.1648C1092.77 46.4762 1267.92 -70.8553 1338.87 32.9802C1408.17 134.385 1221.31 246.825 1206.19 368.71C1193.6 470.26 1325.59 585.544 1260.53 664.529C1192.62 746.982 1049.36 652.316 947.116 683.254C863.382 708.59 819.665 823.876 732.184 824.4C644.83 824.922 581.734 743.395 516.025 685.833C449.539 627.59 386.543 567.264 347.908 487.766Z" stroke="url(#paint8_linear_364_2050)" stroke-opacity="0.7" stroke-width="2"/>
<path opacity="0.62875" fill-rule="evenodd" clip-rule="evenodd" d="M362.687 485.015C321.33 391.77 254.022 280.625 303.068 191.186C353.864 98.554 496.716 121.814 589.528 71.3483C661.965 31.9615 703.315 -65.1567 785.548 -71.1588C867.738 -77.1576 919.782 22.644 1000.03 41.3864C1122.5 69.9893 1301.63 -41.1583 1368.92 65.0903C1434.63 168.852 1243.97 274.702 1224.6 395.986C1208.47 497.034 1336.36 616.853 1268.58 693.52C1197.83 773.553 1057.97 673.945 954.707 701.295C870.14 723.695 822.427 837.384 734.98 834.854C647.661 832.328 587.449 748.649 523.789 688.829C459.376 628.301 398.524 565.813 362.687 485.015Z" stroke="url(#paint9_linear_364_2050)" stroke-opacity="0.7" stroke-width="2"/>
<path opacity="0.5875" fill-rule="evenodd" clip-rule="evenodd" d="M377.553 482.781C339.475 388.15 276.088 274.724 328.225 187.05C382.223 96.2479 524.176 124.479 618.692 77.2833C692.459 40.4484 737.174 -55.1675 819.567 -58.296C901.916 -61.4228 950.445 40.1343 1029.99 61.6659C1151.39 94.5255 1334.29 -10.3027 1397.83 98.2295C1459.88 204.221 1265.64 303.353 1242.05 423.887C1222.4 524.31 1346.03 648.52 1275.62 722.775C1202.12 800.29 1065.82 695.861 961.664 719.591C876.367 739.025 824.715 850.981 737.41 845.401C650.232 839.828 592.977 754.099 531.444 692.093C469.183 629.354 410.548 564.781 377.553 482.781Z" stroke="url(#paint10_linear_364_2050)" stroke-opacity="0.7" stroke-width="2"/>
<path opacity="0.54625" fill-rule="evenodd" clip-rule="evenodd" d="M392.488 481.067C357.736 385.165 298.345 269.596 353.511 183.795C410.645 94.9328 551.525 128.101 647.632 84.2325C722.639 49.9945 770.663 -44.0026 853.116 -44.2538C935.523 -44.5048 980.479 58.6841 1059.22 82.9787C1179.4 120.055 1365.85 21.6738 1425.56 132.357C1483.88 240.45 1286.29 332.742 1258.52 452.38C1235.37 552.056 1354.59 680.505 1281.63 752.257C1205.47 827.16 1072.9 718.038 967.979 738.119C882.055 754.564 826.527 864.649 739.47 856.025C652.54 847.414 598.311 759.738 538.98 695.623C478.946 630.749 422.601 564.169 392.488 481.067Z" stroke="url(#paint11_linear_364_2050)" stroke-opacity="0.7" stroke-width="2"/>
<path opacity="0.505" fill-rule="evenodd" clip-rule="evenodd" d="M407.473 479.876C376.089 382.819 320.768 265.248 378.894 181.425C439.095 94.6104 578.732 132.675 676.311 92.1873C752.468 60.5879 803.743 -31.6759 886.154 -29.0494C968.52 -26.4243 1009.85 78.2708 1087.7 105.299C1206.5 146.546 1396.27 54.7321 1452.09 167.432C1506.6 277.494 1305.91 362.835 1273.97 481.43C1247.37 580.238 1362.03 712.769 1286.61 781.931C1207.88 854.13 1079.2 740.448 973.643 756.855C887.197 770.292 827.862 878.372 741.158 866.715C654.582 855.075 603.446 765.56 546.388 699.413C488.655 632.484 434.668 563.978 407.473 479.876Z" stroke="url(#paint12_linear_364_2050)" stroke-opacity="0.7" stroke-width="2"/>
<path opacity="0.46375" fill-rule="evenodd" clip-rule="evenodd" d="M422.491 479.209C394.514 381.116 343.329 261.685 404.345 179.942C467.539 95.2812 605.763 138.196 704.695 101.138C781.909 72.216 836.373 -18.2022 918.641 -12.7011C1000.87 -7.20306 1038.51 98.8705 1115.37 128.599C1232.67 173.968 1425.53 88.8323 1477.37 203.412C1528.01 315.309 1324.47 393.593 1288.41 511.002C1258.37 608.821 1368.34 745.273 1290.55 811.761C1209.35 881.169 1084.71 763.065 978.649 775.778C891.788 786.19 828.716 892.133 742.472 877.457C656.355 862.803 608.374 771.558 553.66 703.46C498.298 634.557 446.734 564.208 422.491 479.209Z" stroke="url(#paint13_linear_364_2050)" stroke-opacity="0.7" stroke-width="2"/>
<path opacity="0.4225" fill-rule="evenodd" clip-rule="evenodd" d="M437.523 479.066C412.986 380.056 366.001 258.912 429.833 179.348C495.942 96.9442 632.585 144.657 732.75 111.074C810.926 84.8644 868.512 -3.59793 950.539 4.77089C1032.52 13.1352 1066.44 120.458 1142.22 152.851C1257.86 202.285 1453.57 123.932 1501.39 240.252C1548.09 353.848 1341.94 424.981 1301.81 541.059C1268.37 637.771 1373.51 777.978 1293.45 841.711C1209.88 908.242 1089.43 785.86 982.992 794.864C895.82 802.238 829.09 905.915 743.411 888.239C657.857 870.588 613.09 777.724 560.786 707.758C507.862 636.965 458.785 564.859 437.523 479.066Z" stroke="url(#paint14_linear_364_2050)" stroke-opacity="0.7" stroke-width="2"/>
<path opacity="0.38125" fill-rule="evenodd" clip-rule="evenodd" d="M452.551 479.447C431.484 379.642 388.756 256.932 455.325 179.644C524.271 99.5975 659.164 152.05 760.441 121.984C839.484 98.5178 900.122 12.1191 981.807 23.3455C1063.45 34.5659 1093.6 143.007 1168.2 178.025C1282.05 231.465 1480.37 159.99 1524.1 277.907C1566.81 393.064 1358.3 456.959 1314.14 571.566C1277.35 667.052 1377.53 810.843 1295.3 871.743C1209.46 935.317 1093.36 808.806 986.667 814.09C899.29 818.417 828.982 919.702 743.972 899.046C659.087 878.421 617.588 784.051 567.757 712.303C517.336 639.705 470.805 565.931 452.551 479.447Z" stroke="url(#paint15_linear_364_2050)" stroke-opacity="0.7" stroke-width="2"/>
<path opacity="0.34" fill-rule="evenodd" clip-rule="evenodd" d="M467.556 480.353C449.986 379.873 411.566 255.747 480.792 180.829C552.489 103.238 685.47 160.366 787.734 133.852C867.547 113.16 931.164 28.9297 1012.41 43.0001C1093.61 57.0628 1119.96 166.491 1193.29 204.09C1305.2 261.471 1505.9 196.961 1545.49 316.332C1584.15 432.909 1373.54 489.489 1325.41 602.485C1285.31 696.629 1380.41 843.828 1296.1 901.822C1208.09 962.361 1096.48 831.875 989.668 833.432C902.194 834.707 828.394 933.477 744.157 909.867C660.042 886.292 621.862 790.531 574.566 717.087C526.709 642.775 482.781 567.421 467.556 480.353Z" stroke="url(#paint16_linear_364_2050)" stroke-opacity="0.7" stroke-width="2"/>
<path opacity="0.29875" fill-rule="evenodd" clip-rule="evenodd" d="M482.521 481.782C468.468 380.75 434.403 255.359 506.202 182.903C580.563 107.861 711.469 169.595 814.596 146.667C895.083 128.772 961.601 46.8135 1042.3 63.7106C1122.96 80.5986 1145.48 190.88 1217.46 231.015C1327.3 292.267 1530.12 234.801 1565.52 355.481C1600.09 473.336 1387.63 522.531 1335.59 633.779C1292.23 726.466 1382.13 876.894 1295.85 931.91C1205.78 989.341 1098.79 855.039 991.992 852.868C904.527 851.089 827.325 947.223 743.963 920.688C660.723 894.191 625.908 797.157 581.203 722.107C535.97 646.169 494.698 569.328 482.521 481.782Z" stroke="url(#paint17_linear_364_2050)" stroke-opacity="0.7" stroke-width="2"/>
<path opacity="0.2575" fill-rule="evenodd" clip-rule="evenodd" d="M497.426 483.733C486.908 382.272 457.24 255.768 531.524 185.862C608.458 113.461 737.131 179.726 840.995 160.41C922.057 145.335 991.395 65.7485 1071.46 85.4518C1151.48 105.144 1170.14 216.144 1240.67 258.767C1348.3 323.815 1553.01 273.462 1584.17 395.304C1614.61 514.294 1400.57 556.044 1344.67 665.408C1298.1 756.525 1382.7 910 1294.55 961.971C1202.54 1016.22 1100.29 878.27 993.637 872.372C906.287 867.543 825.777 960.924 743.392 931.495C661.127 902.11 629.72 803.919 587.662 727.355C545.106 649.885 506.541 571.651 497.426 483.733Z" stroke="url(#paint18_linear_364_2050)" stroke-opacity="0.7" stroke-width="2"/>
<path opacity="0.21625" fill-rule="evenodd" clip-rule="evenodd" d="M512.255 486.202C505.284 384.436 480.049 256.974 556.727 189.703C636.142 120.031 762.423 190.746 866.898 175.067C948.437 162.831 1020.51 85.7119 1099.84 108.197C1179.12 130.671 1193.89 242.254 1262.89 287.313C1368.19 356.077 1574.54 312.899 1601.43 435.755C1627.69 555.734 1412.32 589.989 1352.64 697.335C1302.92 786.772 1382.11 943.105 1292.21 991.968C1198.35 1042.98 1100.99 901.539 994.6 891.923C907.471 884.047 823.751 974.562 742.444 942.276C661.255 910.037 633.293 810.81 593.933 732.825C554.107 653.917 518.296 574.385 512.255 486.202Z" stroke="url(#paint19_linear_364_2050)" stroke-opacity="0.7" stroke-width="2"/>
<path opacity="0.175" fill-rule="evenodd" clip-rule="evenodd" d="M526.988 489.188C523.573 387.24 502.802 258.975 581.781 194.421C663.579 127.563 787.315 202.642 892.273 190.619C974.19 181.236 1048.91 106.679 1127.4 131.919C1205.86 157.146 1216.73 269.177 1284.11 316.616C1386.94 389.014 1594.67 353.063 1617.26 476.782C1639.32 597.605 1422.88 624.323 1359.49 729.521C1306.68 817.168 1380.37 976.17 1288.81 1021.87C1193.23 1069.57 1100.87 924.818 994.879 911.494C908.079 900.583 821.251 988.121 741.12 953.017C661.105 917.965 636.624 817.822 600.009 738.511C562.961 658.261 529.948 577.527 526.988 489.188Z" stroke="url(#paint20_linear_364_2050)" stroke-opacity="0.7" stroke-width="2"/>
<path opacity="0.13375" fill-rule="evenodd" clip-rule="evenodd" d="M541.608 492.686C541.753 390.681 525.471 261.769 606.655 200.01C690.736 136.048 811.777 215.4 917.091 207.047C999.285 200.528 1076.56 128.625 1154.13 156.589C1231.65 184.538 1238.6 296.88 1304.29 346.642C1404.54 422.584 1613.39 393.906 1631.65 518.338C1649.48 639.857 1432.24 659.005 1365.22 761.927C1309.38 847.677 1377.48 1009.15 1284.38 1051.63C1187.19 1095.96 1099.93 948.078 994.476 931.064C908.11 917.13 818.28 1001.58 739.422 963.705C660.68 925.882 639.708 824.946 605.884 744.405C571.659 662.911 541.483 581.074 541.608 492.686Z" stroke="url(#paint21_linear_364_2050)" stroke-opacity="0.7" stroke-width="2"/>
<path opacity="0.0925" fill-rule="evenodd" clip-rule="evenodd" d="M556.097 496.692C559.802 394.754 548.029 265.352 631.319 206.465C717.581 145.475 835.778 229.003 941.32 224.331C1023.69 220.685 1103.43 151.522 1179.97 182.176C1256.47 212.814 1259.5 325.33 1323.41 377.354C1420.95 456.749 1630.67 435.377 1644.58 560.37C1658.15 682.437 1440.38 693.992 1369.81 794.512C1311.01 878.262 1373.43 1042.02 1278.91 1081.21C1180.24 1122.13 1098.19 971.292 993.39 950.608C907.563 933.668 814.84 1014.94 737.352 974.328C659.978 933.779 642.542 832.173 611.549 750.501C580.189 667.862 552.888 585.022 556.097 496.692Z" stroke="url(#paint22_linear_364_2050)" stroke-opacity="0.7" stroke-width="2"/>
<path opacity="0.05125" fill-rule="evenodd" clip-rule="evenodd" d="M570.438 501.201C577.698 399.455 570.448 269.721 655.742 213.776C744.08 155.834 859.291 243.436 964.931 242.45C1047.38 241.681 1129.48 175.343 1204.91 208.65C1280.3 241.939 1279.39 354.492 1341.45 408.715C1436.15 491.465 1646.5 477.425 1656.03 602.827C1665.34 725.294 1447.3 729.242 1373.26 827.238C1311.58 908.884 1368.24 1074.72 1272.41 1110.59C1172.37 1148.04 1095.64 994.431 991.623 970.102C906.439 950.177 810.936 1028.16 734.913 984.872C659.001 941.648 645.122 839.495 616.998 756.791C588.541 673.108 564.147 589.365 570.438 501.201Z" stroke="url(#paint23_linear_364_2050)" stroke-opacity="0.7" stroke-width="2"/>
<path opacity="0.01" fill-rule="evenodd" clip-rule="evenodd" d="M584.61 506.206C595.416 404.775 592.699 274.867 679.893 221.933C770.2 167.11 882.283 258.679 987.893 261.381C1070.32 263.489 1154.69 200.057 1228.91 235.976C1303.08 271.876 1298.25 384.329 1358.38 440.684C1450.14 526.689 1660.85 519.999 1666 645.657C1671.03 768.374 1452.98 764.71 1375.57 860.063C1311.07 939.507 1361.91 1107.22 1264.89 1139.73C1163.6 1173.66 1092.28 1017.46 989.174 989.52C904.738 966.635 806.572 1041.24 732.106 995.322C657.748 949.475 647.442 846.9 622.222 763.265C596.703 678.64 575.247 594.097 584.61 506.206Z" stroke="url(#paint24_linear_364_2050)" stroke-opacity="0.7" stroke-width="2"/>
</g>
</g>
<defs>
<linearGradient id="paint0_linear_364_2050" x1="206.566" y1="536.309" x2="1154.18" y2="-41.0968" gradientUnits="userSpaceOnUse">
<stop stop-color="white"/>
<stop offset="1" stop-color="white" stop-opacity="0"/>
</linearGradient>
<linearGradient id="paint1_linear_364_2050" x1="219.739" y1="528.598" x2="1186.92" y2="-15.3854" gradientUnits="userSpaceOnUse">
<stop stop-color="white"/>
<stop offset="1" stop-color="white" stop-opacity="0"/>
</linearGradient>
<linearGradient id="paint2_linear_364_2050" x1="233.171" y1="521.349" x2="1218.75" y2="11.4511" gradientUnits="userSpaceOnUse">
<stop stop-color="white"/>
<stop offset="1" stop-color="white" stop-opacity="0"/>
</linearGradient>
<linearGradient id="paint3_linear_364_2050" x1="246.848" y1="514.573" x2="1249.62" y2="39.382" gradientUnits="userSpaceOnUse">
<stop stop-color="white"/>
<stop offset="1" stop-color="white" stop-opacity="0"/>
</linearGradient>
<linearGradient id="paint4_linear_364_2050" x1="260.752" y1="508.278" x2="1279.5" y2="68.3734" gradientUnits="userSpaceOnUse">
<stop stop-color="white"/>
<stop offset="1" stop-color="white" stop-opacity="0"/>
</linearGradient>
<linearGradient id="paint5_linear_364_2050" x1="274.868" y1="502.473" x2="1308.35" y2="98.3898" gradientUnits="userSpaceOnUse">
<stop stop-color="white"/>
<stop offset="1" stop-color="white" stop-opacity="0"/>
</linearGradient>
<linearGradient id="paint6_linear_364_2050" x1="289.179" y1="497.164" x2="1336.13" y2="129.395" gradientUnits="userSpaceOnUse">
<stop stop-color="white"/>
<stop offset="1" stop-color="white" stop-opacity="0"/>
</linearGradient>
<linearGradient id="paint7_linear_364_2050" x1="303.665" y1="492.357" x2="1362.81" y2="161.35" gradientUnits="userSpaceOnUse">
<stop stop-color="white"/>
<stop offset="1" stop-color="white" stop-opacity="0"/>
</linearGradient>
<linearGradient id="paint8_linear_364_2050" x1="318.311" y1="488.059" x2="1388.37" y2="194.218" gradientUnits="userSpaceOnUse">
<stop stop-color="white"/>
<stop offset="1" stop-color="white" stop-opacity="0"/>
</linearGradient>
<linearGradient id="paint9_linear_364_2050" x1="333.097" y1="484.275" x2="1412.75" y2="227.957" gradientUnits="userSpaceOnUse">
<stop stop-color="white"/>
<stop offset="1" stop-color="white" stop-opacity="0"/>
</linearGradient>
<linearGradient id="paint10_linear_364_2050" x1="348.007" y1="481.009" x2="1435.95" y2="262.527" gradientUnits="userSpaceOnUse">
<stop stop-color="white"/>
<stop offset="1" stop-color="white" stop-opacity="0"/>
</linearGradient>
<linearGradient id="paint11_linear_364_2050" x1="363.021" y1="478.266" x2="1457.93" y2="297.885" gradientUnits="userSpaceOnUse">
<stop stop-color="white"/>
<stop offset="1" stop-color="white" stop-opacity="0"/>
</linearGradient>
<linearGradient id="paint12_linear_364_2050" x1="378.123" y1="476.048" x2="1478.66" y2="333.989" gradientUnits="userSpaceOnUse">
<stop stop-color="white"/>
<stop offset="1" stop-color="white" stop-opacity="0"/>
</linearGradient>
<linearGradient id="paint13_linear_364_2050" x1="393.292" y1="474.358" x2="1498.12" y2="370.794" gradientUnits="userSpaceOnUse">
<stop stop-color="white"/>
<stop offset="1" stop-color="white" stop-opacity="0"/>
</linearGradient>
<linearGradient id="paint14_linear_364_2050" x1="408.511" y1="473.199" x2="1516.28" y2="408.256" gradientUnits="userSpaceOnUse">
<stop stop-color="white"/>
<stop offset="1" stop-color="white" stop-opacity="0"/>
</linearGradient>
<linearGradient id="paint15_linear_364_2050" x1="423.761" y1="472.572" x2="1533.12" y2="446.328" gradientUnits="userSpaceOnUse">
<stop stop-color="white"/>
<stop offset="1" stop-color="white" stop-opacity="0"/>
</linearGradient>
<linearGradient id="paint16_linear_364_2050" x1="439.024" y1="472.477" x2="1548.62" y2="484.966" gradientUnits="userSpaceOnUse">
<stop stop-color="white"/>
<stop offset="1" stop-color="white" stop-opacity="0"/>
</linearGradient>
<linearGradient id="paint17_linear_364_2050" x1="454.281" y1="472.916" x2="1562.77" y2="524.121" gradientUnits="userSpaceOnUse">
<stop stop-color="white"/>
<stop offset="1" stop-color="white" stop-opacity="0"/>
</linearGradient>
<linearGradient id="paint18_linear_364_2050" x1="469.513" y1="473.886" x2="1575.54" y2="563.745" gradientUnits="userSpaceOnUse">
<stop stop-color="white"/>
<stop offset="1" stop-color="white" stop-opacity="0"/>
</linearGradient>
<linearGradient id="paint19_linear_364_2050" x1="484.703" y1="475.387" x2="1586.92" y2="603.791" gradientUnits="userSpaceOnUse">
<stop stop-color="white"/>
<stop offset="1" stop-color="white" stop-opacity="0"/>
</linearGradient>
<linearGradient id="paint20_linear_364_2050" x1="499.83" y1="477.418" x2="1596.89" y2="644.21" gradientUnits="userSpaceOnUse">
<stop stop-color="white"/>
<stop offset="1" stop-color="white" stop-opacity="0"/>
</linearGradient>
<linearGradient id="paint21_linear_364_2050" x1="514.877" y1="479.975" x2="1605.45" y2="684.953" gradientUnits="userSpaceOnUse">
<stop stop-color="white"/>
<stop offset="1" stop-color="white" stop-opacity="0"/>
</linearGradient>
<linearGradient id="paint22_linear_364_2050" x1="529.826" y1="483.056" x2="1612.58" y2="725.969" gradientUnits="userSpaceOnUse">
<stop stop-color="white"/>
<stop offset="1" stop-color="white" stop-opacity="0"/>
</linearGradient>
<linearGradient id="paint23_linear_364_2050" x1="544.659" y1="486.656" x2="1618.27" y2="767.209" gradientUnits="userSpaceOnUse">
<stop stop-color="white"/>
<stop offset="1" stop-color="white" stop-opacity="0"/>
</linearGradient>
<linearGradient id="paint24_linear_364_2050" x1="559.355" y1="490.77" x2="1622.52" y2="808.621" gradientUnits="userSpaceOnUse">
<stop stop-color="white"/>
<stop offset="1" stop-color="white" stop-opacity="0"/>
</linearGradient>
</defs>
</svg>
