<svg width="906" height="890" viewBox="0 0 906 890" fill="none" xmlns="http://www.w3.org/2000/svg">
<g opacity="0.2">
<path fill-rule="evenodd" clip-rule="evenodd" d="M112.125 547.206C74.4142 505.204 19.9847 458.219 30.5027 402.761C41.396 345.323 120.555 333.137 160.772 290.706C192.159 257.59 197.314 199.406 239.567 182.185C281.797 164.973 326.254 208.598 371.693 204.74C441.038 198.851 516.308 109.722 569.89 154.134C622.218 197.505 539.973 285.818 550.522 352.96C559.31 408.9 647.106 450.091 624.547 502.03C600.998 556.249 510.354 527.743 460.686 559.796C420.009 586.045 414.339 654.039 367.884 667.661C321.497 681.263 275.498 647.52 231.765 626.923C187.515 606.082 144.802 583.601 112.125 547.206Z" stroke="url(#paint0_linear_704_527)" stroke-width="3"/>
<path opacity="0.95875" fill-rule="evenodd" clip-rule="evenodd" d="M119.568 543.489C83.3454 500.197 30.5888 451.341 43.0358 396.283C55.9271 339.261 135.463 329.844 177.136 288.843C209.66 256.843 216.843 198.874 259.671 183.138C302.475 167.411 345.383 212.561 390.929 210.29C460.438 206.825 538.772 120.378 590.772 166.632C641.554 211.804 556.277 297.192 564.476 364.661C571.307 420.874 657.611 465.104 633.254 516.224C607.827 569.588 518.233 537.936 467.476 568.236C425.908 593.05 417.869 660.804 370.967 672.796C324.133 684.771 279.34 649.443 236.352 627.333C192.856 604.96 150.955 581.002 119.568 543.489Z" stroke="url(#paint1_linear_704_527)" stroke-width="3"/>
<path opacity="0.9175" fill-rule="evenodd" clip-rule="evenodd" d="M127.135 540.033C92.4454 495.503 41.4259 444.836 55.7869 390.246C70.6603 333.708 150.477 327.074 193.555 287.551C227.176 256.706 236.377 199.023 279.728 184.792C323.056 170.568 364.362 217.188 409.959 216.508C479.546 215.471 560.85 131.81 611.204 179.851C660.379 226.767 572.174 309.127 578.013 376.842C582.878 433.258 667.586 480.473 641.459 530.712C614.185 583.156 525.751 548.397 473.968 576.907C431.559 600.255 421.16 667.687 373.868 678.036C326.644 688.369 283.112 651.499 240.922 627.901C198.233 604.025 157.193 578.619 127.135 540.033Z" stroke="url(#paint2_linear_704_527)" stroke-width="3"/>
<path opacity="0.87625" fill-rule="evenodd" clip-rule="evenodd" d="M134.818 536.844C101.704 491.13 52.4835 438.713 68.7408 384.658C85.5783 328.674 165.578 324.828 210.009 286.834C244.686 257.18 255.895 199.854 299.716 187.144C343.514 174.441 383.167 222.474 428.761 223.386C498.342 224.778 582.515 144.006 631.162 193.774C678.67 242.378 587.644 321.61 591.117 389.487C594.01 446.039 677.019 496.182 649.155 545.478C620.067 596.938 532.899 559.114 480.153 585.799C436.955 607.653 424.209 674.681 376.584 683.373C329.029 692.052 286.81 653.685 245.469 628.63C203.64 603.278 163.511 576.455 134.818 536.844Z" stroke="url(#paint3_linear_704_527)" stroke-width="3"/>
<path opacity="0.835" fill-rule="evenodd" clip-rule="evenodd" d="M142.607 533.924C111.109 487.083 63.748 432.98 81.8819 379.525C100.663 324.163 180.748 323.112 226.478 286.691C262.169 258.265 275.371 201.366 319.61 190.192C363.824 179.025 401.777 228.413 447.311 230.916C516.801 234.735 603.742 156.95 650.622 208.386C696.405 258.618 602.669 334.625 603.771 402.582C604.689 459.201 685.897 512.21 656.33 560.503C625.464 610.917 539.669 570.074 486.023 594.902C442.089 615.235 427.012 681.777 379.113 688.802C331.284 695.816 290.429 655.999 249.988 629.516C209.069 602.72 169.901 574.513 142.607 533.924Z" stroke="url(#paint4_linear_704_527)" stroke-width="3"/>
<path opacity="0.79375" fill-rule="evenodd" clip-rule="evenodd" d="M150.494 531.278C120.65 483.366 75.2057 427.644 95.1942 374.854C115.896 320.181 195.969 321.925 242.942 287.123C279.604 259.96 294.784 203.556 339.385 193.934C383.962 184.316 420.168 234.999 465.587 239.089C534.901 245.331 624.504 170.627 669.561 223.668C713.562 275.468 617.231 348.157 615.961 416.111C614.902 472.727 694.211 528.538 662.976 575.77C630.369 625.076 546.052 581.264 491.573 604.204C446.956 622.991 429.565 688.967 381.45 694.315C333.406 699.656 293.965 658.438 254.473 630.559C214.514 602.352 176.355 572.795 150.494 531.278Z" stroke="url(#paint5_linear_704_527)" stroke-width="3"/>
<path opacity="0.7525" fill-rule="evenodd" clip-rule="evenodd" d="M158.468 528.909C130.314 479.985 86.8427 422.71 108.661 370.651C131.259 316.733 211.222 321.271 259.381 288.129C296.968 262.262 314.107 206.422 359.017 198.362C403.903 190.307 438.318 242.221 483.567 247.894C552.621 256.552 644.776 185.021 687.954 239.602C730.121 292.905 631.312 362.188 627.671 430.056C624.637 486.601 701.95 545.146 669.085 591.259C634.778 639.397 552.041 592.669 496.794 613.694C451.549 630.913 431.866 696.242 383.594 699.908C335.392 703.568 297.414 660.998 258.919 631.759C219.969 602.174 182.865 571.303 158.468 528.909Z" stroke="url(#paint6_linear_704_527)" stroke-width="3"/>
<path opacity="0.71125" fill-rule="evenodd" clip-rule="evenodd" d="M166.521 526.82C140.091 476.943 98.6448 418.186 122.267 366.92C146.732 313.823 226.488 321.149 275.775 289.708C314.242 265.169 333.319 209.961 378.483 203.473C423.622 196.989 456.205 250.074 501.228 257.322C569.938 268.384 664.534 200.113 705.78 256.168C746.062 310.91 644.895 376.703 638.887 444.402C633.881 500.807 709.104 562.014 674.65 606.952C638.684 653.864 557.628 604.276 501.681 623.361C455.863 638.99 433.912 703.592 385.541 705.571C337.241 707.547 300.772 663.678 263.321 633.113C225.427 602.186 189.422 570.04 166.521 526.82Z" stroke="url(#paint7_linear_704_527)" stroke-width="3"/>
<path opacity="0.67" fill-rule="evenodd" clip-rule="evenodd" d="M174.641 525.014C149.968 474.244 110.598 414.077 135.995 363.666C162.298 311.456 241.75 321.561 292.104 291.859C331.403 268.677 352.396 214.169 397.759 209.261C443.097 204.356 473.807 258.545 518.549 267.361C586.832 280.814 683.752 215.886 723.018 273.346C761.364 329.461 657.962 391.682 649.595 459.131C642.624 515.326 715.665 579.122 679.664 622.83C642.082 668.458 562.807 616.072 506.228 633.192C459.892 647.213 435.7 711.009 387.29 711.299C338.95 711.588 304.034 666.473 267.673 634.619C230.881 602.389 196.02 569.006 174.641 525.014Z" stroke="url(#paint8_linear_704_527)" stroke-width="3"/>
<path opacity="0.62875" fill-rule="evenodd" clip-rule="evenodd" d="M182.819 523.491C159.933 471.892 122.686 410.387 149.827 360.893C177.937 309.633 256.987 322.504 308.347 294.578C348.432 272.782 371.314 219.039 416.821 215.718C462.302 212.398 491.103 267.626 535.51 277.998C603.281 293.826 702.409 232.319 739.645 291.115C776.009 348.534 670.499 407.109 659.784 474.225C650.856 530.142 721.626 596.448 684.121 638.873C644.97 683.161 567.571 628.041 510.429 643.176C463.632 655.571 437.228 718.484 388.837 717.084C340.517 715.686 307.197 669.38 271.969 636.277C236.325 602.782 202.65 568.203 182.819 523.491Z" stroke="url(#paint9_linear_704_527)" stroke-width="3"/>
<path opacity="0.5875" fill-rule="evenodd" clip-rule="evenodd" d="M191.045 522.255C169.974 469.888 134.897 407.121 163.748 358.605C193.63 308.357 272.183 323.979 324.486 297.862C365.307 277.479 390.051 224.567 435.646 222.836C481.215 221.105 508.071 277.305 552.089 289.22C619.267 307.404 720.48 249.394 755.642 309.453C789.98 368.107 682.49 422.964 669.439 489.664C658.565 545.237 726.978 613.971 688.015 655.062C647.342 697.957 571.914 640.169 514.279 653.3C467.077 664.055 438.494 726.008 390.182 722.92C341.94 719.837 310.256 672.396 276.205 638.084C241.751 603.365 209.304 567.632 191.045 522.255Z" stroke="url(#paint10_linear_704_527)" stroke-width="3"/>
<path opacity="0.54625" fill-rule="evenodd" clip-rule="evenodd" d="M199.31 521.307C180.079 468.237 147.214 404.284 177.741 356.803C209.357 307.629 287.318 325.983 340.501 301.708C382.008 282.761 408.584 230.745 454.211 230.606C499.813 230.467 524.691 287.57 568.267 301.014C634.768 321.531 737.945 267.089 770.989 328.339C803.26 388.155 693.921 439.227 678.549 505.432C665.743 560.591 731.715 631.671 691.342 671.377C649.197 712.826 575.832 652.441 517.773 663.553C470.225 672.654 439.497 733.572 391.322 728.8C343.217 724.034 313.208 675.517 280.375 640.037C247.154 604.137 215.974 567.293 199.31 521.307Z" stroke="url(#paint11_linear_704_527)" stroke-width="3"/>
<path opacity="0.505" fill-rule="evenodd" clip-rule="evenodd" d="M207.602 520.648C190.235 466.939 159.622 401.877 191.788 355.492C225.101 307.45 302.373 328.515 356.371 306.11C398.515 288.623 426.889 237.566 472.493 239.02C518.073 240.473 540.943 298.408 584.023 313.365C649.768 336.191 754.782 285.383 785.668 347.748C815.831 408.654 704.777 455.879 687.104 521.507C672.38 576.186 735.832 649.525 694.098 687.798C650.532 727.751 579.318 664.842 520.908 673.921C473.071 681.357 440.236 741.166 392.256 734.715C344.347 728.274 316.049 678.739 284.475 642.134C252.527 605.097 222.651 567.187 207.602 520.648Z" stroke="url(#paint12_linear_704_527)" stroke-width="3"/>
<path opacity="0.46375" fill-rule="evenodd" clip-rule="evenodd" d="M215.913 520.278C200.431 465.996 172.107 399.906 205.872 354.671C240.842 307.822 317.332 331.57 372.078 311.063C414.806 295.058 444.946 245.023 490.471 248.067C535.972 251.109 556.806 309.808 599.338 326.259C664.247 351.365 770.97 304.253 799.661 367.659C827.68 429.58 715.045 472.901 695.093 537.872C678.469 592.003 739.323 667.512 696.278 704.305C651.345 742.714 582.37 677.358 523.678 684.393C475.611 690.154 440.709 748.781 392.983 740.66C345.328 732.55 318.777 682.058 288.499 644.374C257.863 606.244 229.328 567.315 215.913 520.278Z" stroke="url(#paint13_linear_704_527)" stroke-width="3"/>
<path opacity="0.4225" fill-rule="evenodd" clip-rule="evenodd" d="M224.231 520.199C210.653 465.409 184.653 398.371 219.976 354.342C256.559 308.742 332.174 335.145 387.603 316.561C430.864 302.057 462.731 253.104 508.122 257.735C553.49 262.364 572.262 321.754 614.194 339.679C678.187 367.035 786.489 323.677 812.95 388.045C838.791 450.906 724.713 490.27 702.505 554.505C684.003 608.023 742.184 685.61 697.882 720.879C651.635 757.695 584.983 689.972 526.081 694.955C477.842 699.035 440.915 756.408 393.503 746.626C346.159 736.859 321.386 685.47 292.442 646.752C263.155 607.577 235.997 567.675 224.231 520.199Z" stroke="url(#paint14_linear_704_527)" stroke-width="3"/>
<path opacity="0.38125" fill-rule="evenodd" clip-rule="evenodd" d="M232.547 520.41C220.89 465.18 197.245 397.275 234.083 354.506C272.236 310.21 346.883 339.236 402.927 322.598C446.667 309.613 480.223 261.802 525.425 268.014C570.603 274.223 587.292 334.232 628.573 353.61C691.572 383.183 801.321 343.63 825.519 408.883C849.151 472.608 733.768 507.966 709.333 571.387C688.974 624.227 744.412 703.797 698.906 737.498C651.402 772.678 587.155 702.67 528.115 705.594C479.763 707.988 440.856 764.037 393.813 752.607C346.84 741.193 323.875 688.971 296.3 649.267C268.398 609.093 242.649 568.268 232.547 520.41Z" stroke="url(#paint15_linear_704_527)" stroke-width="3"/>
<path opacity="0.34" fill-rule="evenodd" clip-rule="evenodd" d="M240.851 520.912C231.128 465.308 209.867 396.62 248.175 355.162C287.851 312.225 361.439 343.838 418.03 329.166C462.197 317.715 497.401 271.104 542.359 278.89C587.293 286.672 601.877 347.227 642.456 368.034C704.385 399.787 815.448 364.089 837.354 430.146C858.747 494.657 742.201 525.967 715.567 588.497C693.376 640.594 746.003 722.05 699.349 754.142C650.646 787.644 588.882 715.436 529.775 716.297C481.369 717.003 440.53 771.66 393.915 758.595C347.368 745.549 326.241 692.557 300.068 651.915C273.585 610.792 249.276 569.093 240.851 520.912Z" stroke="url(#paint16_linear_704_527)" stroke-width="3"/>
<path opacity="0.29875" fill-rule="evenodd" clip-rule="evenodd" d="M249.132 521.702C241.355 465.794 222.505 396.405 262.237 356.309C303.386 314.783 375.827 348.945 432.895 336.257C477.435 326.355 514.244 281.001 558.903 290.351C603.538 299.697 615.999 360.724 655.828 382.934C716.611 416.829 828.852 385.029 848.439 451.81C867.568 517.028 750 544.252 721.2 605.814C697.205 657.105 746.957 740.348 699.211 770.792C649.369 802.574 590.162 728.254 531.062 727.052C482.66 726.068 439.939 779.267 393.808 764.583C347.745 749.92 328.479 696.223 303.741 654.692C278.709 612.67 255.871 570.148 249.132 521.702Z" stroke="url(#paint17_linear_704_527)" stroke-width="3"/>
<path opacity="0.2575" fill-rule="evenodd" clip-rule="evenodd" d="M257.381 522.782C251.56 466.636 235.142 396.631 276.249 357.947C318.823 317.882 390.027 354.551 447.503 343.863C492.362 335.52 530.731 291.479 575.037 302.382C619.318 313.28 629.643 374.704 668.672 398.291C728.235 434.287 841.517 406.423 858.762 473.847C875.603 539.693 757.157 562.797 726.225 623.317C700.455 673.739 747.272 758.668 698.492 787.428C647.572 817.45 590.994 741.109 531.972 737.846C483.634 735.173 439.082 786.848 393.492 770.563C347.969 754.302 330.589 699.965 307.315 657.596C283.765 614.726 262.424 571.433 257.381 522.782Z" stroke="url(#paint18_linear_704_527)" stroke-width="3"/>
<path opacity="0.21625" fill-rule="evenodd" clip-rule="evenodd" d="M265.586 524.148C261.729 467.833 247.764 397.299 290.196 360.072C334.142 321.517 404.023 360.65 461.837 351.973C506.959 345.202 546.843 302.526 590.741 314.969C634.615 327.405 642.789 389.153 680.972 414.087C739.242 452.14 853.428 428.246 868.309 496.232C882.842 562.625 763.661 581.581 730.637 640.984C703.122 690.476 746.946 776.988 697.193 804.028C645.256 832.254 591.377 753.986 532.505 748.665C484.29 744.306 437.961 794.395 392.967 776.529C348.039 758.689 332.566 703.779 310.785 660.624C288.746 616.958 268.929 572.946 265.586 524.148Z" stroke="url(#paint19_linear_704_527)" stroke-width="3"/>
<path opacity="0.175" fill-rule="evenodd" clip-rule="evenodd" d="M273.739 525.8C271.849 469.385 260.355 398.406 304.06 362.683C349.325 325.686 417.798 367.233 475.88 360.579C521.211 355.387 562.559 314.129 605.996 328.096C649.409 342.056 655.424 404.051 692.712 430.303C749.619 470.366 864.57 450.472 877.069 518.936C889.276 585.796 769.506 600.581 734.429 658.795C705.204 707.297 745.982 795.285 695.316 820.572C642.425 846.969 591.31 766.868 532.659 759.495C484.626 753.457 436.578 801.898 392.235 782.473C347.957 763.076 334.409 707.659 314.148 663.77C293.646 619.362 275.377 574.685 273.739 525.8Z" stroke="url(#paint20_linear_704_527)" stroke-width="3"/>
<path opacity="0.13375" fill-rule="evenodd" clip-rule="evenodd" d="M281.83 527.736C281.91 471.289 272.9 399.952 317.825 365.776C364.354 330.381 431.335 374.293 489.613 369.67C535.098 366.063 577.861 326.273 620.784 341.748C663.683 357.215 667.531 419.382 703.88 446.919C759.354 488.944 874.929 473.074 885.032 541.931C894.898 609.177 774.685 619.773 737.597 676.728C706.697 724.18 744.38 813.538 692.862 837.041C639.082 861.576 590.794 779.74 532.436 770.325C484.643 762.614 434.933 809.349 391.295 788.387C347.721 767.457 336.116 711.601 317.398 667.032C298.459 621.935 281.76 576.648 281.83 527.736Z" stroke="url(#paint21_linear_704_527)" stroke-width="3"/>
<path opacity="0.0925" fill-rule="evenodd" clip-rule="evenodd" d="M289.848 529.953C291.898 473.543 285.383 401.935 331.473 369.348C379.209 335.598 444.617 381.82 503.021 379.235C548.604 377.217 592.729 338.944 635.086 355.907C677.42 372.862 679.095 435.125 714.462 463.914C768.436 507.849 884.494 496.022 892.187 565.191C899.7 632.74 779.191 639.134 740.138 694.76C707.601 741.105 742.142 831.723 689.835 853.414C635.231 876.057 589.829 792.586 531.836 781.14C484.341 771.766 433.03 816.737 390.15 794.266C347.333 771.827 337.684 715.601 320.533 670.405C303.179 624.675 288.071 578.833 289.848 529.953Z" stroke="url(#paint22_linear_704_527)" stroke-width="3"/>
<path opacity="0.05125" fill-rule="evenodd" clip-rule="evenodd" d="M297.783 532.448C301.801 476.144 297.789 404.352 344.989 373.394C393.873 341.33 457.628 389.807 516.087 389.262C561.712 388.836 607.147 352.126 648.886 370.557C690.602 388.979 690.103 451.263 724.444 481.269C776.851 527.061 893.251 519.291 898.526 588.686C903.677 656.456 783.018 658.641 742.048 712.87C707.913 758.051 739.271 849.819 686.238 869.672C630.878 890.395 588.416 805.39 530.858 791.927C483.719 780.901 430.87 824.055 388.8 800.101C346.792 776.181 339.112 719.652 323.549 673.886C307.801 627.577 294.302 581.236 297.783 532.448Z" stroke="url(#paint23_linear_704_527)" stroke-width="3"/>
<path opacity="0.01" fill-rule="evenodd" clip-rule="evenodd" d="M305.627 535.218C311.607 479.089 310.103 407.201 358.354 377.908C408.328 347.57 470.352 398.243 528.794 399.737C574.407 400.904 621.095 365.802 662.165 385.679C703.213 405.545 700.541 467.774 733.813 498.96C784.591 546.553 901.191 542.851 904.041 612.387C906.824 680.296 786.162 678.268 743.324 731.034C707.633 774.997 735.769 867.804 682.076 885.793C626.026 904.572 586.557 818.137 529.503 802.673C482.778 790.009 428.455 831.292 387.247 805.884C346.1 780.513 340.397 723.751 326.44 677.469C312.318 630.639 300.445 583.855 305.627 535.218Z" stroke="url(#paint24_linear_704_527)" stroke-width="3"/>
</g>
<defs>
<linearGradient id="paint0_linear_704_527" x1="96.4259" y1="551.876" x2="620.811" y2="232.353" gradientUnits="userSpaceOnUse">
<stop stop-color="white"/>
<stop offset="1" stop-color="white" stop-opacity="0"/>
</linearGradient>
<linearGradient id="paint1_linear_704_527" x1="103.715" y1="547.609" x2="638.931" y2="246.581" gradientUnits="userSpaceOnUse">
<stop stop-color="white"/>
<stop offset="1" stop-color="white" stop-opacity="0"/>
</linearGradient>
<linearGradient id="paint2_linear_704_527" x1="111.148" y1="543.597" x2="656.544" y2="261.432" gradientUnits="userSpaceOnUse">
<stop stop-color="white"/>
<stop offset="1" stop-color="white" stop-opacity="0"/>
</linearGradient>
<linearGradient id="paint3_linear_704_527" x1="118.716" y1="539.848" x2="673.628" y2="276.888" gradientUnits="userSpaceOnUse">
<stop stop-color="white"/>
<stop offset="1" stop-color="white" stop-opacity="0"/>
</linearGradient>
<linearGradient id="paint4_linear_704_527" x1="126.411" y1="536.365" x2="690.161" y2="292.931" gradientUnits="userSpaceOnUse">
<stop stop-color="white"/>
<stop offset="1" stop-color="white" stop-opacity="0"/>
</linearGradient>
<linearGradient id="paint5_linear_704_527" x1="134.222" y1="533.152" x2="706.125" y2="309.542" gradientUnits="userSpaceOnUse">
<stop stop-color="white"/>
<stop offset="1" stop-color="white" stop-opacity="0"/>
</linearGradient>
<linearGradient id="paint6_linear_704_527" x1="142.141" y1="530.214" x2="721.499" y2="326.699" gradientUnits="userSpaceOnUse">
<stop stop-color="white"/>
<stop offset="1" stop-color="white" stop-opacity="0"/>
</linearGradient>
<linearGradient id="paint7_linear_704_527" x1="150.158" y1="527.554" x2="736.265" y2="344.383" gradientUnits="userSpaceOnUse">
<stop stop-color="white"/>
<stop offset="1" stop-color="white" stop-opacity="0"/>
</linearGradient>
<linearGradient id="paint8_linear_704_527" x1="158.262" y1="525.176" x2="750.405" y2="362.571" gradientUnits="userSpaceOnUse">
<stop stop-color="white"/>
<stop offset="1" stop-color="white" stop-opacity="0"/>
</linearGradient>
<linearGradient id="paint9_linear_704_527" x1="166.445" y1="523.082" x2="763.902" y2="381.241" gradientUnits="userSpaceOnUse">
<stop stop-color="white"/>
<stop offset="1" stop-color="white" stop-opacity="0"/>
</linearGradient>
<linearGradient id="paint10_linear_704_527" x1="174.695" y1="521.275" x2="776.739" y2="400.371" gradientUnits="userSpaceOnUse">
<stop stop-color="white"/>
<stop offset="1" stop-color="white" stop-opacity="0"/>
</linearGradient>
<linearGradient id="paint11_linear_704_527" x1="183.004" y1="519.756" x2="788.9" y2="419.938" gradientUnits="userSpaceOnUse">
<stop stop-color="white"/>
<stop offset="1" stop-color="white" stop-opacity="0"/>
</linearGradient>
<linearGradient id="paint12_linear_704_527" x1="191.361" y1="518.529" x2="800.372" y2="439.917" gradientUnits="userSpaceOnUse">
<stop stop-color="white"/>
<stop offset="1" stop-color="white" stop-opacity="0"/>
</linearGradient>
<linearGradient id="paint13_linear_704_527" x1="199.755" y1="517.594" x2="811.139" y2="460.284" gradientUnits="userSpaceOnUse">
<stop stop-color="white"/>
<stop offset="1" stop-color="white" stop-opacity="0"/>
</linearGradient>
<linearGradient id="paint14_linear_704_527" x1="208.177" y1="516.953" x2="821.188" y2="481.014" gradientUnits="userSpaceOnUse">
<stop stop-color="white"/>
<stop offset="1" stop-color="white" stop-opacity="0"/>
</linearGradient>
<linearGradient id="paint15_linear_704_527" x1="216.616" y1="516.606" x2="830.508" y2="502.083" gradientUnits="userSpaceOnUse">
<stop stop-color="white"/>
<stop offset="1" stop-color="white" stop-opacity="0"/>
</linearGradient>
<linearGradient id="paint16_linear_704_527" x1="225.062" y1="516.553" x2="839.087" y2="523.464" gradientUnits="userSpaceOnUse">
<stop stop-color="white"/>
<stop offset="1" stop-color="white" stop-opacity="0"/>
</linearGradient>
<linearGradient id="paint17_linear_704_527" x1="233.505" y1="516.796" x2="846.914" y2="545.131" gradientUnits="userSpaceOnUse">
<stop stop-color="white"/>
<stop offset="1" stop-color="white" stop-opacity="0"/>
</linearGradient>
<linearGradient id="paint18_linear_704_527" x1="241.934" y1="517.333" x2="853.981" y2="567.059" gradientUnits="userSpaceOnUse">
<stop stop-color="white"/>
<stop offset="1" stop-color="white" stop-opacity="0"/>
</linearGradient>
<linearGradient id="paint19_linear_704_527" x1="250.339" y1="518.163" x2="860.278" y2="589.219" gradientUnits="userSpaceOnUse">
<stop stop-color="white"/>
<stop offset="1" stop-color="white" stop-opacity="0"/>
</linearGradient>
<linearGradient id="paint20_linear_704_527" x1="258.711" y1="519.287" x2="865.798" y2="611.586" gradientUnits="userSpaceOnUse">
<stop stop-color="white"/>
<stop offset="1" stop-color="white" stop-opacity="0"/>
</linearGradient>
<linearGradient id="paint21_linear_704_527" x1="267.038" y1="520.702" x2="870.534" y2="634.132" gradientUnits="userSpaceOnUse">
<stop stop-color="white"/>
<stop offset="1" stop-color="white" stop-opacity="0"/>
</linearGradient>
<linearGradient id="paint22_linear_704_527" x1="275.31" y1="522.407" x2="874.48" y2="656.83" gradientUnits="userSpaceOnUse">
<stop stop-color="white"/>
<stop offset="1" stop-color="white" stop-opacity="0"/>
</linearGradient>
<linearGradient id="paint23_linear_704_527" x1="283.518" y1="524.399" x2="877.632" y2="679.651" gradientUnits="userSpaceOnUse">
<stop stop-color="white"/>
<stop offset="1" stop-color="white" stop-opacity="0"/>
</linearGradient>
<linearGradient id="paint24_linear_704_527" x1="291.651" y1="526.676" x2="879.985" y2="702.568" gradientUnits="userSpaceOnUse">
<stop stop-color="white"/>
<stop offset="1" stop-color="white" stop-opacity="0"/>
</linearGradient>
</defs>
</svg>
