<svg width="150" height="45" viewBox="0 0 150 45" fill="none" xmlns="http://www.w3.org/2000/svg">
<path d="M9.83129 13.4516V21.5584H8.22916C7.10038 21.5584 5.89878 20.7334 5.89878 19.0654V13.4516C3.64122 10.564 1.21981 6.08016 0 2.54688H1.8024C3.33172 2.54688 4.13278 3.30016 4.38767 3.8741C5.35259 6.09809 6.8637 8.80634 8.08351 10.5102C9.32152 8.82428 11.3788 5.39861 12.2527 2.54688H13.9459C14.9654 2.54688 15.5298 3.13874 15.5298 4.01758C15.5298 5.48829 11.5791 11.4608 9.83129 13.4516Z" fill="white"/>
<path d="M23.4674 6.24158C28.0371 6.24158 30.6588 9.8466 30.6588 13.8283C30.6588 18.3301 28.0371 21.8992 23.1396 21.8992C18.5699 21.8992 15.9482 18.3121 15.9482 14.3484C15.9482 9.8466 18.5699 6.24158 23.4674 6.24158ZM23.1396 9.57757C20.9731 9.57757 19.8626 11.3532 19.8626 13.8283C19.8626 16.8056 20.9549 18.5812 23.4674 18.5812C25.6703 18.5812 26.7445 16.8056 26.7445 14.3663C26.7445 11.3532 25.6157 9.57757 23.1396 9.57757Z" fill="white"/>
<path d="M40.3082 21.8993C36.5578 21.8993 33.6084 19.46 33.6084 15.1017V6.5824H34.3184C36.485 6.5824 37.4499 7.4971 37.4499 9.25478V14.743C37.4499 17.4871 38.7971 18.5991 40.5267 18.5991C42.0742 18.5991 43.1666 17.5409 43.1666 14.9941V6.5824H43.8402C46.0432 6.5824 46.9717 7.4971 46.9717 9.25478V14.8686C46.9717 19.5138 44.7323 21.8993 40.3082 21.8993Z" fill="white"/>
<path d="M59.243 10.2053C58.6786 9.99005 58.0232 9.75689 57.04 9.75689C55.3469 9.75689 54.4184 10.6716 54.4184 12.9494V21.5584H53.3806C51.6874 21.5584 50.6133 20.7334 50.6133 19.173V12.2858C50.6133 9.29057 52.2154 6.4209 56.2208 6.4209C58.5511 6.4209 59.3704 7.73019 59.3704 8.86012V10.1873L59.243 10.2053Z" fill="white"/>
<path d="M76.0468 7.62258C74.827 6.0622 72.4056 5.56001 70.7488 5.56001C67.3079 5.56001 64.7408 7.99922 64.7408 11.6939C64.7408 16.1598 67.2533 18.4197 70.8763 18.4197C72.7879 18.4197 74.9362 17.6664 75.974 16.5903H76.1196V18.0072C76.1196 20.6078 73.0428 21.7198 70.3665 21.7198C65.2324 21.7198 60.8447 17.9534 60.8447 12.2499C60.8447 6.38504 64.8137 2.25989 70.7124 2.25989C73.8621 2.25989 76.1743 3.5333 76.1743 6.15188V7.62258H76.0468Z" fill="white"/>
<path d="M90.6298 21.5584C89.0459 21.5584 88.0627 20.6617 88.0627 19.0654V12.9674C88.0627 10.5282 86.7155 9.55964 85.0405 9.55964C83.8571 9.55964 82.3096 10.4564 82.3096 13.0929V21.5943H81.0716C79.2874 21.5943 78.4863 20.6258 78.4863 19.1013V1.57837H79.6697C81.4721 1.57837 82.346 2.58275 82.346 3.96378V8.23242C82.9104 7.33565 84.203 6.24158 85.6413 6.24158C89.5556 6.24158 91.8678 8.53732 91.8678 12.788V21.5584H90.6298Z" fill="white"/>
<path d="M102.355 6.24158C106.925 6.24158 109.546 9.8466 109.546 13.8283C109.546 18.3301 106.925 21.8992 102.027 21.8992C97.4576 21.8992 94.8359 18.3121 94.8359 14.3484C94.8359 9.8466 97.4576 6.24158 102.355 6.24158ZM102.009 9.57757C99.8426 9.57757 98.732 11.3532 98.732 13.8283C98.732 16.8056 99.8244 18.5812 102.337 18.5812C104.54 18.5812 105.614 16.8056 105.614 14.3663C105.614 11.3532 104.503 9.57757 102.009 9.57757Z" fill="white"/>
<path d="M117.502 21.7019C114.571 21.7019 112.969 20.0698 112.969 17.0387V6.90515H114.043C115.736 6.90515 116.756 7.80192 116.756 9.68514V16.68C116.756 18.1865 117.411 18.6529 119.068 18.6529H119.778V19.46C119.76 21.0742 119.122 21.7019 117.502 21.7019Z" fill="white"/>
<path d="M133.378 11.407C132.868 10.5461 131.43 9.84657 129.264 9.84657C127.061 9.84657 125.131 11.6042 125.131 13.8103C125.131 16.5365 126.769 18.3838 129.336 18.3838C131.503 18.3838 132.796 17.6844 133.342 17.0028H133.487V18.7246C133.487 20.5361 131.703 21.8274 128.972 21.8274C124.803 21.8274 121.198 18.6349 121.198 14.3663C121.198 10.0977 124.22 6.4209 129.391 6.4209C131.812 6.4209 133.524 7.85573 133.524 9.64928V11.407H133.378Z" fill="white"/>
<path d="M140.441 45H88.026C82.7462 45 78.4678 40.7852 78.4678 35.5839C78.4678 30.3827 82.7462 26.1678 88.026 26.1678H140.441C145.721 26.1678 150 30.3827 150 35.5839C150 40.7852 145.721 45 140.441 45Z" fill="#E94D6E"/>
<path d="M143.719 18.7605C141.498 18.7605 139.75 17.5588 139.459 15.6756H141.935C146.942 15.6756 149.072 14.7789 149.072 12.0347C149.072 8.44764 146.141 6.24158 142.991 6.24158C140.26 6.24158 138.021 7.47912 136.746 9.64931C137.511 9.52377 138.166 9.43409 138.694 9.36235C138.913 9.32648 139.514 9.25473 140.296 9.20093C142.026 9.07538 142.663 9.18299 142.863 9.21886C143.482 9.32648 143.974 9.52377 144.338 9.68518C145.103 10.0439 145.54 10.6896 145.54 11.6222C145.54 12.5549 144.903 12.9674 142.263 13.0571C142.226 13.0571 142.208 13.0571 142.172 13.0571C140.806 13.1109 139.787 13.075 139.459 13.075C138.731 13.0571 137.584 13.0391 135.654 13.0571C135.599 13.4875 135.581 13.9359 135.581 14.4022C135.581 18.9758 139.277 21.9172 143.046 21.9172C147.215 21.9172 148.544 20.4465 148.544 18.5274V17.3616H148.398C147.142 18.4556 145.285 18.7605 143.719 18.7605Z" fill="white"/>
<path d="M95.7223 40.3317C94.802 40.3317 94.3418 39.7877 94.2498 39.289C94.1578 38.5637 94.0657 38.0198 93.9277 37.5665H89.5102C89.2801 38.4731 89.0961 39.425 88.912 40.3317H88.0377C87.3015 40.3317 87.0254 39.969 87.0254 39.289C87.0254 37.7024 89.0961 31.3107 90.7986 29.4521H91.719C92.5932 29.4521 93.1914 29.9055 93.5136 30.4494C94.5259 32.2174 96.1824 36.8865 96.5966 40.3317H95.7223ZM91.765 31.4467C91.1208 32.58 90.4305 34.3026 90.0624 35.7985H93.4675C93.0994 34.3026 92.3172 32.444 91.765 31.4467Z" fill="white"/>
<path d="M105.477 37.9291C105.477 38.2918 105.523 38.7451 105.523 39.0171C105.523 41.1476 104.051 43.0969 101.29 43.0969C99.4953 43.0969 98.2989 42.2356 98.2989 41.2383V40.2863H98.3909C98.8971 40.8303 99.9094 41.193 101.152 41.193C102.716 41.193 103.453 40.4677 103.407 39.2437L103.361 38.3824V38.1558C103.176 38.7904 102.348 39.425 101.106 39.425C98.9891 39.425 97.5166 37.9744 97.5166 35.9799C97.5166 33.5773 99.1271 31.6281 101.934 31.6281C104.097 31.6281 105.477 33.1693 105.477 35.3906V36.8412C105.431 37.0678 105.477 37.5211 105.477 37.9291ZM99.7253 35.6625C99.7253 36.7958 100.416 37.6118 101.428 37.6118C102.486 37.6118 103.269 36.7958 103.269 35.4359C103.269 34.1213 102.578 33.4413 101.658 33.4413C100.554 33.4413 99.7253 34.3479 99.7253 35.6625Z" fill="white"/>
<path d="M110.862 36.9318H109.435C109.619 38.0197 110.586 38.6997 111.874 38.6997C112.794 38.6997 113.853 38.5184 114.543 37.8837H114.635V38.5637C114.635 39.6517 113.899 40.513 111.506 40.513C109.343 40.513 107.227 38.8357 107.227 36.2065C107.227 33.3506 109.021 31.5374 111.46 31.5374C113.255 31.5374 114.957 32.8066 114.957 34.8465C114.957 36.4331 113.715 36.9318 110.862 36.9318ZM111.276 33.3506C110.218 33.3506 109.481 34.2119 109.435 35.1639V35.4359H110.402C112.426 35.4359 112.932 35.2092 112.932 34.6199C112.886 33.7586 112.242 33.3506 111.276 33.3506Z" fill="white"/>
<path d="M123.654 40.3317C122.687 40.3317 122.089 39.7424 122.089 38.9264V35.5266C122.089 34.0759 121.445 33.4413 120.341 33.4413C119.42 33.4413 118.776 34.1213 118.776 35.3452V40.2863H118.132C117.211 40.2863 116.613 39.697 116.613 38.8811V35.1639C116.613 33.3507 117.81 31.4921 120.525 31.4921C122.549 31.4921 124.252 32.852 124.252 35.2546V40.241H123.654V40.3317Z" fill="white"/>
<path d="M132.902 34.5292C132.626 34.0306 131.798 33.6226 130.556 33.6226C129.313 33.6226 128.209 34.6199 128.209 35.8892C128.209 37.4304 129.129 38.5184 130.602 38.5184C131.844 38.5184 132.58 38.1104 132.902 37.7024H132.994V38.6997C132.994 39.7423 131.982 40.4676 130.418 40.4676C128.025 40.4676 125.954 38.6544 125.954 36.2065C125.954 33.7586 127.657 31.6733 130.648 31.6733C132.028 31.6733 132.994 32.4893 132.994 33.5319V34.5292H132.902Z" fill="white"/>
<path d="M135.525 43.0969C134.697 43.0969 134.007 42.5529 134.007 41.7823V41.3743L135.249 41.2837C136.031 41.2383 136.307 40.921 136.768 39.6971C135.617 38.0198 133.961 33.7587 133.685 31.7188H134.835C135.433 31.7188 135.985 32.1267 136.077 32.716C136.399 34.348 137.044 36.1612 137.826 37.6572C138.516 36.0706 139.344 33.4867 139.529 31.7188H140.449C141.139 31.7188 141.461 32.0361 141.461 32.716C141.461 33.6227 139.943 37.5212 139.529 38.4278C137.918 42.2356 137.044 43.0969 135.525 43.0969Z" fill="white"/>
<path d="M115.117 5.55999C116.675 5.55999 117.939 4.31535 117.939 2.78C117.939 1.24465 116.675 0 115.117 0C113.558 0 112.295 1.24465 112.295 2.78C112.295 4.31535 113.558 5.55999 115.117 5.55999Z" fill="#E94D6E"/>
</svg>
