<svg width="1336" height="1021" viewBox="0 0 1336 1021" fill="none" xmlns="http://www.w3.org/2000/svg">
<g opacity="0.1">
<path d="M702.216 667.604C699.595 633.199 676.674 650.557 665.542 663.536C654.613 676.685 642.338 683.334 637.567 685.015C549.854 712.172 708.541 780.405 680.261 730.933C651.981 681.462 705.491 710.61 702.216 667.604Z" stroke="url(#paint0_linear_364_1754)" stroke-width="2"/>
<path d="M1008.29 204.696C981.926 -142.064 750.844 32.921 638.597 163.758C528.404 296.299 404.657 363.336 356.558 380.287C-527.69 654.142 1071.87 1341.59 786.868 843.021C501.871 344.451 1041.24 638.146 1008.29 204.696Z" stroke="url(#paint1_linear_364_1754)" stroke-width="2"/>
<path d="M716.552 645.56C712.801 596.281 679.968 621.145 664.021 639.737C648.365 658.571 630.782 668.095 623.947 670.504C498.304 709.408 725.604 807.127 685.099 736.27C644.595 665.413 721.241 707.159 716.552 645.56Z" stroke="url(#paint2_linear_364_1754)" stroke-width="2"/>
<path d="M730.889 623.517C726.007 559.364 683.262 591.734 662.499 615.938C642.117 640.457 619.226 652.858 610.328 655.993C446.755 706.645 742.667 833.851 689.938 741.608C637.209 649.365 736.991 703.709 730.889 623.517Z" stroke="url(#paint3_linear_364_1754)" stroke-width="2"/>
<path d="M746.226 601.474C740.214 522.447 687.556 562.323 661.978 592.139C636.869 622.344 608.669 637.62 597.708 641.482C396.205 703.882 760.73 860.574 695.776 746.945C630.823 633.317 753.741 700.258 746.226 601.474Z" stroke="url(#paint4_linear_364_1754)" stroke-width="2"/>
<path d="M760.563 579.43C753.42 485.529 690.849 532.911 660.457 568.339C630.62 604.229 597.113 622.381 584.089 626.97C344.655 701.118 777.793 887.296 700.615 752.282C623.437 617.268 769.491 696.806 760.563 579.43Z" stroke="url(#paint5_linear_364_1754)" stroke-width="2"/>
<path d="M774.899 557.387C766.626 448.612 694.143 503.5 658.936 544.54C624.372 586.116 585.557 607.143 570.47 612.46C293.106 698.355 794.856 914.019 705.453 757.62C616.05 601.22 785.241 693.356 774.899 557.387Z" stroke="url(#paint6_linear_364_1754)" stroke-width="2"/>
<path d="M789.236 535.344C779.833 411.695 697.437 474.089 657.415 520.742C618.124 568.003 574.001 591.905 556.85 597.949C241.556 695.592 811.919 940.743 710.292 762.958C608.664 585.173 800.99 689.906 789.236 535.344Z" stroke="url(#paint7_linear_364_1754)" stroke-width="2"/>
<path d="M804.573 513.301C794.039 374.778 701.731 444.678 656.894 496.943C612.876 549.889 563.444 576.668 544.231 583.439C191.006 692.829 829.982 967.466 716.13 768.295C602.278 569.125 817.74 686.455 804.573 513.301Z" stroke="url(#paint8_linear_364_1754)" stroke-width="2"/>
<path d="M818.91 491.258C807.245 337.86 705.025 415.267 655.372 473.144C606.628 531.775 551.888 561.43 530.611 568.928C139.457 690.065 847.045 994.189 720.968 773.633C594.892 553.077 833.49 683.005 818.91 491.258Z" stroke="url(#paint9_linear_364_1754)" stroke-width="2"/>
<path d="M833.246 469.215C820.451 300.944 708.318 385.856 653.851 449.346C600.38 513.662 540.332 546.192 516.992 554.417C87.9068 687.302 864.108 1020.91 725.807 778.971C587.506 537.029 849.24 679.554 833.246 469.215Z" stroke="url(#paint10_linear_364_1754)" stroke-width="2"/>
<path d="M847.583 447.173C833.658 264.027 711.612 356.445 652.33 425.548C594.132 495.549 528.776 530.955 503.372 539.907C36.3571 684.54 881.171 1047.64 730.645 784.309C580.119 520.981 864.99 676.104 847.583 447.173Z" stroke="url(#paint11_linear_364_1754)" stroke-width="2"/>
<path d="M862.92 425.129C847.864 227.11 715.906 327.034 651.809 401.749C588.884 477.436 518.219 515.717 490.753 525.396C-14.1926 681.777 899.234 1074.36 736.484 789.647C573.733 504.933 881.74 672.654 862.92 425.129Z" stroke="url(#paint12_linear_364_1754)" stroke-width="2"/>
<path d="M874.903 401.025C856.604 188.303 715.807 297.136 647.696 378.143C580.855 460.184 505.295 502.092 475.869 512.792C-65.3103 686.301 920.871 1098.6 742.866 794.253C564.86 489.907 897.777 666.928 874.903 401.025Z" stroke="url(#paint13_linear_364_1754)" stroke-width="2"/>
<path d="M891.593 381.041C874.276 153.273 722.493 268.21 648.767 354.149C576.388 441.207 495.107 485.239 463.514 496.373C-117.292 676.248 933.361 1127.8 746.161 800.32C558.961 472.835 913.239 665.751 891.593 381.041Z" stroke="url(#paint14_linear_364_1754)" stroke-width="2"/>
<path d="M905.93 358.999C887.483 116.357 725.787 238.799 647.245 330.351C570.14 423.094 483.551 470.002 449.894 481.863C-168.842 673.485 950.424 1154.53 750.999 805.658C551.574 456.788 928.989 662.301 905.93 358.999Z" stroke="url(#paint15_linear_364_1754)" stroke-width="2"/>
<path d="M921.267 336.955C901.689 79.4395 730.081 209.388 646.724 306.552C564.892 404.98 472.994 454.763 437.275 467.352C-219.391 670.722 968.487 1181.25 756.838 810.995C545.188 440.739 945.739 658.85 921.267 336.955Z" stroke="url(#paint16_linear_364_1754)" stroke-width="2"/>
<path d="M935.604 314.913C914.895 42.5235 733.375 179.978 645.203 282.754C558.644 386.868 461.438 439.527 423.655 452.842C-270.941 667.96 985.55 1207.98 761.676 816.334C537.802 424.693 961.489 655.4 935.604 314.913Z" stroke="url(#paint17_linear_364_1754)" stroke-width="2"/>
<path d="M949.94 292.868C928.101 5.60432 736.669 150.565 643.682 258.953C552.396 368.752 449.882 424.287 410.036 438.329C-322.491 665.195 1002.61 1234.7 766.514 821.67C530.416 408.643 977.239 651.948 949.94 292.868Z" stroke="url(#paint18_linear_364_1754)" stroke-width="2"/>
<path d="M964.277 270.825C941.308 -31.3129 739.962 121.154 642.161 235.154C546.148 350.639 438.326 409.049 396.416 423.818C-374.041 662.431 1019.68 1261.42 771.353 827.007C523.03 392.594 992.989 648.497 964.277 270.825Z" stroke="url(#paint19_linear_364_1754)" stroke-width="2"/>
<path d="M979.614 248.782C955.514 -68.2297 744.256 91.7428 641.64 211.356C540.9 332.525 427.77 393.811 383.797 409.308C-424.59 659.668 1037.74 1288.14 777.191 832.345C516.643 376.547 1009.74 645.047 979.614 248.782Z" stroke="url(#paint20_linear_364_1754)" stroke-width="2"/>
<path d="M993.95 226.739C968.72 -105.147 747.55 62.3318 640.118 187.557C534.652 314.412 416.213 378.573 370.177 394.797C-476.14 656.905 1054.8 1314.87 782.03 837.683C509.257 360.499 1025.49 641.597 993.95 226.739Z" stroke="url(#paint21_linear_364_1754)" stroke-width="2"/>
</g>
<defs>
<linearGradient id="paint0_linear_364_1754" x1="623.078" y1="732.571" x2="713.933" y2="678.918" gradientUnits="userSpaceOnUse">
<stop stop-color="white" stop-opacity="0"/>
<stop offset="0.505208" stop-color="white"/>
<stop offset="1" stop-color="white" stop-opacity="0"/>
</linearGradient>
<linearGradient id="paint1_linear_364_1754" x1="210.42" y1="859.617" x2="1126.39" y2="318.711" gradientUnits="userSpaceOnUse">
<stop stop-color="white" stop-opacity="0"/>
<stop offset="0.505208" stop-color="white"/>
<stop offset="1" stop-color="white" stop-opacity="0"/>
</linearGradient>
<linearGradient id="paint2_linear_364_1754" x1="603.189" y1="738.62" x2="733.335" y2="661.765" gradientUnits="userSpaceOnUse">
<stop stop-color="white" stop-opacity="0"/>
<stop offset="0.505208" stop-color="white"/>
<stop offset="1" stop-color="white" stop-opacity="0"/>
</linearGradient>
<linearGradient id="paint3_linear_364_1754" x1="583.301" y1="744.67" x2="752.738" y2="644.612" gradientUnits="userSpaceOnUse">
<stop stop-color="white" stop-opacity="0"/>
<stop offset="0.505208" stop-color="white"/>
<stop offset="1" stop-color="white" stop-opacity="0"/>
</linearGradient>
<linearGradient id="paint4_linear_364_1754" x1="564.412" y1="750.72" x2="773.14" y2="627.46" gradientUnits="userSpaceOnUse">
<stop stop-color="white" stop-opacity="0"/>
<stop offset="0.505208" stop-color="white"/>
<stop offset="1" stop-color="white" stop-opacity="0"/>
</linearGradient>
<linearGradient id="paint5_linear_364_1754" x1="544.524" y1="756.769" x2="792.543" y2="610.306" gradientUnits="userSpaceOnUse">
<stop stop-color="white" stop-opacity="0"/>
<stop offset="0.505208" stop-color="white"/>
<stop offset="1" stop-color="white" stop-opacity="0"/>
</linearGradient>
<linearGradient id="paint6_linear_364_1754" x1="524.636" y1="762.819" x2="811.945" y2="593.154" gradientUnits="userSpaceOnUse">
<stop stop-color="white" stop-opacity="0"/>
<stop offset="0.505208" stop-color="white"/>
<stop offset="1" stop-color="white" stop-opacity="0"/>
</linearGradient>
<linearGradient id="paint7_linear_364_1754" x1="504.747" y1="768.869" x2="831.348" y2="576.001" gradientUnits="userSpaceOnUse">
<stop stop-color="white" stop-opacity="0"/>
<stop offset="0.505208" stop-color="white"/>
<stop offset="1" stop-color="white" stop-opacity="0"/>
</linearGradient>
<linearGradient id="paint8_linear_364_1754" x1="485.859" y1="774.919" x2="851.751" y2="558.849" gradientUnits="userSpaceOnUse">
<stop stop-color="white" stop-opacity="0"/>
<stop offset="0.505208" stop-color="white"/>
<stop offset="1" stop-color="white" stop-opacity="0"/>
</linearGradient>
<linearGradient id="paint9_linear_364_1754" x1="465.97" y1="780.969" x2="871.153" y2="541.696" gradientUnits="userSpaceOnUse">
<stop stop-color="white" stop-opacity="0"/>
<stop offset="0.505208" stop-color="white"/>
<stop offset="1" stop-color="white" stop-opacity="0"/>
</linearGradient>
<linearGradient id="paint10_linear_364_1754" x1="446.082" y1="787.019" x2="890.556" y2="524.544" gradientUnits="userSpaceOnUse">
<stop stop-color="white" stop-opacity="0"/>
<stop offset="0.505208" stop-color="white"/>
<stop offset="1" stop-color="white" stop-opacity="0"/>
</linearGradient>
<linearGradient id="paint11_linear_364_1754" x1="426.193" y1="793.07" x2="909.958" y2="507.392" gradientUnits="userSpaceOnUse">
<stop stop-color="white" stop-opacity="0"/>
<stop offset="0.505208" stop-color="white"/>
<stop offset="1" stop-color="white" stop-opacity="0"/>
</linearGradient>
<linearGradient id="paint12_linear_364_1754" x1="407.305" y1="799.119" x2="930.361" y2="490.239" gradientUnits="userSpaceOnUse">
<stop stop-color="white" stop-opacity="0"/>
<stop offset="0.505208" stop-color="white"/>
<stop offset="1" stop-color="white" stop-opacity="0"/>
</linearGradient>
<linearGradient id="paint13_linear_364_1754" x1="389.078" y1="807.952" x2="948.101" y2="470.303" gradientUnits="userSpaceOnUse">
<stop stop-color="white" stop-opacity="0"/>
<stop offset="0.505208" stop-color="white"/>
<stop offset="1" stop-color="white" stop-opacity="0"/>
</linearGradient>
<linearGradient id="paint14_linear_364_1754" x1="367.528" y1="811.217" x2="969.166" y2="455.932" gradientUnits="userSpaceOnUse">
<stop stop-color="white" stop-opacity="0"/>
<stop offset="0.505208" stop-color="white"/>
<stop offset="1" stop-color="white" stop-opacity="0"/>
</linearGradient>
<linearGradient id="paint15_linear_364_1754" x1="347.639" y1="817.268" x2="988.568" y2="438.78" gradientUnits="userSpaceOnUse">
<stop stop-color="white" stop-opacity="0"/>
<stop offset="0.505208" stop-color="white"/>
<stop offset="1" stop-color="white" stop-opacity="0"/>
</linearGradient>
<linearGradient id="paint16_linear_364_1754" x1="328.751" y1="823.317" x2="1008.97" y2="421.627" gradientUnits="userSpaceOnUse">
<stop stop-color="white" stop-opacity="0"/>
<stop offset="0.505208" stop-color="white"/>
<stop offset="1" stop-color="white" stop-opacity="0"/>
</linearGradient>
<linearGradient id="paint17_linear_364_1754" x1="308.863" y1="829.368" x2="1028.37" y2="404.476" gradientUnits="userSpaceOnUse">
<stop stop-color="white" stop-opacity="0"/>
<stop offset="0.505208" stop-color="white"/>
<stop offset="1" stop-color="white" stop-opacity="0"/>
</linearGradient>
<linearGradient id="paint18_linear_364_1754" x1="288.974" y1="835.416" x2="1047.78" y2="387.321" gradientUnits="userSpaceOnUse">
<stop stop-color="white" stop-opacity="0"/>
<stop offset="0.505208" stop-color="white"/>
<stop offset="1" stop-color="white" stop-opacity="0"/>
</linearGradient>
<linearGradient id="paint19_linear_364_1754" x1="269.086" y1="841.466" x2="1067.18" y2="370.168" gradientUnits="userSpaceOnUse">
<stop stop-color="white" stop-opacity="0"/>
<stop offset="0.505208" stop-color="white"/>
<stop offset="1" stop-color="white" stop-opacity="0"/>
</linearGradient>
<linearGradient id="paint20_linear_364_1754" x1="250.197" y1="847.516" x2="1087.58" y2="353.016" gradientUnits="userSpaceOnUse">
<stop stop-color="white" stop-opacity="0"/>
<stop offset="0.505208" stop-color="white"/>
<stop offset="1" stop-color="white" stop-opacity="0"/>
</linearGradient>
<linearGradient id="paint21_linear_364_1754" x1="230.309" y1="853.566" x2="1106.98" y2="335.864" gradientUnits="userSpaceOnUse">
<stop stop-color="white" stop-opacity="0"/>
<stop offset="0.505208" stop-color="white"/>
<stop offset="1" stop-color="white" stop-opacity="0"/>
</linearGradient>
</defs>
</svg>
