<svg width="87" height="30" viewBox="0 0 87 30" fill="none" xmlns="http://www.w3.org/2000/svg">
<path fill-rule="evenodd" clip-rule="evenodd" d="M6.52947 14.6884C6.5151 17.4209 8.51874 19.0499 11.7161 18.3092V11.0676C8.47833 10.0815 6.54301 12.0764 6.52947 14.6884ZM11.8139 0.596325H16.2177V21.4408C11.9966 22.1309 7.95374 22.5686 5.06155 20.9514C1.3376 18.8693 1.03822 12.2529 3.98499 9.30601C5.47905 7.81205 8.48687 6.76028 11.7161 7.44664V0.889975C11.7077 0.751015 11.6999 0.612678 11.8139 0.596325Z" fill="white"/>
<path fill-rule="evenodd" clip-rule="evenodd" d="M23.3618 5.19574H18.958V0.596264H23.3618V5.19574Z" fill="white"/>
<path fill-rule="evenodd" clip-rule="evenodd" d="M76.2064 18.5049C81.0072 20.3705 81.5383 9.91198 76.6958 10.8717C73.6885 11.4677 73.7851 17.564 76.2064 18.5049ZM76.4022 7.25083C80.0683 6.85885 82.8341 8.47666 83.9376 10.9696C85.8203 15.223 83.834 20.1036 80.806 21.5386C79.2366 22.2824 77.5933 22.3532 76.1086 22.2236C71.5197 21.8234 68.6255 17.1468 70.237 11.9481C70.4891 11.1345 70.7725 10.6368 70.9221 10.3824C71.9196 8.68635 73.6036 7.5501 76.4022 7.25083Z" fill="white"/>
<path fill-rule="evenodd" clip-rule="evenodd" d="M29.4294 16.8413C28.2114 18.8883 31.2717 19.3787 33.2459 18.7986V15.7648C31.729 15.9766 30.0025 15.878 29.4294 16.8413ZM37.1604 21.6365C33.5227 21.8458 27.9943 23.0849 26.0042 20.6579C24.8351 19.2319 24.9608 16.512 26.0042 15.1776C27.3527 13.4535 30.2962 13.0774 32.9523 12.829C33.1935 12.2352 33.0309 11.2692 32.7566 10.8716C30.327 10.2527 27.9131 11.2117 26.2001 11.948V8.52304C28.7873 7.33429 34.7803 6.08263 36.5733 8.81659C37.515 10.2525 37.1604 12.7568 37.1604 14.9818V21.6365Z" fill="white"/>
<path fill-rule="evenodd" clip-rule="evenodd" d="M52.6225 21.8323H48.2187V16.1563C48.2187 14.2874 48.521 11.9177 47.5335 11.1653C46.7602 10.5758 44.9255 10.8716 43.815 11.1653V21.8323H39.4111V8.22951C43.9129 7.06013 52.0388 5.80638 52.6225 11.4589C52.9103 14.2458 52.4093 18.4269 52.6225 21.8323Z" fill="white"/>
<path fill-rule="evenodd" clip-rule="evenodd" d="M59.1793 17.1349C59.9204 18.3338 61.927 18.7834 63.583 18.0156C63.492 15.7253 63.4602 13.3758 63.4851 10.9695C59.6793 9.96402 57.4112 14.2749 59.1793 17.1349ZM70.2376 7.83808C69.8457 9.01194 69.272 10.0039 68.7697 11.0676C68.3159 11.1692 67.9225 10.8871 67.6932 11.0676C67.5927 15.8379 68.7091 22.3047 66.8124 25.7466C65.6705 27.8189 63.568 29.1484 60.3536 29.3676C58.012 29.5273 56.1946 29.1446 54.4819 28.4868V24.3766C56.4908 25.5495 61.5669 26.5058 62.9959 24.083C63.4163 23.3702 63.3896 22.6334 63.583 21.5386C62.663 21.5869 61.7698 22.013 60.6472 22.028C56.0319 22.0892 53.1766 18.4143 54.2862 13.3182C54.7154 11.3469 55.8704 9.75976 57.4179 8.81663C60.6318 6.85778 65.5721 7.00652 70.2376 7.83808Z" fill="white"/>
<path fill-rule="evenodd" clip-rule="evenodd" d="M23.3612 7.52476C23.3562 10.7676 23.3569 13.0978 23.3566 17.0374C23.1695 20.9089 23.2131 23.992 21.7955 25.8445C21.5159 26.2098 20.9221 26.7427 20.4254 27.1167C20.0082 27.4308 19.2131 28.0677 18.7617 28.0954C18.3067 28.1233 17.1378 27.4637 16.6087 27.2146C15.914 26.8874 15.2718 26.4529 14.5537 26.236C16.2288 25.198 17.8189 24.4198 18.4681 22.3215C19.0327 20.4967 18.9575 17.8525 18.9575 15.2755C18.9575 12.7309 18.9688 9.77258 18.9688 7.52591L23.3612 7.52476Z" fill="white"/>
</svg>
