<svg width="119" height="36" viewBox="0 0 119 36" fill="none" xmlns="http://www.w3.org/2000/svg">
<g clip-path="url(#clip0_456_2483)">
<path opacity="0.45" d="M19.4504 0L12.9637 10.2866H0L6.48184 0L19.4504 0Z" fill="#A4A4A4"/>
<path opacity="0.6" d="M12.9633 10.2866H25.9318L19.45 0L6.48145 0L12.9633 10.2866Z" fill="#A4A4A4"/>
<path opacity="0.8" d="M6.48184 20.5697L12.9637 10.2866L6.48184 0L0 10.2866L6.48184 20.5697Z" fill="#A4A4A4"/>
<path opacity="0.45" d="M6.54492 36L13.0316 25.7134H25.9993L19.5135 36H6.54492Z" fill="#A4A4A4"/>
<path opacity="0.6" d="M13.031 25.7134H0.0625L6.54434 36H19.5129L13.031 25.7134Z" fill="#A4A4A4"/>
<path opacity="0.8" d="M19.5131 15.4303L13.0312 25.7134L19.5131 36L25.999 25.7134L19.5131 15.4303Z" fill="#A4A4A4"/>
</g>
<path d="M46.3181 27.153C45.5248 27.153 44.8618 26.983 44.3291 26.643C43.8078 26.303 43.4111 25.8327 43.1391 25.232C42.8671 24.6313 42.7084 23.9343 42.6631 23.141L44.3631 22.682C44.3971 23.1693 44.4708 23.6397 44.5841 24.093C44.7088 24.5463 44.9071 24.9203 45.1791 25.215C45.4511 25.4983 45.8308 25.64 46.3181 25.64C46.8168 25.64 47.1908 25.504 47.4401 25.232C47.7008 24.9487 47.8311 24.5463 47.8311 24.025C47.8311 23.4017 47.6894 22.903 47.4061 22.529C47.1228 22.1437 46.7658 21.7583 46.3351 21.373L44.0231 19.333C43.5698 18.9363 43.2354 18.5057 43.0201 18.041C42.8048 17.565 42.6971 16.9813 42.6971 16.29C42.6971 15.2813 42.9861 14.4993 43.5641 13.944C44.1421 13.3887 44.9298 13.111 45.9271 13.111C46.4711 13.111 46.9471 13.1847 47.3551 13.332C47.7744 13.468 48.1201 13.6833 48.3921 13.978C48.6754 14.2727 48.8964 14.6467 49.0551 15.1C49.2251 15.542 49.3384 16.0633 49.3951 16.664L47.7631 17.106C47.7291 16.6527 47.6611 16.239 47.5591 15.865C47.4571 15.4797 47.2758 15.1737 47.0151 14.947C46.7658 14.709 46.4031 14.59 45.9271 14.59C45.4511 14.59 45.0771 14.7203 44.8051 14.981C44.5444 15.2303 44.4141 15.6043 44.4141 16.103C44.4141 16.5223 44.4821 16.868 44.6181 17.14C44.7654 17.412 44.9978 17.6897 45.3151 17.973L47.6441 20.013C48.1654 20.4663 48.6244 21.0103 49.0211 21.645C49.4178 22.2683 49.6161 23.0107 49.6161 23.872C49.6161 24.552 49.4744 25.1413 49.1911 25.64C48.9078 26.1273 48.5168 26.5013 48.0181 26.762C47.5308 27.0227 46.9641 27.153 46.3181 27.153Z" fill="white"/>
<path d="M57.5152 27.153C56.5859 27.153 55.8436 26.9717 55.2882 26.609C54.7329 26.2463 54.3362 25.7307 54.0982 25.062C53.8602 24.382 53.7412 23.5887 53.7412 22.682V17.463C53.7412 16.5563 53.8602 15.78 54.0982 15.134C54.3476 14.4767 54.7442 13.978 55.2882 13.638C55.8436 13.2867 56.5859 13.111 57.5152 13.111C58.4446 13.111 59.1812 13.2867 59.7252 13.638C60.2692 13.9893 60.6602 14.488 60.8982 15.134C61.1476 15.78 61.2722 16.5563 61.2722 17.463V22.699C61.2722 23.5943 61.1476 24.3763 60.8982 25.045C60.6602 25.7137 60.2692 26.235 59.7252 26.609C59.1812 26.9717 58.4446 27.153 57.5152 27.153ZM57.5152 25.64C58.0252 25.64 58.4106 25.538 58.6712 25.334C58.9319 25.1187 59.1076 24.824 59.1982 24.45C59.2889 24.0647 59.3342 23.617 59.3342 23.107V17.072C59.3342 16.562 59.2889 16.1257 59.1982 15.763C59.1076 15.389 58.9319 15.1057 58.6712 14.913C58.4106 14.709 58.0252 14.607 57.5152 14.607C57.0052 14.607 56.6142 14.709 56.3422 14.913C56.0816 15.1057 55.9059 15.389 55.8152 15.763C55.7246 16.1257 55.6792 16.562 55.6792 17.072V23.107C55.6792 23.617 55.7246 24.0647 55.8152 24.45C55.9059 24.824 56.0816 25.1187 56.3422 25.334C56.6142 25.538 57.0052 25.64 57.5152 25.64Z" fill="white"/>
<path d="M66.0503 27V13.23H67.9713V25.623H71.4903V27H66.0503Z" fill="white"/>
<path d="M75.7991 27V13.23H77.6861V27H75.7991Z" fill="white"/>
<path d="M82.8039 27V13.23H85.7959C86.8159 13.23 87.6206 13.3887 88.2099 13.706C88.8106 14.012 89.2356 14.4767 89.4849 15.1C89.7456 15.7233 89.8759 16.4997 89.8759 17.429V22.495C89.8759 23.4697 89.7456 24.2913 89.4849 24.96C89.2356 25.6287 88.8219 26.1387 88.2439 26.49C87.6773 26.83 86.9123 27 85.9489 27H82.8039ZM84.7249 25.623H85.8129C86.5156 25.623 87.0143 25.487 87.3089 25.215C87.6036 24.943 87.7793 24.5463 87.8359 24.025C87.9039 23.5037 87.9379 22.8747 87.9379 22.138V17.667C87.9379 16.953 87.8926 16.375 87.8019 15.933C87.7113 15.491 87.5129 15.168 87.2069 14.964C86.9009 14.76 86.4193 14.658 85.7619 14.658H84.7249V25.623Z" fill="white"/>
<path d="M94.7608 27V13.23H96.6478V27H94.7608Z" fill="white"/>
<path d="M103.279 27V14.658H100.95V13.23H107.461V14.658H105.2V27H103.279Z" fill="white"/>
<path d="M113.786 27V22.138L110.811 13.23H112.596L114.704 19.877L116.778 13.23H118.58L115.622 22.138V27H113.786Z" fill="white"/>
<defs>
<clipPath id="clip0_456_2483">
<rect width="26" height="36" fill="white"/>
</clipPath>
</defs>
</svg>
