<svg width="80" height="40" viewBox="0 0 80 40" fill="none" xmlns="http://www.w3.org/2000/svg">
<path d="M11.9709 28.3747C11.9709 28.3747 10.7929 29.0913 12.7909 29.2967C15.1909 29.6033 16.4775 29.5527 19.1402 29.0407C19.1402 29.0407 19.8569 29.5007 20.8302 29.8607C14.8389 32.4207 7.26085 29.7073 11.9715 28.376L11.9709 28.3747ZM11.2029 25.0467C11.2029 25.0467 9.92285 26.02 11.9195 26.2247C14.5309 26.4807 16.5862 26.5313 20.1129 25.8153C20.1129 25.8153 20.5729 26.3273 21.3415 26.5833C14.1215 28.734 6.03085 26.788 11.2029 25.0473V25.0467ZM25.3362 30.884C25.3362 30.884 26.2069 31.6007 24.3629 32.164C20.9322 33.188 9.97419 33.4953 6.90152 32.164C5.82619 31.704 7.87485 31.0307 8.54019 30.9353C9.20685 30.782 9.56419 30.782 9.56419 30.782C8.38685 29.962 1.72952 32.472 6.18419 33.182C18.4222 35.1787 28.5095 32.3113 25.3349 30.878L25.3362 30.884ZM12.5335 21.5647C12.5335 21.5647 6.95219 22.896 10.5362 23.3567C12.0722 23.5613 15.0935 23.51 17.9095 23.3053C20.2135 23.1007 22.5182 22.6907 22.5182 22.6907C22.5182 22.6907 21.6982 23.0493 21.1355 23.4073C15.4515 24.892 4.54485 24.2273 7.66885 22.6907C10.3315 21.4107 12.5335 21.5573 12.5335 21.5573V21.5647ZM22.5189 27.146C28.2535 24.176 25.5909 21.3087 23.7475 21.6673C23.2875 21.77 23.0809 21.872 23.0809 21.872C23.0809 21.872 23.2342 21.5653 23.5929 21.4627C27.2282 20.1827 30.0962 25.3027 22.4149 27.3C22.4149 27.3 22.4662 27.2487 22.5175 27.1467L22.5189 27.146ZM13.0975 35.236C18.6275 35.5947 27.0775 35.0313 27.2815 32.42C27.2815 32.42 26.8722 33.444 22.7242 34.212C18.0135 35.0827 12.1762 34.98 8.74419 34.4167C8.74419 34.4167 9.46085 35.0313 13.0975 35.2367V35.236Z" fill="#4E7896"/>
<path d="M19.0367 4.66666C19.0367 4.66666 22.2114 7.89333 16.0154 12.7573C11.0487 16.7 14.8821 18.9533 16.0154 21.5133C13.0967 18.902 10.9974 16.598 12.4307 14.4467C14.5307 11.272 20.3161 9.736 19.0361 4.66666H19.0367ZM17.3981 19.3627C18.8827 21.0527 16.9881 22.5893 16.9881 22.5893C16.9881 22.5893 20.7774 20.6427 19.0361 18.236C17.4494 15.932 16.2201 14.8053 22.8761 10.9647C22.8761 10.9647 12.3787 13.576 17.3974 19.362L17.3981 19.3627Z" fill="#F58219"/>
<path d="M50.2124 25.4413V17.6567C50.2124 15.67 49.1004 14.3207 46.3204 14.3207C44.7318 14.3207 43.3804 14.718 42.1898 15.194L42.5871 16.624C43.4604 16.306 44.5738 15.9887 45.7644 15.9887C47.2738 15.9887 47.9884 16.624 47.9884 17.8953V18.9287H47.2004C43.3871 18.9287 41.6404 20.3587 41.6404 22.662C41.6404 24.5687 42.8318 25.6807 44.9764 25.6807C46.3271 25.6807 47.3598 25.0453 48.3124 24.2507L48.4711 25.442H50.2178L50.2124 25.4413ZM47.9871 22.9C47.1938 23.6147 46.3191 24.012 45.5244 24.012C44.4911 24.012 43.8564 23.3767 43.8564 22.2653C43.8564 21.154 44.4918 20.3587 47.0338 20.3587H47.9871V22.9007V22.9ZM57.6778 25.442H54.8978L51.5624 14.56H53.9458L56.0111 21.2333L56.4878 23.22C57.5211 20.36 58.3144 17.4213 58.6324 14.562H61.0151C60.3798 18.1367 59.2684 22.0287 57.6791 25.444L57.6778 25.442ZM70.5458 25.442V17.6567C70.5458 15.67 69.4338 14.3207 66.6524 14.3207C65.0638 14.3207 63.7138 14.718 62.5218 15.194L62.8398 16.624C63.7931 16.306 64.9051 15.9887 66.0964 15.9887C67.6058 15.9887 68.3204 16.624 68.3204 17.8953V18.9287H67.5271C63.7138 18.9287 61.9671 20.3587 61.9671 22.662C61.9671 24.5687 63.0791 25.6807 65.2238 25.6807C66.6538 25.6807 67.6864 25.0453 68.6391 24.2507L68.7978 25.442H70.5444H70.5458ZM68.3218 22.9C67.5284 23.6147 66.6538 24.012 65.8591 24.012C64.8258 24.012 64.1911 23.3767 64.1911 22.2653C64.1911 21.154 64.8264 20.3587 67.3684 20.3587H68.3218V22.9007V22.9ZM39.1698 27.2687C38.5344 28.222 37.5811 28.9367 36.3898 29.334L35.3564 28.0633C36.1511 27.5867 36.9451 26.872 37.2631 26.2367C37.5811 25.6807 37.6604 24.886 37.6604 23.0593V10.6667H40.0438V22.9C40.0438 25.3627 39.8051 26.3153 39.1704 27.2687H39.1698Z" fill="#4E7896"/>
</svg>
