<svg width="136" height="40" viewBox="0 0 136 40" fill="none" xmlns="http://www.w3.org/2000/svg">
<path d="M48.1561 16.1557C48.1561 12.3574 47.073 10.4061 44.9057 10.2991C44.0438 10.2584 43.202 10.3958 42.3833 10.7137C41.7299 10.9476 41.29 11.179 41.0587 11.4128V20.4806C42.4444 21.3504 43.6752 21.7544 44.7474 21.691C47.018 21.541 48.1543 19.6975 48.1543 16.1554L48.1561 16.1557ZM50.8274 16.3133C50.8274 18.2432 50.3748 19.8455 49.4647 21.1185C48.4501 22.5603 47.044 23.3028 45.2464 23.3435C43.8912 23.3867 42.4942 22.9621 41.0594 22.072V30.3129L38.7354 29.4838V11.1916C39.1167 10.7239 39.6074 10.3219 40.2025 9.98121C41.5856 9.17512 43.2677 8.7606 45.2451 8.74025L45.2781 8.77331C47.086 8.75042 48.479 9.49278 49.4573 10.9983C50.3701 12.379 50.8279 14.1496 50.8279 16.3122L50.8274 16.3133Z" fill="#646464"/>
<path d="M65.0349 21.7226C65.0349 24.3112 64.7755 26.1026 64.2567 27.1017C63.7355 28.0985 62.7436 28.8944 61.2802 29.4869C60.0927 29.9546 58.8087 30.209 57.4297 30.2523L57.0457 28.7877C58.4469 28.597 59.4335 28.4064 60.0066 28.2157C61.133 27.8343 61.906 27.2494 62.3307 26.4663C62.6714 25.8279 62.8391 24.6102 62.8391 22.8063V22.201C61.2499 22.9231 59.5835 23.2818 57.8435 23.2818C56.6993 23.2818 55.6897 22.9234 54.82 22.201C53.8436 21.4153 53.3555 20.4185 53.3555 19.2115V9.53844L55.6796 8.74252V18.4782C55.6796 19.5183 56.0153 20.3191 56.6865 20.881C57.3577 21.443 58.2275 21.7124 59.2929 21.6921C60.3582 21.6692 61.4998 21.2572 62.7129 20.4511V9.09287H65.0369V21.7216L65.0349 21.7226Z" fill="#646464"/>
<path d="M74.1134 23.2174C73.8364 23.2403 73.582 23.2504 73.348 23.2504C72.0335 23.2504 71.0088 22.9377 70.2776 22.3097C69.5479 21.6816 69.1817 20.8147 69.1817 19.7086V10.5547H67.5898V9.09253H69.1817V5.21079L71.5031 4.38436V9.09305H74.1145V10.5552H71.5031V19.6465C71.5031 20.5186 71.7371 21.1366 72.2049 21.4977C72.6066 21.7951 73.245 21.9654 74.1145 22.0087V23.2191L74.1134 23.2174Z" fill="#646464"/>
<path d="M88.1736 23.027H85.8495V14.0557C85.8495 13.1429 85.6359 12.3571 85.2111 11.701C84.7204 10.9586 84.0391 10.5874 83.1644 10.5874C82.099 10.5874 80.7664 11.1493 79.1678 12.2731V23.0262H76.8438V1.58269L79.1678 0.850433V10.6174C80.6527 9.53661 82.2748 8.99504 84.0383 8.99504C85.2691 8.99504 86.2656 9.40956 87.0278 10.236C87.7932 11.0624 88.1746 12.0921 88.1746 13.3221V23.0238L88.1736 23.027Z" fill="#646464"/>
<path d="M100.54 15.7904C100.54 14.3309 100.262 13.127 99.7105 12.1722C99.0544 11.0103 98.0349 10.3975 96.6557 10.3338C94.1078 10.4813 92.8366 12.307 92.8366 15.8069C92.8366 17.4112 93.1011 18.7521 93.6351 19.8269C94.3165 21.1975 95.3388 21.8737 96.7029 21.851C99.261 21.8306 100.54 19.8117 100.54 15.791L100.54 15.7904ZM103.085 15.8057C103.085 17.883 102.553 19.6118 101.493 20.9918C100.326 22.5377 98.7148 23.3133 96.6565 23.3133C94.6173 23.3133 93.0278 22.5377 91.88 20.9918C90.8399 19.611 90.3213 17.8822 90.3213 15.8057C90.3213 13.8528 90.8832 12.2109 92.007 10.8726C93.1945 9.45378 94.7566 8.74186 96.6844 8.74186C98.6143 8.74186 100.185 9.45378 101.396 10.8726C102.52 12.2101 103.081 13.8518 103.081 15.8057H103.085Z" fill="#646464"/>
<path d="M116.4 23.027H114.076V13.547C114.076 12.5069 113.763 11.6958 113.138 11.111C112.512 10.5287 111.678 10.2464 110.638 10.2694C109.535 10.2897 108.485 10.6508 107.487 11.3502V23.0267H105.163V11.0632C106.501 10.0894 107.731 9.45365 108.854 9.15626C109.915 8.87922 110.85 8.74174 111.656 8.74174C112.208 8.74174 112.727 8.79514 113.215 8.90194C114.128 9.11298 114.87 9.50455 115.442 10.0792C116.08 10.715 116.398 11.4778 116.398 12.3702V23.0267L116.4 23.027Z" fill="#646464"/>
<path d="M15.7853 1.66904C14.5895 1.6746 13.4477 1.77657 12.4436 1.95443C9.48271 2.47748 8.94531 3.57183 8.94531 5.59096V8.25704H15.9392V9.14557H8.94531H6.32097C4.28827 9.14557 2.50705 10.3675 1.9514 12.6908C1.30914 15.3543 1.28071 17.0186 1.9514 19.7995C2.44862 21.8703 3.6361 23.3447 5.66879 23.3447H8.07375V20.149C8.07375 17.8403 10.0712 15.803 12.4433 15.803H19.4294C21.3742 15.803 22.9277 14.2017 22.9277 12.2499V5.58991C22.9277 3.69443 21.3285 2.27165 19.4294 1.95339C18.2278 1.75338 16.9811 1.66252 15.7851 1.668L15.7853 1.66904ZM12.0027 3.81313C12.7253 3.81313 13.3151 4.41287 13.3151 5.15009C13.3151 5.8847 12.7251 6.47896 12.0027 6.47896C11.2777 6.47896 10.6903 5.88496 10.6903 5.15009C10.6903 4.41287 11.2777 3.81313 12.0027 3.81313Z" fill="url(#paint0_linear_508_471)"/>
<path d="M23.7992 9.14348V12.2504C23.7992 14.6585 21.7577 16.6852 19.4297 16.6852H12.4436C10.5298 16.6852 8.94531 18.323 8.94531 20.2383V26.8983C8.94531 28.7937 10.5937 29.9087 12.4436 30.4513C14.6576 31.1024 16.7818 31.2201 19.4297 30.4513C21.1905 29.9416 22.9279 28.9153 22.9279 26.8983V24.2322H15.9418V23.3437H22.9279H26.4262C28.4589 23.3437 29.2175 21.9258 29.9244 19.7984C30.6546 17.6074 30.6236 15.4993 29.9244 12.6897C29.422 10.6662 28.4625 9.14452 26.4262 9.14452H23.8018L23.7992 9.14348ZM19.8705 26.0113C20.5955 26.0113 21.183 26.6053 21.183 27.3402C21.183 28.0774 20.5955 28.6771 19.8705 28.6771C19.1479 28.6771 18.5581 28.0774 18.5581 27.3402C18.5581 26.6056 19.1482 26.0113 19.8705 26.0113Z" fill="url(#paint1_linear_508_471)"/>
<path d="M120.939 7.02H121.346V4.46452H122.312V4.15983H119.974V4.46452H120.939V7.02ZM122.673 7.02H123.021V4.686L123.776 7.01974H124.164L124.951 4.69383V7.02H125.331V4.16087H124.829L123.968 6.61122L123.235 4.16087H122.673V7.02Z" fill="#646464"/>
<path opacity="0.4438" d="M25.4006 34.9844C25.4006 35.4664 24.413 35.9288 22.655 36.2696C20.897 36.6105 18.5127 36.802 16.0265 36.802C13.5403 36.802 11.156 36.6105 9.39796 36.2696C7.63997 35.9288 6.65234 35.4664 6.65234 34.9844C6.65234 34.5023 7.63997 34.04 9.39796 33.6992C11.156 33.3583 13.5403 33.1668 16.0265 33.1668C18.5127 33.1668 20.897 33.3583 22.655 33.6992C24.413 34.04 25.4006 34.5023 25.4006 34.9844Z" fill="url(#paint2_radial_508_471)"/>
<defs>
<linearGradient id="paint0_linear_508_471" x1="1.45852" y1="1.66847" x2="17.5927" y2="15.412" gradientUnits="userSpaceOnUse">
<stop stop-color="#5A9FD4"/>
<stop offset="1" stop-color="#306998"/>
</linearGradient>
<linearGradient id="paint1_linear_508_471" x1="19.7055" y1="27.1247" x2="13.9083" y2="19.0136" gradientUnits="userSpaceOnUse">
<stop stop-color="#FFD43B"/>
<stop offset="1" stop-color="#FFE873"/>
</linearGradient>
<radialGradient id="paint2_radial_508_471" cx="0" cy="0" r="1" gradientUnits="userSpaceOnUse" gradientTransform="translate(16.0389 34.9771) rotate(-90) scale(1.81767 7.99157)">
<stop stop-color="#B8B8B8" stop-opacity="0.498"/>
<stop offset="1" stop-color="#7F7F7F" stop-opacity="0"/>
</radialGradient>
</defs>
</svg>
