<svg width="57" height="50" viewBox="0 0 57 50" fill="none" xmlns="http://www.w3.org/2000/svg">
<g clip-path="url(#clip0_450_2138)">
<path d="M0 50L0.0132943 20.1436L56.8253 0L56.812 29.8591L0 50ZM1.26296 21.0263V48.2345L55.573 28.9763V1.76815L1.26296 21.0263Z" fill="#FFED00"/>
<path d="M4.07617 23.1561V44.1159L11.7443 41.3906V20.4334L4.07617 23.1561Z" fill="#FFED00"/>
<path d="M52.7632 5.90002L45.1934 8.58814V29.548L52.7632 26.8599V5.90002Z" fill="#FFED00"/>
<path d="M26.1634 15.3151L18.583 18.0059V25.464L26.1634 35.0758V15.3151Z" fill="#FFED00"/>
<path d="M43.8578 9.04813L36.2773 11.7389V19.197L43.8578 28.8088V9.04813Z" fill="#FFED00"/>
<path d="M13.0791 33.0763L17.9209 39.1997L25.5439 36.4956L13.0791 20.7737V33.0763Z" fill="#FFED00"/>
<path d="M27.4795 14.8418V22.6855L30.4734 26.4238L27.4795 27.49V33.0152L33.8794 30.7418L35.5944 32.9115L43.2732 30.2021L30.3165 13.8367L27.4795 14.8418Z" fill="#FFED00"/>
</g>
<defs>
<clipPath id="clip0_450_2138">
<rect width="56.8253" height="50" fill="white"/>
</clipPath>
</defs>
</svg>
