<svg width="67" height="40" viewBox="0 0 67 40" fill="none" xmlns="http://www.w3.org/2000/svg">
<path d="M15.7207 10.4326H28.2865V11.4265H16.8726V18.9073H27.6058V19.9012H16.8726V28.1143H28.4174V29.1083H15.7207V10.4326ZM29.4121 10.4326H30.7473L36.6636 18.6457L42.7109 10.4326L50.9362 0L37.4228 19.5089L44.3863 29.1083H42.9989L36.6636 20.372L30.3022 29.1083H28.9409L35.9568 19.5089L29.4121 10.4326ZM44.8837 11.4265V10.4326H59.2035V11.4265H52.6064V29.1083H51.4546V11.4265H44.8837Z" fill="white"/>
<path d="M0 10.4326H1.43983L21.2942 40L13.0893 29.1083L1.20422 11.845L1.15186 29.1083H0V10.4326Z" fill="white"/>
<path d="M59.0866 27.8144C59.3248 27.8144 59.4985 27.6329 59.4985 27.3984C59.4985 27.1639 59.3248 26.9824 59.0866 26.9824C58.8513 26.9824 58.6748 27.1639 58.6748 27.3984C58.6748 27.6329 58.8513 27.8144 59.0866 27.8144ZM60.2185 26.72C60.2185 27.4124 60.72 27.8646 61.4512 27.8646C62.23 27.8646 62.7007 27.3984 62.7007 26.5888V23.7384H62.0731V26.586C62.0731 27.0355 61.8462 27.2756 61.4456 27.2756C61.087 27.2756 60.8432 27.0522 60.8348 26.72H60.2185ZM63.5216 26.6837C63.5664 27.404 64.1687 27.8646 65.0652 27.8646C66.0234 27.8646 66.6229 27.3817 66.6229 26.6111C66.6229 26.0053 66.2811 25.6703 65.4518 25.4777L65.0064 25.3688C64.4797 25.246 64.2668 25.0813 64.2668 24.7937C64.2668 24.4308 64.5974 24.1935 65.0932 24.1935C65.5639 24.1935 65.8889 24.4252 65.9477 24.7965H66.5585C66.5221 24.1181 65.9225 23.6407 65.1017 23.6407C64.2192 23.6407 63.6308 24.1181 63.6308 24.8356C63.6308 25.4274 63.9642 25.7792 64.6954 25.9495L65.2165 26.0751C65.7516 26.2008 65.987 26.385 65.987 26.6921C65.987 27.0494 65.6171 27.3091 65.1129 27.3091C64.5722 27.3091 64.1967 27.0662 64.1435 26.6837H63.5216Z" fill="white"/>
</svg>
