<svg width="112" height="30" viewBox="0 0 112 30" fill="none" xmlns="http://www.w3.org/2000/svg">
<g clip-path="url(#clip0_456_2488)">
<path fill-rule="evenodd" clip-rule="evenodd" d="M56.3189 7.06834e-05C56.2416 0.00101393 56.1635 0.0194503 56.0946 0.0598874C55.9569 0.140699 55.8703 0.289113 55.8703 0.448708V11.8889C55.8703 12.0013 55.8179 12.1018 55.7207 12.1582C55.6233 12.2147 55.5043 12.2147 55.4067 12.1582L53.5373 11.0814C53.2588 10.9208 52.9186 10.9209 52.6401 11.0814L45.1777 15.3883C44.8987 15.5493 44.7291 15.8589 44.7291 16.1809V24.7947C44.7291 25.1165 44.899 25.4111 45.1777 25.5724L52.6401 29.8793C52.9191 30.0403 53.2583 30.0403 53.5373 29.8793L60.9997 25.5724C61.2784 25.4111 61.4483 25.1165 61.4483 24.7947V3.31999C61.4483 2.99332 61.27 2.68675 60.9847 2.52739L56.5432 0.0449361C56.4735 0.0060308 56.3961 -0.000762662 56.3189 9.94691e-05V7.06834e-05ZM8.31474 10.7524C8.17243 10.7581 8.03874 10.783 7.91096 10.8571L0.448637 15.164C0.170578 15.3247 0 15.6175 0 15.9416L0.0149225 27.5015C0.0149225 27.6623 0.0978737 27.8116 0.239242 27.8904C0.377804 27.9733 0.549786 27.9733 0.687879 27.8904L5.11443 25.348C5.39483 25.1815 5.57802 24.8917 5.57802 24.5704V19.1718C5.57802 18.8498 5.74742 18.5543 6.02666 18.3942L7.91093 17.3025C8.05157 17.2212 8.20255 17.1829 8.35957 17.1829C8.51337 17.1829 8.67146 17.2212 8.80821 17.3025L10.6925 18.3942C10.9717 18.5543 11.1411 18.8498 11.1411 19.1718V24.5704C11.1411 24.8917 11.3261 25.1833 11.6047 25.348L16.0313 27.8904C16.1703 27.9733 16.342 27.9733 16.4799 27.8904C16.6173 27.8116 16.7042 27.6623 16.7042 27.5015L16.7191 15.9416C16.7191 15.6175 16.5505 15.3247 16.2705 15.164L8.80819 10.8571C8.68197 10.783 8.54769 10.7582 8.40442 10.7524H8.31469H8.31474ZM75.371 10.8571C75.2151 10.8569 75.0623 10.8963 74.9224 10.9767L67.46 15.2836C67.1813 15.4446 67.0114 15.7393 67.0114 16.0613V24.6751C67.0114 24.999 67.1938 25.2927 67.475 25.4527L74.8775 29.6699C75.1509 29.826 75.4847 29.8377 75.7598 29.6848L80.2462 27.1873C80.3886 27.1084 80.4849 26.9609 80.4855 26.7985C80.4864 26.6361 80.4017 26.4905 80.2611 26.4097L72.754 22.1028C72.6134 22.0226 72.5147 21.8602 72.5147 21.699V19.0071C72.5147 18.8462 72.6146 18.6987 72.754 18.6184L75.0869 17.2724C75.2256 17.1921 75.3961 17.1921 75.5355 17.2724L77.8684 18.6184C78.0078 18.6987 78.0927 18.8462 78.0927 19.0071V21.1307C78.0927 21.2919 78.1777 21.4392 78.317 21.5195C78.457 21.6001 78.6263 21.6004 78.7657 21.5195L83.2371 18.9175C83.5147 18.7563 83.6857 18.4608 83.6857 18.1398V16.0611C83.6857 15.7401 83.5153 15.4447 83.2371 15.2835L75.8196 10.9766C75.68 10.8956 75.5269 10.8571 75.371 10.8569V10.8571ZM53.0588 17.2875C53.0977 17.2875 53.1435 17.2971 53.1784 17.3172L55.7357 18.7977C55.805 18.8379 55.8553 18.912 55.8553 18.9921V21.9531C55.8553 22.0335 55.8055 22.1076 55.7357 22.1476L53.1784 23.628C53.1088 23.6678 53.0237 23.6678 52.9541 23.628L50.3969 22.1476C50.3272 22.1074 50.2772 22.0335 50.2772 21.9531V18.9921C50.2772 18.912 50.3275 18.8381 50.3969 18.7977L52.9541 17.3175C52.989 17.2974 53.0199 17.2878 53.0588 17.2878V17.2875Z" fill="white"/>
<path fill-rule="evenodd" clip-rule="evenodd" d="M97.7281 10.6477C97.4694 10.6477 97.2179 10.7012 96.9954 10.8272L89.9518 14.8948C89.4959 15.1572 89.219 15.6533 89.219 16.1809V24.3012C89.219 24.8285 89.4959 25.324 89.9518 25.5873L91.7912 26.6491C92.6848 27.0895 93.0145 27.0827 93.4212 27.0827C94.7444 27.0827 95.4999 26.2799 95.4999 24.8844V16.8688C95.4999 16.7555 95.4018 16.6744 95.2905 16.6744H94.4082C94.2952 16.6744 94.1988 16.7555 94.1988 16.8688V24.8844C94.1988 25.503 93.5546 26.125 92.509 25.6023L90.5948 24.4807C90.5272 24.4438 90.4752 24.3788 90.4752 24.3012V16.1809C90.4752 16.1038 90.5266 16.0255 90.5948 15.9865L97.6235 11.9338C97.6892 11.896 97.7676 11.896 97.8328 11.9338L104.861 15.9865C104.928 16.0267 104.981 16.1014 104.981 16.1809V24.3012C104.981 24.3788 104.942 24.4582 104.876 24.4956L97.8328 28.5483C97.7724 28.5842 97.6892 28.5842 97.6235 28.5483L95.8139 27.4716C95.7601 27.44 95.6865 27.4424 95.6345 27.4716C95.135 27.7548 95.0411 27.7877 94.5727 27.9501C94.4573 27.9903 94.282 28.0529 94.6325 28.2492L96.9954 29.64C97.2203 29.7702 97.4709 29.8344 97.7281 29.8344C97.9889 29.8344 98.236 29.7702 98.4609 29.64L105.505 25.5873C105.96 25.3222 106.237 24.8285 106.237 24.3012V16.1809C106.237 15.6533 105.96 15.1583 105.505 14.8948L98.4609 10.8272C98.2402 10.7012 97.9868 10.6477 97.7281 10.6477ZM30.7317 10.8122C30.5762 10.8122 30.4223 10.8514 30.283 10.9318L22.8207 15.2238C22.5417 15.3846 22.3721 15.6946 22.3721 16.0164V24.6302C22.3721 24.9523 22.5419 25.2467 22.8207 25.4078L30.283 29.7147C30.562 29.8759 30.9013 29.8759 31.1803 29.7147L38.6426 25.4078C38.9211 25.2467 39.0913 24.9523 39.0913 24.6302V16.0164C39.0913 15.6942 38.9216 15.3846 38.6426 15.2238L31.1803 10.9318C31.0411 10.8514 30.8872 10.8122 30.7317 10.8122ZM108.181 10.8572V11.0665H108.765V12.6068H109.004V11.0665H109.602V10.8572H108.181ZM109.811 10.8572V12.6068H110.036V11.575C110.036 11.5329 110.038 11.4677 110.036 11.3806C110.033 11.2918 110.036 11.2144 110.036 11.1712V11.1262L110.529 12.6067H110.769L111.277 11.1262C111.277 11.2204 111.264 11.3113 111.262 11.3954C111.261 11.4772 111.262 11.5387 111.262 11.5748V12.6067H111.486V10.857H111.157L110.649 12.3375L110.155 10.857H109.811L109.811 10.8572ZM99.6124 16.4502C97.6067 16.4502 96.4121 17.3037 96.4121 18.7233C96.4121 20.2632 97.5977 20.6863 99.5227 20.8767C101.826 21.1022 102.005 21.4403 102.005 21.8936C102.005 22.6799 101.378 23.0152 99.8965 23.0152C98.035 23.0152 97.6258 22.5505 97.4889 21.6244C97.4727 21.5251 97.3961 21.445 97.2944 21.445H96.3822C96.2698 21.445 96.1729 21.5417 96.1729 21.6543C96.1729 22.8397 96.8177 24.2415 99.8965 24.2415C102.125 24.2415 103.411 23.3666 103.411 21.8338C103.411 20.3142 102.372 19.9064 100.211 19.6205C98.026 19.3315 97.8179 19.19 97.8179 18.6784C97.8179 18.2561 97.9943 17.6914 99.6124 17.6914C101.058 17.6914 101.592 18.003 101.811 18.9775C101.83 19.0691 101.911 19.142 102.005 19.142H102.917C102.974 19.142 103.028 19.1075 103.067 19.0672C103.105 19.0241 103.132 18.9756 103.127 18.9177C102.986 17.2395 101.866 16.4502 99.6124 16.4502ZM75.3561 18.499C75.3263 18.499 75.2933 18.499 75.2664 18.5138L73.8307 19.3512C73.7769 19.3819 73.741 19.4389 73.741 19.5008V21.1458C73.741 21.2077 73.7769 21.2645 73.8307 21.2953L75.2664 22.1178C75.3202 22.1489 75.3776 22.1489 75.4309 22.1178L76.8665 21.2953C76.9197 21.2647 76.9562 21.2077 76.9562 21.1458V19.5008C76.9562 19.4389 76.9198 19.3821 76.8665 19.3512L75.4309 18.5138C75.4043 18.498 75.3859 18.499 75.3561 18.499Z" fill="#83CD29"/>
</g>
<defs>
<clipPath id="clip0_456_2488">
<rect width="111.486" height="30" fill="white"/>
</clipPath>
</defs>
</svg>
