<svg width="123" height="30" viewBox="0 0 123 30" fill="none" xmlns="http://www.w3.org/2000/svg">
<path d="M15.0841 3.26002H8.80983V22.6951H6.26132V3.26002H0V0.952995H15.0841V3.26002Z" fill="#007ACC"/>
<path d="M24.9847 7.1712L17.8437 25.179C16.5716 28.3916 14.7821 30 12.475 30C11.8282 30 11.2892 29.9353 10.8536 29.8016V27.5722C11.3884 27.7533 11.8799 27.8439 12.3241 27.8439C13.579 27.8439 14.519 27.0979 15.1443 25.6016L16.3862 22.6606L10.3232 7.1712H13.0831L17.2831 19.116C17.3349 19.2669 17.4384 19.6637 17.6022 20.2975H17.6928C17.7445 20.0561 17.8437 19.6723 17.9947 19.1462L22.406 7.1712H24.9847Z" fill="#007ACC"/>
<path d="M29.0514 20.4528H28.9911V29.8361H26.5029V7.17119H28.9911V9.90082H29.0514C30.2761 7.83958 32.0614 6.80897 34.4201 6.80897C36.421 6.80897 37.982 7.50323 39.1032 8.89176C40.2244 10.2803 40.7849 12.1432 40.7849 14.4804C40.7849 17.0763 40.1554 19.1591 38.8919 20.7201C37.6284 22.2812 35.8992 23.0617 33.7086 23.0617C31.6948 23.0574 30.1424 22.1906 29.0514 20.4528ZM28.9911 14.1915V16.3605C28.9911 17.6455 29.4094 18.7322 30.2416 19.6291C31.0739 20.5261 32.1347 20.9702 33.4197 20.9702C34.9247 20.9702 36.1062 20.3924 36.96 19.241C37.8138 18.0897 38.2407 16.4856 38.2407 14.4373C38.2407 12.7081 37.8397 11.354 37.042 10.3752C36.2442 9.39629 35.1618 8.9047 33.7992 8.9047C32.3546 8.9047 31.1903 9.40923 30.3106 10.414C29.4309 11.4144 28.9911 12.6736 28.9911 14.1915Z" fill="#007ACC"/>
<path d="M55.8684 15.5541H44.9068C44.9456 17.2833 45.4114 18.6158 46.2997 19.5558C47.188 20.4959 48.4126 20.9659 49.9693 20.9659C51.7158 20.9659 53.3242 20.3881 54.7904 19.2367V21.5696C53.4277 22.5614 51.6209 23.0574 49.3786 23.0574C47.1837 23.0574 45.4631 22.3545 44.2082 20.9444C42.9534 19.5343 42.3281 17.5507 42.3281 14.9935C42.3281 12.5787 43.0138 10.608 44.3807 9.09012C45.752 7.56792 47.451 6.80897 49.4821 6.80897C51.5131 6.80897 53.0828 7.46442 54.1953 8.77964C55.3079 10.0949 55.8641 11.9189 55.8641 14.2518V15.5541H55.8684ZM53.3199 13.4454C53.3113 12.0095 52.962 10.8926 52.2807 10.0949C51.5994 9.29711 50.6507 8.89607 49.4389 8.89607C48.266 8.89607 47.2699 9.31436 46.4506 10.1552C45.6313 10.9961 45.1267 12.0914 44.9327 13.4454H53.3199Z" fill="#007ACC"/>
<path d="M58.042 21.8154V18.8141C58.3568 19.116 58.7319 19.392 59.1718 19.6335C59.6116 19.8749 60.073 20.0819 60.5603 20.2458C61.0476 20.4097 61.5349 20.5433 62.0222 20.6339C62.5137 20.7244 62.9665 20.7719 63.3805 20.7719C64.8121 20.7719 65.8859 20.483 66.5931 19.9008C67.3003 19.3187 67.6539 18.4821 67.6539 17.3911C67.6539 16.8047 67.5375 16.2958 67.3003 15.8603C67.0631 15.4248 66.7397 15.028 66.3214 14.6701C65.9031 14.3122 65.4115 13.9672 64.8423 13.6395C64.2731 13.3118 63.6608 12.9668 63.0053 12.6003C62.3111 12.2165 61.6642 11.8284 61.0648 11.4317C60.4654 11.0392 59.9394 10.6037 59.4995 10.1294C59.0554 9.65502 58.7061 9.116 58.4517 8.5166C58.1972 7.91721 58.0722 7.21 58.0722 6.40362C58.0722 5.41181 58.2705 4.55369 58.6673 3.82061C59.064 3.08754 59.5858 2.48383 60.2369 2.00949C60.8837 1.53514 61.6211 1.18154 62.4491 0.948684C63.277 0.715825 64.1222 0.599396 64.9803 0.599396C66.9424 0.599396 68.3697 0.858128 69.2667 1.37128V4.23458C68.0937 3.34627 66.5845 2.90211 64.7432 2.90211C64.2343 2.90211 63.7255 2.96248 63.2166 3.0746C62.7078 3.19103 62.255 3.38077 61.8583 3.64381C61.4616 3.90686 61.1382 4.24321 60.888 4.66149C60.6379 5.07546 60.5129 5.57999 60.5129 6.17939C60.5129 6.73566 60.6078 7.21432 60.7975 7.61966C60.9872 8.02501 61.2675 8.39155 61.6384 8.7279C62.0092 9.05994 62.4577 9.38335 62.9924 9.69814C63.5228 10.0129 64.1351 10.3536 64.8294 10.7288C65.5409 11.1125 66.2179 11.5179 66.8561 11.9405C67.4943 12.3631 68.0549 12.8331 68.5336 13.3506C69.0122 13.868 69.396 14.4373 69.6763 15.0625C69.9566 15.6878 70.0989 16.4079 70.0989 17.2143C70.0989 18.2837 69.9049 19.1936 69.5254 19.9353C69.1416 20.677 68.6241 21.2807 67.973 21.7464C67.3219 22.2122 66.5715 22.5485 65.7177 22.7555C64.8682 22.9625 63.9713 23.066 63.0269 23.066C62.7121 23.066 62.324 23.0401 61.8626 22.984C61.4012 22.928 60.9269 22.8461 60.4482 22.7426C59.9652 22.6348 59.5124 22.5054 59.0812 22.3502C58.6457 22.182 58.305 22.0052 58.042 21.8154Z" fill="#007ACC"/>
<path d="M83.3334 21.9836C82.1389 22.6994 80.7245 23.0617 79.0902 23.0617C76.878 23.0617 75.0884 22.3415 73.7301 20.9012C72.3718 19.461 71.6904 17.5938 71.6904 15.2997C71.6904 12.7426 72.4235 10.69 73.8897 9.13756C75.3558 7.58516 77.3092 6.80897 79.7586 6.80897C81.1212 6.80897 82.3243 7.06339 83.3679 7.56792V10.1164C82.2165 9.30573 80.9832 8.9047 79.668 8.9047C78.0811 8.9047 76.7788 9.47391 75.7655 10.6123C74.7521 11.7508 74.2433 13.2428 74.2433 15.0927C74.2433 16.9125 74.7219 18.3484 75.6749 19.3963C76.6279 20.4442 77.9129 20.9746 79.5171 20.9746C80.8711 20.9746 82.1432 20.5261 83.3377 19.6248V21.9836H83.3334Z" fill="#007ACC"/>
<path d="M92.9538 9.68521C92.5183 9.35317 91.893 9.18499 91.0737 9.18499C90.0129 9.18499 89.1246 9.68521 88.413 10.6856C87.7015 11.6861 87.3436 13.0487 87.3436 14.7779V22.6908H84.8555V7.16688H87.3436V10.3665H87.404C87.7576 9.27555 88.2966 8.42173 89.0254 7.81371C89.7541 7.20138 90.5648 6.89521 91.4661 6.89521C92.1129 6.89521 92.6088 6.96421 92.9538 7.10651V9.68521Z" fill="#007ACC"/>
<path d="M95.8086 3.22984C95.3645 3.22984 94.985 3.07891 94.6702 2.77706C94.3554 2.4752 94.2002 2.09142 94.2002 1.6257C94.2002 1.15998 94.3554 0.776195 94.6702 0.465716C94.985 0.15955 95.3645 0.00431061 95.8086 0.00431061C96.2614 0.00431061 96.6495 0.15955 96.9686 0.465716C97.2877 0.776195 97.4473 1.15998 97.4473 1.6257C97.4473 2.06986 97.2877 2.44933 96.9686 2.76412C96.6495 3.07029 96.2614 3.22984 95.8086 3.22984ZM97.0204 22.6951H94.5322V7.17119H97.0204V22.6951Z" fill="#007ACC"/>
<path d="M101.031 20.4528H100.971V29.8361H98.4824V7.17119H100.971V9.90082H101.031C102.256 7.83958 104.041 6.80897 106.4 6.80897C108.4 6.80897 109.962 7.50323 111.083 8.89176C112.204 10.2803 112.764 12.1432 112.764 14.4804C112.764 17.0763 112.135 19.1591 110.871 20.7201C109.608 22.2812 107.879 23.0617 105.688 23.0617C103.674 23.0574 102.122 22.1906 101.031 20.4528ZM100.971 14.1915V16.3605C100.971 17.6455 101.389 18.7322 102.221 19.6291C103.053 20.5261 104.114 20.9702 105.399 20.9702C106.904 20.9702 108.086 20.3924 108.94 19.241C109.793 18.0897 110.22 16.4856 110.22 14.4373C110.22 12.7081 109.819 11.354 109.021 10.3752C108.224 9.39629 107.141 8.9047 105.779 8.9047C104.334 8.9047 103.17 9.40923 102.29 10.414C101.41 11.4144 100.971 12.6736 100.971 14.1915Z" fill="#007ACC"/>
<path d="M122.074 22.5442C121.488 22.8676 120.716 23.0272 119.754 23.0272C117.038 23.0272 115.675 21.5093 115.675 18.4778V9.2928H113.006V7.17119H115.675V3.38077L118.163 2.5787V7.17119H122.074V9.2928H118.163V18.0379C118.163 19.0772 118.34 19.8232 118.694 20.2674C119.047 20.7115 119.634 20.9357 120.453 20.9357C121.078 20.9357 121.622 20.7633 122.074 20.4183V22.5442Z" fill="#007ACC"/>
</svg>
