<svg width="81" height="30" viewBox="0 0 81 30" fill="none" xmlns="http://www.w3.org/2000/svg">
<g clip-path="url(#clip0_454_2377)">
<path d="M16.3506 12.566V4.73545L11.8363 0.663231H5.18188L0.742673 4.66028L0.663086 4.6426V4.73987V24.818V24.9153L0.742673 24.8976L5.18188 29.3368H11.8363L16.3506 24.8224V16.9875H10.6601V23.6595H6.5437V23.5402V6.01327V5.89831H10.6601V12.566H16.3506Z" fill="#FBCD01"/>
<path d="M12.1105 30H4.90789L0.530582 25.6271L0 25.7509V3.80693L0.55269 3.93515L4.92557 0H12.0929L17.014 4.4392V13.2292H9.99705V6.56153H7.20707V22.9963H9.99705V16.3287H17.014V25.101L12.1105 30.0044V30ZM5.45173 28.6735H11.5578L15.6831 24.5483V17.6507H11.3191V24.3183H5.88062V5.23508H11.3235V11.9027H15.6875V5.02727L11.5844 1.32646H5.43405L1.32646 5.02727V24.5438L5.45615 28.6735H5.45173Z" fill="black"/>
<path d="M25.7998 0.919678H19.875V24.818" fill="#FBCD01"/>
<path d="M20.5384 24.818H19.2119V0.256447H25.8V1.5829H20.5384V24.818Z" fill="black"/>
<path d="M29.8411 0.919678V23.664H25.7998V0.919678H19.875V24.818L24.2656 29.2085H24.2965H31.3444H31.3754L35.7659 24.818V0.919678H29.8411Z" fill="#FBCD01"/>
<path d="M31.6496 29.8718H24.0225L23.797 29.6772L19.2119 25.0921V0.256447H26.4632V23.0007H29.178V0.256447H36.4293V25.0921L31.6496 29.8718ZM24.5398 28.5453H31.1014L35.1029 24.5438V1.5829H30.5045V24.3272H25.1367V1.5829H20.5384V24.5438L24.5398 28.5453Z" fill="black"/>
<path d="M39.1875 0.919678V29.2085H51.4395V24.1503H44.8692V0.919678H39.1875Z" fill="#FBCD01"/>
<path d="M52.1029 29.8718H38.5244V0.256447H45.5369V23.4871H52.1029V29.8718ZM39.8509 28.5453H50.7764V24.8136H44.2105V1.5829H39.8509V28.5497V28.5453Z" fill="black"/>
<path d="M52.0283 0.919678V5.72145H55.9502V29.2085H58.8905H61.8308V5.72145H65.7483V0.919678H52.0283Z" fill="#FBCD01"/>
<path d="M62.4942 29.8718H55.2871V6.38467H51.3652V0.256447H66.4161V6.38467H62.4942V29.8718ZM56.6136 28.5453H61.1677V5.05822H65.0896V1.5829H52.6917V5.05822H56.6136V28.5453Z" fill="black"/>
<path d="M70.0639 2.97568L74.9629 2.48489V9.24982H79.4729V13.5608H74.7684V23.6551C74.7684 23.6551 74.6711 25.4193 76.5326 25.2248C78.394 25.0302 79.4729 25.2248 79.4729 25.2248V29.2085H73.296C73.296 29.2085 69.7367 29.4031 69.7367 25.6492V13.3663H66.2393V9.34709H69.8163L70.0639 2.97568Z" fill="#FBCD01"/>
<path d="M73.1939 29.8762C72.796 29.8762 71.3413 29.801 70.2625 28.7797C69.4754 28.0368 69.0775 26.9801 69.0775 25.6492V14.0295H65.5801V8.68386H69.1836L69.4268 2.37435L75.6302 1.75534V8.58659H80.1401V14.224H75.4356V23.6551C75.4312 23.8143 75.4666 24.199 75.6832 24.3979C75.8424 24.5438 76.1077 24.6013 76.4659 24.5615C78.4025 24.3581 79.5477 24.5615 79.5963 24.5704L80.1401 24.6676V29.8674H73.3C73.3 29.8674 73.2603 29.8674 73.1984 29.8674L73.1939 29.8762ZM66.9021 12.7074H70.3995V25.6536C70.3995 26.5999 70.656 27.3294 71.1645 27.8113C71.9869 28.5984 73.2514 28.5497 73.2647 28.5497H78.8093V25.8261C78.3406 25.7951 77.5889 25.7863 76.6029 25.888C75.639 25.9897 75.0731 25.6581 74.7591 25.3618C74.065 24.703 74.1003 23.7303 74.1048 23.6242V12.8976H78.8093V9.91304H74.2993V3.21886L70.7002 3.57701L70.4526 10.0103H66.9021V12.703V12.7074Z" fill="black"/>
</g>
<defs>
<clipPath id="clip0_454_2377">
<rect width="80.1356" height="30" fill="white"/>
</clipPath>
</defs>
</svg>
