<svg width="243" height="31" viewBox="0 0 243 31" fill="none" xmlns="http://www.w3.org/2000/svg">
<path fill-rule="evenodd" clip-rule="evenodd" d="M6.71407 10.6975L16.5759 30L0 10.6975H6.71407Z" fill="#EA6C00"/>
<path fill-rule="evenodd" clip-rule="evenodd" d="M26.4373 10.6975L16.5755 30L33.1514 10.6975H26.4373Z" fill="#EA6C00"/>
<path fill-rule="evenodd" clip-rule="evenodd" d="M6.71387 10.6975H26.4375L16.5757 30L6.71387 10.6975Z" fill="#FDAD00"/>
<path fill-rule="evenodd" clip-rule="evenodd" d="M16.5757 0L7.23289 0.98771L6.71387 10.6975L16.5757 0Z" fill="#FDD231"/>
<path fill-rule="evenodd" clip-rule="evenodd" d="M16.5757 0L25.9185 0.98771L26.4375 10.6975L16.5757 0Z" fill="#FDD231"/>
<path fill-rule="evenodd" clip-rule="evenodd" d="M33.1514 10.6975L25.9182 0.987717L26.4373 10.6975H33.1514Z" fill="#FDAD00"/>
<path fill-rule="evenodd" clip-rule="evenodd" d="M0 10.6975L7.23309 0.987717L6.71407 10.6975H0Z" fill="#FDAD00"/>
<path fill-rule="evenodd" clip-rule="evenodd" d="M16.5757 0L6.71387 10.6975H26.4375L16.5757 0Z" fill="#FEEEB7"/>
<path d="M65.27 24.119C64.4427 24.119 63.6947 23.9773 63.026 23.694C62.3687 23.4107 61.8473 23.0027 61.462 22.47C61.0767 21.9373 60.8783 21.3083 60.867 20.583H63.417C63.451 21.0703 63.621 21.4557 63.927 21.739C64.2443 22.0223 64.675 22.164 65.219 22.164C65.7743 22.164 66.2107 22.0337 66.528 21.773C66.8453 21.501 67.004 21.1497 67.004 20.719C67.004 20.3677 66.8963 20.0787 66.681 19.852C66.4657 19.6253 66.1937 19.4497 65.865 19.325C65.5477 19.189 65.1057 19.0417 64.539 18.883C63.7683 18.6563 63.1393 18.4353 62.652 18.22C62.176 17.9933 61.7623 17.659 61.411 17.217C61.071 16.7637 60.901 16.163 60.901 15.415C60.901 14.7123 61.0767 14.1003 61.428 13.579C61.7793 13.0577 62.2723 12.661 62.907 12.389C63.5417 12.1057 64.267 11.964 65.083 11.964C66.307 11.964 67.2987 12.2643 68.058 12.865C68.8287 13.4543 69.2537 14.2817 69.333 15.347H66.715C66.6923 14.939 66.5167 14.6047 66.188 14.344C65.8707 14.072 65.4457 13.936 64.913 13.936C64.4483 13.936 64.0743 14.055 63.791 14.293C63.519 14.531 63.383 14.8767 63.383 15.33C63.383 15.6473 63.485 15.9137 63.689 16.129C63.9043 16.333 64.165 16.503 64.471 16.639C64.7883 16.7637 65.2303 16.911 65.797 17.081C66.5677 17.3077 67.1967 17.5343 67.684 17.761C68.1713 17.9877 68.5907 18.3277 68.942 18.781C69.2933 19.2343 69.469 19.8293 69.469 20.566C69.469 21.2007 69.3047 21.79 68.976 22.334C68.6473 22.878 68.1657 23.3143 67.531 23.643C66.8963 23.9603 66.1427 24.119 65.27 24.119ZM76.5984 24L73.4024 19.988V24H71.0224V11.42H73.4024V18.577L76.5644 14.582H79.6584L75.5104 19.308L79.6924 24H76.5984ZM89.1951 19.087C89.1951 19.427 89.1724 19.733 89.1271 20.005H82.2421C82.2988 20.685 82.5368 21.2177 82.9561 21.603C83.3754 21.9883 83.8911 22.181 84.5031 22.181C85.3871 22.181 86.0161 21.8013 86.3901 21.042H88.9571C88.6851 21.9487 88.1638 22.6967 87.3931 23.286C86.6224 23.864 85.6761 24.153 84.5541 24.153C83.6474 24.153 82.8314 23.9547 82.1061 23.558C81.3921 23.15 80.8311 22.5777 80.4231 21.841C80.0264 21.1043 79.8281 20.2543 79.8281 19.291C79.8281 18.3163 80.0264 17.4607 80.4231 16.724C80.8198 15.9873 81.3751 15.4207 82.0891 15.024C82.8031 14.6273 83.6248 14.429 84.5541 14.429C85.4494 14.429 86.2484 14.6217 86.9511 15.007C87.6651 15.3923 88.2148 15.942 88.6001 16.656C88.9968 17.3587 89.1951 18.169 89.1951 19.087ZM86.7301 18.407C86.7188 17.795 86.4978 17.3077 86.0671 16.945C85.6364 16.571 85.1094 16.384 84.4861 16.384C83.8968 16.384 83.3981 16.5653 82.9901 16.928C82.5934 17.2793 82.3498 17.7723 82.2591 18.407H86.7301ZM93.1933 16.537V21.093C93.1933 21.4103 93.267 21.6427 93.4143 21.79C93.573 21.926 93.8336 21.994 94.1963 21.994H95.3013V24H93.8053C91.7993 24 90.7963 23.0253 90.7963 21.076V16.537H89.6743V14.582H90.7963V12.253H93.1933V14.582H95.3013V16.537H93.1933ZM95.8911 19.291C95.8911 18.3163 96.0894 17.4663 96.4861 16.741C96.8828 16.0043 97.4324 15.4377 98.1351 15.041C98.8378 14.633 99.6424 14.429 100.549 14.429C101.716 14.429 102.68 14.7237 103.439 15.313C104.21 15.891 104.725 16.707 104.986 17.761H102.419C102.283 17.353 102.051 17.0357 101.722 16.809C101.405 16.571 101.008 16.452 100.532 16.452C99.8521 16.452 99.3138 16.7013 98.9171 17.2C98.5204 17.6873 98.3221 18.3843 98.3221 19.291C98.3221 20.1863 98.5204 20.8833 98.9171 21.382C99.3138 21.8693 99.8521 22.113 100.532 22.113C101.495 22.113 102.124 21.6823 102.419 20.821H104.986C104.725 21.841 104.21 22.6513 103.439 23.252C102.668 23.8527 101.705 24.153 100.549 24.153C99.6424 24.153 98.8378 23.9547 98.1351 23.558C97.4324 23.15 96.8828 22.5833 96.4861 21.858C96.0894 21.1213 95.8911 20.2657 95.8911 19.291ZM111.524 14.446C112.238 14.446 112.872 14.6047 113.428 14.922C113.983 15.228 114.414 15.687 114.72 16.299C115.037 16.8997 115.196 17.625 115.196 18.475V24H112.816V18.798C112.816 18.05 112.629 17.4777 112.255 17.081C111.881 16.673 111.371 16.469 110.725 16.469C110.067 16.469 109.546 16.673 109.161 17.081C108.787 17.4777 108.6 18.05 108.6 18.798V24H106.22V11.42H108.6V15.755C108.906 15.347 109.314 15.0297 109.824 14.803C110.334 14.565 110.9 14.446 111.524 14.446Z" fill="white"/>
</svg>
