<svg width="161" height="30" viewBox="0 0 161 30" fill="none" xmlns="http://www.w3.org/2000/svg">
<path d="M7.02166 9.7616C6.93127 10.2779 6.76953 10.8131 6.60303 11.3909C6.28905 12.4708 5.93226 13.7164 5.93226 14.9763C5.93226 16.2362 6.28905 17.4818 6.60303 18.5617C6.76477 19.1396 6.93127 19.689 7.02166 20.191C7.09778 20.622 6.90273 21.0199 6.5174 21.2141C6.13206 21.4225 5.68488 21.3467 5.3709 21.0341L0.518537 16.203C0.180774 15.8667 0 15.4073 0 14.9479C0 14.4885 0.180774 14.0433 0.518537 13.688L5.3709 8.85696C5.68488 8.54436 6.13206 8.48752 6.5174 8.67697C6.92176 8.94695 7.11205 9.34954 7.02166 9.7616Z" fill="#00AEEF"/>
<path d="M9.83748 23.0092C10.356 23.0992 10.8936 23.2602 11.474 23.426C12.5586 23.7386 13.8098 24.0938 15.0752 24.0938C16.3406 24.0938 17.5917 23.7386 18.6764 23.426C19.2568 23.2649 19.8086 23.0992 20.3129 23.0092C20.7458 22.9334 21.1454 23.1276 21.3404 23.5112C21.5498 23.8949 21.4736 24.3401 21.1597 24.6527L16.3073 29.4837C15.9648 29.8248 15.5033 30 15.0419 30C14.5804 30 14.1332 29.82 13.7765 29.4837L8.97166 24.6385C8.65769 24.3259 8.6006 23.8807 8.79089 23.497C9.00496 23.1276 9.40457 22.9192 9.83748 23.0092Z" fill="#FFBE0D"/>
<path d="M20.3276 6.97663C19.809 6.88664 19.2715 6.72561 18.6911 6.55983C17.6064 6.24724 16.3553 5.89201 15.0899 5.89201C13.8245 5.89201 12.5733 6.24724 11.4887 6.55983C10.9083 6.72087 10.3564 6.88664 9.85218 6.97663C9.41927 7.05241 9.01966 6.85822 8.82462 6.47458C8.6153 6.09094 8.69141 5.64572 9.00539 5.33312L13.8578 0.502052C14.167 0.179981 14.6284 0 15.0756 0C15.5371 0 15.9842 0.179981 16.341 0.516261L21.1934 5.34733C21.5074 5.65993 21.5645 6.10515 21.3742 6.48879C21.1601 6.85822 20.7462 7.05241 20.3276 6.97663Z" fill="#FE4A49"/>
<path d="M23.1247 20.21C23.215 19.6937 23.3768 19.1585 23.5433 18.5807C23.8573 17.5008 24.2141 16.2551 24.2141 14.9953C24.2141 13.7354 23.8573 12.4897 23.5433 11.4098C23.3815 10.832 23.215 10.2826 23.1247 9.78055C23.0485 9.34954 23.2436 8.95169 23.6289 8.75749C24.0143 8.5491 24.4614 8.62488 24.7754 8.93748L29.6278 13.7685C29.9703 14.1096 30.1463 14.569 30.1463 15.0284C30.1463 15.4878 29.9655 15.9331 29.6278 16.2883L24.7754 21.1194C24.4614 21.4319 24.0143 21.4888 23.6289 21.2993C23.2436 21.0388 23.0485 20.6362 23.1247 20.21Z" fill="#3DDC97"/>
<path d="M100.716 9.59111L95.6115 18.4954L95.5973 18.5239V18.5523V23.5917H91.9342V18.5523V18.5239L91.9199 18.4954L86.8154 9.59111H90.6402L93.6753 14.8816L93.7657 15.0426L93.8561 14.8816L96.8912 9.59111H100.716Z" fill="white"/>
<path d="M159.705 9.59111L154.229 15.7673L160.005 23.5917H155.809L151.86 18.3628L150.314 20.0821V23.5775H146.713V9.59111H150.314V15.6678L155.747 9.59111H159.705Z" fill="white"/>
<path d="M138.036 9.59111V12.6603H130.434V15.0474H138.036V18.1165H130.434V20.5036H138.036V23.587H126.8V9.59111H138.036Z" fill="white"/>
<path d="M119.136 9.59111H106.934V12.6603H111.115V23.5775H114.969V12.6555H119.136V9.59111Z" fill="white"/>
<path d="M59.7749 9.59111V12.8781H54.0615C52.0064 12.8781 50.3271 14.5358 50.3271 16.5962C50.3271 18.6423 51.9921 20.3142 54.0615 20.3142H59.7749V23.6012H53.5096C49.6848 23.587 46.5879 20.4894 46.5879 16.6956V16.473C46.5879 12.6792 49.6848 9.58163 53.5096 9.58163H59.7749" fill="white"/>
<path d="M75.8492 9.59111C78.7368 9.59111 81.0869 11.9309 81.0869 14.8058V15.0711C81.0869 16.743 80.2687 18.3297 78.8986 19.3101L78.8558 19.3385V19.4285L81.5769 23.5633H77.7093L75.5685 20.2905H72.3384V23.5633H68.6943V9.5769H75.854M72.3479 17.2498H75.5019C76.6912 17.2498 77.6617 16.2883 77.6617 15.0995V14.8342C77.6617 13.6502 76.696 12.6839 75.5019 12.6839H72.3479V17.2498Z" fill="white"/>
</svg>
