<svg width="243" height="50" viewBox="0 0 243 50" fill="none" xmlns="http://www.w3.org/2000/svg">
<path d="M68.5 22.134V24.055H63.553V27.098H67.344V28.985H63.553V34H61.173V22.134H68.5ZM70.8846 23.46C70.4653 23.46 70.114 23.3297 69.8306 23.069C69.5586 22.797 69.4226 22.4627 69.4226 22.066C69.4226 21.6693 69.5586 21.3407 69.8306 21.08C70.114 20.808 70.4653 20.672 70.8846 20.672C71.304 20.672 71.6496 20.808 71.9216 21.08C72.205 21.3407 72.3466 21.6693 72.3466 22.066C72.3466 22.4627 72.205 22.797 71.9216 23.069C71.6496 23.3297 71.304 23.46 70.8846 23.46ZM72.0576 24.582V34H69.6776V24.582H72.0576ZM77.5881 24.429C78.2908 24.429 78.9084 24.5707 79.4411 24.854C79.9738 25.126 80.3931 25.483 80.6991 25.925V24.582H83.0961V34.068C83.0961 34.9407 82.9204 35.717 82.5691 36.397C82.2178 37.0883 81.6908 37.6323 80.9881 38.029C80.2854 38.437 79.4354 38.641 78.4381 38.641C77.1008 38.641 76.0014 38.3293 75.1401 37.706C74.2901 37.0827 73.8084 36.2327 73.6951 35.156H76.0581C76.1828 35.5867 76.4491 35.9267 76.8571 36.176C77.2764 36.4367 77.7808 36.567 78.3701 36.567C79.0614 36.567 79.6224 36.3573 80.0531 35.938C80.4838 35.53 80.6991 34.9067 80.6991 34.068V32.606C80.3931 33.048 79.9681 33.4163 79.4241 33.711C78.8914 34.0057 78.2794 34.153 77.5881 34.153C76.7948 34.153 76.0694 33.949 75.4121 33.541C74.7548 33.133 74.2334 32.5607 73.8481 31.824C73.4741 31.076 73.2871 30.2203 73.2871 29.257C73.2871 28.305 73.4741 27.4607 73.8481 26.724C74.2334 25.9873 74.7491 25.4207 75.3951 25.024C76.0524 24.6273 76.7834 24.429 77.5881 24.429ZM80.6991 29.291C80.6991 28.713 80.5858 28.22 80.3591 27.812C80.1324 27.3927 79.8264 27.0753 79.4411 26.86C79.0558 26.6333 78.6421 26.52 78.2001 26.52C77.7581 26.52 77.3501 26.6277 76.9761 26.843C76.6021 27.0583 76.2961 27.3757 76.0581 27.795C75.8314 28.203 75.7181 28.6903 75.7181 29.257C75.7181 29.8237 75.8314 30.3223 76.0581 30.753C76.2961 31.1723 76.6021 31.4953 76.9761 31.722C77.3614 31.9487 77.7694 32.062 78.2001 32.062C78.6421 32.062 79.0558 31.9543 79.4411 31.739C79.8264 31.5123 80.1324 31.195 80.3591 30.787C80.5858 30.3677 80.6991 29.869 80.6991 29.291ZM96.6066 24.446C97.7626 24.446 98.6919 24.803 99.3946 25.517C100.109 26.2197 100.466 27.2057 100.466 28.475V34H98.0856V28.798C98.0856 28.0613 97.8986 27.5003 97.5246 27.115C97.1506 26.7183 96.6406 26.52 95.9946 26.52C95.3486 26.52 94.8329 26.7183 94.4476 27.115C94.0736 27.5003 93.8866 28.0613 93.8866 28.798V34H91.5066V28.798C91.5066 28.0613 91.3196 27.5003 90.9456 27.115C90.5716 26.7183 90.0616 26.52 89.4156 26.52C88.7582 26.52 88.2369 26.7183 87.8516 27.115C87.4776 27.5003 87.2906 28.0613 87.2906 28.798V34H84.9106V24.582H87.2906V25.721C87.5966 25.3243 87.9876 25.0127 88.4636 24.786C88.9509 24.5593 89.4836 24.446 90.0616 24.446C90.7982 24.446 91.4556 24.6047 92.0336 24.922C92.6116 25.228 93.0592 25.67 93.3766 26.248C93.6826 25.704 94.1246 25.2677 94.7026 24.939C95.2919 24.6103 95.9266 24.446 96.6066 24.446ZM101.602 29.257C101.602 28.305 101.789 27.4607 102.163 26.724C102.548 25.9873 103.064 25.4207 103.71 25.024C104.367 24.6273 105.098 24.429 105.903 24.429C106.606 24.429 107.218 24.5707 107.739 24.854C108.272 25.1373 108.697 25.4943 109.014 25.925V24.582H111.411V34H109.014V32.623C108.708 33.065 108.283 33.4333 107.739 33.728C107.206 34.0113 106.589 34.153 105.886 34.153C105.093 34.153 104.367 33.949 103.71 33.541C103.064 33.133 102.548 32.5607 102.163 31.824C101.789 31.076 101.602 30.2203 101.602 29.257ZM109.014 29.291C109.014 28.713 108.901 28.22 108.674 27.812C108.447 27.3927 108.141 27.0753 107.756 26.86C107.371 26.6333 106.957 26.52 106.515 26.52C106.073 26.52 105.665 26.6277 105.291 26.843C104.917 27.0583 104.611 27.3757 104.373 27.795C104.146 28.203 104.033 28.6903 104.033 29.257C104.033 29.8237 104.146 30.3223 104.373 30.753C104.611 31.1723 104.917 31.4953 105.291 31.722C105.676 31.9487 106.084 32.062 106.515 32.062C106.957 32.062 107.371 31.9543 107.756 31.739C108.141 31.5123 108.447 31.195 108.674 30.787C108.901 30.3677 109.014 29.869 109.014 29.291Z" fill="white"/>
<g clip-path="url(#clip0_745_901)">
<path d="M16.667 25C16.667 22.7899 17.545 20.6702 19.1078 19.1074C20.6706 17.5446 22.7902 16.6667 25.0003 16.6667C27.2105 16.6667 29.3301 17.5446 30.8929 19.1074C32.4557 20.6702 33.3337 22.7899 33.3337 25C33.3337 27.2101 32.4557 29.3297 30.8929 30.8925C29.3301 32.4553 27.2105 33.3333 25.0003 33.3333C22.7902 33.3333 20.6706 32.4553 19.1078 30.8925C17.545 29.3297 16.667 27.2101 16.667 25Z" fill="#1ABCFE"/>
<path d="M0 41.6667C0 39.4565 0.877974 37.3369 2.44078 35.7741C4.00358 34.2113 6.1232 33.3333 8.33333 33.3333H16.6667V41.6667C16.6667 43.8768 15.7887 45.9964 14.2259 47.5592C12.6631 49.122 10.5435 50 8.33333 50C6.1232 50 4.00358 49.122 2.44078 47.5592C0.877974 45.9964 0 43.8768 0 41.6667H0Z" fill="#0ACF83"/>
<path d="M16.667 0V16.6667H25.0003C27.2105 16.6667 29.3301 15.7887 30.8929 14.2259C32.4557 12.6631 33.3337 10.5435 33.3337 8.33333C33.3337 6.1232 32.4557 4.00358 30.8929 2.44078C29.3301 0.877974 27.2105 0 25.0003 0L16.667 0Z" fill="#FF7262"/>
<path d="M0 8.33333C0 10.5435 0.877974 12.6631 2.44078 14.2259C4.00358 15.7887 6.1232 16.6667 8.33333 16.6667H16.6667V0H8.33333C6.1232 0 4.00358 0.877974 2.44078 2.44078C0.877974 4.00358 0 6.1232 0 8.33333H0Z" fill="#F24E1E"/>
<path d="M0 25C0 27.2101 0.877974 29.3297 2.44078 30.8925C4.00358 32.4553 6.1232 33.3333 8.33333 33.3333H16.6667V16.6667H8.33333C6.1232 16.6667 4.00358 17.5446 2.44078 19.1074C0.877974 20.6702 0 22.7899 0 25H0Z" fill="#A259FF"/>
</g>
<defs>
<clipPath id="clip0_745_901">
<rect width="33.3333" height="50" fill="white"/>
</clipPath>
</defs>
</svg>
