<svg width="243" height="33" viewBox="0 0 243 33" fill="none" xmlns="http://www.w3.org/2000/svg">
<path d="M19.6359 23.3398H8.68611L6.44906 29.6225C6.42406 29.737 6.35283 29.8389 6.24935 29.9082C6.14587 29.9774 6.01762 30.009 5.88979 29.9968H0.356031C0.0322472 29.9968 -0.0560571 29.8364 0.0322476 29.5156L9.51029 4.73223C9.59859 4.46488 9.6869 4.17079 9.80464 3.84997C9.9231 3.27699 9.98223 2.6952 9.98125 2.1122C9.97243 2.04524 9.99179 1.97773 10.0355 1.92319C10.0791 1.86866 10.1439 1.83112 10.2167 1.81812H17.8404C18.0758 1.81812 18.1936 1.89832 18.223 2.03199L28.9668 29.569C29.0551 29.8631 28.9668 29.9968 28.6724 29.9968H22.5205C22.4165 30.0059 22.3122 29.9814 22.2261 29.9276C22.14 29.8738 22.0775 29.7942 22.0496 29.7027L19.6359 23.3398ZM10.3933 17.9126H17.8698C17.6932 17.3511 17.4577 16.6828 17.1928 15.9877C16.9279 15.2926 16.663 14.4905 16.3981 13.6885C16.1331 12.8864 15.8388 12.0576 15.5444 11.2288C15.2501 10.4 14.9852 9.62473 14.7497 8.84942C14.5142 8.0741 14.3082 7.40573 14.1021 6.76409H14.0433C13.7787 7.92932 13.4446 9.08062 13.0425 10.2129C12.601 11.4962 12.1594 12.8329 11.6885 14.1697C11.2764 15.5332 10.8349 16.7897 10.3933 17.9126Z" fill="#FF9A00"/>
<path d="M35.4577 6.63404C34.9965 6.64353 34.538 6.56663 34.1087 6.40782C33.6795 6.24901 33.2881 6.01145 32.9573 5.70899C32.3136 5.04689 31.9708 4.17419 32.0021 3.27743C31.9855 2.84049 32.067 2.40518 32.2413 1.99987C32.4155 1.59456 32.6787 1.22836 33.0135 0.925155C33.6888 0.324706 34.5847 -0.00676802 35.5139 0.000104778C36.6095 0.000104778 37.4524 0.317265 38.0704 0.925155C38.6928 1.56601 39.0254 2.40976 38.9975 3.27743C39.0147 3.72398 38.9365 4.16923 38.7676 4.58687C38.5987 5.00451 38.3426 5.38607 38.0143 5.70899C37.6832 6.0262 37.2837 6.27292 36.8427 6.4325C36.4016 6.59208 35.9294 6.66081 35.4577 6.63404ZM32.3111 29.5753V9.22418C32.3111 8.95988 32.4235 8.85416 32.6764 8.85416H38.239C38.4919 8.85416 38.6042 8.98631 38.6042 9.22418V29.5753C38.6042 29.866 38.4919 29.9982 38.239 29.9982H32.7326C32.6735 30.0027 32.6141 29.9947 32.5589 29.9747C32.5036 29.9546 32.4538 29.9231 32.4133 29.8825C32.3728 29.8418 32.3425 29.7931 32.3249 29.7399C32.3072 29.6867 32.3025 29.6304 32.3111 29.5753Z" fill="#FF9A00"/>
<path d="M68.449 23.739H63.723L62.941 26H60.442L64.709 14.117H67.48L71.747 26H69.231L68.449 23.739ZM67.803 21.835L66.086 16.871L64.369 21.835H67.803ZM72.2199 21.257C72.2199 20.305 72.4069 19.4607 72.7809 18.724C73.1663 17.9873 73.6876 17.4207 74.3449 17.024C75.0023 16.6273 75.7333 16.429 76.5379 16.429C77.1499 16.429 77.7336 16.565 78.2889 16.837C78.8443 17.0977 79.2863 17.449 79.6149 17.891V13.42H82.0289V26H79.6149V24.606C79.3203 25.0707 78.9066 25.4447 78.3739 25.728C77.8413 26.0113 77.2236 26.153 76.5209 26.153C75.7276 26.153 75.0023 25.949 74.3449 25.541C73.6876 25.133 73.1663 24.5607 72.7809 23.824C72.4069 23.076 72.2199 22.2203 72.2199 21.257ZM79.6319 21.291C79.6319 20.713 79.5186 20.22 79.2919 19.812C79.0653 19.3927 78.7593 19.0753 78.3739 18.86C77.9886 18.6333 77.5749 18.52 77.1329 18.52C76.6909 18.52 76.2829 18.6277 75.9089 18.843C75.5349 19.0583 75.2289 19.3757 74.9909 19.795C74.7643 20.203 74.6509 20.6903 74.6509 21.257C74.6509 21.8237 74.7643 22.3223 74.9909 22.753C75.2289 23.1723 75.5349 23.4953 75.9089 23.722C76.2943 23.9487 76.7023 24.062 77.1329 24.062C77.5749 24.062 77.9886 23.9543 78.3739 23.739C78.7593 23.5123 79.0653 23.195 79.2919 22.787C79.5186 22.3677 79.6319 21.869 79.6319 21.291ZM88.0254 26.153C87.1188 26.153 86.3028 25.9547 85.5774 25.558C84.8521 25.15 84.2798 24.5777 83.8604 23.841C83.4524 23.1043 83.2484 22.2543 83.2484 21.291C83.2484 20.3277 83.4581 19.4777 83.8774 18.741C84.3081 18.0043 84.8918 17.4377 85.6284 17.041C86.3651 16.633 87.1868 16.429 88.0934 16.429C89.0001 16.429 89.8218 16.633 90.5584 17.041C91.2951 17.4377 91.8731 18.0043 92.2924 18.741C92.7231 19.4777 92.9384 20.3277 92.9384 21.291C92.9384 22.2543 92.7174 23.1043 92.2754 23.841C91.8448 24.5777 91.2554 25.15 90.5074 25.558C89.7708 25.9547 88.9434 26.153 88.0254 26.153ZM88.0254 24.079C88.4561 24.079 88.8584 23.977 89.2324 23.773C89.6178 23.5577 89.9238 23.2403 90.1504 22.821C90.3771 22.4017 90.4904 21.8917 90.4904 21.291C90.4904 20.3957 90.2524 19.71 89.7764 19.234C89.3118 18.7467 88.7394 18.503 88.0594 18.503C87.3794 18.503 86.8071 18.7467 86.3424 19.234C85.8891 19.71 85.6624 20.3957 85.6624 21.291C85.6624 22.1863 85.8834 22.8777 86.3254 23.365C86.7788 23.841 87.3454 24.079 88.0254 24.079ZM96.5543 17.959C96.8603 17.5057 97.2796 17.1373 97.8123 16.854C98.3563 16.5707 98.9739 16.429 99.6653 16.429C100.47 16.429 101.195 16.6273 101.841 17.024C102.499 17.4207 103.014 17.9873 103.388 18.724C103.774 19.4493 103.966 20.2937 103.966 21.257C103.966 22.2203 103.774 23.076 103.388 23.824C103.014 24.5607 102.499 25.133 101.841 25.541C101.195 25.949 100.47 26.153 99.6653 26.153C98.9626 26.153 98.3449 26.017 97.8123 25.745C97.2909 25.4617 96.8716 25.099 96.5543 24.657V26H94.1743V13.42H96.5543V17.959ZM101.535 21.257C101.535 20.6903 101.416 20.203 101.178 19.795C100.952 19.3757 100.646 19.0583 100.26 18.843C99.8863 18.6277 99.4783 18.52 99.0363 18.52C98.6056 18.52 98.1976 18.6333 97.8123 18.86C97.4383 19.0753 97.1323 19.3927 96.8943 19.812C96.6676 20.2313 96.5543 20.7243 96.5543 21.291C96.5543 21.8577 96.6676 22.3507 96.8943 22.77C97.1323 23.1893 97.4383 23.5123 97.8123 23.739C98.1976 23.9543 98.6056 24.062 99.0363 24.062C99.4783 24.062 99.8863 23.9487 100.26 23.722C100.646 23.4953 100.952 23.1723 101.178 22.753C101.416 22.3337 101.535 21.835 101.535 21.257ZM113.941 21.087C113.941 21.427 113.918 21.733 113.873 22.005H106.988C107.044 22.685 107.282 23.2177 107.702 23.603C108.121 23.9883 108.637 24.181 109.249 24.181C110.133 24.181 110.762 23.8013 111.136 23.042H113.703C113.431 23.9487 112.909 24.6967 112.139 25.286C111.368 25.864 110.422 26.153 109.3 26.153C108.393 26.153 107.577 25.9547 106.852 25.558C106.138 25.15 105.577 24.5777 105.169 23.841C104.772 23.1043 104.574 22.2543 104.574 21.291C104.574 20.3163 104.772 19.4607 105.169 18.724C105.565 17.9873 106.121 17.4207 106.835 17.024C107.549 16.6273 108.37 16.429 109.3 16.429C110.195 16.429 110.994 16.6217 111.697 17.007C112.411 17.3923 112.96 17.942 113.346 18.656C113.742 19.3587 113.941 20.169 113.941 21.087ZM111.476 20.407C111.464 19.795 111.243 19.3077 110.813 18.945C110.382 18.571 109.855 18.384 109.232 18.384C108.642 18.384 108.144 18.5653 107.736 18.928C107.339 19.2793 107.095 19.7723 107.005 20.407H111.476ZM121.089 14.134V26H118.709V14.134H121.089ZM125.31 13.42V26H122.93V13.42H125.31ZM136.043 16.582V26H133.646V24.81C133.34 25.218 132.937 25.541 132.439 25.779C131.951 26.0057 131.419 26.119 130.841 26.119C130.104 26.119 129.452 25.966 128.886 25.66C128.319 25.3427 127.871 24.8837 127.543 24.283C127.225 23.671 127.067 22.9457 127.067 22.107V16.582H129.447V21.767C129.447 22.515 129.634 23.093 130.008 23.501C130.382 23.8977 130.892 24.096 131.538 24.096C132.195 24.096 132.711 23.8977 133.085 23.501C133.459 23.093 133.646 22.515 133.646 21.767V16.582H136.043ZM141.485 26.153C140.714 26.153 140.023 26.017 139.411 25.745C138.799 25.4617 138.312 25.082 137.949 24.606C137.598 24.13 137.405 23.603 137.371 23.025H139.768C139.813 23.3877 139.989 23.688 140.295 23.926C140.612 24.164 141.003 24.283 141.468 24.283C141.921 24.283 142.273 24.1923 142.522 24.011C142.783 23.8297 142.913 23.5973 142.913 23.314C142.913 23.008 142.754 22.7813 142.437 22.634C142.131 22.4753 141.638 22.3053 140.958 22.124C140.255 21.954 139.677 21.7783 139.224 21.597C138.782 21.4157 138.397 21.138 138.068 20.764C137.751 20.39 137.592 19.8857 137.592 19.251C137.592 18.7297 137.739 18.2537 138.034 17.823C138.34 17.3923 138.771 17.0523 139.326 16.803C139.893 16.5537 140.556 16.429 141.315 16.429C142.437 16.429 143.332 16.7123 144.001 17.279C144.67 17.8343 145.038 18.588 145.106 19.54H142.828C142.794 19.166 142.635 18.8713 142.352 18.656C142.08 18.4293 141.712 18.316 141.247 18.316C140.816 18.316 140.482 18.3953 140.244 18.554C140.017 18.7127 139.904 18.9337 139.904 19.217C139.904 19.5343 140.063 19.778 140.38 19.948C140.697 20.1067 141.19 20.271 141.859 20.441C142.539 20.611 143.1 20.7867 143.542 20.968C143.984 21.1493 144.364 21.4327 144.681 21.818C145.01 22.192 145.18 22.6907 145.191 23.314C145.191 23.858 145.038 24.3453 144.732 24.776C144.437 25.2067 144.007 25.5467 143.44 25.796C142.885 26.034 142.233 26.153 141.485 26.153ZM149.406 18.537V23.093C149.406 23.4103 149.479 23.6427 149.627 23.79C149.785 23.926 150.046 23.994 150.409 23.994H151.514V26H150.018C148.012 26 147.009 25.0253 147.009 23.076V18.537H145.887V16.582H147.009V14.253H149.406V16.582H151.514V18.537H149.406ZM155.095 18.044C155.401 17.5453 155.798 17.1543 156.285 16.871C156.784 16.5877 157.351 16.446 157.985 16.446V18.945H157.356C156.608 18.945 156.042 19.1207 155.656 19.472C155.282 19.8233 155.095 20.4353 155.095 21.308V26H152.715V16.582H155.095V18.044ZM158.466 21.257C158.466 20.305 158.653 19.4607 159.027 18.724C159.413 17.9873 159.928 17.4207 160.574 17.024C161.232 16.6273 161.963 16.429 162.767 16.429C163.47 16.429 164.082 16.5707 164.603 16.854C165.136 17.1373 165.561 17.4943 165.878 17.925V16.582H168.275V26H165.878V24.623C165.572 25.065 165.147 25.4333 164.603 25.728C164.071 26.0113 163.453 26.153 162.75 26.153C161.957 26.153 161.232 25.949 160.574 25.541C159.928 25.133 159.413 24.5607 159.027 23.824C158.653 23.076 158.466 22.2203 158.466 21.257ZM165.878 21.291C165.878 20.713 165.765 20.22 165.538 19.812C165.312 19.3927 165.006 19.0753 164.62 18.86C164.235 18.6333 163.821 18.52 163.379 18.52C162.937 18.52 162.529 18.6277 162.155 18.843C161.781 19.0583 161.475 19.3757 161.237 19.795C161.011 20.203 160.897 20.6903 160.897 21.257C160.897 21.8237 161.011 22.3223 161.237 22.753C161.475 23.1723 161.781 23.4953 162.155 23.722C162.541 23.9487 162.949 24.062 163.379 24.062C163.821 24.062 164.235 23.9543 164.62 23.739C165.006 23.5123 165.312 23.195 165.538 22.787C165.765 22.3677 165.878 21.869 165.878 21.291ZM172.861 18.537V23.093C172.861 23.4103 172.935 23.6427 173.082 23.79C173.241 23.926 173.501 23.994 173.864 23.994H174.969V26H173.473C171.467 26 170.464 25.0253 170.464 23.076V18.537H169.342V16.582H170.464V14.253H172.861V16.582H174.969V18.537H172.861ZM180.353 26.153C179.446 26.153 178.63 25.9547 177.905 25.558C177.179 25.15 176.607 24.5777 176.188 23.841C175.78 23.1043 175.576 22.2543 175.576 21.291C175.576 20.3277 175.785 19.4777 176.205 18.741C176.635 18.0043 177.219 17.4377 177.956 17.041C178.692 16.633 179.514 16.429 180.421 16.429C181.327 16.429 182.149 16.633 182.886 17.041C183.622 17.4377 184.2 18.0043 184.62 18.741C185.05 19.4777 185.266 20.3277 185.266 21.291C185.266 22.2543 185.045 23.1043 184.603 23.841C184.172 24.5777 183.583 25.15 182.835 25.558C182.098 25.9547 181.271 26.153 180.353 26.153ZM180.353 24.079C180.783 24.079 181.186 23.977 181.56 23.773C181.945 23.5577 182.251 23.2403 182.478 22.821C182.704 22.4017 182.818 21.8917 182.818 21.291C182.818 20.3957 182.58 19.71 182.104 19.234C181.639 18.7467 181.067 18.503 180.387 18.503C179.707 18.503 179.134 18.7467 178.67 19.234C178.216 19.71 177.99 20.3957 177.99 21.291C177.99 22.1863 178.211 22.8777 178.653 23.365C179.106 23.841 179.673 24.079 180.353 24.079ZM188.882 18.044C189.188 17.5453 189.584 17.1543 190.072 16.871C190.57 16.5877 191.137 16.446 191.772 16.446V18.945H191.143C190.395 18.945 189.828 19.1207 189.443 19.472C189.069 19.8233 188.882 20.4353 188.882 21.308V26H186.502V16.582H188.882V18.044Z" fill="white"/>
</svg>
