<svg width="94" height="32" viewBox="0 0 94 32" fill="none" xmlns="http://www.w3.org/2000/svg">
<path d="M17.9541 19.1334C19.701 19.1334 21.1172 17.7172 21.1172 15.9703C21.1172 14.2233 19.701 12.8072 17.9541 12.8072C16.2072 12.8072 14.791 14.2233 14.791 15.9703C14.791 17.7172 16.2072 19.1334 17.9541 19.1334Z" fill="#00D8FF"/>
<path fill-rule="evenodd" clip-rule="evenodd" d="M17.9551 9.53904C22.202 9.53904 26.1473 10.1484 29.122 11.1725C32.706 12.4064 34.9097 14.2767 34.9097 15.9703C34.9097 17.7351 32.5743 19.722 28.7254 20.9972C25.8156 21.9613 21.9865 22.4646 17.9551 22.4646C13.8219 22.4646 9.90789 21.9922 6.96528 20.9866C3.24236 19.7141 1 17.7015 1 15.9703C1 14.2905 3.10402 12.4346 6.63773 11.2026C9.62353 10.1616 13.6662 9.53904 17.9546 9.53904H17.9551Z" stroke="#00D8FF" stroke-width="1.66272"/>
<path fill-rule="evenodd" clip-rule="evenodd" d="M12.3567 12.7732C14.4784 9.09427 16.9771 5.98105 19.3504 3.91574C22.2098 1.42736 24.9309 0.452836 26.3979 1.2988C27.9268 2.18044 28.4812 5.19625 27.6631 9.16735C27.0452 12.1697 25.5677 15.738 23.5537 19.2303C21.4888 22.8109 19.1244 25.9655 16.7834 28.0116C13.8213 30.601 10.9575 31.5381 9.45783 30.6732C8.00261 29.8346 7.44612 27.0843 8.14422 23.4076C8.73407 20.3011 10.2143 16.488 12.356 12.7731L12.3567 12.7732Z" stroke="#00D8FF" stroke-width="1.66272"/>
<path fill-rule="evenodd" clip-rule="evenodd" d="M12.362 19.2397C10.2343 15.565 8.7857 11.8446 8.18104 8.75713C7.45317 5.0371 7.9678 2.19286 9.43349 1.34444C10.9608 0.460207 13.8505 1.48593 16.8824 4.17796C19.1747 6.21326 21.5285 9.27484 23.5483 12.7639C25.6192 16.3409 27.1713 19.9649 27.7751 23.0149C28.539 26.8744 27.9207 29.8234 26.4224 30.6907C24.9686 31.5323 22.3083 30.6413 19.4716 28.2002C17.0749 26.1378 14.5106 22.951 12.362 19.2397V19.2397Z" stroke="#00D8FF" stroke-width="1.66272"/>
<path fill-rule="evenodd" clip-rule="evenodd" d="M53.066 24.0517L49.189 18.1944C51.1484 18.0214 52.914 16.6017 52.914 14.0079C52.914 11.3687 51.041 9.67953 48.4136 9.67953H42.6436V24.0408H44.431V18.3345H47.295L50.9554 24.0408L53.066 24.0517ZM48.1997 16.7737H44.4319V11.2831H48.1997C49.9016 11.2831 51.0637 12.4025 51.0637 14.0179C51.0637 15.6334 49.9006 16.7755 48.1997 16.7755V16.7737ZM59.7196 24.3093C61.4215 24.3093 62.8203 23.7496 63.8542 22.7166L63.0788 21.6609C62.2597 22.5009 61.0548 22.9742 59.8707 22.9742C57.6319 22.9742 56.2531 21.3378 56.1239 19.3793H64.5422V18.9698C64.5422 15.8481 62.6902 13.3927 59.5458 13.3927C56.5744 13.3927 54.422 15.8263 54.422 18.8405C54.422 22.0923 56.6399 24.3011 59.7187 24.3011L59.7196 24.3093ZM62.9505 18.1935H56.1248C56.2112 16.6008 57.3079 14.726 59.5267 14.726C61.8957 14.726 62.9286 16.6427 62.9505 18.1935ZM75.2677 24.0508V16.902C75.2677 14.3829 73.4384 13.3918 71.2414 13.3918C69.5396 13.3918 68.2054 13.9515 67.0859 15.1146L67.8395 16.234C68.7651 15.2438 69.778 14.7915 71.0267 14.7915C72.5338 14.7915 73.6541 15.5879 73.6541 16.9876V18.8606C72.8141 17.8913 71.63 17.439 70.2085 17.439C68.4429 17.439 66.5681 18.5375 66.5681 20.8628C66.5681 23.1234 68.4411 24.3084 70.2085 24.3084C71.6082 24.3084 72.7931 23.8133 73.6541 22.8659V24.049L75.2677 24.0508ZM70.79 23.1462C69.2829 23.1462 68.2272 22.1997 68.2272 20.8855C68.2272 19.5504 69.2829 18.603 70.79 18.603C71.9313 18.603 73.0289 19.0335 73.6541 19.8953V21.8548C73.0298 22.7157 71.9313 23.1471 70.79 23.1471V23.1462ZM83.0763 24.3093C84.9711 24.3093 86.0905 23.5339 86.8878 22.5009L85.8111 21.5107C85.1222 22.4363 84.2394 22.8668 83.1719 22.8668C80.954 22.8668 79.577 21.144 79.577 18.8405C79.577 16.5371 80.9549 14.8361 83.1719 14.8361C84.2485 14.8361 85.1313 15.2457 85.8111 16.1922L86.8878 15.202C86.0914 14.1681 84.9711 13.3936 83.0763 13.3936C79.9756 13.3936 77.8869 15.7626 77.8869 18.8414C77.8869 21.9421 79.9756 24.302 83.0763 24.302V24.3093ZM91.7768 24.3093C92.7233 24.3093 93.3058 24.029 93.7153 23.6422L93.242 22.4363C93.0264 22.6729 92.605 22.8668 92.1436 22.8668C91.4337 22.8668 91.0879 22.3071 91.0879 21.5317V15.0718H93.1993V13.6512H91.0879V10.809H89.4724V13.6512H87.7496V15.0727H89.4724V21.8775C89.4724 23.4283 90.2478 24.3111 91.7768 24.3111V24.3093Z" fill="#00D8FF"/>
</svg>
