<svg width="103" height="40" viewBox="0 0 103 40" fill="none" xmlns="http://www.w3.org/2000/svg">
<path d="M15.3612 34.9597C13.743 33.6869 12.0167 32.4666 10.8371 30.7481C8.355 27.7178 6.4439 24.2093 5.13739 20.5223C4.34769 18.1248 4.07724 15.5544 3.05921 13.2496C1.99426 11.5756 3.24171 9.7456 5.07537 9.21348C5.89176 9.05679 7.32722 8.28676 5.59447 8.83714C4.04101 9.97689 3.89067 7.80256 5.48362 7.66488C6.57074 7.52038 6.97093 6.63043 6.59917 5.82927C5.43221 5.06828 9.42889 4.23194 7.41792 3.09643C5.32304 0.83628 10.3482 0.401196 9.10843 2.96803C8.81166 4.94182 12.6198 2.60627 11.7362 4.88557C12.6343 5.98017 15.0992 5.13471 15.0381 6.67033C16.3463 6.76026 16.7953 7.86101 18.0234 7.94552C19.2962 8.52031 21.6036 8.97325 22.0367 10.4075C20.774 11.4073 17.8499 8.34251 17.7094 11.1099C18.0908 15.1979 17.9937 19.4091 19.4893 23.3021C20.1968 25.6593 21.9118 27.5149 23.4607 29.3508C24.9426 31.1489 26.95 32.4147 28.996 33.4805C30.7908 34.3269 32.7257 34.8883 34.6817 35.2406C35.4751 34.6338 36.8757 32.3777 38.1134 33.3291C38.1721 34.398 35.6569 35.5635 37.995 35.4454C39.368 35.0312 40.3202 36.5072 41.4508 35.1759C42.4924 36.4096 45.7801 34.3876 45.039 36.9094C44.0369 37.556 42.5753 37.1653 41.5715 38.0548C39.9164 37.2282 38.5988 38.7944 36.7666 38.5963C34.7318 38.9608 32.6618 39.1079 30.5989 39.1111C27.2145 38.8437 23.7585 38.731 20.5389 37.5527C18.7252 37.0257 16.9553 35.9929 15.3612 34.9597ZM18.2195 36.1981C19.9905 36.964 21.7222 37.7712 23.6631 38.0147C26.7424 38.443 29.9224 39.1017 33.0127 38.5008C31.6141 37.8693 30.1681 38.7469 28.7747 38.0492C27.1035 38.4088 25.3102 37.9576 23.6112 37.7355C21.6792 36.8749 19.5943 36.2832 17.7851 35.1661C15.5244 34.3404 18.9543 36.2251 19.5648 36.3777C20.978 37.1799 18.0107 35.9665 17.5924 35.633C16.4087 34.9691 16.2578 35.1078 17.4751 35.7821C17.7203 35.9256 17.9626 36.0759 18.2195 36.1981ZM14.8495 33.8166C16.5657 34.4523 14.842 32.6098 14.0556 32.7168C13.7071 32.1123 12.7244 31.7305 13.4176 31.4058C12.1706 31.8387 12.1113 29.7595 11.5252 30.0566C10.2059 29.64 11.0117 28.1644 9.44029 27.2582C9.29685 26.3033 7.87901 25.4751 7.42678 24.0348C7.22705 23.2973 5.82493 21.1797 6.68626 23.1505C7.41963 25.0477 8.70995 26.6724 9.78374 28.2953C10.6175 29.8405 11.6021 31.4554 13.1206 32.4193C13.6325 32.9103 14.1267 33.6627 14.8495 33.8166ZM9.90561 28.3886C10.2195 28.9495 9.96551 28.1294 9.90561 28.3886V28.3886ZM16.9048 34.5786C16.3583 34.3642 17.2848 34.4085 16.9048 34.5786V34.5786ZM17.8364 34.9185C17.4111 35.1808 17.7399 34.4492 17.8364 34.9185V34.9185ZM19.0025 35.4049C18.147 35.0716 19.5577 34.8763 19.0025 35.4049V35.4049ZM21.0012 36.5188C19.9215 36.3306 21.3385 36.0202 21.0012 36.5188V36.5188ZM17.1632 33.8434C16.0495 33.8357 18.0255 33.2856 17.1632 33.8434V33.8434ZM18.038 34.2796C17.7263 34.4117 18.0136 33.9847 18.038 34.2796V34.2796ZM22.4102 37.0085C23.113 37.4521 26.5146 37.9807 24.3846 37.1904C24.0282 37.2655 20.4351 36.1741 22.4102 37.0085ZM15.4692 31.6027C14.3783 31.2762 15.4009 31.3069 15.4692 31.6027V31.6027ZM17.5047 32.789C16.4052 32.504 18.0344 32.4195 17.5047 32.789V32.789ZM19.2167 33.8387C17.9836 33.5508 19.9769 33.5521 19.2167 33.8387V33.8387ZM14.641 30.7007C15.4658 31.3332 17.9672 30.7817 15.9041 30.3231C14.9651 29.8226 12.8488 29.48 14.2913 30.6249L14.641 30.7007ZM20.3763 34.2012C18.9356 33.8669 20.7198 33.6158 20.3763 34.2012V34.2012ZM18.6335 32.8161C20.6502 33.3866 16.9376 31.5407 18.1359 32.6062L18.4015 32.7263L18.6335 32.8161ZM22.1276 34.8356C20.4025 34.5723 24.0376 34.8538 22.1276 34.8356V34.8356ZM13.9061 29.5957C13.4348 29.6255 13.8315 29.2399 13.9061 29.5957V29.5957ZM25.3585 36.6479C24.7351 37.126 25.4094 36.0053 25.3585 36.6479V36.6479ZM17.1655 31.5917C16.5688 31.5778 17.05 31.2533 17.1655 31.5917V31.5917ZM14.0873 29.3724C12.5861 28.8893 15.1838 29.3066 14.0873 29.3724V29.3724ZM10.4407 27.0153C9.24752 26.0705 10.3042 26.4897 10.4407 27.0153V27.0153ZM20.0139 33.0907C19.9194 33.1408 19.813 32.8617 20.0139 33.0907V33.0907ZM25.9725 36.7474C25.648 36.8798 25.9534 36.3973 25.9725 36.7474V36.7474ZM19.4865 32.5462C18.5515 32.4096 19.5938 32.0952 19.4865 32.5462V32.5462ZM15.0474 29.7329C13.7406 29.1814 15.8631 29.6455 15.0474 29.7329V29.7329ZM22.5566 34.3989C21.3176 34.153 23.8278 33.8953 22.5566 34.3989V34.3989ZM18.6506 31.7475C20.1157 31.9363 16.9074 30.751 18.3292 31.6414L18.6506 31.7475ZM23.7424 34.8783C25.1102 34.0605 24.6593 36.7931 26.063 35.1091C27.4476 34.0981 24.8672 36.359 26.5737 35.2894C27.8078 34.4639 29.6307 35.6806 30.7823 36.0776C31.6104 36.0369 32.4155 36.7937 33.2644 36.3333C34.8987 35.8931 30.0686 35.6804 31.3348 34.8995C29.8394 35.3347 28.7346 34.3806 27.9987 33.4228C26.3214 33.0355 24.382 32.1779 23.5448 30.6935C23.2035 30.1361 24.0379 30.772 23.2502 29.861C22.2395 28.962 21.7348 27.9415 21.0562 26.8487C20.2457 26.4163 20.1512 25.1435 20.0693 26.806C20.0757 25.7568 19.0907 25.0505 18.8502 25.3441C18.8459 24.3336 19.9044 24.8401 19.1634 24.0925C19.0039 23.0452 18.4788 21.9538 18.321 20.7713C18.0757 20.2013 18.2864 18.9805 17.4839 20.2709C17.1916 21.6346 17.3869 18.595 17.8415 19.5973C18.4383 18.5746 17.6273 18.6949 17.5941 18.8369C17.9828 17.9739 17.8401 16.7499 17.4926 17.2168C17.6998 16.3022 17.8199 13.8507 17.1826 14.2851C17.5689 13.3287 17.9152 9.90868 16.2383 11.2126C15.5586 11.2222 14.3817 11.4593 13.8254 11.736C15.5697 12.6975 13.6499 12.0833 12.9399 11.9304C12.8473 12.8201 12.144 12.4353 11.2654 12.4441C12.6688 12.6177 10.582 13.8794 9.77691 13.3893C8.73134 13.889 10.6793 15.1364 9.79789 15.5221C9.90621 16.1035 8.19606 15.3121 8.33037 16.6549C7.31532 16.2279 8.19061 18.2478 8.69843 17.5646C10.4249 18.0319 9.91379 19.0972 9.95776 20.1091C9.67646 20.6987 8.56898 18.7231 9.7111 18.8146C8.81006 17.3509 8.71439 18.2855 7.96564 18.9655C7.79145 19.0149 9.87551 19.933 8.56766 20.387C9.7183 20.5645 9.75104 21.5715 9.98528 22.2086C10.6769 22.929 10.5353 21.4132 11.3628 22.2789C10.8392 21.5077 8.58911 20.1059 10.4007 20.5555C10.391 19.7793 10.0731 19.1534 10.6281 19.1686C11.1777 18.1732 10.0525 21.6228 11.2914 20.3577C11.6343 20.208 11.7193 19.3611 12.3357 20.4377C13.2311 21.3185 12.6591 21.9568 11.3961 21.1503C11.6221 21.9168 13.0857 22.1907 12.8106 23.3895C13.1022 24.4438 13.5102 24.0555 13.8658 23.9945C14.1447 25.0189 14.3031 24.2656 14.3163 23.7782C15.5935 24.0516 15.2944 24.8065 15.694 25.334C16.5741 25.7313 14.4343 22.6413 15.9452 24.4049C17.5349 25.8401 16.5414 26.4393 15.1148 26.2093C16.0177 26.1364 16.3089 27.43 17.4383 27.3846C18.4682 27.8745 19.1655 29.7563 17.3903 28.973C16.7746 28.4178 14.5957 27.7329 16.3753 28.7889C18.019 29.5501 19.3245 30.0054 20.9097 30.9609C22.0443 31.7708 22.5344 32.6984 22.9644 32.8821C22.0109 33.3375 20.0909 32.5184 21.5166 32.2674C20.6274 32.1054 19.6272 31.6557 20.4789 32.7636C21.2032 33.3684 23.0449 33.3043 23.3751 33.3728C23.0953 33.9895 22.615 34.0385 23.3866 34.0863C22.5257 34.5451 23.6626 34.6161 23.7424 34.8783ZM21.9821 29.9072C21.4583 29.3594 21.3229 28.3335 21.8891 29.2262C22.1794 29.3428 22.8191 30.9027 21.9821 29.9072ZM27.7148 33.5487C27.7243 33.7969 28.0415 33.5275 27.7148 33.5487V33.5487ZM21.1551 28.5642C21.3445 29.2029 21.135 27.7361 21.1551 28.5642V28.5642ZM20.5853 27.7976C21.4158 28.1581 19.9266 26.5247 20.5853 27.7976V27.7976ZM13.6807 23.032C13.8711 23.694 14.0678 22.9288 13.6807 23.032V23.032ZM19.1759 26.0106C19.4552 26.7595 19.4136 25.118 19.1759 26.0106V26.0106ZM15.2937 23.3112C15.8662 23.7731 15.0201 22.8186 15.2937 23.3112V23.3112ZM18.6255 24.3792C18.0014 22.9809 19.0673 23.6154 18.7635 24.6084L18.6255 24.3792ZM12.8799 20.5475C12.6008 20.0887 12.1393 18.7427 12.2879 18.3318C12.4223 19.001 13.711 21.2117 12.92 19.2476C12.0459 17.6011 13.9648 19.782 14.1622 20.1927C14.2542 20.6012 13.6229 20.0811 14.0506 21.039C13.2707 19.9484 13.5902 21.6414 12.8799 20.5475ZM11.1042 19.3239C11.5107 20.0553 11.1773 18.2573 11.1042 19.3239V19.3239ZM11.9029 19.5988C12.5492 20.7212 12.284 18.7938 11.9029 19.5988V19.5988ZM9.98152 18.1125C9.32042 17.4556 8.84201 16.85 10.0125 17.7048C10.4634 17.7224 9.01045 16.3277 10.1211 17.2619C11.2889 17.4748 10.6978 19.1767 9.98152 18.1125ZM10.9908 18.0861C11.1946 18.4606 11.3747 17.7057 10.9908 18.0861V18.0861ZM11.6118 18.2852C12.3182 18.7426 11.0298 17.1942 11.6118 18.2852V18.2852ZM10.3773 17.1054C8.45539 15.3951 12.7922 17.9998 10.6912 17.4225L10.3773 17.1054ZM15.8837 20.3048C15.0521 19.8061 15.6633 16.7942 15.947 18.8542C16.7555 18.5926 15.9023 19.918 16.5053 19.9057C16.4103 20.742 16.1405 21.0426 15.8837 20.3048ZM17.9204 21.5085C18.0921 22.1291 18.002 20.6008 17.9204 21.5085V21.5085ZM17.5667 21.159C17.5761 21.6156 17.6582 20.7712 17.5667 21.159V21.159ZM10.7543 16.5434C9.5196 14.8399 14.3426 18.2665 11.5451 16.9755C11.2527 16.899 10.901 16.8717 10.7543 16.5434ZM14.6763 18.6228C14.9373 18.8606 14.5595 17.1885 14.6763 18.6228V18.6228ZM17.654 20.533C17.6712 21.0735 17.8845 19.716 17.654 20.533V20.533ZM10.9434 15.8933C11.6772 15.7363 13.9845 17.182 11.8657 16.3062C11.6303 16.0456 11.1284 16.164 10.9434 15.8933ZM17.2449 19.034C17.3233 17.5673 17.683 18.1579 17.2476 19.2439L17.2449 19.034ZM11.4897 15.3829C11.7886 14.9443 10.696 13.4 11.6472 14.829C12.0582 15.1555 12.8372 15.3761 12.1494 15.5134C13.2311 16.4677 11.8856 15.772 11.4897 15.3829ZM16.9332 18.5758C17.1154 19.5547 17.1398 16.9051 16.9332 18.5758V18.5758ZM10.8652 13.8398C10.9858 14.1441 11.0936 13.7422 10.8652 13.8398V13.8398ZM12.2851 14.6849C12.9592 15.5401 12.6505 13.9181 12.2851 14.6849V14.6849ZM16.2904 16.9129C16.3659 17.3413 16.2865 16.6185 16.2904 16.9129V16.9129ZM16.0583 16.3993C16.5754 17.1254 15.5024 15.0278 16.0583 16.3993V16.3993ZM15.717 15.5001C16.0342 16.2121 15.6237 14.9334 15.717 15.5001V15.5001ZM16.2725 14.5971C15.891 13.9249 16.7542 11.6347 16.8506 13.055C16.4479 14.1617 16.7344 14.7809 17.0153 13.2964C17.534 12.1282 16.9033 15.6018 16.2725 14.5971ZM16.8434 11.1912C16.8803 11.4372 17.0097 10.987 16.8434 11.1912V11.1912ZM15.89 29.9766C15.9184 30.1021 15.6639 29.7792 15.89 29.9766V29.9766ZM17.854 30.9701C18.9464 31.2504 18.9408 30.8001 17.9535 30.6663C17.4224 30.1723 15.7467 29.6483 17.2466 30.605C17.3459 30.8566 17.6598 30.8508 17.854 30.9701ZM13.9753 28.3938C14.5771 28.8426 16.2422 29.6658 14.8326 28.5647C15.3079 28.0125 13.923 27.7186 14.3824 27.3493C13.2139 26.6342 13.4606 26.6978 14.2793 26.7203C12.875 26.0927 14.482 26.1396 14.4063 25.818C13.8648 25.711 11.7167 24.8632 12.9804 25.8876C11.6958 25.2326 12.6743 26.1316 12.286 26.0366C10.9724 25.6784 13.4559 27.0371 12.0774 26.6998C12.831 27.297 14.1059 28.2296 12.396 27.3318C12.1707 27.6561 13.6196 28.1477 13.9753 28.3938ZM16.0293 29.5739C14.8049 28.5906 18.5268 30.3787 16.0293 29.5739V29.5739ZM26.5441 35.9437C26.2027 36.3664 26.5763 35.4482 26.5441 35.9437V35.9437ZM27.6248 36.3986C28.201 35.8402 27.6483 37.2879 28.5796 36.2619C28.5896 35.5273 28.5509 35.0935 27.5094 35.9857C27.2223 36.145 27.0942 36.8219 27.6248 36.3986ZM10.4696 25.6247C9.22913 24.9327 10.2926 24.9291 10.4696 25.6247V25.6247ZM11.6236 26.381C10.0946 25.7377 11.195 25.6704 11.6236 26.381V26.381ZM18.1888 30.3403C18.8297 30.9096 21.1327 30.758 18.9673 30.4103C18.6466 29.9362 16.9308 30.0503 18.1888 30.3403ZM27.2137 35.914C26.2579 36.2833 28.2003 35.0862 27.2137 35.914V35.914ZM29.2655 37.3239C28.8402 37.4402 29.2716 37.0582 29.2655 37.3239V37.3239ZM29.2686 36.952C28.2101 37.0204 30.3611 35.7945 29.2686 36.952V36.952ZM7.63122 23.2485C6.70012 21.92 7.05242 21.3229 6.15452 20.2381C5.98454 19.4086 4.61415 17.5263 5.44572 19.5205C6.2074 20.6868 6.43374 22.4926 7.63122 23.2485ZM28.926 36.584C28.101 36.0182 30.9358 35.285 28.926 36.584V36.584ZM30.4602 37.1851C29.8236 37.0043 31.4667 36.3209 30.4602 37.1851V37.1851ZM10.1275 24.1563C9.38358 24.1015 10.4155 23.7278 10.1275 24.1563V24.1563ZM30.1399 36.7747C31.1144 36.1464 29.9153 36.2428 29.9632 36.8325L30.1399 36.7747ZM16.9146 28.4387C16.3999 28.4748 16.8811 28.0145 16.9146 28.4387V28.4387ZM17.7319 28.909C17.3325 28.9915 17.4721 28.3839 17.7319 28.909V28.909ZM31.7035 37.1993C32.952 36.2987 30.9467 37.0269 31.4415 37.3699L31.7035 37.1993ZM31.2255 36.9682C30.1517 37.3459 32.2425 36.116 31.2255 36.9682V36.9682ZM33.6681 38.5949C32.8385 38.4469 34.3509 38.1375 33.6681 38.5949V38.5949ZM10.7538 23.8473C11.6691 24.0524 14.4116 26.1015 12.7936 23.989C11.965 23.7437 12.4619 21.7181 11.6167 22.0766C12.184 23.0244 12.0835 23.4278 10.8923 22.8303C9.39527 22.0995 10.051 23.1924 10.3436 23.4936C9.9449 23.5842 10.871 23.8397 10.7538 23.8473ZM6.58356 20.5539C6.74743 19.8761 5.07471 16.8253 5.79368 19.0252C6.05321 19.486 6.02682 20.3594 6.58356 20.5539ZM14.2377 25.2728C14.2153 25.217 13.7663 24.8786 14.2377 25.2728V25.2728ZM15.3983 25.5429C14.1154 25.2514 15.3977 24.825 15.3983 25.5429V25.5429ZM25.4564 31.8836C24.6981 31.8723 25.2646 31.3931 25.4564 31.8836V31.8836ZM25.9394 32.2365C25.6608 32.2895 25.8681 31.9619 25.9394 32.2365V32.2365ZM29.9261 34.7476C29.4477 34.7114 30.3096 34.4643 29.9261 34.7476V34.7476ZM8.6666 21.0857C7.49155 20.7829 9.76332 20.6611 8.6666 21.0857V21.0857ZM24.571 31.1055C23.8718 31.2817 24.5588 30.3955 24.571 31.1055V31.1055ZM8.23329 20.0759C7.58159 19.9192 8.93777 19.838 8.23329 20.0759V20.0759ZM10.2781 21.0664C10.0618 21.1548 10.2653 20.8331 10.2781 21.0664V21.0664ZM35.2184 36.3602C36.1243 36.1765 38.1886 36.8213 38.5223 36.12C37.4222 36.0933 34.7162 35.3438 34.5882 36.2988L34.829 36.3368L35.2184 36.3602ZM10.928 21.2302C10.3669 21.2033 10.9437 20.5108 10.928 21.2302V21.2302ZM5.5517 17.5008C4.62308 17.2934 5.30755 16.1301 5.5517 17.5008V17.5008ZM6.83375 17.8231C5.66029 17.427 6.84949 17.3829 6.83375 17.8231V17.8231ZM7.56639 18.1829C7.40063 18.3996 7.35461 18.0114 7.56639 18.1829V18.1829ZM12.1763 21.1402C11.6625 20.9925 12.3934 20.9408 12.1763 21.1402V21.1402ZM7.07841 17.3714C5.59353 17.2162 6.9545 16.336 7.07841 17.3714V17.3714ZM4.45002 15.6659C4.19388 15.8462 4.41264 15.1881 4.45002 15.6659V15.6659ZM4.84099 15.3707C4.50532 15.4428 4.7772 14.8041 4.84099 15.3707V15.3707ZM7.00116 16.6601C7.9146 16.3013 5.33733 15.9179 6.81452 16.5923L7.00116 16.6601ZM35.9117 34.5177C35.1687 34.352 36.4964 33.9817 35.9117 34.5177V34.5177ZM39.4043 36.3281C38.8144 36.4193 39.6386 35.6351 39.4043 36.3281V36.3281ZM7.22193 15.5279C6.49776 15.661 7.31815 14.8575 7.22193 15.5279V15.5279ZM4.14852 13.4687C3.98342 12.5223 4.006 10.8609 5.58522 11.4224C3.47723 11.8409 7.04418 14.0424 6.59374 12.3042C7.4801 12.3476 8.32767 11.7804 7.86252 12.6412C9.60891 12.4483 10.8197 10.934 12.5066 11.1462C13.8206 10.9723 15.2573 10.8404 16.6733 10.3115C17.8375 10.2276 18.9582 8.97412 18.3201 8.23116C16.7324 8.09682 15.0705 8.29547 13.3156 8.64427C11.3711 9.04852 9.60473 9.81656 7.64271 10.1462C5.73029 10.4031 8.02738 10.8541 7.47958 10.9545C6.48165 11.3008 8.66969 11.5343 7.35021 11.8993C6.53532 11.7443 5.68713 11.4643 6.03521 10.6056C4.20328 10.8433 2.59354 11.6036 4.04088 13.4679L4.14852 13.4687ZM8.56281 11.2205C8.99233 9.63822 10.864 12.5226 9.26682 11.4307C9.07605 11.2879 8.76231 11.1715 8.56281 11.2205ZM8.64637 10.4534C8.97592 10.7123 9.2663 9.99155 8.64637 10.4534V10.4534ZM9.43353 10.4659C9.48949 9.73777 11.2355 10.8513 9.72142 10.728L9.43353 10.4659ZM10.5103 10.033C10.6233 10.4416 10.9035 9.5735 10.5103 10.033V10.033ZM10.7858 9.84849C11.4405 9.06178 14.4937 9.3464 12.2589 9.77179C11.6598 9.32082 11.2007 10.0377 10.7858 9.84849ZM14.7702 9.2343C16.7497 9.99796 14.6706 7.08536 14.7702 9.2343V9.2343ZM15.9008 9.22811C16.3141 8.14502 17.5048 8.7935 16.092 9.01047C16.1227 9.12572 16.0506 9.56961 15.9008 9.22811ZM6.77611 14.9719C5.46501 14.3158 8.01112 14.2157 6.77611 14.9719V14.9719ZM7.68927 15.2257C6.74841 15.0389 8.12227 14.7653 7.68927 15.2257V15.2257ZM4.99868 13.3162C4.1636 13.11 5.70436 12.7741 4.99868 13.3162V13.3162ZM41.4659 36.13C40.9265 36.4134 41.4863 35.5011 41.4659 36.13V36.13ZM37.7603 33.6013C37.2842 33.6644 37.8657 32.8772 37.7603 33.6013V33.6013ZM42.4848 36.3739C43.4715 36.3772 45.4743 36.0675 43.3275 36.0685C42.9907 36.121 41.3646 36.1097 42.4848 36.3739ZM8.4925 14.7819C9.29101 14.727 9.7418 13.9011 8.33807 13.9485C6.16253 13.7233 10.2575 14.6935 8.05898 14.4161C7.76357 14.6117 8.47534 14.836 8.4925 14.7819ZM9.19575 15.1378C8.94883 15.4102 9.11238 14.6251 9.19575 15.1378V15.1378ZM10.03 12.9134C9.55046 12.7985 10.3765 12.4836 10.03 12.9134V12.9134ZM7.37437 8.47444C8.79945 7.98964 10.7482 7.44487 11.4211 8.71315C10.7363 7.88894 11.1448 7.07756 11.7915 8.28262C12.7061 9.50188 13.164 7.72806 12.5691 7.3191C13.247 8.16138 14.018 8.55939 13.023 7.37234C14.1043 6.07169 10.8579 7.54266 10.1201 7.52784C9.76507 7.68719 6.45484 8.37204 7.37437 8.47444ZM8.20955 6.87493C9.02229 6.2615 11.0204 7.23981 9.73823 6.26529C9.61287 6.15456 6.93022 7.00428 8.20955 6.87493ZM11.1725 6.99725C12.1237 7.02152 10.7623 5.71941 11.8957 6.30944C11.7096 5.7013 10.576 5.58745 10.0219 5.34448C9.70844 5.90049 10.6599 7.00473 11.1725 6.99725ZM8.7291 4.30759C8.15239 4.53375 9.05817 3.8615 8.7291 4.30759V4.30759ZM9.94012 4.59745C11.473 4.39414 9.54939 3.93733 9.63124 4.58111L9.94012 4.59745ZM7.6789 2.8281C6.5996 1.41916 9.70867 3.06494 8.6121 1.58973C7.68916 0.85479 6.80226 2.41679 7.6789 2.8281ZM21.53 10.2887C22.0251 9.41117 19.4863 9.10583 21.1965 9.9777C21.354 10.0303 21.3183 10.3494 21.53 10.2887Z" fill="white"/>
<path d="M44.8965 4.23623C44.7194 4.93417 44.61 6.10604 44.5684 7.75186C44.5683 8.07479 44.4225 8.23625 44.1309 8.23623C43.8392 8.23625 43.6361 8.09562 43.5215 7.81436C43.209 7.05396 42.9121 6.52271 42.6309 6.22061C42.2975 5.86646 41.8548 5.65292 41.3027 5.57998C40.709 5.48625 39.2298 5.43938 36.8652 5.43936C36.3236 5.43938 35.9694 5.49667 35.8027 5.61123C35.6986 5.68417 35.6465 5.84042 35.6465 6.07998V13.1581C35.6465 13.3977 35.7975 13.5123 36.0996 13.5019C37.0267 13.4915 38.3704 13.429 40.1309 13.3144C40.4746 13.2727 40.7064 13.1607 40.8262 12.9784C40.946 12.7961 41.0631 12.3248 41.1777 11.5644C41.2506 11.1477 41.4954 10.9862 41.9121 11.08C42.2663 11.1529 42.4173 11.3144 42.3652 11.5644C42.0736 12.981 41.9798 14.8248 42.084 17.0956C42.0944 17.3664 41.9225 17.5123 41.5684 17.5331C41.2767 17.5644 41.0944 17.4081 41.0215 17.0644C40.7506 15.7623 40.248 15.067 39.5137 14.9784C38.7793 14.8899 37.584 14.8456 35.9277 14.8456C35.7402 14.8456 35.6465 14.9133 35.6465 15.0487V22.08C35.6465 22.6008 35.8392 22.955 36.2246 23.1425C36.5267 23.2987 37.1777 23.4394 38.1777 23.5644C38.6881 23.6164 38.9121 23.8404 38.8496 24.2362C38.7871 24.58 38.3288 24.7154 37.4746 24.6425C35.0059 24.4446 32.9694 24.455 31.3652 24.6737C30.9173 24.7362 30.6934 24.5539 30.6934 24.1269C30.6934 23.856 30.9173 23.6998 31.3652 23.6581C32.3861 23.5435 32.8965 22.6477 32.8965 20.9706V7.59561C32.8965 6.90813 32.7741 6.37948 32.5293 6.00967C32.2845 5.6399 31.8288 5.30396 31.1621 5.00186C30.7454 4.81438 30.5892 4.55917 30.6934 4.23623C30.7454 4.03834 30.8288 3.92896 30.9434 3.90811C31.0475 3.87688 31.3236 3.89771 31.7715 3.97061C32.4277 4.07479 33.9746 4.12688 36.4121 4.12686C39.2871 4.12688 41.7715 4.06438 43.8652 3.93936C44.5631 3.89771 44.9121 3.955 44.9121 4.11123C44.9121 4.15292 44.9069 4.19459 44.8965 4.23623Z" fill="white"/>
<path d="M55.0527 24.0956C55.0527 24.5123 54.8183 24.6946 54.3496 24.6425C52.9121 24.5071 51.1309 24.5279 49.0059 24.705C48.5788 24.7467 48.3158 24.7362 48.2168 24.6737C48.1178 24.6112 48.0684 24.4394 48.0684 24.1581C48.0684 23.9081 48.3522 23.6972 48.9199 23.5253C49.4876 23.3534 49.7715 22.8404 49.7715 21.9862V7.84561C49.7715 7.00188 49.6491 6.38209 49.4043 5.98624C49.1595 5.59042 48.7298 5.28313 48.1152 5.06436C47.7923 4.9498 47.6309 4.78834 47.6309 4.57999C47.6309 4.26751 47.8652 4.03313 48.334 3.87686C49.0423 3.64772 49.7767 3.29355 50.5371 2.81436C51.1621 2.43938 51.5579 2.25188 51.7246 2.25186C52.11 2.25188 52.3027 2.51751 52.3027 3.04874C52.3027 3.00709 52.2819 3.52792 52.2402 4.61124C52.209 5.64251 52.1986 6.65813 52.209 7.65811L52.2715 21.6112C52.2715 22.2467 52.4277 22.7076 52.7402 22.994C53.0527 23.2805 53.5892 23.4706 54.3496 23.5644C54.8183 23.6164 55.0527 23.7935 55.0527 24.0956Z" fill="white"/>
<path d="M69.3027 23.0487C69.3027 23.2675 68.9043 23.5982 68.1074 24.0409C67.3105 24.4836 66.6725 24.705 66.1934 24.705C65.7871 24.705 65.4277 24.5071 65.1152 24.1112C64.8027 23.7154 64.584 23.5175 64.459 23.5175C64.3652 23.5175 63.8704 23.731 62.9746 24.1581C62.0788 24.5852 61.1777 24.7987 60.2715 24.7987C59.4173 24.7987 58.7038 24.5487 58.1309 24.0487C57.5059 23.4967 57.1934 22.7467 57.1934 21.7987C57.1934 19.9967 59.2559 18.705 63.3809 17.9237C64.0892 17.7883 64.4486 17.5019 64.459 17.0644L64.4902 16.0644C64.5527 14.356 63.7975 13.5019 62.2246 13.5019C61.7767 13.5019 61.3522 13.9029 60.9512 14.705C60.5501 15.5071 59.9746 15.9394 59.2246 16.0019C58.3704 16.0852 57.9434 15.7258 57.9434 14.9237C57.9434 14.4237 58.5788 13.8404 59.8496 13.1737C61.1829 12.4758 62.4642 12.1269 63.6934 12.1269C65.8079 12.1269 66.8548 13.1321 66.834 15.1425L66.7715 21.58C66.7611 22.2571 67.0475 22.5956 67.6309 22.5956C67.7454 22.5956 67.9642 22.5696 68.2871 22.5175C68.61 22.4654 68.7975 22.4394 68.8496 22.4394C69.1517 22.4394 69.3027 22.6425 69.3027 23.0487ZM64.4902 19.4862C64.5006 19.2258 64.4407 19.0539 64.3105 18.9706C64.1803 18.8873 63.9746 18.8717 63.6934 18.9237C61.1829 19.3717 59.9277 20.1894 59.9277 21.3769C59.9277 22.5748 60.5788 23.1737 61.8809 23.1737C62.4017 23.1737 62.9381 23.0748 63.4902 22.8769C64.1361 22.6477 64.459 22.3717 64.459 22.0487L64.4902 19.4862Z" fill="white"/>
<path d="M80.959 21.1894C80.959 22.2935 80.5345 23.1711 79.6855 23.8222C78.8366 24.4732 77.6777 24.7987 76.209 24.7987C75.2298 24.7987 74.2506 24.6946 73.2715 24.4862C72.4277 24.2987 71.9381 24.1269 71.8027 23.9706C71.7194 23.8248 71.6777 23.1112 71.6777 21.83C71.6777 21.2779 71.8027 20.9914 72.0527 20.9706C72.3027 20.9394 72.5163 21.0748 72.6934 21.3769C73.4746 22.7414 74.735 23.4237 76.4746 23.4237C77.9433 23.4237 78.6777 22.9133 78.6777 21.8925C78.6777 21.4446 78.5111 21.0696 78.1777 20.7675C77.8131 20.4237 77.1048 20.0227 76.0527 19.5644C74.5319 18.8873 73.5163 18.2935 73.0059 17.7831C72.4538 17.2415 72.1777 16.5123 72.1777 15.5956C72.1777 14.4706 72.61 13.5956 73.4746 12.9706C74.2767 12.3665 75.3496 12.0644 76.6934 12.0644C77.5371 12.0644 78.3079 12.1321 79.0059 12.2675C79.7559 12.4029 80.1465 12.5696 80.1777 12.7675C80.2611 13.3508 80.4329 14.1946 80.6934 15.2987C80.7246 15.4342 80.5788 15.5435 80.2559 15.6269C79.9121 15.6998 79.6829 15.6425 79.5684 15.455C78.7454 14.1112 77.7038 13.4394 76.4434 13.4394C75.0163 13.4394 74.3027 13.8977 74.3027 14.8144C74.3027 15.3248 74.4954 15.731 74.8809 16.0331C75.2246 16.2935 76.0319 16.6998 77.3027 17.2519C78.6361 17.8248 79.5423 18.3404 80.0215 18.7987C80.6465 19.3925 80.959 20.1894 80.959 21.1894Z" fill="white"/>
<path d="M99.084 24.0019C99.084 24.3664 98.8392 24.5592 98.3496 24.58C97.6204 24.5904 96.6673 24.6425 95.4902 24.7362C94.9069 24.8508 94.4902 24.7779 94.2402 24.5175C92.5944 22.7467 91.1986 20.8925 90.0527 18.955C89.959 18.7883 89.8392 18.705 89.6934 18.705C89.5163 18.705 89.209 18.8612 88.7715 19.1737C88.2819 19.4446 88.0371 19.83 88.0371 20.33C88.0371 20.6842 88.0475 21.1946 88.0684 21.8612C88.0892 22.5279 88.2559 22.9654 88.5684 23.1737C88.7871 23.3196 89.2923 23.4342 90.084 23.5175C90.5736 23.58 90.8184 23.7623 90.8184 24.0644C90.8184 24.3039 90.7793 24.4524 90.7012 24.5097C90.623 24.567 90.4173 24.58 90.084 24.5487C89.0423 24.455 87.2819 24.5071 84.8027 24.705C84.1777 24.7571 83.8392 24.6789 83.7871 24.4706C83.7663 24.3977 83.7559 24.2935 83.7559 24.1581C83.7559 23.8352 84.0736 23.5904 84.709 23.4237C85.2819 23.2779 85.5684 22.606 85.5684 21.4081V7.75186C85.5684 6.89771 85.485 6.30396 85.3184 5.97061C85.0892 5.54355 84.61 5.21021 83.8809 4.97061C83.5371 4.85605 83.3652 4.69459 83.3652 4.48624C83.3652 4.18417 83.61 3.9498 84.0996 3.78311C84.8809 3.52272 85.6256 3.16334 86.334 2.70499C86.9069 2.33001 87.2611 2.14251 87.3965 2.14249C87.8236 2.14251 88.0371 2.41334 88.0371 2.95499C88.0371 2.88209 88.0319 3.39772 88.0215 4.50186C88.0111 5.2623 88.0059 6.28313 88.0059 7.56436L88.0371 17.3456C88.0371 17.6165 88.11 17.7519 88.2559 17.7519C88.4121 17.7519 88.6517 17.6165 88.9746 17.3456C89.8392 16.6685 90.9017 15.7831 92.1621 14.6894C92.4121 14.429 92.5371 14.2206 92.5371 14.0644C92.5371 13.7831 92.1152 13.5852 91.2715 13.4706C90.9069 13.429 90.735 13.2258 90.7559 12.8612C90.7871 12.4967 90.9694 12.3404 91.3027 12.3925C92.0527 12.4967 93.1465 12.554 94.584 12.5644C95.584 12.5748 96.5788 12.58 97.5684 12.58C97.8913 12.5904 98.0527 12.7831 98.0527 13.1581C98.0527 13.5123 97.7975 13.705 97.2871 13.7362C96.485 13.7675 95.7298 13.9498 95.0215 14.2831C94.0319 14.731 92.9746 15.5175 91.8496 16.6425C91.7663 16.705 91.7246 16.7831 91.7246 16.8769C91.7246 17.0227 91.9017 17.3717 92.2559 17.9237C93.5579 19.9029 94.7871 21.3977 95.9434 22.4081C96.6829 23.0435 97.3756 23.3612 98.0215 23.3612C98.5006 23.3612 98.7975 23.3951 98.9121 23.4628C99.0267 23.5305 99.084 23.7102 99.084 24.0019Z" fill="white"/>
<path d="M57.1917 29.4477C57.1917 29.4841 57.1218 29.5216 56.9821 29.5601C56.8909 29.5844 56.814 29.6675 56.7512 29.8092C56.3866 30.6194 56.0605 31.2726 55.7729 31.7689C55.7668 31.781 55.7516 31.7861 55.7273 31.7841C55.705 31.7821 55.6898 31.775 55.6817 31.7628C55.6331 31.6899 55.5086 31.4357 55.3081 31.0002C55.1237 30.5992 55.0245 30.3987 55.0103 30.3987C54.988 30.3987 54.8797 30.5921 54.6852 30.9789C54.4644 31.4104 54.3338 31.6565 54.2933 31.7172C54.2872 31.7314 54.273 31.7375 54.2508 31.7355C54.2285 31.7355 54.2113 31.7273 54.1991 31.7111C54.0513 31.4802 53.711 30.8483 53.1783 29.8153C53.1175 29.6938 53.0497 29.6168 52.9747 29.5844C52.8451 29.5277 52.7803 29.4862 52.7803 29.4598C52.7803 29.3809 52.8238 29.3454 52.9109 29.3535C53.3018 29.394 53.6441 29.3859 53.9378 29.3292C54.0047 29.317 54.0381 29.3393 54.0381 29.396C54.0381 29.475 53.9925 29.5257 53.9014 29.548C53.7819 29.5763 53.7221 29.6209 53.7221 29.6816C53.7221 29.7201 53.7363 29.7768 53.7646 29.8518C53.8376 30.0401 53.9469 30.2791 54.0928 30.5688C54.2386 30.8584 54.3237 31.0032 54.348 31.0032C54.3642 31.0032 54.4503 30.8524 54.6062 30.5506C54.7622 30.2488 54.8402 30.0817 54.8402 30.0493C54.8402 29.9703 54.8138 29.8852 54.7612 29.794C54.6984 29.6604 54.6255 29.5804 54.5424 29.554C54.4087 29.5074 54.3419 29.4619 54.3419 29.4173C54.3419 29.3363 54.3875 29.3029 54.4786 29.317C54.7905 29.3596 55.1207 29.3515 55.4691 29.2927C55.5359 29.2806 55.5693 29.3009 55.5693 29.3535C55.5693 29.4305 55.5197 29.4781 55.4205 29.4963C55.303 29.5186 55.2442 29.5783 55.2442 29.6756C55.2442 29.7221 55.2574 29.7768 55.2837 29.8396C55.5957 30.6032 55.7759 30.985 55.8245 30.985C55.8428 30.985 55.9238 30.8361 56.0676 30.5384C56.2215 30.2204 56.3289 29.9642 56.3896 29.7697C56.3937 29.7596 56.3957 29.7485 56.3957 29.7363C56.3957 29.6492 56.3279 29.5814 56.1922 29.5328C56.0868 29.4983 56.0342 29.4598 56.0342 29.4173C56.0342 29.3464 56.0676 29.3191 56.1344 29.3353C56.2256 29.3555 56.3896 29.3707 56.6266 29.3809C56.8494 29.389 56.9963 29.3879 57.0672 29.3778C57.1502 29.3677 57.1917 29.391 57.1917 29.4477Z" fill="white"/>
<path d="M59.8832 31.1703C59.8832 31.2574 59.7658 31.3658 59.5308 31.4954C59.2635 31.6392 58.989 31.7111 58.7075 31.7111C58.4016 31.7111 58.1444 31.6109 57.9358 31.4104C57.713 31.1977 57.6016 30.9141 57.6016 30.5597C57.6016 30.1586 57.7261 29.8366 57.9753 29.5935C58.2082 29.3667 58.4938 29.2532 58.832 29.2532C59.0326 29.2532 59.2199 29.317 59.3941 29.4446C59.5501 29.5581 59.6534 29.6877 59.704 29.8335C59.7222 29.8842 59.7496 29.9125 59.786 29.9186C59.8387 29.9287 59.865 29.9642 59.865 30.0249C59.865 30.108 59.7658 30.1789 59.5673 30.2376L58.1667 30.6538C58.2578 31.1359 58.5049 31.3769 58.908 31.3769C59.1409 31.3769 59.4062 31.2919 59.704 31.1217C59.7486 31.0954 59.7921 31.0822 59.8346 31.0822C59.867 31.0822 59.8832 31.1116 59.8832 31.1703ZM59.1632 29.952C59.1632 29.8406 59.1181 29.7429 59.028 29.6588C58.9379 29.5748 58.827 29.5328 58.6953 29.5327C58.3226 29.5328 58.1363 29.8011 58.1363 30.3379V30.4108L58.9627 30.1617C59.0964 30.1232 59.1632 30.0533 59.1632 29.952Z" fill="white"/>
<path d="M62.9553 30.3166C62.9553 30.7177 62.8155 31.0539 62.536 31.3253C62.2687 31.5866 61.9507 31.7172 61.582 31.7172C61.3734 31.7172 61.1557 31.6828 60.9288 31.6139C60.7101 31.5471 60.5997 31.4863 60.5977 31.4316C60.5957 31.385 60.5965 31.222 60.6007 30.9425C60.6068 30.6002 60.6098 30.351 60.6098 30.1951C60.6098 29.9601 60.6078 29.6194 60.6037 29.1727C60.5997 28.7261 60.5977 28.4299 60.5977 28.2841C60.5977 28.1382 60.5754 28.038 60.5308 27.9833C60.4903 27.9347 60.4022 27.8962 60.2665 27.8678C60.2138 27.8496 60.1875 27.8162 60.1875 27.7676C60.1875 27.725 60.227 27.6896 60.306 27.6612C60.4194 27.6207 60.5602 27.5529 60.7283 27.4577C60.862 27.3827 60.945 27.3453 60.9774 27.3453C61.0402 27.3453 61.0716 27.3969 61.0716 27.5002C61.0716 27.5083 61.0686 27.6136 61.0625 27.8162C61.0585 28.0066 61.0574 28.2 61.0595 28.3965L61.0655 29.4477C61.0655 29.5469 61.1 29.5753 61.1688 29.5328C61.4119 29.393 61.6651 29.3231 61.9284 29.3231C62.2322 29.3231 62.4793 29.4148 62.6697 29.5981C62.8601 29.7814 62.9553 30.0209 62.9553 30.3166ZM62.4692 30.587C62.4692 30.3095 62.3922 30.0817 62.2383 29.9034C62.0924 29.7353 61.9152 29.6513 61.7066 29.6513C61.5628 29.6513 61.421 29.6887 61.2812 29.7637C61.1415 29.8386 61.0716 29.9176 61.0716 30.0006V30.8149C61.0716 31.2058 61.2873 31.4013 61.7188 31.4012C61.9436 31.4013 62.1249 31.3288 62.2626 31.184C62.4003 31.0392 62.4692 30.8402 62.4692 30.587Z" fill="white"/>
<path d="M67.871 31.383C67.8791 31.4012 67.8831 31.4144 67.8831 31.4225C67.8831 31.4651 67.7798 31.5349 67.5732 31.6322C67.3342 31.7436 67.1935 31.7993 67.1509 31.7993C67.1145 31.7993 67.0724 31.738 67.0248 31.6154C66.9772 31.4929 66.9443 31.4316 66.9261 31.4316C66.9281 31.4316 66.8132 31.4848 66.5813 31.5911C66.3494 31.6975 66.1736 31.7506 66.0541 31.7506C65.7868 31.7506 65.5549 31.6544 65.3584 31.462C65.1214 31.2331 65.0029 30.9121 65.0029 30.4989C65.0029 30.1526 65.1427 29.8538 65.4222 29.6026C65.6693 29.3819 65.9215 29.2715 66.1787 29.2715C66.361 29.2715 66.5787 29.2948 66.8319 29.3414C66.9109 29.3555 66.9504 29.3322 66.9504 29.2715V28.2324C66.9504 28.1149 66.9221 28.0319 66.8653 27.9833C66.8289 27.9509 66.7428 27.9124 66.6071 27.8678C66.5423 27.8435 66.5099 27.804 66.5099 27.7493C66.5099 27.6987 66.5534 27.6612 66.6405 27.6369C66.76 27.6005 66.9028 27.5397 67.0689 27.4546C67.2066 27.3817 67.2917 27.3453 67.3241 27.3453C67.399 27.3453 67.4365 27.3969 67.4365 27.5002C67.4365 27.4982 67.4335 27.599 67.4274 27.8025C67.4213 28.0061 67.4183 28.2041 67.4183 28.3965V31.1582C67.4183 31.2736 67.4699 31.3314 67.5732 31.3314C67.6117 31.3314 67.6634 31.3253 67.7282 31.3131C67.7991 31.301 67.8467 31.3243 67.871 31.383ZM66.9322 31.0822V29.9946C66.9322 29.9054 66.8532 29.8133 66.6952 29.7181C66.5271 29.6168 66.3448 29.5662 66.1483 29.5662C65.725 29.5662 65.5133 29.8275 65.5133 30.35C65.5133 30.6295 65.5974 30.8686 65.7655 31.067C65.9336 31.2655 66.1311 31.3648 66.358 31.3648C66.4613 31.3648 66.5828 31.3304 66.7225 31.2615C66.8623 31.1926 66.9322 31.1329 66.9322 31.0822Z" fill="white"/>
<path d="M70.5053 31.1703C70.5053 31.2574 70.3878 31.3658 70.1529 31.4954C69.8855 31.6392 69.6111 31.7111 69.3295 31.7111C69.0237 31.7111 68.7665 31.6109 68.5578 31.4104C68.335 31.1977 68.2236 30.9141 68.2236 30.5597C68.2236 30.1586 68.3482 29.8366 68.5973 29.5935C68.8303 29.3667 69.1158 29.2532 69.4541 29.2532C69.6546 29.2532 69.842 29.317 70.0162 29.4446C70.1721 29.5581 70.2754 29.6877 70.3261 29.8335C70.3443 29.8842 70.3716 29.9125 70.4081 29.9186C70.4608 29.9287 70.4871 29.9642 70.4871 30.0249C70.4871 30.108 70.3878 30.1789 70.1893 30.2376L68.7887 30.6538C68.8799 31.1359 69.127 31.3769 69.5301 31.3769C69.763 31.3769 70.0283 31.2919 70.3261 31.1217C70.3706 31.0954 70.4142 31.0822 70.4567 31.0822C70.4891 31.0822 70.5053 31.1116 70.5053 31.1703ZM69.7853 29.952C69.7853 29.8406 69.7402 29.7429 69.6501 29.6588C69.5599 29.5748 69.449 29.5328 69.3174 29.5327C68.9447 29.5328 68.7584 29.8011 68.7584 30.3379V30.4108L69.5847 30.1617C69.7184 30.1232 69.7853 30.0533 69.7853 29.952Z" fill="white"/>
<path d="M73.8382 29.4416C73.8382 29.4801 73.7744 29.5196 73.6468 29.5601C73.5638 29.5844 73.4929 29.6674 73.4341 29.8092C73.3349 30.0482 73.1617 30.3986 72.9146 30.8604C72.706 31.2514 72.545 31.5369 72.4315 31.7172C72.4254 31.7314 72.4123 31.7375 72.392 31.7354C72.3718 31.7334 72.3566 31.7253 72.3465 31.7111C71.9171 31.0934 71.5494 30.4614 71.2436 29.8153C71.1788 29.6776 71.115 29.6006 71.0522 29.5844C70.9347 29.5378 70.876 29.4963 70.876 29.4598C70.876 29.3788 70.9155 29.3434 70.9945 29.3535C71.118 29.3697 71.3013 29.3738 71.5444 29.3656C71.7793 29.3596 71.9444 29.3474 72.0396 29.3292C72.0983 29.317 72.1277 29.3393 72.1277 29.396C72.1277 29.4669 72.0862 29.5125 72.0031 29.5327C71.8452 29.5753 71.7662 29.63 71.7662 29.6968C71.7662 29.7272 71.7763 29.7707 71.7965 29.8275C71.8654 29.9976 71.989 30.2432 72.1672 30.5642C72.3454 30.8853 72.4467 31.0458 72.471 31.0458C72.4893 31.0458 72.5753 30.8918 72.7293 30.584C72.8913 30.2579 73.0078 29.9946 73.0787 29.794C73.0888 29.7718 73.0938 29.7495 73.0939 29.7272C73.0939 29.6482 73.0453 29.5834 72.948 29.5327C72.8528 29.4943 72.8052 29.4578 72.8052 29.4234C72.8052 29.3525 72.8366 29.3231 72.8994 29.3353C72.9804 29.3494 73.1232 29.3616 73.3278 29.3717C73.5324 29.3819 73.665 29.3839 73.7258 29.3778C73.8007 29.3636 73.8382 29.3849 73.8382 29.4416Z" fill="white"/>
<path d="M76.5327 31.1703C76.5327 31.2574 76.4152 31.3658 76.1802 31.4954C75.9129 31.6392 75.6384 31.7111 75.3569 31.7111C75.051 31.7111 74.7938 31.6109 74.5852 31.4104C74.3624 31.1977 74.251 30.9141 74.251 30.5597C74.251 30.1586 74.3755 29.8366 74.6247 29.5935C74.8576 29.3667 75.1432 29.2532 75.4814 29.2532C75.682 29.2532 75.8693 29.317 76.0435 29.4446C76.1995 29.5581 76.3028 29.6877 76.3534 29.8335C76.3716 29.8842 76.399 29.9125 76.4354 29.9186C76.4881 29.9287 76.5144 29.9642 76.5144 30.0249C76.5144 30.108 76.4152 30.1789 76.2167 30.2376L74.8161 30.6538C74.9072 31.1359 75.1543 31.3769 75.5574 31.3769C75.7903 31.3769 76.0557 31.2919 76.3534 31.1217C76.398 31.0954 76.4415 31.0822 76.484 31.0822C76.5165 31.0822 76.5327 31.1116 76.5327 31.1703ZM75.8126 29.952C75.8126 29.8406 75.7675 29.7429 75.6774 29.6588C75.5873 29.5748 75.4764 29.5328 75.3447 29.5327C74.972 29.5328 74.7857 29.8011 74.7857 30.3379V30.4108L75.6121 30.1617C75.7458 30.1232 75.8126 30.0533 75.8126 29.952Z" fill="white"/>
<path d="M78.4109 31.5927C78.4109 31.6737 78.3653 31.7091 78.2742 31.699C77.9947 31.6727 77.6483 31.6767 77.2351 31.7111C77.1521 31.7193 77.1009 31.7172 77.0817 31.7051C77.0625 31.6929 77.0528 31.6595 77.0528 31.6048C77.0528 31.5562 77.108 31.5152 77.2184 31.4817C77.3288 31.4483 77.384 31.3486 77.384 31.1825V28.4329C77.384 28.2689 77.3602 28.1483 77.3126 28.0714C77.265 27.9944 77.1815 27.9347 77.062 27.8921C76.9992 27.8698 76.9678 27.8384 76.9678 27.7979C76.9678 27.7372 77.0133 27.6916 77.1045 27.6612C77.2422 27.6167 77.385 27.5478 77.5329 27.4546C77.6544 27.3817 77.7314 27.3452 77.7638 27.3452C77.8387 27.3452 77.8762 27.3969 77.8762 27.5002C77.8762 27.4921 77.8722 27.5934 77.864 27.804C77.858 28.0045 77.8559 28.202 77.858 28.3965L77.8701 31.1096C77.8701 31.2331 77.9005 31.3228 77.9613 31.3785C78.022 31.4342 78.1264 31.4711 78.2742 31.4893C78.3654 31.4995 78.4109 31.5339 78.4109 31.5927Z" fill="white"/>
<path d="M81.3548 30.4564C81.3548 30.8088 81.2242 31.107 80.9629 31.3511C80.7016 31.5952 80.3775 31.7172 79.9907 31.7172C79.6038 31.7172 79.298 31.6099 79.0731 31.3952C78.8564 31.1845 78.748 30.906 78.748 30.5597C78.748 30.2012 78.8848 29.8994 79.1582 29.6543C79.4235 29.4173 79.7405 29.2988 80.1092 29.2988C80.5041 29.2988 80.812 29.4052 81.0328 29.6178C81.2475 29.8244 81.3548 30.1039 81.3548 30.4564ZM80.8201 30.6417C80.8201 30.3237 80.7431 30.0655 80.5892 29.867C80.4393 29.6745 80.2489 29.5783 80.018 29.5783C79.8033 29.5783 79.6281 29.6538 79.4924 29.8047C79.3567 29.9556 79.2888 30.1394 79.2888 30.3561C79.2888 30.7045 79.3678 30.9759 79.5258 31.1703C79.6717 31.3486 79.862 31.4377 80.097 31.4377C80.3198 31.4377 80.496 31.3638 80.6257 31.2159C80.7553 31.0681 80.8201 30.8766 80.8201 30.6417Z" fill="white"/>
<path d="M84.529 30.3743C84.529 30.7531 84.4019 31.0746 84.1477 31.339C83.8935 31.6033 83.5973 31.7354 83.259 31.7354C83.0544 31.7354 82.857 31.699 82.6666 31.6261C82.6463 31.618 82.6362 31.6676 82.6362 31.7749V32.6894C82.6362 32.8373 82.7567 32.9325 82.9977 32.975C83.1091 32.9953 83.1795 33.014 83.2089 33.0312C83.2382 33.0485 83.2529 33.0773 83.2529 33.1178C83.2529 33.1867 83.2074 33.2181 83.1162 33.212C82.6909 33.1837 82.3172 33.1938 81.9951 33.2424C81.9283 33.2525 81.8868 33.2525 81.8706 33.2424C81.8544 33.2323 81.8462 33.2049 81.8462 33.1604C81.8462 33.1259 81.904 33.0844 82.0194 33.0358C82.1187 32.9953 82.1683 32.8981 82.1683 32.7441V30.0644C82.1683 29.8477 82.1085 29.712 81.989 29.6573C81.8473 29.5945 81.7764 29.5429 81.7764 29.5024C81.7764 29.4578 81.8179 29.4244 81.9009 29.4021C82.0083 29.3758 82.1187 29.3292 82.2321 29.2624C82.3273 29.2077 82.385 29.1803 82.4053 29.1803C82.466 29.1803 82.5157 29.236 82.5541 29.3474C82.6109 29.5095 82.6483 29.5905 82.6666 29.5905C82.6706 29.5905 82.7577 29.5429 82.9278 29.4477C83.1142 29.3444 83.2965 29.2927 83.4747 29.2927C83.7644 29.2927 84.0034 29.3748 84.1917 29.5388C84.4166 29.7313 84.529 30.0098 84.529 30.3743ZM84.0125 30.6174C84.0125 30.2872 83.9304 30.03 83.7664 29.8457C83.6327 29.6918 83.4757 29.6148 83.2955 29.6148C83.1557 29.6148 83.022 29.6634 82.8944 29.7606C82.7263 29.8862 82.6423 30.0614 82.6423 30.2862V31.146C82.6423 31.2007 82.7192 31.2585 82.8732 31.3192C83.0392 31.3861 83.2195 31.4195 83.414 31.4195C83.813 31.4195 84.0125 31.1521 84.0125 30.6174Z" fill="white"/>
<path d="M90.0191 31.5987C90.0191 31.6656 89.9877 31.697 89.9249 31.6929C89.5117 31.6625 89.1269 31.6625 88.7704 31.6929C88.6914 31.699 88.6519 31.6635 88.6519 31.5866C88.6519 31.5258 88.7056 31.4934 88.8129 31.4893C88.9486 31.4812 89.0165 31.3709 89.0165 31.1582V30.35C89.0165 29.8963 88.8322 29.6695 88.4636 29.6695C88.2691 29.6695 88.0909 29.7049 87.9288 29.7758C87.781 29.8386 87.706 29.9014 87.704 29.9642L87.6919 31.1703C87.6919 31.2959 87.7071 31.379 87.7374 31.4195C87.7597 31.4478 87.8093 31.4681 87.8863 31.4802C88.0645 31.5106 88.1537 31.5481 88.1537 31.5926C88.1537 31.6311 88.1486 31.6575 88.1385 31.6716C88.1263 31.6919 88.0898 31.701 88.0291 31.699C87.7982 31.6909 87.4619 31.6949 87.0204 31.7111C86.9576 31.7131 86.9171 31.7081 86.8989 31.6959C86.8806 31.6838 86.8715 31.6554 86.8715 31.6109C86.8715 31.5582 86.9293 31.5258 87.0447 31.5136C87.1703 31.4995 87.2331 31.385 87.2331 31.1703V30.3439C87.2331 30.1211 87.1824 29.949 87.0812 29.8275C86.992 29.7181 86.8786 29.6634 86.7409 29.6634C86.5383 29.6634 86.356 29.7044 86.194 29.7864C86.032 29.8685 85.951 29.9561 85.951 30.0492V31.1582C85.951 31.2838 85.9834 31.3709 86.0482 31.4195C86.1069 31.464 86.2132 31.4914 86.3672 31.5015C86.4502 31.5055 86.4918 31.5339 86.4918 31.5866C86.4918 31.6453 86.4583 31.6747 86.3915 31.6747C85.8851 31.6747 85.5185 31.6888 85.2917 31.7172C85.2147 31.7273 85.1651 31.7273 85.1428 31.7172C85.1246 31.7071 85.1155 31.6828 85.1155 31.6443C85.1155 31.5937 85.1904 31.5501 85.3403 31.5136C85.4314 31.4893 85.477 31.3709 85.477 31.1582V30.2255C85.477 29.9885 85.4132 29.8518 85.2856 29.8153C85.1782 29.7849 85.1129 29.7626 85.0896 29.7485C85.0663 29.7343 85.0547 29.711 85.0547 29.6786C85.0547 29.6421 85.16 29.5652 85.3707 29.4477C85.5935 29.3221 85.7302 29.2593 85.7808 29.2593C85.8234 29.2593 85.8593 29.3206 85.8887 29.4431C85.918 29.5657 85.9408 29.6269 85.957 29.6269C85.9793 29.6269 86.0411 29.5955 86.1424 29.5327C86.2679 29.4538 86.3814 29.395 86.4826 29.3565C86.6487 29.2917 86.8199 29.2593 86.9961 29.2593C87.1379 29.2593 87.2614 29.2897 87.3668 29.3505C87.4397 29.391 87.5055 29.4467 87.5642 29.5176C87.6128 29.5783 87.6372 29.6087 87.6372 29.6087C87.6372 29.6087 87.6898 29.5783 87.7951 29.5176C87.9187 29.4467 88.0392 29.391 88.1567 29.3505C88.3288 29.2897 88.4959 29.2593 88.658 29.2593C89.213 29.2593 89.4904 29.5641 89.4905 30.1738V31.1582C89.4904 31.2736 89.5178 31.3557 89.5725 31.4043C89.6211 31.4448 89.7163 31.4792 89.8581 31.5076C89.9654 31.5278 90.0191 31.5582 90.0191 31.5987Z" fill="white"/>
<path d="M92.5864 31.1703C92.5864 31.2574 92.4689 31.3658 92.2339 31.4954C91.9666 31.6392 91.6921 31.7111 91.4106 31.7111C91.1047 31.7111 90.8475 31.6109 90.6389 31.4104C90.4161 31.1977 90.3047 30.9141 90.3047 30.5597C90.3047 30.1586 90.4293 29.8366 90.6784 29.5935C90.9113 29.3667 91.1969 29.2532 91.5352 29.2532C91.7357 29.2532 91.923 29.317 92.0972 29.4446C92.2532 29.5581 92.3565 29.6877 92.4071 29.8335C92.4253 29.8842 92.4527 29.9125 92.4891 29.9186C92.5418 29.9287 92.5681 29.9642 92.5681 30.0249C92.5681 30.108 92.4689 30.1789 92.2704 30.2376L90.8698 30.6538C90.9609 31.1359 91.208 31.3769 91.6111 31.3769C91.844 31.3769 92.1094 31.2919 92.4071 31.1217C92.4517 31.0954 92.4952 31.0822 92.5378 31.0822C92.5702 31.0822 92.5864 31.1116 92.5864 31.1703ZM91.8663 29.952C91.8663 29.8406 91.8213 29.7429 91.7311 29.6588C91.641 29.5748 91.5301 29.5328 91.3984 29.5327C91.0258 29.5328 90.8394 29.8011 90.8394 30.3379V30.4108L91.6658 30.1617C91.7995 30.1232 91.8663 30.0533 91.8663 29.952Z" fill="white"/>
<path d="M96.233 31.6261C96.233 31.6889 96.1874 31.7172 96.0962 31.7111C95.6608 31.6889 95.3306 31.6848 95.1058 31.699C94.9903 31.7071 94.9275 31.6929 94.9174 31.6565C94.9134 31.6443 94.9113 31.6271 94.9113 31.6048C94.9113 31.5643 94.9701 31.5278 95.0876 31.4954C95.1949 31.465 95.2486 31.3607 95.2486 31.1825V30.3743C95.2486 29.9105 95.0471 29.6786 94.644 29.6786C94.4637 29.6786 94.2966 29.7211 94.1427 29.8062C93.9969 29.8892 93.9239 29.9753 93.9239 30.0644V31.1764C93.9239 31.3668 94.0485 31.4732 94.2976 31.4954C94.3928 31.5035 94.4404 31.5339 94.4404 31.5866C94.4404 31.6372 94.4273 31.6676 94.4009 31.6777C94.3888 31.6818 94.3543 31.6828 94.2976 31.6808C93.9796 31.6686 93.6515 31.6848 93.3133 31.7294C93.2403 31.7395 93.1948 31.7425 93.1765 31.7385C93.136 31.7304 93.1158 31.699 93.1158 31.6443C93.1158 31.5957 93.1735 31.5542 93.289 31.5197C93.3963 31.4873 93.45 31.3526 93.45 31.1157V30.1951C93.45 30.0391 93.4297 29.9399 93.3892 29.8973C93.3609 29.867 93.2667 29.8244 93.1067 29.7697C93.0662 29.7556 93.0459 29.7272 93.0459 29.6847C93.0459 29.6442 93.0874 29.6087 93.1705 29.5783C93.2839 29.5358 93.4085 29.4679 93.5442 29.3748C93.6576 29.2978 93.7305 29.2593 93.7629 29.2593C93.8176 29.2593 93.8541 29.3216 93.8723 29.4462C93.8905 29.5707 93.9158 29.633 93.9482 29.633C93.932 29.633 94.0353 29.5738 94.2581 29.4553C94.4809 29.3368 94.7007 29.2776 94.9174 29.2776C95.442 29.2776 95.7063 29.5763 95.7104 30.1738L95.7165 31.1521C95.7165 31.2777 95.7489 31.3678 95.8137 31.4225C95.8623 31.463 95.9565 31.4975 96.0962 31.5258C96.1874 31.544 96.233 31.5775 96.233 31.6261Z" fill="white"/>
<path d="M98.1832 31.3952C98.1832 31.4924 98.094 31.5754 97.9158 31.6443C97.7578 31.7051 97.5978 31.7355 97.4358 31.7355C96.9962 31.7355 96.7765 31.5015 96.7765 31.0336V29.9338C96.7765 29.794 96.7653 29.7085 96.7431 29.6771C96.7208 29.6457 96.6468 29.6148 96.5213 29.5844C96.4889 29.5763 96.4727 29.5449 96.4727 29.4902C96.4727 29.4315 96.4848 29.396 96.5091 29.3839C96.7279 29.2765 96.9183 29.0841 97.0803 28.8066C97.1026 28.7682 97.1461 28.756 97.2109 28.7702C97.2555 28.7844 97.2788 28.8107 97.2808 28.8492L97.293 29.2289C97.293 29.2573 97.298 29.2776 97.3082 29.2897C97.3224 29.3079 97.3548 29.3171 97.4054 29.317H98.0829C98.1214 29.3171 98.1214 29.3646 98.0829 29.4598C98.0363 29.5753 97.9675 29.633 97.8763 29.633H97.4175C97.3386 29.633 97.2899 29.6462 97.2717 29.6725C97.2575 29.6907 97.2504 29.7404 97.2504 29.8214V30.8149C97.2504 31.066 97.2727 31.225 97.3173 31.2919C97.376 31.3769 97.5127 31.4195 97.7274 31.4195C97.7983 31.4195 97.8844 31.4078 97.9857 31.3845C98.087 31.3612 98.1406 31.3496 98.1467 31.3496C98.171 31.3496 98.1832 31.3648 98.1832 31.3952Z" fill="white"/>
<path d="M99.5624 31.5319C99.5624 32.0585 99.3406 32.4545 98.897 32.7198C98.8565 32.7441 98.8271 32.7563 98.8089 32.7563C98.7806 32.7563 98.7542 32.7239 98.7299 32.6591C98.7218 32.6368 98.7178 32.6185 98.7178 32.6044C98.7178 32.5699 98.7755 32.5132 98.891 32.4342C99.0894 32.2965 99.1887 32.1405 99.1887 31.9663C99.1887 31.8772 99.131 31.7962 99.0155 31.7233C98.8535 31.622 98.7725 31.4974 98.7725 31.3496C98.7725 31.2503 98.8059 31.1678 98.8727 31.102C98.9396 31.0361 99.0287 31.0032 99.1401 31.0032C99.2738 31.0032 99.3776 31.0518 99.4515 31.1491C99.5254 31.2463 99.5624 31.3739 99.5624 31.5319Z" fill="white"/>
<path d="M55.8089 36.0564C55.8089 36.4088 55.6783 36.7071 55.417 36.9511C55.1557 37.1952 54.8316 37.3172 54.4448 37.3172C54.0579 37.3172 53.7521 37.2099 53.5272 36.9952C53.3105 36.7845 53.2021 36.506 53.2021 36.1597C53.2021 35.8012 53.3389 35.4994 53.6123 35.2543C53.8776 35.0173 54.1946 34.8988 54.5633 34.8988C54.9582 34.8988 55.2661 35.0052 55.4869 35.2178C55.7016 35.4244 55.8089 35.7039 55.8089 36.0564ZM55.2742 36.2417C55.2742 35.9237 55.1972 35.6655 55.0433 35.467C54.8934 35.2745 54.703 35.1783 54.4721 35.1783C54.2574 35.1783 54.0822 35.2538 53.9465 35.4047C53.8108 35.5556 53.7429 35.7394 53.7429 35.9561C53.7429 36.3045 53.8219 36.5759 53.9799 36.7703C54.1258 36.9486 54.3162 37.0377 54.5511 37.0377C54.7739 37.0377 54.9501 36.9638 55.0798 36.8159C55.2094 36.6681 55.2742 36.4767 55.2742 36.2417Z" fill="white"/>
<path d="M59.5064 37.2261C59.5064 37.2889 59.4608 37.3172 59.3697 37.3111C58.9342 37.2889 58.6041 37.2848 58.3792 37.299C58.2638 37.3071 58.201 37.2929 58.1909 37.2564C58.1868 37.2443 58.1848 37.2271 58.1848 37.2048C58.1848 37.1643 58.2435 37.1278 58.361 37.0954C58.4683 37.065 58.522 36.9607 58.522 36.7825V35.9743C58.522 35.5105 58.3205 35.2786 57.9174 35.2786C57.7372 35.2786 57.5701 35.3211 57.4161 35.4062C57.2703 35.4892 57.1974 35.5753 57.1974 35.6644V36.7764C57.1974 36.9668 57.3219 37.0731 57.5711 37.0954C57.6663 37.1035 57.7139 37.1339 57.7139 37.1866C57.7139 37.2372 57.7007 37.2676 57.6744 37.2777C57.6622 37.2818 57.6278 37.2828 57.5711 37.2808C57.2531 37.2686 56.9249 37.2848 56.5867 37.3294C56.5138 37.3395 56.4682 37.3425 56.45 37.3385C56.4095 37.3304 56.3892 37.299 56.3892 37.2443C56.3892 37.1957 56.4469 37.1542 56.5624 37.1197C56.6697 37.0873 56.7234 36.9526 56.7234 36.7157V35.7951C56.7234 35.6391 56.7031 35.5399 56.6627 35.4973C56.6343 35.467 56.5401 35.4244 56.3801 35.3697C56.3396 35.3556 56.3193 35.3272 56.3193 35.2847C56.3193 35.2442 56.3609 35.2087 56.4439 35.1783C56.5573 35.1358 56.6819 35.0679 56.8176 34.9748C56.931 34.8978 57.0039 34.8593 57.0364 34.8593C57.091 34.8593 57.1275 34.9216 57.1457 35.0462C57.1639 35.1707 57.1893 35.233 57.2217 35.233C57.2055 35.233 57.3088 35.1738 57.5316 35.0553C57.7544 34.9368 57.9741 34.8775 58.1909 34.8775C58.7155 34.8775 58.9798 35.1763 58.9838 35.7738L58.9899 36.7521C58.9899 36.8777 59.0223 36.9678 59.0871 37.0225C59.1357 37.063 59.2299 37.0975 59.3697 37.1258C59.4608 37.144 59.5064 37.1775 59.5064 37.2261Z" fill="white"/>
<path d="M62.0463 36.7703C62.0463 36.8574 61.9289 36.9658 61.6939 37.0954C61.4265 37.2392 61.1521 37.3111 60.8706 37.3111C60.5647 37.3111 60.3075 37.2109 60.0988 37.0104C59.876 36.7977 59.7646 36.5141 59.7646 36.1597C59.7646 35.7586 59.8892 35.4366 60.1383 35.1935C60.3713 34.9667 60.6569 34.8532 60.9951 34.8532C61.1956 34.8532 61.383 34.917 61.5572 35.0446C61.7131 35.1581 61.8164 35.2877 61.8671 35.4335C61.8853 35.4842 61.9126 35.5125 61.9491 35.5186C62.0018 35.5287 62.0281 35.5642 62.0281 35.6249C62.0281 35.708 61.9289 35.7789 61.7304 35.8376L60.3298 36.2538C60.4209 36.7359 60.668 36.9769 61.0711 36.9769C61.304 36.9769 61.5693 36.8919 61.8671 36.7217C61.9116 36.6954 61.9552 36.6822 61.9977 36.6822C62.0301 36.6822 62.0463 36.7116 62.0463 36.7703ZM61.3263 35.552C61.3263 35.4406 61.2812 35.3429 61.1911 35.2588C61.1009 35.1748 60.9901 35.1328 60.8584 35.1328C60.4857 35.1328 60.2994 35.4011 60.2994 35.9379V36.0108L61.1258 35.7617C61.2594 35.7232 61.3263 35.6533 61.3263 35.552Z" fill="white"/>
<path d="M66.911 36.983C66.9191 37.0012 66.9232 37.0144 66.9232 37.0225C66.9232 37.065 66.8199 37.1349 66.6133 37.2321C66.3743 37.3435 66.2335 37.3992 66.191 37.3992C66.1545 37.3992 66.1125 37.338 66.0649 37.2154C66.0173 37.0929 65.9844 37.0316 65.9661 37.0316C65.9681 37.0316 65.8532 37.0848 65.6213 37.1911C65.3894 37.2975 65.2137 37.3506 65.0942 37.3506C64.8268 37.3506 64.5949 37.2544 64.3984 37.062C64.1615 36.8331 64.043 36.5121 64.043 36.0989C64.043 35.7525 64.1827 35.4538 64.4622 35.2026C64.7093 34.9819 64.9615 34.8715 65.2187 34.8715C65.401 34.8715 65.6188 34.8948 65.872 34.9413C65.951 34.9555 65.9904 34.9322 65.9905 34.8715V33.8324C65.9904 33.7149 65.9621 33.6319 65.9054 33.5833C65.8689 33.5509 65.7828 33.5124 65.6471 33.4678C65.5823 33.4435 65.5499 33.404 65.5499 33.3493C65.5499 33.2987 65.5935 33.2612 65.6806 33.2369C65.8001 33.2005 65.9429 33.1397 66.1089 33.0546C66.2467 32.9817 66.3317 32.9453 66.3641 32.9453C66.4391 32.9453 66.4766 32.9969 66.4766 33.1002C66.4766 33.0982 66.4735 33.1989 66.4675 33.4025C66.4614 33.6061 66.4583 33.8041 66.4583 33.9965V36.7582C66.4583 36.8736 66.51 36.9314 66.6133 36.9314C66.6518 36.9314 66.7034 36.9253 66.7682 36.9131C66.8391 36.901 66.8867 36.9243 66.911 36.983ZM65.9722 36.6822V35.5946C65.9722 35.5054 65.8932 35.4133 65.7352 35.3181C65.5671 35.2168 65.3848 35.1662 65.1884 35.1662C64.765 35.1662 64.5534 35.4275 64.5534 35.95C64.5534 36.2295 64.6374 36.4685 64.8056 36.667C64.9737 36.8655 65.1712 36.9648 65.398 36.9648C65.5013 36.9648 65.6228 36.9304 65.7626 36.8615C65.9023 36.7926 65.9722 36.7329 65.9722 36.6822Z" fill="white"/>
<path d="M69.2046 35.1267C69.2046 35.3718 69.1337 35.4943 68.992 35.4943C68.9697 35.4943 68.8958 35.4801 68.7702 35.4518C68.6446 35.4234 68.5524 35.4092 68.4937 35.4092C68.2668 35.4092 68.1534 35.5622 68.1534 35.868V36.7643C68.1534 36.8696 68.1899 36.9445 68.2628 36.9891C68.3053 37.0154 68.4117 37.0509 68.5818 37.0954C68.673 37.1177 68.7185 37.1521 68.7185 37.1987C68.7185 37.2534 68.7109 37.2863 68.6957 37.2975C68.6805 37.3086 68.6426 37.3111 68.5818 37.3051C68.1362 37.2585 67.7838 37.2565 67.5245 37.299C67.4435 37.3132 67.3918 37.3132 67.3696 37.299C67.3513 37.2869 67.3422 37.2514 67.3422 37.1927C67.3422 37.138 67.3984 37.0944 67.5108 37.062C67.6233 37.0296 67.6795 36.9324 67.6795 36.7704V35.7951C67.6795 35.6675 67.6628 35.5814 67.6293 35.5369C67.5959 35.4923 67.5043 35.4325 67.3544 35.3576L67.3362 35.3485C67.2956 35.3282 67.2754 35.2999 67.2754 35.2634C67.2754 35.2229 67.3169 35.1885 67.4 35.1601C67.5397 35.1115 67.6673 35.0426 67.7828 34.9535C67.878 34.8786 67.9387 34.8411 67.9651 34.8411C68.038 34.8411 68.0815 34.9039 68.0957 35.0295C68.1139 35.1895 68.1352 35.2695 68.1595 35.2695C68.1615 35.2695 68.275 35.1935 68.4998 35.0416C68.6476 34.9424 68.8097 34.8928 68.9859 34.8928C69.1317 34.8928 69.2046 34.9707 69.2046 35.1267Z" fill="white"/>
<path d="M72.2152 36.0564C72.2152 36.4088 72.0845 36.7071 71.8232 36.9511C71.562 37.1952 71.2379 37.3172 70.851 37.3172C70.4642 37.3172 70.1583 37.2099 69.9335 36.9952C69.7168 36.7845 69.6084 36.506 69.6084 36.1597C69.6084 35.8012 69.7451 35.4994 70.0186 35.2543C70.2839 35.0173 70.6009 34.8988 70.9695 34.8988C71.3645 34.8988 71.6723 35.0052 71.8931 35.2178C72.1078 35.4244 72.2152 35.7039 72.2152 36.0564ZM71.6804 36.2417C71.6804 35.9237 71.6035 35.6655 71.4495 35.467C71.2997 35.2745 71.1093 35.1783 70.8784 35.1783C70.6637 35.1783 70.4885 35.2538 70.3528 35.4047C70.217 35.5556 70.1492 35.7394 70.1492 35.9561C70.1492 36.3045 70.2282 36.5759 70.3862 36.7703C70.532 36.9486 70.7224 37.0377 70.9574 37.0377C71.1802 37.0377 71.3564 36.9638 71.486 36.8159C71.6156 36.6681 71.6804 36.4767 71.6804 36.2417Z" fill="white"/>
<path d="M75.3903 35.9743C75.3903 36.3531 75.2632 36.6746 75.009 36.939C74.7548 37.2033 74.4586 37.3354 74.1203 37.3354C73.9158 37.3354 73.7183 37.299 73.5279 37.2261C73.5076 37.218 73.4975 37.2676 73.4975 37.3749V38.2894C73.4975 38.4373 73.618 38.5325 73.859 38.575C73.9704 38.5953 74.0408 38.614 74.0702 38.6312C74.0996 38.6485 74.1143 38.6773 74.1143 38.7178C74.1143 38.7867 74.0687 38.8181 73.9775 38.812C73.5522 38.7836 73.1785 38.7938 72.8564 38.8424C72.7896 38.8525 72.7481 38.8525 72.7319 38.8424C72.7157 38.8323 72.7076 38.8049 72.7076 38.7604C72.7076 38.7259 72.7653 38.6844 72.8808 38.6358C72.98 38.5953 73.0296 38.4981 73.0296 38.3441V35.6644C73.0296 35.4477 72.9699 35.312 72.8504 35.2573C72.7086 35.1945 72.6377 35.1429 72.6377 35.1024C72.6377 35.0578 72.6792 35.0244 72.7623 35.0021C72.8696 34.9758 72.98 34.9292 73.0934 34.8624C73.1886 34.8077 73.2463 34.7803 73.2666 34.7803C73.3274 34.7803 73.377 34.836 73.4155 34.9474C73.4722 35.1095 73.5097 35.1905 73.5279 35.1905C73.5319 35.1905 73.619 35.1429 73.7892 35.0477C73.9755 34.9444 74.1578 34.8927 74.336 34.8927C74.6257 34.8927 74.8647 34.9748 75.0531 35.1388C75.2779 35.3312 75.3903 35.6097 75.3903 35.9743ZM74.8738 36.2174C74.8738 35.8872 74.7918 35.63 74.6277 35.4457C74.494 35.2918 74.3371 35.2148 74.1568 35.2148C74.017 35.2148 73.8834 35.2634 73.7558 35.3606C73.5876 35.4862 73.5036 35.6614 73.5036 35.8862V36.746C73.5036 36.8007 73.5805 36.8584 73.7345 36.9192C73.9006 36.9861 74.0808 37.0195 74.2753 37.0195C74.6743 37.0195 74.8738 36.7521 74.8738 36.2174Z" fill="white"/>
<path d="M79.8927 36.9891C79.8927 37.0316 79.8152 37.0959 79.6603 37.182C79.5053 37.2681 79.3813 37.3111 79.2881 37.3111C79.2091 37.3111 79.1392 37.2727 79.0785 37.1957C79.0177 37.1187 78.9752 37.0802 78.9508 37.0802C78.9326 37.0802 78.8364 37.1218 78.6622 37.2048C78.488 37.2878 78.3128 37.3294 78.1366 37.3294C77.9705 37.3294 77.8318 37.2808 77.7204 37.1835C77.5988 37.0762 77.5381 36.9303 77.5381 36.746C77.5381 36.3956 77.9391 36.1445 78.7412 35.9926C78.8789 35.9662 78.9488 35.9105 78.9508 35.8255L78.9569 35.631C78.9691 35.2988 78.8222 35.1328 78.5164 35.1327C78.4293 35.1328 78.3467 35.2107 78.2688 35.3667C78.1908 35.5227 78.0789 35.6067 77.933 35.6189C77.767 35.6351 77.6839 35.5652 77.6839 35.4092C77.6839 35.312 77.8075 35.1986 78.0546 35.0689C78.3138 34.9332 78.563 34.8654 78.802 34.8654C79.2131 34.8654 79.4167 35.0608 79.4126 35.4518L79.4005 36.7035C79.3985 36.8352 79.4542 36.901 79.5676 36.901C79.5899 36.901 79.6324 36.8959 79.6952 36.8858C79.758 36.8756 79.7944 36.8706 79.8046 36.8706C79.8633 36.8706 79.8927 36.9101 79.8927 36.9891ZM78.9569 36.2964C78.9589 36.2457 78.9473 36.2123 78.922 36.1961C78.8967 36.1799 78.8567 36.1769 78.802 36.187C78.3138 36.2741 78.0698 36.4331 78.0698 36.664C78.0698 36.8969 78.1964 37.0134 78.4495 37.0134C78.5508 37.0134 78.6551 36.9942 78.7625 36.9557C78.8881 36.9111 78.9508 36.8574 78.9508 36.7946L78.9569 36.2964Z" fill="white"/>
<path d="M81.9351 36.9952C81.9351 37.0924 81.846 37.1754 81.6678 37.2443C81.5098 37.3051 81.3498 37.3354 81.1877 37.3354C80.7482 37.3354 80.5284 37.1015 80.5284 36.6336V35.5338C80.5284 35.394 80.5173 35.3085 80.495 35.2771C80.4727 35.2457 80.3988 35.2148 80.2732 35.1844C80.2408 35.1763 80.2246 35.1449 80.2246 35.0902C80.2246 35.0315 80.2368 34.996 80.2611 34.9839C80.4798 34.8765 80.6702 34.6841 80.8322 34.4066C80.8545 34.3681 80.8981 34.356 80.9629 34.3702C81.0075 34.3843 81.0307 34.4107 81.0328 34.4492L81.0449 34.8289C81.0449 34.8573 81.05 34.8775 81.0601 34.8897C81.0743 34.9079 81.1067 34.917 81.1573 34.917H81.8349C81.8733 34.917 81.8733 34.9646 81.8349 35.0598C81.7883 35.1753 81.7194 35.233 81.6283 35.233H81.1695C81.0905 35.233 81.0419 35.2462 81.0237 35.2725C81.0095 35.2907 81.0024 35.3404 81.0024 35.4214V36.4149C81.0024 36.666 81.0247 36.825 81.0692 36.8919C81.128 36.9769 81.2647 37.0195 81.4794 37.0195C81.5503 37.0195 81.6364 37.0078 81.7376 36.9845C81.8389 36.9612 81.8926 36.9496 81.8987 36.9496C81.923 36.9496 81.9351 36.9648 81.9351 36.9952Z" fill="white"/>
<path d="M86.3341 36.9891C86.3341 37.0316 86.2566 37.0959 86.1017 37.182C85.9467 37.2681 85.8227 37.3111 85.7295 37.3111C85.6505 37.3111 85.5806 37.2727 85.5199 37.1957C85.4591 37.1187 85.4166 37.0802 85.3923 37.0802C85.374 37.0802 85.2778 37.1218 85.1036 37.2048C84.9294 37.2878 84.7542 37.3294 84.578 37.3294C84.4119 37.3294 84.2732 37.2808 84.1618 37.1835C84.0403 37.0762 83.9795 36.9303 83.9795 36.746C83.9795 36.3956 84.3805 36.1445 85.1826 35.9926C85.3203 35.9662 85.3902 35.9105 85.3923 35.8255L85.3983 35.631C85.4105 35.2988 85.2636 35.1328 84.9578 35.1327C84.8707 35.1328 84.7881 35.2107 84.7102 35.3667C84.6322 35.5227 84.5203 35.6067 84.3744 35.6189C84.2084 35.6351 84.1253 35.5652 84.1253 35.4092C84.1253 35.312 84.2489 35.1986 84.496 35.0689C84.7552 34.9332 85.0044 34.8654 85.2434 34.8654C85.6545 34.8654 85.8581 35.0608 85.854 35.4518L85.8419 36.7035C85.8399 36.8352 85.8956 36.901 86.009 36.901C86.0313 36.901 86.0738 36.8959 86.1366 36.8858C86.1994 36.8756 86.2358 36.8706 86.246 36.8706C86.3047 36.8706 86.3341 36.9101 86.3341 36.9891ZM85.3983 36.2964C85.4003 36.2457 85.3887 36.2123 85.3634 36.1961C85.3381 36.1799 85.2981 36.1769 85.2434 36.187C84.7552 36.2741 84.5112 36.4331 84.5112 36.664C84.5112 36.8969 84.6378 37.0134 84.891 37.0134C84.9922 37.0134 85.0965 36.9942 85.2039 36.9557C85.3295 36.9111 85.3923 36.8574 85.3923 36.7946L85.3983 36.2964Z" fill="white"/>
<path d="M89.9195 36.9952C89.9195 37.0924 89.8304 37.1754 89.6521 37.2443C89.4941 37.3051 89.3341 37.3354 89.1721 37.3354C88.7326 37.3354 88.5128 37.1015 88.5128 36.6336V35.5338C88.5128 35.394 88.5017 35.3085 88.4794 35.2771C88.4571 35.2457 88.3832 35.2148 88.2576 35.1844C88.2252 35.1763 88.209 35.1449 88.209 35.0902C88.209 35.0315 88.2211 34.996 88.2454 34.9839C88.4642 34.8765 88.6546 34.6841 88.8166 34.4066C88.8389 34.3681 88.8825 34.356 88.9473 34.3702C88.9918 34.3843 89.0151 34.4107 89.0171 34.4492L89.0293 34.8289C89.0293 34.8573 89.0344 34.8775 89.0445 34.8897C89.0587 34.9079 89.0911 34.917 89.1417 34.917H89.8192C89.8577 34.917 89.8577 34.9646 89.8192 35.0598C89.7727 35.1753 89.7038 35.233 89.6126 35.233H89.1539C89.0749 35.233 89.0263 35.2462 89.008 35.2725C88.9939 35.2907 88.9868 35.3404 88.9868 35.4214V36.4149C88.9868 36.666 89.0091 36.825 89.0536 36.8919C89.1124 36.9769 89.2491 37.0195 89.4638 37.0195C89.5347 37.0195 89.6207 37.0078 89.722 36.9845C89.8233 36.9612 89.877 36.9496 89.883 36.9496C89.9073 36.9496 89.9195 36.9648 89.9195 36.9952Z" fill="white"/>
<path d="M91.4412 33.7656C91.4412 33.8587 91.4062 33.9453 91.3364 34.0253C91.2665 34.1053 91.19 34.1454 91.107 34.1453C91.0118 34.1454 90.9338 34.117 90.873 34.0603C90.8123 34.0036 90.7819 33.9296 90.7819 33.8385C90.7819 33.7494 90.8189 33.6663 90.8928 33.5894C90.9667 33.5124 91.0462 33.4739 91.1313 33.4739C91.3379 33.4739 91.4412 33.5711 91.4412 33.7656ZM91.7784 37.2048C91.7683 37.2635 91.744 37.297 91.7055 37.3051C91.6954 37.3071 91.6468 37.3051 91.5597 37.299C91.2579 37.2788 90.9612 37.2828 90.6695 37.3112C90.5905 37.3193 90.5409 37.3162 90.5206 37.302C90.5003 37.2879 90.4902 37.2555 90.4902 37.2048C90.4902 37.1582 90.5439 37.1198 90.6513 37.0894C90.7687 37.0549 90.8275 36.9425 90.8275 36.7521V35.9561C90.8275 35.7961 90.8113 35.6837 90.7789 35.6189C90.7343 35.5298 90.6421 35.4619 90.5024 35.4153C90.4396 35.3931 90.4082 35.3596 90.4082 35.3151C90.4082 35.2563 90.4538 35.2128 90.5449 35.1844C90.7151 35.1318 90.866 35.0619 90.9976 34.9748C91.1029 34.9019 91.1678 34.8654 91.1921 34.8654C91.2731 34.8654 91.3126 34.9181 91.3105 35.0234C91.3024 35.5541 91.2984 36.0949 91.2984 36.6458C91.2984 36.7775 91.3176 36.8716 91.3561 36.9284C91.3987 36.9911 91.4797 37.0357 91.5992 37.062C91.7308 37.0924 91.7906 37.14 91.7784 37.2048Z" fill="white"/>
<path d="M97.1285 37.1987C97.1285 37.2656 97.0971 37.297 97.0343 37.2929C96.6211 37.2625 96.2363 37.2625 95.8798 37.2929C95.8008 37.299 95.7613 37.2635 95.7613 37.1866C95.7613 37.1258 95.815 37.0934 95.9223 37.0894C96.058 37.0812 96.1259 36.9709 96.1259 36.7582V35.95C96.1259 35.4963 95.9416 35.2695 95.5729 35.2695C95.3785 35.2695 95.2002 35.3049 95.0382 35.3758C94.8903 35.4386 94.8154 35.5014 94.8134 35.5642L94.8012 36.7703C94.8012 36.8959 94.8164 36.979 94.8468 37.0195C94.8691 37.0478 94.9187 37.0681 94.9957 37.0802C95.1739 37.1106 95.263 37.1481 95.263 37.1927C95.263 37.2311 95.258 37.2575 95.2478 37.2716C95.2357 37.2919 95.1992 37.301 95.1385 37.299C94.9075 37.2909 94.5713 37.2949 94.1298 37.3111C94.067 37.3131 94.0265 37.3081 94.0082 37.2959C93.99 37.2838 93.9809 37.2554 93.9809 37.2109C93.9809 37.1582 94.0386 37.1258 94.1541 37.1137C94.2797 37.0995 94.3424 36.985 94.3424 36.7703V35.9439C94.3424 35.7211 94.2918 35.549 94.1905 35.4275C94.1014 35.3181 93.988 35.2634 93.8503 35.2634C93.6477 35.2634 93.4654 35.3044 93.3034 35.3864C93.1413 35.4685 93.0603 35.5561 93.0603 35.6492V36.7582C93.0603 36.8838 93.0927 36.9709 93.1576 37.0195C93.2163 37.064 93.3226 37.0914 93.4766 37.1015C93.5596 37.1055 93.6011 37.1339 93.6011 37.1866C93.6011 37.2453 93.5677 37.2747 93.5009 37.2747C92.9945 37.2747 92.6279 37.2889 92.401 37.3172C92.3241 37.3273 92.2745 37.3273 92.2522 37.3172C92.2339 37.3071 92.2248 37.2828 92.2248 37.2443C92.2248 37.1937 92.2998 37.1501 92.4497 37.1137C92.5408 37.0893 92.5864 36.9709 92.5864 36.7582V35.8255C92.5864 35.5885 92.5226 35.4518 92.395 35.4153C92.2876 35.3849 92.2223 35.3626 92.199 35.3485C92.1757 35.3343 92.1641 35.311 92.1641 35.2786C92.1641 35.2421 92.2694 35.1652 92.48 35.0477C92.7028 34.9221 92.8396 34.8593 92.8902 34.8593C92.9327 34.8593 92.9687 34.9206 92.998 35.0431C93.0274 35.1657 93.0502 35.2269 93.0664 35.2269C93.0887 35.2269 93.1505 35.1955 93.2517 35.1328C93.3773 35.0538 93.4907 34.995 93.592 34.9565C93.7581 34.8917 93.9293 34.8593 94.1055 34.8593C94.2472 34.8593 94.3708 34.8897 94.4761 34.9505C94.549 34.991 94.6149 35.0467 94.6736 35.1176C94.7222 35.1783 94.7465 35.2087 94.7465 35.2087C94.7465 35.2087 94.7992 35.1783 94.9045 35.1176C95.0281 35.0467 95.1486 34.991 95.2661 34.9505C95.4382 34.8897 95.6053 34.8593 95.7674 34.8593C96.3223 34.8593 96.5998 35.1641 96.5998 35.7738V36.7582C96.5998 36.8736 96.6272 36.9557 96.6819 37.0043C96.7305 37.0448 96.8257 37.0792 96.9674 37.1076C97.0748 37.1278 97.1285 37.1582 97.1285 37.1987Z" fill="white"/>
<path d="M99.6957 36.7703C99.6957 36.8574 99.5783 36.9658 99.3433 37.0954C99.076 37.2392 98.8015 37.3111 98.52 37.3111C98.2141 37.3111 97.9569 37.2109 97.7483 37.0104C97.5255 36.7977 97.4141 36.5141 97.4141 36.1597C97.4141 35.7586 97.5386 35.4366 97.7878 35.1935C98.0207 34.9667 98.3063 34.8532 98.6445 34.8532C98.8451 34.8532 99.0324 34.917 99.2066 35.0446C99.3626 35.1581 99.4659 35.2877 99.5165 35.4335C99.5347 35.4842 99.5621 35.5125 99.5985 35.5186C99.6512 35.5287 99.6775 35.5642 99.6775 35.6249C99.6775 35.708 99.5783 35.7789 99.3798 35.8376L97.9792 36.2538C98.0703 36.7359 98.3174 36.9769 98.7205 36.9769C98.9534 36.9769 99.2187 36.8919 99.5165 36.7217C99.5611 36.6954 99.6046 36.6822 99.6471 36.6822C99.6795 36.6822 99.6957 36.7116 99.6957 36.7703ZM98.9757 35.552C98.9757 35.4406 98.9306 35.3429 98.8405 35.2588C98.7504 35.1748 98.6395 35.1328 98.5078 35.1328C98.1351 35.1328 97.9488 35.4011 97.9488 35.9379V36.0108L98.7752 35.7617C98.9089 35.7232 98.9757 35.6533 98.9757 35.552Z" fill="white"/>
</svg>
