<svg width="30" height="30" viewBox="0 0 30 30" fill="none" xmlns="http://www.w3.org/2000/svg">
<g clip-path="url(#clip0_507_584)">
<path d="M0 0H30V30H0V0Z" fill="#F7DF1E"/>
<path d="M7.88774 25.0702L10.1836 23.6808C10.6265 24.4661 11.0294 25.1305 11.9958 25.1305C12.9222 25.1305 13.5062 24.7681 13.5062 23.3586V13.7729H16.3255V23.3985C16.3255 26.3185 14.6138 27.6476 12.1166 27.6476C9.86136 27.6476 8.55222 26.4795 7.8877 25.07" fill="black"/>
<path d="M17.8574 24.7681L20.1529 23.439C20.7572 24.4259 21.5426 25.1508 22.932 25.1508C24.1002 25.1508 24.8451 24.5667 24.8451 23.7612C24.8451 22.7946 24.0799 22.4522 22.791 21.8885L22.0864 21.5862C20.0524 20.7205 18.7031 19.633 18.7031 17.3373C18.7031 15.2228 20.3141 13.6117 22.8314 13.6117C24.6237 13.6117 25.9125 14.236 26.8388 15.8672L24.6437 17.2768C24.1604 16.411 23.6369 16.0687 22.8315 16.0687C22.0058 16.0687 21.4822 16.5922 21.4822 17.2768C21.4822 18.1226 22.0058 18.465 23.2139 18.9887L23.9187 19.2907C26.3151 20.3178 27.6644 21.3649 27.6644 23.7209C27.6644 26.2584 25.6708 27.6478 22.9925 27.6478C20.3746 27.6478 18.6829 26.3993 17.8574 24.7681Z" fill="black"/>
</g>
<defs>
<clipPath id="clip0_507_584">
<rect width="30" height="30" fill="white"/>
</clipPath>
</defs>
</svg>
