<svg width="81" height="30" viewBox="0 0 81 30" fill="none" xmlns="http://www.w3.org/2000/svg">
<g clip-path="url(#clip0_457_2521)">
<path d="M6.0627 9.07432C5.90625 9.07432 5.86714 8.99609 5.94536 8.87875L6.76675 7.82269C6.84497 7.70535 7.04054 7.62712 7.19699 7.62712H21.1605C21.3169 7.62712 21.3561 7.74446 21.2778 7.8618L20.6129 8.87875C20.5347 8.99609 20.3391 9.11343 20.2218 9.11343L6.0627 9.07432Z" fill="#00ACD7"/>
<path d="M0.156454 12.6728C0 12.6728 -0.0391134 12.5945 0.0391134 12.4772L0.860496 11.4211C0.938722 11.3038 1.13429 11.2256 1.29074 11.2256H19.1265C19.2829 11.2256 19.3611 11.3429 19.322 11.4602L19.0091 12.399C18.97 12.5554 18.8136 12.6336 18.6571 12.6336L0.156454 12.6728Z" fill="#00ACD7"/>
<path d="M9.62227 16.2712C9.46582 16.2712 9.42671 16.1538 9.50493 16.0365L10.0525 15.0587C10.1307 14.9413 10.2872 14.824 10.4437 14.824H18.2663C18.4228 14.824 18.501 14.9413 18.501 15.0978L18.4228 16.0365C18.4228 16.193 18.2663 16.3103 18.149 16.3103L9.62227 16.2712Z" fill="#00ACD7"/>
<path d="M50.2212 8.37027C47.7571 8.99609 46.0752 9.46545 43.6502 10.0913C43.0635 10.2477 43.0244 10.2868 42.5159 9.70013C41.9292 9.0352 41.499 8.60495 40.6776 8.21382C38.2134 7.0013 35.8275 7.35332 33.598 8.80052C30.9383 10.5215 29.5694 13.0639 29.6085 16.2321C29.6476 19.3611 31.7988 21.9426 34.8888 22.3729C37.5485 22.7249 39.778 21.7862 41.5381 19.7914C41.8901 19.3611 42.203 18.8918 42.5941 18.3442C41.186 18.3442 39.4259 18.3442 35.0452 18.3442C34.2239 18.3442 34.0283 17.8357 34.3021 17.1708C34.8106 15.9583 35.7493 13.9244 36.2969 12.9074C36.4142 12.6728 36.688 12.2816 37.2747 12.2816C39.2695 12.2816 46.6228 12.2816 51.512 12.2816C51.4338 13.3377 51.4338 14.3937 51.2773 15.4498C50.8471 18.266 49.791 20.8475 48.07 23.116C45.2538 26.8318 41.5772 29.1395 36.9227 29.7653C33.0896 30.2738 29.5302 29.5306 26.4012 27.1838C23.5068 24.9935 21.864 22.0991 21.4338 18.5007C20.9253 14.2373 22.1769 10.4042 24.7584 7.04042C27.5355 3.40287 31.2121 1.09517 35.7102 0.273793C39.3868 -0.391136 42.907 0.039112 46.0752 2.19035C48.1482 3.55932 49.6345 5.43677 50.6124 7.70535C50.8471 8.05737 50.6906 8.25293 50.2212 8.37027Z" fill="#00ACD7"/>
<path d="M63.168 30C59.6087 29.9218 56.3623 28.9048 53.6244 26.558C51.3167 24.5632 49.8695 22.0209 49.4001 19.0091C48.6961 14.5893 49.9086 10.678 52.5683 7.19687C55.4236 3.44198 58.8656 1.48631 63.5201 0.664926C67.5096 -0.0391161 71.2645 0.352018 74.6674 2.65971C77.7573 4.77184 79.6739 7.62712 80.1824 11.382C80.8473 16.6623 79.3219 20.9648 75.6843 24.6415C73.1028 27.2621 69.9347 28.9048 66.2971 29.648C65.241 29.8435 64.185 29.8827 63.168 30ZM72.477 14.1982C72.4379 13.6897 72.4379 13.2986 72.3597 12.9074C71.6556 9.0352 68.0963 6.84485 64.3806 7.70534C60.743 8.52672 58.3962 10.8344 57.5357 14.5111C56.8317 17.5619 58.318 20.6519 61.1341 21.9035C63.2854 22.8422 65.4366 22.7249 67.5096 21.6688C70.5996 20.0652 72.2815 17.5619 72.477 14.1982Z" fill="#00ACD7"/>
</g>
<defs>
<clipPath id="clip0_457_2521">
<rect width="80.339" height="30" fill="white"/>
</clipPath>
</defs>
</svg>
