<svg width="90" height="30" viewBox="0 0 90 30" fill="none" xmlns="http://www.w3.org/2000/svg">
<g clip-path="url(#clip0_451_2147)">
<path fill-rule="evenodd" clip-rule="evenodd" d="M70.5185 28.3325C68.845 28.3325 67.238 28.3325 65.5543 28.3325C65.5543 27.7011 65.5543 27.08 65.5543 26.5203C64.7846 27.0073 64.0919 27.59 63.2948 27.9214C61.2335 28.7784 59.2694 28.3455 57.4701 27.1457C55.3144 25.708 54.0808 23.5941 53.4144 21.1587C52.4207 17.5266 52.6897 13.9827 54.5161 10.643C55.6502 8.5691 57.2178 6.90267 59.5769 6.24088C61.6115 5.67035 63.5328 5.97195 65.2201 7.33481C65.2566 7.36427 65.3015 7.40713 65.3645 7.43802C65.4455 7.11963 65.5115 6.77856 65.6101 6.4782C66.0021 5.28338 67.1591 4.48892 68.2438 4.6566C69.6973 4.88106 70.5167 5.8116 70.5174 7.25624C70.5194 14.1139 70.5185 20.9721 70.5185 27.83C70.5185 27.9789 70.5185 28.1278 70.5185 28.3325ZM65.7919 16.9011C65.7647 16.5721 65.7436 16.0696 65.6776 15.5727C65.5012 14.2457 65.1335 12.9871 64.2511 11.9359C63.0726 10.5318 61.2701 10.3843 59.9022 11.605C59.5576 11.9123 59.2549 12.2902 59.0135 12.685C58.0276 14.2993 57.7365 16.0782 57.868 17.9382C57.9791 19.5157 58.3439 21.0145 59.3817 22.2682C59.9804 22.9909 60.7296 23.4784 61.6949 23.5289C62.9216 23.5927 63.6815 22.8186 64.3282 21.9418C65.3904 20.5016 65.7654 18.8361 65.7919 16.9011Z" fill="white"/>
<path fill-rule="evenodd" clip-rule="evenodd" d="M13.616 5.15714C13.616 5.15714 13.616 8.52035 13.616 10.2257C14.074 9.49071 14.4308 8.81106 14.8872 8.20589C16.483 6.08964 18.943 5.38571 21.12 6.44589C23.0617 7.3916 23.9961 9.05392 24.0135 11.15C24.0598 16.7823 24.0294 28.0478 24.0294 28.0478L24.0393 28.3198C24.0393 28.3198 20.737 28.3198 19.0602 28.3198C19.0602 22.5493 19.0688 10.825 19.0688 10.825L18.6598 11.1109L13.621 14.4464L13.6128 14.9273C13.6128 14.9273 13.6334 22.3039 13.5976 25.9916C13.5922 26.5516 13.4537 27.1746 13.1775 27.6545C12.5982 28.6618 11.4922 29.0048 10.3821 28.6721C9.36442 28.3671 8.6495 27.4071 8.63876 26.283C8.62516 24.8582 8.63518 23.433 8.63518 22.0082C8.63518 17.6832 8.62695 9.03285 8.62695 9.03285V8.52731L13.1591 5.47089L13.616 5.15714Z" fill="white"/>
<path fill-rule="evenodd" clip-rule="evenodd" d="M71.9492 6.7275C72.5403 6.7275 73.6007 6.7275 73.6007 6.7275L77.5176 6.715L77.7657 7.21857C77.7657 7.21857 79.5079 10.6884 80.3823 12.4216C80.4574 12.5698 80.5329 12.7179 80.6476 12.9432C80.7558 12.7404 80.8381 12.5932 80.9142 12.4427C81.8123 10.6652 83.6137 7.11268 83.6137 7.11268L83.8279 6.74553C83.8279 6.74553 87.5234 6.7291 89.3542 6.7291C89.2508 6.94785 89.1782 7.11071 89.0978 7.27C87.5327 10.3798 84.3915 16.5934 84.3915 16.5934L84.1628 17.053C84.1628 17.053 86.989 22.6236 88.2657 25.1855C89.061 26.7818 88.1743 28.5202 86.4339 28.8212C85.4026 28.9995 84.3471 28.4402 83.8277 27.4189C82.8491 25.4955 81.8797 23.567 80.9059 21.6409C80.8319 21.4937 80.7515 21.3498 80.6379 21.1377C79.2747 23.8395 77.9412 26.4812 76.5771 29.1846C75.1048 28.44 73.6497 27.7043 72.158 26.9502C72.2403 26.7682 72.3074 26.6062 72.3861 26.4498C73.8911 23.4595 77.124 17.0641 77.124 17.0641L76.9186 16.6045C76.9186 16.6045 73.7773 10.3909 72.2119 7.28125C72.1308 7.12089 72.0573 6.95678 71.9492 6.7275Z" fill="white"/>
<path fill-rule="evenodd" clip-rule="evenodd" d="M38.9717 8.07357C38.3306 9.52 37.7025 10.937 37.1126 12.2668C36.1979 11.83 35.3541 11.3389 34.4481 11.0264C33.8711 10.8271 33.1843 10.7727 32.5785 10.8643C31.2109 11.0709 30.642 12.6332 31.5579 13.6682C31.9894 14.1557 32.5723 14.5527 33.1575 14.8525C34.1835 15.378 35.2799 15.7646 36.3188 16.2673C38.5362 17.3402 39.5497 19.2041 39.6671 21.592C39.8555 25.4318 37.729 28.1541 33.9239 28.7068C30.9177 29.143 28.2747 28.2395 26.2115 25.9339C25.5494 25.1939 25.2578 24.3155 25.6258 23.3273C25.968 22.4087 26.6684 21.9196 27.6177 21.7646C28.2738 21.6575 28.8291 21.8655 29.3354 22.2889C29.8749 22.7395 30.415 23.2005 31.0095 23.5696C31.7829 24.0498 32.6324 24.2907 33.5504 23.96C34.2846 23.6954 34.8002 23.2068 34.9133 22.4266C35.0205 21.6862 34.8054 20.9771 34.1504 20.5779C33.4436 20.1475 32.6775 19.7873 31.8967 19.5102C30.6717 19.0748 29.472 18.6136 28.4862 17.7395C25.5186 15.1082 25.5995 10.2886 28.6288 7.69732C30.5538 6.05053 32.7616 5.75267 35.1477 6.26857C36.5396 6.5691 37.8295 7.10589 38.9717 8.07357Z" fill="white"/>
<path fill-rule="evenodd" clip-rule="evenodd" d="M44.0121 11.2554C43.3237 11.2554 42.7045 11.2582 42.0856 11.2548C40.8793 11.248 39.9133 10.3509 39.8938 9.22322C39.8752 8.14804 40.834 7.21054 42.0177 7.17125C42.6542 7.15018 43.292 7.1675 44.0123 7.1675C44.0123 6.56482 44.0137 5.40946 44.0137 5.40946L44.0284 3.58107L45.4956 2.60304L48.7021 0.433036L49.2019 0.118393V7.16607L52.0044 7.16946L52.1178 7.62589L52.9445 11.2446C52.9445 11.2446 50.496 11.2446 49.2454 11.2446C49.2454 17.4477 49.2454 29.9105 49.2454 29.9105C49.2454 29.9105 48.9481 29.7125 48.8513 29.6438C47.332 28.5693 44.0189 26.2443 44.0189 26.2443L44.0109 25.7409C44.0109 25.7409 44.0123 16.5246 44.0123 11.9164C44.0121 11.718 44.0121 11.5196 44.0121 11.2554Z" fill="white"/>
<path fill-rule="evenodd" clip-rule="evenodd" d="M5.30334 28.3387C3.5461 28.3387 0.101562 28.3387 0.101562 28.3387L0.104425 27.85C0.104425 27.85 0.100489 15.6143 0.105499 9.49678C0.106393 8.1791 0.841352 7.16357 1.99496 6.83589C3.66973 6.36 5.29476 7.585 5.3003 9.34768C5.30996 12.3814 5.30316 15.4154 5.30316 18.4486C5.30316 21.5495 5.30316 24.6502 5.30316 27.7509C5.30334 27.9318 5.30334 28.1125 5.30334 28.3387Z" fill="white"/>
<path fill-rule="evenodd" clip-rule="evenodd" d="M0.666016 2.13571C0.665658 1.00874 1.57899 0.090709 2.702 0.0892804C3.82555 0.0880304 4.74479 1.00607 4.74604 2.13035C4.74711 3.24857 3.82322 4.1791 2.70808 4.18285C1.59849 4.18696 0.666374 3.25232 0.666016 2.13571Z" fill="white"/>
</g>
<defs>
<clipPath id="clip0_451_2147">
<rect width="89.4545" height="30" fill="white"/>
</clipPath>
</defs>
</svg>
