<svg width="161" height="30" viewBox="0 0 161 30" fill="none" xmlns="http://www.w3.org/2000/svg">
<g clip-path="url(#clip0_453_2364)">
<path d="M79.7582 26.9795C79.7949 26.8475 79.8315 26.7119 79.8719 26.5726C79.9085 26.4333 79.9488 26.2903 79.9855 26.1437C80.1175 25.6342 80.2531 25.1466 80.3887 24.6738C80.528 24.2009 80.6673 23.7133 80.8139 23.2111H81.8807C81.6241 23.9956 81.3675 24.7764 81.1109 25.5535C80.8579 26.3306 80.6013 27.1078 80.3411 27.8886H79.1167C78.8601 27.1078 78.6035 26.3306 78.3506 25.5535C78.0977 24.7764 77.8447 23.9956 77.5918 23.2111H78.6585C78.8051 23.717 78.9444 24.2082 79.0837 24.6774C79.223 25.1503 79.3587 25.6378 79.4943 26.14C79.5309 26.2757 79.5639 26.415 79.6006 26.5543C79.6336 26.6936 79.6702 26.8365 79.7069 26.9758H79.7546L79.7582 26.9795ZM83.3653 27.8922V23.2148H84.3587V27.8922H83.3653ZM89.6519 24.6481C89.6519 24.8167 89.6263 24.9853 89.5713 25.1576C89.5163 25.3299 89.4283 25.4839 89.3073 25.6232C89.1864 25.7625 89.0287 25.8761 88.8345 25.9641C88.6402 26.0521 88.4056 26.096 88.1307 26.096H87.2802L87.2875 27.8922H86.2758V23.2148H88.05C88.5852 23.2148 88.9848 23.3431 89.2524 23.6034C89.5199 23.8636 89.6519 24.2119 89.6519 24.6518V24.6481ZM87.2802 23.9223V25.4106H87.94C88.0317 25.4106 88.1197 25.3959 88.2003 25.3739C88.2846 25.3482 88.3579 25.3079 88.4202 25.2493C88.4826 25.1906 88.5339 25.1136 88.5742 25.0183C88.6145 24.923 88.6328 24.8057 88.6328 24.6701C88.6328 24.4025 88.5632 24.2119 88.4239 24.0946C88.2846 23.9809 88.1123 23.9223 87.9034 23.9223H87.2765H87.2802ZM94.8902 23.1268C95.1211 23.1268 95.3667 23.1488 95.6307 23.1965C95.8946 23.2441 96.1402 23.3321 96.3711 23.4567L96.1109 24.1349C95.8799 24.0396 95.6526 23.9773 95.4364 23.9479C95.2164 23.9186 95.0222 23.904 94.8535 23.904C94.6409 23.904 94.4723 23.9553 94.3513 24.0543C94.2304 24.1532 94.168 24.3035 94.168 24.5015C94.168 24.5931 94.1937 24.6664 94.245 24.7287C94.2963 24.7911 94.366 24.8424 94.454 24.89C94.5419 24.934 94.6373 24.9743 94.7509 25.0073C94.8609 25.0403 94.9782 25.0696 95.0991 25.0953C95.2568 25.1356 95.429 25.1833 95.6123 25.2383C95.7956 25.2933 95.9642 25.3739 96.1219 25.4765C96.2795 25.5828 96.4078 25.7185 96.5104 25.8908C96.6131 26.063 96.6644 26.2867 96.6644 26.5616C96.6644 27.0051 96.4994 27.3497 96.1768 27.5916C95.8506 27.8336 95.3594 27.9545 94.7032 27.9545C94.5859 27.9545 94.454 27.9472 94.311 27.9326C94.168 27.9179 94.0214 27.8959 93.8711 27.8666C93.7208 27.8372 93.5705 27.7969 93.4239 27.7493C93.2736 27.7016 93.1307 27.643 92.995 27.577L93.2516 26.8695C93.5815 27.0015 93.8785 27.0858 94.1424 27.1224C94.4063 27.1591 94.6153 27.1774 94.7729 27.1774C95.0478 27.1774 95.2568 27.1298 95.3997 27.0381C95.539 26.9465 95.6087 26.7852 95.6087 26.5579C95.6087 26.4589 95.5903 26.3746 95.5537 26.3087C95.517 26.2427 95.4657 26.1877 95.396 26.14C95.3264 26.0924 95.2458 26.0521 95.1504 26.0191C95.0551 25.9861 94.9525 25.9567 94.8389 25.9238C94.6079 25.8651 94.388 25.8028 94.179 25.7441C93.9701 25.6818 93.7868 25.6012 93.6292 25.5022C93.4716 25.4032 93.3433 25.2786 93.2516 25.1246C93.16 24.9743 93.1123 24.7764 93.1123 24.5381C93.1123 24.1129 93.2626 23.7683 93.5595 23.5081C93.8565 23.2478 94.3 23.1158 94.8865 23.1158L94.8902 23.1268ZM101.133 27.8922V25.8138H99.3183C99.3183 26.162 99.3183 26.5103 99.3183 26.8585C99.3183 27.2067 99.3183 27.5513 99.3183 27.8959H98.3066V23.2258H99.3183C99.3183 23.5374 99.3183 23.849 99.3183 24.1569C99.3183 24.4648 99.3183 24.7764 99.3183 25.088H101.133V23.2258H102.145V27.8959H101.133V27.8922ZM108.241 25.5535C108.241 25.8981 108.197 26.217 108.105 26.5103C108.013 26.8035 107.878 27.0565 107.698 27.2727C107.518 27.489 107.291 27.6576 107.024 27.7786C106.752 27.8996 106.441 27.9619 106.082 27.9619C105.7 27.9619 105.37 27.9032 105.095 27.7896C104.821 27.676 104.59 27.511 104.414 27.3021C104.234 27.0931 104.102 26.8402 104.014 26.5469C103.93 26.2537 103.886 25.9311 103.886 25.5718C103.886 25.2346 103.926 24.923 104.01 24.6261C104.095 24.3328 104.223 24.0726 104.403 23.8526C104.579 23.629 104.806 23.4567 105.081 23.3284C105.356 23.2001 105.689 23.1378 106.082 23.1378C106.474 23.1378 106.804 23.2038 107.079 23.3321C107.354 23.4604 107.577 23.6364 107.749 23.8563C107.922 24.0762 108.046 24.3328 108.127 24.6224C108.208 24.9157 108.248 25.2273 108.248 25.5572L108.241 25.5535ZM107.174 25.5682C107.174 25.3556 107.159 25.1466 107.13 24.9414C107.101 24.7361 107.046 24.5528 106.965 24.3915C106.884 24.2302 106.774 24.0982 106.631 23.9993C106.488 23.9003 106.305 23.849 106.078 23.849C105.851 23.849 105.656 23.8966 105.51 23.9956C105.363 24.0909 105.246 24.2192 105.158 24.3805C105.073 24.5381 105.011 24.7214 104.982 24.9304C104.949 25.1393 104.934 25.3556 104.934 25.5755C104.934 26.107 105.018 26.5139 105.191 26.8035C105.359 27.0931 105.656 27.2361 106.078 27.2361C106.272 27.2361 106.441 27.1957 106.58 27.1114C106.719 27.0271 106.833 26.9098 106.921 26.7595C107.005 26.6092 107.071 26.4333 107.112 26.2317C107.152 26.0301 107.174 25.8101 107.174 25.5682ZM109.956 27.8922V23.2148H113.178V23.9223H110.968V25.1136H112.823V25.7808H110.968V27.1811H113.274V27.8959H109.956V27.8922ZM116.635 23.1268C116.866 23.1268 117.112 23.1488 117.376 23.1965C117.639 23.2441 117.885 23.3321 118.116 23.4567L117.856 24.1349C117.625 24.0396 117.398 23.9773 117.181 23.9479C116.961 23.9186 116.767 23.904 116.598 23.904C116.386 23.904 116.217 23.9553 116.096 24.0543C115.975 24.1532 115.913 24.3035 115.913 24.5015C115.913 24.5931 115.939 24.6664 115.99 24.7287C116.041 24.7911 116.111 24.8424 116.199 24.89C116.283 24.934 116.382 24.9743 116.496 25.0073C116.606 25.0403 116.723 25.0696 116.848 25.0953C117.005 25.1356 117.178 25.1833 117.361 25.2383C117.544 25.2933 117.713 25.3739 117.87 25.4765C118.028 25.5828 118.156 25.7185 118.259 25.8908C118.362 26.063 118.413 26.2867 118.413 26.5616C118.413 27.0051 118.248 27.3497 117.922 27.5916C117.595 27.8336 117.104 27.9545 116.448 27.9545C116.331 27.9545 116.199 27.9472 116.056 27.9326C115.913 27.9179 115.766 27.8959 115.616 27.8666C115.466 27.8372 115.315 27.7969 115.169 27.7493C115.018 27.7016 114.876 27.643 114.74 27.577L115 26.8695C115.33 27.0015 115.627 27.0858 115.891 27.1224C116.155 27.1591 116.364 27.1774 116.521 27.1774C116.796 27.1774 117.005 27.1298 117.148 27.0381C117.288 26.9465 117.361 26.7852 117.361 26.5579C117.361 26.4589 117.343 26.3746 117.306 26.3087C117.269 26.2427 117.218 26.1877 117.148 26.14C117.079 26.0924 116.998 26.0521 116.903 26.0191C116.807 25.9861 116.705 25.9567 116.591 25.9238C116.36 25.8651 116.14 25.8028 115.931 25.7441C115.722 25.6818 115.539 25.6012 115.381 25.5022C115.224 25.4032 115.095 25.2786 115.004 25.1246C114.912 24.9743 114.865 24.7764 114.865 24.5381C114.865 24.1129 115.015 23.7683 115.308 23.5081C115.605 23.2478 116.049 23.1158 116.639 23.1158L116.635 23.1268Z" fill="white"/>
<path d="M122.1 25.11V25.7771H150.205C150.341 26.151 150.7 26.4223 151.122 26.4223C151.66 26.4223 152.097 25.9861 152.097 25.4472C152.097 24.9084 151.66 24.4721 151.122 24.4721C150.7 24.4721 150.341 24.7397 150.205 25.1173H122.1V25.11ZM73.9111 25.11V25.7771H45.8026C45.667 26.151 45.3078 26.4223 44.8862 26.4223C44.3473 26.4223 43.9111 25.9861 43.9111 25.4472C43.9111 24.9084 44.3473 24.4721 44.8862 24.4721C45.3078 24.4721 45.667 24.7397 45.8026 25.1173H73.9075L73.9111 25.11Z" fill="white"/>
<path d="M155.484 18.2698H148.768V17.6026C148.919 17.5953 149.146 17.577 149.443 17.555C149.744 17.533 149.949 17.4963 150.062 17.4523C150.271 17.3644 150.414 17.2544 150.495 17.1151C150.572 16.9758 150.609 16.7962 150.609 16.5836V7.99487C150.609 7.80059 150.576 7.63197 150.499 7.48167C150.425 7.33138 150.279 7.21408 150.066 7.12244C149.93 7.06379 149.729 7.00513 149.461 6.94648C149.194 6.88417 148.963 6.84384 148.772 6.82185V6.15836H155.488V6.82185C155.319 6.84018 155.103 6.86217 154.85 6.89516C154.593 6.92815 154.373 6.97214 154.201 7.03079C153.981 7.10411 153.831 7.22141 153.757 7.37537C153.68 7.53299 153.644 7.70895 153.644 7.90689V16.4846C153.644 16.6899 153.684 16.8622 153.761 17.0088C153.838 17.1554 153.985 17.2691 154.201 17.3607C154.322 17.412 154.52 17.4633 154.791 17.511C155.066 17.5587 155.301 17.588 155.488 17.599V18.2661L155.484 18.2698ZM147.907 6.82552C147.746 6.84384 147.518 6.87683 147.222 6.92082C146.928 6.96481 146.661 7.07478 146.419 7.2544C146.21 7.40836 146.056 7.67229 145.972 8.04252C145.884 8.41642 145.84 8.96261 145.84 9.68475V18.3358H144.318L136.774 8.97727V14.6591C136.774 15.3629 136.822 15.8981 136.917 16.2683C137.009 16.6349 137.163 16.9025 137.372 17.0748C137.526 17.1994 137.771 17.3094 138.105 17.4084C138.439 17.5037 138.706 17.5697 138.908 17.6026V18.2698H133.702V17.6026C133.922 17.588 134.175 17.544 134.465 17.4817C134.751 17.4194 134.993 17.3167 135.183 17.1774C135.403 17.0125 135.561 16.7632 135.642 16.4296C135.722 16.096 135.766 15.5352 135.766 14.7507V9.01393C135.766 8.73167 135.719 8.46041 135.631 8.20748C135.543 7.95455 135.403 7.73827 135.216 7.55499C135.018 7.36071 134.788 7.21041 134.527 7.09678C134.267 6.98681 133.974 6.90249 133.644 6.83651V6.15469H138.2L144.824 14.3475V9.7654C144.824 9.03593 144.777 8.4934 144.678 8.13783C144.582 7.78226 144.428 7.522 144.219 7.34971C144.054 7.21774 143.809 7.10411 143.486 7.01247C143.164 6.92082 142.9 6.85484 142.698 6.82185V6.15836H147.9V6.82185L147.907 6.82552ZM132.713 18.2698H125.997V17.6026C126.147 17.5953 126.375 17.577 126.672 17.555C126.972 17.533 127.178 17.4963 127.291 17.4523C127.5 17.3644 127.643 17.2544 127.724 17.1151C127.801 16.9758 127.837 16.7962 127.837 16.5836V7.99487C127.837 7.80059 127.801 7.63197 127.727 7.48167C127.654 7.33138 127.507 7.21408 127.295 7.12244C127.159 7.06379 126.958 7.00513 126.69 6.94648C126.422 6.88417 126.191 6.84384 126.001 6.82185V6.15836H132.716V6.82185C132.548 6.84018 132.332 6.86217 132.079 6.89516C131.822 6.92815 131.602 6.97214 131.43 7.03079C131.21 7.10411 131.06 7.22141 130.986 7.37537C130.909 7.53299 130.873 7.70895 130.873 7.90689V16.4846C130.873 16.6899 130.913 16.8622 130.99 17.0088C131.067 17.1554 131.213 17.2691 131.43 17.3607C131.551 17.412 131.749 17.4633 132.02 17.511C132.295 17.5587 132.529 17.588 132.716 17.599V18.2661L132.713 18.2698ZM119.582 9.26686C119.582 8.46041 119.355 7.86657 118.904 7.49634C118.45 7.12244 117.804 6.93549 116.969 6.93549H116.298V12.0088H116.943C117.779 12.0088 118.428 11.7889 118.889 11.349C119.351 10.9128 119.582 10.2163 119.582 9.26686ZM125.392 18.2698H120.748C119.945 17.0418 119.278 16.0631 118.746 15.3336C118.215 14.6041 117.551 13.7647 116.763 12.8079H116.294V16.4883C116.294 16.6936 116.331 16.8658 116.408 17.0051C116.485 17.1481 116.631 17.2654 116.848 17.3644C116.954 17.412 117.123 17.456 117.354 17.5073C117.584 17.555 117.782 17.588 117.947 17.6026V18.2698H111.485V17.6026C111.65 17.588 111.866 17.5623 112.137 17.533C112.408 17.5 112.599 17.4633 112.713 17.4157C112.929 17.324 113.076 17.2104 113.145 17.0675C113.222 16.9318 113.259 16.7485 113.259 16.5359V7.99487C113.259 7.78959 113.226 7.6173 113.164 7.48167C113.101 7.34604 112.951 7.22508 112.713 7.12244C112.533 7.04546 112.317 6.98681 112.068 6.93182C111.818 6.88417 111.624 6.84384 111.481 6.82185V6.15836H118.274C119.795 6.15836 120.946 6.39296 121.734 6.8695C122.522 7.34238 122.918 8.06452 122.918 9.02493C122.918 9.8717 122.672 10.5535 122.189 11.0704C121.701 11.5872 120.961 11.9868 119.967 12.2764C120.356 12.7786 120.807 13.3578 121.323 14.0176C121.837 14.6774 122.372 15.3519 122.933 16.0374C123.109 16.261 123.351 16.5323 123.651 16.8548C123.955 17.1738 124.227 17.3717 124.458 17.4487C124.59 17.4853 124.755 17.522 124.96 17.5513C125.161 17.5806 125.304 17.599 125.392 17.599V18.2661V18.2698ZM104.553 13.3688L102.797 8.98094L101.063 13.3688H104.553ZM110.913 18.2698H104.315V17.6026C104.623 17.5806 104.985 17.5257 105.4 17.4377C105.818 17.3497 106.023 17.2397 106.023 17.1114C106.023 17.0638 106.023 17.0125 106.012 16.9575C106.005 16.8988 105.979 16.8219 105.939 16.7265L104.905 14.2155H100.726C100.631 14.4465 100.521 14.7214 100.407 15.0367C100.29 15.3482 100.187 15.6268 100.103 15.8724C99.9965 16.1914 99.9305 16.4186 99.9121 16.5616C99.8902 16.7045 99.8828 16.8035 99.8828 16.8622C99.8828 17.0418 100.018 17.1958 100.297 17.324C100.572 17.4523 101.03 17.544 101.675 17.599V18.2661H96.7083V17.599C96.8953 17.5916 97.1079 17.5587 97.3425 17.511C97.5771 17.4597 97.764 17.3937 97.9033 17.3094C98.138 17.1738 98.3359 17.0051 98.4972 16.8035C98.6585 16.6056 98.7941 16.371 98.9004 16.096C99.5602 14.4978 100.22 12.8959 100.884 11.2903C101.547 9.68842 102.28 7.91789 103.079 5.98241H104.788C105.902 8.72801 106.778 10.8944 107.408 12.489C108.039 14.0799 108.578 15.4032 109.018 16.448C109.095 16.6202 109.186 16.7742 109.3 16.9135C109.414 17.0491 109.575 17.1848 109.788 17.3094C109.949 17.401 110.132 17.4707 110.345 17.5147C110.554 17.5623 110.744 17.5916 110.917 17.599V18.2661L110.913 18.2698ZM96.5874 14.1826L96.1768 18.2698H84.8095V17.7493L92.6358 6.94282H89.9818C89.4429 6.94282 89.0507 6.96115 88.8124 6.99047C88.5742 7.02346 88.3506 7.08578 88.138 7.18109C87.8924 7.27273 87.6248 7.51466 87.3278 7.90323C87.0346 8.29546 86.6387 8.94428 86.1438 9.85337H85.4547L85.8286 6.15836H96.3638V6.67889L88.5375 17.4817H91.5837C92.5404 17.4817 93.1893 17.445 93.5339 17.368C93.8821 17.2911 94.1314 17.1518 94.2927 16.9538C94.6152 16.5616 94.9158 16.129 95.1944 15.6598C95.4693 15.1906 95.7259 14.6958 95.9569 14.1789H96.5984L96.5874 14.1826ZM84.3806 14.1826L83.9701 18.2698H72.6028V17.7493L80.429 6.94282H77.7751C77.2362 6.94282 76.844 6.96115 76.6057 6.99047C76.3674 7.02346 76.1438 7.08578 75.9312 7.18109C75.6856 7.27273 75.418 7.51466 75.1211 7.90323C74.8278 8.29546 74.4319 8.94428 73.9371 9.85337H73.2479L73.6218 6.15836H84.157V6.67889L76.3308 17.4817H79.377C80.3337 17.4817 80.9825 17.445 81.3271 17.368C81.6753 17.2911 81.9246 17.1518 82.0859 16.9538C82.4085 16.5616 82.7091 16.129 82.9877 15.6598C83.2626 15.1906 83.5192 14.6958 83.7501 14.1789H84.3916L84.3806 14.1826ZM71.7633 18.2698H65.0478V17.6026C65.1981 17.5953 65.4253 17.577 65.7223 17.555C66.0229 17.533 66.2281 17.4963 66.3418 17.4523C66.5507 17.3644 66.6937 17.2544 66.7743 17.1151C66.8513 16.9758 66.888 16.7962 66.888 16.5836V7.99487C66.888 7.80059 66.8513 7.63197 66.778 7.48167C66.7047 7.33138 66.558 7.21408 66.3454 7.12244C66.2098 7.06379 66.0082 7.00513 65.7406 6.94648C65.473 6.88417 65.2421 6.84384 65.0515 6.82185V6.15836H71.767V6.82185C71.5984 6.84018 71.3821 6.86217 71.1292 6.89516C70.8726 6.92815 70.6526 6.97214 70.4803 7.03079C70.2604 7.10411 70.1101 7.22141 70.0368 7.37537C69.9598 7.53299 69.9231 7.70895 69.9231 7.90689V16.4846C69.9231 16.6899 69.9635 16.8622 70.0405 17.0088C70.1174 17.1554 70.2641 17.2691 70.4803 17.3607C70.6013 17.412 70.7992 17.4633 71.0705 17.511C71.3491 17.5587 71.58 17.588 71.767 17.599V18.2661L71.7633 18.2698ZM64.355 14.3878L64.1167 18.2698H52.962V17.6026C53.1636 17.588 53.3946 17.5587 53.6622 17.5257C53.9297 17.489 54.1094 17.4523 54.1937 17.4194C54.399 17.3424 54.5419 17.2287 54.6226 17.0858C54.6995 16.9428 54.7435 16.7595 54.7435 16.5396V7.99487C54.7435 7.78959 54.7105 7.6173 54.6482 7.48534C54.5859 7.34971 54.4356 7.23241 54.1973 7.12244C54.0214 7.04179 53.8088 6.97947 53.5632 6.93182C53.3139 6.88417 53.116 6.84751 52.9693 6.82552V6.16203H59.6189V6.82552C59.4393 6.84384 59.223 6.86584 58.9737 6.89883C58.7245 6.93182 58.5119 6.97581 58.3286 7.03446C58.1086 7.10777 57.9583 7.22508 57.885 7.37903C57.808 7.53666 57.7751 7.71261 57.7751 7.91056V15.8761C57.7751 16.2537 57.7971 16.5469 57.852 16.7632C57.9034 16.9831 58.0023 17.1408 58.149 17.2397C58.2992 17.3497 58.5045 17.4194 58.7685 17.4487C59.0324 17.4817 59.399 17.4963 59.8645 17.4963C60.33 17.4963 60.7626 17.4707 61.1915 17.4194C61.6204 17.3644 61.9283 17.2434 62.1189 17.0638C62.4085 16.7742 62.7054 16.3636 63.0097 15.8394C63.3139 15.3116 63.5558 14.8277 63.7391 14.3915H64.3623L64.355 14.3878ZM49.6666 14.8827C49.6666 14.0396 49.4173 13.3944 48.9151 12.9436C48.4129 12.4963 47.6944 12.2691 46.756 12.2691C46.6497 12.2691 46.5031 12.2764 46.3234 12.2837C46.1438 12.2911 46.0119 12.2984 45.9275 12.3057V16.7375C45.9789 16.9465 46.1365 17.1261 46.4041 17.2691C46.668 17.4157 46.9943 17.4853 47.3755 17.4853C48.05 17.4853 48.6035 17.2581 49.0287 16.8035C49.4503 16.349 49.6629 15.7075 49.6629 14.8827H49.6666ZM49.069 9.07258C49.069 8.3981 48.8784 7.87757 48.5009 7.50367C48.1233 7.12977 47.5551 6.93915 46.7963 6.93915C46.69 6.93915 46.5471 6.94648 46.3748 6.95381C46.2025 6.96115 46.0558 6.96848 45.9275 6.97581V11.4663H46.3711C47.2912 11.4663 47.973 11.25 48.4092 10.8211C48.8454 10.3886 49.069 9.80939 49.069 9.07625V9.07258ZM51.8146 12.7163C52.1776 12.9655 52.4745 13.2808 52.7017 13.6584C52.929 14.0359 53.0426 14.4831 53.0426 14.9963C53.0426 15.6122 52.9107 16.129 52.6541 16.5543C52.3938 16.9758 52.0236 17.3131 51.5397 17.555C51.0302 17.8153 50.44 18.0022 49.7692 18.1085C49.102 18.2148 48.3139 18.2735 47.4085 18.2735H41.1182V17.6063C41.2941 17.5916 41.5177 17.566 41.7853 17.5293C42.0492 17.4927 42.2399 17.456 42.3462 17.4084C42.5551 17.3241 42.7017 17.2104 42.7787 17.0711C42.8557 16.9355 42.896 16.7522 42.896 16.5286V7.99487C42.896 7.78959 42.863 7.6173 42.8007 7.48167C42.7384 7.34604 42.5881 7.22508 42.3498 7.12244C42.1702 7.04546 41.9686 6.98681 41.734 6.93915C41.4994 6.88783 41.2978 6.85118 41.1182 6.82185V6.15836H47.6981C49.3513 6.15836 50.5463 6.38563 51.2831 6.84018C52.0163 7.29472 52.3828 7.96921 52.3828 8.85631C52.3828 9.2632 52.3022 9.6261 52.1336 9.93402C51.9723 10.2456 51.734 10.5132 51.4261 10.7405C51.1512 10.9494 50.8139 11.1327 50.4253 11.2867C50.0405 11.437 49.6262 11.5653 49.1827 11.6679V11.8292C49.6262 11.8768 50.0844 11.9721 50.5646 12.1224C51.0412 12.2727 51.4591 12.4707 51.811 12.7089L51.8146 12.7163Z" fill="white"/>
<path fill-rule="evenodd" clip-rule="evenodd" d="M8.64003 11.0704H20.4839C22.9289 11.0704 24.9377 9.06158 24.9377 6.61657C24.9377 4.17155 22.9289 2.16276 20.4839 2.16276H8.64003V11.0704ZM34.5491 30H10.099V29.0469C12.0601 29.0469 13.6547 27.4597 13.662 25.4949V24.6188H0V23.6657C1.96481 23.6657 3.55572 22.0748 3.56305 20.1136C3.56305 20.1136 3.56305 5.65982 3.56305 4.50147C3.55572 2.54032 1.96481 0.949413 0 0.949413V0H23.4018C27.0418 0 30.0183 2.97654 30.0183 6.61657C30.0183 8.52273 29.2009 10.2493 27.8959 11.4589C30.5205 12.3937 32.4157 14.9084 32.4157 17.8446C32.4157 21.5726 29.3658 24.6188 25.6415 24.6188H18.739V27.8336H30.0073C31.9721 27.8262 33.893 26.2353 34.3035 24.2705H35.7441L34.5491 29.9963V30ZM13.662 20.9164V13.2331H8.64003V22.456H22.7273C25.2603 22.456 27.3387 20.3776 27.3387 17.8446C27.3387 15.3116 25.2603 13.2331 22.7273 13.2331H18.7427V20.9164H13.662ZM13.662 9.53079V8.63636C13.6547 6.67522 12.0638 5.08431 10.099 5.08431V4.13123H22.3021V5.08431C20.3409 5.08431 18.7463 6.67522 18.739 8.63636V9.53079H13.6584H13.662Z" fill="white"/>
<path fill-rule="evenodd" clip-rule="evenodd" d="M158.845 2.72727C160.003 2.72727 160.942 3.66569 160.942 4.82405C160.942 5.9824 160.003 6.92082 158.845 6.92082C157.686 6.92082 156.748 5.9824 156.748 4.82405C156.748 3.66569 157.686 2.72727 158.845 2.72727ZM158.845 3.07551C157.881 3.07551 157.096 3.85997 157.096 4.82405C157.096 5.78812 157.881 6.57258 158.845 6.57258C159.809 6.57258 160.593 5.78812 160.593 4.82405C160.593 3.85997 159.809 3.07551 158.845 3.07551ZM159.343 4.91569C159.479 5.00733 159.538 5.17595 159.585 5.33358C159.666 5.61584 159.699 5.8761 159.886 6.1107H159.442C159.277 5.90909 159.252 5.63783 159.178 5.39589C159.112 5.16496 159.006 5.03299 158.753 5.03299H158.423V6.1107H158.02V3.53739H158.918C159.373 3.53739 159.706 3.79765 159.706 4.27053C159.706 4.54179 159.582 4.79472 159.343 4.91569ZM158.423 3.8783V4.70308H158.874C159.134 4.70308 159.296 4.54545 159.296 4.28519C159.296 4.02493 159.131 3.87463 158.867 3.87463H158.423V3.8783Z" fill="white"/>
</g>
<defs>
<clipPath id="clip0_453_2364">
<rect width="160.942" height="30" fill="white"/>
</clipPath>
</defs>
</svg>
