<svg width="243" height="31" viewBox="0 0 243 31" fill="none" xmlns="http://www.w3.org/2000/svg">
<path d="M0 29.0554V0.47222C0 0.277776 0.0830954 0.166665 0.276985 0.166665C0.747859 0.166665 1.19103 0.166666 1.8281 0.138888C2.46516 0.11111 3.18532 0.11111 3.93318 0.0833326C4.68104 0.055555 5.4843 0.0555548 6.34295 0.0277772C7.2016 -4.24267e-07 8.03256 0 8.86351 0C11.1348 0 13.0183 0.277776 14.5694 0.861106C15.9599 1.33465 17.2277 2.11273 18.281 3.13887C19.1735 4.03687 19.8631 5.11682 20.303 6.30552C20.7223 7.46313 20.9378 8.685 20.94 9.91661C20.94 12.3055 20.3861 14.2777 19.2781 15.8332C18.1651 17.3867 16.611 18.5676 14.8187 19.2221C12.9352 19.9166 10.8578 20.1666 8.58653 20.1666C7.92176 20.1666 7.47859 20.1666 7.2016 20.1388C6.92462 20.111 6.53684 20.111 6.01057 20.111V29.0276C6.01675 29.0733 6.01372 29.1198 6.00165 29.1643C5.98957 29.2088 5.96871 29.2505 5.94029 29.2867C5.91188 29.323 5.87649 29.3532 5.83622 29.3755C5.79595 29.3978 5.75163 29.4117 5.70588 29.4165H0.332382C0.110794 29.4165 0 29.3054 0 29.0554ZM6.03827 5.52775V14.861C6.42605 14.8888 6.78612 14.9166 7.11851 14.9166H8.58653C9.66783 14.9179 10.7427 14.7492 11.7719 14.4166C12.6549 14.1562 13.4437 13.6448 14.0431 12.9444C14.6248 12.2499 14.9018 11.3055 14.9018 10.0833C14.9278 9.21526 14.7069 8.35774 14.2647 7.61107C13.8029 6.88984 13.1236 6.33518 12.3258 6.02774C11.286 5.61932 10.1734 5.4302 9.0574 5.47219C8.33724 5.47219 7.70018 5.47219 7.1739 5.49997C6.79529 5.47515 6.41522 5.48444 6.03827 5.52775Z" fill="#31A8FF"/>
<path d="M38.2253 13.1667C37.389 12.7249 36.4934 12.4068 35.5662 12.2222C34.548 11.991 33.508 11.8699 32.464 11.8611C31.9034 11.8417 31.3432 11.9073 30.8021 12.0556C30.4571 12.1276 30.1511 12.3256 29.9434 12.6111C29.8035 12.8365 29.7269 13.0956 29.7219 13.3611C29.7347 13.6254 29.8318 13.8785 29.9988 14.0833C30.2614 14.3921 30.5812 14.6468 30.9406 14.8333C31.5777 15.1666 32.2424 15.4722 32.9072 15.75C34.4037 16.2552 35.8354 16.9358 37.1727 17.7777C38.0824 18.3513 38.8346 19.1439 39.3609 20.0833C39.806 20.9695 40.0249 21.9525 39.998 22.9444C40.0205 24.2573 39.6437 25.546 38.9178 26.6388C38.1452 27.7477 37.0672 28.6067 35.8155 29.111C34.4583 29.6944 32.7964 29.9999 30.8021 29.9999C29.5376 30.005 28.2757 29.8841 27.0351 29.6388C26.0582 29.4695 25.1081 29.1706 24.2099 28.7499C24.1133 28.7013 24.033 28.6255 23.9788 28.5317C23.9247 28.4379 23.8991 28.3303 23.9052 28.2221V23.3888C23.9028 23.3414 23.9116 23.294 23.9308 23.2506C23.9501 23.2071 23.9792 23.1689 24.016 23.1388C24.055 23.116 24.1003 23.1064 24.1452 23.1114C24.1901 23.1164 24.2322 23.1358 24.2653 23.1666C25.3322 23.7974 26.4911 24.2567 27.6999 24.5277C28.7671 24.8062 29.8655 24.9462 30.9683 24.9444C32.0208 24.9444 32.7687 24.8055 33.2673 24.5555C33.4896 24.4525 33.6781 24.288 33.8106 24.0814C33.943 23.8747 34.014 23.6345 34.0151 23.3888C34.0151 22.9999 33.7935 22.6388 33.3504 22.2777C32.9072 21.9166 31.9931 21.4999 30.6359 20.9722C29.2436 20.4802 27.9213 19.8078 26.7027 18.9722C25.8348 18.3518 25.1156 17.5452 24.5976 16.6111C24.1556 15.7338 23.9367 14.7604 23.9606 13.7778C23.9646 12.5925 24.2902 11.4306 24.9023 10.4167C25.606 9.30157 26.6159 8.41413 27.8107 7.86113C29.1125 7.19447 30.7467 6.88892 32.7133 6.88892C33.8627 6.88924 35.0105 6.97279 36.1479 7.13891C36.9657 7.24989 37.7661 7.46457 38.53 7.7778C38.6517 7.82106 38.7513 7.91097 38.807 8.0278C38.8389 8.13623 38.8575 8.24817 38.8624 8.36113V12.8889C38.8628 12.9429 38.8505 12.9962 38.8264 13.0445C38.8023 13.0927 38.7672 13.1346 38.7239 13.1667C38.5627 13.2248 38.3864 13.2248 38.2253 13.1667Z" fill="#31A8FF"/>
<path d="M68.449 21.739H63.723L62.941 24H60.442L64.709 12.117H67.48L71.747 24H69.231L68.449 21.739ZM67.803 19.835L66.086 14.871L64.369 19.835H67.803ZM72.2199 19.257C72.2199 18.305 72.4069 17.4607 72.7809 16.724C73.1663 15.9873 73.6876 15.4207 74.3449 15.024C75.0023 14.6273 75.7333 14.429 76.5379 14.429C77.1499 14.429 77.7336 14.565 78.2889 14.837C78.8443 15.0977 79.2863 15.449 79.6149 15.891V11.42H82.0289V24H79.6149V22.606C79.3203 23.0707 78.9066 23.4447 78.3739 23.728C77.8413 24.0113 77.2236 24.153 76.5209 24.153C75.7276 24.153 75.0023 23.949 74.3449 23.541C73.6876 23.133 73.1663 22.5607 72.7809 21.824C72.4069 21.076 72.2199 20.2203 72.2199 19.257ZM79.6319 19.291C79.6319 18.713 79.5186 18.22 79.2919 17.812C79.0653 17.3927 78.7593 17.0753 78.3739 16.86C77.9886 16.6333 77.5749 16.52 77.1329 16.52C76.6909 16.52 76.2829 16.6277 75.9089 16.843C75.5349 17.0583 75.2289 17.3757 74.9909 17.795C74.7643 18.203 74.6509 18.6903 74.6509 19.257C74.6509 19.8237 74.7643 20.3223 74.9909 20.753C75.2289 21.1723 75.5349 21.4953 75.9089 21.722C76.2943 21.9487 76.7023 22.062 77.1329 22.062C77.5749 22.062 77.9886 21.9543 78.3739 21.739C78.7593 21.5123 79.0653 21.195 79.2919 20.787C79.5186 20.3677 79.6319 19.869 79.6319 19.291ZM88.0254 24.153C87.1188 24.153 86.3028 23.9547 85.5774 23.558C84.8521 23.15 84.2798 22.5777 83.8604 21.841C83.4524 21.1043 83.2484 20.2543 83.2484 19.291C83.2484 18.3277 83.4581 17.4777 83.8774 16.741C84.3081 16.0043 84.8918 15.4377 85.6284 15.041C86.3651 14.633 87.1868 14.429 88.0934 14.429C89.0001 14.429 89.8218 14.633 90.5584 15.041C91.2951 15.4377 91.8731 16.0043 92.2924 16.741C92.7231 17.4777 92.9384 18.3277 92.9384 19.291C92.9384 20.2543 92.7174 21.1043 92.2754 21.841C91.8448 22.5777 91.2554 23.15 90.5074 23.558C89.7708 23.9547 88.9434 24.153 88.0254 24.153ZM88.0254 22.079C88.4561 22.079 88.8584 21.977 89.2324 21.773C89.6178 21.5577 89.9238 21.2403 90.1504 20.821C90.3771 20.4017 90.4904 19.8917 90.4904 19.291C90.4904 18.3957 90.2524 17.71 89.7764 17.234C89.3118 16.7467 88.7394 16.503 88.0594 16.503C87.3794 16.503 86.8071 16.7467 86.3424 17.234C85.8891 17.71 85.6624 18.3957 85.6624 19.291C85.6624 20.1863 85.8834 20.8777 86.3254 21.365C86.7788 21.841 87.3454 22.079 88.0254 22.079ZM96.5543 15.959C96.8603 15.5057 97.2796 15.1373 97.8123 14.854C98.3563 14.5707 98.9739 14.429 99.6653 14.429C100.47 14.429 101.195 14.6273 101.841 15.024C102.499 15.4207 103.014 15.9873 103.388 16.724C103.774 17.4493 103.966 18.2937 103.966 19.257C103.966 20.2203 103.774 21.076 103.388 21.824C103.014 22.5607 102.499 23.133 101.841 23.541C101.195 23.949 100.47 24.153 99.6653 24.153C98.9626 24.153 98.3449 24.017 97.8123 23.745C97.2909 23.4617 96.8716 23.099 96.5543 22.657V24H94.1743V11.42H96.5543V15.959ZM101.535 19.257C101.535 18.6903 101.416 18.203 101.178 17.795C100.952 17.3757 100.646 17.0583 100.26 16.843C99.8863 16.6277 99.4783 16.52 99.0363 16.52C98.6056 16.52 98.1976 16.6333 97.8123 16.86C97.4383 17.0753 97.1323 17.3927 96.8943 17.812C96.6676 18.2313 96.5543 18.7243 96.5543 19.291C96.5543 19.8577 96.6676 20.3507 96.8943 20.77C97.1323 21.1893 97.4383 21.5123 97.8123 21.739C98.1976 21.9543 98.6056 22.062 99.0363 22.062C99.4783 22.062 99.8863 21.9487 100.26 21.722C100.646 21.4953 100.952 21.1723 101.178 20.753C101.416 20.3337 101.535 19.835 101.535 19.257ZM113.941 19.087C113.941 19.427 113.918 19.733 113.873 20.005H106.988C107.044 20.685 107.282 21.2177 107.702 21.603C108.121 21.9883 108.637 22.181 109.249 22.181C110.133 22.181 110.762 21.8013 111.136 21.042H113.703C113.431 21.9487 112.909 22.6967 112.139 23.286C111.368 23.864 110.422 24.153 109.3 24.153C108.393 24.153 107.577 23.9547 106.852 23.558C106.138 23.15 105.577 22.5777 105.169 21.841C104.772 21.1043 104.574 20.2543 104.574 19.291C104.574 18.3163 104.772 17.4607 105.169 16.724C105.565 15.9873 106.121 15.4207 106.835 15.024C107.549 14.6273 108.37 14.429 109.3 14.429C110.195 14.429 110.994 14.6217 111.697 15.007C112.411 15.3923 112.96 15.942 113.346 16.656C113.742 17.3587 113.941 18.169 113.941 19.087ZM111.476 18.407C111.464 17.795 111.243 17.3077 110.813 16.945C110.382 16.571 109.855 16.384 109.232 16.384C108.642 16.384 108.144 16.5653 107.736 16.928C107.339 17.2793 107.095 17.7723 107.005 18.407H111.476ZM127.362 15.806C127.362 16.4407 127.209 17.0357 126.903 17.591C126.608 18.1463 126.138 18.594 125.492 18.934C124.857 19.274 124.052 19.444 123.078 19.444H121.089V24H118.709V12.134H123.078C123.996 12.134 124.778 12.2927 125.424 12.61C126.07 12.9273 126.551 13.3637 126.869 13.919C127.197 14.4743 127.362 15.1033 127.362 15.806ZM122.976 17.523C123.633 17.523 124.12 17.3757 124.438 17.081C124.755 16.775 124.914 16.35 124.914 15.806C124.914 14.65 124.268 14.072 122.976 14.072H121.089V17.523H122.976ZM133.845 14.446C134.559 14.446 135.194 14.6047 135.749 14.922C136.305 15.228 136.735 15.687 137.041 16.299C137.359 16.8997 137.517 17.625 137.517 18.475V24H135.137V18.798C135.137 18.05 134.95 17.4777 134.576 17.081C134.202 16.673 133.692 16.469 133.046 16.469C132.389 16.469 131.868 16.673 131.482 17.081C131.108 17.4777 130.921 18.05 130.921 18.798V24H128.541V11.42H130.921V15.755C131.227 15.347 131.635 15.0297 132.145 14.803C132.655 14.565 133.222 14.446 133.845 14.446ZM143.453 24.153C142.546 24.153 141.73 23.9547 141.005 23.558C140.279 23.15 139.707 22.5777 139.288 21.841C138.88 21.1043 138.676 20.2543 138.676 19.291C138.676 18.3277 138.885 17.4777 139.305 16.741C139.735 16.0043 140.319 15.4377 141.056 15.041C141.792 14.633 142.614 14.429 143.521 14.429C144.427 14.429 145.249 14.633 145.986 15.041C146.722 15.4377 147.3 16.0043 147.72 16.741C148.15 17.4777 148.366 18.3277 148.366 19.291C148.366 20.2543 148.145 21.1043 147.703 21.841C147.272 22.5777 146.683 23.15 145.935 23.558C145.198 23.9547 144.371 24.153 143.453 24.153ZM143.453 22.079C143.883 22.079 144.286 21.977 144.66 21.773C145.045 21.5577 145.351 21.2403 145.578 20.821C145.804 20.4017 145.918 19.8917 145.918 19.291C145.918 18.3957 145.68 17.71 145.204 17.234C144.739 16.7467 144.167 16.503 143.487 16.503C142.807 16.503 142.234 16.7467 141.77 17.234C141.316 17.71 141.09 18.3957 141.09 19.291C141.09 20.1863 141.311 20.8777 141.753 21.365C142.206 21.841 142.773 22.079 143.453 22.079ZM152.373 16.537V21.093C152.373 21.4103 152.446 21.6427 152.594 21.79C152.752 21.926 153.013 21.994 153.376 21.994H154.481V24H152.985C150.979 24 149.976 23.0253 149.976 21.076V16.537H148.854V14.582H149.976V12.253H152.373V14.582H154.481V16.537H152.373ZM159.864 24.153C158.958 24.153 158.142 23.9547 157.416 23.558C156.691 23.15 156.119 22.5777 155.699 21.841C155.291 21.1043 155.087 20.2543 155.087 19.291C155.087 18.3277 155.297 17.4777 155.716 16.741C156.147 16.0043 156.731 15.4377 157.467 15.041C158.204 14.633 159.026 14.429 159.932 14.429C160.839 14.429 161.661 14.633 162.397 15.041C163.134 15.4377 163.712 16.0043 164.131 16.741C164.562 17.4777 164.777 18.3277 164.777 19.291C164.777 20.2543 164.556 21.1043 164.114 21.841C163.684 22.5777 163.094 23.15 162.346 23.558C161.61 23.9547 160.782 24.153 159.864 24.153ZM159.864 22.079C160.295 22.079 160.697 21.977 161.071 21.773C161.457 21.5577 161.763 21.2403 161.989 20.821C162.216 20.4017 162.329 19.8917 162.329 19.291C162.329 18.3957 162.091 17.71 161.615 17.234C161.151 16.7467 160.578 16.503 159.898 16.503C159.218 16.503 158.646 16.7467 158.181 17.234C157.728 17.71 157.501 18.3957 157.501 19.291C157.501 20.1863 157.722 20.8777 158.164 21.365C158.618 21.841 159.184 22.079 159.864 22.079ZM169.617 24.153C168.847 24.153 168.155 24.017 167.543 23.745C166.931 23.4617 166.444 23.082 166.081 22.606C165.73 22.13 165.537 21.603 165.503 21.025H167.9C167.946 21.3877 168.121 21.688 168.427 21.926C168.745 22.164 169.136 22.283 169.6 22.283C170.054 22.283 170.405 22.1923 170.654 22.011C170.915 21.8297 171.045 21.5973 171.045 21.314C171.045 21.008 170.887 20.7813 170.569 20.634C170.263 20.4753 169.77 20.3053 169.09 20.124C168.388 19.954 167.81 19.7783 167.356 19.597C166.914 19.4157 166.529 19.138 166.2 18.764C165.883 18.39 165.724 17.8857 165.724 17.251C165.724 16.7297 165.872 16.2537 166.166 15.823C166.472 15.3923 166.903 15.0523 167.458 14.803C168.025 14.5537 168.688 14.429 169.447 14.429C170.569 14.429 171.465 14.7123 172.133 15.279C172.802 15.8343 173.17 16.588 173.238 17.54H170.96C170.926 17.166 170.768 16.8713 170.484 16.656C170.212 16.4293 169.844 16.316 169.379 16.316C168.949 16.316 168.614 16.3953 168.376 16.554C168.15 16.7127 168.036 16.9337 168.036 17.217C168.036 17.5343 168.195 17.778 168.512 17.948C168.83 18.1067 169.323 18.271 169.991 18.441C170.671 18.611 171.232 18.7867 171.674 18.968C172.116 19.1493 172.496 19.4327 172.813 19.818C173.142 20.192 173.312 20.6907 173.323 21.314C173.323 21.858 173.17 22.3453 172.864 22.776C172.57 23.2067 172.139 23.5467 171.572 23.796C171.017 24.034 170.365 24.153 169.617 24.153ZM180.071 14.446C180.785 14.446 181.42 14.6047 181.975 14.922C182.53 15.228 182.961 15.687 183.267 16.299C183.584 16.8997 183.743 17.625 183.743 18.475V24H181.363V18.798C181.363 18.05 181.176 17.4777 180.802 17.081C180.428 16.673 179.918 16.469 179.272 16.469C178.615 16.469 178.093 16.673 177.708 17.081C177.334 17.4777 177.147 18.05 177.147 18.798V24H174.767V11.42H177.147V15.755C177.453 15.347 177.861 15.0297 178.371 14.803C178.881 14.565 179.448 14.446 180.071 14.446ZM189.678 24.153C188.771 24.153 187.955 23.9547 187.23 23.558C186.505 23.15 185.932 22.5777 185.513 21.841C185.105 21.1043 184.901 20.2543 184.901 19.291C184.901 18.3277 185.111 17.4777 185.53 16.741C185.961 16.0043 186.544 15.4377 187.281 15.041C188.018 14.633 188.839 14.429 189.746 14.429C190.653 14.429 191.474 14.633 192.211 15.041C192.948 15.4377 193.526 16.0043 193.945 16.741C194.376 17.4777 194.591 18.3277 194.591 19.291C194.591 20.2543 194.37 21.1043 193.928 21.841C193.497 22.5777 192.908 23.15 192.16 23.558C191.423 23.9547 190.596 24.153 189.678 24.153ZM189.678 22.079C190.109 22.079 190.511 21.977 190.885 21.773C191.27 21.5577 191.576 21.2403 191.803 20.821C192.03 20.4017 192.143 19.8917 192.143 19.291C192.143 18.3957 191.905 17.71 191.429 17.234C190.964 16.7467 190.392 16.503 189.712 16.503C189.032 16.503 188.46 16.7467 187.995 17.234C187.542 17.71 187.315 18.3957 187.315 19.291C187.315 20.1863 187.536 20.8777 187.978 21.365C188.431 21.841 188.998 22.079 189.678 22.079ZM198.207 15.942C198.513 15.5113 198.932 15.1543 199.465 14.871C200.009 14.5763 200.627 14.429 201.318 14.429C202.123 14.429 202.848 14.6273 203.494 15.024C204.151 15.4207 204.667 15.9873 205.041 16.724C205.426 17.4493 205.619 18.2937 205.619 19.257C205.619 20.2203 205.426 21.076 205.041 21.824C204.667 22.5607 204.151 23.133 203.494 23.541C202.848 23.949 202.123 24.153 201.318 24.153C200.627 24.153 200.015 24.0113 199.482 23.728C198.961 23.4447 198.536 23.0877 198.207 22.657V28.488H195.827V14.582H198.207V15.942ZM203.188 19.257C203.188 18.6903 203.069 18.203 202.831 17.795C202.604 17.3757 202.298 17.0583 201.913 16.843C201.539 16.6277 201.131 16.52 200.689 16.52C200.258 16.52 199.85 16.6333 199.465 16.86C199.091 17.0753 198.785 17.3927 198.547 17.812C198.32 18.2313 198.207 18.7243 198.207 19.291C198.207 19.8577 198.32 20.3507 198.547 20.77C198.785 21.1893 199.091 21.5123 199.465 21.739C199.85 21.9543 200.258 22.062 200.689 22.062C201.131 22.062 201.539 21.9487 201.913 21.722C202.298 21.4953 202.604 21.1723 202.831 20.753C203.069 20.3337 203.188 19.835 203.188 19.257Z" fill="white"/>
</svg>
