<svg width="242" height="30" viewBox="0 0 242 30" fill="none" xmlns="http://www.w3.org/2000/svg">
<path d="M16.2378 19.4242H7.18294L5.33302 25.1687C5.31235 25.2729 5.25344 25.3657 5.16787 25.4287C5.0823 25.4918 4.97625 25.5206 4.87054 25.5094H0.294419C0.026667 25.5094 -0.0463562 25.3634 0.026667 25.0713L7.86449 2.60449C7.93751 2.36108 8.01054 2.14201 8.1079 1.84992C8.20586 1.32825 8.25476 0.798544 8.25395 0.267751C8.24665 0.20679 8.26267 0.145324 8.29878 0.095671C8.33489 0.0460175 8.38843 0.0118446 8.44868 0H14.753C14.9234 0 15.0451 0.073023 15.0694 0.194728L23.9539 25.1443C24.027 25.4121 23.9539 25.5338 23.7105 25.5338H18.6232C18.5372 25.5421 18.451 25.5198 18.3798 25.4708C18.3085 25.4218 18.2569 25.3493 18.2338 25.266L16.2378 19.4242ZM8.59472 14.5803H14.7774C14.6313 14.0691 14.4366 13.4606 14.2175 12.8277C13.9984 12.1949 13.7794 11.4646 13.5603 10.7344C13.3412 10.0042 13.0978 9.2496 12.8544 8.49503C12.611 7.74046 12.3919 7.03457 12.1972 6.32868C12.0025 5.62279 11.8321 5.01426 11.6617 4.43007H11.613C11.3943 5.49096 11.118 6.53918 10.7854 7.57007C10.4203 8.73844 10.0552 9.95549 9.66573 11.1725C9.3493 12.4139 8.95984 13.558 8.59472 14.5803Z" fill="#9999FF"/>
<path d="M38.39 17.1848H30.6739C30.766 17.9529 31.0234 18.692 31.4285 19.3511C31.8586 20.0072 32.4784 20.5166 33.2054 20.8116C34.1892 21.2324 35.2511 21.4398 36.321 21.4201C37.171 21.4045 38.0181 21.3149 38.8525 21.1524C39.5948 21.0552 40.3224 20.8672 41.0189 20.5925C41.1406 20.4952 41.2136 20.5438 41.2136 20.7872V24.5114C41.2093 24.6104 41.193 24.7085 41.1649 24.8035C41.1209 24.8718 41.0628 24.9299 40.9945 24.9739C40.216 25.3158 39.3985 25.561 38.5604 25.7041C37.4218 25.9231 36.2632 26.021 35.104 25.9962C33.2541 25.9962 31.6962 25.7041 30.4305 25.1443C29.2394 24.6273 28.1882 23.8348 27.3635 22.8319C26.5929 21.8941 26.0214 20.8092 25.684 19.6432C24.9707 17.2148 25.0047 14.628 25.7814 12.2192C26.1695 11.0005 26.7894 9.86814 27.6069 8.88446C28.4119 7.91177 29.4163 7.1232 30.5522 6.57206C31.6962 6.01222 33.0593 5.81749 34.6172 5.81749C35.9151 5.78737 37.2035 6.04507 38.39 6.57206C39.3872 7.00437 40.2644 7.67266 40.9458 8.51935C41.5928 9.35071 42.0873 10.2902 42.4063 11.2942C42.7158 12.2536 42.8719 13.2558 42.8688 14.2638C42.8688 14.848 42.8444 15.3592 42.8201 15.8217C42.7958 16.2841 42.7471 16.6249 42.7227 16.844C42.712 16.9283 42.672 17.0062 42.6097 17.064C42.5475 17.1219 42.4668 17.156 42.382 17.1604C42.2359 17.1604 41.9682 17.1848 41.5787 17.2091C41.11 17.2623 40.6386 17.2867 40.1669 17.2821C39.6071 17.2821 39.0229 17.1848 38.39 17.1848ZM30.6739 13.631H35.8099C36.4427 13.631 36.9052 13.631 37.1973 13.6066C37.3974 13.59 37.5899 13.523 37.7572 13.4119V13.1685C37.7581 12.8623 37.7088 12.5581 37.6111 12.2679C37.398 11.6018 36.9741 11.0232 36.4033 10.6192C35.8325 10.2153 35.1458 10.0079 34.4468 10.0285C33.7862 9.99145 33.129 10.1464 32.5545 10.4747C31.98 10.8029 31.5129 11.2905 31.2094 11.8784C30.9254 12.425 30.7439 13.019 30.6739 13.631Z" fill="#9999FF"/>
<path d="M67.449 20.739H62.723L61.941 23H59.442L63.709 11.117H66.48L70.747 23H68.231L67.449 20.739ZM66.803 18.835L65.086 13.871L63.369 18.835H66.803ZM71.2199 18.257C71.2199 17.305 71.4069 16.4607 71.7809 15.724C72.1663 14.9873 72.6876 14.4207 73.3449 14.024C74.0023 13.6273 74.7333 13.429 75.5379 13.429C76.1499 13.429 76.7336 13.565 77.2889 13.837C77.8443 14.0977 78.2863 14.449 78.6149 14.891V10.42H81.0289V23H78.6149V21.606C78.3203 22.0707 77.9066 22.4447 77.3739 22.728C76.8413 23.0113 76.2236 23.153 75.5209 23.153C74.7276 23.153 74.0023 22.949 73.3449 22.541C72.6876 22.133 72.1663 21.5607 71.7809 20.824C71.4069 20.076 71.2199 19.2203 71.2199 18.257ZM78.6319 18.291C78.6319 17.713 78.5186 17.22 78.2919 16.812C78.0653 16.3927 77.7593 16.0753 77.3739 15.86C76.9886 15.6333 76.5749 15.52 76.1329 15.52C75.6909 15.52 75.2829 15.6277 74.9089 15.843C74.5349 16.0583 74.2289 16.3757 73.9909 16.795C73.7643 17.203 73.6509 17.6903 73.6509 18.257C73.6509 18.8237 73.7643 19.3223 73.9909 19.753C74.2289 20.1723 74.5349 20.4953 74.9089 20.722C75.2943 20.9487 75.7023 21.062 76.1329 21.062C76.5749 21.062 76.9886 20.9543 77.3739 20.739C77.7593 20.5123 78.0653 20.195 78.2919 19.787C78.5186 19.3677 78.6319 18.869 78.6319 18.291ZM87.0254 23.153C86.1188 23.153 85.3028 22.9547 84.5774 22.558C83.8521 22.15 83.2798 21.5777 82.8604 20.841C82.4524 20.1043 82.2484 19.2543 82.2484 18.291C82.2484 17.3277 82.4581 16.4777 82.8774 15.741C83.3081 15.0043 83.8918 14.4377 84.6284 14.041C85.3651 13.633 86.1868 13.429 87.0934 13.429C88.0001 13.429 88.8218 13.633 89.5584 14.041C90.2951 14.4377 90.8731 15.0043 91.2924 15.741C91.7231 16.4777 91.9384 17.3277 91.9384 18.291C91.9384 19.2543 91.7174 20.1043 91.2754 20.841C90.8448 21.5777 90.2554 22.15 89.5074 22.558C88.7708 22.9547 87.9434 23.153 87.0254 23.153ZM87.0254 21.079C87.4561 21.079 87.8584 20.977 88.2324 20.773C88.6178 20.5577 88.9238 20.2403 89.1504 19.821C89.3771 19.4017 89.4904 18.8917 89.4904 18.291C89.4904 17.3957 89.2524 16.71 88.7764 16.234C88.3118 15.7467 87.7394 15.503 87.0594 15.503C86.3794 15.503 85.8071 15.7467 85.3424 16.234C84.8891 16.71 84.6624 17.3957 84.6624 18.291C84.6624 19.1863 84.8834 19.8777 85.3254 20.365C85.7788 20.841 86.3454 21.079 87.0254 21.079ZM95.5543 14.959C95.8603 14.5057 96.2796 14.1373 96.8123 13.854C97.3563 13.5707 97.9739 13.429 98.6653 13.429C99.4699 13.429 100.195 13.6273 100.841 14.024C101.499 14.4207 102.014 14.9873 102.388 15.724C102.774 16.4493 102.966 17.2937 102.966 18.257C102.966 19.2203 102.774 20.076 102.388 20.824C102.014 21.5607 101.499 22.133 100.841 22.541C100.195 22.949 99.4699 23.153 98.6653 23.153C97.9626 23.153 97.3449 23.017 96.8123 22.745C96.2909 22.4617 95.8716 22.099 95.5543 21.657V23H93.1743V10.42H95.5543V14.959ZM100.535 18.257C100.535 17.6903 100.416 17.203 100.178 16.795C99.9516 16.3757 99.6456 16.0583 99.2603 15.843C98.8863 15.6277 98.4783 15.52 98.0363 15.52C97.6056 15.52 97.1976 15.6333 96.8123 15.86C96.4383 16.0753 96.1323 16.3927 95.8943 16.812C95.6676 17.2313 95.5543 17.7243 95.5543 18.291C95.5543 18.8577 95.6676 19.3507 95.8943 19.77C96.1323 20.1893 96.4383 20.5123 96.8123 20.739C97.1976 20.9543 97.6056 21.062 98.0363 21.062C98.4783 21.062 98.8863 20.9487 99.2603 20.722C99.6456 20.4953 99.9516 20.1723 100.178 19.753C100.416 19.3337 100.535 18.835 100.535 18.257ZM112.941 18.087C112.941 18.427 112.918 18.733 112.873 19.005H105.988C106.044 19.685 106.282 20.2177 106.702 20.603C107.121 20.9883 107.637 21.181 108.249 21.181C109.133 21.181 109.762 20.8013 110.136 20.042H112.703C112.431 20.9487 111.909 21.6967 111.139 22.286C110.368 22.864 109.422 23.153 108.3 23.153C107.393 23.153 106.577 22.9547 105.852 22.558C105.138 22.15 104.577 21.5777 104.169 20.841C103.772 20.1043 103.574 19.2543 103.574 18.291C103.574 17.3163 103.772 16.4607 104.169 15.724C104.565 14.9873 105.121 14.4207 105.835 14.024C106.549 13.6273 107.37 13.429 108.3 13.429C109.195 13.429 109.994 13.6217 110.697 14.007C111.411 14.3923 111.96 14.942 112.346 15.656C112.742 16.3587 112.941 17.169 112.941 18.087ZM110.476 17.407C110.464 16.795 110.243 16.3077 109.813 15.945C109.382 15.571 108.855 15.384 108.232 15.384C107.642 15.384 107.144 15.5653 106.736 15.928C106.339 16.2793 106.095 16.7723 106.005 17.407H110.476ZM124.985 20.739H120.259L119.477 23H116.978L121.245 11.117H124.016L128.283 23H125.767L124.985 20.739ZM124.339 18.835L122.622 13.871L120.905 18.835H124.339ZM133.686 15.537H132.037V23H129.623V15.537H128.552V13.582H129.623V13.106C129.623 11.95 129.951 11.1 130.609 10.556C131.266 10.012 132.258 9.757 133.584 9.791V11.797C133.006 11.7857 132.603 11.882 132.377 12.086C132.15 12.29 132.037 12.6583 132.037 13.191V13.582H133.686V15.537ZM137.489 15.537V20.093C137.489 20.4103 137.563 20.6427 137.71 20.79C137.869 20.926 138.129 20.994 138.492 20.994H139.597V23H138.101C136.095 23 135.092 22.0253 135.092 20.076V15.537H133.97V13.582H135.092V11.253H137.489V13.582H139.597V15.537H137.489ZM149.554 18.087C149.554 18.427 149.531 18.733 149.486 19.005H142.601C142.657 19.685 142.895 20.2177 143.315 20.603C143.734 20.9883 144.25 21.181 144.862 21.181C145.746 21.181 146.375 20.8013 146.749 20.042H149.316C149.044 20.9487 148.522 21.6967 147.752 22.286C146.981 22.864 146.035 23.153 144.913 23.153C144.006 23.153 143.19 22.9547 142.465 22.558C141.751 22.15 141.19 21.5777 140.782 20.841C140.385 20.1043 140.187 19.2543 140.187 18.291C140.187 17.3163 140.385 16.4607 140.782 15.724C141.178 14.9873 141.734 14.4207 142.448 14.024C143.162 13.6273 143.983 13.429 144.913 13.429C145.808 13.429 146.607 13.6217 147.31 14.007C148.024 14.3923 148.573 14.942 148.959 15.656C149.355 16.3587 149.554 17.169 149.554 18.087ZM147.089 17.407C147.077 16.795 146.856 16.3077 146.426 15.945C145.995 15.571 145.468 15.384 144.845 15.384C144.255 15.384 143.757 15.5653 143.349 15.928C142.952 16.2793 142.708 16.7723 142.618 17.407H147.089ZM153.161 15.044C153.467 14.5453 153.864 14.1543 154.351 13.871C154.85 13.5877 155.416 13.446 156.051 13.446V15.945H155.422C154.674 15.945 154.107 16.1207 153.722 16.472C153.348 16.8233 153.161 17.4353 153.161 18.308V23H150.781V13.582H153.161V15.044ZM163.065 13.055V16.03H167.06V17.917H163.065V21.062H167.57V23H160.685V11.117H167.57V13.055H163.065ZM173.541 15.537H171.892V23H169.478V15.537H168.407V13.582H169.478V13.106C169.478 11.95 169.806 11.1 170.464 10.556C171.121 10.012 172.113 9.757 173.439 9.791V11.797C172.861 11.7857 172.458 11.882 172.232 12.086C172.005 12.29 171.892 12.6583 171.892 13.191V13.582H173.541V15.537ZM178.891 15.537H177.242V23H174.828V15.537H173.757V13.582H174.828V13.106C174.828 11.95 175.157 11.1 175.814 10.556C176.471 10.012 177.463 9.757 178.789 9.791V11.797C178.211 11.7857 177.809 11.882 177.582 12.086C177.355 12.29 177.242 12.6583 177.242 13.191V13.582H178.891V15.537ZM188.678 18.087C188.678 18.427 188.656 18.733 188.61 19.005H181.725C181.782 19.685 182.02 20.2177 182.439 20.603C182.859 20.9883 183.374 21.181 183.986 21.181C184.87 21.181 185.499 20.8013 185.873 20.042H188.44C188.168 20.9487 187.647 21.6967 186.876 22.286C186.106 22.864 185.159 23.153 184.037 23.153C183.131 23.153 182.315 22.9547 181.589 22.558C180.875 22.15 180.314 21.5777 179.906 20.841C179.51 20.1043 179.311 19.2543 179.311 18.291C179.311 17.3163 179.51 16.4607 179.906 15.724C180.303 14.9873 180.858 14.4207 181.572 14.024C182.286 13.6273 183.108 13.429 184.037 13.429C184.933 13.429 185.732 13.6217 186.434 14.007C187.148 14.3923 187.698 14.942 188.083 15.656C188.48 16.3587 188.678 17.169 188.678 18.087ZM186.213 17.407C186.202 16.795 185.981 16.3077 185.55 15.945C185.12 15.571 184.593 15.384 183.969 15.384C183.38 15.384 182.881 15.5653 182.473 15.928C182.077 16.2793 181.833 16.7723 181.742 17.407H186.213ZM189.294 18.291C189.294 17.3163 189.492 16.4663 189.889 15.741C190.285 15.0043 190.835 14.4377 191.538 14.041C192.24 13.633 193.045 13.429 193.952 13.429C195.119 13.429 196.082 13.7237 196.842 14.313C197.612 14.891 198.128 15.707 198.389 16.761H195.822C195.686 16.353 195.453 16.0357 195.125 15.809C194.807 15.571 194.411 15.452 193.935 15.452C193.255 15.452 192.716 15.7013 192.32 16.2C191.923 16.6873 191.725 17.3843 191.725 18.291C191.725 19.1863 191.923 19.8833 192.32 20.382C192.716 20.8693 193.255 21.113 193.935 21.113C194.898 21.113 195.527 20.6823 195.822 19.821H198.389C198.128 20.841 197.612 21.6513 196.842 22.252C196.071 22.8527 195.108 23.153 193.952 23.153C193.045 23.153 192.24 22.9547 191.538 22.558C190.835 22.15 190.285 21.5833 189.889 20.858C189.492 20.1213 189.294 19.2657 189.294 18.291ZM202.393 15.537V20.093C202.393 20.4103 202.467 20.6427 202.614 20.79C202.773 20.926 203.033 20.994 203.396 20.994H204.501V23H203.005C200.999 23 199.996 22.0253 199.996 20.076V15.537H198.874V13.582H199.996V11.253H202.393V13.582H204.501V15.537H202.393ZM209.307 23.153C208.536 23.153 207.845 23.017 207.233 22.745C206.621 22.4617 206.134 22.082 205.771 21.606C205.42 21.13 205.227 20.603 205.193 20.025H207.59C207.635 20.3877 207.811 20.688 208.117 20.926C208.434 21.164 208.825 21.283 209.29 21.283C209.743 21.283 210.095 21.1923 210.344 21.011C210.605 20.8297 210.735 20.5973 210.735 20.314C210.735 20.008 210.576 19.7813 210.259 19.634C209.953 19.4753 209.46 19.3053 208.78 19.124C208.077 18.954 207.499 18.7783 207.046 18.597C206.604 18.4157 206.219 18.138 205.89 17.764C205.573 17.39 205.414 16.8857 205.414 16.251C205.414 15.7297 205.561 15.2537 205.856 14.823C206.162 14.3923 206.593 14.0523 207.148 13.803C207.715 13.5537 208.378 13.429 209.137 13.429C210.259 13.429 211.154 13.7123 211.823 14.279C212.492 14.8343 212.86 15.588 212.928 16.54H210.65C210.616 16.166 210.457 15.8713 210.174 15.656C209.902 15.4293 209.534 15.316 209.069 15.316C208.638 15.316 208.304 15.3953 208.066 15.554C207.839 15.7127 207.726 15.9337 207.726 16.217C207.726 16.5343 207.885 16.778 208.202 16.948C208.519 17.1067 209.012 17.271 209.681 17.441C210.361 17.611 210.922 17.7867 211.364 17.968C211.806 18.1493 212.186 18.4327 212.503 18.818C212.832 19.192 213.002 19.6907 213.013 20.314C213.013 20.858 212.86 21.3453 212.554 21.776C212.259 22.2067 211.829 22.5467 211.262 22.796C210.707 23.034 210.055 23.153 209.307 23.153Z" fill="white"/>
</svg>
