<svg width="95" height="30" viewBox="0 0 95 30" fill="none" xmlns="http://www.w3.org/2000/svg">
<path d="M36.5215 8.62807C36.0324 8.62807 35.5861 8.69319 35.1825 8.82341C34.7913 8.94325 34.4483 9.14501 34.1536 9.4287C33.8705 9.70077 33.6418 10.0548 33.4676 10.4907C33.3043 10.926 33.2117 11.4457 33.1897 12.0498C33.1555 13.0298 33.1555 14.0099 33.1897 14.99C33.2117 15.5995 33.3043 16.1192 33.4676 16.549C33.6418 16.9843 33.8705 17.3438 34.1536 17.6275C34.447 17.8996 34.79 18.1014 35.1825 18.2328C35.5861 18.3526 36.0324 18.4126 36.5215 18.4126C37.0021 18.4126 37.4484 18.3474 37.8605 18.2172C38.2725 18.0754 38.6265 17.8693 38.9225 17.5991C39.2282 17.316 39.4684 16.9565 39.6433 16.5206C39.8175 16.0853 39.9047 15.5735 39.9047 14.9854V14.1527H37.0589C36.8193 14.1527 36.6994 14.0304 36.6994 13.7858V13.5565C36.6994 13.312 36.8193 13.1897 37.0589 13.1897H40.5531C40.7976 13.1897 40.9199 13.312 40.9199 13.5565V14.9936C40.9199 15.6478 40.8221 16.247 40.6264 16.7911C40.4308 17.3249 40.1422 17.7883 39.7607 18.1814C39.3908 18.5727 38.9274 18.8775 38.3704 19.0958C37.8201 19.3024 37.1995 19.4058 36.5087 19.4058C35.8007 19.4058 35.1801 19.3024 34.647 19.0958C34.1132 18.8781 33.6614 18.5786 33.2915 18.197C32.932 17.8161 32.6544 17.3643 32.4588 16.8416C32.2735 16.3078 32.1702 15.7197 32.1488 15.0771C32.1268 14.588 32.1158 14.0707 32.1158 13.5254C32.1158 12.9751 32.1268 12.4579 32.1488 11.9736C32.1708 11.3317 32.2796 10.749 32.4753 10.2257C32.6709 9.6919 32.9485 9.23458 33.308 8.85368C33.6779 8.47278 34.1297 8.1787 34.6635 7.97144C35.1972 7.75378 35.8123 7.64495 36.5087 7.64495C37.2607 7.64495 37.9033 7.75928 38.4364 7.98794C38.9701 8.2166 39.4058 8.49173 39.7433 8.81333C40.0808 9.12942 40.3314 9.46171 40.4953 9.81021C40.6585 10.1587 40.7456 10.4473 40.7566 10.6759C40.7677 10.7738 40.7401 10.8554 40.6741 10.9208C40.6087 10.9758 40.5216 11.0033 40.4127 11.0033H40.0532C39.9554 11.0033 39.8845 10.982 39.8405 10.9392C39.7977 10.8841 39.7543 10.797 39.7102 10.6778C39.6234 10.4332 39.5011 10.1887 39.3434 9.9441C39.1906 9.69955 38.9845 9.48189 38.7253 9.29113C38.4642 9.09549 38.1539 8.93744 37.7944 8.817C37.4349 8.69716 37.01 8.63725 36.5197 8.63725L36.5215 8.62807ZM44.2324 11.8773C44.6237 11.1253 45.3641 10.7493 46.4536 10.7493H47.0589C47.2986 10.7493 47.4184 10.8691 47.4184 11.1088V11.3381C47.4184 11.5778 47.2986 11.6976 47.0589 11.6976H46.3564C45.7022 11.6976 45.185 11.888 44.8047 12.2689C44.4238 12.6498 44.2334 13.1671 44.2334 13.8207V18.883C44.2334 18.9919 44.1951 19.079 44.1187 19.1444C44.0533 19.2098 43.9662 19.2425 43.8573 19.2425H43.596C43.3563 19.2425 43.2365 19.1227 43.2365 18.883V11.1244C43.2365 11.0156 43.2692 10.9285 43.3346 10.863C43.4 10.7866 43.4871 10.7484 43.596 10.7484H43.8573C43.9662 10.7484 44.0533 10.7866 44.1187 10.863C44.1951 10.9285 44.2334 11.0156 44.2334 11.1244V11.8764L44.2324 11.8773ZM54.3205 19.2471C54.0808 19.2471 53.961 19.1273 53.961 18.8876V18.12C53.8632 18.2729 53.7326 18.4257 53.5694 18.5785C53.4165 18.7314 53.2261 18.8674 52.998 18.9867C52.7694 19.1065 52.4942 19.2043 52.1726 19.2801C51.8566 19.3669 51.4867 19.4104 51.063 19.4104C50.6717 19.4104 50.2957 19.3504 49.9349 19.2306C49.5864 19.1004 49.2762 18.9261 49.0041 18.7079C48.743 18.4902 48.5309 18.2343 48.3676 17.9403C48.2148 17.6468 48.1383 17.3258 48.1383 16.9773C48.1383 16.6074 48.2148 16.2751 48.3676 15.9804C48.5309 15.687 48.754 15.4311 49.0371 15.2128C49.3202 14.9842 49.6577 14.7992 50.0496 14.658C50.4531 14.5051 50.8942 14.3963 51.3729 14.3315L53.9536 13.972V13.4006C53.9536 12.8125 53.7739 12.3551 53.4144 12.0287C53.0659 11.7022 52.5052 11.5389 51.7324 11.5389C51.1229 11.5389 50.649 11.6588 50.3109 11.8984C49.9845 12.1271 49.7784 12.3778 49.6928 12.6505C49.65 12.7807 49.5956 12.8733 49.5296 12.9283C49.4746 12.9711 49.3981 12.9925 49.3003 12.9925H49.071C48.9732 12.9925 48.8861 12.9598 48.8097 12.8944C48.7442 12.818 48.7115 12.7309 48.7115 12.633C48.7115 12.4802 48.7659 12.2897 48.8748 12.0617C48.9836 11.833 49.1578 11.6099 49.3975 11.3922C49.6421 11.1745 49.9579 10.9896 50.3449 10.8374C50.7258 10.6741 51.1892 10.5925 51.7352 10.5925C52.3772 10.5925 52.9054 10.6796 53.3199 10.8539C53.7442 11.0281 54.0765 11.2568 54.3168 11.5398C54.5565 11.8119 54.7197 12.1167 54.8065 12.4542C54.9044 12.7917 54.9533 13.124 54.9533 13.4511V18.8894C54.9533 19.1291 54.8334 19.2489 54.5938 19.2489H54.3159L54.3205 19.2471ZM51.2335 18.463C51.6034 18.463 51.9519 18.4031 52.279 18.2832C52.6165 18.153 52.9106 17.9626 53.1613 17.7119C53.4058 17.4673 53.6015 17.1516 53.7482 16.7645C53.8901 16.3836 53.961 15.9373 53.961 15.4256V14.8707L51.8544 15.1642C50.0471 15.4088 49.1435 15.9859 49.1435 16.8957C49.1435 17.1678 49.2034 17.4019 49.3232 17.5982C49.4535 17.7938 49.6167 17.9571 49.813 18.0879C50.0086 18.2181 50.2318 18.316 50.4824 18.3814C50.727 18.4364 50.9777 18.4639 51.2345 18.4639L51.2335 18.463ZM61.2812 19.4104C60.5952 19.4104 60.0346 19.2881 59.5993 19.0435C59.164 18.799 58.81 18.4942 58.5373 18.1292V21.9993C58.5373 22.239 58.4174 22.3588 58.1778 22.3588H57.8999C57.6602 22.3588 57.5404 22.239 57.5404 21.9993V11.1088C57.5404 10.8691 57.6602 10.7493 57.8999 10.7493H58.1778C58.4174 10.7493 58.5373 10.8691 58.5373 11.1088V11.8764C58.8093 11.5065 59.1633 11.2017 59.5993 10.9621C60.0346 10.7175 60.5952 10.5952 61.2812 10.5952C61.9128 10.5952 62.4462 10.7096 62.8816 10.9382C63.3279 11.1559 63.6874 11.45 63.9601 11.8205C64.2321 12.18 64.4278 12.5939 64.547 13.0622C64.6772 13.5196 64.7537 13.9879 64.7763 14.4672C64.7873 14.6305 64.7928 14.8102 64.7928 15.0065C64.7928 15.2021 64.7873 15.3819 64.7763 15.5457C64.7543 16.0263 64.6778 16.5001 64.547 16.9672C64.4272 17.4245 64.2315 17.8385 63.9601 18.209C63.688 18.5685 63.3285 18.8625 62.8816 19.0912C62.4462 19.3089 61.9128 19.4177 61.2812 19.4177V19.4104ZM58.5373 14.4122C58.5263 14.5754 58.5208 14.7876 58.5208 15.0487C58.5208 15.3097 58.5263 15.5219 58.5373 15.6851C58.5483 16.0116 58.6027 16.3439 58.7005 16.682C58.8094 17.0085 58.9726 17.3026 59.1903 17.5642C59.4079 17.8253 59.683 18.043 60.0156 18.2172C60.3421 18.3805 60.734 18.4621 61.1914 18.4621C61.6719 18.4621 62.0693 18.3805 62.3836 18.2172C62.7101 18.054 62.9714 17.8363 63.1677 17.5642C63.3743 17.2812 63.5211 16.9602 63.6079 16.6013C63.7057 16.2314 63.7656 15.8502 63.7876 15.4577C63.7987 15.152 63.7987 14.8472 63.7876 14.5433C63.7656 14.152 63.7057 13.776 63.6079 13.4153C63.5211 13.0558 63.3743 12.74 63.1677 12.4679C62.972 12.1849 62.7107 11.9617 62.3836 11.7985C62.0675 11.6242 61.6701 11.5371 61.1914 11.5371C60.723 11.5371 60.3256 11.6242 59.9991 11.7985C59.6726 11.9727 59.3975 12.2014 59.1737 12.4845C58.9671 12.7565 58.809 13.0613 58.6996 13.3988C58.6018 13.7363 58.5474 14.0738 58.5364 14.4113L58.5373 14.4122ZM68.0136 11.8773C68.3071 11.4964 68.6611 11.1862 69.0756 10.9465C69.4877 10.7068 70.0483 10.587 70.7576 10.587C71.3127 10.587 71.7972 10.6796 72.2112 10.8649C72.6232 11.0501 72.9662 11.306 73.2401 11.6325C73.5232 11.959 73.7354 12.3457 73.8766 12.7926C74.0184 13.2389 74.0894 13.7235 74.0894 14.2462V18.8849C74.0894 19.1245 73.9695 19.2444 73.7299 19.2444H73.4547C73.2151 19.2444 73.0952 19.1245 73.0952 18.8849V14.3269C73.0952 13.4557 72.8831 12.7752 72.4588 12.2854C72.0345 11.7841 71.4139 11.5334 70.5971 11.5334C69.8133 11.5334 69.1872 11.778 68.7189 12.2671C68.2505 12.7562 68.0164 13.4431 68.0164 14.3278V18.8858C68.0164 19.1254 67.8965 19.2453 67.6569 19.2453H67.379C67.1393 19.2453 67.0195 19.1254 67.0195 18.8858V8.00445C67.0195 7.76478 67.1393 7.64495 67.379 7.64495H67.6569C67.8965 7.64495 68.0164 7.76478 68.0164 8.00445V11.8746L68.0136 11.8773ZM80.7521 7.6477C81.3836 7.6477 81.9608 7.74033 82.4835 7.92558C83.0063 8.11083 83.4526 8.39391 83.8225 8.77481C84.2034 9.1447 84.4975 9.61303 84.7047 10.1798C84.9224 10.7349 85.0422 11.3937 85.0642 12.1561C85.0863 12.6453 85.0973 13.1026 85.0973 13.5281C85.0973 13.9524 85.0863 14.4097 85.0642 14.9001C85.0092 16.4573 84.6118 17.6006 83.872 18.33L84.9175 19.8001C84.9285 19.8221 84.9395 19.8435 84.9505 19.8643C84.9615 19.8863 84.967 19.9245 84.967 19.979C84.967 20.0658 84.9343 20.1422 84.8689 20.2082C84.8035 20.2736 84.7271 20.3064 84.6396 20.3064H84.2801C84.1603 20.3064 84.057 20.2574 83.9702 20.1596C83.8833 20.0728 83.8124 19.9964 83.7574 19.9303L83.0365 18.9335C82.3823 19.2496 81.6199 19.4076 80.7493 19.4076C79.3883 19.4076 78.3377 19.0429 77.5973 18.3135C76.8679 17.5841 76.4812 16.4463 76.4371 14.9001C76.4151 14.411 76.4041 13.9536 76.4041 13.5281C76.4041 13.1038 76.4151 12.6465 76.4371 12.1561C76.4591 11.3937 76.5735 10.7349 76.7801 10.1798C76.9978 9.61364 77.2919 9.14532 77.6624 8.77481C78.0433 8.39391 78.4896 8.11083 79.0013 7.92558C79.5241 7.74033 80.1067 7.6477 80.7493 7.6477H80.7521ZM80.7521 8.62899C80.2947 8.62899 79.8698 8.69991 79.4773 8.84176C79.086 8.97198 78.743 9.18414 78.4483 9.47822C78.1549 9.77169 77.9207 10.1477 77.7458 10.6062C77.5826 11.0636 77.49 11.6077 77.4679 12.2387C77.4569 12.4832 77.4459 12.7119 77.4349 12.9247C77.4349 13.1313 77.4349 13.3331 77.4349 13.5299C77.4349 13.7256 77.4349 13.9316 77.4349 14.1481C77.4459 14.3547 77.4569 14.5779 77.4679 14.8175C77.49 15.4595 77.5826 16.0098 77.7458 16.4683C77.9201 16.9146 78.1487 17.2845 78.4318 17.578C78.7253 17.8715 79.0683 18.0891 79.4608 18.231C79.8521 18.3612 80.2813 18.4263 80.7484 18.4263C81.2167 18.4263 81.6459 18.3612 82.036 18.231C82.4273 18.0891 82.7648 17.8715 83.0485 17.578C83.3419 17.2845 83.5706 16.9146 83.7345 16.4683C83.9087 16.011 84.0065 15.4607 84.0279 14.8175C84.0389 14.5779 84.0444 14.3547 84.0444 14.1481C84.0444 13.9304 84.0444 13.7244 84.0444 13.5299C84.0444 13.3343 84.0444 13.1325 84.0444 12.9247C84.0444 12.718 84.0389 12.4893 84.0279 12.2387C84.0059 11.6071 83.9081 11.063 83.7345 10.6062C83.5712 10.1489 83.3425 9.77291 83.0485 9.47822C82.755 9.18475 82.412 8.9726 82.0195 8.84176C81.6282 8.69991 81.2033 8.62899 80.7447 8.62899H80.7521ZM88.7244 18.264H94.359C94.6036 18.264 94.7258 18.3863 94.7258 18.6308V18.8757C94.7258 19.1154 94.6036 19.2352 94.359 19.2352H88.0549C87.8152 19.2352 87.6954 19.1154 87.6954 18.8757V8.16953C87.6954 7.92986 87.8152 7.81003 88.0549 7.81003H88.3649C88.6045 7.81003 88.7244 7.92986 88.7244 8.16953V18.264ZM2.42669 22.8614L1.32617 22.2249L13.5951 0.975838L14.6956 1.6123L2.42669 22.8614Z" fill="#E10098"/>
<path d="M1.07617 20.5283H25.614V21.8003H1.07617V20.5283Z" fill="#E10098"/>
<path d="M13.8359 28.3291L1.56152 21.2427L2.19799 20.1422L14.4715 27.2267L13.8359 28.3291ZM24.4981 9.85881L12.2246 2.77333L12.861 1.67282L25.1345 8.75921L24.4981 9.85881Z" fill="#E10098"/>
<path d="M2.20092 9.85514L1.56445 8.75463L13.848 1.67649L14.4845 2.777L2.20092 9.85514Z" fill="#E10098"/>
<path d="M24.2719 22.8614L12.0021 1.6123L13.1026 0.975838L25.3715 22.2249L24.2719 22.8614ZM2.0498 7.91091H3.31998V22.0837H2.0498V7.91091ZM23.3778 7.91091H24.6498V22.0837H23.3768L23.3778 7.91091Z" fill="#E10098"/>
<path d="M13.6183 27.7907L13.0625 26.8278L23.7375 20.6649L24.2932 21.6279L13.6183 27.7907Z" fill="#E10098"/>
<path d="M26.3348 22.4972C25.9798 23.1114 25.3955 23.5596 24.7103 23.7434C24.0251 23.9272 23.295 23.8316 22.6802 23.4776C22.0661 23.1226 21.6179 22.5383 21.4341 21.8531C21.2503 21.1679 21.3459 20.4378 21.6999 19.823C22.0549 19.2088 22.6392 18.7607 23.3244 18.5769C24.0096 18.393 24.7397 18.4886 25.3545 18.8426C26.6421 19.5763 27.0777 21.2271 26.3348 22.4972ZM4.99222 10.1715C4.63715 10.7857 4.05289 11.2338 3.3677 11.4176C2.68251 11.6014 1.95239 11.5059 1.3376 11.1519C0.723437 10.7968 0.27526 10.2125 0.091453 9.52735C-0.0923536 8.84216 0.00323212 8.11203 0.357227 7.49725C0.712296 6.88308 1.29656 6.43491 1.98175 6.2511C2.66694 6.06729 3.39707 6.16288 4.01185 6.51687C5.2912 7.25055 5.72682 8.90132 4.99314 10.1715M0.365481 22.4972C-0.370029 21.2179 0.0665082 19.5864 1.34677 18.8426C2.62612 18.1071 4.25763 18.5437 5.00139 19.8239C5.7369 21.1033 5.30037 22.7348 4.0201 23.4785C2.7325 24.2141 1.10099 23.7775 0.365481 22.4972ZM21.709 10.1715C20.9735 8.89215 21.41 7.26064 22.6903 6.51687C23.9697 5.78136 25.6012 6.2179 26.3449 7.49817C27.0804 8.77751 26.6439 10.409 25.3636 11.1528C24.7489 11.5068 24.0187 11.6024 23.3335 11.4186C22.6484 11.2348 22.0641 10.7857 21.709 10.1715ZM13.3479 30C11.8695 30 10.6745 28.805 10.6745 27.3267C10.6745 25.8483 11.8723 24.6533 13.3479 24.6533C14.8235 24.6533 16.0212 25.8483 16.0212 27.3267C16.02 28.0353 15.7379 28.7146 15.2369 29.2157C14.7358 29.7167 14.0565 29.9988 13.3479 30ZM13.3479 5.34666C11.8695 5.34666 10.6745 4.15169 10.6745 2.67333C10.6745 1.19497 11.8723 0 13.3479 0C14.8235 0 16.0212 1.19497 16.0212 2.67333C16.0218 3.02457 15.9531 3.37247 15.8189 3.69708C15.6848 4.0217 15.4879 4.31665 15.2395 4.56501C14.9912 4.81337 14.6962 5.01026 14.3716 5.1444C14.047 5.27853 13.6991 5.34726 13.3479 5.34666Z" fill="#E10098"/>
</svg>
