<svg width="115" height="30" viewBox="0 0 115 30" fill="none" xmlns="http://www.w3.org/2000/svg">
<g clip-path="url(#clip0_454_2405)">
<path d="M44.1055 0.0317459V7.53439H46.6822V2.96296H48.6769L50.8462 5.13227V7.53439H53.1372V3.19577L49.206 0.0582009L44.1055 0.0317459Z" fill="white"/>
<path d="M54.4287 0.0317459V7.53439L56.4816 9.5873V6.36508H59.561L58.0954 4.89418H56.5398V2.60847H59.561L62.0689 0.10582L54.4287 0.0317459Z" fill="white"/>
<path d="M61.3594 2.72487L63.7827 0H73.0789L70.3329 2.68254H67.7403L67.6821 7.53439H65.1424L65.1001 2.66667L61.3594 2.72487Z" fill="white"/>
<path d="M0 7.53439V12.3122L4.64021 16.9524V12.2434L0 7.53439Z" fill="white"/>
<path d="M0 14.2381V25.3598L5.16931 30V18.9418L0 14.2381Z" fill="white"/>
<path d="M7.91521 12.2434V14.2381L14.8041 21.127H6.8623L11.0528 25.3175H23.1798V22.8254L16.8676 16.5132H21.0687L23.1692 18.6085V12.2434H7.91521Z" fill="white"/>
<path d="M24.8096 7.98413V25.3175H35.4233L39.635 21.1058V15.3757L33.5979 21.4074H29.5609V12.2434L24.8096 7.98413Z" fill="white"/>
<path d="M40.1748 22.5873L51.3177 12.2434H58.2489V25.3175H44.9843L49.5452 21.2857H53.9579V16.6508H52.9579L40.1748 28.3333V22.5873Z" fill="white"/>
<path d="M59.7041 12.2434V25.5185H64.0427V16.6508H67.7993L71.9105 20.7619V25.5185H76.7147V18.7778L70.0745 12.1376L59.7041 12.2434Z" fill="white"/>
<path d="M73.7832 12.2434L78.1271 16.5873H89.4393L91.9419 19.0899V21.2381H82.8626L86.5821 17.5185H80.2911L78.1959 19.6138V25.5185H95.1853L96.3335 24.3757V17.0741L91.5081 12.2487L73.7832 12.2434Z" fill="white"/>
<path d="M99.4654 11.7989V13.7884L106.349 20.6773H98.4072L102.598 24.873H114.725V22.3757L108.413 16.0635H112.614L114.714 18.164V11.7989H99.4654Z" fill="white"/>
</g>
<defs>
<clipPath id="clip0_454_2405">
<rect width="114.725" height="30" fill="white"/>
</clipPath>
</defs>
</svg>
