<svg width="78" height="40" viewBox="0 0 78 40" fill="none" xmlns="http://www.w3.org/2000/svg">
<path d="M18.739 4.71117C18.739 4.39584 18.8642 4.09341 19.0872 3.87044C19.3102 3.64746 19.6126 3.52219 19.928 3.52219C20.2433 3.52219 20.5457 3.64746 20.7687 3.87044C20.9917 4.09341 21.1169 4.39584 21.1169 4.71117C21.1169 5.02651 20.9917 5.32893 20.7687 5.55191C20.5457 5.77489 20.2433 5.90016 19.928 5.90016C19.6126 5.90016 19.3102 5.77489 19.0872 5.55191C18.8642 5.32893 18.739 5.02651 18.739 4.71117ZM4.55427 15.4766C4.55427 15.1613 4.67953 14.8589 4.90251 14.6359C5.12549 14.4129 5.42791 14.2876 5.74325 14.2876C6.05859 14.2876 6.36101 14.4129 6.58399 14.6359C6.80696 14.8589 6.93223 15.1613 6.93223 15.4766C6.93223 15.792 6.80696 16.0944 6.58399 16.3174C6.36101 16.5403 6.05859 16.6656 5.74325 16.6656C5.42791 16.6656 5.12549 16.5403 4.90251 16.3174C4.67953 16.0944 4.55427 15.792 4.55427 15.4766ZM32.9153 15.532C32.9153 15.2167 33.0406 14.9142 33.2635 14.6913C33.4865 14.4683 33.7889 14.343 34.1043 14.343C34.4196 14.343 34.722 14.4683 34.945 14.6913C35.168 14.9142 35.2933 15.2167 35.2933 15.532C35.2933 15.8473 35.168 16.1498 34.945 16.3727C34.722 16.5957 34.4196 16.721 34.1043 16.721C33.7889 16.721 33.4865 16.5957 33.2635 16.3727C33.0406 16.1498 32.9153 15.8473 32.9153 15.532ZM7.99619 17.1699C8.54327 16.9182 8.7908 16.2855 8.54747 15.7376L8.02136 14.5352H10.0964V23.8868H5.91107C5.39435 22.072 5.23337 20.1744 5.43698 18.2985L7.99619 17.1699ZM16.6748 17.3998V14.6359H21.6145C21.8696 14.6359 23.416 14.9312 23.416 16.0875C23.416 17.0474 22.2296 17.3922 21.2546 17.3922L16.6748 17.3998ZM9.9286 32.2407C9.9286 32.0845 9.95935 31.9299 10.0191 31.7857C10.0789 31.6414 10.1664 31.5103 10.2768 31.3999C10.3873 31.2895 10.5183 31.202 10.6626 31.1422C10.8068 31.0824 10.9614 31.0517 11.1176 31.0517C11.2737 31.0517 11.4283 31.0824 11.5726 31.1422C11.7168 31.202 11.8479 31.2895 11.9583 31.3999C12.0687 31.5103 12.1563 31.6414 12.2161 31.7857C12.2758 31.9299 12.3066 32.0845 12.3066 32.2407C12.3066 32.556 12.1813 32.8584 11.9583 33.0814C11.7353 33.3044 11.4329 33.4297 11.1176 33.4297C10.8022 33.4297 10.4998 33.3044 10.2768 33.0814C10.0539 32.8584 9.9286 32.556 9.9286 32.2407ZM27.546 32.2961C27.546 31.9807 27.6713 31.6783 27.8942 31.4553C28.1172 31.2323 28.4196 31.1071 28.735 31.1071C29.0503 31.1071 29.3527 31.2323 29.5757 31.4553C29.7987 31.6783 29.924 31.9807 29.924 32.2961C29.924 32.6114 29.7987 32.9138 29.5757 33.1368C29.3527 33.3598 29.0503 33.485 28.735 33.485C28.4196 33.485 28.1172 33.3598 27.8942 33.1368C27.6713 32.9138 27.546 32.6114 27.546 32.2961ZM27.9135 29.6001C27.7742 29.57 27.6304 29.5678 27.4902 29.5935C27.35 29.6192 27.2163 29.6723 27.0967 29.7498C26.9771 29.8273 26.874 29.9276 26.7933 30.0451C26.7126 30.1625 26.6559 30.2947 26.6264 30.4341L26.039 33.2199C24.1198 34.0892 22.0356 34.534 19.9287 34.5238C17.8218 34.5137 15.7419 34.0489 13.8312 33.1612L13.2438 30.3754C13.2142 30.2361 13.1574 30.1039 13.0767 29.9866C12.9959 29.8692 12.8928 29.769 12.7732 29.6916C12.6536 29.6142 12.5199 29.5611 12.3798 29.5355C12.2397 29.5099 12.0959 29.5121 11.9567 29.5422L9.49815 30.0708C9.04132 29.6003 8.61663 29.0996 8.22694 28.5722H20.1906C20.3248 28.5722 20.4171 28.547 20.4171 28.4245V24.193C20.4171 24.0697 20.3265 24.0453 20.1906 24.0453H16.6916V21.3628H20.4675C20.8132 21.3628 22.3135 21.4618 22.7943 23.3808L23.5008 26.5064C23.7257 27.1961 24.6419 28.573 25.6178 28.573H31.7951C31.3808 29.1275 30.9277 29.6518 30.4392 30.1421L27.9135 29.6001ZM34.5565 18.426C34.6406 19.2707 34.651 20.1211 34.5876 20.9676H33.0772C32.9262 20.9676 32.8675 21.0666 32.8675 21.2134V21.9032C32.8675 23.5268 31.9445 23.88 31.1499 23.9698C30.3947 24.0563 29.5388 23.651 29.4348 23.1828C28.9842 20.6487 28.2332 20.1067 27.0476 19.1719C28.5193 18.2372 30.0515 16.8586 30.0515 15.0134C30.0515 13.0206 28.6855 11.7662 27.7541 11.1503C26.4476 10.2894 25.0019 10.1166 24.6109 10.1166H9.08532C11.2327 7.7168 14.1114 6.09208 17.2756 5.49404L19.1065 7.42393C19.2047 7.527 19.3223 7.60968 19.4525 7.66725C19.5827 7.72481 19.7229 7.75613 19.8653 7.7594C20.0076 7.76268 20.1492 7.73784 20.2819 7.68633C20.4146 7.63481 20.5358 7.55762 20.6387 7.45917L22.6877 5.49991C24.7761 5.89099 26.7543 6.73199 28.485 7.96449C30.2156 9.197 31.6573 10.7915 32.7097 12.6372L31.3085 15.8047C31.0567 16.3526 31.3135 16.9945 31.8597 17.237L34.5565 18.426ZM38.0555 18.4763L38.0077 17.9863L39.4526 16.6388C39.5186 16.5687 39.5669 16.4839 39.5935 16.3914C39.6201 16.2989 39.6242 16.2014 39.6055 16.107C39.5867 16.0126 39.5457 15.924 39.4859 15.8487C39.426 15.7733 39.349 15.7134 39.2613 15.6738L37.4153 14.9832L37.271 14.5066L38.423 12.9065C38.4742 12.8249 38.5051 12.7322 38.5131 12.6361C38.5212 12.5401 38.5061 12.4436 38.4692 12.3546C38.4324 12.2655 38.3747 12.1866 38.3012 12.1244C38.2276 12.0622 38.1402 12.0185 38.0463 11.9969L36.0996 11.6798L35.8647 11.2434L36.6828 9.4478C36.8506 9.08196 36.5401 8.61459 36.1374 8.6297L34.1613 8.6985L33.8492 8.32091L34.3023 6.39606C34.3183 6.30108 34.3114 6.20364 34.2822 6.11187C34.2529 6.0201 34.2021 5.93666 34.1341 5.86851C34.066 5.80035 33.9826 5.74946 33.8909 5.72009C33.7991 5.69071 33.7017 5.68369 33.6067 5.69962L31.6818 6.15272L31.3026 5.84058L31.3722 3.86454C31.3694 3.76828 31.3436 3.67409 31.297 3.58983C31.2503 3.50557 31.1842 3.43367 31.1042 3.38014C31.0241 3.32661 30.9324 3.29299 30.8368 3.28208C30.7411 3.27118 30.6442 3.28331 30.5541 3.31746L28.7585 4.1364L28.3222 3.90146L28.005 1.95478C27.9834 1.861 27.9397 1.77374 27.8775 1.70027C27.8154 1.6268 27.7365 1.56923 27.6476 1.53238C27.5587 1.49552 27.4623 1.48043 27.3664 1.48838C27.2705 1.49632 27.1779 1.52706 27.0963 1.57804L25.502 2.72087L25.0262 2.57655L24.3357 0.730561C24.2962 0.642773 24.2363 0.565693 24.161 0.505742C24.0857 0.44579 23.9971 0.404703 23.9027 0.385904C23.8083 0.367104 23.7108 0.371136 23.6182 0.397664C23.5257 0.424192 23.4408 0.472447 23.3707 0.538411L22.0139 1.98247L21.5239 1.93465L20.4834 0.253122C20.4275 0.174834 20.3538 0.111022 20.2682 0.0669954C20.1827 0.0229688 20.0879 0 19.9917 0C19.8955 0 19.8007 0.0229688 19.7152 0.0669954C19.6297 0.111022 19.5559 0.174834 19.5 0.253122L18.4596 1.93465L17.9695 1.98247L16.622 0.536733C16.5519 0.470769 16.467 0.422514 16.3745 0.395986C16.2819 0.369458 16.1844 0.365426 16.09 0.384226C15.9956 0.403025 15.907 0.444112 15.8317 0.504063C15.7564 0.564015 15.6965 0.641095 15.657 0.728883L14.9665 2.57487L14.4899 2.71919L12.8956 1.56965C12.8139 1.51849 12.7212 1.48761 12.6252 1.47957C12.5292 1.47153 12.4327 1.48658 12.3437 1.52345C12.2546 1.56032 12.1757 1.61795 12.1135 1.69152C12.0513 1.7651 12.0076 1.85249 11.986 1.94639L11.6689 3.89307L11.2325 4.12801L9.4369 3.30907C9.34685 3.27492 9.24995 3.26279 9.15426 3.27369C9.05858 3.2846 8.96689 3.31822 8.88684 3.37175C8.80678 3.42528 8.74069 3.49718 8.69406 3.58144C8.64743 3.6657 8.62163 3.75989 8.61879 3.85615L8.68759 5.83219L8.30833 6.14433L6.38347 5.69123C6.28841 5.67515 6.19088 5.68205 6.09903 5.71136C6.00719 5.74067 5.92369 5.79154 5.85552 5.85971C5.78734 5.92788 5.73648 6.01138 5.70717 6.10323C5.67785 6.19508 5.67095 6.2926 5.68703 6.38766L6.14013 8.31252L5.82967 8.69011L3.85363 8.62131C3.45507 8.60956 3.14041 9.07441 3.30655 9.43941L4.12549 11.2351L3.89055 11.6714L1.94388 11.9885C1.54951 12.0532 1.33386 12.5726 1.56629 12.8981L2.71835 14.4982L2.57403 14.9748L0.728044 15.6654C0.64032 15.705 0.56332 15.7649 0.503455 15.8403C0.443591 15.9157 0.402594 16.0042 0.383878 16.0986C0.365162 16.193 0.369269 16.2905 0.395856 16.383C0.422444 16.4755 0.470744 16.5603 0.536733 16.6304L1.98164 17.9779L1.93381 18.468L0.253122 19.5084C0.174834 19.5643 0.111022 19.6381 0.0669954 19.7236C0.0229688 19.8091 0 19.9039 0 20.0001C0 20.0963 0.0229688 20.1911 0.0669954 20.2766C0.111022 20.3622 0.174834 20.4359 0.253122 20.4918L1.93381 21.5323L1.98164 22.0223L0.536733 23.3699C0.470744 23.4399 0.422444 23.5247 0.395856 23.6172C0.369269 23.7097 0.365162 23.8072 0.383878 23.9016C0.402594 23.996 0.443591 24.0846 0.503455 24.1599C0.56332 24.2353 0.64032 24.2953 0.728044 24.3348L2.57403 25.0254L2.71835 25.502L1.56629 27.1021C1.51531 27.1838 1.48457 27.2764 1.47663 27.3723C1.46869 27.4682 1.48377 27.5646 1.52063 27.6535C1.55749 27.7424 1.61505 27.8212 1.68852 27.8834C1.762 27.9455 1.84926 27.9892 1.94304 28.0109L3.88971 28.328L4.12466 28.766L3.30571 30.5617C3.27156 30.6517 3.25943 30.7486 3.27034 30.8443C3.28124 30.94 3.31486 31.0317 3.36839 31.1117C3.42193 31.1918 3.49382 31.2579 3.57808 31.3045C3.66234 31.3511 3.75653 31.3769 3.85279 31.3798L5.828 31.3101L6.14013 31.6894L5.68703 33.6151C5.67125 33.71 5.67839 33.8074 5.70783 33.899C5.73728 33.9906 5.78819 34.0739 5.85632 34.1418C5.92445 34.2098 6.00784 34.2605 6.09953 34.2897C6.19122 34.319 6.28857 34.3259 6.38347 34.3099L8.30833 33.8568L8.68759 34.1672L8.61879 36.1441C8.62176 36.2403 8.64766 36.3344 8.69434 36.4185C8.74102 36.5027 8.80713 36.5745 8.88717 36.6279C8.9672 36.6813 9.05885 36.7149 9.15447 36.7257C9.25009 36.7366 9.34692 36.7245 9.4369 36.6903L11.2325 35.8722L11.6689 36.1072L11.986 38.0538C12.0075 38.1478 12.0511 38.2353 12.1133 38.309C12.1755 38.3827 12.2544 38.4404 12.3434 38.4773C12.4324 38.5143 12.529 38.5294 12.6251 38.5214C12.7211 38.5134 12.8139 38.4826 12.8956 38.4314L14.4957 37.2785L14.9723 37.4237L15.6629 39.2697C15.7025 39.3574 15.7624 39.4344 15.8378 39.4943C15.9131 39.5541 16.0017 39.5951 16.0961 39.6139C16.1905 39.6326 16.288 39.6285 16.3805 39.6019C16.473 39.5753 16.5578 39.527 16.6278 39.461L17.9754 38.0161L18.4654 38.0648L19.5059 39.7454C19.7157 40.0844 20.2779 40.0853 20.4893 39.7454L21.5306 38.0631L22.0206 38.0144L23.3682 39.4593C23.4383 39.5253 23.5231 39.5736 23.6156 39.6002C23.708 39.6268 23.8055 39.6309 23.8999 39.6122C23.9943 39.5935 24.0829 39.5525 24.1583 39.4926C24.2336 39.4327 24.2936 39.3557 24.3332 39.268L25.0237 37.422L25.5003 37.2769L27.1004 38.4298C27.1821 38.4807 27.2748 38.5114 27.3708 38.5193C27.4667 38.5272 27.5632 38.5121 27.6521 38.4751C27.741 38.4382 27.8198 38.3805 27.8819 38.3069C27.944 38.2334 27.9877 38.146 28.0092 38.0522L28.3264 36.1055L28.7627 35.8706L30.5583 36.6887C30.6483 36.7228 30.7451 36.7349 30.8407 36.7241C30.9364 36.7132 31.028 36.6797 31.108 36.6262C31.1881 36.5728 31.2542 36.501 31.3009 36.4168C31.3475 36.3327 31.3735 36.2386 31.3764 36.1424L31.3076 34.1655L31.6869 33.8551L33.6117 34.3082C33.7066 34.324 33.8038 34.317 33.8954 34.2877C33.987 34.2584 34.0703 34.2077 34.1383 34.1398C34.2063 34.0718 34.2571 33.9886 34.2865 33.8971C34.316 33.8055 34.3231 33.7083 34.3073 33.6134L33.8542 31.6877L34.1647 31.3085L36.1407 31.3781C36.2369 31.3751 36.331 31.3492 36.4152 31.3025C36.4993 31.2559 36.5711 31.1898 36.6245 31.1097C36.678 31.0297 36.7115 30.938 36.7224 30.8424C36.7333 30.7468 36.7211 30.65 36.687 30.56L35.8689 28.7644L36.1038 28.3264L38.0505 28.0092C38.1443 27.9876 38.2315 27.9439 38.305 27.8817C38.3785 27.8196 38.436 27.7407 38.4729 27.6518C38.5098 27.5629 38.5248 27.4665 38.5169 27.3706C38.509 27.2747 38.4782 27.1821 38.4272 27.1005L37.2752 25.5003L37.4195 25.0237L39.2655 24.3332C39.3532 24.2936 39.4302 24.2336 39.4901 24.1583C39.5499 24.0829 39.5909 23.9943 39.6097 23.8999C39.6284 23.8055 39.6243 23.708 39.5977 23.6155C39.5711 23.5231 39.5228 23.4383 39.4568 23.3682L38.0119 22.0206L38.0597 21.5306L39.7404 20.4901C39.8187 20.4343 39.8825 20.3605 39.9265 20.275C39.9706 20.1894 39.9935 20.0946 39.9935 19.9984C39.9935 19.9023 39.9706 19.8075 39.9265 19.7219C39.8825 19.6364 39.8187 19.5626 39.7404 19.5067L38.0555 18.4763ZM42.3281 21.7236V14.7256H46.0201V15.8718C46.0201 16.4872 46.0168 17.2681 46.01 18.2146C46.0033 19.1487 46 19.7725 46 20.0857C46 21.0065 46.0238 21.6716 46.0713 22.081C46.1188 22.4838 46.2008 22.7775 46.3171 22.9621C46.4671 23.2009 46.6614 23.385 46.9003 23.5142C47.1464 23.644 47.4261 23.7089 47.7394 23.7089C48.5035 23.7089 49.1037 23.4152 49.5401 22.8278C49.9764 22.2405 50.1946 21.4254 50.1946 20.3827V14.7248H53.8572V26.1842H50.1853V24.527C49.6326 25.1954 49.0461 25.69 48.4258 26.0105C47.8121 26.3237 47.1333 26.4804 46.3893 26.4804C45.0658 26.4804 44.0589 26.0748 43.3686 25.2637C42.6794 24.4526 42.3349 23.2723 42.3349 21.7228L42.3281 21.7236ZM66.341 15.0831V17.8663C65.5568 17.5391 64.7996 17.2935 64.0696 17.1296C63.3396 16.9657 62.6507 16.8838 62.003 16.8838C61.3071 16.8838 60.7888 16.9724 60.4482 17.1498C60.1142 17.3204 59.9472 17.5861 59.9472 17.9469C59.9472 18.24 60.0731 18.4652 60.3248 18.6223C60.5838 18.779 61.0442 18.895 61.706 18.9706L62.3504 19.0545C64.226 19.2933 65.488 19.6855 66.1363 20.2309C66.7841 20.7763 67.108 21.6321 67.108 22.7985C67.108 24.0196 66.6605 24.937 65.7654 25.5507C64.8704 26.1643 63.5268 26.4711 61.7345 26.4711C60.9771 26.4711 60.1925 26.4096 59.3808 26.2865C58.5753 26.1707 57.7466 25.9934 56.8946 25.7546V22.9713C57.6246 23.326 58.3714 23.5917 59.135 23.7684C59.9058 23.9458 60.6867 24.0344 61.4777 24.0344C62.1937 24.0344 62.7327 23.9354 63.0946 23.7374C63.456 23.5394 63.6367 23.2457 63.6367 22.8564C63.6367 22.5291 63.5108 22.2869 63.2591 22.1297C63.013 21.9658 62.5185 21.84 61.7756 21.7521L61.1312 21.6699C59.5011 21.4652 58.3586 21.0865 57.7035 20.5338C57.049 19.9811 56.7218 19.142 56.7218 18.0165C56.7218 16.8027 57.138 15.902 57.9703 15.3147C58.8027 14.7273 60.0781 14.4336 61.7966 14.4336C62.4717 14.4336 63.1811 14.4848 63.9245 14.5872C64.6685 14.6896 65.4796 14.8498 66.3578 15.068L66.341 15.0831ZM73.8727 11.4708V14.7248H77.6485V17.3444H73.8727V22.2044C73.8727 22.7358 73.9784 23.0975 74.1898 23.2893C74.4013 23.4739 74.8208 23.5662 75.4485 23.5662H77.3314V26.1858H74.1907C72.7447 26.1858 71.7182 25.8857 71.1112 25.2855C70.511 24.6786 70.2109 23.6521 70.2109 22.2061V17.3377H68.3901V14.7181H70.2109V11.4641H73.8735L73.8727 11.4708Z" fill="white"/>
</svg>
