<svg width="61" height="61" viewBox="0 0 61 61" fill="none" xmlns="http://www.w3.org/2000/svg">
<circle cx="30.5" cy="30.5" r="30.5" fill="#E94D6E"/>
<path fill-rule="evenodd" clip-rule="evenodd" d="M21 27.5V36C21 38.2091 22.7909 40 25 40H37C39.2091 40 41 38.2091 41 36V27.5H21ZM21 26H41V24C41 21.7909 39.2091 20 37 20H25C22.7909 20 21 21.7909 21 24V26ZM38 23C38 23.5523 37.5523 24 37 24C36.4477 24 36 23.5523 36 23C36 22.4477 36.4477 22 37 22C37.5523 22 38 22.4477 38 23ZM33 24C33.5523 24 34 23.5523 34 23C34 22.4477 33.5523 22 33 22C32.4477 22 32 22.4477 32 23C32 23.5523 32.4477 24 33 24Z" fill="white"/>
</svg>
