<svg width="61" height="61" viewBox="0 0 61 61" fill="none" xmlns="http://www.w3.org/2000/svg">
<circle cx="30.5" cy="30.5" r="30.5" fill="#E94D6E"/>
<path fill-rule="evenodd" clip-rule="evenodd" d="M37 20H25C22.7909 20 21 21.7909 21 24V36C21 37.8642 22.2753 39.4306 24.0011 39.8743C24.3204 39.9563 24.6551 40 25 40H37C37.3449 40 37.6796 39.9563 37.9989 39.8743C39.7247 39.4306 41 37.8642 41 36V24C41 21.7909 39.2091 20 37 20ZM31 31C33.4617 31 35.5783 32.6062 36.5115 34.9071C36.9491 35.986 36.0067 37 34.8425 37H27.1575C25.9933 37 25.0509 35.986 25.4885 34.9071C26.4217 32.6062 28.5383 31 31 31ZM31 23C32.6569 23 34 24.3431 34 26C34 27.6569 32.6569 29 31 29C29.3431 29 28 27.6569 28 26C28 24.3431 29.3431 23 31 23Z" fill="white"/>
</svg>
