<svg width="61" height="61" viewBox="0 0 61 61" fill="none" xmlns="http://www.w3.org/2000/svg">
<circle cx="30.5" cy="30.5" r="30.5" fill="#E94D6E"/>
<path fill-rule="evenodd" clip-rule="evenodd" d="M33.3998 20.45L35.3122 23L26.6873 23L28.5998 20.45C28.8483 20.1187 28.7811 19.6486 28.4498 19.4C28.1184 19.1515 27.6483 19.2187 27.3998 19.55L24.81 23.0031C22.9804 23.0776 21.5137 24.4671 21.1102 26.25H40.8893C40.4858 24.4671 39.0191 23.0776 37.1896 23.0031L34.5998 19.55C34.3512 19.2187 33.8811 19.1515 33.5498 19.4C33.2184 19.6486 33.1512 20.1187 33.3998 20.45ZM40.9712 27.75H21.0283C21.0417 27.869 21.0598 27.9886 21.0829 28.1085L22.7178 36.6085C23.0976 38.5832 24.7192 40 26.5995 40H35.4C37.2803 40 38.9019 38.5832 39.2817 36.6085L40.9166 28.1085C40.9397 27.9886 40.9578 27.869 40.9712 27.75ZM26.2498 32C26.2498 31.5858 26.5855 31.25 26.9998 31.25H34.9998C35.414 31.25 35.7498 31.5858 35.7498 32C35.7498 32.4142 35.414 32.75 34.9998 32.75H26.9998C26.5855 32.75 26.2498 32.4142 26.2498 32ZM27.9998 35.25C27.5855 35.25 27.2498 35.5858 27.2498 36C27.2498 36.4142 27.5855 36.75 27.9998 36.75H33.9998C34.414 36.75 34.7498 36.4142 34.7498 36C34.7498 35.5858 34.414 35.25 33.9998 35.25H27.9998Z" fill="white"/>
</svg>
